<svg preserveAspectRatio="none" width="100%" height="100%" overflow="visible" style="display: block;" viewBox="0 0 28 29" fill="none" xmlns="http://www.w3.org/2000/svg">
<path id="Vector" d="M14.9046 0.987616C15.0744 1.05347 15.2345 1.139 15.3822 1.24181C15.7654 1.50883 16.0685 1.89302 16.235 2.36169C16.2904 2.52514 16.3472 2.6957 16.408 2.87901C16.4081 2.8793 16.4082 2.87959 16.4083 2.87988C16.4345 2.95856 16.4613 3.03968 16.4891 3.12346C16.7131 3.79816 17.0065 4.67395 17.4763 5.98447C17.9953 7.43251 18.3386 8.60753 18.5189 9.33583C18.5525 9.47166 18.5945 9.60963 18.7129 9.95295C18.7723 10.1249 18.8488 10.3426 18.9503 10.6312L18.4413 10.1222C18.4413 10.1222 18.4413 10.1222 18.4413 10.1222C18.5296 10.1562 18.6246 10.1928 18.727 10.2322C18.9577 10.3211 19.226 10.4246 19.5401 10.5462C20.5796 10.9486 22.2188 11.5521 23.7274 12.1129C24.6432 12.4531 25.5111 12.7774 26.1686 13.0285C26.3068 13.0813 26.4443 13.1341 26.5813 13.187C26.9568 13.3288 27.2832 13.5874 27.506 13.9166C27.7289 14.2435 27.8484 14.6393 27.8422 15.0363C27.8374 15.4263 27.7109 15.8162 27.4791 16.1372C27.3156 16.3646 27.1004 16.5573 26.8512 16.695C26.7582 16.7464 26.6606 16.7902 26.5597 16.8257C25.6757 17.1257 24.7268 17.4477 23.6424 17.8225C22.7516 18.1301 21.8692 18.3831 20.9722 18.6392C20.858 18.6717 20.7433 18.7045 20.6286 18.7372C19.8649 18.9552 19.0858 19.1807 18.2557 19.4468L18.4468 19.2557C18.4345 19.2851 18.4222 19.3146 18.4099 19.3442C17.7888 20.8392 17.3512 22.0537 16.8575 23.3949C16.6646 23.9196 16.4635 24.4639 16.2413 25.0526C16.0027 25.685 15.6875 26.5033 15.3468 27.3828C15.2469 27.6439 15.0639 27.8766 14.8279 28.0353C14.6164 28.1786 14.3635 28.2615 14.1082 28.2706C14.0842 28.2715 14.0602 28.2717 14.0363 28.2714C13.9171 28.2696 13.7983 28.2521 13.6843 28.2198C13.6836 28.2196 13.6829 28.2194 13.6822 28.2192C13.5299 28.1759 13.386 28.106 13.2591 28.0145C13.0323 27.8518 12.8619 27.6198 12.7732 27.3654C12.4747 26.5076 12.1955 25.7055 11.973 25.0686C11.4767 23.6479 11.288 23.1141 11.1313 22.6687C11.0725 22.5012 11.0182 22.3461 10.9541 22.161C10.7233 21.4941 10.382 20.4849 10.0357 19.462C10.0344 19.4581 10.0331 19.4542 10.0318 19.4503C9.97451 19.2804 9.92816 19.1434 9.92823 19.1443C9.92831 19.1452 9.97723 19.2827 10.0375 19.4515C10.229 19.9903 10.4159 20.5161 10.5836 20.9868C10.5987 21.0088 10.6497 21.1334 10.7048 21.2849C10.8429 21.6642 11.2671 22.8256 11.9619 24.6317C11.9193 24.5061 11.8838 24.4009 11.8528 24.3086C11.8165 24.2003 11.7888 24.1173 11.7649 24.046C11.715 23.8973 11.6815 23.7984 11.6185 23.6243C11.4699 23.2221 11.2322 22.5914 10.9817 21.9278C10.9186 21.7602 10.8758 21.6218 10.8862 21.6189C10.8966 21.616 10.9585 21.7488 11.0244 21.9154C11.0257 21.9187 11.0269 21.9219 11.0282 21.9252C11.2857 22.5789 11.5402 23.2265 11.701 23.6446C11.742 23.751 11.7769 23.8428 11.803 23.9117C11.8238 23.9668 11.8498 24.0357 11.8635 24.0742C11.8653 24.0793 11.8688 24.089 11.8728 24.1007C11.8728 24.1009 11.8729 24.1011 11.873 24.1013C11.8752 24.1078 11.8867 24.1411 11.8974 24.1773C11.8995 24.1846 11.9042 24.2004 11.9089 24.2191C11.9106 24.2238 11.9122 24.2285 11.9138 24.2331C11.9365 24.2982 11.9595 24.3647 11.9846 24.4366C12.0824 24.7173 12.2398 25.161 12.5721 26.0834C12.6872 26.4033 12.8342 26.8058 13.0083 27.2787C13.08 27.4744 13.2162 27.6635 13.4101 27.7977C13.5839 27.9189 13.8042 27.9937 14.0363 27.9926C14.25 27.9923 14.4725 27.9264 14.6598 27.794C14.8356 27.6708 14.979 27.4893 15.056 27.2756C15.0785 27.2136 15.1011 27.151 15.1238 27.0881C15.0997 27.15 15.0756 27.212 15.0515 27.274C15.0307 27.3274 15.0056 27.3791 14.9767 27.4284C14.8953 27.5678 14.7824 27.6885 14.6491 27.7787C14.5365 27.8551 14.4095 27.9097 14.277 27.9389C14.1976 27.9564 14.1171 27.9648 14.0363 27.9641C14.0043 27.9638 13.9723 27.9621 13.9403 27.9589C13.7581 27.9411 13.5808 27.8753 13.4314 27.7701C13.4309 27.7698 13.4305 27.7694 13.4301 27.7691C13.3295 27.6983 13.2413 27.6098 13.1709 27.5091C13.1708 27.5089 13.1706 27.5086 13.1705 27.5084C13.1181 27.4335 13.0755 27.3516 13.0439 27.2655C13.0134 27.1821 12.9828 27.0984 12.952 27.0144C12.929 26.9513 12.9062 26.8891 12.8835 26.8272C12.7932 26.5812 12.7042 26.3395 12.6036 26.0606C12.5917 26.0266 12.5788 25.9896 12.5693 25.9619C12.5591 25.9322 12.5494 25.9036 12.5402 25.8765C12.5321 25.8526 12.5244 25.8298 12.517 25.808C12.5161 25.8051 12.5151 25.8021 12.5141 25.7992C12.5058 25.7747 12.4979 25.7514 12.4902 25.729C12.4825 25.7066 12.4752 25.685 12.4678 25.6638C12.4677 25.6636 12.4676 25.6634 12.4676 25.6632C12.4599 25.641 12.454 25.6242 12.4456 25.6008C12.4352 25.5714 12.4261 25.5461 12.4149 25.5156C12.4041 25.4861 12.3928 25.4553 12.3813 25.4243C12.3697 25.3933 12.3579 25.3617 12.3459 25.3296C12.3338 25.2976 12.3215 25.265 12.3091 25.2322C12.2967 25.1994 12.284 25.1662 12.2713 25.1328C12.2586 25.0994 12.2458 25.0657 12.2328 25.0318C12.2031 24.9537 12.1786 24.8773 12.1648 24.8197C12.1511 24.7621 12.149 24.728 12.1595 24.7245C12.1701 24.7211 12.1925 24.7486 12.2222 24.8009C12.252 24.8532 12.2867 24.9261 12.3185 25.0035C12.3271 25.0246 12.3358 25.0457 12.3445 25.067C12.3497 25.0796 12.3549 25.0924 12.3601 25.1051C12.3741 25.1392 12.3883 25.1737 12.4024 25.2084C12.4166 25.243 12.4309 25.278 12.4452 25.3134C12.4597 25.349 12.4742 25.385 12.4889 25.4215C12.5036 25.458 12.5185 25.4953 12.5335 25.5332C12.5482 25.5702 12.5647 25.6125 12.5794 25.6503C12.5901 25.678 12.6031 25.7122 12.6139 25.7407C12.6252 25.7704 12.6362 25.7998 12.6467 25.828C12.6572 25.8564 12.6674 25.8839 12.677 25.9101C12.6781 25.9129 12.6791 25.9157 12.6801 25.9185C12.6887 25.9416 12.6969 25.964 12.7047 25.9852C12.7135 26.0088 12.7218 26.0311 12.7298 26.0523C12.7385 26.0757 12.744 26.0898 12.7507 26.1072C12.8407 26.3361 12.9542 26.6182 13.0623 26.8872C13.0759 26.921 13.0894 26.9546 13.1027 26.9878C13.1327 27.0622 13.1626 27.1366 13.1924 27.2108C13.2246 27.2887 13.2677 27.3617 13.3198 27.4268C13.3803 27.5028 13.453 27.5682 13.534 27.62C13.5403 27.6241 13.5467 27.6281 13.5532 27.632C13.6835 27.711 13.8337 27.7545 13.9833 27.7579C14.001 27.7583 14.0187 27.7582 14.0363 27.7575C14.1108 27.7547 14.1839 27.7423 14.2547 27.7206C14.3492 27.6918 14.438 27.6465 14.5161 27.5878C14.6273 27.5044 14.7165 27.3937 14.7738 27.2693C14.7866 27.2415 14.7979 27.213 14.8076 27.1839C14.9011 26.9119 14.9958 26.6386 15.0916 26.3655C15.2016 26.0522 15.3173 25.7273 15.432 25.4147C15.5163 25.1848 15.6067 24.9506 15.6917 24.7345C15.7373 24.6183 15.7824 24.5047 15.8269 24.3928C15.8271 24.3924 15.8273 24.392 15.8274 24.3916C15.8665 24.2934 15.9053 24.1965 15.9436 24.1002C16.0258 23.8937 16.1061 23.6908 16.1853 23.4874C16.2644 23.2844 16.3422 23.0819 16.4193 22.8774C16.4958 22.6745 16.5724 22.4677 16.647 22.2625C16.7221 22.0563 16.7946 21.8535 16.8699 21.6399C16.9688 21.3591 17.0654 21.0797 17.1643 20.7927C17.2625 20.5078 17.3608 20.2204 17.4594 19.9322C17.4939 19.8315 17.5285 19.7306 17.563 19.6296C17.5632 19.6292 17.5633 19.6288 17.5634 19.6284C17.6274 19.4415 17.6914 19.2541 17.7556 19.0666C17.7622 19.0472 17.7689 19.0278 17.7755 19.0084C17.8088 18.9259 17.924 18.8037 18.0084 18.7755C18.274 18.6706 18.5404 18.5655 18.8079 18.4606C19.0945 18.3482 19.3832 18.2356 19.6737 18.1237C19.9643 18.0118 20.2632 17.898 20.5648 17.7874C20.8338 17.6886 21.1053 17.5902 21.371 17.4943C21.4411 17.4689 21.5113 17.4436 21.5814 17.4183C21.9142 17.2981 22.2362 17.1811 22.5533 17.0618C22.8702 16.9427 23.1856 16.8203 23.5028 16.6938C23.8191 16.5677 24.1383 16.4373 24.4595 16.3041C24.782 16.1703 25.0998 16.0364 25.4236 15.8988C25.6514 15.802 25.8798 15.7043 26.1097 15.6055C26.1573 15.5821 26.2015 15.5525 26.2406 15.5179C26.2907 15.4737 26.3344 15.42 26.3668 15.3621C26.3829 15.3335 26.3963 15.304 26.407 15.2744C26.4351 15.1964 26.4454 15.1144 26.4387 15.0363C26.4377 15.0239 26.4362 15.0116 26.4343 14.9994C26.4288 14.9633 26.4197 14.9282 26.4073 14.8949C26.3893 14.8463 26.3645 14.8015 26.3346 14.7623C26.3297 14.7559 26.3247 14.7496 26.3195 14.7434C26.2716 14.6864 26.2127 14.643 26.1506 14.6152C26.1225 14.6027 26.0938 14.5933 26.065 14.587C25.9664 14.5569 25.8691 14.5279 25.7735 14.5002C25.6062 14.4517 25.4675 14.4138 25.3008 14.371C24.8975 14.259 24.6509 14.1805 24.3769 14.0933C24.323 14.0761 24.2678 14.0586 24.2103 14.0404C23.8821 13.9351 23.5553 13.8268 23.2335 13.7179C22.9087 13.6078 22.5897 13.4973 22.2674 13.3833C21.9482 13.2705 21.6275 13.1546 21.3087 13.0374C20.9905 12.9204 20.6734 12.8017 20.3563 12.6807C20.0395 12.5598 19.7168 12.4344 19.4077 12.3122C19.229 12.2416 19.0397 12.1653 18.8641 12.0938C18.7374 12.0422 18.6126 11.9911 18.4903 11.9409C18.4404 11.9204 18.3907 11.9 18.3416 11.8798C18.1782 11.8128 18.0192 11.7479 17.865 11.6861C17.865 11.6861 17.865 11.6861 17.865 11.6861C17.6934 11.6228 17.4497 11.3791 17.3864 11.2075C17.3844 11.2015 17.3824 11.1955 17.3804 11.1896C17.3254 11.0266 17.271 10.8692 17.2159 10.716C17.1608 10.5625 17.1049 10.413 17.0469 10.2642C16.9868 10.11 16.9353 9.98249 16.8672 9.82029C16.8228 9.71468 16.7792 9.61125 16.7358 9.50812C16.6707 9.35374 16.6059 9.20053 16.5404 9.04626C16.4751 8.89219 16.4103 8.74015 16.3449 8.58742C16.3239 8.53832 16.3017 8.48647 16.2806 8.43724C16.2153 8.28516 16.1504 8.13491 16.0851 7.98499C16.02 7.83535 15.955 7.68725 15.8896 7.53998C15.824 7.39209 15.759 7.24689 15.6921 7.09903C15.5782 6.84775 15.4794 6.6035 15.3948 6.38886C15.3094 6.17161 15.2321 5.96769 15.1569 5.76915C15.1428 5.73196 15.1288 5.69477 15.1147 5.65758C15.0542 5.4974 14.9948 5.33979 14.9358 5.18471C14.8632 4.99357 14.7912 4.80616 14.7183 4.6184C14.646 4.43227 14.5724 4.24455 14.4988 4.06006C14.4245 3.87384 14.3528 3.69604 14.2745 3.50482C14.2257 3.38562 14.1755 3.26561 14.1229 3.14067C14.1175 3.13657 14.1114 3.13283 14.105 3.12998C14.0934 3.1248 14.0814 3.12295 14.0709 3.12355C14.0658 3.12382 14.0612 3.12466 14.0569 3.12582C14.0482 3.12823 14.0414 3.13206 14.0363 3.13592C14.0336 3.13785 14.0315 3.1398 14.0297 3.14164C14.026 3.1453 14.0234 3.14858 14.021 3.15147C14.0198 3.15303 14.0186 3.15443 14.0174 3.15581C14.0152 3.15842 14.013 3.16082 14.0104 3.16377C13.9807 3.2425 13.9505 3.32159 13.9203 3.40048C13.8353 3.622 13.7461 3.8503 13.6614 4.06354C13.5243 4.40884 13.3867 4.75216 13.2484 5.09591C13.1107 5.43776 12.9721 5.78046 12.8333 6.12229C12.6948 6.4635 12.5558 6.80497 12.4166 7.14575C12.2774 7.48669 12.1379 7.82747 11.9984 8.16767C11.9675 8.24291 11.9367 8.31815 11.9058 8.39339C11.7971 8.6583 11.6883 8.92315 11.5799 9.18687C11.5792 9.18867 11.5784 9.19048 11.5777 9.19228C11.4382 9.53175 11.3012 9.86501 11.1632 10.2017C11.1125 10.3254 11.0639 10.4441 11.0146 10.5649C10.9652 10.6858 10.9169 10.8045 10.8683 10.9243C10.8268 11.0267 10.7857 11.1285 10.7452 11.2293C10.6713 11.4121 10.4163 11.6827 10.2293 11.7452C10.2115 11.7511 10.1938 11.7571 10.1762 11.763C10.0547 11.8038 9.93644 11.8439 9.81722 11.8846C9.70793 11.922 9.59959 11.9596 9.48118 12.0005C9.47037 12.0042 9.45956 12.008 9.44875 12.0117C9.31918 12.0565 9.17156 12.1067 9.03383 12.1521C8.669 12.2721 8.31367 12.3897 7.95212 12.5099C7.59037 12.6302 7.22961 12.7508 6.86583 12.8723C6.72377 12.9197 6.58106 12.9675 6.43828 13.0151C6.21615 13.0892 5.99315 13.1634 5.76938 13.2375C5.40118 13.3595 5.03188 13.4809 4.65974 13.6018C4.28901 13.7222 3.91542 13.8421 3.54307 13.9604C3.17102 14.0785 2.79531 14.1965 2.4242 14.3121C2.26891 14.3604 2.11394 14.4086 1.95906 14.4567C1.83744 14.4882 1.72203 14.5595 1.6358 14.6617C1.62446 14.6751 1.61361 14.689 1.60331 14.7034C1.5352 14.7983 1.49141 14.9142 1.48068 15.0363C1.46866 15.1687 1.49603 15.3079 1.56159 15.4308C1.56567 15.4385 1.56989 15.4461 1.57426 15.4537C1.64854 15.5826 1.76566 15.6909 1.90753 15.7562C2.07161 15.8266 2.23585 15.897 2.40013 15.9674C2.7963 16.1372 3.19228 16.3067 3.58864 16.476C3.82586 16.5774 4.06303 16.6786 4.30036 16.7798C4.42705 16.8302 4.54847 16.8787 4.66522 16.9256C5.52777 17.2717 6.14942 17.5274 6.96686 17.8721C7.04522 17.9049 7.10907 17.9313 7.18673 17.9636C7.20154 17.9697 7.21725 17.9763 7.23327 17.9829C7.33474 18.0251 7.45116 18.0739 7.61273 18.1427C7.93521 18.2796 8.42745 18.495 9.06386 18.7725C9.22459 18.8426 9.32632 18.8888 9.29056 18.8767C9.2654 18.8683 9.17886 18.8342 9.07362 18.7915C9.26744 18.8719 9.46081 18.9519 9.65378 19.0314C9.7308 19.0631 9.80306 19.093 9.85447 19.1142C9.9021 19.1337 9.92823 19.1443 9.92823 19.1443C9.92823 19.1443 9.92807 19.1442 9.92775 19.1441C9.9233 19.1423 9.8882 19.1283 9.83003 19.1054C9.77189 19.0825 9.69552 19.0527 9.61768 19.0221C9.4112 18.9408 9.20542 18.8598 8.9996 18.7788C8.7936 18.6978 8.58857 18.6171 8.3829 18.5363C8.1773 18.4554 7.97174 18.3747 7.76551 18.2938C7.56008 18.2132 7.35422 18.1325 7.14794 18.0518C6.94036 17.9706 6.73665 17.891 6.52959 17.8102C6.40553 17.7618 6.27997 17.7128 6.15669 17.6648C6.11075 17.6469 6.0659 17.6294 6.02104 17.612C5.98437 17.5977 5.94752 17.5833 5.90958 17.5686C5.51047 17.4133 5.10739 17.2569 4.70779 17.1023C4.30629 16.9469 3.90506 16.7921 3.5037 16.6377C3.10211 16.4832 2.70072 16.3293 2.29902 16.1757C2.1394 16.1146 1.9798 16.0537 1.82014 15.9928C1.627 15.9189 1.45831 15.7849 1.34313 15.6147C1.33292 15.5997 1.32313 15.5844 1.31375 15.5689C1.21704 15.4091 1.16617 15.2223 1.16841 15.0363C1.17013 14.854 1.22272 14.6731 1.31804 14.5192C1.32939 14.5008 1.34132 14.4828 1.35381 14.4652C1.47145 14.2991 1.63974 14.1719 1.82914 14.1039C1.89223 14.0811 1.9554 14.0582 2.01858 14.0353C2.13966 13.9882 2.2595 13.9416 2.37778 13.8957C2.72208 13.7619 3.06532 13.6237 3.40302 13.4865C2.79522 13.7125 2.30852 13.8982 1.84474 14.0739C1.83691 14.0769 1.82908 14.0798 1.82126 14.0828C1.77437 14.1006 1.72902 14.1219 1.68559 14.1462C1.54952 14.2225 1.43244 14.3289 1.34335 14.4579C1.23083 14.6207 1.16254 14.8208 1.16106 15.0363C1.15968 15.229 1.21325 15.4352 1.33686 15.6191C1.37262 15.6723 1.41414 15.7233 1.4615 15.771C1.56437 15.8746 1.68686 15.9531 1.81624 16.0036C3.85624 16.7943 5.0768 17.2683 5.8567 17.5727C6.6928 17.8989 7.05112 18.0416 7.38481 18.1767C7.85617 18.3681 8.77461 18.7139 9.23669 18.8861C9.40444 18.949 9.53942 19.0009 9.53812 19.0021C9.53677 19.0032 9.39874 18.9556 9.22987 18.8957C8.73925 18.7212 7.73971 18.3625 7.17612 18.1416C6.92503 18.0434 6.63557 17.9325 5.808 17.6226C5.03679 17.3337 3.82299 16.8815 1.77467 16.1162C1.62777 16.0613 1.48773 15.974 1.3696 15.8572C1.3174 15.8056 1.27135 15.7503 1.23139 15.6926C1.08919 15.4872 1.02531 15.2552 1.02403 15.0363C1.02258 14.7929 1.09645 14.5639 1.22399 14.3747C1.31298 14.2427 1.42838 14.1295 1.56435 14.0425C1.61894 14.0076 1.67688 13.9769 1.73767 13.951C1.73805 13.9509 1.73844 13.9507 1.73882 13.9506C1.74853 13.9465 1.75828 13.9425 1.76814 13.9386C2.32904 13.7191 2.94091 13.4777 3.76504 13.165C5.69845 12.4326 8.29167 11.4271 8.90211 11.1744C9.02196 11.1249 9.13756 11.0764 9.25948 11.0253C9.43758 10.9505 9.62968 10.8697 9.87017 10.7707L9.77067 10.8702C9.90202 10.4677 10.0797 9.9363 10.3601 9.12895C10.4591 8.84388 10.5772 8.51073 10.7074 8.14773C10.872 7.59165 11.0318 7.05174 11.1788 6.58524C11.3057 6.18264 11.4077 5.80583 11.5019 5.43903C11.5291 5.33344 11.5559 5.227 11.5828 5.12072C11.6474 4.8644 11.7118 4.60786 11.7792 4.3596C11.833 4.16169 11.8868 3.95353 11.9435 3.73348C12.0382 3.36569 12.1411 2.96423 12.266 2.52028C12.3744 2.17313 12.598 1.83365 12.9302 1.586C13.2293 1.36166 13.6177 1.21582 14.0363 1.20951C14.2638 1.20572 14.4989 1.24305 14.725 1.32573C14.8821 1.38309 15.0302 1.46011 15.1652 1.55316C15.5048 1.78643 15.7575 2.12157 15.8929 2.48799C16.2216 3.37043 16.5048 4.15883 16.7561 4.86437C16.5148 4.16536 16.3355 3.62319 16.1869 3.17127C16.1589 3.08602 16.132 3.00433 16.1062 2.92569C16.0519 2.76049 16.0019 2.60874 15.9542 2.46586C15.8056 2.04357 15.5397 1.71411 15.2129 1.48468C15.0857 1.39564 14.9482 1.32166 14.8022 1.26429C14.5475 1.16416 14.2853 1.12031 14.0363 1.12255C13.5838 1.12636 13.1794 1.27991 12.8709 1.50093C12.4996 1.76637 12.2623 2.12316 12.1401 2.47339C11.8547 3.32195 11.6968 3.84835 11.5408 4.42159C11.477 4.65629 11.4102 4.91656 11.338 5.19683C11.1936 5.75701 11.0267 6.39712 10.8196 7.07464C10.6268 7.70572 10.42 8.41481 10.1983 9.16517C10.1982 9.16546 10.1981 9.16575 10.198 9.16604C10.1547 9.31267 10.1108 9.46099 10.0664 9.61052C9.94629 10.0145 9.82231 10.4274 9.69507 10.8423L9.84232 10.6951C9.34175 10.9118 8.83532 11.1267 8.33438 11.3326C8.23818 11.3722 8.12311 11.4201 7.991 11.475C7.22889 11.7933 5.88702 12.3415 4.22026 12.9346C3.8543 13.0653 3.472 13.1955 3.03621 13.3454C2.90348 13.3911 2.76568 13.4386 2.62194 13.4885C2.34957 13.583 2.05186 13.6874 1.71934 13.8062C1.48587 13.8896 1.258 14.0494 1.09374 14.284C0.949458 14.4889 0.85641 14.7521 0.857258 15.0363C0.857364 15.0852 0.860227 15.1347 0.866004 15.1843C0.889791 15.3911 0.965975 15.6024 1.09632 15.7867C1.24373 15.9967 1.4624 16.1699 1.72073 16.2623C2.24593 16.4504 2.80631 16.6497 3.37846 16.8525C3.89369 17.0351 4.41847 17.2207 4.93575 17.4033C6.49826 17.9549 7.93153 18.4573 9.36502 18.9508C9.36531 18.9509 9.3656 18.951 9.36589 18.9511C9.53517 19.0096 9.66754 19.056 9.66123 19.0549C9.65486 19.0538 9.51156 19.0082 9.34129 18.9526C7.89899 18.4804 6.4626 17.9999 4.89763 17.471C4.38571 17.2979 3.86253 17.1207 3.3469 16.9453C2.77345 16.7502 2.20908 16.5574 1.67931 16.3749C1.39642 16.2767 1.15492 16.0894 0.990816 15.8602C0.839074 15.6498 0.751931 15.4059 0.727733 15.1677C0.723195 15.1237 0.720718 15.0798 0.720219 15.0363C0.716352 14.723 0.816187 14.4304 0.974477 14.2009C1.15408 13.9391 1.40592 13.758 1.66609 13.6622C2.02305 13.53 2.34035 13.4149 2.6288 13.3114C2.77974 13.2572 2.92176 13.2066 3.05663 13.1586C3.48598 13.006 3.84339 12.8804 4.18923 12.753C5.79714 12.1626 7.08412 11.6239 7.84673 11.298C7.98206 11.2404 8.10101 11.1898 8.20245 11.1471C8.71817 10.93 9.24126 10.7028 9.76046 10.4729L9.47293 10.7605C9.58707 10.3769 9.69895 9.99404 9.80825 9.61652C9.85115 9.46835 9.89374 9.32087 9.93589 9.1745C9.93595 9.17419 9.93602 9.17389 9.93608 9.17358C10.1526 8.42154 10.3586 7.69802 10.5511 7.05376C10.7466 6.39985 10.8938 5.82101 11.0303 5.27909C11.1036 4.98832 11.174 4.7082 11.2474 4.433C11.4113 3.81826 11.5775 3.25622 11.8701 2.3744C12.0109 1.97091 12.2834 1.56414 12.7048 1.26261C13.0587 1.00876 13.5211 0.834 14.0363 0.829266C14.319 0.826493 14.616 0.875649 14.9046 0.987616ZM8.77401 18.6671C8.37623 18.5002 8.05212 18.3643 7.8102 18.2646C8.0152 18.3505 8.21977 18.4361 8.42456 18.5215C8.54112 18.5702 8.65757 18.6187 8.77401 18.6671ZM10.9651 8.18638C10.9448 8.25332 10.9243 8.32075 10.9038 8.38841C10.9695 8.20495 11.0353 8.02147 11.101 7.8383C11.1816 7.61337 11.2623 7.38851 11.3429 7.16374C11.2106 7.51963 11.083 7.8647 10.9651 8.18638ZM14.6261 1.60367C14.4319 1.53176 14.2304 1.49973 14.0363 1.50309C13.6784 1.5088 13.3491 1.63457 13.097 1.82544C12.8156 2.03733 12.6285 2.32618 12.5391 2.62069C12.4333 2.9958 12.3426 3.34282 12.2555 3.67457C12.1954 3.90327 12.1369 4.12495 12.0765 4.34332C12.0514 4.43388 12.0271 4.52462 12.0029 4.61623C12.1946 4.10149 12.3717 3.62864 12.5168 3.24162C12.5911 3.04349 12.6604 2.8602 12.7255 2.68961C12.8377 2.395 13.0339 2.17677 13.2438 2.03604C13.5061 1.8604 13.7875 1.79861 14.0363 1.80489C14.2586 1.81077 14.4584 1.86937 14.6302 1.95955C14.6921 1.99211 14.7505 2.02897 14.8053 2.0696C14.9117 2.14845 15.0048 2.24138 15.0835 2.34656C15.1748 2.44831 15.2537 2.56907 15.3112 2.70269C15.3217 2.72656 15.3322 2.7504 15.3427 2.7743C15.4282 2.96952 15.5194 3.18103 15.605 3.38272C15.691 3.58516 15.7773 3.7913 15.8608 3.9942C15.9451 4.19877 16.0274 4.40188 16.1086 4.60436C16.185 4.79488 16.2604 4.98502 16.3334 5.169C16.3375 5.17954 16.3417 5.19008 16.3459 5.20061C16.423 5.39506 16.498 5.58425 16.5688 5.75736C16.641 5.93356 16.7031 6.07927 16.7626 6.20695C16.8369 6.36641 16.9123 6.53032 16.9861 6.69269C17.0599 6.85522 17.1327 7.01735 17.2046 7.17924C17.2767 7.34149 17.3474 7.50234 17.4178 7.66383C17.4406 7.71605 17.4644 7.7707 17.4868 7.82251C17.4972 7.84639 17.5076 7.87025 17.5179 7.89406C17.3993 7.57108 17.2767 7.23558 17.1507 6.88858C16.9685 6.3873 16.7796 5.8501 16.5707 5.25773C16.296 4.47897 15.9867 3.6049 15.613 2.5916C15.499 2.2811 15.2854 1.99558 14.9959 1.79606C14.8827 1.71773 14.7583 1.65255 14.6261 1.60367ZM20.3325 11.2118C20.1919 11.1607 19.9857 11.087 19.7196 10.992C19.6567 10.9696 19.5903 10.946 19.5208 10.9212C19.5224 10.9219 19.524 10.9225 19.5256 10.9231C19.6945 10.994 19.8506 11.0591 20.0194 11.1283C20.3204 11.2517 20.6132 11.3705 20.9094 11.489C21.2068 11.608 21.5039 11.7253 21.8018 11.8415C22.1001 11.9579 22.3998 12.0732 22.6974 12.1861C22.9978 12.3 23.2945 12.4111 23.5947 12.5215C23.6903 12.5567 23.7862 12.5918 23.8823 12.6267C23.6711 12.54 23.4514 12.4515 23.2192 12.358C23.0338 12.2834 22.8404 12.2056 22.6373 12.123C22.5596 12.0914 22.4658 12.0523 22.3564 12.0068C21.9228 11.8263 21.2425 11.5429 20.3325 11.2118ZM26.3015 13.4399C26.3571 13.459 26.4123 13.4781 26.467 13.4973C26.4874 13.5045 26.5074 13.5121 26.5272 13.5201C26.7971 13.6282 27.0293 13.8079 27.2002 14.0276C27.2174 14.0496 27.234 14.0721 27.25 14.095C27.3458 14.2318 27.4193 14.382 27.4688 14.5375C27.4932 14.6141 27.512 14.6925 27.5249 14.771C27.5394 14.8591 27.5467 14.9479 27.5468 15.0363C27.5469 15.0799 27.5453 15.1234 27.5419 15.1667C27.546 15.1233 27.5483 15.0798 27.5489 15.0363C27.554 14.7 27.4531 14.3641 27.2633 14.0857C27.0748 13.8076 26.7984 13.5877 26.4784 13.4671C26.3405 13.4144 26.2019 13.3617 26.062 13.3088C26.0538 13.3056 26.0454 13.3026 26.0371 13.2994C26.1273 13.3474 26.2154 13.3942 26.3015 13.4399Z" fill="var(--stroke-0, #FF6B6B)"/>
</svg>
