<svg preserveAspectRatio="none" width="100%" height="100%" overflow="visible" style="display: block;" viewBox="0 0 6 6" fill="none" xmlns="http://www.w3.org/2000/svg">
<path id="Vector" d="M2.78119 1.11447C2.81785 1.13973 2.83712 1.1785 2.86042 1.22851C2.86044 1.22852 2.86046 1.22854 2.86049 1.22856C2.86381 1.2357 2.86718 1.24313 2.87073 1.25073C2.89929 1.31198 2.93822 1.38975 3.01745 1.48647C3.10501 1.59333 3.12266 1.73004 3.11136 1.83559C3.10925 1.85529 3.11244 1.87029 3.13007 1.89856C3.13889 1.91272 3.15101 1.92978 3.16717 1.95228C3.17216 1.95924 3.17755 1.96673 3.18334 1.97481C3.19637 1.99301 3.21151 2.01423 3.22888 2.03941C3.2865 2.12267 3.39724 2.23272 3.4957 2.33769C3.55558 2.40129 3.61116 2.46281 3.6498 2.51313C3.7063 2.58671 3.75157 2.66696 3.80018 2.75481C3.84464 2.83532 3.89194 2.92216 3.95189 3.01743C3.99777 3.09065 4.00772 3.1964 4.01712 3.30459C4.0183 3.31837 4.01949 3.33221 4.0207 3.34604C4.02896 3.44154 4.03969 3.53688 4.07075 3.62052C4.12639 3.76934 4.21454 3.84435 4.30523 3.93431C4.34086 3.96933 4.3772 4.00634 4.41348 4.04959C4.47088 4.11798 4.5443 4.22539 4.61701 4.33424C4.62321 4.34352 4.62943 4.35279 4.6356 4.36206C4.63563 4.36211 4.63566 4.36216 4.63569 4.3622C4.70205 4.46205 4.76669 4.56054 4.8152 4.63171C4.89225 4.74484 4.92273 4.78591 4.94759 4.82073C4.95691 4.83385 4.9654 4.84613 4.97503 4.86125C5.00971 4.91574 5.05674 5.00332 5.10462 5.0919C5.1048 5.09224 5.10498 5.09258 5.10516 5.09291C5.11294 5.10778 5.11934 5.11966 5.11945 5.11945C5.11956 5.11923 5.1115 5.10883 5.10148 5.09621C5.06996 5.05545 5.03929 5.01559 5.01153 4.9802C5.00524 4.98321 4.99335 4.97811 4.98367 4.96741C4.95923 4.94082 4.88363 4.86015 4.7419 4.75731C4.74787 4.76809 4.75268 4.77731 4.75682 4.78547C4.76168 4.79504 4.7653 4.80248 4.76847 4.80882C4.7751 4.822 4.77975 4.83053 4.79067 4.84302C4.81802 4.86987 4.86418 4.9089 4.91295 4.94977C4.92513 4.96023 4.92883 4.97481 4.92118 4.98236C4.91351 4.98992 4.89567 4.9893 4.88139 4.98094C4.88112 4.98077 4.88084 4.98061 4.88056 4.98044C4.82515 4.94707 4.77067 4.91362 4.73787 4.8898C4.72953 4.88374 4.72256 4.87829 4.71746 4.87408C4.71338 4.87071 4.70837 4.86643 4.7061 4.86353C4.7058 4.86315 4.70523 4.8624 4.70465 4.86143C4.70464 4.86141 4.70463 4.86139 4.70463 4.86137C4.7043 4.86083 4.7026 4.85808 4.70196 4.85396C4.70184 4.85312 4.70159 4.85129 4.70178 4.84867C4.70153 4.8483 4.70128 4.84792 4.70104 4.84754C4.69758 4.84229 4.69411 4.83686 4.69024 4.83112C4.6752 4.80859 4.64944 4.77484 4.59256 4.7078C4.54016 4.64623 4.44306 4.55066 4.3148 4.43851C4.32121 4.44834 4.32778 4.45805 4.33449 4.46761C4.35137 4.49165 4.36921 4.51494 4.38761 4.53767C4.39467 4.54637 4.40169 4.55489 4.40896 4.56347C4.42064 4.57729 4.43255 4.59095 4.44464 4.60442C4.4528 4.61353 4.46108 4.62256 4.46939 4.63153C4.46942 4.63155 4.46944 4.63157 4.46946 4.63159C4.48101 4.64404 4.49269 4.65641 4.50456 4.66878C4.50868 4.67315 4.51277 4.67744 4.51687 4.68167C4.5332 4.69847 4.5494 4.71482 4.56671 4.73498C4.56862 4.73763 4.57055 4.74064 4.57193 4.74296C4.57342 4.74544 4.57482 4.74786 4.5761 4.7502C4.57722 4.75226 4.57825 4.75427 4.57927 4.75617C4.5794 4.75642 4.57954 4.75668 4.57968 4.75693C4.58082 4.75905 4.58194 4.76105 4.58303 4.76295C4.58412 4.76485 4.58518 4.76667 4.58631 4.76838C4.58632 4.76839 4.58634 4.7684 4.58635 4.76841C4.58754 4.77019 4.58845 4.77154 4.58983 4.7733C4.59156 4.77551 4.59312 4.77735 4.5951 4.77947C4.59703 4.78152 4.59911 4.78359 4.60126 4.78561C4.60342 4.78764 4.60568 4.78965 4.608 4.79165C4.61032 4.79365 4.61271 4.79566 4.61516 4.79765C4.6176 4.79964 4.62011 4.80162 4.62263 4.80361C4.62516 4.8056 4.62772 4.80761 4.6303 4.80962C4.63624 4.81424 4.63886 4.82174 4.63765 4.83039C4.63641 4.83906 4.63148 4.84813 4.62363 4.85593C4.61578 4.86373 4.60551 4.86976 4.5948 4.87297C4.58409 4.87617 4.57383 4.87627 4.56638 4.87314C4.56436 4.87229 4.56232 4.87144 4.56028 4.87058C4.55907 4.87007 4.55786 4.86954 4.55664 4.86902C4.55337 4.86763 4.55006 4.86624 4.54677 4.86479C4.54348 4.86335 4.54019 4.86186 4.5369 4.86033C4.53359 4.85879 4.53027 4.85721 4.52696 4.85554C4.52367 4.85387 4.52036 4.8521 4.51709 4.85022C4.5139 4.84838 4.51037 4.84617 4.50735 4.84406C4.50513 4.84253 4.50254 4.8405 4.50042 4.83876C4.49821 4.83695 4.49611 4.8351 4.49413 4.83326C4.49215 4.83142 4.49029 4.82957 4.48852 4.82781C4.48833 4.82763 4.48814 4.82744 4.48794 4.82726C4.48638 4.8257 4.48488 4.82419 4.48343 4.82279C4.48182 4.82122 4.48025 4.81977 4.47872 4.81844C4.47704 4.81696 4.47594 4.81615 4.47457 4.81517C4.45522 4.80344 4.42972 4.79052 4.40543 4.77819C4.40238 4.77664 4.39935 4.77508 4.39635 4.77355C4.38038 4.76547 4.36441 4.75743 4.34846 4.74938C4.33688 4.74353 4.32528 4.73767 4.3137 4.73176C4.29667 4.72308 4.27966 4.71428 4.26276 4.70541C4.25227 4.69989 4.24201 4.69444 4.23164 4.68884C4.20453 4.67425 4.17766 4.65929 4.15138 4.64368C4.12515 4.62809 4.09936 4.61178 4.07463 4.59439C4.05 4.57707 4.02556 4.55791 4.00414 4.53724C3.98845 4.52199 3.97527 4.50344 3.96414 4.48522C3.95816 4.47542 3.95253 4.46561 3.94712 4.45579C3.94711 4.45575 3.9471 4.45571 3.94709 4.45567C3.94235 4.44706 3.93774 4.43847 3.93308 4.43004C3.92312 4.41192 3.91299 4.39448 3.90205 4.37783C3.89115 4.3612 3.87952 4.34541 3.86686 4.33046C3.85428 4.31563 3.84061 4.30142 3.82618 4.28826C3.81168 4.27501 3.7966 4.26286 3.78003 4.25082C3.75817 4.23505 3.7353 4.22056 3.71159 4.20591C3.68801 4.19141 3.66382 4.17721 3.63954 4.16301C3.63105 4.15805 3.6226 4.15303 3.61407 4.14806C3.61404 4.14804 3.61401 4.14802 3.61398 4.14799C3.5982 4.13881 3.58237 4.12961 3.56659 4.12035C3.54223 4.10604 3.51791 4.09159 3.49393 4.07665C3.46997 4.06171 3.44626 4.04627 3.42337 4.02981C3.40052 4.0133 3.37789 3.99551 3.3579 3.9749C3.33999 3.95659 3.32288 3.93719 3.30633 3.91805C3.30195 3.91299 3.29759 3.90793 3.29323 3.90286C3.2725 3.87887 3.25191 3.85616 3.22888 3.83637C3.20595 3.81651 3.18044 3.79926 3.1525 3.78405C3.12465 3.76888 3.09441 3.75556 3.06258 3.74348C3.03062 3.73134 2.99772 3.7207 2.96338 3.71062C2.92927 3.70065 2.89423 3.6914 2.8582 3.68262C2.83819 3.67771 2.8178 3.67159 2.79908 3.66526C2.78017 3.65887 2.76194 3.65198 2.7442 3.64491C2.737 3.64205 2.7299 3.63912 2.72282 3.63625C2.7125 3.63207 2.70231 3.62788 2.69212 3.62391C2.67493 3.61721 2.65777 3.61107 2.64019 3.60601C2.62261 3.60095 2.60454 3.59706 2.58549 3.59489C2.56575 3.59267 2.54796 3.59237 2.52478 3.59389C2.47413 3.59182 2.4496 3.58367 2.42233 3.57464C2.41695 3.57286 2.4114 3.57111 2.4056 3.5693C2.3735 3.55786 2.34368 3.54419 2.31585 3.5291C2.28778 3.51383 2.26177 3.49718 2.23699 3.47875C2.21244 3.46051 2.18932 3.44054 2.16769 3.41924C2.14609 3.39798 2.12597 3.37532 2.10726 3.35113C2.08856 3.32697 2.07098 3.30079 2.05549 3.27428C2.04652 3.25898 2.03796 3.24175 2.0305 3.22526C2.02511 3.21337 2.02003 3.20141 2.01509 3.18966C2.01307 3.18485 2.01107 3.18008 2.00907 3.17536C2.00244 3.1597 1.99582 3.14462 1.98863 3.13082C1.98836 3.13029 1.98808 3.12977 1.98781 3.12925C1.98031 3.11502 1.97218 3.10211 1.96281 3.0909C1.95342 3.07967 1.94278 3.07014 1.93063 3.0621C1.91797 3.05385 1.90629 3.04815 1.88969 3.04254C1.87883 3.03894 1.8681 3.0355 1.8574 3.03207C1.84137 3.02694 1.82534 3.02196 1.80906 3.01709C1.79279 3.01223 1.77657 3.00759 1.76006 3.00313C1.75475 3.0017 1.74915 3.00018 1.74377 2.99879C1.72717 2.9945 1.71053 2.99049 1.69355 2.98683C1.67661 2.98318 1.65949 2.9799 1.64199 2.97707C1.62442 2.97424 1.60674 2.97186 1.58824 2.96989C1.55676 2.9666 1.53425 2.95582 1.51606 2.94486C1.49776 2.93366 1.4825 2.92135 1.46776 2.90927C1.46499 2.907 1.46224 2.90473 1.45948 2.90246C1.44767 2.89263 1.43617 2.88284 1.42448 2.87356C1.41009 2.86211 1.39547 2.85136 1.38027 2.84111C1.36521 2.83093 1.34948 2.82118 1.33323 2.81233C1.31683 2.8034 1.30057 2.79544 1.28232 2.78759C1.26432 2.77977 1.2442 2.77367 1.22237 2.76676C1.20072 2.75993 1.17837 2.7524 1.15723 2.74328C1.13607 2.7342 1.11602 2.72354 1.09776 2.71132C1.07943 2.69909 1.06259 2.68527 1.04733 2.67031C1.03198 2.65527 1.01807 2.63897 1.00526 2.62173C0.992468 2.60453 0.980344 2.58568 0.969896 2.56714C0.952976 2.53711 0.936968 2.50639 0.921323 2.47522C0.905787 2.44419 0.89064 2.41264 0.875831 2.38084C0.861055 2.34909 0.846532 2.31704 0.832298 2.28478C0.818055 2.2525 0.804034 2.22001 0.790192 2.18741C0.787131 2.1802 0.784075 2.17298 0.781026 2.16576C0.770293 2.14032 0.759642 2.11481 0.749059 2.08938C0.749 2.08919 0.748941 2.089 0.748882 2.08881C0.73523 2.05611 0.721915 2.02391 0.708177 1.99168C0.703114 1.97987 0.698249 1.96852 0.693187 1.9571C0.688117 1.94568 0.683055 1.93455 0.677832 1.92344C0.6726 1.91232 0.667262 1.90139 0.661835 1.89081C0.656337 1.88012 0.650823 1.86986 0.644946 1.85981C0.63958 1.85058 0.633906 1.84177 0.627788 1.83205C0.627229 1.83117 0.62667 1.83028 0.626111 1.8294C0.619416 1.81877 0.612325 1.80615 0.606733 1.79343C0.592049 1.7596 0.577272 1.72709 0.561813 1.69442C0.546349 1.66172 0.530543 1.62947 0.514629 1.59693C0.508419 1.58422 0.502145 1.57148 0.495953 1.55866C0.486319 1.53871 0.476754 1.51859 0.467386 1.49817C0.451963 1.4646 0.43718 1.43028 0.423239 1.3948C0.409351 1.35945 0.396331 1.32292 0.384269 1.28566C0.37221 1.24843 0.360909 1.21001 0.350418 1.17144C0.338745 1.12844 0.327483 1.08535 0.316196 1.04204C0.30494 0.998794 0.29374 0.955456 0.282531 0.912368C0.271274 0.869131 0.25999 0.826058 0.248571 0.783103C0.237146 0.740122 0.225598 0.6973 0.213843 0.654646C0.206809 0.629117 0.199716 0.603656 0.192528 0.578275C0.186427 0.567145 0.180661 0.556391 0.175227 0.545934C0.135264 0.468471 0.110504 0.408328 0.0833246 0.323495C0.0805881 0.315504 0.0781467 0.309217 0.075249 0.301495C0.0746964 0.300022 0.07412 0.298449 0.0735294 0.296849C0.0697885 0.286711 0.0656887 0.274874 0.0607655 0.257626C0.0506469 0.223515 0.039309 0.16706 0.0240156 0.0947485C0.0202108 0.0764236 0.0189227 0.0636299 0.0220292 0.065293C0.0242593 0.066416 0.028671 0.0737579 0.0332993 0.0834729C0.0259977 0.0642747 0.0185562 0.0452879 0.0109455 0.0265383C0.00791491 0.0190472 0.0051595 0.0119247 0.0030847 0.00698016C0.0011743 0.00238548 4.08564e-06 -3.86599e-06 0 0C0 0 0 0 0 0C5.81032e-09 1.13749e-08 7.3229e-06 1.45715e-05 2.22105e-05 4.37165e-05C0.000220476 0.000451587 0.00188447 0.00356291 0.00488717 0.00845859C0.00787419 0.0133672 0.0119431 0.0196578 0.015942 0.0262288C0.0265362 0.0436746 0.0370763 0.0610799 0.0476314 0.0784758C0.0581953 0.0958861 0.0687284 0.113195 0.0793347 0.130513C0.0899375 0.147827 0.100583 0.165089 0.111323 0.182345C0.122021 0.199531 0.132795 0.2167 0.143665 0.233821C0.154602 0.251054 0.165418 0.267877 0.176472 0.284912C0.183097 0.295116 0.189819 0.305426 0.196458 0.315507C0.198929 0.319268 0.201359 0.322918 0.203782 0.326579C0.205763 0.329571 0.207747 0.332584 0.209797 0.335679C0.231401 0.368197 0.253492 0.400747 0.275691 0.432697C0.297989 0.464807 0.32055 0.496596 0.34341 0.528086C0.366282 0.559594 0.389451 0.590757 0.412908 0.621657C0.436354 0.652541 0.460082 0.683111 0.484171 0.713423C0.508182 0.743613 0.532574 0.773642 0.557304 0.803203C0.576432 0.826069 0.595668 0.848472 0.6152 0.870645C0.62507 0.877194 0.634796 0.883716 0.644404 0.890147C0.672355 0.908877 0.703461 0.924517 0.73499 0.939037C0.692667 0.899399 0.655493 0.870732 0.620979 0.842564C0.61635 0.838788 0.611757 0.835033 0.607214 0.831253C0.560771 0.792735 0.51904 0.75239 0.474235 0.6868C0.346504 0.500558 0.273134 0.391876 0.228481 0.323089C0.183802 0.254348 0.166519 0.222898 0.151857 0.192079C0.131448 0.14822 0.0743014 0.0813276 0.0444535 0.0488446C0.0338261 0.0368296 0.0261248 0.0262547 0.0272746 0.0252076C0.0284273 0.0241642 0.0398159 0.0312264 0.0526654 0.0410233C0.0897217 0.0697833 0.163208 0.130519 0.192716 0.177506C0.205988 0.198304 0.222735 0.220736 0.275315 0.279848C0.327791 0.339076 0.414506 0.432734 0.563611 0.598206C0.613917 0.654321 0.659006 0.688218 0.710118 0.721163C0.715123 0.7244 0.720216 0.727609 0.72534 0.730859C0.725366 0.730885 0.725392 0.730911 0.725418 0.730938C0.772616 0.760952 0.825476 0.792166 0.888279 0.842734C1.03215 0.96017 1.24107 1.10276 1.30119 1.12608C1.31288 1.13076 1.32471 1.13476 1.33721 1.13896C1.38516 1.15509 1.44383 1.1738 1.54935 1.24264C1.57242 1.25771 1.59789 1.27691 1.62462 1.29892C1.68792 1.30877 1.74942 1.31829 1.7968 1.33266C1.83766 1.3451 1.88672 1.34518 1.93767 1.34185C1.95234 1.34089 1.96743 1.3396 1.9825 1.3383C2.01887 1.33516 2.05549 1.33178 2.08766 1.332C2.1133 1.33218 2.142 1.33052 2.17248 1.32862C2.28325 1.32195 2.41931 1.31064 2.51086 1.38165C2.60764 1.45718 2.67549 1.53687 2.7313 1.6083C2.69542 1.55074 2.67291 1.50111 2.65475 1.45917C2.65133 1.45126 2.64806 1.44366 2.64491 1.43636C2.62264 1.38477 2.6058 1.34792 2.57292 1.32325C2.41542 1.20588 2.3368 1.18142 2.22181 1.18008C2.19148 1.17979 2.15523 1.18225 2.11647 1.18461C2.03892 1.18941 1.95154 1.19358 1.87862 1.1771C1.81062 1.16182 1.72786 1.15145 1.64215 1.13848C1.64213 1.13846 1.6421 1.13845 1.64208 1.13843C1.62533 1.1359 1.60845 1.13326 1.59154 1.1305C1.48833 1.11373 1.38468 1.09118 1.29786 1.05515C1.28857 1.05131 1.27705 1.04709 1.26387 1.0422C1.18685 1.01492 1.05968 0.958985 0.961845 0.833225C0.940086 0.805872 0.921641 0.773284 0.899584 0.737104C0.892868 0.726083 0.885847 0.714684 0.878271 0.703032C0.845607 0.652683 0.801987 0.595443 0.732228 0.530906C0.674688 0.477613 0.599063 0.418163 0.519251 0.357714C0.479921 0.327955 0.439556 0.297972 0.399566 0.268632C0.27883 0.179946 0.165799 0.101033 0.0469521 0.0283011C0.0469277 0.0282864 0.0469034 0.0282717 0.0468791 0.028257C0.032998 0.0195052 0.0225702 0.0122045 0.0237998 0.0117701C0.0250296 0.0113439 0.0392488 0.0161162 0.0553431 0.0226442C0.190527 0.0791523 0.318571 0.142466 0.45458 0.21518C0.499086 0.23895 0.544263 0.263569 0.58837 0.288282C0.678679 0.338916 0.764626 0.389924 0.829945 0.43647C0.909739 0.493257 0.960324 0.545379 0.998364 0.591493C1.00753 0.602591 1.01593 0.613255 1.02381 0.62346C1.04892 0.655949 1.06882 0.683921 1.09207 0.70726C1.19893 0.816895 1.32982 0.862191 1.4119 0.884792C1.42631 0.888955 1.43899 0.892597 1.44946 0.896017C1.54017 0.925747 1.64747 0.942709 1.75533 0.954717C1.77282 0.95668 1.79029 0.95856 1.80771 0.960337C1.80777 0.960324 1.80782 0.960312 1.80787 0.960299C1.89737 0.969453 1.98502 0.976622 2.05722 0.989238C2.13044 1.00211 2.21181 0.995832 2.28885 0.989028C2.33017 0.985402 2.37011 0.981754 2.40664 0.981071C2.53209 0.979031 2.61736 1.00255 2.78119 1.11447ZM0.0444721 0.113272C0.058249 0.153965 0.0694883 0.187106 0.0789966 0.210648C0.0718482 0.189728 0.0646104 0.168964 0.0572204 0.148331C0.0530142 0.136588 0.0487683 0.124903 0.0444721 0.113272ZM1.44753 1.48269C1.44021 1.48119 1.43284 1.47967 1.42545 1.47813C1.43904 1.48917 1.45256 1.50029 1.46608 1.51137C1.48268 1.52496 1.49922 1.53862 1.51577 1.55225C1.49254 1.52748 1.46961 1.50391 1.44753 1.48269ZM2.30248 1.59042C2.21937 1.52022 2.09741 1.52762 1.99017 1.53155C1.95924 1.53273 1.92944 1.53368 1.90188 1.5327C1.89045 1.53229 1.87851 1.53241 1.86619 1.53281C1.89955 1.56888 1.92959 1.60266 1.95404 1.63045C2.027 1.71339 2.05505 1.77405 2.07938 1.82769C2.08641 1.84322 2.09316 1.85815 2.10054 1.87289C2.11694 1.87479 2.13367 1.87707 2.14967 1.88028C2.17216 1.88468 2.19545 1.89045 2.2168 1.89677C2.23825 1.90309 2.2592 1.91036 2.27889 1.91838C2.29874 1.92648 2.31756 1.93534 2.3357 1.94476C2.35279 1.95361 2.36924 1.963 2.38517 1.97209C2.38608 1.97261 2.38699 1.97313 2.3879 1.97366C2.40475 1.98323 2.42109 1.99261 2.43758 1.99974C2.45441 2.00697 2.46997 2.0114 2.48713 2.01199C2.50853 2.01275 2.52984 2.01418 2.55034 2.01616C2.57087 2.01813 2.59073 2.02067 2.61003 2.02372C2.62936 2.02678 2.64806 2.03025 2.6664 2.03414C2.67233 2.0354 2.67849 2.03676 2.68429 2.03809C2.68696 2.0387 2.68966 2.03928 2.69231 2.03991C2.6709 2.01783 2.649 1.99458 2.62686 1.97006C2.59487 1.93464 2.56489 1.89264 2.5314 1.84675C2.47429 1.76843 2.40678 1.67893 2.30248 1.59042ZM3.04252 2.34884C3.03263 2.33983 3.01725 2.32752 2.99735 2.31171C2.99265 2.30798 2.98761 2.30411 2.98241 2.29998C2.98247 2.30014 2.98258 2.30026 2.98264 2.30042C2.98847 2.31772 2.99413 2.33341 3.00098 2.34961C3.01323 2.37845 3.026 2.40559 3.03992 2.43198C3.05391 2.45847 3.06888 2.48386 3.08482 2.50832C3.1008 2.53281 3.11788 2.55632 3.13583 2.57859C3.15398 2.60105 3.17281 2.62226 3.19318 2.64232C3.19966 2.64871 3.20631 2.65498 3.21308 2.66112C3.20458 2.64079 3.1946 2.62085 3.18402 2.59981C3.17557 2.583 3.16676 2.56547 3.15806 2.54647C3.15473 2.5392 3.15129 2.52982 3.14727 2.51887C3.13133 2.4755 3.10652 2.40723 3.04252 2.34884ZM3.42622 2.77045C3.43205 2.774 3.43771 2.77767 3.44309 2.78151C3.45841 2.79243 3.4721 2.80433 3.48514 2.81636C3.49429 2.82483 3.50307 2.83346 3.51176 2.84192C3.51543 2.84549 3.51913 2.84903 3.52277 2.85256C3.52886 2.85846 3.535 2.86423 3.54111 2.86995C3.50881 2.81931 3.47582 2.77122 3.43761 2.72492C3.4371 2.72431 3.43654 2.72376 3.43603 2.72315C3.43268 2.73928 3.4294 2.75505 3.42622 2.77045Z" fill="var(--stroke-0, #B4D455)"/>
</svg>
