<svg preserveAspectRatio="none" width="100%" height="100%" overflow="visible" style="display: block;" viewBox="0 0 35 33" fill="none" xmlns="http://www.w3.org/2000/svg">
<path id="Vector" d="M1.18807 17.5563C1.28032 17.3038 1.39088 17.065 1.52264 16.831C1.72177 16.4788 1.96758 16.1353 2.29519 15.7877C2.29547 15.7874 2.29575 15.7871 2.29603 15.7868C2.37402 15.7043 2.45689 15.6218 2.5451 15.5395C2.80173 15.3003 3.10742 15.0576 3.48478 14.8284C4.12713 14.4422 4.99307 14.0734 6.13996 14.0065C6.18036 14.0043 6.22101 14.0025 6.26204 14.0012C7.26381 13.9678 8.15489 14.2288 8.83394 14.586L7.37476 15.5099C7.40842 14.8327 7.45179 14.271 7.49471 13.8491C7.51013 13.6976 7.51848 13.5409 7.526 13.1455C7.52978 12.9474 7.53327 12.6961 7.53776 12.3631C7.53915 12.26 7.54064 12.1492 7.54226 12.0296C7.54592 11.7605 7.55021 11.4474 7.55574 11.0807C7.56549 10.4335 7.56971 9.59042 7.57241 8.67867C7.57083 8.13884 7.79261 7.58595 8.19054 7.19223C8.57787 6.8025 9.12785 6.57548 9.67698 6.57861C9.8296 6.57895 9.98165 6.5793 10.1326 6.57967C11.1964 6.5823 12.2053 6.5865 12.9717 6.59476C14.0924 6.60683 15.1738 6.63157 16.3494 6.65932C16.6106 6.66549 16.8764 6.67183 17.1483 6.67823L16.4974 7.70683C16.1638 6.964 15.9836 6.096 16.0559 5.16683C16.0711 4.97314 16.0974 4.77716 16.1358 4.58009C16.2643 3.91905 16.5368 3.30165 16.914 2.76967C17.1967 2.37055 17.538 2.01862 17.9216 1.72396C18.0356 1.63641 18.1535 1.55367 18.2746 1.47634C18.4512 1.36353 18.6351 1.26175 18.8252 1.17156C19.534 0.835662 20.3311 0.658258 21.1662 0.681745C21.1767 0.682046 21.1872 0.682378 21.1976 0.682742C22.0659 0.714564 22.832 0.954924 23.4873 1.32181C24.1889 1.71737 24.7714 2.26262 25.2052 2.94435C25.2399 2.99907 25.2735 3.05463 25.3062 3.11114C25.6277 3.66857 25.8516 4.31653 25.9149 5.03917C25.9192 5.08912 25.9228 5.14011 25.9256 5.19208C25.9643 5.86036 25.8463 6.70204 25.4533 7.49627L25.2469 7.17013C25.8292 7.17879 26.4406 7.18855 27.0529 7.19856C27.1861 7.20074 27.3196 7.20289 27.4526 7.20509C27.4533 7.2051 27.454 7.20511 27.4547 7.20512C28.8866 7.22881 30.292 7.25274 31.3231 7.26876C31.9032 7.27779 32.3551 7.28456 32.7198 7.28986C33.1988 7.30273 33.5016 7.51501 33.692 7.70653C33.7924 7.80974 33.8657 7.9157 33.9228 8.02336C34.0181 8.20652 34.0724 8.39557 34.0793 8.62232C34.0797 8.6409 34.0798 8.65966 34.0795 8.67867C34.0651 9.44665 34.0371 10.5803 34.009 11.7292C34.0089 11.7337 34.0088 11.7382 34.0087 11.7426C34.0037 11.9377 33.9998 12.0952 34 12.0943C34.0002 12.0933 34.0019 11.9344 34.0037 11.7393C34.0103 11.1166 34.0168 10.509 34.0222 9.96491C34.0156 9.93671 34.0108 9.7902 34.0115 9.61462C34.0123 9.44103 34.013 9.12605 34.0121 8.67867C34.0131 8.39554 33.9099 8.04355 33.6308 7.76775C33.415 7.55244 33.0878 7.3942 32.7198 7.39848C32.424 7.40139 32.1084 7.40499 31.7736 7.40941C31.918 7.41281 32.0389 7.41592 32.1448 7.41876C32.2691 7.4221 32.3644 7.4248 32.4463 7.42704C32.5475 7.4298 32.6286 7.43186 32.7198 7.43333C32.7809 7.43446 32.8465 7.4391 32.9251 7.45259C33.1301 7.48569 33.3882 7.58631 33.601 7.79746C33.8155 8.00602 33.9719 8.32961 33.9727 8.67867C33.9731 8.73664 33.9735 8.79494 33.974 8.85345C33.9752 9.04847 33.9675 9.20596 33.9567 9.2051C33.946 9.20415 33.9338 9.04513 33.9296 8.85009C33.9295 8.84627 33.9295 8.84246 33.9294 8.83865C33.9283 8.78525 33.9272 8.7319 33.9261 8.67867C33.9209 8.34824 33.7695 8.03864 33.5589 7.8396C33.3417 7.62987 33.0752 7.53709 32.8665 7.51514C32.8142 7.50929 32.7648 7.50731 32.7198 7.50784C32.6629 7.50845 32.6122 7.50892 32.5691 7.50925C32.505 7.50976 32.4249 7.51027 32.3804 7.50983C32.3744 7.50977 32.3632 7.50964 32.3497 7.50937C32.3495 7.50936 32.3493 7.50935 32.3491 7.50934C32.3415 7.50919 32.3032 7.50845 32.2622 7.50598C32.254 7.50548 32.236 7.50436 32.2151 7.50238C32.2097 7.50229 32.2044 7.5022 32.199 7.5021C32.1239 7.50083 32.0473 7.49944 31.9644 7.49813C31.6408 7.49283 31.1281 7.48718 30.0605 7.47999C29.0786 7.47352 27.4187 7.47459 25.3475 7.48598C25.4874 7.4884 25.6277 7.49062 25.7678 7.49264C26.1204 7.4977 26.4747 7.50156 26.8291 7.50461C26.9649 7.50578 27.0988 7.50684 27.2353 7.50776C27.4549 7.50927 27.6752 7.51052 27.8955 7.51149C28.0443 7.51216 28.1934 7.5127 28.3423 7.51316C28.3427 7.51315 28.343 7.51315 28.3434 7.51315C28.5501 7.51379 28.7573 7.51427 28.9662 7.51463C29.0393 7.51481 29.1115 7.51494 29.1833 7.51503C29.4687 7.51538 29.7491 7.51548 30.072 7.5175C30.1112 7.51802 30.1539 7.51878 30.1857 7.51945C30.2199 7.52014 30.2528 7.52087 30.284 7.52162C30.3114 7.52228 30.3376 7.52298 30.3627 7.5236C30.3661 7.52368 30.3694 7.52376 30.3728 7.52384C30.4009 7.52454 30.4277 7.52516 30.4536 7.52573C30.4793 7.5263 30.5041 7.52684 30.5286 7.52725C30.5288 7.52725 30.529 7.52725 30.5293 7.52724C30.5548 7.52766 30.5742 7.52797 30.6013 7.52824C30.6353 7.52858 30.6645 7.52878 30.6999 7.52887C30.7341 7.52896 30.7698 7.52895 30.8059 7.52886C30.8419 7.52877 30.8786 7.52859 30.9159 7.52837C30.9532 7.52814 30.9911 7.52787 31.0293 7.52755C31.0675 7.52723 31.1062 7.52686 31.1451 7.52648C31.184 7.5261 31.2233 7.52571 31.2628 7.5253C31.3538 7.52437 31.4411 7.52782 31.5051 7.5348C31.5691 7.5418 31.6048 7.5517 31.6044 7.56277C31.6039 7.57384 31.5674 7.58535 31.5028 7.59521C31.4381 7.60504 31.3505 7.61236 31.2595 7.61542C31.2347 7.61625 31.2098 7.61709 31.1848 7.61793C31.1699 7.61842 31.1549 7.6189 31.14 7.61939C31.0999 7.62072 31.0593 7.62208 31.0185 7.62339C30.9778 7.62469 30.9366 7.62596 30.895 7.62721C30.8533 7.62846 30.8111 7.62969 30.7682 7.63085C30.7254 7.632 30.6817 7.63308 30.6373 7.63406C30.5939 7.63503 30.5445 7.63595 30.5003 7.6366C30.468 7.63709 30.4282 7.63748 30.395 7.63775C30.3603 7.63803 30.3262 7.63821 30.2934 7.63831C30.2604 7.6384 30.2286 7.63841 30.1981 7.63842C30.1949 7.63843 30.1916 7.63843 30.1884 7.63844C30.1615 7.63845 30.1355 7.63844 30.111 7.63847C30.0836 7.6385 30.0576 7.63859 30.0329 7.63873C30.0058 7.63887 29.9892 7.63907 29.969 7.63935C29.7013 7.64473 29.3703 7.65363 29.0547 7.66209C29.0151 7.66315 28.9756 7.66419 28.9366 7.66523C28.7293 7.67081 28.5225 7.67642 28.3158 7.682C28.1655 7.68606 28.0151 7.69012 27.8645 7.69412C27.6429 7.70002 27.4206 7.70583 27.1986 7.71151C27.0607 7.71503 26.9253 7.71842 26.7877 7.7218C26.4285 7.73065 26.0681 7.73908 25.7072 7.74662C25.5541 7.74981 25.4007 7.75286 25.2469 7.75571C24.954 7.74488 24.7889 7.50572 24.9241 7.24561C25.0026 7.07079 25.0694 6.89052 25.1236 6.70673C25.218 6.38851 25.2764 6.04714 25.2945 5.7155C25.3036 5.55434 25.3047 5.39004 25.2975 5.2304C25.2938 5.14856 25.288 5.06797 25.2803 4.98967C25.2681 4.86553 25.2508 4.74436 25.2288 4.62572C25.2288 4.62532 25.2287 4.62491 25.2287 4.6245C25.2093 4.52038 25.1864 4.41821 25.1596 4.31769C25.1024 4.10218 25.0282 3.89475 24.9372 3.6947C24.8692 3.54529 24.7919 3.40048 24.7054 3.26062C24.6763 3.2135 24.6461 3.16699 24.6149 3.12102C24.4919 2.93997 24.3511 2.76643 24.1979 2.60788C24.044 2.44858 23.8799 2.3047 23.6958 2.16967C23.5362 2.05281 23.3688 1.94849 23.1931 1.85622C23.1023 1.80854 23.0093 1.7641 22.9139 1.72295C22.6361 1.60308 22.3433 1.51388 22.0441 1.45826C21.9396 1.43881 21.8342 1.42332 21.7283 1.41205C21.7279 1.412 21.7274 1.41195 21.727 1.41191C21.5513 1.39325 21.3743 1.38599 21.1976 1.39014C21.1773 1.39062 21.157 1.39124 21.1368 1.39202C20.8329 1.40363 20.5303 1.44912 20.236 1.52731C19.9417 1.60543 19.6551 1.71649 19.383 1.85788C19.3366 1.882 19.2904 1.90709 19.2445 1.93314C19.0215 2.05966 18.8063 2.20888 18.6051 2.3765C18.3887 2.55675 18.189 2.76066 18.0159 2.978C17.9701 3.03537 17.9259 3.09399 17.8833 3.15378C17.8456 3.20671 17.8095 3.26027 17.7748 3.31442C17.6237 3.55038 17.501 3.79708 17.407 4.05158C17.2915 4.36422 17.2182 4.69194 17.1894 5.02552C17.1834 5.09516 17.1793 5.16511 17.1771 5.23525C17.169 5.50001 17.1888 5.7673 17.2365 6.03021C17.2971 6.36417 17.4003 6.68425 17.5449 6.98971C17.5734 7.04989 17.6035 7.10931 17.6351 7.16792C17.8181 7.57036 17.5903 7.94409 17.1483 7.93719C16.8433 7.95124 16.5368 7.96602 16.2273 7.98146C16.0126 7.99214 15.7842 8.00223 15.5684 8.01099C15.3505 8.01984 15.134 8.02786 14.9203 8.03541C14.8336 8.03847 14.7473 8.04142 14.6616 8.0444C14.5366 8.04874 14.4127 8.05299 14.2907 8.05738C14.0849 8.0648 13.8841 8.07259 13.6891 8.08145C13.4941 8.0903 13.3049 8.10033 13.1221 8.11226C12.9329 8.12465 12.7769 8.13702 12.5904 8.15448C12.1361 8.18883 11.8547 8.20042 11.5419 8.21332C11.4803 8.21586 11.4173 8.21854 11.3517 8.22136C10.9767 8.23597 10.602 8.2474 10.2322 8.25641C10.0461 8.26092 9.86147 8.26482 9.67698 8.26816C9.61734 8.27151 9.55952 8.28731 9.50721 8.31416C9.46553 8.33555 9.42784 8.36371 9.39571 8.3974C9.34825 8.44703 9.31377 8.50826 9.2959 8.57403C9.28661 8.60812 9.28175 8.64323 9.28143 8.67867C9.28072 8.93333 9.27904 9.18792 9.27636 9.44296C9.27251 9.81227 9.26642 10.1892 9.25864 10.5511C9.25416 10.7602 9.24802 10.9824 9.24164 11.1887C9.23705 11.3376 9.23218 11.4843 9.22736 11.6282C9.22539 11.6869 9.22343 11.7453 9.22151 11.8032C9.21512 11.9953 9.20914 12.1822 9.20447 12.3631C9.20429 12.3699 9.20411 12.3768 9.20394 12.3836C9.19918 12.5709 9.19579 12.7521 9.1945 12.9294C9.19319 13.1071 9.19398 13.2809 9.19689 13.4547C9.20001 13.635 9.20423 13.7846 9.212 13.976C9.21714 14.1006 9.2223 14.2227 9.22744 14.3444C9.23514 14.5267 9.24295 14.7076 9.25102 14.8899C9.25909 15.0719 9.26728 15.2517 9.27581 15.4323C9.277 15.4577 9.27823 15.4838 9.27947 15.5099C9.27677 16.2341 8.67276 16.6199 8.01932 16.3078C7.99425 16.2977 7.96899 16.2878 7.94434 16.2786C7.80896 16.2277 7.67244 16.1861 7.53449 16.1532C7.3968 16.1205 7.25883 16.0968 7.12105 16.082C6.98269 16.0671 6.84628 16.0611 6.70796 16.0638C6.55409 16.0669 6.40584 16.0756 6.26771 16.0895C6.19482 16.0969 6.12478 16.1056 6.0583 16.1156C5.86356 16.1446 5.68401 16.1851 5.51305 16.2367C5.48103 16.2464 5.44916 16.2566 5.41744 16.2672C5.28084 16.3127 5.14934 16.3659 5.0237 16.4262C4.88801 16.4913 4.75903 16.5646 4.63564 16.6461C4.61822 16.6576 4.60093 16.6693 4.58374 16.6811C4.44592 16.776 4.31445 16.8826 4.19427 16.9968C4.07308 17.1123 3.96561 17.2311 3.86105 17.3672C3.75782 17.5019 3.66469 17.6473 3.57708 17.8131C3.557 17.8512 3.53742 17.89 3.5184 17.9295C3.45532 18.0606 3.3987 18.1991 3.35033 18.3415C3.2874 18.5265 3.2383 18.7186 3.20453 18.9115C3.17062 19.1048 3.15181 19.301 3.14826 19.4947C3.14786 19.5165 3.14764 19.5382 3.14762 19.56C3.14744 19.7328 3.15923 19.9046 3.18288 20.0743C3.20924 20.265 3.25282 20.4599 3.30772 20.6386C3.36525 20.8265 3.43883 21.0095 3.52784 21.1853C3.57589 21.2802 3.62841 21.3731 3.68529 21.4634C3.84657 21.7199 4.04351 21.9568 4.26916 22.1641C4.38625 22.2717 4.51119 22.3716 4.64284 22.4626C4.76434 22.5465 4.89151 22.6229 5.02329 22.691C5.29795 22.833 5.59321 22.9388 5.89855 23.0038C5.96608 23.0182 6.03412 23.0306 6.10256 23.041C6.15674 23.0492 6.21117 23.0562 6.26579 23.0619C6.45405 23.0815 6.64435 23.086 6.83385 23.0751C6.83553 23.075 6.83721 23.075 6.83889 23.0749C7.15353 23.0563 7.46186 22.9964 7.76138 22.8955C7.84811 22.8663 7.93119 22.8346 8.01336 22.7997C8.68598 22.5019 9.31185 22.8748 9.2934 23.6101C9.29244 23.64 9.29149 23.6698 9.29054 23.6998C9.28605 23.8419 9.28176 23.9814 9.2776 24.1221C9.27343 24.263 9.26948 24.4031 9.26583 24.541C9.26216 24.6805 9.25881 24.8164 9.25586 24.9536C9.25313 25.0793 9.2509 25.2042 9.24836 25.3406C9.24813 25.353 9.2479 25.3655 9.24767 25.3779C9.24489 25.5272 9.24098 25.6969 9.23594 25.8547C9.2224 26.2727 9.20986 26.68 9.19769 27.0947C9.1855 27.5097 9.17388 27.9237 9.16212 28.3411C9.15752 28.5042 9.15295 28.6679 9.14826 28.8318C9.14097 29.0866 9.1335 29.3424 9.12569 29.599C9.11717 29.8792 9.10822 30.1598 9.09871 30.4414C9.09388 30.5059 9.09975 30.5719 9.11674 30.6363C9.13944 30.7226 9.18214 30.8053 9.24237 30.876C9.31506 30.9616 9.41333 31.0288 9.52468 31.0659C9.57338 31.0821 9.62454 31.0928 9.67698 31.0972C10.0006 31.1112 10.3251 31.1259 10.6464 31.141C11.1174 31.1631 11.5856 31.1856 12.056 31.2083C12.5256 31.2309 12.9955 31.2536 13.4633 31.2762C13.9327 31.2988 14.401 31.3213 14.8695 31.3436C15.3382 31.3659 15.8066 31.388 16.2754 31.4098C16.5559 31.4229 16.8364 31.4359 17.117 31.4488C17.2654 31.4523 17.4078 31.4559 17.5447 31.4594C18.5563 31.4859 19.2878 31.5109 20.2528 31.5517C20.3452 31.5554 20.4204 31.5581 20.5119 31.5616C20.5294 31.5622 20.5479 31.5629 20.5668 31.5636C20.6863 31.5681 20.8236 31.5736 21.0147 31.5823C21.3957 31.5993 21.9798 31.6312 22.7345 31.6715C22.9252 31.6818 23.0465 31.6899 23.0054 31.6909C22.9765 31.6917 22.8752 31.6897 22.7517 31.6861C22.98 31.6945 23.2077 31.7026 23.4348 31.7105C23.5254 31.7137 23.6105 31.7168 23.671 31.7188C23.727 31.7207 23.7577 31.7215 23.7577 31.7215C23.7577 31.7215 23.7577 31.7215 23.7577 31.7215C23.7577 31.7215 23.7575 31.7215 23.7571 31.7215C23.7519 31.7214 23.7108 31.7203 23.6427 31.719C23.5747 31.7176 23.4855 31.7161 23.3944 31.7143C23.1528 31.7094 22.9121 31.7046 22.6713 31.6997C22.4302 31.6949 22.1904 31.6901 21.9498 31.6853C21.7093 31.6806 21.4689 31.6759 21.2277 31.6713C20.9874 31.6667 20.7467 31.6622 20.5055 31.6578C20.2628 31.6533 20.0247 31.6491 19.7827 31.6449C19.6377 31.6423 19.491 31.6398 19.347 31.6374C19.2933 31.6364 19.2409 31.6356 19.1885 31.6347C19.1456 31.634 19.1026 31.6333 19.0582 31.6325C18.592 31.6248 18.1212 31.6174 17.6547 31.6105C17.186 31.6036 16.7177 31.5971 16.2495 31.5909C15.781 31.5848 15.3129 31.5792 14.8446 31.5739C14.3765 31.5687 13.9087 31.5638 13.44 31.5594C12.9731 31.5551 12.5042 31.5511 12.0365 31.5477C11.6747 31.545 11.316 31.5428 10.9567 31.5409C10.8152 31.5433 10.6752 31.5455 10.537 31.5478C10.2498 31.5524 9.96236 31.5593 9.67698 31.5673C9.57646 31.5705 9.47546 31.5603 9.37748 31.5371C9.47819 31.5643 9.57915 31.5765 9.67698 31.576C10.2296 31.5734 10.6987 31.5686 11.1488 31.5648C11.2212 31.5642 11.2931 31.5637 11.3648 31.5631C12.0968 31.5575 12.8039 31.5565 13.755 31.5712C16.46 31.6126 18.0284 31.6376 19.0058 31.6546C19.9829 31.6717 20.4027 31.6817 20.7946 31.6931C21.3483 31.7097 22.4169 31.7166 22.9539 31.7184C23.149 31.7194 23.3064 31.7214 23.3056 31.723C23.3046 31.7245 23.1457 31.7276 22.9505 31.7298C22.3835 31.7356 21.2271 31.7446 20.5681 31.7323C20.2746 31.727 19.9371 31.7229 18.9748 31.7183C18.0124 31.7136 16.4584 31.7086 13.7483 31.6971C12.8314 31.693 12.1509 31.7009 11.4268 31.7137C11.3557 31.715 11.2842 31.7163 11.2121 31.7176C11.2116 31.7176 11.2112 31.7176 11.2107 31.7176C10.7494 31.7261 10.2596 31.736 9.67698 31.7442C9.41564 31.7483 9.12899 31.6702 8.88239 31.4859C8.83545 31.4508 8.79045 31.4123 8.7479 31.3704C8.50946 31.1387 8.35529 30.7975 8.35301 30.4414C8.33145 28.4215 8.29436 26.2201 8.273 25.6212C8.26804 25.4801 8.26251 25.3438 8.25664 25.1999C8.24076 24.8109 8.22211 24.365 8.20333 23.6101L8.47957 23.785C8.18462 23.9327 7.82101 24.0776 7.36525 24.1734C7.031 24.2435 6.62931 24.2857 6.19219 24.262C6.1887 24.2618 6.18521 24.2616 6.18171 24.2614C5.51737 24.259 4.86935 24.1041 4.34821 23.8701C4.19029 23.7999 4.03928 23.7247 3.89426 23.6449C3.62552 23.4969 3.37728 23.3334 3.14654 23.1534C3.0443 23.0737 2.94392 22.9893 2.8469 22.9009C2.61284 22.6878 2.39736 22.4496 2.21406 22.1956C2.1656 22.1285 2.11772 22.0592 2.07062 21.9874C1.97568 21.8427 1.88393 21.6882 1.79772 21.5221C1.52556 20.9962 1.30087 20.3456 1.25862 19.56C1.22938 18.9994 1.29772 18.3697 1.53224 17.7209C1.62243 17.4717 1.72992 17.2349 1.85122 17.0118C2.31309 16.1626 2.96832 15.525 3.65466 15.0967C3.98062 14.893 4.31476 14.7344 4.64591 14.6147C4.26407 14.7496 3.93421 14.9131 3.64758 15.0856C3.263 15.3176 2.95551 15.5652 2.70026 15.8083C2.61624 15.8885 2.53825 15.9681 2.46541 16.0469C2.1695 16.368 1.95595 16.6725 1.7833 16.9745C1.65667 17.1972 1.55289 17.4197 1.46571 17.6558C1.20192 18.3759 1.13338 19.0193 1.14216 19.56C1.18236 20.7753 1.52185 21.4912 1.885 22.0896C1.96411 22.2149 2.04796 22.3347 2.13824 22.4519C2.32614 22.6959 2.55773 22.9446 2.83179 23.1795C3.10677 23.4154 3.42461 23.6371 3.77872 23.8274C4.1294 24.016 4.51554 24.1737 4.92629 24.2877C5.31484 24.3958 5.73915 24.4593 6.17992 24.462C6.61065 24.4648 7.05678 24.4093 7.49507 24.2891C7.49543 24.2891 7.49578 24.289 7.49614 24.2889C7.66936 24.2414 7.84146 24.1839 8.01067 24.1165C8.18512 24.0471 8.3565 23.9671 8.52317 23.8772L8.10139 23.6101C8.1508 24.4821 8.1953 25.3815 8.2252 26.2609C8.22905 26.3741 8.23422 26.5097 8.24008 26.6654C8.27094 27.4645 8.31551 28.8005 8.30972 30.4414C8.3089 30.6594 8.36097 30.8833 8.46678 31.0859C8.52842 31.2041 8.60774 31.3152 8.70399 31.4144C8.9335 31.6517 9.26792 31.8229 9.6553 31.8363C9.66251 31.8365 9.66973 31.8367 9.67698 31.8368C9.82366 31.8397 9.97577 31.8427 10.1343 31.8454C10.8494 31.858 11.7184 31.8676 12.8754 31.8639C13.8302 31.8609 14.994 31.8494 16.2024 31.8358C16.7976 31.829 17.4037 31.8216 18.001 31.8141C19.8052 31.7915 21.4589 31.7673 23.1094 31.7347C23.1097 31.7347 23.11 31.7347 23.1104 31.7347C23.3054 31.7311 23.4581 31.7289 23.4513 31.73C23.4443 31.7312 23.2807 31.7379 23.0858 31.7447C21.4343 31.8003 19.7857 31.8461 17.9875 31.8908C17.3993 31.9055 16.798 31.92 16.2051 31.9337C14.9908 31.9618 13.8109 31.9865 12.8471 31.9998C11.6704 32.016 10.7856 32.0149 10.0606 32.0092C9.9269 32.0082 9.79935 32.007 9.67698 32.0058C9.63115 32.0054 9.58595 32.003 9.54151 31.9987C9.14171 31.9597 8.81216 31.7773 8.57811 31.5402C8.45721 31.4178 8.36001 31.2795 8.28655 31.1315C8.17819 30.9134 8.12398 30.6748 8.12306 30.4414C8.11464 28.8464 8.06126 27.551 8.02409 26.7461C8.01685 26.5862 8.01046 26.4456 8.00547 26.3258C7.96821 25.43 7.91562 24.5096 7.8582 23.6101L8.62718 24.097C8.48694 24.1734 8.34327 24.2431 8.19698 24.3058C8.02324 24.3804 7.84563 24.445 7.66584 24.4995C7.66548 24.4997 7.66512 24.4998 7.66476 24.4999C7.1701 24.6501 6.65863 24.7216 6.16414 24.7193C5.73496 24.7176 5.31885 24.6608 4.93415 24.5622C4.45499 24.4393 4.02273 24.2656 3.63286 24.0577C3.33862 23.9007 3.06834 23.7238 2.82046 23.5299C2.51129 23.288 2.23674 23.0196 1.99696 22.7258C1.86679 22.5661 1.74808 22.4011 1.63774 22.2257C1.24817 21.5855 0.894299 20.8081 0.853025 19.56C0.842421 18.9859 0.914977 18.3088 1.18807 17.5563ZM22.3987 31.6729C21.9294 31.6539 21.5471 31.6384 21.2623 31.6284C21.5041 31.6382 21.7454 31.6477 21.9868 31.6571C22.1242 31.6624 22.2615 31.6677 22.3987 31.6729ZM6.14082 24.0027C6.16317 24.0032 6.18558 24.0036 6.20803 24.0037C6.26158 24.0041 6.31528 24.0035 6.36904 24.0019C6.3155 24.001 6.26198 23.9992 6.20848 23.9963C6.05174 23.988 5.89545 23.9714 5.74056 23.9466C5.48547 23.9057 5.23386 23.8425 4.98955 23.7579C5.37661 23.8968 5.77094 23.9754 6.14082 24.0027ZM1.81003 17.8202C1.58381 18.4405 1.52164 19.0332 1.54999 19.56C1.58637 20.2094 1.75531 20.7626 1.97884 21.2397C2.08095 21.4567 2.1956 21.6591 2.32009 21.8501C2.33876 21.8787 2.35763 21.9071 2.37674 21.9352C2.43754 22.0247 2.50184 22.1115 2.56971 22.1961C2.48946 22.0762 2.41628 21.9549 2.35008 21.8336C2.12682 21.4251 1.98546 21.0178 1.9022 20.6631C1.80597 20.2533 1.77707 19.8852 1.78127 19.56C1.79763 18.7917 1.96883 18.2641 2.16104 17.8154C2.23707 17.6424 2.32033 17.4804 2.41343 17.3213C2.41991 17.3103 2.42642 17.2992 2.43299 17.2882C2.50397 17.1408 2.58632 16.9911 2.67924 16.8455C2.80892 16.6413 2.96849 16.4318 3.13745 16.2467C3.30669 16.0606 3.49549 15.8857 3.69479 15.7306C3.77543 15.6678 3.85801 15.608 3.94233 15.5511C4.06807 15.4663 4.19768 15.3881 4.33061 15.3166C4.53958 15.2041 4.7571 15.1086 4.97334 15.0316C4.98572 15.0272 4.99813 15.0228 5.01055 15.0185C5.23979 14.9388 5.46925 14.8794 5.6827 14.8368C5.87348 14.7986 6.03805 14.7753 6.18597 14.7566C6.2066 14.7541 6.22691 14.7516 6.24692 14.7492C6.45118 14.7246 6.66337 14.7137 6.87377 14.7177C7.08439 14.7216 7.29462 14.7401 7.50268 14.7728C7.7112 14.8056 7.91612 14.8521 8.11818 14.9125C8.18352 14.932 8.25146 14.9539 8.31546 14.9761C8.34494 14.9864 8.37438 14.9969 8.40359 15.0077C8.02323 14.8464 7.60755 14.7264 7.1683 14.6631C6.85252 14.6176 6.52148 14.5993 6.1774 14.6169C5.83046 14.6347 5.47012 14.6889 5.10318 14.7902C4.67652 14.9081 4.24033 15.0901 3.817 15.3531C3.17325 15.7528 2.55386 16.3476 2.11152 17.1551C1.99745 17.3636 1.8958 17.5856 1.81003 17.8202ZM7.90631 10.0204C7.90693 10.1833 7.9091 10.4218 7.912 10.7294C7.91268 10.8021 7.91351 10.8789 7.91426 10.9592C7.91434 10.9573 7.91434 10.9554 7.91442 10.9535C7.92252 10.7543 7.92962 10.5703 7.93623 10.3717C7.94796 10.0177 7.95812 9.67386 7.96694 9.32653C7.97242 9.11032 7.97733 8.89447 7.98171 8.67867C7.98435 8.50362 8.01416 8.32936 8.06953 8.16404C8.1542 7.91031 8.29992 7.67763 8.48988 7.49157C8.6262 7.3577 8.78503 7.24766 8.95667 7.16735C9.18262 7.06139 9.4301 7.00727 9.67698 7.00816C9.83474 7.0088 9.99242 7.00909 10.1508 7.00899C10.2617 7.00892 10.373 7.00866 10.4842 7.00821C10.2359 6.99985 9.97799 6.9928 9.70558 6.98541C9.69606 6.98515 9.68653 6.98489 9.67698 6.98463C9.40093 6.97873 9.1089 7.04151 8.83903 7.18504C8.7313 7.24236 8.60521 7.32284 8.4769 7.44022C8.47028 7.44628 8.46366 7.45245 8.45702 7.45871C8.20248 7.69689 7.93052 8.11458 7.91955 8.67867C7.91053 9.06465 7.90439 9.51331 7.90631 10.0204ZM13.2624 6.93481C13.3432 6.9332 13.4236 6.93179 13.503 6.9307C13.7291 6.92759 13.9495 6.92632 14.1656 6.92561C14.3173 6.92513 14.4673 6.92502 14.6151 6.92486C14.6775 6.92479 14.7398 6.92468 14.8015 6.9246C14.9049 6.92447 15.0076 6.9242 15.1094 6.92392C14.3948 6.91096 13.6963 6.90028 12.9683 6.89456C12.9587 6.89449 12.949 6.8945 12.9393 6.89442C13.0495 6.9082 13.1572 6.92167 13.2624 6.93481Z" fill="var(--stroke-0, #B4D455)"/>
</svg>
