<svg preserveAspectRatio="none" width="100%" height="100%" overflow="visible" style="display: block;" viewBox="0 0 8 4" fill="none" xmlns="http://www.w3.org/2000/svg">
<path id="Vector" d="M2.70553 0.821454C2.74853 0.813395 2.78884 0.827173 2.83975 0.846062C2.83978 0.846059 2.8398 0.846055 2.83983 0.846051C2.8471 0.848752 2.8546 0.851621 2.86234 0.854484C2.92472 0.877598 3.00576 0.905065 3.12796 0.91743C3.26299 0.931079 3.37019 1.01527 3.43565 1.09789C3.44786 1.11331 3.4605 1.12166 3.49237 1.12919C3.50834 1.13297 3.52859 1.13646 3.55544 1.14094C3.56375 1.14233 3.57268 1.14382 3.58232 1.14544C3.60401 1.1491 3.62926 1.1534 3.65882 1.15892C3.75665 1.17705 3.90999 1.17656 4.05127 1.18117C4.13703 1.18379 4.21836 1.188 4.28013 1.19625C4.37048 1.20833 4.45766 1.23307 4.55242 1.26081C4.63921 1.2863 4.73238 1.31426 4.84018 1.33923C4.92289 1.35857 5.00324 1.42631 5.08491 1.49616C5.0953 1.50507 5.10574 1.51401 5.11618 1.52294C5.18824 1.58463 5.26191 1.64446 5.34157 1.68164C5.48357 1.74752 5.59688 1.73823 5.72234 1.73772C5.77141 1.73729 5.82234 1.73776 5.87758 1.74269C5.96494 1.75046 6.09052 1.7745 6.21663 1.80005C6.22737 1.80223 6.23812 1.80438 6.24885 1.80658C6.24891 1.80659 6.24896 1.8066 6.24901 1.80661C6.36445 1.8303 6.47774 1.85423 6.56085 1.87025C6.69293 1.89576 6.74263 1.90325 6.78407 1.9103C6.79965 1.91298 6.81408 1.91566 6.83127 1.91954C6.8932 1.93356 6.98669 1.96223 7.08145 1.99101C7.08182 1.99112 7.08218 1.99123 7.08254 1.99134C7.09827 1.99635 7.11096 2.00023 7.11089 2C7.11081 1.99977 7.098 1.99811 7.08227 1.99627C7.03207 1.98974 6.98309 1.98325 6.93923 1.97785C6.93696 1.98442 6.92515 1.98922 6.91099 1.9885C6.87556 1.98698 6.76703 1.9834 6.59717 2.0109C6.60881 2.0143 6.61856 2.01741 6.62709 2.02026C6.63712 2.02359 6.6448 2.0263 6.6514 2.02853C6.66516 2.03317 6.67432 2.03591 6.69057 2.03701C6.72821 2.03666 6.78738 2.03162 6.84964 2.02604C6.86536 2.02482 6.87805 2.03251 6.87798 2.04326C6.87791 2.05402 6.86509 2.06621 6.84936 2.07039C6.84906 2.07047 6.84875 2.07055 6.84844 2.07063C6.78678 2.08621 6.72572 2.10108 6.68639 2.10742C6.67639 2.10904 6.66777 2.11012 6.6613 2.11074C6.65613 2.11125 6.64967 2.11176 6.64608 2.11132C6.64561 2.11126 6.6447 2.11113 6.64361 2.11086C6.6436 2.11085 6.64358 2.11084 6.64356 2.11083C6.64295 2.11068 6.63986 2.10994 6.63656 2.10747C6.6359 2.10698 6.63445 2.10585 6.63276 2.10387C6.63233 2.10378 6.6319 2.10369 6.63146 2.1036C6.62541 2.10232 6.61924 2.10094 6.61256 2.09962C6.58646 2.09432 6.54514 2.08867 6.45908 2.08149C6.37992 2.07501 6.24611 2.07608 6.07915 2.08748C6.09043 2.08989 6.10174 2.09212 6.11303 2.09413C6.14146 2.09919 6.17002 2.10305 6.19859 2.10611C6.20953 2.10727 6.22033 2.10833 6.23133 2.10926C6.24904 2.11076 6.2668 2.11201 6.28455 2.11299C6.29655 2.11365 6.30857 2.11419 6.32057 2.11465C6.3206 2.11465 6.32063 2.11464 6.32065 2.11464C6.33732 2.11528 6.35403 2.11576 6.37086 2.11612C6.37676 2.1163 6.38258 2.11643 6.38836 2.11653C6.41137 2.11687 6.43398 2.11697 6.46 2.11899C6.46316 2.11951 6.4666 2.12027 6.46917 2.12094C6.47193 2.12164 6.47458 2.12236 6.47709 2.12311C6.4793 2.12378 6.48141 2.12447 6.48344 2.12509C6.48371 2.12517 6.48398 2.12526 6.48425 2.12534C6.48651 2.12603 6.48868 2.12665 6.49076 2.12722C6.49284 2.12779 6.49484 2.12833 6.49681 2.12875C6.49683 2.12874 6.49684 2.12874 6.49686 2.12874C6.49892 2.12915 6.50049 2.12946 6.50267 2.12973C6.50541 2.13007 6.50776 2.13027 6.51062 2.13036C6.51338 2.13046 6.51625 2.13045 6.51916 2.13035C6.52207 2.13026 6.52503 2.13009 6.52803 2.12986C6.53104 2.12963 6.53409 2.12936 6.53717 2.12904C6.54025 2.12872 6.54337 2.12835 6.5465 2.12797C6.54964 2.12759 6.55281 2.1272 6.556 2.12679C6.56333 2.12586 6.57037 2.12931 6.57553 2.13629C6.58069 2.14329 6.58356 2.15319 6.58353 2.16426C6.58349 2.17533 6.58055 2.18685 6.57534 2.1967C6.57013 2.20653 6.56306 2.21386 6.55573 2.21691C6.55373 2.21774 6.55172 2.21859 6.5497 2.21942C6.54851 2.21991 6.5473 2.22039 6.5461 2.22089C6.54286 2.22221 6.53959 2.22357 6.5363 2.22488C6.53302 2.22618 6.5297 2.22745 6.52635 2.2287C6.52299 2.22995 6.51958 2.23119 6.51612 2.23234C6.51267 2.23349 6.50915 2.23458 6.50557 2.23555C6.50208 2.23652 6.49809 2.23744 6.49453 2.23809C6.49193 2.23858 6.48872 2.23897 6.48604 2.23924C6.48325 2.23953 6.4805 2.2397 6.47785 2.2398C6.47519 2.2399 6.47262 2.23991 6.47017 2.23992C6.46991 2.23992 6.46965 2.23993 6.46938 2.23993C6.46722 2.23994 6.46512 2.23993 6.46315 2.23996C6.46093 2.23999 6.45884 2.24008 6.45685 2.24022C6.45466 2.24036 6.45333 2.24057 6.4517 2.24084C6.43012 2.24622 6.40344 2.25513 6.378 2.26358C6.3748 2.26464 6.37162 2.26568 6.36848 2.26672C6.35177 2.2723 6.33509 2.27791 6.31843 2.28349C6.30632 2.28755 6.29419 2.29161 6.28205 2.29561C6.26419 2.30151 6.24627 2.30732 6.22837 2.313C6.21725 2.31652 6.20634 2.31991 6.19525 2.32329C6.16629 2.33214 6.13724 2.34057 6.10815 2.34811C6.0791 2.35563 6.04987 2.36233 6.02061 2.36753C5.99147 2.3727 5.9612 2.37643 5.93197 2.37695C5.91048 2.37727 5.88844 2.37347 5.86806 2.36846C5.8571 2.36576 5.84638 2.3628 5.83581 2.35968C5.83577 2.35966 5.83573 2.35964 5.8357 2.35962C5.82642 2.35688 5.81726 2.35407 5.80816 2.3514C5.78866 2.34563 5.76951 2.34047 5.75036 2.33643C5.73124 2.33238 5.7122 2.32944 5.69301 2.32782C5.67398 2.32622 5.65462 2.32585 5.63545 2.32674C5.61619 2.32762 5.59728 2.32969 5.5774 2.33289C5.55127 2.33721 5.52532 2.34313 5.49868 2.34954C5.47224 2.35596 5.44558 2.36302 5.41885 2.37015C5.40951 2.37265 5.40015 2.37507 5.39078 2.37759C5.39074 2.3776 5.39071 2.3776 5.39067 2.37761C5.37333 2.38227 5.35595 2.38696 5.33856 2.39157C5.31171 2.39867 5.28478 2.40565 5.25775 2.41204C5.23073 2.41842 5.20354 2.42427 5.17621 2.42882C5.14888 2.4333 5.12081 2.43672 5.09261 2.43628C5.06745 2.436 5.0421 2.43439 5.01731 2.43255C5.01076 2.43207 5.00421 2.43158 4.99767 2.43108C4.96661 2.42877 4.93653 2.42727 4.9068 2.42956C4.87708 2.43174 4.84739 2.43757 4.81742 2.44657C4.78754 2.45554 4.75729 2.46751 4.72679 2.48147C4.69616 2.49548 4.66592 2.51123 4.63508 2.52838C4.60446 2.54545 4.57371 2.56368 4.54258 2.58295C4.52527 2.59363 4.50686 2.60372 4.48946 2.61249C4.4719 2.62133 4.45445 2.62936 4.43722 2.6369C4.43023 2.63996 4.42327 2.64291 4.41636 2.64589C4.40629 2.65023 4.3963 2.65448 4.38647 2.65888C4.36988 2.66629 4.35369 2.67408 4.33797 2.68294C4.32225 2.69179 4.307 2.70182 4.29226 2.71375C4.27701 2.72615 4.26444 2.73851 4.2494 2.75597C4.21278 2.79032 4.19009 2.80191 4.16488 2.81481C4.15991 2.81735 4.15484 2.82003 4.14955 2.82286C4.11932 2.83746 4.08911 2.84889 4.0593 2.8579C4.02921 2.86695 3.99958 2.87356 3.96957 2.87806C3.93985 2.88252 3.90992 2.88474 3.88011 2.88498C3.85034 2.88522 3.82063 2.88342 3.79084 2.87955C3.76107 2.87569 3.73068 2.8696 3.70151 2.86182C3.68465 2.85734 3.66674 2.85121 3.65011 2.84482C3.63811 2.84023 3.62628 2.83536 3.61468 2.83054C3.60995 2.82858 3.60524 2.82661 3.60058 2.82469C3.58509 2.81831 3.57002 2.81232 3.55544 2.80765C3.55489 2.80747 3.55434 2.8073 3.55378 2.80712C3.53869 2.80236 3.52408 2.79898 3.50979 2.79768C3.49547 2.79637 3.48146 2.79716 3.46744 2.80007C3.45291 2.80319 3.44085 2.80741 3.42542 2.81519C3.41538 2.82032 3.40553 2.82548 3.39572 2.83062C3.38103 2.83832 3.36644 2.84614 3.35175 2.85421C3.33708 2.86227 3.32259 2.87047 3.30802 2.87899C3.30334 2.88173 3.2984 2.88461 3.2937 2.88743C3.27919 2.89614 3.26485 2.90507 3.25052 2.91449C3.23621 2.92388 3.22204 2.93367 3.20793 2.94405C3.19376 2.95446 3.17982 2.96528 3.16561 2.97697C3.14146 2.99691 3.11834 3.0052 3.0981 3.01031C3.07761 3.01534 3.05846 3.01742 3.03983 3.0193C3.03634 3.01965 3.03285 3.02 3.02936 3.02034C3.01433 3.02175 2.99954 3.02295 2.98498 3.02465C2.96703 3.02673 2.94941 3.02947 2.93173 3.03297C2.91421 3.03642 2.89651 3.04065 2.87908 3.04588C2.86149 3.05117 2.84467 3.05703 2.82654 3.06439C2.80861 3.07159 2.7904 3.0815 2.77044 3.09205C2.75067 3.10253 2.72991 3.11301 2.70889 3.12151C2.6879 3.13005 2.66657 3.13669 2.64539 3.14096C2.62417 3.14527 2.60288 3.14741 2.58189 3.14762C2.56078 3.14784 2.5398 3.14615 2.51893 3.14302C2.49811 3.1399 2.47659 3.13514 2.45646 3.12942C2.42386 3.12015 2.3914 3.10975 2.35889 3.09877C2.32655 3.08782 2.29412 3.07621 2.26175 3.0642C2.22944 3.0522 2.1971 3.03981 2.1648 3.02706C2.13249 3.01431 2.10019 3.00125 2.06794 2.98798C2.0608 2.98505 2.05367 2.9821 2.04653 2.97915C2.02141 2.96876 1.9963 2.95825 1.97129 2.94775C1.97111 2.94766 1.97094 2.94756 1.97077 2.94747C1.93858 2.934 1.90697 2.92065 1.87504 2.90757C1.86332 2.9028 1.85206 2.89822 1.84062 2.89372C1.82916 2.88923 1.81792 2.88494 1.80658 2.88078C1.79522 2.87661 1.78392 2.87266 1.77281 2.86902C1.76156 2.86534 1.75061 2.86199 1.73955 2.85904C1.72941 2.85631 1.71935 2.85409 1.70835 2.85154C1.70735 2.85131 1.70635 2.85108 1.70534 2.85085C1.69331 2.84807 1.67963 2.84416 1.66691 2.83912C1.63321 2.82558 1.60038 2.81305 1.56695 2.80087C1.5335 2.78869 1.50013 2.77706 1.46647 2.7653C1.45333 2.7607 1.44013 2.75614 1.42692 2.75145C1.40638 2.74415 1.38576 2.73669 1.36508 2.72888C1.33105 2.71604 1.29694 2.70223 1.26262 2.68699C1.22843 2.67182 1.19402 2.6552 1.15976 2.63738C1.12553 2.61958 1.091 2.60041 1.05693 2.58055C1.01896 2.5584 0.981212 2.53589 0.943295 2.51325C0.90544 2.49063 0.867563 2.4679 0.829854 2.44536C0.792008 2.42275 0.754258 2.40027 0.716495 2.37797C0.67871 2.35566 0.64095 2.33354 0.603163 2.31169C0.580548 2.29862 0.55794 2.28563 0.535321 2.27276C0.523354 2.26921 0.511881 2.26568 0.500844 2.26213C0.419293 2.23561 0.360327 2.21059 0.282535 2.16983C0.275085 2.16611 0.269023 2.16339 0.261648 2.15998C0.260241 2.15933 0.258748 2.15862 0.257227 2.15791C0.247588 2.15339 0.23652 2.14792 0.221122 2.1392C0.190405 2.12224 0.143323 2.09033 0.0824814 2.05002C0.0671123 2.03975 0.0573326 2.03161 0.0606451 2.03059C0.0629738 2.02981 0.0711366 2.03188 0.081098 2.03548C0.062694 2.02707 0.0443396 2.0189 0.0260324 2.01103C0.0187251 2.00787 0.0118649 2.00478 0.00699002 2.00275C0.00247226 2.00086 1.5218e-07 1.99999 0 2C0 2 0 2 0 2C1.19351e-08 2 1.52056e-05 2.00001 4.57861e-05 2.00002C0.000466746 2.00016 0.00378319 2.00119 0.00926859 2.00253C0.0147521 2.00388 0.0219468 2.00546 0.0292875 2.00727C0.0487613 2.01212 0.0681692 2.01697 0.0875811 2.02181C0.107009 2.02665 0.126345 2.03144 0.145739 2.03619C0.165127 2.04093 0.184509 2.04561 0.203951 2.05022C0.223318 2.05481 0.242723 2.05933 0.262163 2.06375C0.281727 2.0682 0.300922 2.07245 0.32043 2.07668C0.332118 2.07921 0.343946 2.08175 0.355558 2.08418C0.359886 2.08509 0.364109 2.08595 0.368334 2.08683C0.371788 2.08755 0.375259 2.08827 0.378832 2.08901C0.416419 2.09673 0.454367 2.10412 0.491974 2.11102C0.529759 2.11796 0.567506 2.12448 0.605252 2.13059C0.643018 2.13669 0.680752 2.14234 0.718503 2.14761C0.756235 2.15287 0.793944 2.15771 0.831726 2.16211C0.869368 2.16647 0.907164 2.17046 0.944868 2.17388C0.974033 2.17652 1.00295 2.17876 1.03192 2.18063C1.04332 2.17828 1.0546 2.17601 1.06574 2.17377C1.09816 2.16725 1.13063 2.15631 1.16261 2.14428C1.10569 2.14618 1.05996 2.1522 1.01643 2.15668C1.01059 2.15729 1.00479 2.15788 0.999012 2.15842C0.940007 2.16402 0.883005 2.165 0.806336 2.15031C0.588283 2.10893 0.461847 2.08396 0.383064 2.0669C0.304294 2.04988 0.270449 2.03987 0.238862 2.02844C0.194229 2.01186 0.108084 2.00497 0.0647953 2.0031C0.0490702 2.00212 0.0363774 2.00009 0.0364488 1.99854C0.0365247 1.99699 0.0493387 1.99393 0.0650666 1.99177C0.110776 1.9859 0.203993 1.97689 0.257118 1.98925C0.28078 1.99457 0.307989 1.99859 0.385559 2.00321C0.463137 2.00798 0.588406 2.01289 0.806879 2.02446C0.880789 2.02857 0.935643 2.02066 0.99402 2.00781C0.999745 2.00656 1.00551 2.00523 1.01133 2.0039C1.01136 2.0039 1.0114 2.0039 1.01144 2.0039C1.06506 1.99175 1.12345 1.97645 1.20218 1.96779C1.38366 1.9491 1.62778 1.9022 1.68573 1.87618C1.6971 1.87122 1.7081 1.86569 1.71969 1.85982C1.7642 1.83732 1.81794 1.80906 1.93903 1.78312C1.96552 1.77747 1.99654 1.77304 2.03039 1.76969C2.08119 1.7319 2.13051 1.69515 2.1734 1.67181C2.21041 1.65171 2.24455 1.61708 2.27762 1.57868C2.28714 1.56764 2.29672 1.55606 2.30629 1.54448C2.32937 1.51654 2.35245 1.48825 2.37495 1.46566C2.39288 1.44766 2.41166 1.42619 2.4315 1.4033C2.5038 1.32026 2.59044 1.21605 2.70333 1.20153C2.82301 1.1865 2.92547 1.19488 3.01384 1.20592C2.94894 1.19059 2.89884 1.17141 2.85711 1.1546C2.84924 1.15143 2.84169 1.14836 2.83443 1.14542C2.78314 1.12469 2.74585 1.11055 2.70588 1.11635C2.51499 1.14473 2.44339 1.18302 2.3626 1.26339C2.34133 1.28463 2.31787 1.31199 2.29259 1.34108C2.24207 1.39931 2.18428 1.46404 2.12219 1.50395C2.06435 1.54123 1.99967 1.59242 1.93114 1.64385C1.93111 1.64386 1.93109 1.64386 1.93106 1.64386C1.91767 1.65392 1.90412 1.66399 1.89045 1.67399C1.80712 1.73512 1.71948 1.79246 1.63416 1.82838C1.62504 1.83223 1.61411 1.8374 1.60156 1.84326C1.52913 1.87843 1.40196 1.9288 1.24667 1.90905C1.21256 1.9051 1.17712 1.8951 1.13668 1.88511C1.12436 1.88207 1.11157 1.87897 1.09821 1.87609C1.04056 1.86358 0.970512 1.85395 0.877243 1.85764C0.80027 1.86065 0.706461 1.87208 0.60905 1.88578C0.561067 1.89254 0.512211 1.89989 0.464062 1.90742C0.318619 1.93008 0.185314 1.9542 0.0522632 1.98681C0.052236 1.98682 0.0522089 1.98683 0.0521818 1.98683C0.0364634 1.99046 0.024151 1.99267 0.0247032 1.99149C0.0252613 1.99032 0.0384508 1.98364 0.054162 1.97688C0.187292 1.92125 0.320188 1.87547 0.465147 1.83072C0.512564 1.81606 0.561038 1.80152 0.608833 1.78781C0.706717 1.75975 0.801832 1.73505 0.879522 1.72177C0.974378 1.7055 1.04571 1.70659 1.10415 1.7123C1.11823 1.71366 1.13146 1.71527 1.14403 1.71691C1.18402 1.72213 1.21728 1.72783 1.24963 1.7279C1.39999 1.72986 1.52234 1.66934 1.59505 1.62728C1.60794 1.62003 1.61928 1.61364 1.62893 1.60865C1.71257 1.56554 1.79887 1.50166 1.88212 1.43388C1.89563 1.4229 1.90907 1.41188 1.9224 1.40081C1.92243 1.40077 1.92246 1.40072 1.92249 1.40068C1.991 1.34386 2.05685 1.28696 2.11576 1.24482C2.17555 1.20215 2.2277 1.14017 2.27648 1.08089C2.30265 1.04911 2.32786 1.01828 2.35276 0.99197C2.43846 0.901824 2.51402 0.858158 2.70553 0.821454ZM0.109553 2.04865C0.147382 2.06768 0.178204 2.08317 0.201157 2.09309C0.181664 2.08335 0.162217 2.07379 0.142755 2.06443C0.131678 2.0591 0.120615 2.05384 0.109553 2.04865ZM2.03503 2.02486C2.0289 2.02898 2.02273 2.03312 2.01653 2.03725C2.03364 2.03545 2.05075 2.03376 2.06783 2.03202C2.0888 2.0299 2.10977 2.02786 2.13073 2.0258C2.0974 2.0247 2.06511 2.02425 2.03503 2.02486ZM2.7036 1.4965C2.59713 1.50563 2.51757 1.5971 2.44583 1.6757C2.42517 1.69842 2.40513 1.72016 2.38531 1.73895C2.37709 1.74674 2.36888 1.75527 2.3606 1.76426C2.40881 1.76618 2.45314 1.76883 2.48942 1.77119C2.59768 1.77824 2.6593 1.8013 2.71345 1.82203C2.72912 1.82803 2.74417 1.83382 2.75954 1.83902C2.77225 1.82878 2.78545 1.81856 2.79879 1.80951C2.81746 1.79673 2.83765 1.78433 2.85686 1.7737C2.87615 1.763 2.89575 1.75333 2.915 1.74508C2.9344 1.73677 2.95363 1.72973 2.97277 1.72356C2.99079 1.71774 3.00873 1.71275 3.0261 1.70791C3.0271 1.70763 3.02809 1.70736 3.02909 1.70709C3.04744 1.70194 3.0653 1.69701 3.08171 1.6904C3.09842 1.68361 3.1123 1.67574 3.12462 1.66403C3.14002 1.64943 3.1558 1.63537 3.17142 1.62228C3.18705 1.60915 3.20261 1.59691 3.21813 1.58542C3.23368 1.57391 3.24908 1.56314 3.26451 1.55293C3.2695 1.54963 3.27473 1.54623 3.27968 1.54307C3.28196 1.54161 3.28424 1.54012 3.28651 1.53868C3.25631 1.53821 3.22496 1.53726 3.19255 1.53558C3.14573 1.53315 3.09575 1.52465 3.04062 1.51588C2.94656 1.50088 2.83751 1.48533 2.7036 1.4965ZM3.74429 1.50949C3.73116 1.51011 3.71193 1.51228 3.68713 1.51518C3.68127 1.51586 3.67509 1.51669 3.66861 1.51744C3.66876 1.51752 3.66892 1.51752 3.66907 1.5176C3.68513 1.52571 3.69996 1.5328 3.71597 1.53941C3.7445 1.55114 3.77222 1.5613 3.80022 1.57012C3.82833 1.57896 3.85636 1.58633 3.88442 1.59235C3.91253 1.59837 3.94071 1.60292 3.96865 1.60597C3.99686 1.60902 4.02466 1.6107 4.05274 1.61048C4.06168 1.61042 4.07065 1.61015 4.07962 1.60971C4.0596 1.60134 4.03881 1.5943 4.01685 1.5869C3.99931 1.58099 3.98102 1.57482 3.96178 1.56754C3.95442 1.56476 3.94551 1.56055 3.93512 1.55565C3.89393 1.53626 3.82929 1.50553 3.74429 1.50949ZM4.30357 1.5363C4.31009 1.53469 4.31656 1.53328 4.32297 1.53219C4.34119 1.52909 4.35896 1.52781 4.37638 1.52711C4.38861 1.52662 4.4007 1.52651 4.41262 1.52635C4.41765 1.52628 4.42267 1.52617 4.42764 1.52609C4.43598 1.52596 4.44425 1.52569 4.45247 1.52541C4.39486 1.51245 4.33855 1.50177 4.27986 1.49606C4.27909 1.49598 4.27831 1.49599 4.27753 1.49592C4.28641 1.50969 4.29509 1.52316 4.30357 1.5363Z" fill="var(--stroke-0, #FF6B6B)"/>
</svg>
