<svg preserveAspectRatio="none" width="100%" height="100%" overflow="visible" style="display: block;" viewBox="0 0 5 4" fill="none" xmlns="http://www.w3.org/2000/svg">
<path id="Vector" d="M1.80369 0.821454C1.83235 0.813395 1.85923 0.827173 1.89317 0.846062C1.89318 0.846059 1.8932 0.846055 1.89322 0.846051C1.89807 0.848752 1.90307 0.851621 1.90823 0.854484C1.94981 0.877598 2.00384 0.905065 2.08531 0.91743C2.17532 0.931079 2.24679 1.01527 2.29043 1.09789C2.29857 1.11331 2.307 1.12166 2.32825 1.12919C2.33889 1.13297 2.3524 1.13646 2.3703 1.14094C2.37583 1.14233 2.38179 1.14382 2.38821 1.14544C2.40268 1.1491 2.41951 1.1534 2.43921 1.15892C2.50444 1.17705 2.60666 1.17656 2.70085 1.18117C2.75802 1.18379 2.81224 1.188 2.85342 1.19625C2.91365 1.20833 2.97177 1.23307 3.03495 1.26081C3.09281 1.2863 3.15492 1.31426 3.22678 1.33923C3.28192 1.35857 3.3355 1.42631 3.38994 1.49616C3.39687 1.50507 3.40382 1.51401 3.41079 1.52294C3.45883 1.58463 3.50794 1.64446 3.56105 1.68164C3.65571 1.74752 3.73125 1.73823 3.81489 1.73772C3.8476 1.73729 3.88156 1.73776 3.91839 1.74269C3.97663 1.75046 4.06035 1.7745 4.14442 1.80005C4.15158 1.80223 4.15875 1.80438 4.1659 1.80658C4.16594 1.80659 4.16597 1.8066 4.16601 1.80661C4.24296 1.8303 4.31849 1.85423 4.3739 1.87025C4.46195 1.89576 4.49508 1.90325 4.52271 1.9103C4.5331 1.91298 4.54272 1.91566 4.55418 1.91954C4.59547 1.93356 4.65779 1.96223 4.72097 1.99101C4.72121 1.99112 4.72145 1.99123 4.72169 1.99134C4.73218 1.99635 4.74064 2.00023 4.74059 2C4.74054 1.99977 4.732 1.99811 4.72151 1.99627C4.68805 1.98974 4.65539 1.98325 4.62616 1.97785C4.62464 1.98442 4.61677 1.98922 4.60733 1.9885C4.58371 1.98698 4.51135 1.9834 4.39812 2.0109C4.40587 2.0143 4.41237 2.01741 4.41806 2.02026C4.42475 2.02359 4.42986 2.0263 4.43427 2.02853C4.44344 2.03317 4.44954 2.03591 4.46038 2.03701C4.48548 2.03666 4.52492 2.03162 4.56642 2.02604C4.5769 2.02482 4.58537 2.03251 4.58532 2.04326C4.58527 2.05402 4.57672 2.06621 4.56624 2.07039C4.56604 2.07047 4.56583 2.07055 4.56563 2.07063C4.52452 2.08621 4.48381 2.10108 4.45759 2.10742C4.45093 2.10904 4.44518 2.11012 4.44087 2.11074C4.43742 2.11125 4.43311 2.11176 4.43072 2.11132C4.4304 2.11126 4.4298 2.11113 4.42908 2.11086C4.42907 2.11085 4.42905 2.11084 4.42904 2.11083C4.42864 2.11068 4.42657 2.10994 4.42437 2.10747C4.42393 2.10698 4.42296 2.10585 4.42184 2.10387C4.42155 2.10378 4.42126 2.10369 4.42097 2.1036C4.41694 2.10232 4.41282 2.10094 4.40837 2.09962C4.39098 2.09432 4.36343 2.08867 4.30605 2.08149C4.25328 2.07501 4.16408 2.07608 4.05277 2.08748C4.06029 2.08989 4.06782 2.09212 4.07535 2.09413C4.09431 2.09919 4.11335 2.10305 4.13239 2.10611C4.13969 2.10727 4.14689 2.10833 4.15422 2.10926C4.16602 2.11076 4.17787 2.11201 4.1897 2.11299C4.1977 2.11365 4.20571 2.11419 4.21371 2.11465C4.21373 2.11465 4.21375 2.11464 4.21377 2.11464C4.22488 2.11528 4.23602 2.11576 4.24724 2.11612C4.25117 2.1163 4.25505 2.11643 4.25891 2.11653C4.27425 2.11687 4.28932 2.11697 4.30667 2.11899C4.30878 2.11951 4.31107 2.12027 4.31278 2.12094C4.31462 2.12164 4.31639 2.12236 4.31806 2.12311C4.31954 2.12378 4.32094 2.12447 4.32229 2.12509C4.32247 2.12517 4.32265 2.12526 4.32283 2.12534C4.32434 2.12603 4.32579 2.12665 4.32717 2.12722C4.32856 2.12779 4.32989 2.12833 4.33121 2.12875C4.33122 2.12874 4.33123 2.12874 4.33124 2.12874C4.33261 2.12915 4.33366 2.12946 4.33511 2.12973C4.33694 2.13007 4.33851 2.13027 4.34041 2.13036C4.34225 2.13046 4.34417 2.13045 4.34611 2.13035C4.34804 2.13026 4.35002 2.13009 4.35202 2.12986C4.35403 2.12963 4.35606 2.12936 4.35812 2.12904C4.36017 2.12872 4.36225 2.12835 4.36434 2.12797C4.36643 2.12759 4.36854 2.1272 4.37067 2.12679C4.37556 2.12586 4.38024 2.12931 4.38369 2.13629C4.38713 2.14329 4.38904 2.15319 4.38902 2.16426C4.389 2.17533 4.38703 2.18685 4.38356 2.1967C4.38008 2.20653 4.37538 2.21386 4.37048 2.21691C4.36915 2.21774 4.36781 2.21859 4.36647 2.21942C4.36567 2.21991 4.36487 2.22039 4.36406 2.22089C4.36191 2.22221 4.35973 2.22357 4.35754 2.22488C4.35535 2.22618 4.35313 2.22745 4.3509 2.2287C4.34866 2.22995 4.34639 2.23119 4.34408 2.23234C4.34178 2.23349 4.33943 2.23458 4.33705 2.23555C4.33472 2.23652 4.33206 2.23744 4.32969 2.23809C4.32795 2.23858 4.32581 2.23897 4.32403 2.23924C4.32216 2.23953 4.32033 2.2397 4.31857 2.2398C4.3168 2.2399 4.31508 2.23991 4.31345 2.23992C4.31327 2.23992 4.3131 2.23993 4.31292 2.23993C4.31148 2.23994 4.31008 2.23993 4.30876 2.23996C4.30729 2.23999 4.30589 2.24008 4.30457 2.24022C4.30311 2.24036 4.30222 2.24057 4.30113 2.24084C4.28674 2.24622 4.26896 2.25513 4.252 2.26358C4.24987 2.26464 4.24775 2.26568 4.24565 2.26672C4.23451 2.2723 4.2234 2.27791 4.21229 2.28349C4.20421 2.28755 4.19613 2.29161 4.18804 2.29561C4.17613 2.30151 4.16418 2.30732 4.15225 2.313C4.14484 2.31652 4.13756 2.31991 4.13017 2.32329C4.11086 2.33214 4.09149 2.34057 4.0721 2.34811C4.05273 2.35563 4.03324 2.36233 4.01374 2.36753C3.99432 2.3727 3.97413 2.37643 3.95464 2.37695C3.94032 2.37727 3.92563 2.37347 3.91204 2.36846C3.90474 2.36576 3.89758 2.3628 3.89054 2.35968C3.89051 2.35966 3.89049 2.35964 3.89046 2.35962C3.88428 2.35688 3.87817 2.35407 3.87211 2.3514C3.85911 2.34563 3.84634 2.34047 3.83357 2.33643C3.82082 2.33238 3.80813 2.32944 3.79534 2.32782C3.78265 2.32622 3.76975 2.32585 3.75697 2.32674C3.74413 2.32762 3.73152 2.32969 3.71827 2.33289C3.70085 2.33721 3.68355 2.34313 3.66579 2.34954C3.64816 2.35596 3.63039 2.36302 3.61257 2.37015C3.60634 2.37265 3.6001 2.37507 3.59385 2.37759C3.59383 2.3776 3.5938 2.3776 3.59378 2.37761C3.58222 2.38227 3.57064 2.38696 3.55904 2.39157C3.54114 2.39867 3.52319 2.40565 3.50517 2.41204C3.48715 2.41842 3.46903 2.42427 3.45081 2.42882C3.43259 2.4333 3.41387 2.43672 3.39507 2.43628C3.3783 2.436 3.3614 2.43439 3.34487 2.43255C3.34051 2.43207 3.33614 2.43158 3.33178 2.43108C3.31107 2.42877 3.29102 2.42727 3.2712 2.42956C3.25139 2.43174 3.23159 2.43757 3.21161 2.44657C3.19169 2.45554 3.17153 2.46751 3.15119 2.48147C3.13077 2.49548 3.11062 2.51123 3.09005 2.52838C3.06964 2.54545 3.04914 2.56368 3.02838 2.58295C3.01685 2.59363 3.00457 2.60372 2.99298 2.61249C2.98127 2.62133 2.96963 2.62936 2.95815 2.6369C2.95349 2.63996 2.94885 2.64291 2.94424 2.64589C2.93752 2.65023 2.93087 2.65448 2.92431 2.65888C2.91325 2.66629 2.90246 2.67408 2.89198 2.68294C2.8815 2.69179 2.87133 2.70182 2.86151 2.71375C2.85134 2.72615 2.84296 2.73851 2.83293 2.75597C2.80852 2.79032 2.79339 2.80191 2.77658 2.81481C2.77327 2.81735 2.76989 2.82003 2.76637 2.82286C2.74621 2.83746 2.72607 2.84889 2.7062 2.8579C2.68614 2.86695 2.66639 2.87356 2.64638 2.87806C2.62657 2.88252 2.60661 2.88474 2.58674 2.88498C2.56689 2.88522 2.54709 2.88342 2.52722 2.87955C2.50738 2.87569 2.48712 2.8696 2.46767 2.86182C2.45643 2.85734 2.4445 2.85121 2.43341 2.84482C2.4254 2.84023 2.41752 2.83536 2.40979 2.83054C2.40663 2.82858 2.40349 2.82661 2.40038 2.82469C2.39006 2.81831 2.38001 2.81232 2.3703 2.80765C2.36993 2.80747 2.36956 2.8073 2.36919 2.80712C2.35913 2.80236 2.34939 2.79898 2.33986 2.79768C2.33031 2.79637 2.32097 2.79716 2.31163 2.80007C2.30194 2.80319 2.2939 2.80741 2.28362 2.81519C2.27692 2.82032 2.27036 2.82548 2.26381 2.83062C2.25402 2.83832 2.2443 2.84614 2.2345 2.85421C2.22472 2.86227 2.21506 2.87047 2.20535 2.87899C2.20223 2.88173 2.19893 2.88461 2.1958 2.88743C2.18613 2.89614 2.17656 2.90507 2.16701 2.91449C2.15747 2.92388 2.14803 2.93367 2.13862 2.94405C2.12917 2.95446 2.11988 2.96528 2.11041 2.97697C2.09431 2.99691 2.07889 3.0052 2.0654 3.01031C2.05174 3.01534 2.03898 3.01742 2.02655 3.0193C2.02423 3.01965 2.0219 3.02 2.01957 3.02034C2.00955 3.02175 1.9997 3.02295 1.98999 3.02465C1.97802 3.02673 1.96627 3.02947 1.95449 3.03297C1.94281 3.03642 1.93101 3.04065 1.91939 3.04588C1.90766 3.05117 1.89644 3.05703 1.88436 3.06439C1.87241 3.07159 1.86027 3.0815 1.84696 3.09205C1.83378 3.10253 1.81994 3.11301 1.80593 3.12151C1.79193 3.13005 1.77771 3.13669 1.76359 3.14096C1.74945 3.14527 1.73526 3.14741 1.72126 3.14762C1.70719 3.14784 1.6932 3.14615 1.67929 3.14302C1.6654 3.1399 1.65106 3.13514 1.63764 3.12942C1.6159 3.12015 1.59427 3.10975 1.57259 3.09877C1.55104 3.08782 1.52941 3.07621 1.50783 3.0642C1.48629 3.0522 1.46473 3.03981 1.4432 3.02706C1.42166 3.01431 1.40013 3.00125 1.37862 2.98798C1.37387 2.98505 1.36911 2.9821 1.36436 2.97915C1.34761 2.96876 1.33086 2.95825 1.31419 2.94775C1.31408 2.94766 1.31396 2.94756 1.31385 2.94747C1.29238 2.934 1.27131 2.92065 1.25003 2.90757C1.24222 2.9028 1.23471 2.89822 1.22708 2.89372C1.21944 2.88923 1.21195 2.88494 1.20438 2.88078C1.19681 2.87661 1.18928 2.87266 1.18187 2.86902C1.17438 2.86534 1.16707 2.86199 1.1597 2.85904C1.15294 2.85631 1.14623 2.85409 1.1389 2.85154C1.13823 2.85131 1.13756 2.85108 1.1369 2.85085C1.12887 2.84807 1.11975 2.84416 1.11127 2.83912C1.08881 2.82558 1.06692 2.81305 1.04463 2.80087C1.02233 2.78869 1.00008 2.77706 0.977648 2.7653C0.968888 2.7607 0.960086 2.75614 0.951282 2.75145C0.937585 2.74415 0.923839 2.73669 0.91005 2.72888C0.887364 2.71604 0.864629 2.70223 0.841747 2.68699C0.818953 2.67182 0.796012 2.6552 0.773173 2.63738C0.750353 2.61958 0.727335 2.60041 0.704617 2.58055C0.679306 2.5584 0.654141 2.53589 0.628863 2.51325C0.603627 2.49063 0.578376 2.4679 0.553236 2.44536C0.528005 2.42275 0.502838 2.40027 0.477664 2.37797C0.452473 2.35566 0.4273 2.33354 0.402109 2.31169C0.387032 2.29862 0.37196 2.28563 0.356881 2.27276C0.348903 2.26921 0.341254 2.26568 0.333896 2.26213C0.279529 2.23561 0.240218 2.21059 0.188357 2.16983C0.18339 2.16611 0.179349 2.16339 0.174432 2.15998C0.173494 2.15933 0.172499 2.15862 0.171484 2.15791C0.165059 2.15339 0.15768 2.14792 0.147415 2.1392C0.126937 2.12224 0.0955485 2.09033 0.0549876 2.05002C0.0447416 2.03975 0.0382217 2.03161 0.04043 2.03059C0.0419825 2.02981 0.0474244 2.03188 0.0540653 2.03548C0.041796 2.02707 0.0295597 2.0189 0.0173549 2.01103C0.0124834 2.00787 0.00790994 2.00478 0.00466001 2.00275C0.00164817 2.00086 1.01699e-07 1.99999 0 2C0 2 0 2 0 2C7.95671e-09 2 1.01371e-05 2.00001 3.05241e-05 2.00002C0.000311164 2.00016 0.00252213 2.00119 0.00617906 2.00253C0.00983471 2.00388 0.0146312 2.00546 0.019525 2.00727C0.0325075 2.01212 0.0454461 2.01697 0.0583874 2.02181C0.0713394 2.02665 0.0842303 2.03144 0.0971594 2.03619C0.110085 2.04093 0.123006 2.04561 0.135967 2.05022C0.148878 2.05481 0.161815 2.05933 0.174776 2.06375C0.187818 2.0682 0.200615 2.07245 0.21362 2.07668C0.221412 2.07921 0.229297 2.08175 0.237039 2.08418C0.239924 2.08509 0.242739 2.08595 0.245556 2.08683C0.247859 2.08755 0.250173 2.08827 0.252555 2.08901C0.277613 2.09673 0.302911 2.10412 0.327983 2.11102C0.353173 2.11796 0.378337 2.12448 0.403501 2.13059C0.428679 2.13669 0.453835 2.14234 0.479002 2.14761C0.504156 2.15287 0.529296 2.15771 0.554484 2.16211C0.579579 2.16647 0.604776 2.17046 0.629912 2.17388C0.649356 2.17652 0.668634 2.17876 0.687944 2.18063C0.695546 2.17828 0.703069 2.17601 0.710494 2.17377C0.732108 2.16725 0.753751 2.15631 0.775072 2.14428C0.737124 2.14618 0.70664 2.1522 0.677618 2.15668C0.673726 2.15729 0.669862 2.15788 0.666008 2.15842C0.626671 2.16402 0.58867 2.165 0.537557 2.15031C0.392188 2.10893 0.307898 2.08396 0.255376 2.0669C0.202863 2.04988 0.1803 2.03987 0.159242 2.02844C0.129486 2.01186 0.072056 2.00497 0.0431969 2.0031C0.0327135 2.00212 0.0242516 2.00009 0.0242992 1.99854C0.0243498 1.99699 0.0328924 1.99393 0.0433777 1.99177C0.0738505 1.9859 0.135995 1.97689 0.171412 1.98925C0.187186 1.99457 0.205326 1.99859 0.257039 2.00321C0.308758 2.00798 0.392271 2.01289 0.537919 2.02446C0.587192 2.02857 0.623762 2.02066 0.66268 2.00781C0.666497 2.00656 0.67034 2.00523 0.674218 2.0039C0.674242 2.0039 0.674266 2.0039 0.67429 2.0039C0.710039 1.99175 0.748965 1.97645 0.801456 1.96779C0.922443 1.9491 1.08519 1.9022 1.12382 1.87618C1.1314 1.87122 1.13873 1.86569 1.14646 1.85982C1.17613 1.83732 1.21196 1.80906 1.29269 1.78312C1.31035 1.77747 1.33103 1.77304 1.3536 1.76969C1.38746 1.7319 1.42034 1.69515 1.44893 1.67181C1.47361 1.65171 1.49636 1.61708 1.51841 1.57868C1.52476 1.56764 1.53115 1.55606 1.53753 1.54448C1.55291 1.51654 1.5683 1.48825 1.5833 1.46566C1.59525 1.44766 1.60777 1.42619 1.621 1.4033C1.6692 1.32026 1.72696 1.21605 1.80222 1.20153C1.88201 1.1865 1.95031 1.19488 2.00923 1.20592C1.96596 1.19059 1.93256 1.17141 1.90474 1.1546C1.89949 1.15143 1.89446 1.14836 1.88962 1.14542C1.85543 1.12469 1.83057 1.11055 1.80392 1.11635C1.67666 1.14473 1.62893 1.18302 1.57507 1.26339C1.56089 1.28463 1.54525 1.31199 1.52839 1.34108C1.49471 1.39931 1.45619 1.46404 1.41479 1.50395C1.37624 1.54123 1.33312 1.59242 1.28743 1.64385C1.28741 1.64386 1.28739 1.64386 1.28737 1.64386C1.27844 1.65392 1.26941 1.66399 1.2603 1.67399C1.20475 1.73512 1.14632 1.79246 1.08944 1.82838C1.08336 1.83223 1.07607 1.8374 1.06771 1.84326C1.01942 1.87843 0.934641 1.9288 0.831114 1.90905C0.808375 1.9051 0.784747 1.8951 0.757784 1.88511C0.749571 1.88207 0.741044 1.87897 0.732141 1.87609C0.693706 1.86358 0.647008 1.85395 0.584829 1.85764C0.533514 1.86065 0.470974 1.87208 0.406033 1.88578C0.374045 1.89254 0.341474 1.89989 0.309374 1.90742C0.212412 1.93008 0.123543 1.9542 0.0348421 1.98681C0.034824 1.98682 0.0348059 1.98683 0.0347879 1.98683C0.0243089 1.99046 0.0161006 1.99267 0.0164688 1.99149C0.0168408 1.99032 0.0256339 1.98364 0.036108 1.97688C0.124861 1.92125 0.213459 1.87547 0.310098 1.83072C0.341709 1.81606 0.374025 1.80152 0.405888 1.78781C0.471145 1.75975 0.534554 1.73505 0.586348 1.72177C0.649585 1.7055 0.697138 1.70659 0.736101 1.7123C0.745485 1.71366 0.754309 1.71527 0.762684 1.71691C0.78935 1.72213 0.811517 1.72783 0.833085 1.7279C0.933325 1.72986 1.0149 1.66934 1.06337 1.62728C1.07196 1.62003 1.07952 1.61364 1.08595 1.60865C1.14171 1.56554 1.19925 1.50166 1.25475 1.43388C1.26375 1.4229 1.27271 1.41188 1.2816 1.40081C1.28162 1.40077 1.28164 1.40072 1.28166 1.40068C1.32734 1.34386 1.37123 1.28696 1.41051 1.24482C1.45037 1.20215 1.48513 1.14017 1.51765 1.08089C1.5351 1.04911 1.55191 1.01828 1.5685 0.99197C1.62564 0.901824 1.67601 0.858158 1.80369 0.821454ZM0.0730354 2.04865C0.0982546 2.06768 0.118803 2.08317 0.134105 2.09309C0.121109 2.08335 0.108145 2.07379 0.0951701 2.06443C0.0877856 2.0591 0.0804097 2.05384 0.0730354 2.04865ZM1.35669 2.02486C1.3526 2.02898 1.34848 2.03312 1.34435 2.03725C1.35576 2.03545 1.36716 2.03376 1.37855 2.03202C1.39253 2.0299 1.40651 2.02786 1.42049 2.0258C1.39827 2.0247 1.37674 2.02425 1.35669 2.02486ZM1.8024 1.4965C1.73142 1.50563 1.67838 1.5971 1.63055 1.6757C1.61678 1.69842 1.60342 1.72016 1.59021 1.73895C1.58473 1.74674 1.57925 1.75527 1.57373 1.76426C1.60588 1.76618 1.63542 1.76883 1.65961 1.77119C1.73179 1.77824 1.77287 1.8013 1.80897 1.82203C1.81941 1.82803 1.82945 1.83382 1.83969 1.83902C1.84817 1.82878 1.85697 1.81856 1.86586 1.80951C1.87831 1.79673 1.89177 1.78433 1.90458 1.7737C1.91743 1.763 1.9305 1.75333 1.94333 1.74508C1.95627 1.73677 1.96909 1.72973 1.98185 1.72356C1.99386 1.71774 2.00582 1.71275 2.0174 1.70791C2.01807 1.70763 2.01873 1.70736 2.01939 1.70709C2.03163 1.70194 2.04354 1.69701 2.05447 1.6904C2.06561 1.68361 2.07487 1.67574 2.08308 1.66403C2.09334 1.64943 2.10387 1.63537 2.11428 1.62228C2.1247 1.60915 2.13507 1.59691 2.14542 1.58542C2.15579 1.57391 2.16605 1.56314 2.17634 1.55293C2.17967 1.54963 2.18315 1.54623 2.18645 1.54307C2.18797 1.54161 2.18949 1.54012 2.19101 1.53868C2.17087 1.53821 2.14997 1.53726 2.12837 1.53558C2.09715 1.53315 2.06383 1.52465 2.02708 1.51588C1.96437 1.50088 1.89168 1.48533 1.8024 1.4965ZM2.49619 1.50949C2.48744 1.51011 2.47462 1.51228 2.45809 1.51518C2.45418 1.51586 2.45006 1.51669 2.44574 1.51744C2.44584 1.51752 2.44594 1.51752 2.44605 1.5176C2.45675 1.52571 2.46664 1.5328 2.47731 1.53941C2.49634 1.55114 2.51482 1.5613 2.53348 1.57012C2.55222 1.57896 2.57091 1.58633 2.58961 1.59235C2.60835 1.59837 2.62714 1.60292 2.64577 1.60597C2.66457 1.60902 2.68311 1.6107 2.70183 1.61048C2.70779 1.61042 2.71377 1.61015 2.71975 1.60971C2.7064 1.60134 2.69254 1.5943 2.6779 1.5869C2.66621 1.58099 2.65401 1.57482 2.64119 1.56754C2.63628 1.56476 2.63034 1.56055 2.62341 1.55565C2.59595 1.53626 2.55286 1.50553 2.49619 1.50949ZM2.86905 1.5363C2.87339 1.53469 2.87771 1.53328 2.88198 1.53219C2.89413 1.52909 2.90597 1.52781 2.91758 1.52711C2.92574 1.52662 2.9338 1.52651 2.94174 1.52635C2.9451 1.52628 2.94845 1.52617 2.95176 1.52609C2.95732 1.52596 2.96283 1.52569 2.96831 1.52541C2.92991 1.51245 2.89237 1.50177 2.85324 1.49606C2.85273 1.49598 2.85221 1.49599 2.85169 1.49592C2.85761 1.50969 2.86339 1.52316 2.86905 1.5363Z" fill="var(--stroke-0, #FF6B6B)"/>
</svg>
