<svg preserveAspectRatio="none" width="100%" height="100%" overflow="visible" style="display: block;" viewBox="0 0 15 17" fill="none" xmlns="http://www.w3.org/2000/svg">
<g id="headshot">
<path d="M7.27257 9.12276C7.29907 8.79375 7.79997 8.71903 7.8498 9.04461C7.89442 9.33625 7.84189 9.60417 7.71057 9.86674C7.5851 10.1176 7.26973 10.0006 7.24588 9.77213C7.22233 9.54652 7.23903 9.41194 7.25604 9.27486C7.26212 9.22591 7.26824 9.17661 7.27257 9.12276Z" fill="var(--fill-0, #424257)"/>
<path d="M11.0857 8.97691C11.1555 8.88541 11.2563 8.82296 11.3771 8.85825C11.7546 8.96858 11.6433 9.50464 11.5108 9.76555C11.4388 9.90724 11.2059 9.94318 11.1007 9.81842C10.9293 9.61496 10.8471 9.20867 11.0651 9.00827C11.071 8.99791 11.0776 8.98746 11.0857 8.97691Z" fill="var(--fill-0, #424257)"/>
<path d="M7.70514 7.68312L7.76475 7.67268C7.94919 7.64077 8.17853 7.61011 8.309 7.75845C8.37819 7.83711 8.40201 7.98331 8.309 8.0586C8.18718 8.15723 8.05579 8.15398 7.91569 8.1505C7.86762 8.14931 7.81852 8.14809 7.76843 8.15096C7.60685 8.16023 7.45156 8.18698 7.29592 8.23149C6.95447 8.32912 6.67624 8.50734 6.38461 8.70305C6.34634 8.72871 6.30728 8.67975 6.32555 8.64395C6.49389 8.31409 6.82013 8.04313 7.14691 7.87796C7.32132 7.7898 7.51218 7.71666 7.70514 7.68312Z" fill="var(--fill-0, #424257)"/>
<path d="M9.29321 13.5313C9.07972 13.4441 8.88925 13.2988 8.74999 13.1132C8.70158 13.0486 8.68903 12.9805 8.69918 12.9181C8.7106 12.848 8.75205 12.7845 8.80857 12.7419C8.86528 12.6992 8.93621 12.6781 9.00478 12.6888C9.06436 12.6981 9.12369 12.7308 9.17063 12.7985L9.18044 12.812C9.26322 12.9241 9.37111 13.016 9.49404 13.0753C9.61252 13.1324 9.74503 13.1591 9.88215 13.1435C10.1433 13.1141 10.3233 12.9728 10.5147 12.7809C10.5384 12.7567 10.5621 12.7317 10.5859 12.7063C10.601 12.6832 10.6219 12.6684 10.6451 12.6607C10.6709 12.652 10.7 12.6526 10.7267 12.6619C10.7525 12.6709 10.7754 12.688 10.7909 12.7106C10.8056 12.7321 10.8139 12.7587 10.8111 12.7894C10.7937 12.9882 10.6898 13.1656 10.5421 13.305C10.3782 13.4598 10.1609 13.5669 9.95628 13.6044C9.73087 13.6457 9.50119 13.6162 9.29321 13.5313Z" fill="var(--fill-0, #424257)"/>
<path d="M5.11844 4.09586C5.16616 4.06663 5.21528 4.1234 5.19161 4.16922C5.10496 4.33681 4.97367 4.48467 4.84559 4.62893C4.80424 4.67551 4.7632 4.72173 4.72412 4.7681C4.55834 4.96482 4.39376 5.16261 4.2296 5.3607C3.89531 5.76402 3.56904 6.17473 3.25564 6.59459L3.17291 6.70566C2.89737 7.07643 2.62519 7.45307 2.38433 7.84702C2.25832 8.0531 2.14727 8.26624 2.04643 8.48573C2.0057 8.57439 1.97428 8.67083 1.94279 8.76748C1.90006 8.89863 1.85721 9.03018 1.7908 9.14318C1.78354 9.15557 1.76104 9.15455 1.75825 9.13889C1.72286 8.94025 1.80291 8.70345 1.86784 8.5114C1.87199 8.49912 1.87608 8.48702 1.88007 8.47513C1.95908 8.23978 2.07152 8.01561 2.19189 7.7991C2.44295 7.34747 2.74378 6.92414 3.046 6.50593C3.35293 6.08126 3.67159 5.66528 4.00592 5.26187C4.16294 5.07238 4.32349 4.88668 4.48884 4.70464L4.55108 4.63655C4.58115 4.60385 4.61127 4.57026 4.64165 4.53636C4.78625 4.37505 4.93697 4.20691 5.11844 4.09586Z" fill="var(--fill-0, #424257)"/>
<path d="M4.31573 3.43924C4.39423 3.38095 4.46123 3.50009 4.41116 3.56325C4.18541 3.84793 3.93616 4.11081 3.68675 4.37388C3.60568 4.4594 3.52457 4.54494 3.44426 4.63124C3.12988 4.96911 2.82936 5.31962 2.54582 5.68393C1.96766 6.42679 1.50486 7.24194 1.11289 8.09625C1.1055 8.11236 1.08224 8.10034 1.08572 8.08478C1.29334 7.16071 1.77874 6.32142 2.33142 5.56311L2.35244 5.53435C2.91146 4.77179 3.55404 4.00522 4.31573 3.43924Z" fill="var(--fill-0, #424257)"/>
<path fill-rule="evenodd" clip-rule="evenodd" d="M5.87619 0.106279C6.57896 -0.0583194 7.31596 -0.024199 8.01208 0.156697C9.3918 0.51528 10.527 1.44775 11.4684 2.48741C12.3865 3.50149 13.1436 4.664 13.6967 5.91633L13.7246 5.98004C14.1158 6.87274 14.4557 7.80063 14.4703 8.78359C14.4828 9.62959 14.3976 10.5109 14.1249 11.3156C13.8821 12.0324 13.4353 12.7547 12.6667 12.9266C12.5669 13.1808 12.4457 13.4273 12.3052 13.6627C12.3511 13.9383 12.3846 14.301 12.3154 14.5548C12.1996 14.9791 11.9903 15.3817 11.7255 15.735C11.4822 16.0594 11.1755 16.3291 10.7956 16.4782C10.2998 16.6728 9.7086 16.6182 9.19129 16.5679C8.54521 16.505 7.91024 16.3612 7.29588 16.1532C6.98854 16.0495 6.68691 15.93 6.38972 15.8005C6.34634 15.7816 6.30255 15.7629 6.25854 15.744C6.00619 15.6356 5.74645 15.5242 5.51339 15.3841C5.31393 15.2642 5.13931 15.086 4.97369 14.917C4.94389 14.8866 4.91438 14.8565 4.88507 14.827C4.66537 14.6065 4.44917 14.379 4.24712 14.1407C4.23481 14.1473 4.22232 14.153 4.20997 14.1577C3.98786 14.2414 3.75834 14.0244 3.59895 13.8737C3.58657 13.862 3.57461 13.8507 3.56311 13.84C3.46362 13.747 3.37216 13.647 3.28735 13.5413C3.2048 13.5531 3.1217 13.5591 3.03946 13.5493C2.91202 13.5341 2.78582 13.5117 2.66169 13.479C1.63207 13.2081 0.869973 12.3512 0.458799 11.397C-0.093214 10.1158 -0.0803787 8.63901 0.149104 7.28423C0.568422 4.80843 1.92554 2.49631 3.97479 1.03252C4.5487 0.622566 5.1851 0.268112 5.87619 0.106279ZM3.62009 13.1808C3.58242 13.0777 3.55372 12.9685 3.5355 12.85C3.43985 12.2263 3.52879 11.5709 3.61372 10.9452C3.62058 10.8946 3.62743 10.8442 3.63414 10.794C3.63668 10.773 3.66967 10.7618 3.67665 10.7835L3.67475 10.7482C3.67252 10.6979 3.74579 10.6913 3.75943 10.7368C3.92626 11.2888 4.19871 11.7914 4.59042 12.2158C5.07867 12.7449 5.68977 13.1273 6.29773 13.5078C6.36139 13.5476 6.42502 13.5874 6.48846 13.6274C6.51091 13.6062 6.53819 13.5912 6.56708 13.5855C6.66386 13.15 6.98385 12.7452 7.30032 12.4697C7.86881 11.9752 8.64736 11.6537 9.42916 11.5926C9.3598 11.5521 9.28828 11.5049 9.21468 11.4504C9.02933 11.3007 9.25379 10.9713 9.45357 11.0994C9.46369 11.1072 9.4743 11.1154 9.48535 11.1239C9.70979 11.2975 10.1205 11.6152 10.4099 11.3114C10.6679 10.9499 10.3025 10.6099 10.0627 10.4641C9.99985 10.4189 10.0497 10.2695 10.184 10.2926C10.9715 10.4279 10.9869 11.3522 10.4798 11.6794C10.6091 11.7133 10.7356 11.7563 10.8583 11.8088C11.3433 12.0168 11.7518 12.3807 12.0179 12.8374C12.0441 12.8822 12.0689 12.928 12.0924 12.9745C12.1311 12.8909 12.1677 12.8063 12.202 12.7208C12.1947 12.695 12.1904 12.6687 12.1904 12.6432C12.1904 12.5829 12.2191 12.5484 12.2506 12.5104C12.2757 12.4802 12.3025 12.4479 12.3182 12.3987C12.3536 12.2877 12.385 12.1752 12.4113 12.0616C12.4707 11.8042 12.5038 11.5431 12.5238 11.2799C12.5312 11.1828 12.5333 11.083 12.5355 10.9824C12.5381 10.8615 12.5407 10.7395 12.5524 10.6199C12.5446 10.4442 12.5338 10.2686 12.5179 10.0934C12.4668 9.52894 12.3635 8.96585 12.1643 8.43384L12.1621 8.42798C12.1602 8.43204 12.1581 8.43489 12.1561 8.43739L12.1536 8.44061C12.1532 8.44112 12.1528 8.44165 12.1524 8.44219C12.152 8.4427 12.1516 8.44323 12.1512 8.44376C12.1455 8.45161 12.1384 8.46138 12.1122 8.46963C12.1039 8.46764 12.0956 8.46555 12.0871 8.46334C11.9793 8.43508 11.894 8.39615 11.8114 8.35574L11.7219 8.31162C11.618 8.26068 11.5133 8.21159 11.4022 8.17534C11.1652 8.09802 10.9214 8.04355 10.674 8.01446C10.6203 8.00816 10.5687 7.99004 10.5279 7.959C10.4892 7.92954 10.4596 7.88874 10.4462 7.83451C10.4287 7.76433 10.4337 7.7112 10.4714 7.64789C10.4997 7.60033 10.5402 7.56738 10.5867 7.54845C10.6341 7.52917 10.6881 7.52461 10.7417 7.53536L10.7873 7.54471C11.2191 7.63501 11.7634 7.80366 12.0526 8.167C11.853 7.73678 11.5764 7.35087 11.2421 7.01073C10.8327 6.59414 10.3757 6.23093 9.91885 5.86784C9.41363 5.46632 8.9086 5.06494 8.46839 4.59169L8.42448 4.54401L8.42151 4.54305L8.38099 4.5847C8.29049 4.67772 8.20001 4.77072 8.10931 4.86355L7.63309 5.35047C6.66111 6.34537 5.697 7.34994 4.85142 8.45704C4.36454 9.09455 3.92709 9.76282 3.55017 10.4715C3.37169 10.8071 3.20985 11.1511 3.06357 11.502L3.006 11.6417C2.9375 11.8089 2.86349 11.9961 2.82236 12.1849C2.90338 12.2654 2.96998 12.371 3.03447 12.4733C3.06736 12.5254 3.09969 12.5767 3.1331 12.6233C3.24533 12.7799 3.37476 12.929 3.50793 13.0681C3.54438 13.1062 3.5818 13.1438 3.62009 13.1808ZM11.7194 13.6574C11.6494 13.4267 11.5519 13.2026 11.413 13.0052C11.288 12.8268 11.1219 12.6748 10.9179 12.5944C10.6967 12.5071 10.4471 12.4834 10.2101 12.461C10.1913 12.4592 10.1725 12.4574 10.1539 12.4556C9.6702 12.4086 9.17224 12.4047 8.69775 12.5234C8.05162 12.6853 7.49041 13.1281 7.23328 13.7307C7.21385 13.8623 7.21547 13.9953 7.24331 14.1273C7.7917 14.5127 8.46518 14.7153 9.13916 14.6368C9.18399 14.5811 9.22983 14.5171 9.27766 14.4504C9.45386 14.2044 9.65692 13.9209 9.93462 13.8805C10.196 13.8426 10.381 14.0149 10.5668 14.188C10.6623 14.2768 10.7579 14.3659 10.8643 14.4269C10.8818 14.4368 10.9009 14.4466 10.9206 14.456C10.9742 14.4516 11.0279 14.445 11.081 14.4355C11.3226 14.2056 11.5376 13.9448 11.7194 13.6574ZM6.98558 0.437462C5.66174 0.367537 4.45478 1.05185 3.48643 1.90369C1.72327 3.45469 0.637249 5.72559 0.418765 8.05757C0.302677 9.29659 0.389544 10.6321 1.03403 11.7268C1.28408 12.1515 1.60614 12.5216 1.98629 12.8336C2.34451 13.1278 2.75283 13.2972 3.18935 13.4126C3.16948 13.3851 3.14986 13.3575 3.13078 13.3294C3.02924 13.1804 2.94859 13.022 2.88101 12.856C2.87506 12.862 2.86384 12.8632 2.85721 12.8541C2.58169 12.475 2.66792 12.0229 2.79925 11.6061C2.93696 11.169 3.11148 10.7436 3.31066 10.3311C4.0367 8.82747 5.11657 7.51758 6.23752 6.29525C6.75103 5.73532 7.27981 5.18994 7.80858 4.64456C7.86931 4.58192 7.93005 4.51928 7.99076 4.45661C8.28505 4.15289 8.57856 3.84828 8.86835 3.54018C9.01258 3.38679 9.15592 3.23261 9.29796 3.0772C9.3255 3.04708 9.35249 3.0166 9.37942 2.9862C9.48984 2.86155 9.5991 2.73821 9.73969 2.64567C9.8791 2.55396 10.0183 2.72926 9.9531 2.85965C9.87044 3.02508 9.73868 3.16222 9.60946 3.29672C9.58204 3.32526 9.55473 3.35369 9.52803 3.38224L9.51233 3.39912C9.36366 3.56 9.2136 3.71958 9.06265 3.87831C8.88904 4.06085 8.71407 4.24216 8.53856 4.42299C8.59376 4.41659 8.64919 4.41118 8.70465 4.40577C8.79956 4.39652 8.89458 4.38726 8.9885 4.37295C9.19056 4.34221 9.3899 4.2969 9.58824 4.24763C9.79725 4.19575 10.0036 4.12951 10.2027 4.04716C10.257 4.0247 10.3105 3.9983 10.3641 3.97186C10.4949 3.90728 10.6264 3.84241 10.7725 3.8338C10.9466 3.8235 11.0011 4.03976 10.9045 4.15356C10.781 4.29918 10.5659 4.3628 10.38 4.41777C10.3658 4.422 10.3516 4.42617 10.3378 4.43033L10.3103 4.43862C10.0951 4.50445 9.87499 4.55386 9.65244 4.58686C9.35964 4.63032 9.02123 4.65022 8.70795 4.60573C9.28777 4.94654 9.8247 5.36291 10.3572 5.77585C10.3992 5.80845 10.4413 5.84104 10.4833 5.87356L10.5846 5.95184C11.1454 6.38442 11.6928 6.85074 12.0927 7.44258C12.4659 7.99508 12.6914 8.63832 12.8179 9.29008C12.8802 9.61161 12.9214 9.93656 12.9491 10.2629C13.052 10.5522 13.0355 10.8962 13.0095 11.2143L13.0003 11.3241L13.001 11.3563C13.0017 11.3942 13.0052 11.4409 13.009 11.4927C13.0255 11.7133 13.0489 12.027 12.8968 12.1487C12.8954 12.1555 12.8941 12.1623 12.8928 12.1691C12.8909 12.1783 12.8891 12.1876 12.8872 12.1969C12.9106 12.1824 12.9337 12.1675 12.9566 12.1522C12.9644 12.1469 12.9719 12.1413 12.9795 12.1356L12.9843 12.132L13.0104 12.1107L13.0107 12.1104C13.0115 12.1097 13.0123 12.109 13.0128 12.1084C13.0712 12.0572 13.1268 12.0036 13.1787 11.9457C13.2745 11.8386 13.3655 11.7027 13.4518 11.546C13.6413 11.2016 13.7625 10.8272 13.8562 10.4401C14.0274 9.73247 14.098 8.97238 14.0198 8.24663C14.0089 8.14532 13.9866 8.01831 13.9519 7.88799C13.8695 7.57854 13.7747 7.27238 13.6686 6.97035C13.4562 6.36612 13.196 5.77995 12.8926 5.21622C12.2763 4.07124 11.4834 3.01268 10.5333 2.12437C9.57112 1.22475 8.32337 0.508118 6.98558 0.437462Z" fill="var(--fill-0, #424257)"/>
</g>
</svg>
