<svg preserveAspectRatio="none" width="100%" height="100%" overflow="visible" style="display: block;" viewBox="0 0 32 27" fill="none" xmlns="http://www.w3.org/2000/svg">
<path id="Vector" opacity="0.2" d="M27.4242 6.67316V5.71209C27.4242 4.19715 26.8224 2.74426 25.7512 1.67303C24.6799 0.601808 23.227 0 21.7121 0C20.1972 0 18.7443 0.601808 17.673 1.67303C16.6018 2.74426 16 4.19715 16 5.71209C16 4.19715 15.3982 2.74426 14.327 1.67303C13.2557 0.601808 11.8028 0 10.2879 0C8.77296 0 7.32007 0.601808 6.24884 1.67303C5.17762 2.74426 4.57581 4.19715 4.57581 5.71209V6.67316C3.23791 7.14475 2.07928 8.01983 1.25971 9.17771C0.440135 10.3356 0 11.7192 0 13.1378C0 14.5564 0.440135 15.94 1.25971 17.0979C2.07928 18.2558 3.23791 19.1309 4.57581 19.6025V20.5635C4.57581 22.0785 5.17762 23.5314 6.24884 24.6026C7.32007 25.6738 8.77296 26.2756 10.2879 26.2756C11.8028 26.2756 13.2557 25.6738 14.327 24.6026C15.3982 23.5314 16 22.0785 16 20.5635C16 22.0785 16.6018 23.5314 17.673 24.6026C18.7443 25.6738 20.1972 26.2756 21.7121 26.2756C23.227 26.2756 24.6799 25.6738 25.7512 24.6026C26.8224 23.5314 27.4242 22.0785 27.4242 20.5635V19.6025C28.7621 19.1309 29.9207 18.2558 30.7403 17.0979C31.5599 15.94 32 14.5564 32 13.1378C32 11.7192 31.5599 10.3356 30.7403 9.17771C29.9207 8.01983 28.7621 7.14475 27.4242 6.67316Z" fill="var(--fill-0, #FF6B6B)"/>
</svg>
