<svg preserveAspectRatio="none" width="100%" height="100%" overflow="visible" style="display: block;" viewBox="0 0 10 10" fill="none" xmlns="http://www.w3.org/2000/svg">
<path id="Vector" d="M1.21453 8.53375C1.0748 8.3953 0.965249 8.2448 0.843031 8.04716C0.842955 8.04706 0.842879 8.04696 0.842803 8.04686C0.825404 8.01859 0.807823 7.98925 0.789903 7.95882C0.647776 7.71298 0.468806 7.38964 0.274877 6.87521C0.0623804 6.30235 0.0722883 5.80443 0.124904 5.51695C0.135005 5.46269 0.137065 5.40837 0.136605 5.27065C0.136679 5.20192 0.136532 5.11555 0.140944 4.99996C0.140944 4.99996 0.140944 4.99996 0.140944 4.99996C0.142334 4.96423 0.144203 4.92589 0.146788 4.8847C0.15263 4.79228 0.161941 4.68417 0.178782 4.55908C0.228914 4.14468 0.369053 3.49719 0.635663 2.95476C0.79271 2.62459 0.984287 2.3339 1.14803 2.12932C1.38747 1.82967 1.66048 1.57625 1.98347 1.34464C2.27983 1.13361 2.61946 0.939518 3.03251 0.773799C3.35022 0.647114 3.68791 0.605382 4.01996 0.6032C4.06235 0.602913 4.10491 0.603219 4.14702 0.604185C4.42872 0.610604 4.70857 0.64043 4.99996 0.677614C5.01068 0.678983 5.02141 0.680365 5.03215 0.68176C5.57055 0.754892 5.98988 0.830146 6.43735 0.986242C6.61166 1.0483 6.78826 1.12449 6.9704 1.22522C7.25893 1.38228 7.64271 1.66643 7.95555 2.01605C7.98233 2.04564 8.00873 2.07561 8.03457 2.10589C8.0347 2.10604 8.03483 2.10619 8.03496 2.10634C8.31463 2.4316 8.52592 2.79477 8.65214 3.07052C8.84937 3.51113 8.8814 3.6907 8.92127 3.83493C8.93464 3.88957 8.94601 3.94076 8.95739 4.00177C8.99952 4.22171 9.02929 4.55905 9.00758 4.89542C9.00751 4.8967 9.00743 4.89799 9.00735 4.89927C9.00374 4.95509 8.99967 5.00023 8.99993 4.99996C9.00014 4.9997 9.00196 4.95411 9.00239 4.89843C9.00465 4.72118 8.99452 4.54652 8.97645 4.39212C8.96874 4.38515 8.95771 4.34427 8.94964 4.29477C8.92658 4.17396 8.87222 3.78039 8.58591 3.25044C8.6009 3.28885 8.61254 3.32112 8.62243 3.34964C8.63402 3.38309 8.64236 3.4089 8.64949 3.43109C8.66428 3.4774 8.67396 3.50786 8.69371 3.5613C8.74226 3.68389 8.81446 3.87846 8.8693 4.09031C8.88309 4.1438 8.8845 4.18925 8.87393 4.19114C8.86332 4.19304 8.84244 4.15163 8.8259 4.09951C8.82558 4.09849 8.82526 4.09747 8.82494 4.09645C8.76126 3.89125 8.6788 3.69686 8.62286 3.57349C8.60874 3.54207 8.59647 3.51515 8.5873 3.49493C8.57998 3.47877 8.57071 3.45852 8.56618 3.44705C8.56557 3.44552 8.56444 3.4426 8.5632 3.43908C8.56318 3.43902 8.56316 3.43896 8.56315 3.4389C8.56245 3.43693 8.55885 3.4269 8.55648 3.41553C8.556 3.41323 8.55499 3.40822 8.55442 3.40212C8.55389 3.40072 8.55336 3.39933 8.55283 3.39793C8.54541 3.37842 8.53778 3.35853 8.52915 3.33717C8.49436 3.2543 8.44172 3.1205 8.28677 2.86571C8.14369 2.63389 7.86098 2.25287 7.3962 1.9069C7.42554 1.93272 7.45464 1.95885 7.48343 1.9852C7.55595 2.05157 7.62688 2.11985 7.69572 2.19015C7.72208 2.21706 7.74777 2.24391 7.77364 2.27153C7.81527 2.31599 7.85616 2.36136 7.89611 2.40744C7.92311 2.43857 7.94977 2.47011 7.97594 2.50198C7.976 2.50205 7.97607 2.50212 7.97613 2.50219C8.01247 2.54644 8.04799 2.59141 8.08291 2.6375C8.09508 2.65366 8.10704 2.66971 8.11879 2.68567C8.16553 2.74922 8.21014 2.81297 8.25706 2.88882C8.26254 2.8982 8.26827 2.90853 8.27244 2.9163C8.27694 2.92465 8.28119 2.93272 8.28513 2.9404C8.2886 2.94718 8.29184 2.95368 8.29497 2.9599C8.29539 2.96074 8.29581 2.96157 8.29623 2.9624C8.29972 2.96937 8.30308 2.976 8.30632 2.98238C8.30954 2.98875 8.31264 2.99488 8.31576 3.00086C8.3158 3.00091 8.31583 3.00096 8.31587 3.00102C8.31915 3.00726 8.32164 3.01199 8.32523 3.01853C8.32974 3.02675 8.33367 3.03377 8.33853 3.04222C8.34323 3.0504 8.34819 3.0589 8.35324 3.06746C8.35829 3.07601 8.36347 3.08471 8.36874 3.09354C8.37401 3.10237 8.37937 3.11136 8.38478 3.12041C8.39018 3.12946 8.39566 3.13864 8.40114 3.14788C8.40662 3.15715 8.4121 3.16647 8.41761 3.17588C8.43026 3.19756 8.43832 3.22053 8.44015 3.23939C8.44196 3.25827 8.43749 3.27146 8.42756 3.27634C8.41761 3.28121 8.40286 3.27748 8.38611 3.26639C8.36937 3.25528 8.35197 3.23774 8.33771 3.21759C8.33384 3.2121 8.32991 3.2066 8.32598 3.20109C8.32364 3.19782 8.32129 3.19449 8.31893 3.1912C8.31258 3.18234 8.30611 3.17344 8.29963 3.16448C8.29314 3.15554 8.28661 3.14652 8.28 3.13743C8.27336 3.12831 8.26664 3.11908 8.25986 3.10972C8.2531 3.10037 8.24623 3.09081 8.23931 3.08108C8.23256 3.07159 8.22495 3.06072 8.21826 3.05094C8.21335 3.04379 8.20743 3.03488 8.20253 3.02745C8.19741 3.0197 8.19243 3.01203 8.18767 3.00462C8.18289 2.99719 8.17832 2.98998 8.17393 2.98311C8.17346 2.98238 8.17299 2.98165 8.17251 2.98092C8.16863 2.97485 8.16488 2.96899 8.16129 2.96348C8.15728 2.95733 8.15342 2.95155 8.14969 2.94609C8.14559 2.94008 8.14299 2.9365 8.13977 2.93213C8.09587 2.87523 8.03773 2.80779 7.98023 2.74602C7.973 2.73824 7.9658 2.73053 7.95864 2.72294C7.92054 2.68266 7.88173 2.64349 7.84214 2.60521C7.81338 2.57741 7.78419 2.55008 7.75462 2.52321C7.71111 2.48367 7.66669 2.44505 7.62163 2.40756C7.59364 2.38426 7.56592 2.36179 7.5375 2.33935C7.46327 2.28076 7.38716 2.22476 7.30965 2.17114C7.2323 2.11761 7.15316 2.06622 7.07312 2.01681C6.99339 1.96754 6.90967 1.9184 6.82871 1.87162C6.76923 1.8371 6.70915 1.79992 6.65327 1.76568C6.62324 1.74726 6.59356 1.72931 6.56426 1.71189C6.56416 1.71182 6.56407 1.71175 6.56397 1.71168C6.53826 1.6964 6.51268 1.6815 6.487 1.6671C6.43188 1.63615 6.37685 1.60767 6.32047 1.58154C6.26407 1.5554 6.20715 1.53192 6.14849 1.51091C6.09014 1.49003 6.03039 1.47166 5.97006 1.45611C5.90926 1.44045 5.84963 1.42789 5.78588 1.41724C5.70208 1.40338 5.61868 1.39418 5.5326 1.38807C5.44758 1.38213 5.36101 1.37968 5.2752 1.38041C5.24511 1.38067 5.21488 1.3812 5.18464 1.38221C5.18453 1.38221 5.18441 1.38221 5.1843 1.38221C5.12887 1.3841 5.07317 1.38726 5.0173 1.39161C5.01152 1.39206 5.00574 1.39252 4.99996 1.39299C4.91923 1.39962 4.84043 1.40867 4.76042 1.4199C4.67522 1.4319 4.59024 1.44641 4.50548 1.46273C4.42089 1.47894 4.33421 1.49759 4.24745 1.51579C4.16983 1.53217 4.09229 1.54994 4.01657 1.5697C3.99662 1.57491 3.97673 1.58027 3.9569 1.5858C3.86249 1.6122 3.77259 1.64225 3.6861 1.67894C3.59997 1.71539 3.51639 1.75875 3.43602 1.80824C3.35574 1.85765 3.27812 1.91328 3.20379 1.97375C3.12912 2.03451 3.05934 2.09876 2.99202 2.1676C2.92535 2.2359 2.86222 2.30777 2.80261 2.38305C2.76942 2.42488 2.73457 2.46905 2.70223 2.51088C2.66956 2.55309 2.63771 2.59509 2.60706 2.63687C2.59463 2.65382 2.58235 2.67072 2.57037 2.68762C2.5529 2.71227 2.5359 2.73686 2.51969 2.76137C2.49233 2.80272 2.46705 2.84393 2.44442 2.88513C2.42181 2.92627 2.40195 2.96746 2.38545 3.00876C2.36842 3.05156 2.35693 3.08817 2.34629 3.1335C2.31416 3.23918 2.29031 3.2993 2.26463 3.36686C2.25964 3.38014 2.2547 3.39378 2.2497 3.40803C2.2197 3.48882 2.19064 3.56844 2.16308 3.64701C2.13531 3.72611 2.10908 3.80391 2.08369 3.88264C2.05854 3.96069 2.03429 4.03929 2.01142 4.11779C1.98854 4.19633 1.9669 4.27482 1.94621 4.35448C1.9256 4.43365 1.90562 4.51576 1.88765 4.59471C1.87723 4.6405 1.86589 4.6896 1.85573 4.73518C1.84839 4.76815 1.84132 4.80095 1.83483 4.8334C1.83218 4.84657 1.82962 4.85961 1.82719 4.87262C1.8191 4.91581 1.81232 4.95838 1.80765 4.99996C1.80765 4.99996 1.80765 4.99996 1.80765 4.99996C1.80747 5.00154 1.8073 5.00312 1.80713 5.0047C1.80243 5.04775 1.79995 5.08937 1.80026 5.12985C1.80055 5.17018 1.80369 5.21036 1.80963 5.24964C1.81593 5.29046 1.82331 5.3237 1.83595 5.36627C1.84426 5.39385 1.85289 5.42061 1.8618 5.44704C1.87513 5.48644 1.88936 5.52574 1.90455 5.56438C1.91974 5.60303 1.93564 5.64054 1.95265 5.678C1.95812 5.69001 1.96395 5.70263 1.96964 5.71453C1.98721 5.75128 2.00554 5.78699 2.025 5.82217C2.04442 5.85725 2.06467 5.89109 2.08605 5.92425C2.10754 5.95758 2.12975 5.98951 2.15352 6.02114C2.194 6.07498 2.22427 6.12843 2.24999 6.17546C2.27592 6.22323 2.29888 6.26792 2.32218 6.31115C2.32655 6.31925 2.33095 6.32732 2.33538 6.33537C2.3544 6.3701 2.37356 6.4038 2.39359 6.43652C2.41825 6.47683 2.44394 6.51535 2.47124 6.55301C2.49829 6.59036 2.52706 6.62692 2.55703 6.6616C2.58733 6.6966 2.61762 6.72886 2.65179 6.76208C2.68556 6.79499 2.72254 6.82592 2.7635 6.85867C2.80414 6.89113 2.84705 6.92416 2.88974 6.95765C2.93242 6.99109 2.97505 7.02505 3.01664 7.05918C3.05834 7.09336 3.09953 7.12798 3.13985 7.16243C3.18041 7.19706 3.22039 7.23178 3.26033 7.26646C3.30021 7.30108 3.34143 7.33684 3.38042 7.37047C3.44344 7.42487 3.50821 7.47754 3.57531 7.52808C3.64207 7.5784 3.71132 7.62676 3.78246 7.67244C3.85367 7.71814 3.927 7.76128 4.00248 7.80169C4.07792 7.84209 4.15542 7.87968 4.23508 7.91422C4.25275 7.92187 4.27028 7.92931 4.28805 7.93664C4.35063 7.96243 4.41445 7.98633 4.47907 8.00807C4.47951 8.00823 4.47996 8.0084 4.4804 8.00857C4.56381 8.0365 4.64735 8.06062 4.73312 8.08106C4.76463 8.08852 4.79519 8.09525 4.82654 8.10147C4.85788 8.10768 4.88844 8.11319 4.91978 8.11815C4.94652 8.12237 4.97331 8.1261 4.99996 8.12928C5.00456 8.12983 5.00914 8.13037 5.01372 8.13088C5.04516 8.13442 5.07578 8.13719 5.10663 8.13912C5.13493 8.14091 5.16278 8.14186 5.19378 8.14254C5.1966 8.1426 5.19941 8.14266 5.20223 8.14272C5.23599 8.14339 5.27434 8.14427 5.31009 8.14585C5.40543 8.15017 5.49838 8.14965 5.59353 8.14424C5.68851 8.13884 5.78334 8.12868 5.87919 8.1139C5.91658 8.10815 5.95378 8.10174 5.99141 8.09462C6.04987 8.08356 6.10794 8.07113 6.1667 8.05706C6.26301 8.03401 6.35945 8.0072 6.45624 7.97671C6.55276 7.94628 6.64974 7.91213 6.74589 7.87445C6.84209 7.83672 6.93866 7.79487 7.03325 7.74949C7.13869 7.69893 7.24218 7.64313 7.34394 7.58127C7.44557 7.51949 7.54504 7.45191 7.64115 7.37894C7.7376 7.30572 7.83085 7.22699 7.92043 7.14277C8.01006 7.05852 8.09594 6.96884 8.17741 6.87395C8.22616 6.81719 8.27337 6.75849 8.31877 6.69815C8.3399 6.66473 8.35984 6.63221 8.37864 6.60088C8.51665 6.368 8.60642 6.1908 8.71225 5.94667C8.72203 5.92322 8.72954 5.90395 8.73858 5.88039C8.7403 5.87589 8.74214 5.87112 8.74399 5.86625C8.75571 5.83543 8.76928 5.79957 8.78796 5.74994C8.82463 5.65067 8.88398 5.49663 8.93958 5.28793C8.95365 5.23511 8.96327 5.20092 8.96374 5.21267C8.96408 5.2209 8.96049 5.24954 8.95442 5.28414C8.96739 5.22013 8.97852 5.15638 8.98786 5.09201C8.9916 5.06632 8.99497 5.04206 8.9971 5.02478C8.99909 5.00876 8.99993 4.99996 8.99993 4.99996C8.99993 4.99996 8.99992 5.00002 8.99991 5.00013C8.99976 5.00162 8.99876 5.01342 8.99727 5.03286C8.99576 5.0523 8.99382 5.07774 8.99134 5.10358C8.98475 5.17202 8.97642 5.24006 8.96638 5.30785C8.95635 5.37545 8.94467 5.44251 8.93131 5.50937C8.91798 5.57598 8.903 5.64234 8.88637 5.70833C8.86985 5.77387 8.85163 5.8393 8.83186 5.90411C8.81199 5.96915 8.7909 6.03275 8.76799 6.09647C8.75426 6.13464 8.73984 6.17292 8.72507 6.2105C8.71957 6.22448 8.71416 6.23808 8.70866 6.25165C8.70416 6.26273 8.69959 6.27384 8.69484 6.28525C8.64493 6.40532 8.58887 6.52387 8.5281 6.63813C8.46707 6.75291 8.4008 6.8644 8.32968 6.97225C8.25851 7.08018 8.18252 7.18443 8.10199 7.28471C8.02148 7.38498 7.93652 7.4812 7.8473 7.5733C7.7584 7.6651 7.66504 7.75291 7.56823 7.83601C7.49338 7.90027 7.41701 7.96137 7.33862 8.01981C7.30963 8.04526 7.28049 8.07 7.2514 8.09398C7.16666 8.16384 7.08113 8.23386 6.99405 8.30064C7.15896 8.19821 7.28168 8.10171 7.39465 8.0062C7.40977 7.99337 7.42469 7.98051 7.43949 7.96763C7.59015 7.83532 7.73094 7.70352 7.91327 7.51651C8.42599 6.97438 8.59983 6.55323 8.71088 6.30638C8.81609 6.05281 8.84852 5.93795 8.88413 5.83232C8.93577 5.68339 8.9827 5.38173 8.99038 5.22882C8.99452 5.17328 8.99777 5.12888 8.99935 5.1291C9.00086 5.12949 9.00267 5.17451 9.00165 5.23042C9.00152 5.39236 8.96611 5.72339 8.90844 5.90374C8.88308 5.98365 8.8619 6.07824 8.76802 6.33583C8.66721 6.58681 8.51345 7.01933 8.00722 7.60026C7.83354 7.79324 7.69846 7.93062 7.54877 8.0727C7.53403 8.08657 7.51914 8.10047 7.50397 8.11438C7.50387 8.11446 7.50377 8.11454 7.50367 8.11462C7.36348 8.24221 7.20411 8.37733 6.96361 8.52251C6.41675 8.87813 5.54499 9.08385 5.33497 9.11033C5.2941 9.11858 5.25433 9.12675 5.21208 9.13477C5.15096 9.14639 5.08439 9.15802 4.99996 9.16785C4.86266 9.183 4.68049 9.19719 4.40094 9.17456C4.30241 9.16626 4.1877 9.15085 4.06313 9.12609C3.86989 9.12133 3.67889 9.10166 3.51699 9.06729C3.37689 9.03754 3.24256 9.01823 3.10928 8.99763C3.07103 8.99174 3.03201 8.98553 2.99317 8.97889C2.89948 8.96286 2.80521 8.94374 2.71595 8.91776C2.64491 8.8971 2.56909 8.87572 2.48911 8.85084C2.20017 8.76022 1.83904 8.62099 1.49868 8.28114C1.1407 7.92065 0.906786 7.54507 0.744053 7.2086C0.85771 7.4596 0.958762 7.64884 1.04826 7.80438C1.0652 7.83368 1.08171 7.86161 1.09788 7.88836C1.21265 8.07706 1.30759 8.20903 1.42902 8.33137C2.02316 8.9025 2.33174 9.01185 2.65869 9.11823C2.74671 9.14392 2.84557 9.16582 2.952 9.18559C3.16462 9.22503 3.40501 9.2547 3.65232 9.29037C3.88282 9.32379 4.14309 9.33241 4.41136 9.3166C4.41146 9.31661 4.41157 9.31663 4.41167 9.31664C4.464 9.31356 4.51705 9.30964 4.57003 9.30482C4.71278 9.29176 4.85675 9.27249 4.99996 9.24841C5.18 9.21814 5.35619 9.18037 5.52783 9.13845C5.56075 9.1304 5.59974 9.11987 5.64437 9.10699C5.90287 9.03119 6.34212 8.88631 6.85036 8.64943C6.96194 8.59709 7.0789 8.54314 7.20842 8.47256C7.24785 8.45104 7.28835 8.42804 7.33015 8.40286C7.50973 8.29404 7.72182 8.14493 7.95894 7.89881C8.15434 7.69601 8.3636 7.42052 8.53313 7.10907C8.61691 6.95593 8.69162 6.7946 8.75416 6.63193C8.94269 6.14011 9.0194 5.65821 9.00891 5.18535C9.00891 5.18525 9.00891 5.18516 9.0089 5.18506C9.00781 5.12946 9.00633 5.08576 9.00749 5.08775C9.00861 5.08974 9.01441 5.13666 9.01852 5.19251C9.0511 5.66798 8.99482 6.15832 8.82288 6.66621C8.7665 6.83219 8.69719 6.99898 8.61762 7.15867C8.45538 7.48632 8.24691 7.782 8.04996 8.00005C7.80921 8.26679 7.58989 8.43075 7.40421 8.55061C7.35933 8.57941 7.31645 8.60536 7.2753 8.62928C7.14422 8.70527 7.03138 8.76092 6.92244 8.81598C6.41577 9.07019 5.97399 9.22998 5.70253 9.31645C5.65413 9.33161 5.61206 9.34402 5.57551 9.35385C5.38947 9.4038 5.19751 9.44895 4.99996 9.48516C4.86067 9.51066 4.72046 9.53171 4.57974 9.54693C4.52494 9.55295 4.46903 9.55793 4.41397 9.56207C4.41386 9.5621 4.41374 9.56213 4.41363 9.56216C4.13033 9.58358 3.84991 9.57846 3.60055 9.54564C3.34754 9.51227 3.11811 9.48659 2.90065 9.44963C2.7841 9.42969 2.67149 9.40625 2.56235 9.3755C2.19396 9.25983 1.85087 9.13655 1.21453 8.53375ZM8.93304 5.38209C8.9014 5.51209 8.86959 5.61468 8.84589 5.6912C8.86732 5.62655 8.8869 5.56141 8.90461 5.49548C8.9147 5.45798 8.92421 5.41982 8.93304 5.38209ZM4.10352 8.87358C4.12543 8.8744 4.14749 8.87506 4.16962 8.87555C4.1105 8.86478 4.05195 8.85264 3.99359 8.83917C3.92165 8.82256 3.85079 8.80402 3.77992 8.78336C3.89089 8.82029 4.0007 8.85053 4.10352 8.87358ZM1.71314 8.07861C2.01171 8.38172 2.32305 8.50508 2.59248 8.59257C2.67061 8.61766 2.74654 8.63989 2.82021 8.66195C2.85076 8.6711 2.88171 8.67924 2.91311 8.68672C2.75709 8.59611 2.62032 8.50169 2.51224 8.41992C2.19074 8.17342 2.04725 7.9886 1.92595 7.8294C1.89119 7.78279 1.85883 7.73741 1.82623 7.69098C1.78817 7.66196 1.74937 7.63081 1.71163 7.59769C1.65869 7.55141 1.60363 7.49878 1.55342 7.44646C1.50295 7.39396 1.45388 7.3384 1.40808 7.28177C1.36185 7.22463 1.31849 7.16613 1.27743 7.10622C1.23874 7.04979 1.20231 6.9923 1.16823 6.93567C1.16628 6.93243 1.16434 6.92918 1.1624 6.92593C1.12644 6.86589 1.09315 6.80674 1.06165 6.75228C1.02953 6.69683 1.00193 6.65097 0.973493 6.61152C0.938034 6.56227 0.903281 6.50995 0.870899 6.45753C0.838421 6.40495 0.807765 6.35111 0.779017 6.29657C0.750252 6.24205 0.723374 6.18694 0.698058 6.13065C0.689857 6.11239 0.681519 6.09343 0.673764 6.07528C0.670191 6.06693 0.666608 6.05856 0.663113 6.05019C0.690575 6.16598 0.723333 6.28532 0.762123 6.40749C0.818004 6.5833 0.883055 6.77081 0.971227 6.97085C1.12202 7.31091 1.3408 7.69596 1.71314 8.07861ZM0.571185 4.25437C0.563174 4.30622 0.553566 4.38141 0.545094 4.47957C0.543102 4.50274 0.541262 4.52742 0.539492 4.55293C0.539628 4.55234 0.539691 4.55173 0.539827 4.55114C0.554229 4.48853 0.568313 4.43105 0.583658 4.36966C0.611055 4.26 0.640395 4.15474 0.672462 4.04932C0.704633 3.94361 0.739189 3.83943 0.776241 3.73643C0.813352 3.63323 0.852967 3.53096 0.894647 3.43056C0.936667 3.32927 0.980561 3.2306 1.02673 3.13202C1.04141 3.10067 1.05642 3.06916 1.0716 3.03782C1.02926 3.10375 0.988641 3.17373 0.947765 3.24959C0.915137 3.31016 0.882591 3.37383 0.849208 3.44201C0.836425 3.46814 0.82049 3.4994 0.80242 3.53633C0.731277 3.68246 0.623456 3.91992 0.571185 4.25437ZM1.4766 2.25919C1.49112 2.23793 1.50589 2.21704 1.5209 2.19669C1.56362 2.13879 1.6081 2.08436 1.65322 2.03245C1.68492 1.99599 1.71714 1.96069 1.74937 1.92638C1.76297 1.91189 1.77662 1.89749 1.79026 1.88333C1.81311 1.85962 1.83595 1.83624 1.85886 1.81326C1.68776 1.9639 1.53198 2.12579 1.38766 2.30949C1.38576 2.31191 1.38392 2.3144 1.38201 2.31685C1.41413 2.29671 1.44569 2.2775 1.4766 2.25919Z" fill="var(--stroke-0, #A98BFF)"/>
</svg>
