<svg preserveAspectRatio="none" width="100%" height="100%" overflow="visible" style="display: block;" viewBox="0 0 5 6" fill="none" xmlns="http://www.w3.org/2000/svg">
<path id="Vector" d="M2.0775 2.95514C2.0999 2.93143 2.13206 2.92692 2.17394 2.92125C2.17396 2.92124 2.17397 2.92122 2.17398 2.92121C2.17997 2.9204 2.18619 2.91961 2.19256 2.91868C2.24379 2.91125 2.30999 2.89824 2.39056 2.84991C2.47892 2.79684 2.59557 2.80443 2.6911 2.82809C2.70885 2.83255 2.72212 2.8316 2.74605 2.81894C2.75804 2.81259 2.77235 2.80352 2.79111 2.79111C2.79111 2.79111 2.79111 2.79111 2.79111 2.79111C2.79691 2.78727 2.80314 2.78311 2.80985 2.77861C2.82497 2.76849 2.84251 2.75662 2.86328 2.74274C2.93218 2.69681 3.01617 2.60076 3.091 2.51049C3.13653 2.45571 3.17905 2.40307 3.21479 2.36505C3.26703 2.30948 3.32688 2.26099 3.39137 2.20512C3.4504 2.15399 3.51327 2.09667 3.57666 2.02294C3.62533 1.9666 3.71575 1.93003 3.8086 1.88716C3.82043 1.88173 3.83229 1.87619 3.84413 1.87056C3.92588 1.8318 4.00621 1.78669 4.06558 1.72561C4.17091 1.61604 4.19139 1.50428 4.21763 1.38533C4.22763 1.33853 4.23805 1.29 4.25252 1.23781C4.2755 1.15535 4.31756 1.03733 4.35415 0.914966C4.35728 0.904557 4.36035 0.894106 4.36342 0.883662C4.36343 0.883609 4.36345 0.883556 4.36346 0.883503C4.39661 0.771231 4.42396 0.658118 4.43993 0.574086C4.44011 0.573123 4.44029 0.572164 4.44048 0.571209C4.46555 0.435555 4.47298 0.384114 4.47998 0.34116C4.48266 0.324896 4.48534 0.309839 4.48922 0.291889C4.50323 0.227241 4.53191 0.12965 4.56068 0.030724C4.56079 0.0303464 4.5609 0.029969 4.56101 0.0295913C4.56602 0.0131739 4.56991 -7.67187e-05 4.56968 3.74514e-07C4.56944 7.9571e-05 4.56779 0.0134555 4.56595 0.0298745C4.55942 0.082275 4.55292 0.133407 4.54752 0.179189C4.5541 0.181562 4.5589 0.193891 4.55818 0.208666C4.55666 0.245657 4.55308 0.358951 4.58057 0.536262C4.58397 0.524117 4.58709 0.513944 4.58993 0.505029C4.59327 0.494565 4.59597 0.486549 4.59821 0.479657C4.60284 0.465292 4.60558 0.455734 4.60669 0.438768C4.60634 0.399472 4.6013 0.337711 4.59571 0.272719C4.5945 0.256308 4.60218 0.243055 4.61294 0.243128C4.6237 0.243207 4.63588 0.256589 4.64007 0.273002C4.64014 0.273323 4.64022 0.273644 4.6403 0.273965C4.65589 0.338335 4.67075 0.402079 4.6771 0.443129C4.67872 0.453572 4.67979 0.462568 4.68042 0.469322C4.68092 0.474721 4.68144 0.481462 4.681 0.485207C4.68094 0.485705 4.68081 0.486653 4.68054 0.487784C4.68053 0.487803 4.68052 0.487822 4.68051 0.487841C4.68036 0.488473 4.67962 0.491702 4.67715 0.495147C4.67665 0.495842 4.67553 0.497355 4.67355 0.499111C4.67346 0.499564 4.67336 0.500017 4.67327 0.50047C4.672 0.506787 4.67061 0.513231 4.66929 0.520207C4.66691 0.532796 4.66429 0.548783 4.66157 0.571209C4.65837 0.597938 4.65489 0.633489 4.64964 0.682646C4.64082 0.766797 4.63568 0.908636 4.62452 1.08674C4.62843 1.07509 4.63211 1.0634 4.63552 1.05165C4.64411 1.0221 4.6512 0.992052 4.65716 0.96189C4.65943 0.950333 4.66154 0.938906 4.66348 0.927233C4.66663 0.908448 4.6694 0.889521 4.67176 0.870591C4.67336 0.857809 4.67477 0.844974 4.67605 0.832139C4.67605 0.832109 4.67605 0.83208 4.67604 0.832051C4.67782 0.814234 4.67932 0.796336 4.68059 0.778272C4.68109 0.771951 4.68152 0.765727 4.6819 0.759529C4.68336 0.734865 4.68438 0.71061 4.68716 0.682677C4.68777 0.679288 4.68863 0.675606 4.68936 0.672864C4.69013 0.669919 4.69092 0.667085 4.69173 0.664406C4.69245 0.662043 4.69319 0.659788 4.69386 0.657625C4.69395 0.657335 4.69404 0.657045 4.69413 0.656755C4.69487 0.654333 4.69554 0.652018 4.69615 0.649788C4.69676 0.647564 4.69734 0.645419 4.69779 0.643305C4.69779 0.643284 4.69779 0.643266 4.69778 0.643246C4.69824 0.641035 4.69858 0.639357 4.69889 0.63701C4.69927 0.634064 4.69951 0.631529 4.69964 0.628456C4.69978 0.625484 4.69981 0.622381 4.69975 0.619247C4.69969 0.616113 4.69955 0.61292 4.69936 0.60968C4.69916 0.606437 4.69892 0.60314 4.69862 0.599817C4.69832 0.596498 4.69797 0.593133 4.69761 0.589751C4.69724 0.586367 4.69686 0.582947 4.69646 0.579512C4.69613 0.576676 4.69636 0.573884 4.69712 0.571209C4.69847 0.566577 4.70149 0.562316 4.70597 0.558859C4.71297 0.553472 4.72287 0.550471 4.73393 0.550506C4.745 0.550543 4.75652 0.553617 4.76637 0.559057C4.77256 0.562481 4.77775 0.566668 4.78151 0.571209C4.78373 0.574033 4.78545 0.57699 4.78658 0.579992C4.7874 0.582194 4.78824 0.584409 4.78907 0.586634C4.78955 0.587955 4.79003 0.589288 4.79052 0.590617C4.79183 0.594189 4.79317 0.597802 4.79445 0.601438C4.79572 0.605073 4.79696 0.608742 4.79818 0.612456C4.79939 0.61618 4.80058 0.619956 4.80169 0.623787C4.80279 0.62761 4.80383 0.631518 4.80474 0.635488C4.80565 0.639362 4.8065 0.643781 4.80708 0.647731C4.80751 0.650618 4.80784 0.654173 4.80805 0.657137C4.80827 0.660229 4.80838 0.663272 4.80841 0.666202C4.80844 0.669139 4.80839 0.671978 4.80833 0.674688C4.80833 0.674978 4.80833 0.675267 4.80832 0.675557C4.80827 0.677954 4.80821 0.680274 4.80818 0.682465C4.80814 0.684914 4.80817 0.687234 4.80825 0.68944C4.80832 0.691869 4.80848 0.693348 4.80871 0.695163C4.8134 0.719209 4.82119 0.749101 4.82825 0.77776C4.82914 0.781359 4.83001 0.784948 4.83086 0.788502C4.83549 0.807386 4.84002 0.826289 4.8444 0.845233C4.84758 0.859001 4.8507 0.872816 4.8537 0.88667C4.85811 0.907084 4.86228 0.927636 4.86617 0.9482C4.86858 0.960974 4.87083 0.973527 4.873 0.986299C4.87867 1.01966 4.88352 1.05331 4.88709 1.08696C4.89066 1.12055 4.89297 1.15448 4.8934 1.1882C4.89384 1.22177 4.89223 1.2566 4.88727 1.28961C4.88355 1.31387 4.87546 1.33804 4.86632 1.35999C4.86141 1.37179 4.85625 1.38325 4.85091 1.39447C4.85088 1.39451 4.85085 1.39454 4.85082 1.39458C4.84614 1.40443 4.84138 1.4141 4.83674 1.4237C4.82674 1.4443 4.81726 1.4645 4.80875 1.48483C4.80023 1.50514 4.79267 1.52547 4.78621 1.54623C4.77981 1.56682 4.77436 1.58798 4.77003 1.6092C4.76567 1.63051 4.76239 1.65174 4.75977 1.67428C4.75641 1.70396 4.75436 1.73384 4.75221 1.76469C4.75015 1.79533 4.7483 1.82639 4.74613 1.85764C4.74538 1.86856 4.74451 1.87948 4.74368 1.89045C4.74367 1.89049 4.74367 1.89053 4.74366 1.89057C4.74213 1.91086 4.74047 1.93122 4.73858 1.95159C4.73564 1.98305 4.73221 2.01458 4.72783 2.04605C4.72343 2.0775 4.71812 2.10899 4.71118 2.14014C4.70418 2.17126 4.69551 2.2028 4.68287 2.23291C4.6717 2.25981 4.65893 2.2863 4.64598 2.31195C4.64256 2.31873 4.63912 2.32549 4.63565 2.33223C4.61925 2.36428 4.60368 2.39535 4.59135 2.42752C4.57893 2.45962 4.56945 2.49311 4.56222 2.5283C4.55501 2.56338 4.54984 2.60019 4.54576 2.63827C4.54167 2.67653 4.5388 2.71527 4.53623 2.75547C4.53372 2.79541 4.53158 2.83619 4.52948 2.87806C4.52829 2.90132 4.5257 2.9255 4.52242 2.94795C4.51911 2.97063 4.51497 2.99279 4.51039 3.01449C4.50853 3.0233 4.50657 3.03201 4.50463 3.04069C4.50181 3.05335 4.49892 3.06587 4.49619 3.0783C4.49158 3.09929 4.48739 3.12008 4.48424 3.14101C4.48109 3.16193 4.47908 3.18305 4.47885 3.20475C4.47864 3.22723 4.48011 3.24701 4.48388 3.27229C4.48624 3.32928 4.47907 3.35924 4.47099 3.39246C4.46939 3.399 4.46782 3.40575 4.46617 3.41279C4.45552 3.45218 4.44181 3.48958 4.42596 3.52509C4.4099 3.56091 4.39186 3.5946 4.3714 3.62721C4.35115 3.65952 4.32862 3.69038 4.30428 3.71959C4.27998 3.74877 4.25386 3.77628 4.22582 3.80213C4.19781 3.82799 4.16734 3.85258 4.13649 3.87442C4.11867 3.88707 4.09865 3.89942 4.07951 3.91027C4.06573 3.91808 4.05188 3.92546 4.03825 3.9326C4.03268 3.93552 4.02714 3.9384 4.02166 3.94126C4.00347 3.95074 3.9859 3.96001 3.96965 3.96965C3.96965 3.96965 3.96965 3.96965 3.96965 3.96965C3.96903 3.97001 3.96841 3.97038 3.9678 3.97075C3.95102 3.98078 3.93562 3.99122 3.92192 4.0028C3.90817 4.01439 3.89613 4.02712 3.88545 4.04134C3.87445 4.05614 3.86634 4.06963 3.85749 4.08854C3.85177 4.10091 3.84619 4.11312 3.84057 4.12528C3.83215 4.14348 3.82381 4.16164 3.81534 4.1801C3.80689 4.19854 3.79858 4.21689 3.79027 4.23553C3.78761 4.24152 3.78477 4.24784 3.78211 4.2539C3.77389 4.27262 3.76583 4.29136 3.75793 4.31046C3.75006 4.32952 3.74242 4.34875 3.73508 4.36838C3.72769 4.38809 3.72069 4.40788 3.71374 4.42862C3.70198 4.46391 3.68349 4.48927 3.66585 4.50964C3.64792 4.53012 3.62929 4.54714 3.61102 4.56342C3.60759 4.56647 3.60416 4.56951 3.60072 4.57254C3.58586 4.58555 3.57108 4.59812 3.55673 4.61083C3.53902 4.6265 3.52194 4.64233 3.50512 4.65872C3.48842 4.67494 3.4719 4.69182 3.45604 4.70924C3.44004 4.72684 3.42508 4.74424 3.40937 4.76376C3.39379 4.783 3.37924 4.80464 3.36283 4.82801C3.34659 4.85119 3.32902 4.87501 3.30983 4.89721C3.29068 4.91944 3.26988 4.94018 3.24785 4.95863C3.2258 4.97713 3.20234 4.99366 3.17812 5.00814C3.15378 5.0227 3.1285 5.03531 3.10258 5.04637C3.07671 5.05743 3.04916 5.06727 3.02275 5.07512C2.98 5.08784 2.93679 5.09888 2.89327 5.10882C2.84999 5.11866 2.80627 5.12739 2.76251 5.13507C2.71883 5.14273 2.67495 5.14945 2.63109 5.15518C2.5872 5.16092 2.54326 5.16576 2.49941 5.16976C2.48971 5.17065 2.48001 5.1715 2.47032 5.1723C2.43618 5.17515 2.40207 5.17751 2.36816 5.17946C2.36792 5.17946 2.36768 5.17945 2.36744 5.17945C2.32382 5.18199 2.28108 5.18377 2.23817 5.18537C2.22243 5.18598 2.20733 5.18649 2.19206 5.1871C2.17676 5.1877 2.16181 5.18834 2.14679 5.18907C2.13175 5.1898 2.11687 5.19063 2.10231 5.19162C2.0876 5.19262 2.07334 5.19375 2.05909 5.19524C2.04602 5.19657 2.03319 5.19832 2.01914 5.20005C2.01786 5.20021 2.01658 5.20037 2.0153 5.20052C1.99993 5.20241 1.98222 5.20375 1.96539 5.20355C1.92075 5.20284 1.87758 5.20218 1.83397 5.20146C1.79035 5.20072 1.74706 5.19991 1.70364 5.19844C1.68667 5.19785 1.66966 5.19723 1.65264 5.19639C1.62617 5.19509 1.59963 5.19342 1.57304 5.19119C1.52928 5.18755 1.4854 5.18236 1.44133 5.17518C1.39741 5.16805 1.35325 5.1589 1.30949 5.14791C1.26573 5.13694 1.22183 5.12403 1.17881 5.10975C1.13084 5.09382 1.08376 5.07674 1.03696 5.05884C0.990254 5.04094 0.944185 5.02221 0.898847 5.00295C0.85345 4.98363 0.808651 4.96375 0.764605 4.94338C0.720526 4.92299 0.677003 4.90214 0.634222 4.88091C0.613075 4.87043 0.592075 4.85985 0.571209 4.8492C0.567081 4.84694 0.562951 4.84469 0.558822 4.84244C0.546329 4.83888 0.534352 4.83536 0.522831 4.83181C0.4377 4.80529 0.376146 4.78027 0.294938 4.7395C0.287161 4.73579 0.280833 4.73307 0.273134 4.72966C0.271665 4.72901 0.270107 4.7283 0.268519 4.72759C0.258457 4.72306 0.246903 4.71759 0.230829 4.70888C0.198764 4.69191 0.149615 4.66001 0.0861023 4.61969C0.0700586 4.60942 0.0598495 4.60129 0.0633074 4.60027C0.0657383 4.59949 0.0742595 4.60156 0.0846582 4.60515C0.0654462 4.59674 0.046286 4.58858 0.0271752 4.5807C0.0195471 4.57755 0.0123858 4.57446 0.00729688 4.57243C0.00258079 4.57053 1.59121e-07 4.56967 0 4.56968C0 4.56968 0 4.56968 0 4.56968C1.24586e-08 4.56968 1.58731e-05 4.56968 4.77961e-05 4.56969C0.000487236 4.56984 0.00394927 4.57086 0.00967548 4.5722C0.0153997 4.57356 0.0229102 4.57513 0.0305732 4.57695C0.0509019 4.58179 0.0711618 4.58665 0.0914259 4.59149C0.111707 4.59633 0.131892 4.60112 0.152137 4.60586C0.172376 4.61061 0.192609 4.61529 0.212905 4.6199C0.233121 4.62448 0.253379 4.62901 0.273672 4.63343C0.294095 4.63788 0.314132 4.64212 0.334497 4.64635C0.346698 4.64889 0.359045 4.65142 0.371167 4.65386C0.375685 4.65477 0.380093 4.65563 0.384504 4.65651C0.388109 4.65722 0.391733 4.65795 0.395463 4.65869C0.4347 4.66641 0.474314 4.6738 0.513572 4.6807C0.532792 4.68408 0.552003 4.68736 0.571209 4.69054C0.592054 4.69389 0.612928 4.69697 0.633828 4.69979C0.674573 4.70528 0.715585 4.70971 0.756602 4.71314C0.797607 4.71657 0.838801 4.71897 0.879999 4.72032C0.92115 4.72164 0.962413 4.72196 1.00364 4.7211C1.03554 4.72043 1.06709 4.71903 1.09868 4.7169C1.11074 4.713 1.12264 4.70914 1.13436 4.70528C1.16847 4.69405 1.20178 4.67802 1.234 4.66061C1.1735 4.67231 1.12535 4.68498 1.07898 4.69523C1.07278 4.6966 1.06661 4.69795 1.06044 4.69922C0.997553 4.71224 0.935615 4.71946 0.851712 4.7105C0.735155 4.69806 0.643989 4.68341 0.571209 4.67009C0.497 4.65609 0.441936 4.6453 0.39988 4.63657C0.317653 4.61956 0.282322 4.60954 0.249348 4.59812C0.202756 4.58154 0.112829 4.57464 0.0676398 4.57278C0.0512244 4.5718 0.0379744 4.56977 0.0380488 4.56821C0.0381281 4.56666 0.0515046 4.5636 0.067923 4.56144C0.115639 4.55558 0.212948 4.54656 0.268405 4.55892C0.293106 4.56424 0.32151 4.56826 0.402485 4.57288C0.443725 4.57526 0.497875 4.57782 0.571209 4.58117C0.642168 4.58437 0.730981 4.58674 0.843776 4.5849C0.921532 4.58366 0.978399 4.57006 1.03754 4.55027C1.04334 4.54833 1.04916 4.54629 1.05503 4.54424C1.05507 4.54424 1.05511 4.54423 1.05514 4.54423C1.10933 4.52533 1.16734 4.50196 1.24617 4.47963C1.42953 4.43105 1.65876 4.319 1.70607 4.27594C1.71562 4.26783 1.72458 4.25925 1.73395 4.25013C1.76977 4.21494 1.81262 4.17229 1.91533 4.10586C1.93777 4.09128 1.96461 4.07604 1.99418 4.06036C2.02622 4.00648 2.05532 3.95381 2.08312 3.91562C2.10717 3.88268 2.12188 3.83748 2.13289 3.78947C2.13607 3.77565 2.13898 3.76133 2.14178 3.74702C2.14854 3.71252 2.15456 3.67776 2.16225 3.64835C2.16839 3.62491 2.17334 3.59806 2.17806 3.56955C2.19582 3.46574 2.20742 3.33966 2.27896 3.27744C2.35536 3.21142 2.42923 3.16939 2.4951 3.13379C2.44246 3.15412 2.39739 3.16241 2.35957 3.16807C2.35243 3.16914 2.34558 3.1701 2.339 3.17103C2.29254 3.17751 2.25958 3.18202 2.23525 3.20429C2.11847 3.31058 2.08395 3.37018 2.06001 3.47348C2.05359 3.50065 2.0479 3.53415 2.0409 3.56998C2.02706 3.64161 2.00736 3.72235 1.97117 3.78167C1.93763 3.83697 1.90164 3.90718 1.85881 3.97835C1.85879 3.97836 1.85877 3.97837 1.85874 3.97838C1.85039 3.99229 1.84177 4.00624 1.8329 4.02014C1.77897 4.10499 1.71458 4.18665 1.64271 4.24499C1.63504 4.25125 1.62596 4.25924 1.61544 4.26831C1.55573 4.32174 1.44102 4.40431 1.28086 4.41376C1.2459 4.41619 1.20863 4.41247 1.16657 4.4089C1.15375 4.4078 1.14047 4.40667 1.1267 4.40575C1.06716 4.40168 0.996255 4.4012 0.903113 4.41302C0.826169 4.42272 0.732568 4.43971 0.63397 4.45495C0.613235 4.45817 0.592275 4.46134 0.571209 4.46441C0.542249 4.46853 0.51322 4.47278 0.484434 4.47709C0.332606 4.49975 0.19345 4.52388 0.0545575 4.55649C0.0545292 4.55649 0.0545009 4.5565 0.0544725 4.55651C0.0380641 4.56014 0.0252112 4.56235 0.0257877 4.56117C0.0263702 4.56 0.0401388 4.55332 0.0565397 4.54655C0.195514 4.49092 0.334245 4.44515 0.485566 4.4004C0.513867 4.39201 0.542527 4.38367 0.571209 4.3755C0.591679 4.36938 0.612044 4.36319 0.632174 4.35699C0.72854 4.32744 0.819619 4.29727 0.893628 4.27746C0.983892 4.25321 1.05202 4.24533 1.10891 4.24283C1.12259 4.2422 1.13554 4.24185 1.14783 4.24158C1.18696 4.24071 1.21981 4.24077 1.25079 4.2351C1.39567 4.21023 1.49646 4.12106 1.5508 4.06212C1.56059 4.05185 1.56911 4.04276 1.57645 4.03544C1.64016 3.97208 1.69652 3.88637 1.74339 3.7972C1.75102 3.78275 1.75844 3.76825 1.76564 3.75373C1.76564 3.75368 1.76565 3.75363 1.76566 3.75358C1.80267 3.679 1.83367 3.60481 1.8626 3.54631C1.89211 3.48697 1.90538 3.41243 1.91475 3.34201C1.91983 3.30423 1.92393 3.26775 1.92929 3.23548C1.94733 3.12448 1.97717 3.06098 2.0775 2.95514ZM0.114362 4.61832C0.153852 4.63736 0.186027 4.65284 0.209988 4.66277C0.189639 4.65303 0.169338 4.64347 0.149022 4.6341C0.137459 4.62877 0.125909 4.62351 0.114362 4.61832ZM2.09505 4.29479C2.09065 4.30104 2.08619 4.30732 2.08169 4.3136C2.09773 4.30518 2.11374 4.29676 2.12965 4.28821C2.14918 4.27772 2.16864 4.26715 2.18798 4.25642C2.15547 4.26949 2.12406 4.28226 2.09505 4.29479ZM2.43658 3.52676C2.35965 3.58599 2.34226 3.701 2.31882 3.80315C2.3122 3.83255 2.30522 3.86086 2.29674 3.88646C2.29322 3.89707 2.28999 3.90834 2.28685 3.92005C2.32989 3.90017 2.36949 3.8818 2.40186 3.86653C2.49826 3.82079 2.56177 3.80813 2.61861 3.7968C2.63501 3.7935 2.65081 3.79023 2.66654 3.78618C2.67162 3.77064 2.677 3.75486 2.68302 3.73997C2.69138 3.71904 2.70095 3.69759 2.7105 3.6781C2.72008 3.65852 2.73029 3.63957 2.74083 3.62196C2.75146 3.60419 2.76251 3.58752 2.77386 3.57154C2.78454 3.55647 2.79548 3.54209 2.80597 3.52809C2.80657 3.5273 2.80718 3.5265 2.80778 3.5257C2.81883 3.51088 2.8295 3.49645 2.83792 3.48152C2.84642 3.46628 2.85201 3.45183 2.85392 3.43533C2.85634 3.41474 2.85918 3.39438 2.86233 3.37489C2.86547 3.35538 2.86891 3.33663 2.87267 3.3185C2.87643 3.30034 2.8804 3.28284 2.88461 3.26577C2.88598 3.26024 2.88742 3.25451 2.88881 3.24913C2.88945 3.24665 2.89006 3.24414 2.8907 3.24168C2.86936 3.2596 2.84662 3.27765 2.82253 3.29538C2.78766 3.32104 2.74636 3.34315 2.70079 3.36685C2.62289 3.40724 2.53374 3.45213 2.43658 3.52676ZM3.17096 2.92644C3.16336 2.93575 3.15311 2.95022 3.1397 2.96883C3.13653 2.97323 3.13325 2.97794 3.12971 2.98279C3.12987 2.98274 3.12997 2.98263 3.13012 2.98258C3.14614 2.9774 3.16064 2.97223 3.17551 2.96583C3.20197 2.95439 3.22677 2.942 3.25061 2.92825C3.27454 2.91444 3.29724 2.89936 3.31878 2.8831C3.34036 2.86682 3.36069 2.84926 3.37957 2.83068C3.39859 2.8119 3.41609 2.79237 3.43207 2.77124C3.43715 2.76452 3.44207 2.75764 3.44682 2.75064C3.42876 2.76061 3.41126 2.7718 3.39276 2.7834C3.37799 2.79266 3.36253 2.8022 3.34561 2.81156C3.33914 2.81515 3.33065 2.81894 3.32074 2.8233C3.28142 2.84065 3.22017 2.86619 3.17096 2.92644ZM3.50825 2.53805C3.51026 2.53216 3.5124 2.52641 3.51475 2.52088C3.52144 2.50516 3.5293 2.49077 3.53737 2.4769C3.54305 2.46716 3.54892 2.45773 3.55462 2.44835C3.55703 2.4444 3.55939 2.44042 3.56175 2.43649C3.56569 2.42991 3.56948 2.4233 3.5732 2.41672C3.53438 2.45509 3.49751 2.4925 3.46273 2.53359C3.46227 2.53413 3.46188 2.53472 3.46142 2.53527C3.47737 2.53631 3.49298 2.53724 3.50825 2.53805Z" fill="var(--stroke-0, #FF6B6B)"/>
</svg>
