<svg preserveAspectRatio="none" width="100%" height="100%" overflow="visible" style="display: block;" viewBox="0 0 14 14" fill="none" xmlns="http://www.w3.org/2000/svg">
<path id="Vector" d="M13.3225 8.65723C13.2725 8.85453 13.1985 9.03195 13.0927 9.24801C13.0926 9.24813 13.0926 9.24825 13.0925 9.24837C13.0774 9.27922 13.0614 9.31087 13.0448 9.34343C12.9093 9.60472 12.7291 9.9412 12.41 10.4136C12.0591 10.9288 11.6586 11.2393 11.3915 11.3915C11.3877 11.3937 11.3839 11.3958 11.3801 11.3979C11.3298 11.426 11.2838 11.4607 11.173 11.5531C11.1174 11.5991 11.0471 11.6578 10.9517 11.7326C10.9222 11.7557 10.8903 11.7803 10.8556 11.8065C10.7774 11.8653 10.6852 11.9321 10.5746 12.006C10.2114 12.2539 9.61583 12.607 9.01861 12.8222C8.65814 12.9561 8.30352 13.0457 8.03132 13.093C8.0152 13.0958 7.99909 13.0986 7.98297 13.1012C7.60125 13.1639 7.22462 13.1818 6.82164 13.1624C6.4371 13.143 6.02746 13.0901 5.56792 12.9814C5.21503 12.8972 4.89266 12.7388 4.58948 12.5544C4.55082 12.5309 4.51241 12.5069 4.47424 12.4825C4.43405 12.4568 4.39416 12.4307 4.35434 12.4042C4.13346 12.2569 3.91731 12.0985 3.69133 11.9314C3.2186 11.5783 2.85175 11.2964 2.48503 10.9341C2.3426 10.792 2.20211 10.6368 2.06386 10.4575C1.97048 10.3363 1.86638 10.1874 1.76345 10.0187C1.62519 9.79264 1.49002 9.53074 1.37717 9.25983C1.36036 9.21957 1.34394 9.17906 1.32809 9.13853C1.32801 9.13833 1.32793 9.13812 1.32785 9.13792C1.15577 8.70167 1.05002 8.25493 0.997701 7.92571C0.917955 7.40159 0.925221 7.20208 0.919413 7.03717C0.918649 6.97511 0.918936 6.91761 0.921162 6.84917C0.922556 6.80688 0.924766 6.76105 0.927961 6.71209C0.943445 6.47866 0.96713 6.17426 0.991007 5.86642C0.991117 5.86501 0.991227 5.86359 0.991337 5.86217C0.996347 5.80051 1.00023 5.75075 1 5.75104C0.999769 5.75133 0.99811 5.80157 0.996272 5.86323C0.989742 6.06003 0.983246 6.25206 0.977849 6.424C0.984422 6.43292 0.989223 6.47922 0.988501 6.53471C0.987922 6.57271 0.987466 6.63215 0.987488 6.71209C0.988315 6.92421 0.999641 7.28528 1.10749 7.75711C1.10249 7.71174 1.09908 7.67365 1.09644 7.64028C1.09336 7.60111 1.0915 7.57107 1.08993 7.54526C1.08672 7.49149 1.08456 7.45577 1.07798 7.39282C1.05974 7.24739 1.03423 7.018 1.02639 6.775C1.02559 6.75163 1.02642 6.72995 1.02824 6.71209C1.03124 6.68297 1.03651 6.66397 1.04326 6.66414C1.04995 6.66432 1.05688 6.68326 1.06244 6.71209C1.06594 6.73012 1.06893 6.75201 1.07075 6.77556C1.07084 6.77675 1.07093 6.77794 1.07103 6.77913C1.08893 7.01784 1.12457 7.25112 1.14984 7.40032C1.15616 7.4383 1.1617 7.47101 1.1658 7.49554C1.16907 7.51516 1.17321 7.53963 1.17486 7.55334C1.17507 7.55516 1.17547 7.55863 1.17583 7.56279C1.17584 7.56286 1.17584 7.56293 1.17584 7.563C1.17604 7.56532 1.17712 7.57719 1.17667 7.59011C1.17658 7.59272 1.17635 7.5984 1.17542 7.60511C1.1756 7.60677 1.17577 7.60844 1.17595 7.6101C1.17842 7.63329 1.181 7.65697 1.18415 7.68255C1.19749 7.78216 1.21626 7.94121 1.29941 8.26341C1.37723 8.55808 1.54553 9.05528 1.88749 9.60338C1.86719 9.56481 1.8471 9.52597 1.82735 9.48713C1.7776 9.38932 1.7295 9.29033 1.68365 9.19038C1.66607 9.15208 1.6491 9.1142 1.63209 9.07544C1.60473 9.01306 1.5782 8.95013 1.55261 8.88689C1.53531 8.84415 1.5184 8.80116 1.50197 8.75806C1.50193 8.75796 1.50188 8.75787 1.50184 8.75777C1.47904 8.69794 1.45706 8.63764 1.43585 8.57654C1.42848 8.55514 1.42128 8.53397 1.41423 8.51292C1.38615 8.42913 1.36005 8.34628 1.33449 8.24967C1.33164 8.23785 1.3288 8.22494 1.32679 8.21528C1.32462 8.2049 1.32261 8.19489 1.3208 8.1854C1.3192 8.17704 1.31775 8.16904 1.31634 8.16139C1.31615 8.16036 1.31596 8.15934 1.31577 8.15831C1.31419 8.14974 1.31266 8.14156 1.31118 8.1337C1.30971 8.12586 1.30829 8.1183 1.3068 8.11089C1.30678 8.11082 1.30676 8.11075 1.30674 8.11069C1.30517 8.10294 1.30398 8.09707 1.30218 8.0889C1.29992 8.07864 1.29791 8.06984 1.29536 8.05921C1.2929 8.04893 1.29026 8.03822 1.28754 8.02742C1.28483 8.01663 1.28202 8.00564 1.27916 7.99449C1.27629 7.98333 1.27337 7.97199 1.27042 7.96056C1.26747 7.94913 1.26447 7.93756 1.26149 7.92591C1.25851 7.91426 1.25552 7.90247 1.25254 7.89062C1.24569 7.86333 1.24361 7.83619 1.24655 7.81545C1.2495 7.7947 1.25713 7.78203 1.26801 7.78003C1.27891 7.77804 1.29234 7.78682 1.3059 7.8042C1.31944 7.8216 1.33202 7.8462 1.34085 7.8726C1.34325 7.87979 1.34569 7.88701 1.34814 7.89425C1.34959 7.89855 1.35105 7.90289 1.35251 7.90721C1.35646 7.91882 1.36051 7.93053 1.36456 7.94231C1.36861 7.95408 1.37268 7.96595 1.37681 7.97794C1.38095 7.98996 1.38515 8.00214 1.38936 8.01449C1.39356 8.02681 1.39781 8.03941 1.40205 8.05222C1.4062 8.06472 1.41081 8.07899 1.41481 8.09178C1.41775 8.10112 1.4212 8.11268 1.42406 8.12233C1.42703 8.13239 1.42989 8.14232 1.4326 8.15189C1.43532 8.16149 1.4379 8.17079 1.44038 8.17966C1.44065 8.18061 1.44092 8.18155 1.44119 8.1825C1.44338 8.19034 1.4455 8.19791 1.44756 8.20505C1.44985 8.21303 1.4521 8.22056 1.45431 8.2277C1.45672 8.23557 1.45831 8.24031 1.4603 8.24612C1.48812 8.32244 1.52675 8.4152 1.56606 8.50224C1.57099 8.51318 1.57591 8.52405 1.58082 8.53478C1.60699 8.59176 1.63408 8.64807 1.66205 8.70377C1.68238 8.74427 1.70321 8.7845 1.72451 8.8245C1.75584 8.88335 1.78821 8.94175 1.82145 8.99943C1.8421 9.03526 1.86268 9.07017 1.88393 9.10543C1.93943 9.19746 1.99732 9.28809 2.05708 9.37729C2.11676 9.46638 2.1786 9.55443 2.24176 9.64134C2.25112 9.65423 2.26057 9.66717 2.27008 9.68015C2.32445 9.75434 2.38086 9.82937 2.43572 9.90213C2.48301 9.96504 2.52971 10.0309 2.57313 10.092C2.59646 10.1248 2.61943 10.1569 2.64229 10.1884C2.64236 10.1886 2.64243 10.1887 2.6425 10.1888C2.66256 10.2165 2.68255 10.2437 2.70277 10.2705C2.74608 10.328 2.79021 10.3834 2.83628 10.4371C2.88224 10.4908 2.92991 10.5426 2.97988 10.593C3.02948 10.6429 3.08181 10.6918 3.13536 10.7381C3.18919 10.7848 3.2437 10.8286 3.30247 10.8727C3.37984 10.9305 3.4591 10.9845 3.54197 11.0373C3.62427 11.0897 3.70887 11.1396 3.79486 11.1872C3.82491 11.2038 3.85513 11.2202 3.88557 11.2362C3.88569 11.2363 3.8858 11.2364 3.88592 11.2364C3.94221 11.2661 3.99912 11.2948 4.05647 11.3225C4.14498 11.3653 4.23467 11.4058 4.32535 11.4443C4.41598 11.4829 4.50782 11.5196 4.6005 11.555C4.63063 11.5666 4.66109 11.5781 4.69178 11.5896C4.75538 11.6134 4.81982 11.637 4.88432 11.6612C4.96967 11.693 5.0561 11.7241 5.14132 11.7526C5.16382 11.7601 5.18639 11.7675 5.20899 11.7747C5.31626 11.8089 5.42152 11.838 5.52711 11.86C5.6326 11.8821 5.73943 11.8973 5.84775 11.9062C5.95573 11.9151 6.06554 11.9178 6.17588 11.9152C6.2867 11.9125 6.39576 11.9045 6.50611 11.8917C6.61563 11.879 6.72475 11.8617 6.83385 11.8398C6.89451 11.8277 6.95864 11.8149 7.01887 11.8025C7.07971 11.7899 7.13982 11.7772 7.19882 11.7639C7.22277 11.7585 7.24657 11.7531 7.27011 11.7475C7.30445 11.7393 7.33838 11.7309 7.3716 11.7221C7.42769 11.7072 7.48195 11.6912 7.53405 11.6736C7.58613 11.656 7.63599 11.6367 7.6833 11.6152C7.68455 11.6146 7.6858 11.614 7.68704 11.6135C7.73426 11.5917 7.77286 11.571 7.81769 11.5433C7.93125 11.4818 8.00154 11.4505 8.07952 11.4146C8.09484 11.4075 8.11041 11.4001 8.12658 11.3923C8.21946 11.3489 8.31141 11.3059 8.40138 11.2629C8.49223 11.2195 8.58089 11.1763 8.67011 11.1318C8.75845 11.0878 8.84687 11.0429 8.93445 10.9972C9.02188 10.9516 9.10871 10.9052 9.19547 10.8577C9.28217 10.8103 9.37035 10.7609 9.45484 10.7124C9.50366 10.6844 9.55585 10.6548 9.60434 10.6269C9.6393 10.6067 9.67379 10.5867 9.70742 10.5667C9.72115 10.5585 9.73478 10.5503 9.74823 10.5421C9.7929 10.5148 9.83589 10.4873 9.87638 10.4592C9.87792 10.4581 9.87946 10.4571 9.88099 10.456C9.92287 10.4268 9.96218 10.3969 9.9989 10.3656C10.0357 10.3343 10.0698 10.3016 10.102 10.2669C10.1298 10.2368 10.1525 10.2099 10.1773 10.1773C10.1822 10.1708 10.1873 10.164 10.1924 10.157C10.2125 10.1293 10.2318 10.1021 10.2507 10.0747C10.279 10.0337 10.3064 9.99252 10.333 9.95064C10.3596 9.90878 10.385 9.86702 10.4096 9.82457C10.4175 9.81092 10.4258 9.7965 10.4335 9.7827C10.4574 9.74009 10.48 9.69752 10.5015 9.65448C10.5229 9.61151 10.5431 9.56845 10.562 9.52503C10.5809 9.48144 10.5984 9.43808 10.6149 9.3934C10.6429 9.31744 10.6765 9.25038 10.7066 9.19214C10.7372 9.13333 10.7668 9.07917 10.7947 9.02602C10.8 9.01607 10.8052 9.0061 10.8104 8.99611C10.8327 8.95315 10.8542 8.91064 10.8742 8.86826C10.8989 8.81603 10.9216 8.76401 10.9427 8.71118C10.9636 8.65882 10.9831 8.60529 11.0003 8.55194C11.0176 8.49807 11.0326 8.44603 11.0466 8.38945C11.0605 8.3335 11.0712 8.27565 11.0818 8.21238C11.0922 8.14966 11.1023 8.08404 11.113 8.01812C11.1236 7.9523 11.1349 7.88591 11.1468 7.82043C11.1588 7.75477 11.1714 7.6893 11.1844 7.62481C11.1859 7.6174 11.1874 7.60999 11.1889 7.60258C11.2005 7.54522 11.2123 7.48826 11.2242 7.43145C11.2376 7.36744 11.2514 7.30121 11.2644 7.23894C11.2854 7.13815 11.3041 7.03692 11.3201 6.93462C11.3359 6.83289 11.3491 6.72996 11.3592 6.6265C11.3693 6.52323 11.3763 6.41909 11.3802 6.31454C11.3841 6.20994 11.3848 6.10477 11.3821 5.99938C11.3815 5.97607 11.3808 5.95275 11.3799 5.9294C11.3766 5.84721 11.3713 5.76481 11.3639 5.68269C11.3639 5.68212 11.3638 5.68155 11.3638 5.68099C11.3542 5.57529 11.3413 5.47136 11.3244 5.36663C11.3181 5.32821 11.3117 5.29127 11.3045 5.25386C11.2973 5.21639 11.2897 5.1797 11.2814 5.14276C11.2731 5.10576 11.2643 5.06915 11.2549 5.03319C11.2454 4.99688 11.2354 4.96161 11.2246 4.92628C11.2172 4.90198 11.2094 4.87795 11.2009 4.85275C11.1981 4.84436 11.1952 4.83584 11.1923 4.82714C11.1912 4.82397 11.1901 4.82079 11.189 4.81762C11.1759 4.77957 11.1612 4.73613 11.1481 4.69533C11.1138 4.58714 11.0759 4.48272 11.0331 4.37778C10.9902 4.27279 10.9432 4.1694 10.892 4.06657C10.8721 4.02641 10.8514 3.98631 10.8302 3.94637C10.7973 3.88423 10.7629 3.82236 10.7273 3.76074C10.6687 3.65935 10.607 3.55888 10.5419 3.45879C10.4772 3.35909 10.4091 3.25975 10.3384 3.16202C10.2677 3.06437 10.1933 2.96709 10.1167 2.87261C10.0313 2.76733 9.94204 2.66502 9.84778 2.56535C9.77726 2.49077 9.70415 2.41787 9.62871 2.34708C9.60348 2.32341 9.57803 2.29999 9.55233 2.27683C9.4493 2.18401 9.34215 2.09502 9.23082 2.01008C9.11941 1.92509 9.00392 1.84424 8.88448 1.76789C8.813 1.72221 8.74015 1.67814 8.66597 1.63581C8.62555 1.61644 8.58657 1.59824 8.5489 1.58098C8.26987 1.45453 8.06198 1.37208 7.78014 1.27371C7.75304 1.26461 7.73086 1.25765 7.70383 1.24927C7.69867 1.24767 7.69319 1.24597 7.68761 1.24425C7.65222 1.23336 7.61155 1.2208 7.55465 1.20326C7.44107 1.16887 7.26631 1.11285 7.03247 1.05908C6.97344 1.04548 6.93556 1.03605 6.94853 1.03551C6.95763 1.03511 6.98938 1.03851 7.02791 1.04427C6.95681 1.03188 6.88547 1.02109 6.81396 1.01194C6.78544 1.00827 6.7586 1.00494 6.7395 1.00282C6.7218 1.00084 6.71209 0.999998 6.71209 1C6.71209 1 6.71209 1 6.71209 1C6.71209 1 6.71215 1.00001 6.71227 1.00002C6.71393 1.00017 6.72694 1.00117 6.74843 1.00264C6.76992 1.00413 6.79807 1.00603 6.82677 1.00843C6.90293 1.0148 6.97857 1.0227 7.05396 1.03209C7.12941 1.04148 7.20421 1.05229 7.27892 1.06456C7.35358 1.07682 7.42791 1.09049 7.50209 1.1056C7.57596 1.12064 7.64963 1.13711 7.72298 1.15494C7.7968 1.1729 7.86882 1.19184 7.94153 1.21242C7.9851 1.22475 8.02901 1.23774 8.07195 1.25094C8.08795 1.25586 8.10355 1.26071 8.11912 1.26564C8.13185 1.26967 8.14463 1.27377 8.15777 1.27803C8.29598 1.32277 8.43356 1.37291 8.56768 1.42732C8.70244 1.48199 8.83482 1.54137 8.96465 1.60531C9.09456 1.66928 9.22184 1.73775 9.34635 1.81064C9.47079 1.88349 9.59236 1.96067 9.71109 2.04214C9.7388 2.06116 9.76638 2.08043 9.79383 2.09995C9.88345 2.16367 9.97138 2.22991 10.0572 2.29826C10.144 2.36732 10.2281 2.43806 10.3104 2.511C10.3448 2.53738 10.3786 2.56395 10.4116 2.59056C10.5076 2.66801 10.6044 2.74574 10.6983 2.82486C10.5449 2.67059 10.4108 2.55797 10.2809 2.45463C10.2635 2.44081 10.2461 2.42717 10.2287 2.41363C10.0934 2.30865 9.95938 2.20994 9.79762 2.09429C9.74675 2.05804 9.6931 2.02026 9.63545 1.98055C8.94314 1.51267 8.46559 1.36117 8.17929 1.26089C7.88835 1.16672 7.75903 1.13717 7.63974 1.10465C7.4711 1.05746 7.13547 1.01573 6.96592 1.00875C6.90437 1.00501 6.85473 1.00189 6.85503 1.00033C6.85538 0.998801 6.90566 0.996849 6.96749 0.99747C7.14693 0.996884 7.51377 1.02644 7.71681 1.07813C7.80703 1.10089 7.91256 1.11979 8.20529 1.20194C8.49354 1.29101 8.97821 1.42176 9.7034 1.87461C9.76314 1.9127 9.8187 1.94895 9.87144 1.98379C10.0332 2.09104 10.1689 2.18364 10.3089 2.28471C10.3271 2.29787 10.3454 2.31119 10.3638 2.32474C10.3639 2.32483 10.364 2.32492 10.3641 2.32502C10.5328 2.45043 10.7145 2.593 10.9321 2.81483C11.4486 3.31525 11.9507 4.15737 12.0555 4.36565C12.0762 4.40164 12.0965 4.43651 12.1174 4.47316C12.1195 4.47696 12.1217 4.48078 12.1239 4.48462C12.2101 4.64226 12.325 4.83161 12.4713 5.30324C12.5024 5.40657 12.5338 5.52922 12.5614 5.66454C12.6353 5.86172 12.6963 6.05959 12.7335 6.23506C12.7656 6.3864 12.8059 6.52696 12.8453 6.66593C12.8567 6.70593 12.8682 6.7464 12.8793 6.78705C12.906 6.88503 12.9307 6.98452 12.9476 7.08213C12.961 7.15996 12.9762 7.24219 12.9906 7.32996C13.0209 7.51591 13.048 7.72769 13.0415 7.97108C13.0366 8.14565 13.0142 8.3364 12.9606 8.54052C12.8243 9.05854 12.6263 9.47768 12.4287 9.8187C12.5803 9.57122 12.6894 9.37368 12.7766 9.20649C12.7931 9.17493 12.8086 9.14454 12.8233 9.11516C12.9267 8.90744 12.9932 8.75059 13.0391 8.57552C13.0978 8.3492 13.133 8.15805 13.1558 7.99382C13.2141 7.55011 13.1959 7.30306 13.1525 7.03957C13.1361 6.94445 13.1119 6.84023 13.0831 6.72961C13.0255 6.50831 12.9496 6.26266 12.8798 6.00462C12.8148 5.76396 12.7179 5.50253 12.5986 5.23823C12.5986 5.23812 12.5986 5.23801 12.5985 5.2379C12.5752 5.18626 12.5511 5.13439 12.5262 5.08257C12.4228 4.86741 12.3065 4.65274 12.1853 4.44503C12.1283 4.34748 12.0704 4.25143 12.0122 4.15729C11.9927 4.12574 11.9686 4.08847 11.9404 4.04608C11.7762 3.80141 11.4839 3.38578 11.0934 2.90696C11.0073 2.80187 10.9187 2.69127 10.8108 2.57031C10.7779 2.53349 10.7433 2.4957 10.7062 2.45698C10.5462 2.29044 10.3387 2.09715 10.0279 1.88719C10.0072 1.87321 9.98591 1.85914 9.96416 1.84503C9.71776 1.68472 9.40985 1.52092 9.07734 1.38747C8.89925 1.31572 8.71441 1.25226 8.52986 1.19938C7.97221 1.04018 7.441 0.977362 6.91743 0.990494C6.91732 0.990497 6.91722 0.9905 6.91711 0.990503C6.85529 0.991905 6.80689 0.993481 6.80909 0.992316C6.81128 0.991195 6.86323 0.985277 6.92525 0.98084C7.45097 0.945471 7.98821 0.987543 8.55804 1.12791C8.74439 1.17402 8.93313 1.2312 9.1163 1.29757C9.45806 1.42083 9.77954 1.57799 10.038 1.73451C10.0635 1.7499 10.0884 1.76525 10.1126 1.78052C10.4428 1.98931 10.6651 2.18544 10.8361 2.35434C10.8773 2.39518 10.9152 2.43438 10.9506 2.47209C11.0632 2.59225 11.1512 2.6969 11.2382 2.79735C11.6404 3.26479 11.9436 3.67259 12.1205 3.92377C12.1516 3.96833 12.1784 4.00795 12.2006 4.04214C12.267 4.14456 12.3334 4.24955 12.3985 4.35671C12.5217 4.55931 12.6404 4.76979 12.7476 4.98324C12.7742 5.03618 12.8 5.08932 12.8251 5.14253C12.8252 5.14263 12.8252 5.14274 12.8253 5.14284C12.9543 5.41606 13.0613 5.69196 13.1339 5.94674C13.2075 6.20514 13.2818 6.43538 13.3431 6.657C13.3758 6.77584 13.4045 6.89212 13.4257 7.00799C13.477 7.30051 13.4984 7.5742 13.4393 8.05022C13.4167 8.22315 13.3814 8.42276 13.3225 8.65723ZM7.13755 1.06465C7.28276 1.0947 7.39912 1.12458 7.48544 1.14656C7.4123 1.12657 7.33875 1.10821 7.26459 1.09151C7.22235 1.082 7.18006 1.07305 7.13755 1.06465ZM12.3134 5.72735C12.3052 5.7045 12.2968 5.68155 12.2883 5.6586C12.3024 5.72374 12.3153 5.78919 12.3271 5.85475C12.3415 5.93526 12.3542 6.01612 12.3651 6.09723C12.3521 5.96779 12.3344 5.84286 12.3134 5.72735ZM12.6772 8.45879C12.7307 8.26173 12.7519 8.08031 12.7557 7.91424C12.7602 7.71045 12.7388 7.52963 12.7134 7.3623C12.7 7.27475 12.6854 7.19066 12.6721 7.10835C12.6665 7.0742 12.66 7.04015 12.6527 7.00596C12.6411 7.20248 12.6194 7.38223 12.5966 7.52842C12.5765 7.65816 12.5532 7.77028 12.529 7.86915C12.4713 8.10271 12.4113 8.26228 12.3535 8.40548C12.3295 8.46442 12.3056 8.52059 12.281 8.57765C12.2744 8.6295 12.2665 8.68323 12.2564 8.73712C12.2425 8.81257 12.2244 8.89359 12.2045 8.97007C12.1845 9.04683 12.1614 9.12419 12.136 9.19928C12.1105 9.27499 12.0825 9.34915 12.0524 9.4221C12.0241 9.49075 11.9938 9.55836 11.9633 9.6233C11.9616 9.62702 11.9598 9.63073 11.958 9.63445C11.9257 9.70305 11.8928 9.76919 11.8634 9.83062C11.8334 9.89318 11.8094 9.94597 11.7914 9.99529C11.769 10.0569 11.7441 10.1194 11.7177 10.1805C11.6913 10.2416 11.6632 10.3018 11.6336 10.3611C11.6039 10.4205 11.5729 10.4786 11.5404 10.5361C11.5299 10.5547 11.5187 10.574 11.508 10.5923C11.5031 10.6007 11.4981 10.6092 11.4931 10.6176C11.5745 10.5188 11.6562 10.4139 11.7374 10.3031C11.8547 10.143 11.9776 9.96984 12.1011 9.77023C12.3104 9.43017 12.5262 9.01082 12.6772 8.45879ZM10.0679 11.9285C10.1145 11.8978 10.1818 11.8511 10.2666 11.7883C10.2866 11.7734 10.3076 11.7575 10.3295 11.7408C10.329 11.7411 10.3284 11.7415 10.3278 11.7418C10.2676 11.7751 10.2119 11.8052 10.1519 11.8375C10.045 11.8951 9.94047 11.9488 9.83435 12.0013C9.72782 12.0539 9.62102 12.1044 9.51347 12.153C9.40577 12.2017 9.29717 12.2486 9.1889 12.2933C9.0796 12.3385 8.9712 12.3811 8.86124 12.4227C8.82623 12.4359 8.79102 12.4491 8.75578 12.4621C8.83761 12.4419 8.92174 12.4177 9.01009 12.3899C9.08065 12.3677 9.15394 12.3433 9.23092 12.3167C9.26038 12.3065 9.29632 12.2947 9.33814 12.2804C9.50321 12.2237 9.76492 12.1278 10.0679 11.9285ZM7.865 12.7793C7.83816 12.7861 7.81144 12.7924 7.78485 12.7982C7.70924 12.8147 7.6349 12.8276 7.56178 12.8384C7.51038 12.8461 7.45949 12.8526 7.40922 12.8584C7.38801 12.8609 7.36683 12.8633 7.34582 12.8656C7.31062 12.8693 7.27568 12.8729 7.24097 12.8761C7.4701 12.8686 7.69466 12.8472 7.92456 12.8076C7.94027 12.8048 7.956 12.802 7.97176 12.7992C7.97501 12.7986 7.97826 12.7979 7.98153 12.7973C7.96097 12.7943 7.9407 12.7913 7.92071 12.7882C7.90188 12.7853 7.88331 12.7823 7.865 12.7793Z" fill="var(--stroke-0, #FF6B6B)"/>
</svg>
