<svg preserveAspectRatio="none" width="100%" height="100%" overflow="visible" style="display: block;" viewBox="0 0 34 34" fill="none" xmlns="http://www.w3.org/2000/svg">
<path id="Vector" opacity="0.2" d="M17.5998 0L5.66395 4.47596C5.40128 4.57451 5.16914 4.7404 4.99082 4.95699C4.81249 5.17358 4.69425 5.43324 4.64796 5.70995L0 33.5997L27.8897 28.9517C28.1665 28.9054 28.4261 28.7872 28.6427 28.6089C28.8593 28.4306 29.0252 28.1984 29.1237 27.9357L33.5997 15.9999L17.5998 0ZM16.7998 20.7998C16.0087 20.7998 15.2354 20.5652 14.5776 20.1257C13.9198 19.6862 13.4071 19.0615 13.1044 18.3306C12.8016 17.5997 12.7224 16.7954 12.8767 16.0195C13.0311 15.2436 13.412 14.5309 13.9714 13.9714C14.5309 13.412 15.2436 13.0311 16.0195 12.8767C16.7954 12.7224 17.5997 12.8016 18.3306 13.1044C19.0615 13.4071 19.6862 13.9198 20.1257 14.5776C20.5652 15.2354 20.7998 16.0087 20.7998 16.7998C20.7998 17.8607 20.3784 18.8781 19.6283 19.6283C18.8781 20.3784 17.8607 20.7998 16.7998 20.7998Z" fill="var(--fill-0, #A98BFF)"/>
</svg>
