<svg preserveAspectRatio="none" width="100%" height="100%" overflow="visible" style="display: block;" viewBox="0 0 30 33" fill="none" xmlns="http://www.w3.org/2000/svg">
<path id="Vector" d="M27.1361 14.6535C27.1352 13.9628 27.1565 13.3152 27.1834 12.4973C27.1834 12.4969 27.1834 12.4965 27.1834 12.496C27.1872 12.3792 27.1913 12.2588 27.1953 12.1344C27.2277 11.1324 27.2658 9.83045 27.2876 7.86732C27.3117 5.69818 27.3991 3.97602 27.4829 2.92442C27.4986 2.72829 27.5072 2.52528 27.515 2.01323C27.5189 1.75675 27.5225 1.43134 27.527 1L28.3861 1.85906C28.2526 1.85767 28.1091 1.8562 27.9543 1.85461C27.6058 1.85103 27.2002 1.84691 26.7254 1.84179C25.1537 1.82482 22.6905 1.8301 20.4208 1.83507C19.0432 1.83809 17.7366 1.84097 16.7442 1.83858C15.2928 1.83509 13.8924 1.81941 12.37 1.80227C10.9757 1.78657 9.47905 1.76963 7.74735 1.76C6.85645 1.75504 5.98254 1.72488 5.10791 1.68416C4.74963 1.66411 4.38481 1.69798 4.02831 1.78944C3.89064 1.82473 3.75399 1.86872 3.61992 1.92121C3.24337 2.06854 2.88437 2.28442 2.56725 2.56725C2.10593 2.97772 1.73386 3.53395 1.54257 4.188C1.45279 4.4946 1.40744 4.80452 1.40135 5.10791C1.36833 6.92492 1.39176 8.48672 1.41728 10.1875C1.4291 10.9758 1.4414 11.794 1.44871 12.6814C1.46027 14.0848 1.45794 16.1023 1.45466 18.1281C1.45438 18.3006 1.45419 18.4734 1.4539 18.6457C1.4539 18.6466 1.4539 18.6475 1.4539 18.6484C1.45082 20.5027 1.4478 22.3227 1.45451 23.6579C1.46517 25.7797 1.49036 26.578 1.51143 27.2439C1.51935 27.4941 1.52674 27.7259 1.53248 28.0021C1.55316 28.997 1.54932 30.4988 1.54545 32.0212C1.54545 32.027 1.54545 32.0328 1.54545 32.0386C1.54481 32.2913 1.47422 32.4952 1.38783 32.494C1.30142 32.4928 1.23185 32.2869 1.23249 32.0342C1.23453 31.2279 1.23651 30.441 1.23508 29.7364C1.16085 29.6999 1.10465 29.5102 1.10523 29.2828C1.10666 28.7136 1.05073 26.9701 0.959348 24.2414C0.945817 24.4283 0.932649 24.5849 0.920132 24.7221C0.90544 24.8831 0.892806 25.0065 0.881984 25.1125C0.859428 25.3336 0.844543 25.4807 0.833612 25.7418C0.821186 26.3465 0.818602 27.2969 0.816064 28.2971C0.8154 28.5497 0.744952 28.7536 0.658589 28.7525C0.572204 28.7513 0.502642 28.5453 0.50325 28.2928C0.50325 28.2878 0.50325 28.2829 0.50325 28.2779C0.505763 27.2873 0.508314 26.3064 0.521561 25.6747C0.524932 25.5139 0.528922 25.3755 0.532548 25.2716C0.535446 25.1885 0.539382 25.0848 0.54445 25.0271C0.545125 25.0195 0.546486 25.0049 0.54857 24.9875C0.548621 24.9872 0.548672 24.9869 0.548722 24.9866C0.549874 24.9769 0.555706 24.9272 0.568407 24.8742C0.570974 24.8635 0.5767 24.8402 0.585955 24.8132C0.586667 24.8062 0.587379 24.7992 0.588091 24.7922C0.597976 24.695 0.608051 24.5959 0.617847 24.4885C0.656091 24.0694 0.704291 23.4055 0.755332 22.0229C0.802275 20.7514 0.823324 18.6018 0.823694 15.9196C0.817223 16.1008 0.810949 16.2824 0.804925 16.4639C0.789784 16.9205 0.775977 17.3793 0.762809 17.8383C0.75778 18.0141 0.752855 18.1875 0.748008 18.3642C0.740171 18.6487 0.732477 18.934 0.724966 19.2192C0.719883 19.4119 0.714886 19.605 0.70986 19.7979C0.70986 19.7983 0.70986 19.7988 0.70986 19.7992C0.702883 20.0669 0.695865 20.3353 0.68865 20.6058C0.685964 20.7005 0.683385 20.794 0.680867 20.8869C0.670848 21.2565 0.661121 21.6197 0.642262 22.0378C0.639138 22.0886 0.635097 22.1438 0.631733 22.185C0.628186 22.2293 0.624573 22.272 0.620899 22.3123C0.617656 22.3478 0.614356 22.3817 0.611285 22.4143C0.610878 22.4186 0.610471 22.423 0.610065 22.4273C0.606629 22.4637 0.603453 22.4985 0.600451 22.5319C0.597453 22.5653 0.594565 22.5974 0.592059 22.6291C0.592059 22.6294 0.592059 22.6297 0.592059 22.63C0.58949 22.663 0.587557 22.6882 0.585345 22.7232C0.582573 22.7672 0.58044 22.8051 0.578325 22.8509C0.576269 22.8952 0.574435 22.9415 0.572832 22.9882C0.571232 23.0348 0.569832 23.0824 0.568559 23.1307C0.567287 23.1789 0.566103 23.228 0.56505 23.2775C0.563997 23.3269 0.563078 23.377 0.562151 23.4274C0.561223 23.4778 0.560292 23.5288 0.559404 23.5799C0.55734 23.6978 0.540006 23.8108 0.510574 23.8937C0.481141 23.9766 0.442215 24.0228 0.401929 24.0222C0.361636 24.0217 0.322913 23.9744 0.293894 23.8906C0.264888 23.8069 0.248059 23.6935 0.24659 23.5756C0.246196 23.5435 0.245752 23.5112 0.245369 23.4788C0.245142 23.4596 0.244976 23.4402 0.244759 23.4209C0.244175 23.3689 0.243524 23.3164 0.24308 23.2636C0.242638 23.2108 0.242349 23.1575 0.242165 23.1036C0.241983 23.0496 0.241923 22.9949 0.242165 22.9394C0.242407 22.884 0.242925 22.8274 0.243843 22.7698C0.244709 22.7137 0.246223 22.6497 0.248116 22.5925C0.249445 22.5506 0.251716 22.4991 0.253762 22.4561C0.255901 22.4112 0.258292 22.3671 0.260781 22.3245C0.263276 22.2818 0.26592 22.2406 0.268411 22.2012C0.268665 22.197 0.268919 22.1927 0.269174 22.1885C0.271377 22.1537 0.273525 22.1201 0.27543 22.0883C0.277561 22.0528 0.279374 22.0191 0.280923 21.9872C0.282664 21.952 0.283354 21.9306 0.284128 21.9044C0.289156 21.5577 0.28812 21.1291 0.287179 20.7204C0.287061 20.6691 0.286979 20.618 0.286874 20.5675C0.286138 20.2991 0.285213 20.0312 0.28428 19.7635C0.283602 19.5689 0.2829 19.3741 0.282297 19.1791C0.2814 18.8921 0.280688 18.6043 0.28016 18.3167C0.279854 18.1381 0.279654 17.9628 0.27955 17.7847C0.27925 17.3195 0.279671 16.8527 0.281534 16.3854C0.283401 15.9188 0.286662 15.4491 0.292215 14.9792C0.297752 14.5111 0.30603 14.0247 0.318613 13.5551C0.328019 13.2099 0.344413 12.8559 0.361339 12.5284C0.370456 12.3525 0.379704 12.1801 0.388958 12.0103C0.389009 12.0097 0.38906 12.0092 0.389111 12.0086C0.397233 11.8595 0.405275 11.7124 0.412915 11.5663C0.429369 11.253 0.444037 10.9453 0.456404 10.6377C0.468776 10.3305 0.478867 10.0246 0.486617 9.71644C0.494291 9.41062 0.49984 9.09964 0.50325 8.79175C0.50669 8.48229 0.508086 8.17848 0.50798 7.85921C0.507678 7.43942 0.504883 7.02257 0.501572 6.59461C0.498191 6.16978 0.493955 5.74153 0.489669 5.31215C0.488987 5.24413 0.488328 5.17604 0.487669 5.10791C0.486875 5.0154 0.488851 4.92292 0.493578 4.83036C0.493617 4.8297 0.493656 4.82905 0.493696 4.8284C0.509785 4.51539 0.557946 4.20294 0.63764 3.89817C0.760526 3.42762 0.958928 2.9747 1.22538 2.56254C1.39696 2.29696 1.59692 2.04789 1.82153 1.82153C1.94545 1.69662 2.07686 1.57859 2.21495 1.46838C2.6031 1.15821 3.05459 0.904556 3.53863 0.73657C3.97009 0.585954 4.42734 0.501603 4.87578 0.485265C4.9531 0.482384 5.03049 0.48144 5.10791 0.482436C5.14437 0.482965 5.18083 0.483494 5.21728 0.484023C5.71629 0.491162 6.19938 0.496855 6.6771 0.497909C7.15448 0.499089 7.63153 0.495861 8.11295 0.489059C8.59291 0.482286 9.07892 0.472144 9.56885 0.459914C10.0609 0.447628 10.5466 0.433464 11.0422 0.417951C11.534 0.402499 12.028 0.385908 12.5281 0.368359C12.8062 0.358639 13.1019 0.34971 13.3814 0.342113C13.6635 0.334441 13.9439 0.32766 14.2207 0.32136C14.333 0.318798 14.4448 0.316361 14.5558 0.313883C14.7176 0.310271 14.8781 0.306746 15.036 0.303049C15.3025 0.29681 15.5625 0.290137 15.8151 0.282297C16.0676 0.274462 16.3127 0.265351 16.5494 0.25422C16.7944 0.242655 16.9964 0.230895 17.2379 0.214088C17.8262 0.181675 18.1907 0.171721 18.5958 0.160528C18.6755 0.158324 18.757 0.155979 18.842 0.153509C19.3277 0.140956 19.8129 0.131593 20.2918 0.124516C20.7753 0.117428 21.2512 0.112648 21.7333 0.109867C22.2107 0.1071 22.6915 0.106439 23.1704 0.107578C23.6486 0.108714 24.126 0.111705 24.6046 0.116581C25.0828 0.121442 25.5709 0.128345 26.0395 0.136724C26.3104 0.141548 26.5981 0.14798 26.8653 0.154577C27.0581 0.159326 27.2481 0.164318 27.4344 0.169226C27.5105 0.17123 27.5861 0.173226 27.661 0.175177C27.9098 0.181654 28.1519 0.187676 28.3861 0.192351L29.211 0.210404L29.1937 1C29.1935 1.0089 29.1934 1.01778 29.1932 1.02665C29.1884 1.26916 29.1851 1.50384 29.1839 1.73347C29.1827 1.96349 29.1836 2.18854 29.1866 2.4137C29.1899 2.64709 29.1943 2.8409 29.2023 3.0887C29.2077 3.25009 29.213 3.40821 29.2184 3.56587C29.2264 3.80189 29.2346 4.0362 29.2431 4.27224C29.2516 4.50798 29.2603 4.74074 29.2693 4.9747C29.2723 5.04992 29.2753 5.12934 29.2783 5.20479C29.2876 5.43788 29.2972 5.66832 29.3073 5.89853C29.3174 6.1283 29.328 6.35597 29.3392 6.58268C29.3505 6.81035 29.3622 7.0342 29.3749 7.26248C29.3966 7.65049 29.4066 8.02187 29.4134 8.3471C29.42 8.67622 29.4237 8.98377 29.4273 9.28313C29.4279 9.3392 29.4286 9.39526 29.4293 9.45133C29.432 9.69281 29.4346 9.9303 29.4378 10.1642C29.4417 10.4526 29.4463 10.7357 29.4518 11.0197C29.4573 11.3012 29.4637 11.5855 29.4712 11.8655C29.4788 12.1481 29.4871 12.4183 29.4972 12.7096C29.5071 12.9976 29.52 13.2901 29.5341 13.6107C29.5481 13.9284 29.5624 14.2618 29.575 14.5995C29.5876 14.9368 29.5985 15.2794 29.607 15.6196C29.6156 15.9605 29.6221 16.3025 29.6267 16.6397C29.6313 16.9788 29.634 17.3158 29.6353 17.6512C29.6365 17.9857 29.6363 18.3313 29.6348 18.6547C29.6324 19.1785 29.629 19.6999 29.6252 20.2222C29.6214 20.7416 29.6171 21.2627 29.6127 21.7827C29.6082 22.3017 29.6035 22.8213 29.5986 23.3401C29.5937 23.8591 29.5887 24.3781 29.5837 24.8962C29.5826 25.0108 29.5814 25.1254 29.5803 25.24C29.5764 25.6436 29.5724 26.0471 29.5686 26.4489C29.5685 26.4516 29.5685 26.4544 29.5684 26.4571C29.5635 26.9743 29.5588 27.4821 29.5547 27.995C29.5537 28.1278 29.5527 28.257 29.5518 28.3861L29.5257 29.5767L28.3861 29.5518C28.3322 29.5514 28.2783 29.5511 28.2242 29.5507C28.0402 29.5496 27.8596 29.5487 27.6773 29.548C27.4948 29.5473 27.3134 29.5469 27.1348 29.5469C26.9542 29.5469 26.7782 29.5473 26.6005 29.5483C26.4377 29.5492 26.276 29.5507 26.0994 29.5524C26.0833 29.5526 26.0671 29.5527 26.051 29.5529C25.8577 29.5547 25.6379 29.5558 25.4335 29.555C24.8923 29.5525 24.3648 29.5514 23.8277 29.5515C23.2904 29.5516 22.7543 29.5529 22.2137 29.5548C22.0026 29.5556 21.7905 29.5565 21.5783 29.5573C21.2483 29.5585 20.917 29.5598 20.5848 29.5608C20.0381 29.5624 19.4903 29.5632 18.9389 29.5622C18.3896 29.5612 17.8368 29.5583 17.2864 29.5535C16.7365 29.5486 16.1819 29.5417 15.6345 29.533C15.0245 29.5233 14.4181 29.5125 13.809 29.5013C13.2009 29.49 12.5924 29.4783 11.9866 29.4662C11.3787 29.4541 10.7722 29.4417 10.1656 29.429C9.55858 29.4162 8.95198 29.4032 8.34494 29.3899C7.98164 29.3819 7.61846 29.3738 7.25509 29.3656C7.06284 29.373 6.87853 29.3802 6.70123 29.387C6.11774 29.4094 5.60623 29.4291 5.10791 29.4462C4.64814 29.4696 4.20918 29.5805 3.76245 29.818C3.68626 29.8608 3.62684 29.9 3.55678 29.9502C3.54343 29.9597 3.52932 29.97 3.51507 29.9806C3.42508 30.048 3.32399 30.1277 3.19203 30.247C3.1397 30.2945 3.08303 30.3484 3.02314 30.4092C2.78384 30.6538 2.48559 31.0105 2.24624 31.5375C2.1719 31.7025 2.0676 31.8006 1.99413 31.7414C1.94338 31.6995 1.92563 31.5861 1.95231 31.4582C1.8682 31.6822 1.80779 31.9156 1.77305 32.1533C1.75909 32.2481 1.73508 32.3367 1.7025 32.4008C1.66993 32.4648 1.63076 32.4991 1.59044 32.4934C1.5503 32.4876 1.51209 32.4414 1.48738 32.3627C1.46267 32.2841 1.45456 32.1796 1.46734 32.0751C1.50099 31.7981 1.56627 31.5261 1.66079 31.2649C1.75541 31.0034 1.87878 30.7539 2.02876 30.5206C2.17067 30.2998 2.33599 30.0943 2.52189 29.908C2.53241 29.8974 2.54298 29.8869 2.55362 29.8765C2.75159 29.6828 2.97192 29.5111 3.20927 29.366C3.44817 29.2201 3.69892 29.1034 3.96391 29.0148C4.12268 28.9617 4.28713 28.9192 4.45069 28.8885C4.51166 28.8771 4.57142 28.8673 4.63143 28.8591C4.68048 28.8524 4.72997 28.8467 4.78093 28.8419C4.88938 28.8315 4.99854 28.826 5.10791 28.8254C5.59119 28.8228 6.0767 28.82 6.55874 28.8171C7.16574 28.8134 7.77213 28.8094 8.3785 28.8053C8.9852 28.8012 9.59138 28.7968 10.1978 28.7923C10.804 28.7879 11.4098 28.7833 12.0167 28.7785C12.6214 28.7736 13.2286 28.7687 13.8343 28.7633C14.3028 28.7592 14.7674 28.7548 15.2327 28.7501C15.4159 28.742 15.5971 28.7344 15.7761 28.727C16.2969 28.7057 16.8184 28.6776 17.3322 28.6498C16.4178 28.6636 15.6832 28.6852 14.9839 28.7058C14.8901 28.7086 14.797 28.7114 14.7041 28.7141C13.7562 28.7417 12.8405 28.765 11.6088 28.7598C8.36929 28.7462 6.38853 28.7359 5.10791 28.7186C5.01216 28.7172 4.92064 28.7193 4.83321 28.7242C3.66688 28.8266 3.22074 29.1552 2.79589 29.367C2.65335 29.4473 2.48695 29.5613 2.32004 29.7061C1.77178 30.1542 1.32737 30.9796 1.2144 31.4857C1.15161 31.7236 1.0567 31.9124 0.970718 31.9002C0.885603 31.8884 0.844037 31.6622 0.912583 31.4028C1.03458 30.8756 1.47227 30.0099 2.09492 29.481C2.35455 29.2501 2.62981 29.074 2.86619 28.9599C3.22109 28.819 3.60723 28.5129 4.85034 28.4098C4.93279 28.4059 5.0185 28.4043 5.10791 28.4055C6.36942 28.4229 8.341 28.4331 11.6176 28.4469C12.8049 28.4519 13.6861 28.4296 14.6239 28.4023C14.7159 28.3996 14.8085 28.3968 14.9019 28.3941C14.9025 28.3941 14.9031 28.3941 14.9037 28.3941C15.7651 28.3687 16.7031 28.341 17.968 28.3288C20.8834 28.3005 24.805 28.2458 25.736 28.2149C25.9187 28.2089 26.0953 28.2021 26.2815 28.1949C26.7931 28.1754 27.3806 28.1529 28.3861 28.1337L28.1337 28.3861C28.126 27.9863 28.1189 27.5204 28.1127 26.967C28.1079 26.5415 28.1051 26.0431 28.1038 25.4993C28.0617 24.6832 28.0227 23.8909 27.9995 23.202C27.9794 22.6073 27.9426 22.059 27.9023 21.5277C27.8906 21.3748 27.8785 21.2208 27.8664 21.0671C27.8372 20.6964 27.8081 20.3256 27.7855 19.9642C27.7676 19.6761 27.746 19.3745 27.7231 19.0556C27.6399 17.8942 27.5402 16.5024 27.5389 14.6888C27.5376 12.7663 27.5556 11.1202 27.5731 9.70059C27.5528 10.7432 27.5284 11.548 27.5067 12.2185C27.5026 12.3449 27.4987 12.4661 27.4948 12.5828C27.4678 13.4068 27.4481 14.0058 27.4489 14.6479C27.4529 17.7145 27.4794 18.8647 27.556 20.1625C27.5762 20.5042 27.6031 20.8811 27.632 21.2872C27.6898 22.0988 27.756 23.0272 27.7938 24.0247C27.829 24.9537 27.881 25.9928 27.936 27.0938C27.936 27.0942 27.936 27.0947 27.936 27.0951C27.9467 27.3102 27.9576 27.5279 27.9685 27.7474C27.979 27.9587 27.9895 28.1717 27.9998 28.3861L28.3861 27.9999C27.2426 28.0553 26.0618 28.1083 24.9076 28.1437C24.761 28.1482 24.5854 28.1544 24.3838 28.1615C23.2202 28.2028 21.1773 28.2753 18.6826 28.2288C18.1347 28.2186 17.5653 28.197 16.9156 28.1722C16.7177 28.1647 16.5122 28.1567 16.2977 28.1489C15.3715 28.1149 14.2463 28.0787 12.7479 28.057C11.5114 28.0391 10.0044 28.0305 8.43951 28.0214C7.66869 28.017 6.88383 28.0124 6.11033 28.0066C5.7723 28.0041 5.43835 28.0014 5.10791 27.9985C3.89318 27.9862 2.73041 28.4786 1.90492 29.291C1.27133 29.9095 0.830524 30.7096 0.642983 31.5685C0.642885 31.5689 0.642787 31.5694 0.642689 31.5699C0.582541 31.8423 0.493473 32.0557 0.407732 32.0385C0.323037 32.0216 0.277087 31.7631 0.344158 31.4696C0.548374 30.5637 1.0161 29.7221 1.6835 29.0696C2.56644 28.1996 3.80952 27.673 5.10791 27.6855C5.44406 27.6885 5.7838 27.6913 6.12776 27.6938C6.88951 27.6995 7.66822 27.704 8.43602 27.7085C10.0085 27.7175 11.5365 27.7262 12.7845 27.7443C14.3084 27.7664 15.4542 27.8033 16.3931 27.8377C16.6193 27.846 16.8319 27.8541 17.0337 27.8618C17.6763 27.8863 18.2104 27.9068 18.7301 27.9165C21.1456 27.9615 23.1112 27.8919 24.2792 27.8505C24.4863 27.8432 24.6684 27.8368 24.8235 27.8321C25.9988 27.796 27.2068 27.7413 28.3861 27.6837L27.6837 28.3861C27.6755 28.2171 27.6672 28.0488 27.6589 27.8812C27.6481 27.6642 27.6374 27.4483 27.6267 27.2341C27.6266 27.2337 27.6266 27.2332 27.6265 27.2328C27.5715 26.1321 27.5187 25.0743 27.4828 24.128C27.4464 23.1674 27.3864 22.3297 27.3303 21.546C27.3003 21.1256 27.2714 20.7206 27.2478 20.3207C27.1665 18.9439 27.1401 17.73 27.1361 14.6535ZM2.1006 31.1205C2.33921 30.6938 2.59762 30.3966 2.80187 30.1879C2.80285 30.187 2.80382 30.186 2.80479 30.185C2.80378 30.1859 2.80276 30.1869 2.80174 30.1878C2.62055 30.3565 2.45814 30.5455 2.31812 30.7516C2.23798 30.8695 2.16529 30.9928 2.1006 31.1205ZM28.4165 25.4248C28.4216 25.5233 28.4267 25.6225 28.4319 25.722C28.4295 25.4472 28.4272 25.1724 28.4249 24.898C28.4221 24.561 28.4194 24.2241 28.4168 23.8874C28.4158 24.4229 28.4155 24.9417 28.4165 25.4248ZM27.8519 14.6845C27.8531 16.3948 27.9444 17.673 28.0268 18.8256C28.0505 19.1575 28.0734 19.4793 28.0933 19.7977C28.1015 19.9298 28.1107 20.0617 28.1203 20.1947C28.1252 19.4201 28.1304 18.7081 28.1347 18.1253C28.1475 16.386 28.1741 15.3961 28.1975 14.5263C28.2043 14.2746 28.2108 14.0327 28.2166 13.7859C28.2061 13.5817 28.1957 13.3696 28.1865 13.1554C28.1736 12.8553 28.1612 12.531 28.1507 12.2224C28.1401 11.9126 28.1306 11.5977 28.1226 11.2885C28.1145 10.9768 28.1078 10.6679 28.102 10.3603C28.0965 10.071 28.0919 9.78264 28.0874 9.50363C28.0871 9.48765 28.0868 9.47167 28.0866 9.45569C28.0818 9.16079 28.0772 8.87389 28.0709 8.6103C28.0644 8.34197 28.0567 8.11888 28.0451 7.92092C28.0306 7.67368 28.0168 7.42004 28.0039 7.16922C27.991 6.91813 27.979 6.66811 27.9677 6.41883C27.9565 6.16902 27.9459 5.92169 27.936 5.67367C27.9328 5.59348 27.9295 5.50959 27.9264 5.43008C27.925 5.39342 27.9235 5.3568 27.9221 5.32026C27.921 5.80542 27.9193 6.30914 27.9168 6.82976C27.913 7.58187 27.9028 8.3848 27.8916 9.27049C27.8724 10.7814 27.8504 12.5332 27.8519 14.6845ZM25.3523 1.4919C25.5632 1.49108 25.8721 1.48864 26.2705 1.48549C26.3647 1.48474 26.464 1.48386 26.5681 1.48304C26.5657 1.48297 26.5632 1.48297 26.5607 1.48289C26.3027 1.47492 26.0644 1.46797 25.8073 1.46153C25.3489 1.45011 24.9036 1.44032 24.4538 1.43193C24.0022 1.42352 23.552 1.41664 23.1012 1.41117C22.6497 1.40571 22.1969 1.40178 21.7481 1.39942C21.2949 1.39708 20.8482 1.39617 20.3972 1.39729C20.2536 1.39764 20.1095 1.39821 19.9654 1.39897C20.287 1.40684 20.621 1.41334 20.9737 1.42018C21.2555 1.42564 21.5493 1.43136 21.8584 1.43818C21.9766 1.44079 22.1197 1.4448 22.2867 1.44947C22.9485 1.46801 23.9868 1.49716 25.3523 1.4919ZM16.3677 1.48518C16.263 1.48725 16.159 1.48913 16.0561 1.49067C15.7633 1.49507 15.4779 1.49758 15.1981 1.49952C15.0016 1.50088 14.8073 1.50184 14.6159 1.50288C14.5351 1.50332 14.4544 1.5038 14.3745 1.50425C14.2406 1.50501 14.1077 1.50592 13.9758 1.50685C14.9012 1.51627 15.8058 1.5235 16.7485 1.52577C16.761 1.5258 16.7735 1.52574 16.786 1.52577C16.6433 1.51196 16.5039 1.49842 16.3677 1.48518Z" fill="var(--stroke-0, #A98BFF)"/>
</svg>
