<svg preserveAspectRatio="none" width="100%" height="100%" overflow="visible" style="display: block;" viewBox="0 0 26 3" fill="none" xmlns="http://www.w3.org/2000/svg">
<path id="Vector" d="M9.52948 0.190759C9.6868 0.1827 9.83429 0.196478 10.0206 0.215367C10.0207 0.215363 10.0208 0.21536 10.0208 0.215356C10.0475 0.218056 10.0749 0.220926 10.1032 0.223788C10.3314 0.246902 10.6279 0.27437 11.075 0.286735C11.5691 0.300384 11.9613 0.384571 12.2008 0.467199C12.2455 0.482618 12.2917 0.490969 12.4083 0.498492C12.4667 0.50227 12.5408 0.505762 12.6391 0.510249C12.6695 0.511638 12.7022 0.513123 12.7374 0.514747C12.8168 0.518403 12.9092 0.5227 13.0173 0.528227C13.3753 0.546357 13.9363 0.545865 14.4532 0.55047C14.7669 0.553096 15.0645 0.557301 15.2905 0.565559C15.6211 0.577632 15.94 0.602372 16.2868 0.630119C16.6043 0.655609 16.9452 0.683566 17.3396 0.708537C17.6422 0.727877 17.9362 0.795617 18.235 0.865469C18.273 0.874377 18.3112 0.883319 18.3494 0.892247C18.6131 0.953939 18.8826 1.01376 19.174 1.05095C19.6936 1.11683 20.1081 1.10754 20.5671 1.10702C20.7467 1.10659 20.933 1.10707 21.1351 1.112C21.4548 1.11976 21.9142 1.1438 22.3756 1.16936C22.4149 1.17153 22.4543 1.17369 22.4935 1.17589C22.4937 1.1759 22.4939 1.17591 22.4941 1.17592C22.9164 1.1996 23.3309 1.22354 23.635 1.23956C24.1183 1.26507 24.3001 1.27255 24.4517 1.27961C24.5087 1.28229 24.5615 1.28497 24.6244 1.28884C24.851 1.30286 25.1931 1.33153 25.5398 1.36031C25.5411 1.36042 25.5424 1.36053 25.5438 1.36064C25.6013 1.36565 25.6477 1.36953 25.6475 1.3693C25.6472 1.36907 25.6003 1.36741 25.5428 1.36558C25.3591 1.35905 25.1799 1.35255 25.0194 1.34715C25.0111 1.35373 24.9679 1.35853 24.9161 1.35781C24.7865 1.35629 24.3894 1.3527 23.7679 1.3802C23.8105 1.3836 23.8462 1.38672 23.8774 1.38956C23.9141 1.3929 23.9422 1.3956 23.9663 1.39784C24.0167 1.40247 24.0502 1.40521 24.1096 1.40632C24.2474 1.40597 24.4638 1.40093 24.6916 1.39534C24.7491 1.39413 24.7956 1.40181 24.7953 1.41257C24.7951 1.42333 24.7482 1.43551 24.6906 1.43969C24.6895 1.43977 24.6884 1.43985 24.6873 1.43993C24.4616 1.45551 24.2382 1.47038 24.0944 1.47673C24.0578 1.47834 24.0262 1.47942 24.0026 1.48005C23.9836 1.48055 23.96 1.48107 23.9469 1.48063C23.9451 1.48057 23.9418 1.48044 23.9378 1.48017C23.9378 1.48016 23.9377 1.48015 23.9377 1.48014C23.9354 1.47999 23.9241 1.47925 23.912 1.47678C23.9096 1.47628 23.9043 1.47516 23.8981 1.47318C23.8966 1.47308 23.895 1.47299 23.8934 1.4729C23.8712 1.47163 23.8487 1.47024 23.8242 1.46892C23.7288 1.46363 23.5775 1.45798 23.2627 1.45079C22.9731 1.44431 22.4835 1.44539 21.8726 1.45678C21.9139 1.4592 21.9553 1.46142 21.9966 1.46344C22.1006 1.4685 22.2051 1.47235 22.3096 1.47541C22.3497 1.47657 22.3892 1.47763 22.4294 1.47856C22.4942 1.48007 22.5592 1.48131 22.6241 1.48229C22.668 1.48296 22.712 1.48349 22.7559 1.48396C22.756 1.48395 22.7561 1.48395 22.7562 1.48394C22.8172 1.48459 22.8783 1.48507 22.9399 1.48542C22.9615 1.48561 22.9828 1.48574 23.0039 1.48583C23.0881 1.48617 23.1708 1.48627 23.266 1.4883C23.2776 1.48882 23.2902 1.48958 23.2996 1.49024C23.3097 1.49094 23.3194 1.49166 23.3286 1.49242C23.3367 1.49308 23.3444 1.49377 23.3518 1.4944C23.3528 1.49448 23.3538 1.49456 23.3548 1.49464C23.3631 1.49534 23.371 1.49596 23.3786 1.49653C23.3862 1.49709 23.3935 1.49763 23.4007 1.49805C23.4008 1.49805 23.4009 1.49804 23.4009 1.49804C23.4085 1.49846 23.4142 1.49877 23.4222 1.49904C23.4322 1.49937 23.4408 1.49958 23.4512 1.49967C23.4613 1.49976 23.4719 1.49975 23.4825 1.49966C23.4931 1.49956 23.504 1.49939 23.515 1.49916C23.526 1.49894 23.5371 1.49867 23.5484 1.49835C23.5597 1.49803 23.5711 1.49766 23.5825 1.49728C23.594 1.4969 23.6056 1.49651 23.6173 1.4961C23.6441 1.49517 23.6699 1.49862 23.6887 1.5056C23.7076 1.5126 23.7181 1.5225 23.718 1.53356C23.7179 1.54463 23.7071 1.55615 23.688 1.566C23.669 1.57583 23.6431 1.58316 23.6163 1.58622C23.609 1.58704 23.6016 1.58789 23.5943 1.58872C23.5899 1.58922 23.5855 1.5897 23.5811 1.59019C23.5692 1.59152 23.5573 1.59288 23.5452 1.59418C23.5332 1.59549 23.5211 1.59676 23.5088 1.59801C23.4965 1.59926 23.484 1.60049 23.4714 1.60164C23.4588 1.60279 23.4459 1.60388 23.4328 1.60486C23.42 1.60582 23.4054 1.60675 23.3924 1.6074C23.3829 1.60789 23.3711 1.60828 23.3613 1.60855C23.3511 1.60883 23.3411 1.609 23.3314 1.6091C23.3216 1.6092 23.3122 1.60921 23.3033 1.60922C23.3023 1.60923 23.3013 1.60923 23.3004 1.60924C23.2925 1.60924 23.2848 1.60924 23.2776 1.60926C23.2695 1.6093 23.2618 1.60939 23.2545 1.60952C23.2465 1.60967 23.2417 1.60987 23.2357 1.61015C23.1567 1.61553 23.0591 1.62443 22.966 1.63289C22.9543 1.63395 22.9427 1.63499 22.9312 1.63603C22.8701 1.6416 22.8091 1.64721 22.7481 1.6528C22.7038 1.65685 22.6594 1.66091 22.615 1.66492C22.5496 1.67082 22.4841 1.67663 22.4186 1.68231C22.3779 1.68582 22.338 1.68921 22.2974 1.6926C22.1915 1.70145 22.0852 1.70987 21.9787 1.71741C21.8724 1.72494 21.7655 1.73164 21.6585 1.73683C21.5518 1.742 21.4411 1.74573 21.3341 1.74626C21.2555 1.74658 21.1749 1.74278 21.1003 1.73776C21.0602 1.73506 21.021 1.73211 20.9823 1.72899C20.9822 1.72897 20.982 1.72895 20.9819 1.72892C20.948 1.72619 20.9144 1.72338 20.8812 1.72071C20.8098 1.71494 20.7398 1.70977 20.6697 1.70573C20.5997 1.70168 20.53 1.69874 20.4599 1.69712C20.3902 1.69553 20.3194 1.69515 20.2493 1.69604C20.1788 1.69693 20.1096 1.699 20.0369 1.7022C19.9413 1.70651 19.8463 1.71243 19.7489 1.71884C19.6521 1.72526 19.5546 1.73233 19.4568 1.73946C19.4226 1.74195 19.3884 1.74437 19.3541 1.7469C19.3539 1.7469 19.3538 1.74691 19.3537 1.74691C19.2902 1.75157 19.2267 1.75626 19.163 1.76087C19.0648 1.76798 18.9662 1.77496 18.8674 1.78135C18.7685 1.78773 18.669 1.79358 18.569 1.79813C18.469 1.80261 18.3663 1.80603 18.2631 1.80558C18.1711 1.80531 18.0783 1.80369 17.9876 1.80186C17.9637 1.80138 17.9397 1.80089 17.9158 1.80038C17.8021 1.79808 17.6921 1.79657 17.5833 1.79886C17.4746 1.80104 17.3659 1.80687 17.2563 1.81588C17.147 1.82484 17.0363 1.83681 16.9247 1.85077C16.8127 1.86479 16.702 1.88053 16.5892 1.89768C16.4772 1.91476 16.3646 1.93299 16.2507 1.95226C16.1874 1.96293 16.1201 1.97303 16.0564 1.98179C15.9921 1.99064 15.9283 1.99866 15.8653 2.0062C15.8397 2.00927 15.8142 2.01222 15.7889 2.01519C15.7521 2.01954 15.7155 2.02379 15.6796 2.02818C15.6189 2.0356 15.5597 2.04338 15.5021 2.05224C15.4446 2.06109 15.3888 2.07112 15.3349 2.08306C15.2791 2.09545 15.2331 2.10781 15.1781 2.12528C15.0441 2.15963 14.9611 2.17122 14.8688 2.18411C14.8507 2.18665 14.8321 2.18934 14.8128 2.19216C14.7021 2.20677 14.5916 2.21819 14.4826 2.22721C14.3724 2.23625 14.2641 2.24287 14.1543 2.24736C14.0455 2.25182 13.936 2.25405 13.8269 2.25428C13.718 2.25452 13.6093 2.25273 13.5003 2.24885C13.3914 2.24499 13.2802 2.23891 13.1735 2.23112C13.1118 2.22665 13.0463 2.22051 12.9854 2.21413C12.9415 2.20953 12.8982 2.20466 12.8558 2.19985C12.8385 2.19788 12.8213 2.19592 12.8042 2.19399C12.7475 2.18761 12.6924 2.18163 12.6391 2.17695C12.6371 2.17678 12.635 2.1766 12.633 2.17643C12.5778 2.17167 12.5243 2.16828 12.472 2.16699C12.4196 2.16568 12.3684 2.16647 12.3171 2.16938C12.264 2.17249 12.2198 2.17672 12.1634 2.18449C12.1266 2.18962 12.0906 2.19478 12.0547 2.19993C12.0009 2.20762 11.9476 2.21544 11.8938 2.22351C11.8401 2.23157 11.7871 2.23977 11.7338 2.24829C11.7167 2.25103 11.6986 2.25392 11.6814 2.25674C11.6283 2.26545 11.5759 2.27437 11.5234 2.28379C11.4711 2.29319 11.4193 2.30298 11.3676 2.31335C11.3158 2.32377 11.2648 2.33459 11.2128 2.34628C11.1244 2.36621 11.0398 2.3745 10.9658 2.37962C10.8908 2.38464 10.8208 2.38673 10.7526 2.38861C10.7398 2.38896 10.7271 2.3893 10.7143 2.38965C10.6593 2.39105 10.6052 2.39226 10.5519 2.39396C10.4862 2.39603 10.4218 2.39878 10.3571 2.40227C10.293 2.40572 10.2282 2.40996 10.1645 2.41518C10.1001 2.42047 10.0385 2.42634 9.97222 2.43369C9.90662 2.44089 9.84 2.45081 9.76698 2.46136C9.69462 2.47183 9.61869 2.48232 9.54179 2.49081C9.46497 2.49935 9.38693 2.50599 9.30945 2.51027C9.23182 2.51458 9.15393 2.51671 9.07712 2.51692C8.9999 2.51715 8.92313 2.51545 8.84677 2.51232C8.77057 2.5092 8.69187 2.50445 8.6182 2.49872C8.49892 2.48946 8.38017 2.47905 8.26121 2.46807C8.14291 2.45712 8.02424 2.44552 7.90581 2.43351C7.7876 2.42151 7.66926 2.40911 7.55111 2.39636C7.4329 2.38361 7.31471 2.37055 7.1967 2.35728C7.1706 2.35435 7.1445 2.35141 7.11839 2.34846C7.02649 2.33806 6.93459 2.32755 6.84309 2.31705C6.84246 2.31696 6.84183 2.31687 6.8412 2.31678C6.72341 2.30331 6.60776 2.28995 6.49096 2.27688C6.44808 2.27211 6.40688 2.26752 6.36502 2.26303C6.3231 2.25853 6.28197 2.25425 6.24046 2.25008C6.1989 2.24592 6.15758 2.24197 6.1169 2.23832C6.07577 2.23465 6.03568 2.23129 5.99523 2.22835C5.95814 2.22561 5.92132 2.22339 5.88109 2.22085C5.87742 2.22062 5.87375 2.22039 5.87008 2.22016C5.82606 2.21737 5.77599 2.21347 5.72944 2.20843C5.60617 2.19489 5.48603 2.18235 5.36372 2.17018C5.24135 2.15799 5.11924 2.14636 4.99611 2.13461C4.94803 2.13001 4.89973 2.12544 4.85141 2.12075C4.77624 2.11346 4.7008 2.10599 4.62513 2.09818C4.50062 2.08534 4.37585 2.07153 4.25028 2.0563C4.12518 2.04113 3.99928 2.0245 3.87394 2.00668C3.7487 1.98889 3.62237 1.96971 3.49769 1.94985C3.35878 1.92771 3.22068 1.9052 3.08195 1.88256C2.94345 1.85993 2.80487 1.83721 2.6669 1.81467C2.52843 1.79205 2.39032 1.76958 2.25215 1.74728C2.11391 1.72496 1.97576 1.70285 1.8375 1.681C1.75476 1.66792 1.67204 1.65493 1.58929 1.64207C1.5455 1.63851 1.50353 1.63499 1.46315 1.63143C1.29095 1.61626 1.14628 1.6012 1 1.58365L0.756011 1.5417L0.785654 1.3693C0.798545 1.26212 0.812841 1.15408 0.830174 1.03372C0.83389 1.00646 0.836609 0.984281 0.84002 0.957298C0.840671 0.95215 0.841375 0.946689 0.84209 0.941121C0.846612 0.905857 0.852084 0.865361 0.860799 0.809024C0.877763 0.696639 0.909666 0.524378 0.949984 0.301777C0.960252 0.245546 0.968387 0.209764 0.969408 0.221884C0.970191 0.230404 0.968119 0.260269 0.964522 0.296715C0.972934 0.22938 0.981098 0.162226 0.988974 0.0952454C0.992128 0.06851 0.995216 0.0434104 0.997245 0.0255745C0.999144 0.00904532 1.00001 5.57291e-07 1 0C1 0 1 0 1 0C1 4.36634e-08 0.999995 5.56331e-05 0.999985 0.000167519C0.999837 0.00170769 0.998813 0.0138417 0.997475 0.0339112C0.996116 0.0539737 0.994545 0.0802972 0.992726 0.107155C0.987881 0.178404 0.983027 0.249412 0.97819 0.320435C0.973349 0.391517 0.968557 0.462263 0.963811 0.533219C0.959066 0.604155 0.954387 0.675066 0.94978 0.746201C0.945192 0.817058 0.94067 0.888057 0.93625 0.959184C0.931798 1.03076 0.927551 1.10099 0.923322 1.17236C0.920791 1.21513 0.918254 1.2584 0.91582 1.30089C0.914908 1.31672 0.914045 1.33217 0.91317 1.34763C0.912763 1.35482 0.912352 1.36202 0.911938 1.3693L0.899759 1.44013L1 1.45737C1.00553 1.45768 1.0111 1.458 1.01674 1.45832C1.15426 1.46603 1.2931 1.47343 1.43069 1.48032C1.56894 1.48726 1.70704 1.49379 1.84515 1.49989C1.98332 1.506 2.12138 1.51165 2.2595 1.51691C2.39755 1.52217 2.53552 1.52701 2.67375 1.53141C2.81147 1.53578 2.94976 1.53977 3.08771 1.54318C3.19441 1.54582 3.30022 1.54806 3.40619 1.54993C3.44791 1.54758 3.4892 1.54532 3.52995 1.54307C3.64857 1.53655 3.76735 1.52561 3.88436 1.51359C3.67609 1.51549 3.50879 1.5215 3.34952 1.52599C3.32816 1.52659 3.30695 1.52719 3.2858 1.52772C3.06992 1.53333 2.86137 1.53431 2.58086 1.51961C1.78306 1.47824 1.32047 1.45327 1.03222 1.4362C1.02124 1.43555 1.01051 1.43491 1 1.43428L0.926035 1.42156L0.935021 1.3693C0.950868 1.10391 0.960576 0.985098 0.971558 0.873931C0.988141 0.71063 0.995032 0.395449 0.996895 0.237068C0.997876 0.179534 0.999908 0.133095 1.00146 0.133356C1.00301 0.133634 1.00607 0.180517 1.00823 0.238061C1.0141 0.405298 1.02311 0.746354 1.01075 0.940724C1.00571 1.02295 1.0018 1.11689 0.997491 1.3693C1.01333 1.37204 1.02711 1.37228 1.04135 1.37251C1.32519 1.37728 1.78351 1.38219 2.58284 1.39377C2.85326 1.39787 3.05396 1.38996 3.26754 1.37711C3.28849 1.37586 3.30958 1.37453 3.33086 1.37321C3.33099 1.37321 3.33113 1.37321 3.33126 1.37321C3.52745 1.36106 3.74108 1.34575 4.02916 1.3371C4.69314 1.3184 5.5863 1.27151 5.79832 1.24549C5.83993 1.24053 5.88015 1.23499 5.92258 1.22912C6.08542 1.20662 6.28203 1.17837 6.72508 1.15243C6.82198 1.14677 6.93549 1.14234 7.05934 1.139C7.24521 1.1012 7.42566 1.06445 7.58257 1.04111C7.71799 1.02101 7.84287 0.986381 7.96387 0.94799C7.99871 0.936942 8.03377 0.925368 8.06878 0.913784C8.1532 0.88585 8.23767 0.857559 8.31997 0.834968C8.38558 0.816965 8.45428 0.795499 8.5269 0.772603C8.79141 0.689566 9.10839 0.585355 9.52144 0.570833C9.95931 0.55581 10.3342 0.56418 10.6575 0.57522C10.4201 0.559892 10.2368 0.540713 10.0841 0.523901C10.0553 0.52073 10.0277 0.517664 10.0011 0.514727C9.81343 0.493998 9.67699 0.47985 9.53077 0.485653C8.83234 0.514031 8.57039 0.552327 8.27481 0.632693C8.19699 0.653934 8.11114 0.681299 8.01866 0.710386C7.83381 0.768613 7.62237 0.833348 7.39519 0.873254C7.1836 0.910537 6.94695 0.961727 6.6962 1.01316C6.6961 1.01316 6.696 1.01316 6.6959 1.01317C6.64691 1.02322 6.59733 1.0333 6.54733 1.0433C6.24246 1.10442 5.9218 1.16177 5.60965 1.19768C5.57627 1.20154 5.53627 1.2067 5.49036 1.21257C5.22534 1.24773 4.76009 1.2981 4.19192 1.27836C4.06713 1.2744 3.93746 1.2644 3.78948 1.25441C3.74441 1.25137 3.69761 1.24827 3.64875 1.24539C3.43781 1.23289 3.18153 1.22326 2.84029 1.22695C2.55866 1.22995 2.21544 1.24139 1.85904 1.25508C1.68349 1.26185 1.50473 1.26919 1.32857 1.27672C1.21723 1.28148 1.10784 1.28628 1 1.29121L1.0781 1.3693C1.05952 0.961694 1.03894 0.576166 1.01319 0.191216C1.01318 0.191117 1.01317 0.191018 1.01317 0.190919C1.00954 0.13341 1.00733 0.0883617 1.00851 0.0903823C1.00968 0.092424 1.01636 0.140681 1.02312 0.198164C1.0669 0.58175 1.10468 0.964807 1.14052 1.3693L1 1.22878C1.10914 1.2191 1.21984 1.20955 1.33254 1.20002C1.50603 1.18536 1.68338 1.17082 1.85825 1.15711C2.21638 1.12906 2.56438 1.10435 2.84862 1.09108C3.19567 1.07481 3.45665 1.07589 3.67048 1.0816C3.72198 1.08297 3.7704 1.08457 3.81637 1.08621C3.96271 1.09143 4.08437 1.09714 4.20274 1.09721C4.75287 1.09916 5.20053 1.03864 5.46654 0.996581C5.51372 0.989338 5.55519 0.982949 5.5905 0.977959C5.89652 0.934843 6.21228 0.870963 6.51686 0.803184C6.56628 0.792208 6.61545 0.781183 6.66424 0.770118C6.66434 0.770073 6.66444 0.770027 6.66454 0.769982C6.91523 0.713166 7.15614 0.656263 7.37167 0.614127C7.59044 0.571456 7.78123 0.509478 7.9597 0.45019C8.05547 0.418412 8.1477 0.387587 8.23879 0.361275C8.55235 0.271129 8.82881 0.227463 9.52948 0.190759ZM0.951351 0.400824C0.932319 0.53923 0.916832 0.651999 0.906908 0.735979C0.916647 0.664657 0.926211 0.593506 0.935575 0.522302C0.940904 0.481775 0.946164 0.441295 0.951351 0.400824ZM7.07631 1.39417C7.05389 1.39828 7.03129 1.40242 7.00863 1.40656C7.07121 1.40476 7.13381 1.40306 7.1963 1.40133C7.27304 1.3992 7.34977 1.39716 7.42645 1.3951C7.30451 1.39401 7.18634 1.39356 7.07631 1.39417ZM9.52244 0.865804C9.1329 0.874936 8.84179 0.966402 8.5793 1.04501C8.50371 1.06772 8.4304 1.08946 8.35788 1.10825C8.32781 1.11605 8.29776 1.12458 8.26747 1.13356C8.44388 1.13549 8.60604 1.13813 8.73879 1.1405C9.13491 1.14755 9.36035 1.17061 9.55846 1.19134C9.61578 1.19734 9.67087 1.20313 9.72708 1.20833C9.77359 1.19808 9.82188 1.18786 9.87069 1.17881C9.93902 1.16603 10.0129 1.15364 10.0832 1.143C10.1537 1.13231 10.2254 1.12263 10.2959 1.11439C10.3669 1.10607 10.4372 1.09903 10.5073 1.09287C10.5732 1.08705 10.6388 1.08205 10.7024 1.07721C10.706 1.07694 10.7097 1.07667 10.7133 1.07639C10.7805 1.07125 10.8458 1.06632 10.9058 1.05971C10.9669 1.05292 11.0177 1.04505 11.0628 1.03333C11.1191 1.01874 11.1769 1.00468 11.234 0.991582C11.2912 0.97846 11.3482 0.96621 11.4049 0.954725C11.4618 0.943217 11.5182 0.932444 11.5746 0.922233C11.5929 0.918932 11.612 0.915535 11.6301 0.912372C11.6385 0.910914 11.6468 0.90942 11.6551 0.907989C11.5446 0.907513 11.4299 0.906563 11.3113 0.904882C11.1401 0.902455 10.9572 0.893953 10.7555 0.885184C10.4114 0.870185 10.0124 0.854636 9.52244 0.865804ZM13.33 0.878797C13.282 0.879416 13.2116 0.881589 13.1209 0.884485C13.0995 0.885169 13.0768 0.885994 13.0531 0.886749C13.0537 0.886826 13.0542 0.886829 13.0548 0.886906C13.1136 0.895011 13.1678 0.902103 13.2264 0.908716C13.3308 0.920449 13.4322 0.930607 13.5347 0.939426C13.6375 0.948261 13.7401 0.955635 13.8427 0.961651C13.9455 0.967673 14.0487 0.972221 14.1509 0.975275C14.2541 0.978327 14.3558 0.980009 14.4585 0.979789C14.4913 0.979722 14.5241 0.979458 14.5569 0.97901C14.4836 0.970643 14.4076 0.963602 14.3272 0.956204C14.2631 0.950296 14.1962 0.944124 14.1258 0.936845C14.0988 0.93406 14.0662 0.929859 14.0282 0.924956C13.8775 0.905562 13.641 0.87483 13.33 0.878797ZM15.3763 0.905605C15.4001 0.903997 15.4238 0.90259 15.4472 0.901496C15.5139 0.898391 15.5789 0.897118 15.6427 0.896411C15.6874 0.895926 15.7316 0.895817 15.7752 0.895652C15.7936 0.895583 15.812 0.895476 15.8302 0.895395C15.8607 0.895262 15.891 0.894996 15.921 0.894718C15.7103 0.881754 15.5042 0.871078 15.2895 0.865361C15.2867 0.865286 15.2839 0.865295 15.281 0.865221C15.3135 0.878999 15.3452 0.892466 15.3763 0.905605Z" fill="var(--stroke-0, #A98BFF)"/>
</svg>
