<svg preserveAspectRatio="none" width="100%" height="100%" overflow="visible" style="display: block;" viewBox="0 0 14 19" fill="none" xmlns="http://www.w3.org/2000/svg">
<path id="Vector" d="M10.2217 16.6056C9.99167 16.4431 9.78878 16.2738 9.53342 16.0587C9.53328 16.0586 9.53314 16.0585 9.53299 16.0584C9.49651 16.0277 9.45897 15.9959 9.42011 15.9632C9.10725 15.6998 8.6992 15.3595 8.06648 14.8697C7.36736 14.3284 6.8563 13.84 6.56296 13.5168C6.50825 13.4565 6.44706 13.4002 6.28461 13.269C6.20324 13.2033 6.09922 13.1209 5.96127 13.0119C5.96091 13.0116 5.96055 13.0113 5.96019 13.011L6.99102 13.0109C6.947 13.0422 6.89968 13.0758 6.84867 13.1121C6.73287 13.1944 6.59807 13.2902 6.43997 13.4019C5.91669 13.7718 5.11396 14.3746 4.37125 14.9261C3.92057 15.2609 3.4921 15.5771 3.16362 15.8132C2.68321 16.1585 2.21182 16.4813 1.69885 16.8314C1.61217 16.8906 1.52431 16.9505 1.43501 17.0115L0.311456 17.8987L0.275136 16.4316C0.29655 15.9542 0.318849 15.4423 0.339232 14.8668C0.358572 14.3253 0.426312 13.7991 0.496165 13.2645C0.505072 13.1964 0.514015 13.1281 0.522942 13.0597C0.584635 12.5879 0.644456 12.1056 0.681642 11.584C0.747525 10.6544 0.738231 9.9125 0.737716 9.09109C0.737285 8.76983 0.737763 8.43635 0.742694 8.07469C0.750459 7.50274 0.774496 6.6805 0.800051 5.85489C0.802229 5.78456 0.804385 5.71414 0.806582 5.6439C0.806592 5.64355 0.806603 5.64319 0.806613 5.64284C0.830297 4.88709 0.854231 4.14535 0.870251 3.60117C0.895761 2.73642 0.903249 2.41107 0.910301 2.13971C0.912984 2.0377 0.915663 1.94327 0.91954 1.83069C0.933559 1.42522 0.96223 0.813148 0.991007 0.192695C0.991117 0.190328 0.991227 0.18796 0.991337 0.185593C0.996347 0.0826248 1.00023 -0.000480995 1 1.9588e-06C0.999769 0.00050091 0.99811 0.0843918 0.996272 0.187368C0.989742 0.516017 0.983246 0.836711 0.977849 1.12385C0.984422 1.13873 0.989223 1.21605 0.988501 1.30873C0.986981 1.54073 0.9834 2.25129 1.0109 3.36336C1.0143 3.28719 1.01741 3.22338 1.02026 3.16747C1.02359 3.10184 1.0263 3.05157 1.02853 3.00834C1.03317 2.91825 1.03591 2.8583 1.03701 2.75189C1.03666 2.50543 1.03162 2.11808 1.02604 1.71045C1.02482 1.60753 1.03251 1.52441 1.04326 1.52486C1.05402 1.52536 1.06621 1.60929 1.07039 1.71223C1.07047 1.71424 1.07055 1.71626 1.07063 1.71827C1.08621 2.12199 1.10108 2.52178 1.10742 2.77924C1.10904 2.84474 1.11012 2.90116 1.11074 2.94352C1.11125 2.97738 1.11176 3.01966 1.11132 3.04315C1.11126 3.04627 1.11113 3.05222 1.11086 3.05931C1.11085 3.05943 1.11084 3.05955 1.11083 3.05967C1.11068 3.06364 1.10994 3.08389 1.10747 3.10549C1.10698 3.10985 1.10585 3.11934 1.10387 3.13035C1.10378 3.13319 1.10369 3.13603 1.1036 3.13888C1.10232 3.17849 1.10094 3.21891 1.09962 3.26266C1.09432 3.43349 1.08867 3.70406 1.08149 4.26752C1.07501 4.78575 1.07608 5.66183 1.08748 6.75496C1.08989 6.68111 1.09212 6.60709 1.09413 6.53314C1.09919 6.34702 1.10305 6.16004 1.10611 5.97299C1.10727 5.90134 1.10833 5.83066 1.10926 5.75863C1.11076 5.64269 1.11201 5.52642 1.11299 5.41018C1.11365 5.33165 1.11419 5.25294 1.11465 5.17433C1.11465 5.17416 1.11464 5.17398 1.11464 5.1738C1.11528 5.06469 1.11576 4.9553 1.11612 4.84507C1.1163 4.80648 1.11643 4.76837 1.11653 4.73051C1.11687 4.57986 1.11697 4.43186 1.11899 4.26148C1.11951 4.24076 1.12027 4.21825 1.12094 4.20145C1.12164 4.18339 1.12236 4.16602 1.12311 4.14959C1.12378 4.1351 1.12447 4.12128 1.12509 4.10803C1.12517 4.10626 1.12526 4.10448 1.12534 4.1027C1.12603 4.08788 1.12665 4.07371 1.12722 4.06008C1.12779 4.04648 1.12833 4.03338 1.12875 4.02048C1.12874 4.02036 1.12874 4.02024 1.12874 4.02012C1.12915 4.00664 1.12946 3.9964 1.12973 3.98212C1.13007 3.96418 1.13027 3.94876 1.13036 3.93008C1.13046 3.91201 1.13045 3.89317 1.13035 3.87414C1.13026 3.85511 1.13009 3.83573 1.12986 3.81606C1.12963 3.79638 1.12936 3.77637 1.12904 3.75621C1.12872 3.73607 1.12835 3.71564 1.12797 3.69512C1.12759 3.67458 1.1272 3.65381 1.12679 3.63296C1.12586 3.58493 1.12931 3.53888 1.13629 3.50509C1.14329 3.4713 1.15319 3.45248 1.16426 3.45269C1.17533 3.45293 1.18685 3.47221 1.1967 3.50633C1.20653 3.54046 1.21386 3.58669 1.21691 3.63473C1.21774 3.64781 1.21859 3.66096 1.21942 3.67416C1.21991 3.68199 1.22039 3.6899 1.22089 3.69778C1.22221 3.71896 1.22357 3.74036 1.22488 3.76189C1.22618 3.78341 1.22745 3.80512 1.2287 3.82707C1.22995 3.84909 1.23119 3.8714 1.23234 3.89403C1.23349 3.9166 1.23458 3.93967 1.23555 3.96311C1.23652 3.98598 1.23744 4.01207 1.23809 4.03539C1.23858 4.05245 1.23897 4.07346 1.23924 4.09098C1.23953 4.10927 1.2397 4.12727 1.2398 4.14462C1.2399 4.16201 1.23991 4.17882 1.23992 4.19488C1.23992 4.1966 1.23993 4.19831 1.23993 4.20003C1.23994 4.21423 1.23993 4.22792 1.23996 4.24088C1.23999 4.25535 1.24008 4.26906 1.24022 4.28208C1.24036 4.29642 1.24057 4.30513 1.24084 4.31582C1.24622 4.45713 1.25513 4.63181 1.26358 4.79836C1.26464 4.81928 1.26568 4.84011 1.26672 4.86069C1.2723 4.97009 1.27791 5.07926 1.28349 5.18836C1.28755 5.26765 1.29161 5.34704 1.29561 5.42652C1.30151 5.54348 1.30732 5.6608 1.313 5.77799C1.31652 5.85078 1.31991 5.92223 1.32329 5.99484C1.33214 6.18443 1.34057 6.37465 1.34811 6.56511C1.35563 6.7553 1.36233 6.9467 1.36753 7.13822C1.3727 7.329 1.37643 7.52722 1.37695 7.71861C1.37727 7.85932 1.37347 8.00358 1.36846 8.13703C1.36576 8.20875 1.3628 8.27899 1.35968 8.3482C1.35966 8.34843 1.35964 8.34867 1.35962 8.34891C1.35688 8.40965 1.35407 8.46962 1.3514 8.52917C1.34563 8.65683 1.34047 8.78223 1.33643 8.90763C1.33238 9.03283 1.32944 9.15749 1.32782 9.28307C1.32622 9.40772 1.32585 9.53445 1.32674 9.65994C1.32762 9.78606 1.32969 9.90988 1.33289 10.04C1.33721 10.2111 1.34313 10.381 1.34954 10.5554C1.35596 10.7285 1.36302 10.9031 1.37015 11.0781C1.37265 11.1392 1.37507 11.2005 1.37759 11.2619C1.3776 11.2621 1.3776 11.2623 1.37761 11.2626C1.38227 11.3761 1.38696 11.4899 1.39157 11.6038C1.39867 11.7796 1.40565 11.9559 1.41204 12.1328C1.41842 12.3097 1.42427 12.4878 1.42882 12.6667C1.4333 12.8456 1.43672 13.0294 1.43628 13.214C1.436 13.3787 1.43439 13.5447 1.43255 13.7071C1.43207 13.7499 1.43158 13.7928 1.43108 13.8356C1.42877 14.039 1.42727 14.2359 1.42956 14.4306C1.43174 14.6251 1.43757 14.8196 1.44657 15.0158C1.45554 15.2114 1.46751 15.4095 1.48147 15.6091C1.49548 15.8097 1.51123 16.0076 1.52838 16.2096C1.53467 16.2835 1.54112 16.3574 1.54772 16.4316L0.671302 15.9935C0.766208 15.9082 0.861323 15.8221 0.956972 15.7352C1.0412 15.6586 1.13157 15.5782 1.21741 15.5028C1.30408 15.4268 1.39067 15.3518 1.47637 15.278C1.51115 15.2481 1.54582 15.2184 1.58022 15.1889C1.63038 15.1458 1.68014 15.1032 1.72898 15.061C1.81141 14.9899 1.89151 14.9201 1.96855 14.8512C2.04555 14.7824 2.11942 14.7144 2.18943 14.647C2.26187 14.5772 2.32028 14.5179 2.38855 14.4448C2.55972 14.2735 2.6716 14.175 2.79591 14.0657C2.82039 14.0441 2.84536 14.022 2.87135 13.999C3.02092 13.8685 3.17225 13.7407 3.32296 13.6164C3.47516 13.4909 3.62635 13.3692 3.78081 13.2477C3.93377 13.1274 4.08919 13.008 4.24518 12.8906C4.40092 12.7735 4.55762 12.6582 4.71597 12.5442C4.87419 12.4304 5.03697 12.3158 5.19442 12.2075C5.2854 12.1448 5.38287 12.0793 5.47383 12.0191C5.53943 11.9756 5.60431 11.933 5.66793 11.8913C5.69391 11.8743 5.71975 11.8573 5.74532 11.8406C5.82985 11.7851 5.91197 11.7309 5.99078 11.6776L6.47536 11.3141L6.96004 11.6775C6.96039 11.6778 6.96074 11.6781 6.96109 11.6784C6.96388 11.6807 6.96668 11.683 6.96947 11.6853C7.04569 11.7484 7.12018 11.8085 7.19428 11.8657C7.2685 11.9229 7.34236 11.9773 7.41752 12.0301C7.4955 12.0846 7.56123 12.1286 7.6467 12.183C7.7024 12.2183 7.75705 12.2529 7.81155 12.2873C7.89313 12.3388 7.97422 12.3899 8.05603 12.4411C8.13774 12.4923 8.21855 12.5427 8.29996 12.593C8.32612 12.6092 8.35376 12.6263 8.38005 12.6425C8.46128 12.6925 8.54177 12.7417 8.62249 12.7905C8.70305 12.8391 8.78316 12.887 8.86331 12.9341C8.9438 12.9814 9.02328 13.0275 9.10473 13.074C9.24321 13.1529 9.36929 13.237 9.47841 13.3125C9.58874 13.3889 9.69027 13.4624 9.78902 13.5341C9.80751 13.5475 9.826 13.561 9.84449 13.5744C9.92407 13.6323 10.0022 13.6894 10.0795 13.7452C10.1748 13.8141 10.2688 13.8811 10.3635 13.9477C10.4573 14.0138 10.5526 14.0799 10.647 14.1442C10.7423 14.209 10.834 14.2704 10.9334 14.3357C11.0316 14.4004 11.1329 14.464 11.2438 14.5339C11.3537 14.6032 11.4687 14.6763 11.5839 14.7521C11.699 14.8277 11.8147 14.9062 11.9282 14.9859C12.0419 15.0658 12.1547 15.1477 12.2648 15.23C12.3755 15.3127 12.4844 15.3965 12.5919 15.481C12.6076 15.4933 12.6234 15.5058 12.6392 15.5183L10.8129 16.4316C10.8159 16.3144 10.8201 16.1954 10.825 16.0829C10.8343 15.8694 10.8447 15.657 10.8557 15.4441C10.8666 15.2324 10.8782 15.02 10.8902 14.8081C10.9022 14.5966 10.9146 14.3848 10.9274 14.1734C10.9401 13.9618 10.9532 13.7503 10.9664 13.5392C10.9694 13.4925 10.9723 13.4457 10.9753 13.399C10.9857 13.2346 10.9962 13.0701 11.0067 12.9064C11.0068 12.9053 11.0069 12.9041 11.007 12.903C11.0204 12.6922 11.0338 12.4853 11.0469 12.2763C11.0516 12.1995 11.0562 12.1258 11.0607 12.0509C11.0652 11.9759 11.0695 11.9023 11.0736 11.828C11.0778 11.7536 11.0818 11.6797 11.0854 11.6069C11.0891 11.5333 11.0924 11.4616 11.0954 11.3892C11.0981 11.3228 11.1003 11.2569 11.1029 11.1849C11.1031 11.1783 11.1033 11.1718 11.1036 11.1652C11.1064 11.0864 11.1103 10.9968 11.1153 10.9135C11.1288 10.693 11.1414 10.478 11.1536 10.2591C11.1657 10.0401 11.1774 9.8216 11.1891 9.60127C11.1937 9.51524 11.1983 9.4288 11.203 9.34233C11.2103 9.20782 11.2177 9.07282 11.2256 8.93741C11.2384 8.7146 11.2522 8.49134 11.2674 8.26662C11.2826 8.04276 11.2992 7.81746 11.3171 7.59317C11.3348 7.36905 11.354 7.14299 11.3739 6.91989C11.396 6.67132 11.4185 6.42418 11.4412 6.17593C11.4638 5.92809 11.4865 5.6801 11.5091 5.43321C11.5317 5.18543 11.5542 4.93827 11.5765 4.69103C11.5988 4.44365 11.6209 4.19642 11.6427 3.94902C11.6558 3.80096 11.6688 3.65294 11.6817 3.50485C11.6852 3.4265 11.6887 3.35138 11.6923 3.27912C11.7188 2.74519 11.7438 2.35913 11.7846 1.84981C11.7883 1.80103 11.791 1.76134 11.7944 1.71306C11.7951 1.70385 11.7958 1.69408 11.7965 1.68411C11.801 1.62101 11.8065 1.54854 11.8152 1.44773C11.8322 1.24662 11.8641 0.938361 11.9044 0.540022C11.9147 0.439397 11.9228 0.375367 11.9238 0.397055C11.9246 0.412301 11.9225 0.465745 11.9189 0.530964C11.9274 0.41047 11.9355 0.290299 11.9434 0.170439C11.9466 0.122597 11.9496 0.0776818 11.9517 0.045765C11.9536 0.0161864 11.9544 9.95768e-07 11.9544 0C11.9544 0 11.9544 0 11.9544 0C11.9544 7.81348e-08 11.9544 9.95539e-05 11.9544 0.000299771C11.9543 0.00305587 11.9532 0.0247693 11.9519 0.0606832C11.9505 0.0965846 11.949 0.14369 11.9472 0.191751C11.9423 0.319249 11.9375 0.446317 11.9326 0.57341C11.9278 0.700609 11.923 0.827208 11.9182 0.954181C11.9135 1.08112 11.9088 1.20801 11.9042 1.33531C11.8996 1.4621 11.8951 1.58915 11.8907 1.71643C11.8862 1.84452 11.882 1.97019 11.8777 2.09792C11.8752 2.17444 11.8727 2.25188 11.8702 2.32791C11.8693 2.35624 11.8685 2.38389 11.8676 2.41155C11.8669 2.43417 11.8662 2.45689 11.8654 2.48028C11.8577 2.72638 11.8503 2.97483 11.8434 3.22105C11.8365 3.46843 11.8299 3.71557 11.8238 3.9627C11.8177 4.20996 11.8121 4.45702 11.8068 4.70417C11.8016 4.95121 11.7967 5.1981 11.7923 5.44547C11.788 5.69192 11.784 5.93938 11.7806 6.18623C11.7779 6.37718 11.7757 6.56651 11.7738 6.75615C11.7761 6.8308 11.7784 6.90469 11.7807 6.97761C11.7872 7.18987 11.7981 7.40243 11.8101 7.61182C11.8082 7.23913 11.8022 6.93976 11.7977 6.65474C11.7971 6.61652 11.7965 6.57857 11.796 6.54072C11.7904 6.1544 11.7894 5.7812 11.8041 5.27924C11.8455 3.8516 11.8705 3.0238 11.8875 2.50799C11.9045 1.99227 11.9146 1.77068 11.926 1.56388C11.9426 1.27165 11.9495 0.707646 11.9513 0.424227C11.9523 0.321272 11.9543 0.23817 11.9559 0.238637C11.9574 0.239134 11.9605 0.32303 11.9627 0.426003C11.9685 0.72527 11.9775 1.33558 11.9652 1.6834C11.9599 1.83832 11.9558 2.01646 11.9512 2.52433C11.9464 3.03225 11.9415 3.85241 11.93 5.28279C11.9259 5.76669 11.9338 6.12584 11.9466 6.50804C11.9479 6.54552 11.9492 6.58327 11.9505 6.62135C11.9505 6.62159 11.9505 6.62182 11.9505 6.62206C11.9627 6.97314 11.978 7.35543 11.9866 7.87093C12.0053 9.05911 12.0522 10.6574 12.0782 11.0368C12.0832 11.1113 12.0887 11.1832 12.0946 11.2592C12.1171 11.5506 12.1454 11.9024 12.1713 12.6952C12.177 12.8686 12.1814 13.0717 12.1847 13.2934C12.2225 13.626 12.2593 13.9489 12.2826 14.2297C12.3027 14.472 12.3374 14.6955 12.3757 14.912C12.3868 14.9743 12.3984 15.0371 12.4099 15.0997C12.4379 15.2508 12.4662 15.4019 12.4888 15.5492C12.5068 15.6666 12.5282 15.7896 12.5511 15.9195C12.5792 16.0786 12.6094 16.2484 12.6378 16.4316L12.6712 17.7804L11.5445 16.9784C11.2212 16.8061 10.8595 16.5969 10.4613 16.3101C9.82533 15.8521 9.29362 15.443 8.83733 15.087C9.16809 15.3542 9.41903 15.5663 9.62757 15.7437C9.6669 15.7771 9.70458 15.8092 9.74086 15.8401C9.99711 16.0581 10.184 16.2159 10.3968 16.3682C10.8519 16.6938 11.1833 16.9235 11.4526 17.101L12.8319 18.0828L12.791 16.4316C12.7668 16.0344 12.7356 15.7606 12.691 15.4684C12.6698 15.3292 12.6424 15.1755 12.6133 15.01C12.5551 14.6793 12.4904 14.3009 12.4505 13.8944C12.4132 13.5157 12.362 13.0922 12.3106 12.6435C12.3106 12.6434 12.3106 12.6432 12.3106 12.643C12.3005 12.5553 12.2904 12.4666 12.2804 12.3771C12.2193 11.8316 12.162 11.2578 12.1261 10.6992C12.1222 10.6394 12.117 10.5679 12.1112 10.4857C12.076 10.0115 12.0256 9.17891 12.0454 8.16219C12.0493 7.93888 12.0593 7.70684 12.0693 7.44203C12.0724 7.36138 12.0755 7.27763 12.0783 7.1902C12.0908 6.81274 12.1005 6.35412 12.0968 5.74348C12.0938 5.23952 12.0823 4.62533 12.0687 3.98756C12.0619 3.67341 12.0545 3.35354 12.047 3.0383C12.0243 2.08606 12.0002 1.21329 11.9676 0.342177C11.9676 0.341999 11.9676 0.341822 11.9676 0.341644C11.964 0.238733 11.9618 0.158121 11.9629 0.161737C11.9641 0.16539 11.9708 0.251745 11.9775 0.354609C12.0332 1.22623 12.079 2.09634 12.1237 3.0454C12.1384 3.35586 12.1529 3.67322 12.1666 3.98614C12.1947 4.62701 12.2194 5.24974 12.2327 5.7584C12.2489 6.37943 12.2478 6.84644 12.2421 7.22909C12.2408 7.32125 12.2392 7.4079 12.2375 7.49016C12.2323 7.75203 12.2266 7.96974 12.2265 8.18155C12.2246 9.16599 12.2851 9.96708 12.3272 10.4431C12.3344 10.5275 12.3408 10.6017 12.3458 10.6649C12.3889 11.2125 12.4528 11.7776 12.5205 12.3226C12.5315 12.411 12.5425 12.499 12.5536 12.5863C12.5537 12.5865 12.5537 12.5867 12.5538 12.5869C12.6106 13.0355 12.6675 13.4666 12.7096 13.8523C12.7523 14.2438 12.8143 14.5852 12.8735 14.9045C12.9053 15.0759 12.9361 15.241 12.9625 15.4039C13.0133 15.7188 13.0488 16.0128 13.0771 16.4316L13.132 18.6475L11.2809 17.3299C11.0055 17.1511 10.6715 16.923 10.2217 16.6056ZM11.9058 0.717265C11.8867 0.964937 11.8713 1.16673 11.8613 1.31701C11.8711 1.18939 11.8806 1.06206 11.89 0.934645C11.8953 0.862123 11.9006 0.789686 11.9058 0.717265ZM11.9296 13.3237C11.9254 13.2836 11.9213 13.2432 11.9172 13.2026C11.919 13.3146 11.9207 13.4266 11.9224 13.5385C11.9245 13.6758 11.9266 13.8131 11.9286 13.9503C11.9297 13.7321 11.9302 13.5206 11.9296 13.3237ZM10.6368 16.073C11.0389 16.3665 11.3946 16.5722 11.7189 16.7458L12.3662 17.2066L12.3471 16.4316C12.3247 16.2861 12.3013 16.1476 12.2787 16.0133C12.256 15.878 12.2343 15.7468 12.2155 15.6171C12.2077 15.5632 12.1992 15.5095 12.1902 15.4553C12.1882 15.771 12.1856 16.0611 12.1832 16.2987C12.1828 16.3442 12.1823 16.3885 12.1817 16.4316L12.1928 16.8802L11.8181 16.6135C11.3211 16.2302 11.0343 15.9884 10.7805 15.7739C10.702 15.7076 10.6266 15.6438 10.5493 15.5793C10.4765 15.5376 10.4012 15.4939 10.3259 15.4487C10.2204 15.3856 10.1073 15.3162 10.0002 15.2493C9.8928 15.1821 9.78433 15.1129 9.67856 15.0439C9.57191 14.9743 9.46696 14.9044 9.36299 14.8342C9.26514 14.7681 9.16812 14.7016 9.07424 14.6372C9.06886 14.6336 9.06349 14.6299 9.05812 14.6262C8.95887 14.5582 8.86236 14.492 8.77244 14.4329C8.68087 14.3727 8.60341 14.3244 8.53183 14.2854C8.44245 14.2366 8.35131 14.1859 8.26167 14.135C8.17192 14.0841 8.08305 14.0328 7.99487 13.9811C7.90651 13.9292 7.8194 13.8774 7.7324 13.8249C7.70427 13.8079 7.67488 13.7901 7.64705 13.7732C7.63423 13.7654 7.62139 13.7577 7.60861 13.7499C7.76653 13.8689 7.93021 13.9928 8.09897 14.1214C8.34276 14.3072 8.59948 14.5103 8.88302 14.7339C9.36671 15.1153 9.92861 15.556 10.6368 16.073ZM5.78194 13.4573C5.85033 13.4052 5.94972 13.3279 6.07786 13.2282C6.10815 13.2046 6.14005 13.1796 6.17353 13.1535C6.17268 13.1541 6.17186 13.1547 6.17102 13.1552C6.08203 13.2119 6.00011 13.2645 5.9123 13.3221C5.75582 13.4248 5.60455 13.5256 5.45263 13.6285C5.30012 13.7319 5.1489 13.8361 4.99832 13.9416C4.84753 14.0472 4.69718 14.1543 4.54904 14.2616C4.39948 14.37 4.25283 14.4779 4.10594 14.5884C4.05915 14.6236 4.01232 14.6591 3.96562 14.6947C4.0755 14.6227 4.1886 14.5466 4.30804 14.4663C4.40343 14.4021 4.50293 14.3352 4.60805 14.2654C4.64827 14.2387 4.69745 14.2071 4.75483 14.1701C4.9822 14.0238 5.33916 13.7944 5.78194 13.4573ZM2.8368 15.6333C2.80365 15.6602 2.77057 15.6868 2.7377 15.7128C2.6441 15.7869 2.55182 15.8577 2.46103 15.9267C2.39725 15.9752 2.33399 16.0228 2.27168 16.0697C2.24539 16.0895 2.21914 16.1094 2.19314 16.129C2.14957 16.1618 2.1064 16.1945 2.06356 16.227C2.37303 16.0111 2.67435 15.7983 2.98512 15.5723C2.98922 15.5694 2.99329 15.5663 2.99742 15.5633C2.94263 15.5872 2.88911 15.6105 2.8368 15.6333Z" fill="var(--stroke-0, #A98BFF)"/>
</svg>
