<svg preserveAspectRatio="none" width="100%" height="100%" overflow="visible" style="display: block;" viewBox="0 0 4 6" fill="none" xmlns="http://www.w3.org/2000/svg">
<path id="Vector" d="M3.55164 2.06136C3.56225 2.09412 3.54411 2.12483 3.51924 2.16362C3.51925 2.16364 3.51925 2.16366 3.51926 2.16368C3.5157 2.16922 3.51192 2.17493 3.50815 2.18083C3.47772 2.22836 3.44156 2.2901 3.42528 2.38321C3.40731 2.48609 3.29647 2.56776 3.18769 2.61764C3.16739 2.62694 3.15639 2.63657 3.14649 2.66085C3.14151 2.67302 3.13692 2.68845 3.13101 2.70891C3.12918 2.71524 3.12722 2.72205 3.12509 2.72939C3.12027 2.74591 3.11462 2.76515 3.10734 2.78767C3.08347 2.86221 3.08412 2.97904 3.07805 3.08668C3.0746 3.15202 3.06906 3.21399 3.05819 3.26105C3.04229 3.32989 3.00972 3.39631 2.97319 3.46851C2.93963 3.53464 2.90282 3.60562 2.86995 3.68775C2.84449 3.75077 2.7553 3.81199 2.66334 3.87421C2.65161 3.88213 2.63983 3.89008 2.62808 3.89804C2.54686 3.95295 2.4681 4.00908 2.41914 4.06977C2.3324 4.17795 2.34464 4.26429 2.34532 4.35988C2.34588 4.39726 2.34525 4.43607 2.33876 4.47816C2.32854 4.54471 2.29689 4.6404 2.26325 4.73648C2.26038 4.74466 2.25754 4.75286 2.25465 4.76103C2.25463 4.76107 2.25462 4.76111 2.25461 4.76115C2.22343 4.8491 2.19192 4.93542 2.17082 4.99875C2.13724 5.09938 2.12738 5.13724 2.11809 5.16882C2.11456 5.18069 2.11104 5.19168 2.10593 5.20478C2.08747 5.25196 2.04973 5.32319 2.01184 5.39539C2.0117 5.39567 2.01155 5.39595 2.01141 5.39622C2.00481 5.4082 1.9997 5.41787 2 5.41782C2.0003 5.41776 2.00249 5.408 2.00491 5.39601C2.01351 5.35777 2.02206 5.32045 2.02916 5.28703C2.02051 5.2853 2.01419 5.2763 2.01514 5.26552C2.01714 5.23852 2.02186 5.15583 1.98565 5.02642C1.98118 5.03528 1.97708 5.04271 1.97333 5.04922C1.96894 5.05685 1.96538 5.0627 1.96243 5.06773C1.95633 5.07822 1.95273 5.0852 1.95127 5.09758C1.95173 5.12626 1.95837 5.17133 1.96572 5.21877C1.96732 5.23075 1.9572 5.24042 1.94304 5.24037C1.92887 5.24031 1.91283 5.23054 1.90733 5.21856C1.90722 5.21833 1.90712 5.21809 1.90701 5.21786C1.8865 5.17088 1.86692 5.12435 1.85857 5.09439C1.85644 5.08677 1.85502 5.08021 1.8542 5.07528C1.85353 5.07134 1.85285 5.06642 1.85344 5.06368C1.85351 5.06332 1.85369 5.06263 1.85404 5.0618C1.85406 5.06179 1.85407 5.06177 1.85408 5.06176C1.85428 5.0613 1.85525 5.05894 1.8585 5.05643C1.85916 5.05592 1.86064 5.05482 1.86325 5.05353C1.86337 5.0532 1.86349 5.05287 1.86361 5.05254C1.86528 5.04793 1.86711 5.04323 1.86885 5.03814C1.87582 5.01826 1.88326 4.98677 1.89272 4.9212C1.90125 4.86089 1.89983 4.75894 1.88483 4.63173C1.88165 4.64033 1.87872 4.64894 1.87607 4.65755C1.86941 4.67921 1.86433 4.70097 1.8603 4.72273C1.85877 4.73107 1.85738 4.7393 1.85616 4.74768C1.85417 4.76117 1.85253 4.7747 1.85124 4.78823C1.85037 4.79737 1.84966 4.80653 1.84905 4.81567C1.84906 4.8157 1.84906 4.81572 1.84907 4.81574C1.84822 4.82843 1.84759 4.84116 1.84712 4.85399C1.84688 4.85848 1.84671 4.86292 1.84658 4.86732C1.84613 4.88485 1.846 4.90208 1.84334 4.9219C1.84266 4.92432 1.84165 4.92693 1.84077 4.92889C1.83986 4.93099 1.83891 4.93301 1.83792 4.93493C1.83704 4.93661 1.83613 4.93822 1.83531 4.93976C1.8352 4.93997 1.83509 4.94017 1.83498 4.94038C1.83407 4.94211 1.83325 4.94376 1.8325 4.94534C1.83176 4.94692 1.83105 4.94845 1.8305 4.94995C1.8305 4.94996 1.83051 4.94998 1.83051 4.94999C1.82996 4.95156 1.82955 4.95275 1.8292 4.95441C1.82875 4.9565 1.82849 4.9583 1.82837 4.96047C1.82825 4.96257 1.82826 4.96477 1.82838 4.96698C1.8285 4.96919 1.82873 4.97145 1.82903 4.97374C1.82933 4.97603 1.82968 4.97836 1.8301 4.9807C1.83052 4.98305 1.83102 4.98542 1.83151 4.98781C1.83201 4.9902 1.83253 4.99262 1.83307 4.99505C1.8343 5.00064 1.82975 5.00599 1.82056 5.00993C1.81135 5.01386 1.79831 5.01605 1.78374 5.01602C1.76917 5.016 1.754 5.01375 1.74103 5.00978C1.72809 5.00581 1.71844 5.00043 1.71442 4.99484C1.71333 4.99332 1.71222 4.99179 1.71112 4.99025C1.71047 4.98934 1.70984 4.98842 1.70919 4.9875C1.70744 4.98504 1.70565 4.98255 1.70393 4.98004C1.70222 4.97754 1.70054 4.97501 1.6989 4.97246C1.69725 4.9699 1.69563 4.9673 1.69411 4.96467C1.6926 4.96204 1.69116 4.95935 1.68988 4.95663C1.68861 4.95396 1.68739 4.95093 1.68654 4.94821C1.68589 4.94623 1.68537 4.94378 1.68502 4.94175C1.68465 4.93962 1.68442 4.93752 1.68429 4.9355C1.68416 4.93348 1.68415 4.93152 1.68413 4.92965C1.68413 4.92945 1.68412 4.92926 1.68411 4.92906C1.6841 4.9274 1.68411 4.92581 1.68408 4.9243C1.68404 4.92262 1.68392 4.92102 1.68373 4.91951C1.68355 4.91784 1.68328 4.91682 1.68292 4.91558C1.67583 4.89914 1.66411 4.87881 1.65298 4.85943C1.65158 4.85699 1.65021 4.85457 1.64884 4.85217C1.6415 4.83944 1.63411 4.82674 1.62676 4.81404C1.62142 4.80482 1.61608 4.79558 1.6108 4.78633C1.60303 4.77271 1.59539 4.75906 1.58791 4.74543C1.58328 4.73695 1.57882 4.72864 1.57436 4.72019C1.56271 4.69813 1.55162 4.67599 1.54169 4.65383C1.53179 4.6317 1.52296 4.60942 1.51612 4.58713C1.50932 4.56493 1.50441 4.54187 1.50371 4.51959C1.5033 4.50322 1.5083 4.48643 1.5149 4.4709C1.51845 4.46255 1.52235 4.45438 1.52645 4.44633C1.52648 4.4463 1.52651 4.44627 1.52654 4.44625C1.53014 4.43918 1.53384 4.4322 1.53735 4.42527C1.54495 4.41041 1.55175 4.39582 1.55707 4.38123C1.5624 4.36666 1.56627 4.35215 1.5684 4.33753C1.5705 4.32303 1.571 4.30828 1.56983 4.29368C1.56866 4.279 1.56594 4.26459 1.56172 4.24945C1.55604 4.22954 1.54825 4.20977 1.53981 4.18947C1.53135 4.16933 1.52206 4.14902 1.51267 4.12865C1.50938 4.12153 1.50619 4.1144 1.50288 4.10726C1.50287 4.10723 1.50286 4.1072 1.50285 4.10718C1.49671 4.09397 1.49054 4.08073 1.48448 4.06747C1.47512 4.04702 1.46593 4.0265 1.45752 4.00591C1.44912 3.98532 1.44142 3.9646 1.43543 3.94378C1.42953 3.92296 1.42503 3.90157 1.42561 3.88008C1.42597 3.86092 1.4281 3.8416 1.43051 3.82271C1.43115 3.81772 1.43179 3.81274 1.43246 3.80775C1.43549 3.78408 1.43747 3.76117 1.43446 3.73851C1.43159 3.71587 1.42391 3.69325 1.41206 3.67041C1.40025 3.64765 1.38449 3.6246 1.36612 3.60136C1.34766 3.57803 1.32693 3.55499 1.30435 3.53149C1.28188 3.50816 1.25787 3.48473 1.2325 3.46101C1.21844 3.44783 1.20516 3.4338 1.19362 3.42054C1.18197 3.40716 1.17141 3.39387 1.16148 3.38074C1.15744 3.37541 1.15356 3.37011 1.14964 3.36485C1.14393 3.35717 1.13833 3.34956 1.13254 3.34207C1.12278 3.32943 1.11253 3.3171 1.10086 3.30512C1.08921 3.29314 1.07601 3.28152 1.0603 3.27029C1.04398 3.25867 1.0277 3.2491 1.00471 3.23764C0.959481 3.20974 0.944226 3.19245 0.927247 3.17324C0.923902 3.16946 0.920367 3.16559 0.916651 3.16156C0.897418 3.13853 0.882379 3.11551 0.870511 3.0928C0.858601 3.06987 0.849892 3.0473 0.843976 3.02443C0.838099 3.00179 0.835172 2.97899 0.83486 2.95627C0.834546 2.9336 0.836913 2.91095 0.842014 2.88826C0.847093 2.86558 0.855105 2.84242 0.865353 2.8202C0.87125 2.80735 0.879326 2.79371 0.887729 2.78103C0.893777 2.77189 0.90019 2.76288 0.90653 2.75404C0.909119 2.75043 0.911705 2.74685 0.914236 2.7433C0.922643 2.7315 0.930518 2.72002 0.936672 2.70891C0.936906 2.70849 0.937137 2.70807 0.937366 2.70764C0.943633 2.69614 0.94809 2.68501 0.949793 2.67412C0.951516 2.66321 0.950476 2.65254 0.94665 2.64186C0.942546 2.63079 0.936981 2.6216 0.926749 2.60985C0.919992 2.60219 0.913199 2.59469 0.906429 2.58722C0.896292 2.57602 0.886 2.56491 0.875375 2.55371C0.86476 2.54253 0.853967 2.5315 0.842748 2.5204C0.839142 2.51683 0.835341 2.51306 0.831631 2.50949C0.820166 2.49843 0.808411 2.4875 0.796015 2.47658C0.78364 2.46569 0.770753 2.45489 0.757094 2.44414C0.743383 2.43334 0.729134 2.42272 0.713746 2.4119C0.687501 2.39349 0.676586 2.37588 0.669848 2.36045C0.663236 2.34484 0.660492 2.33026 0.658017 2.31606C0.657555 2.3134 0.657098 2.31074 0.656645 2.30808C0.654799 2.29663 0.653207 2.28537 0.650971 2.27427C0.648237 2.2606 0.644626 2.24717 0.640023 2.2337C0.635483 2.22035 0.629907 2.20686 0.62303 2.19359C0.616063 2.18018 0.608344 2.16737 0.598657 2.15355C0.589181 2.13989 0.576123 2.12602 0.562237 2.11081C0.548445 2.09575 0.534639 2.07993 0.523455 2.06392C0.51221 2.04792 0.503472 2.03167 0.497843 2.01554C0.492164 1.99937 0.489356 1.98315 0.48908 1.96715C0.488785 1.95107 0.491012 1.93509 0.495138 1.91919C0.499241 1.90332 0.505502 1.88693 0.51304 1.87159C0.525239 1.84675 0.538938 1.82202 0.553392 1.79725C0.567811 1.77261 0.583087 1.7479 0.598902 1.72324C0.614699 1.69862 0.631019 1.67398 0.647803 1.64937C0.664594 1.62476 0.681788 1.60015 0.699254 1.57557C0.703116 1.57013 0.706991 1.5647 0.710876 1.55926C0.724564 1.54012 0.7384 1.52099 0.752223 1.50193C0.752344 1.5018 0.752465 1.50167 0.752586 1.50154C0.770321 1.47701 0.787901 1.45293 0.805116 1.4286C0.811398 1.41967 0.817434 1.4111 0.823349 1.40238C0.829265 1.39365 0.834909 1.38508 0.840393 1.37644C0.845878 1.36779 0.851076 1.35918 0.855878 1.35071C0.860712 1.34214 0.86513 1.3338 0.86901 1.32537C0.872607 1.31765 0.875533 1.30998 0.878881 1.3016C0.879185 1.30084 0.879489 1.30007 0.879794 1.29931C0.883457 1.29014 0.888598 1.27972 0.895238 1.27002C0.913062 1.24435 0.929565 1.21933 0.945593 1.19386C0.961637 1.16838 0.976945 1.14295 0.992425 1.11731C0.998478 1.1073 1.00449 1.09724 1.01067 1.08718C1.02027 1.07153 1.0301 1.05582 1.04038 1.04006C1.05728 1.01413 1.07547 0.988148 1.09552 0.961997C1.1155 0.935947 1.13738 0.909728 1.16085 0.883627C1.18428 0.857546 1.20952 0.831239 1.23567 0.805277C1.26483 0.776349 1.29446 0.74759 1.32427 0.718701C1.35405 0.689859 1.38397 0.661001 1.41365 0.63227C1.44342 0.603434 1.47301 0.574672 1.50237 0.545901C1.53175 0.517113 1.56087 0.488343 1.58963 0.459553C1.60685 0.442322 1.62395 0.425097 1.64089 0.407864C1.64557 0.398746 1.65021 0.390004 1.65489 0.381596C1.6898 0.319461 1.72274 0.274535 1.77641 0.215265C1.7813 0.209588 1.78488 0.20497 1.78937 0.199351C1.79023 0.198279 1.79116 0.197142 1.7921 0.195982C1.79805 0.188639 1.80526 0.180206 1.81673 0.168474C1.83907 0.145071 1.88107 0.109198 1.93415 0.062843C1.94767 0.0511332 1.95838 0.043682 1.95972 0.0462058C1.96075 0.04798 1.95803 0.0541993 1.95329 0.061789C1.96437 0.0477669 1.97511 0.0337825 1.98548 0.0198342C1.98964 0.0142667 1.9937 0.00903993 1.99637 0.00532573C1.99887 0.00188363 2.00001 1.15947e-07 2 0C2 0 2 0 2 0C2 9.09448e-09 1.99999 1.15852e-05 1.99998 3.48847e-05C1.99978 0.000355616 1.99844 0.00288243 1.99668 0.00706179C1.99489 0.0112397 1.99282 0.0167214 1.99042 0.0223143C1.98404 0.0371515 1.97765 0.0519384 1.97129 0.0667285C1.96491 0.0815308 1.9586 0.0962632 1.95235 0.111039C1.94611 0.125811 1.93995 0.140578 1.93388 0.155391C1.92784 0.170147 1.92189 0.184932 1.91607 0.199744C1.91021 0.214649 1.90462 0.229274 1.89905 0.244137C1.89572 0.253042 1.89238 0.262054 1.88917 0.270901C1.88797 0.274199 1.88683 0.277416 1.88568 0.280636C1.88474 0.283267 1.88378 0.285912 1.88281 0.288634C1.87265 0.317272 1.86291 0.346184 1.85383 0.374837C1.8447 0.403626 1.83611 0.432386 1.82808 0.461144C1.82003 0.489919 1.81259 0.518668 1.80566 0.547431C1.79874 0.576179 1.79237 0.60491 1.78658 0.633696C1.78082 0.662376 1.77558 0.691173 1.77108 0.7199C1.7676 0.742121 1.76465 0.764153 1.76219 0.786221C1.76528 0.794909 1.76827 0.803507 1.77122 0.811993C1.77981 0.836695 1.79421 0.86143 1.81004 0.885797C1.80754 0.842427 1.79962 0.807588 1.79371 0.77442C1.79292 0.769973 1.79214 0.765556 1.79143 0.761152C1.78405 0.716195 1.78276 0.672766 1.80211 0.614351C1.85658 0.448215 1.88946 0.351884 1.91192 0.291858C1.93433 0.231843 1.94751 0.206057 1.96255 0.18199C1.98439 0.147984 1.99346 0.0823497 1.99591 0.0493679C1.9972 0.0373869 1.99988 0.0277161 2.00192 0.0277705C2.00397 0.0278283 2.008 0.0375914 2.01084 0.0495745C2.01856 0.0844006 2.03043 0.155423 2.01416 0.195899C2.00715 0.213927 2.00186 0.234659 1.99578 0.293759C1.98949 0.352867 1.98303 0.44831 1.96779 0.614765C1.96239 0.671077 1.97281 0.712871 1.98972 0.757349C1.99136 0.761711 1.99312 0.766103 1.99486 0.770535C1.99486 0.770562 1.99486 0.77059 1.99486 0.770617C2.01086 0.811474 2.03101 0.85596 2.0424 0.91595C2.06701 1.05422 2.12876 1.24021 2.16301 1.28437C2.16954 1.29303 2.17683 1.30141 2.18456 1.31024C2.21418 1.34415 2.25138 1.38509 2.28554 1.47736C2.29298 1.49754 2.29881 1.52117 2.30322 1.54697C2.35298 1.58567 2.40136 1.62325 2.43209 1.65592C2.45855 1.68413 2.50415 1.71013 2.55469 1.73533C2.56924 1.74258 2.58447 1.74988 2.59973 1.75717C2.6365 1.77476 2.67375 1.79234 2.70349 1.80948C2.72719 1.82315 2.75546 1.83745 2.7856 1.85257C2.89493 1.90766 3.03213 1.97367 3.05125 2.05968C3.07102 2.15086 3.06 2.22893 3.04547 2.29626C3.06565 2.24681 3.0909 2.20864 3.11303 2.17685C3.11721 2.17085 3.12125 2.1651 3.12511 2.15957C3.1524 2.12049 3.17103 2.09207 3.16339 2.06162C3.12603 1.91618 3.07561 1.86163 2.9698 1.80008C2.94184 1.78387 2.90581 1.766 2.86751 1.74674C2.79085 1.70824 2.70563 1.66421 2.65309 1.6169C2.604 1.57284 2.5366 1.52356 2.46889 1.47134C2.46889 1.47132 2.46888 1.4713 2.46888 1.47128C2.45564 1.46108 2.44238 1.45076 2.42921 1.44034C2.34874 1.37686 2.27324 1.31008 2.22595 1.24508C2.22088 1.23813 2.21408 1.2298 2.20636 1.22024C2.16006 1.16505 2.09375 1.06816 2.11974 0.949845C2.12495 0.923858 2.13811 0.896854 2.15126 0.866039C2.15527 0.856653 2.15934 0.846907 2.16314 0.836732C2.1796 0.792807 2.19228 0.739438 2.18742 0.668376C2.18347 0.60973 2.16841 0.538256 2.15038 0.464038C2.14147 0.42748 2.13181 0.390256 2.12189 0.353571C2.09206 0.242757 2.06029 0.141192 2.01736 0.0398196C2.01735 0.0397989 2.01735 0.0397782 2.01734 0.0397576C2.01256 0.0277816 2.00965 0.0184007 2.0112 0.0188215C2.01274 0.0192467 2.02154 0.0292959 2.03044 0.0412663C2.10369 0.142698 2.16395 0.243953 2.22287 0.354397C2.24217 0.390525 2.26131 0.427457 2.27937 0.463872C2.3163 0.538452 2.34883 0.610919 2.36631 0.670112C2.38773 0.742383 2.3863 0.796729 2.37878 0.841258C2.37699 0.851983 2.37487 0.862067 2.37271 0.871639C2.36584 0.902114 2.35833 0.927448 2.35824 0.952097C2.35566 1.06666 2.43534 1.15988 2.49072 1.21528C2.50025 1.2251 2.50866 1.23374 2.51523 1.24109C2.572 1.30482 2.6561 1.37057 2.74534 1.434C2.75979 1.44429 2.7743 1.45453 2.78887 1.46469C2.78893 1.46471 2.78899 1.46473 2.78905 1.46475C2.86385 1.51695 2.93877 1.56712 2.99425 1.61201C3.05043 1.65756 3.13202 1.6973 3.21008 1.73446C3.25192 1.7544 3.2925 1.77361 3.32714 1.79258C3.44583 1.85788 3.50332 1.91545 3.55164 2.06136ZM1.93595 0.083469C1.91089 0.112291 1.8905 0.135774 1.87744 0.153263C1.89026 0.13841 1.90285 0.123594 1.91518 0.108766C1.9222 0.100326 1.92912 0.0918968 1.93595 0.083469ZM1.96726 1.5505C1.96185 1.54583 1.9564 1.54113 1.95095 1.53641C1.95333 1.54944 1.95556 1.56247 1.95784 1.57549C1.96064 1.59147 1.96332 1.60744 1.96603 1.62341C1.96747 1.59802 1.96807 1.57341 1.96726 1.5505ZM2.6629 2.05989C2.65087 1.97877 2.53045 1.91815 2.42696 1.86349C2.39705 1.84775 2.36843 1.83248 2.34369 1.81738C2.33343 1.81111 2.3222 1.80486 2.31037 1.79855C2.30783 1.83529 2.30436 1.86906 2.30124 1.8967C2.29196 1.97919 2.2616 2.02614 2.23431 2.06739C2.22641 2.07933 2.21878 2.0908 2.21194 2.1025C2.22543 2.11219 2.23888 2.12225 2.2508 2.13241C2.26763 2.14664 2.28394 2.16202 2.29794 2.17666C2.31202 2.19135 2.32476 2.20628 2.33561 2.22095C2.34656 2.23574 2.35583 2.25039 2.36395 2.26497C2.37161 2.27869 2.37819 2.29237 2.38456 2.3056C2.38492 2.30636 2.38528 2.30712 2.38564 2.30788C2.39242 2.32186 2.3989 2.33547 2.40761 2.34797C2.41655 2.3607 2.42691 2.37128 2.44233 2.38067C2.46155 2.39239 2.48006 2.40442 2.4973 2.41632C2.51458 2.42823 2.5307 2.44008 2.54582 2.45191C2.56098 2.46376 2.57516 2.47549 2.5886 2.48725C2.59295 2.49105 2.59742 2.49503 2.60158 2.4988C2.6035 2.50054 2.60547 2.50228 2.60736 2.50401C2.60798 2.481 2.60923 2.45711 2.61145 2.43242C2.61464 2.39675 2.62584 2.35867 2.63738 2.31666C2.65713 2.245 2.6776 2.16192 2.6629 2.05989ZM2.64579 2.85279C2.64497 2.84279 2.64211 2.82814 2.6383 2.80925C2.6374 2.80478 2.63631 2.80007 2.63532 2.79513C2.63522 2.79525 2.63521 2.79537 2.63511 2.79548C2.62444 2.80772 2.6151 2.81902 2.6064 2.83122C2.59095 2.85296 2.57758 2.87408 2.56597 2.89541C2.55433 2.91682 2.54463 2.93818 2.5367 2.95956C2.52878 2.98097 2.52279 3.00245 2.51877 3.02373C2.51475 3.04522 2.51254 3.06641 2.51283 3.0878C2.51291 3.09461 2.51326 3.10145 2.51385 3.10828C2.52487 3.09303 2.53414 3.07719 2.54388 3.06046C2.55165 3.0471 2.55978 3.03316 2.56936 3.0185C2.57303 3.01289 2.57856 3.00611 2.58502 2.99819C2.61055 2.9668 2.65101 2.91755 2.64579 2.85279ZM2.61049 3.27891C2.61261 3.28388 2.61446 3.28881 2.6159 3.29369C2.61999 3.30758 2.62167 3.32111 2.6226 3.33438C2.62324 3.3437 2.62338 3.35291 2.6236 3.36199C2.62369 3.36583 2.62383 3.36965 2.62394 3.37344C2.62411 3.37979 2.62446 3.3861 2.62483 3.39235C2.6419 3.34847 2.65595 3.30556 2.66348 3.26085C2.66358 3.26026 2.66357 3.25967 2.66366 3.25907C2.64552 3.26584 2.62779 3.27245 2.61049 3.27891Z" fill="var(--stroke-0, #FF6B6B)"/>
</svg>
