<svg preserveAspectRatio="none" width="100%" height="100%" overflow="visible" style="display: block;" viewBox="0 0 19 8" fill="none" xmlns="http://www.w3.org/2000/svg">
<path id="Vector" d="M11.8316 3.82633C11.7135 3.80732 11.6094 3.76422 11.476 3.71066C11.4759 3.71065 11.4758 3.71064 11.4757 3.71063C11.4567 3.70299 11.437 3.69507 11.4166 3.68708C11.2526 3.62315 11.036 3.54457 10.6974 3.48527C10.3242 3.42051 10.0297 3.29564 9.84458 3.18134C9.81013 3.1601 9.77411 3.14781 9.68221 3.13622C9.63617 3.13046 9.57773 3.12509 9.5 3.11923C9.5 3.11923 9.5 3.11923 9.5 3.11923C9.47596 3.11742 9.45008 3.11557 9.42217 3.11367C9.35935 3.10941 9.2861 3.10495 9.20024 3.10033C8.91578 3.08411 8.47012 3.1163 8.06286 3.17105C7.81552 3.2035 7.58197 3.24239 7.40374 3.26981C7.14309 3.30989 6.88845 3.34141 6.61119 3.38658C6.35741 3.42812 6.0846 3.48114 5.77482 3.568C5.53739 3.63449 5.28321 3.64895 5.0206 3.67374C4.9872 3.67687 4.9536 3.6802 4.92 3.68372C4.69628 3.7071 4.46743 3.7423 4.23757 3.81754C4.22917 3.82028 4.22076 3.82308 4.21235 3.82594C3.7877 3.97202 3.49587 4.17969 3.18083 4.41059C3.05768 4.50163 2.93113 4.5976 2.79277 4.70077C2.57379 4.86347 2.25589 5.09636 1.9502 5.35128C1.92413 5.37294 1.89814 5.39479 1.87228 5.41666C1.87215 5.41677 1.87202 5.41688 1.87189 5.417C1.59321 5.65196 1.33185 5.89956 1.14768 6.08925C0.855691 6.39157 0.757116 6.51685 0.671282 6.6174C0.639307 6.65551 0.609691 6.69085 0.57394 6.73276C0.444994 6.88339 0.247404 7.11083 0.0585218 7.35314C0.0577991 7.35406 0.0570777 7.35499 0.0563557 7.35591C0.0247099 7.39592 -0.000373768 7.42863 6.00922e-07 7.42857C0.000388641 7.42852 0.0231698 7.39401 0.0512926 7.35185C0.141736 7.21773 0.233169 7.08916 0.316541 6.97546C0.313406 6.96466 0.329089 6.92947 0.355236 6.8922C0.421363 6.79909 0.615673 6.51054 0.932373 6.06265C0.90527 6.08897 0.882419 6.11094 0.862325 6.13016C0.838746 6.15274 0.820604 6.17002 0.805119 6.18498C0.77289 6.21621 0.751864 6.23737 0.718668 6.27814C0.644731 6.37491 0.535416 6.53214 0.426499 6.70136C0.398766 6.7439 0.367381 6.77211 0.35593 6.76401C0.3445 6.75591 0.354859 6.7126 0.3796 6.6676C0.380086 6.66672 0.380572 6.66584 0.381058 6.66496C0.478799 6.48904 0.582372 6.31803 0.65424 6.21145C0.672484 6.18432 0.688637 6.16129 0.701004 6.14416C0.710883 6.13046 0.723382 6.11348 0.73109 6.10465C0.732113 6.10348 0.734083 6.10126 0.736555 6.0987C0.7366 6.09867 0.736646 6.09863 0.736691 6.09859C0.73807 6.09716 0.745089 6.08984 0.754298 6.08341C0.756158 6.08212 0.760242 6.07932 0.765677 6.07664C0.766651 6.07561 0.767625 6.07458 0.768601 6.07354C0.782184 6.05915 0.796165 6.04457 0.811156 6.0287C0.870166 5.96711 0.959451 5.8661 1.15115 5.66205C1.32777 5.47477 1.62034 5.15324 2.01267 4.77716C1.98338 4.79949 1.9543 4.82222 1.92553 4.84528C1.85312 4.90332 1.78215 4.96376 1.71262 5.02588C1.68599 5.04968 1.65991 5.07337 1.63359 5.09779C1.5912 5.13707 1.54923 5.17706 1.50783 5.2176C1.47986 5.24499 1.45208 5.27271 1.42456 5.30061C1.4245 5.30068 1.42444 5.30074 1.42439 5.30081C1.38618 5.33954 1.34831 5.37878 1.31056 5.41873C1.29729 5.43266 1.28427 5.44651 1.2714 5.46032C1.22025 5.51532 1.17069 5.57001 1.11251 5.63198C1.10517 5.63929 1.09702 5.64707 1.09084 5.65279C1.08422 5.65897 1.0778 5.66487 1.07167 5.6704C1.06626 5.67528 1.06105 5.67989 1.0561 5.68435C1.05544 5.68494 1.05478 5.68554 1.05412 5.68614C1.04858 5.69113 1.04333 5.69595 1.03832 5.70061C1.03331 5.70526 1.0285 5.70975 1.02388 5.71427C1.02385 5.71432 1.02381 5.71437 1.02378 5.71441C1.01897 5.71916 1.01533 5.72277 1.01041 5.72795C1.00424 5.73445 0.999024 5.74012 0.992869 5.74713C0.986912 5.75391 0.980811 5.76108 0.974742 5.76839C0.968677 5.7757 0.962583 5.78323 0.95646 5.79091C0.950334 5.7986 0.944155 5.80646 0.937987 5.81443C0.931823 5.82239 0.925637 5.83051 0.919432 5.83869C0.913225 5.84687 0.906966 5.85515 0.900715 5.86349C0.886305 5.88269 0.868206 5.89752 0.850449 5.90478C0.83268 5.91202 0.816735 5.91114 0.805649 5.90192C0.79457 5.89269 0.789085 5.87569 0.790094 5.85427C0.791125 5.83287 0.79862 5.80882 0.811077 5.78766C0.81447 5.7819 0.817876 5.7761 0.821317 5.77029C0.823359 5.76685 0.825442 5.76338 0.827502 5.75992C0.833043 5.75062 0.838638 5.74121 0.844344 5.7318C0.850044 5.7224 0.855859 5.71295 0.861788 5.70344C0.867734 5.6939 0.873815 5.68428 0.880092 5.6746C0.886355 5.66495 0.892858 5.65517 0.899607 5.64535C0.906181 5.63576 0.913871 5.62498 0.920948 5.6155C0.926102 5.60856 0.932672 5.60019 0.938217 5.59327C0.944005 5.58604 0.94981 5.57903 0.955482 5.57233C0.961168 5.56562 0.966758 5.55921 0.9721 5.55309C0.972667 5.55243 0.973234 5.55178 0.973802 5.55112C0.978528 5.54571 0.983109 5.54052 0.987409 5.53557C0.992215 5.53005 0.996712 5.52477 1.00094 5.51972C1.0056 5.51416 1.00832 5.51068 1.01164 5.5064C1.05376 5.44824 1.1044 5.37481 1.1537 5.30534C1.1599 5.29661 1.16608 5.28795 1.17221 5.27938C1.20469 5.23379 1.23743 5.18847 1.27055 5.14339C1.29461 5.11062 1.3189 5.07793 1.34346 5.04537C1.37961 4.99744 1.41638 4.94971 1.45364 4.90239C1.4768 4.87301 1.49973 4.84432 1.52325 4.81533C1.58466 4.7396 1.64775 4.66473 1.71275 4.59135C1.77765 4.5181 1.84478 4.44593 1.91422 4.37605C1.98339 4.30642 2.05767 4.23656 2.13282 4.17315C2.18812 4.12659 2.24872 4.08355 2.30625 4.04584C2.33718 4.02558 2.36781 4.0062 2.39823 3.98747C2.39834 3.98742 2.39845 3.98737 2.39857 3.98731C2.42526 3.97088 2.45175 3.95488 2.47801 3.93899C2.53436 3.90495 2.58954 3.87151 2.64408 3.83739C2.69856 3.80332 2.75219 3.76876 2.80548 3.73297C2.85837 3.69743 2.91147 3.66045 2.96344 3.62291C3.0157 3.58519 3.06639 3.5473 3.11933 3.5068C3.18888 3.45342 3.25732 3.39944 3.3282 3.34436C3.39843 3.28966 3.46965 3.23458 3.54166 3.18015C3.56684 3.16111 3.59222 3.14222 3.61766 3.12329C3.61776 3.12322 3.61786 3.12315 3.61796 3.12308C3.66498 3.08809 3.71242 3.05333 3.76029 3.01895C3.76524 3.0154 3.77019 3.01185 3.77515 3.0083C3.84426 2.95889 3.91414 2.91031 3.98534 2.86284C4.06157 2.81202 4.13935 2.76238 4.21893 2.71496C4.29857 2.66761 4.38171 2.62129 4.46802 2.58036C4.54492 2.54372 4.62358 2.50922 4.70095 2.47666C4.72137 2.46806 4.74182 2.45953 4.76231 2.45107C4.8595 2.41082 4.95362 2.37235 5.04536 2.3309C5.13707 2.28964 5.22749 2.24516 5.31804 2.19761C5.40831 2.15023 5.49915 2.09985 5.59082 2.04791C5.68291 1.99574 5.77387 1.94303 5.86728 1.88905C5.95995 1.83544 6.05362 1.78137 6.14921 1.72684C6.20236 1.69656 6.25973 1.66635 6.31451 1.63917C6.36981 1.61173 6.42533 1.58584 6.48051 1.56114C6.5029 1.55111 6.52526 1.54133 6.54749 1.53162C6.57991 1.51745 6.61214 1.50361 6.64389 1.48986C6.69746 1.46664 6.74978 1.44366 6.80047 1.42003C6.85113 1.3964 6.90011 1.37198 6.94706 1.34581C6.99565 1.31867 7.0353 1.2938 7.08238 1.26089C7.19932 1.19128 7.27539 1.16173 7.35994 1.12936C7.3766 1.123 7.39363 1.11642 7.4114 1.10957C7.51334 1.07238 7.6166 1.04062 7.71947 1.01351C7.82331 0.986204 7.92652 0.963592 8.03167 0.944911C8.13585 0.926389 8.24139 0.912041 8.34693 0.901697C8.45229 0.891366 8.55787 0.885062 8.66387 0.882824C8.76979 0.880559 8.87809 0.882492 8.98188 0.888223C9.04189 0.891495 9.10568 0.897256 9.16476 0.903949C9.2074 0.908757 9.24941 0.914168 9.29053 0.919732C9.30734 0.922004 9.32399 0.92431 9.3405 0.926597C9.39531 0.934195 9.44855 0.941658 9.5 0.947748C9.50195 0.94798 9.50391 0.948209 9.50585 0.948436C9.55912 0.954664 9.61057 0.959449 9.66089 0.961806C9.71127 0.964183 9.76068 0.964124 9.81015 0.961607C9.86144 0.958879 9.90409 0.954707 9.95891 0.946641C9.99461 0.941306 10.0296 0.936064 10.0646 0.930988C10.1169 0.92339 10.1691 0.91596 10.2217 0.908559C10.2742 0.901166 10.3263 0.893896 10.3787 0.88656C10.3956 0.884201 10.4134 0.881756 10.4303 0.879371C10.4826 0.872 10.5346 0.864635 10.5866 0.856964C10.6385 0.849306 10.6901 0.841428 10.7417 0.833101C10.7936 0.824744 10.8448 0.81609 10.8972 0.806757C10.9864 0.790806 11.0704 0.790509 11.1436 0.793626C11.2177 0.79698 11.2864 0.804124 11.3533 0.811787C11.3658 0.813225 11.3783 0.814686 11.3909 0.81617C11.4447 0.822666 11.4976 0.829625 11.5499 0.836163C11.6142 0.844243 11.6775 0.851764 11.7411 0.858856C11.8042 0.865908 11.8681 0.872559 11.9312 0.878263C11.995 0.884002 12.0562 0.888917 12.1225 0.893423C12.188 0.897994 12.2553 0.89981 12.329 0.902912C12.4022 0.905956 12.4789 0.910476 12.5559 0.918505C12.6328 0.92645 12.7104 0.937846 12.7865 0.952797C12.8628 0.967738 12.9385 0.98622 13.0123 1.00749C13.0865 1.02886 13.1593 1.05318 13.2309 1.07982C13.3023 1.10638 13.3752 1.13641 13.4426 1.16667C13.5517 1.21567 13.659 1.2674 13.7652 1.32133C13.8709 1.37502 13.9756 1.43105 14.0789 1.48887C14.182 1.54661 14.284 1.60624 14.3846 1.66758C14.4852 1.72892 14.5845 1.79196 14.6825 1.85646C14.7041 1.87073 14.7258 1.88507 14.7473 1.89947C14.8231 1.95021 14.8982 2.00187 14.9722 2.05407C14.9727 2.05445 14.9732 2.05483 14.9737 2.05521C15.0691 2.1224 15.1614 2.18969 15.2538 2.25835C15.2877 2.28352 15.3201 2.30787 15.3531 2.33256C15.3861 2.3573 15.4183 2.38153 15.4508 2.40599C15.4786 2.42686 15.5063 2.44759 15.5336 2.46798C15.5383 2.4715 15.543 2.47501 15.5477 2.4785C15.58 2.50251 15.6114 2.5258 15.6433 2.54895C15.6725 2.5702 15.7017 2.59086 15.7335 2.61372C15.7364 2.61581 15.7393 2.6179 15.7422 2.61999C15.7769 2.64502 15.8157 2.67453 15.8506 2.70371C15.9429 2.78125 16.032 2.85723 16.1218 2.93513C16.2117 3.01309 16.3004 3.09146 16.3885 3.17173C16.4229 3.20307 16.4572 3.23468 16.4913 3.26662C16.5444 3.31629 16.5969 3.36671 16.6489 3.41807C16.7344 3.50252 16.8179 3.58929 16.8993 3.67901C16.9804 3.76839 17.0593 3.86077 17.1351 3.95492C17.2108 4.04898 17.2845 4.146 17.3547 4.24345C17.4328 4.35205 17.5079 4.46146 17.5812 4.57226C17.6543 4.6829 17.7251 4.79456 17.7936 4.90644C17.8623 5.01871 17.9286 5.13142 17.993 5.2447C18.0575 5.35805 18.1198 5.47188 18.1803 5.5862C18.2165 5.6546 18.252 5.72317 18.2869 5.79185C18.3086 5.8255 18.3291 5.85796 18.3485 5.88939C18.4911 6.12202 18.5824 6.29782 18.687 6.53701C18.6972 6.5598 18.7057 6.57811 18.7159 6.6005C18.7179 6.60477 18.7199 6.60931 18.722 6.61394C18.7352 6.64326 18.75 6.67717 18.7689 6.72524C18.8071 6.82078 18.8582 6.97189 18.9177 7.16695C18.9327 7.21629 18.9401 7.2488 18.9333 7.24036C18.9285 7.23448 18.917 7.21058 18.904 7.18075C18.9261 7.23709 18.9479 7.2932 18.9695 7.3491C18.9781 7.37143 18.9859 7.39249 18.9916 7.40735C18.9969 7.42114 19 7.42857 19 7.42857C19 7.42857 19 7.42852 18.9999 7.42843C18.9994 7.42717 18.9951 7.41728 18.9876 7.40119C18.9801 7.38509 18.97 7.36412 18.9599 7.34262C18.933 7.28559 18.9057 7.22889 18.8778 7.17239C18.85 7.11586 18.8217 7.05977 18.7928 7.00378C18.7639 6.94783 18.7344 6.89208 18.7042 6.83648C18.6742 6.78112 18.6435 6.72585 18.6121 6.67083C18.5806 6.61549 18.549 6.56143 18.5163 6.50685C18.4967 6.47415 18.4767 6.44115 18.4568 6.40889C18.4494 6.39686 18.4421 6.38516 18.4348 6.37346C18.4289 6.36389 18.4229 6.35427 18.4167 6.34439C18.3514 6.24049 18.2832 6.13685 18.2134 6.03554C18.1433 5.93373 18.0711 5.83341 17.9967 5.73458C17.9224 5.63568 17.8459 5.53839 17.7673 5.44262C17.6888 5.34689 17.6083 5.2528 17.5256 5.16024C17.4432 5.06803 17.3584 4.97711 17.2719 4.88832C17.205 4.81964 17.1374 4.75271 17.0685 4.68689C17.0386 4.66396 17.009 4.64136 16.9798 4.61922C16.8945 4.55474 16.8045 4.49581 16.7143 4.44043C16.8585 4.55853 16.9757 4.65215 17.085 4.74422C17.0997 4.75656 17.1142 4.76888 17.1286 4.78124C17.2754 4.90746 17.4116 5.03673 17.5726 5.23064C18.0282 5.78396 18.2478 6.13425 18.3854 6.35069C18.5207 6.5687 18.5713 6.66671 18.6172 6.75905C18.6819 6.88968 18.8255 7.12721 18.8958 7.24769C18.9213 7.29153 18.9401 7.32788 18.9382 7.32874C18.9364 7.32957 18.9117 7.29633 18.8828 7.25469C18.7999 7.13284 18.6269 6.88852 18.5418 6.73968C18.5037 6.67351 18.4591 6.59778 18.3142 6.39411C18.1673 6.19216 17.9309 5.86317 17.4535 5.34327C17.2912 5.16805 17.1562 5.05207 17.0071 4.9362C16.9925 4.92485 16.9777 4.91352 16.9627 4.90212C16.9626 4.90204 16.9625 4.90196 16.9624 4.90188C16.8244 4.79681 16.6709 4.68706 16.4687 4.53537C16.0063 4.17816 15.3183 3.80309 15.1423 3.74113C15.1081 3.72792 15.0745 3.71614 15.039 3.70395C14.9872 3.68617 14.9311 3.6675 14.8623 3.6428C14.7501 3.60279 14.6045 3.54616 14.3854 3.45751C14.308 3.42627 14.2185 3.38813 14.1209 3.34637C13.956 3.32221 13.7966 3.30329 13.6626 3.27918C13.5469 3.25827 13.4323 3.26031 13.3198 3.27C13.2874 3.27278 13.2547 3.27629 13.2221 3.27999C13.1434 3.28891 13.065 3.2992 12.9912 3.30398C12.9324 3.30777 12.8698 3.31547 12.804 3.32456C12.5636 3.35725 12.2823 3.4107 11.9595 3.34789C11.6165 3.28107 11.3263 3.21426 11.0738 3.1593C11.2577 3.20894 11.3961 3.26125 11.5101 3.30712C11.5316 3.31578 11.5522 3.32419 11.5719 3.33233C11.7115 3.38991 11.8114 3.43279 11.925 3.45364C12.4673 3.55661 12.6771 3.58425 12.9363 3.56433C13.0045 3.55966 13.0818 3.55043 13.1655 3.54214C13.3327 3.52539 13.5258 3.51327 13.719 3.54234C13.8989 3.56916 14.1059 3.5932 14.3246 3.63021C14.3247 3.63024 14.3247 3.63028 14.3248 3.63031C14.3675 3.63752 14.4107 3.64523 14.4543 3.65349C14.5717 3.67575 14.6914 3.70215 14.8102 3.73394C14.9596 3.77384 15.1074 3.82222 15.2483 3.87988C15.2754 3.89094 15.3081 3.90369 15.3456 3.9187C15.5622 4.00321 15.9388 4.1755 16.31 4.50535C16.3916 4.57722 16.4706 4.65892 16.5599 4.75219C16.5871 4.7806 16.6152 4.81017 16.6447 4.84086C16.7717 4.97361 16.9277 5.13119 17.1407 5.33566C17.3165 5.50449 17.5316 5.71002 17.7469 5.93315C17.8529 6.04293 17.9592 6.15681 18.0619 6.27111C18.3718 6.61674 18.6395 6.95035 18.8988 7.29318C18.8988 7.29325 18.8989 7.29332 18.8989 7.29339C18.9293 7.33405 18.9521 7.3666 18.9498 7.36586C18.9476 7.3651 18.9184 7.33315 18.8846 7.29472C18.5997 6.96791 18.3104 6.65351 17.9813 6.33032C17.8736 6.22472 17.7619 6.11899 17.6505 6.0169C17.4225 5.80755 17.195 5.6142 17.0109 5.45625C16.7862 5.26349 16.6226 5.11462 16.4904 4.98949C16.4585 4.95942 16.4287 4.93101 16.4003 4.90406C16.3098 4.81832 16.2342 4.74694 16.1555 4.68397C15.7899 4.38898 15.4275 4.24106 15.2105 4.16636C15.172 4.15278 15.1381 4.14113 15.1096 4.13082C14.9644 4.07834 14.8117 4.03571 14.6572 4.00174C14.5483 3.97778 14.4386 3.95813 14.3302 3.94178C14.2876 3.93536 14.2452 3.92936 14.2032 3.92386C14.2031 3.92387 14.203 3.92389 14.2029 3.9239C13.9867 3.8955 13.7791 3.87881 13.599 3.85848C13.4161 3.83767 13.2449 3.8543 13.0864 3.87512C13.0014 3.88625 12.92 3.8984 12.8418 3.90628C12.5731 3.93543 12.3576 3.91383 11.8316 3.82633ZM18.8696 7.09364C18.825 6.97684 18.7865 6.88212 18.7556 6.81286C18.7805 6.87262 18.8049 6.93227 18.8289 6.9919C18.8426 7.02584 18.8562 7.05976 18.8696 7.09364ZM14.2506 3.03991C14.2707 3.04357 14.2911 3.04733 14.3115 3.05118C14.2606 3.02925 14.2097 3.00761 14.1586 2.98641C14.0959 2.96038 14.0332 2.93487 13.9701 2.90995C14.068 2.95476 14.1625 2.99891 14.2506 3.03991ZM12.0533 2.97522C12.368 3.04327 12.6326 3.00089 12.8764 2.97439C12.9465 2.96671 13.0146 2.96033 13.0811 2.95799C13.1087 2.95702 13.1366 2.95525 13.165 2.95311C13.024 2.89913 12.8935 2.85153 12.7863 2.8138C12.466 2.70192 12.2865 2.62489 12.1277 2.55656C12.0817 2.53695 12.0373 2.51837 11.9916 2.5006C11.9495 2.50434 11.9059 2.50795 11.8624 2.51025C11.8014 2.51361 11.736 2.51601 11.6742 2.51738C11.6122 2.51878 11.5496 2.51925 11.4886 2.51862C11.427 2.518 11.3664 2.51638 11.3063 2.5142C11.2497 2.51217 11.1935 2.50958 11.1392 2.5075C11.1361 2.50738 11.133 2.50725 11.1299 2.50713C11.0724 2.50502 11.0166 2.50334 10.965 2.50486C10.9125 2.50648 10.8684 2.51106 10.8287 2.52142C10.7791 2.53431 10.7286 2.54671 10.679 2.55829C10.6293 2.5699 10.5801 2.58075 10.5313 2.59097C10.4825 2.60121 10.4344 2.61088 10.3863 2.62014C10.3708 2.62313 10.3545 2.62623 10.3392 2.62912C10.3321 2.63046 10.325 2.63185 10.318 2.63316C10.4096 2.64099 10.5045 2.65093 10.6024 2.66354C10.7437 2.68178 10.8934 2.71167 11.0571 2.74801C11.3367 2.8104 11.6568 2.88983 12.0533 2.97522ZM8.9274 2.65485C8.96714 2.65186 9.02522 2.64601 9.1003 2.63934C9.11805 2.63776 9.13679 2.63601 9.15643 2.63438C9.15596 2.63429 9.15549 2.6343 9.15502 2.63422C9.1059 2.62529 9.06046 2.61786 9.01138 2.61153C8.92385 2.60034 8.83865 2.59215 8.75243 2.5868C8.66593 2.58145 8.57955 2.57906 8.49321 2.57951C8.4067 2.57996 8.32009 2.58343 8.23443 2.58981C8.14799 2.59629 8.06298 2.60545 7.9777 2.61821C7.95054 2.62227 7.92332 2.62671 7.89619 2.63149C7.95864 2.63288 8.02303 2.63277 8.09099 2.63328C8.14527 2.63369 8.20178 2.63456 8.26128 2.63701C8.28405 2.63795 8.31173 2.64023 8.34394 2.64308C8.47187 2.65435 8.67051 2.67429 8.9274 2.65485ZM7.24098 2.85189C7.22207 2.85823 7.20325 2.86435 7.18458 2.87007C7.13142 2.88634 7.07924 2.90038 7.02802 2.91385C6.99205 2.9233 6.95642 2.93236 6.92138 2.94154C6.90659 2.94541 6.89184 2.94936 6.87723 2.95327C6.85275 2.95983 6.82853 2.96659 6.80451 2.9734C6.97803 2.9444 7.14718 2.91783 7.32249 2.88776C7.32481 2.88736 7.32711 2.88685 7.32944 2.88645C7.29938 2.87453 7.26989 2.86301 7.24098 2.85189Z" fill="var(--stroke-0, #B4D455)"/>
</svg>
