<svg preserveAspectRatio="none" width="100%" height="100%" overflow="visible" style="display: block;" viewBox="0 0 4 9" fill="none" xmlns="http://www.w3.org/2000/svg">
<path id="Vector" d="M3.55164 3.09203C3.56225 3.14118 3.54411 3.18724 3.51924 3.24543C3.51925 3.24546 3.51925 3.24549 3.51926 3.24552C3.5157 3.25383 3.51192 3.2624 3.50815 3.27125C3.47772 3.34253 3.44156 3.43515 3.42528 3.57481C3.40731 3.72913 3.29647 3.85165 3.18769 3.92646C3.16739 3.94041 3.15639 3.95485 3.14649 3.99128C3.14151 4.00953 3.13692 4.03268 3.13101 4.06336C3.12918 4.07286 3.12722 4.08307 3.12509 4.09408C3.12027 4.11887 3.11462 4.14772 3.10734 4.1815C3.08347 4.29332 3.08412 4.46856 3.07805 4.63003C3.0746 4.72803 3.06906 4.82098 3.05819 4.89158C3.04229 4.99483 3.00972 5.09446 2.97319 5.20277C2.93963 5.30196 2.90282 5.40843 2.86995 5.53163C2.84449 5.62616 2.7553 5.71799 2.66334 5.81132C2.65161 5.8232 2.63983 5.83513 2.62808 5.84707C2.54686 5.92942 2.4681 6.01361 2.41914 6.10465C2.3324 6.26693 2.34464 6.39643 2.34532 6.53981C2.34588 6.59589 2.34525 6.6541 2.33876 6.71723C2.32854 6.81707 2.29689 6.9606 2.26325 7.10472C2.26038 7.11699 2.25754 7.12928 2.25465 7.14154C2.25463 7.14161 2.25462 7.14167 2.25461 7.14173C2.22343 7.27365 2.19192 7.40313 2.17082 7.49812C2.13724 7.64907 2.12738 7.70586 2.11809 7.75323C2.11456 7.77103 2.11104 7.78752 2.10593 7.80717C2.08747 7.87795 2.04973 7.98479 2.01184 8.09309C2.0117 8.0935 2.01155 8.09392 2.01141 8.09433C2.00481 8.11231 1.9997 8.12681 2 8.12673C2.0003 8.12664 2.00249 8.112 2.00491 8.09402C2.01351 8.03665 2.02206 7.98067 2.02916 7.93055C2.02051 7.92795 2.01419 7.91446 2.01514 7.89828C2.01714 7.85778 2.02186 7.73375 1.98565 7.53963C1.98118 7.55292 1.97708 7.56407 1.97333 7.57382C1.96894 7.58528 1.96538 7.59405 1.96243 7.6016C1.95633 7.61733 1.95273 7.62779 1.95127 7.64637C1.95173 7.68939 1.95837 7.757 1.96572 7.82816C1.96732 7.84612 1.9572 7.86063 1.94304 7.86055C1.92887 7.86046 1.91283 7.84582 1.90733 7.82785C1.90722 7.8275 1.90712 7.82714 1.90701 7.82679C1.8865 7.75632 1.86692 7.68653 1.85857 7.64159C1.85644 7.63016 1.85502 7.62031 1.8542 7.61292C1.85353 7.607 1.85285 7.59963 1.85344 7.59552C1.85351 7.59498 1.85369 7.59394 1.85404 7.5927C1.85406 7.59268 1.85407 7.59266 1.85408 7.59264C1.85428 7.59195 1.85525 7.58841 1.8585 7.58464C1.85916 7.58388 1.86064 7.58222 1.86325 7.5803C1.86337 7.57981 1.86349 7.57931 1.86361 7.57881C1.86528 7.5719 1.86711 7.56484 1.86885 7.55721C1.87582 7.52739 1.88326 7.48016 1.89272 7.3818C1.90125 7.29134 1.89983 7.13842 1.88483 6.9476C1.88165 6.96049 1.87872 6.97341 1.87607 6.98632C1.86941 7.01881 1.86433 7.05145 1.8603 7.0841C1.85877 7.09661 1.85738 7.10895 1.85616 7.12152C1.85417 7.14176 1.85253 7.16205 1.85124 7.18234C1.85037 7.19605 1.84966 7.20979 1.84905 7.22351C1.84906 7.22354 1.84906 7.22357 1.84907 7.2236C1.84822 7.24265 1.84759 7.26174 1.84712 7.28099C1.84688 7.28772 1.84671 7.29438 1.84658 7.30098C1.84613 7.32728 1.846 7.35311 1.84334 7.38286C1.84266 7.38647 1.84165 7.3904 1.84077 7.39334C1.83986 7.39649 1.83891 7.39952 1.83792 7.40239C1.83704 7.40492 1.83613 7.40733 1.83531 7.40964C1.8352 7.40995 1.83509 7.41026 1.83498 7.41057C1.83407 7.41316 1.83325 7.41563 1.8325 7.41801C1.83176 7.42039 1.83105 7.42267 1.8305 7.42493C1.8305 7.42495 1.83051 7.42497 1.83051 7.42499C1.82996 7.42734 1.82955 7.42913 1.8292 7.43162C1.82875 7.43475 1.82849 7.43744 1.82837 7.4407C1.82825 7.44386 1.82826 7.44715 1.82838 7.45047C1.8285 7.45379 1.82873 7.45717 1.82903 7.46061C1.82933 7.46404 1.82968 7.46753 1.8301 7.47105C1.83052 7.47457 1.83102 7.47813 1.83151 7.48172C1.83201 7.4853 1.83253 7.48893 1.83307 7.49257C1.8343 7.50095 1.82975 7.50899 1.82056 7.51489C1.81135 7.52079 1.79831 7.52407 1.78374 7.52404C1.76917 7.524 1.754 7.52063 1.74103 7.51467C1.72809 7.50871 1.71844 7.50065 1.71442 7.49226C1.71333 7.48998 1.71222 7.48768 1.71112 7.48538C1.71047 7.48401 1.70984 7.48263 1.70919 7.48125C1.70744 7.47756 1.70565 7.47382 1.70393 7.47006C1.70222 7.46631 1.70054 7.46252 1.6989 7.45869C1.69725 7.45484 1.69563 7.45095 1.69411 7.447C1.6926 7.44306 1.69116 7.43903 1.68988 7.43494C1.68861 7.43095 1.68739 7.42639 1.68654 7.42232C1.68589 7.41935 1.68537 7.41568 1.68502 7.41262C1.68465 7.40942 1.68442 7.40629 1.68429 7.40326C1.68416 7.40022 1.68415 7.39728 1.68413 7.39448C1.68413 7.39418 1.68412 7.39388 1.68411 7.39358C1.6841 7.39111 1.68411 7.38871 1.68408 7.38645C1.68404 7.38392 1.68392 7.38153 1.68373 7.37926C1.68355 7.37676 1.68328 7.37523 1.68292 7.37337C1.67583 7.3487 1.66411 7.31821 1.65298 7.28914C1.65158 7.28549 1.65021 7.28185 1.64884 7.27826C1.6415 7.25916 1.63411 7.24011 1.62676 7.22106C1.62142 7.20722 1.61608 7.19336 1.6108 7.17949C1.60303 7.15907 1.59539 7.1386 1.58791 7.11814C1.58328 7.10543 1.57882 7.09296 1.57436 7.08029C1.56271 7.04719 1.55162 7.01399 1.54169 6.98074C1.53179 6.94754 1.52296 6.91413 1.51612 6.8807C1.50932 6.8474 1.50441 6.8128 1.50371 6.77939C1.5033 6.75483 1.5083 6.72965 1.5149 6.70635C1.51845 6.69383 1.52235 6.68157 1.52645 6.66949C1.52648 6.66945 1.52651 6.66941 1.52654 6.66937C1.53014 6.65877 1.53384 6.6483 1.53735 6.6379C1.54495 6.61562 1.55175 6.59373 1.55707 6.57184C1.5624 6.54998 1.56627 6.52822 1.5684 6.5063C1.5705 6.48455 1.571 6.46242 1.56983 6.44052C1.56866 6.4185 1.56594 6.39689 1.56172 6.37418C1.55604 6.34431 1.54825 6.31466 1.53981 6.28421C1.53135 6.25399 1.52206 6.22352 1.51267 6.19298C1.50938 6.1823 1.50619 6.1716 1.50288 6.16089C1.50287 6.16085 1.50286 6.16081 1.50285 6.16076C1.49671 6.14095 1.49054 6.12109 1.48448 6.10121C1.47512 6.07052 1.46593 6.03975 1.45752 6.00886C1.44912 5.97798 1.44142 5.9469 1.43543 5.91567C1.42953 5.88443 1.42503 5.85235 1.42561 5.82013C1.42597 5.79138 1.4281 5.7624 1.43051 5.73407C1.43115 5.72659 1.43179 5.7191 1.43246 5.71162C1.43549 5.67612 1.43747 5.64175 1.43446 5.60777C1.43159 5.57381 1.42391 5.53987 1.41206 5.50562C1.40025 5.47148 1.38449 5.4369 1.36612 5.40205C1.34766 5.36704 1.32693 5.33249 1.30435 5.29723C1.28188 5.26224 1.25787 5.2271 1.2325 5.19152C1.21844 5.17174 1.20516 5.1507 1.19362 5.13082C1.18197 5.11074 1.17141 5.0908 1.16148 5.07111C1.15744 5.06312 1.15356 5.05517 1.14964 5.04727C1.14393 5.03575 1.13833 5.02434 1.13254 5.01311C1.12278 4.99415 1.11253 4.97565 1.10086 4.95768C1.08921 4.93971 1.07601 4.92228 1.0603 4.90544C1.04398 4.88801 1.0277 4.87364 1.00471 4.85646C0.959481 4.81461 0.944226 4.78868 0.927247 4.75986C0.923902 4.75418 0.920367 4.74838 0.916651 4.74234C0.897418 4.70779 0.882379 4.67327 0.870511 4.6392C0.858601 4.60481 0.849892 4.57095 0.843976 4.53665C0.838099 4.50269 0.835172 4.46848 0.83486 4.43441C0.834546 4.40039 0.836913 4.36643 0.842014 4.33239C0.847093 4.29836 0.855105 4.26364 0.865353 4.2303C0.87125 4.21103 0.879326 4.19056 0.887729 4.17155C0.893777 4.15784 0.90019 4.14432 0.90653 4.13106C0.909119 4.12565 0.911705 4.12027 0.914236 4.11494C0.922643 4.09724 0.930518 4.08002 0.936672 4.06336C0.936906 4.06273 0.937137 4.0621 0.937366 4.06147C0.943633 4.04422 0.94809 4.02752 0.949793 4.01118C0.951516 3.99482 0.950476 3.97881 0.94665 3.96279C0.942546 3.94619 0.936981 3.9324 0.926749 3.91477C0.919992 3.90329 0.913199 3.89204 0.906429 3.88082C0.896292 3.86403 0.886 3.84736 0.875375 3.83057C0.86476 3.8138 0.853967 3.79724 0.842748 3.7806C0.839142 3.77525 0.835341 3.7696 0.831631 3.76423C0.820166 3.74765 0.808411 3.73125 0.796015 3.71488C0.78364 3.69853 0.770753 3.68233 0.757094 3.6662C0.743383 3.65001 0.729134 3.63408 0.713746 3.61784C0.687501 3.59024 0.676586 3.56382 0.669848 3.54068C0.663236 3.51727 0.660492 3.49539 0.658017 3.47409C0.657555 3.4701 0.657098 3.46611 0.656645 3.46212C0.654799 3.44495 0.653207 3.42805 0.650971 3.41141C0.648237 3.39089 0.644626 3.37076 0.640023 3.35055C0.635483 3.33052 0.629907 3.3103 0.62303 3.29038C0.616063 3.27027 0.608344 3.25105 0.598657 3.23033C0.589181 3.20984 0.576123 3.18903 0.562237 3.16622C0.548445 3.14362 0.534639 3.1199 0.523455 3.09588C0.51221 3.07188 0.503472 3.04751 0.497843 3.0233C0.492164 2.99905 0.489356 2.97472 0.48908 2.95073C0.488785 2.92661 0.491012 2.90263 0.495138 2.87878C0.499241 2.85498 0.505502 2.83039 0.51304 2.80738C0.525239 2.77012 0.538938 2.73303 0.553392 2.69587C0.567811 2.65892 0.583087 2.62185 0.598902 2.58486C0.614699 2.54793 0.631019 2.51097 0.647803 2.47406C0.664594 2.43713 0.681788 2.40022 0.699254 2.36335C0.703116 2.3552 0.706991 2.34705 0.710876 2.33889C0.724564 2.31019 0.7384 2.28148 0.752223 2.2529C0.752344 2.2527 0.752465 2.25251 0.752586 2.25231C0.770321 2.21552 0.787901 2.17939 0.805116 2.14291C0.811398 2.12951 0.817434 2.11664 0.823349 2.10357C0.829265 2.09047 0.834909 2.07763 0.840393 2.06466C0.845878 2.05168 0.851076 2.03877 0.855878 2.02606C0.860712 2.01322 0.86513 2.00069 0.86901 1.98806C0.872607 1.97647 0.875533 1.96497 0.878881 1.9524C0.879185 1.95126 0.879489 1.95011 0.879794 1.94896C0.883457 1.93521 0.888598 1.91957 0.895238 1.90504C0.913062 1.86653 0.929565 1.829 0.945593 1.7908C0.961637 1.75257 0.976945 1.71443 0.992425 1.67597C0.998478 1.66095 1.00449 1.64586 1.01067 1.63077C1.02027 1.60729 1.0301 1.58372 1.04038 1.56009C1.05728 1.5212 1.07547 1.48222 1.09552 1.443C1.1155 1.40392 1.13738 1.36459 1.16085 1.32544C1.18428 1.28632 1.20952 1.24686 1.23567 1.20791C1.26483 1.16452 1.29446 1.12138 1.32427 1.07805C1.35405 1.03479 1.38397 0.991501 1.41365 0.948405C1.44342 0.905152 1.47301 0.862009 1.50237 0.818852C1.53175 0.775669 1.56087 0.732515 1.58963 0.689329C1.60685 0.663484 1.62395 0.637646 1.64089 0.611796C1.64557 0.598119 1.65021 0.585007 1.65489 0.572393C1.6898 0.479192 1.72274 0.411803 1.77641 0.322897C1.7813 0.314383 1.78488 0.307455 1.78937 0.299026C1.79023 0.297418 1.79116 0.295713 1.7921 0.293973C1.79805 0.282958 1.80526 0.270308 1.81673 0.252711C1.83907 0.217606 1.88107 0.163797 1.93415 0.0942645C1.94767 0.0766998 1.95838 0.065523 1.95972 0.0693087C1.96075 0.07197 1.95803 0.081299 1.95329 0.0926834C1.96437 0.0716503 1.97511 0.0506738 1.98548 0.0297513C1.98964 0.0214001 1.9937 0.0135599 1.99637 0.00798859C1.99887 0.00282544 2.00001 1.74341e-07 2 0C2 0 2 0 2 0C2 1.36407e-08 1.99999 1.73778e-05 1.99998 5.2327e-05C1.99978 0.000533424 1.99844 0.00432365 1.99668 0.0105927C1.99489 0.0168595 1.99282 0.025082 1.99042 0.0334714C1.98404 0.0557272 1.97765 0.0779076 1.97129 0.100093C1.96491 0.122296 1.9586 0.144395 1.95235 0.166559C1.94611 0.188717 1.93995 0.210867 1.93388 0.233087C1.92784 0.25522 1.92189 0.277398 1.91607 0.299615C1.91021 0.321974 1.90462 0.343911 1.89905 0.366206C1.89572 0.379563 1.89238 0.393082 1.88917 0.406352C1.88797 0.411298 1.88683 0.416125 1.88568 0.420953C1.88474 0.4249 1.88378 0.428867 1.88281 0.432951C1.87265 0.475908 1.86291 0.519277 1.85383 0.562256C1.8447 0.605439 1.83611 0.648579 1.82808 0.691716C1.82003 0.734878 1.81259 0.778003 1.80566 0.821146C1.79874 0.864268 1.79237 0.907365 1.78658 0.950544C1.78082 0.993564 1.77558 1.03676 1.77108 1.07985C1.7676 1.11318 1.76465 1.14623 1.76219 1.17933C1.76528 1.19236 1.76827 1.20526 1.77122 1.21799C1.77981 1.25504 1.79421 1.29214 1.81004 1.32869C1.80754 1.26364 1.79962 1.21138 1.79371 1.16163C1.79292 1.15496 1.79214 1.14833 1.79143 1.14173C1.78405 1.07429 1.78276 1.00915 1.80211 0.921527C1.85658 0.672323 1.88946 0.527826 1.91192 0.437787C1.93433 0.347765 1.94751 0.309085 1.96255 0.272985C1.98439 0.221976 1.99346 0.123524 1.99591 0.0740518C1.9972 0.0560803 1.99988 0.0415742 2.00192 0.0416557C2.00397 0.0417425 2.008 0.0563871 2.01084 0.0743618C2.01856 0.126601 2.03043 0.233135 2.01416 0.293849C2.00715 0.320891 2.00186 0.351988 1.99578 0.440639C1.98949 0.5293 1.98303 0.672465 1.96779 0.922147C1.96239 1.00662 1.97281 1.06931 1.98972 1.13602C1.99136 1.14257 1.99312 1.14915 1.99486 1.1558C1.99486 1.15584 1.99486 1.15588 1.99486 1.15593C2.01086 1.21721 2.03101 1.28394 2.0424 1.37393C2.06701 1.58133 2.12876 1.86032 2.16301 1.92655C2.16954 1.93955 2.17683 1.95211 2.18456 1.96536C2.21418 2.01623 2.25138 2.07764 2.28554 2.21604C2.29298 2.24631 2.29881 2.28176 2.30322 2.32045C2.35298 2.37851 2.40136 2.43487 2.43209 2.48389C2.45855 2.52619 2.50415 2.5652 2.55469 2.60299C2.56924 2.61388 2.58447 2.62483 2.59973 2.63576C2.6365 2.66213 2.67375 2.68852 2.70349 2.71422C2.72719 2.73472 2.75546 2.75618 2.7856 2.77886C2.89493 2.86148 3.03213 2.9605 3.05125 3.08952C3.07102 3.2263 3.06 3.3434 3.04547 3.44439C3.06565 3.37022 3.0909 3.31296 3.11303 3.26527C3.11721 3.25627 3.12125 3.24765 3.12511 3.23935C3.1524 3.18073 3.17103 3.13811 3.16339 3.09244C3.12603 2.87427 3.07561 2.79245 2.9698 2.70012C2.94184 2.67581 2.90581 2.649 2.86751 2.62011C2.79085 2.56237 2.70563 2.49632 2.65309 2.42536C2.604 2.35926 2.5366 2.28534 2.46889 2.20702C2.46889 2.20699 2.46888 2.20695 2.46888 2.20692C2.45564 2.19162 2.44238 2.17613 2.42921 2.16051C2.34874 2.06528 2.27324 1.96512 2.22595 1.86762C2.22088 1.85719 2.21408 1.8447 2.20636 1.83035C2.16006 1.74757 2.09375 1.60224 2.11974 1.42477C2.12495 1.38579 2.13811 1.34528 2.15126 1.29906C2.15527 1.28498 2.15934 1.27036 2.16314 1.2551C2.1796 1.18921 2.19228 1.10916 2.18742 1.00256C2.18347 0.914595 2.16841 0.807384 2.15038 0.696057C2.14147 0.64122 2.13181 0.585384 2.12189 0.530356C2.09206 0.364135 2.06029 0.211788 2.01736 0.0597293C2.01735 0.0596983 2.01735 0.0596673 2.01734 0.0596363C2.01256 0.0416724 2.00965 0.0276011 2.0112 0.0282323C2.01274 0.02887 2.02154 0.0439438 2.03044 0.0618994C2.10369 0.214048 2.16395 0.36593 2.22287 0.531596C2.24217 0.585788 2.26131 0.641186 2.27937 0.695809C2.3163 0.807677 2.34883 0.916379 2.36631 1.00517C2.38773 1.11357 2.3863 1.19509 2.37878 1.26189C2.37699 1.27797 2.37487 1.2931 2.37271 1.30746C2.36584 1.35317 2.35833 1.39117 2.35824 1.42815C2.35566 1.59999 2.43534 1.73982 2.49072 1.82291C2.50025 1.83765 2.50866 1.8506 2.51523 1.86163C2.572 1.95723 2.6561 2.05585 2.74534 2.151C2.75979 2.16643 2.7743 2.18179 2.78887 2.19703C2.78893 2.19707 2.78899 2.1971 2.78905 2.19713C2.86385 2.27543 2.93877 2.35069 2.99425 2.41801C3.05043 2.48635 3.13202 2.54594 3.21008 2.60169C3.25192 2.6316 3.2925 2.66041 3.32714 2.68887C3.44583 2.78681 3.50332 2.87317 3.55164 3.09203ZM1.93595 0.125204C1.91089 0.168437 1.8905 0.203662 1.87744 0.229894C1.89026 0.207616 1.90285 0.185391 1.91518 0.163149C1.9222 0.15049 1.92912 0.137845 1.93595 0.125204ZM1.96726 2.32575C1.96185 2.31875 1.9564 2.31169 1.95095 2.30461C1.95333 2.32416 1.95556 2.34371 1.95784 2.36323C1.96064 2.3872 1.96332 2.41117 1.96603 2.43512C1.96747 2.39703 1.96807 2.36012 1.96726 2.32575ZM2.6629 3.08983C2.65087 2.96815 2.53045 2.87722 2.42696 2.79523C2.39705 2.77162 2.36843 2.74872 2.34369 2.72607C2.33343 2.71667 2.3222 2.70729 2.31037 2.69782C2.30783 2.75293 2.30436 2.80358 2.30124 2.84505C2.29196 2.96878 2.2616 3.0392 2.23431 3.10109C2.22641 3.11899 2.21878 3.1362 2.21194 3.15376C2.22543 3.16828 2.23888 3.18337 2.2508 3.19862C2.26763 3.21996 2.28394 3.24303 2.29794 3.26499C2.31202 3.28703 2.32476 3.30943 2.33561 3.33142C2.34656 3.3536 2.35583 3.37558 2.36395 3.39746C2.37161 3.41804 2.37819 3.43855 2.38456 3.4584C2.38492 3.45954 2.38528 3.46068 2.38564 3.46181C2.39242 3.48279 2.3989 3.5032 2.40761 3.52196C2.41655 3.54105 2.42691 3.55692 2.44233 3.571C2.46155 3.58859 2.48006 3.60663 2.4973 3.62448C2.51458 3.64234 2.5307 3.66013 2.54582 3.67786C2.56098 3.69563 2.57516 3.71323 2.5886 3.73087C2.59295 3.73658 2.59742 3.74255 2.60158 3.7482C2.6035 3.75081 2.60547 3.75342 2.60736 3.75601C2.60798 3.7215 2.60923 3.68566 2.61145 3.64863C2.61464 3.59512 2.62584 3.538 2.63738 3.47499C2.65713 3.3675 2.6776 3.24287 2.6629 3.08983ZM2.64579 4.27919C2.64497 4.26418 2.64211 4.24221 2.6383 4.21387C2.6374 4.20717 2.63631 4.2001 2.63532 4.19269C2.63522 4.19287 2.63521 4.19305 2.63511 4.19322C2.62444 4.21158 2.6151 4.22853 2.6064 4.24682C2.59095 4.27943 2.57758 4.31111 2.56597 4.34311C2.55433 4.37523 2.54463 4.40727 2.5367 4.43934C2.52878 4.47146 2.52279 4.50367 2.51877 4.5356C2.51475 4.56784 2.51254 4.59962 2.51283 4.6317C2.51291 4.64192 2.51326 4.65217 2.51385 4.66242C2.52487 4.63954 2.53414 4.61578 2.54388 4.59069C2.55165 4.57064 2.55978 4.54974 2.56936 4.52775C2.57303 4.51934 2.57856 4.50916 2.58502 4.49728C2.61055 4.4502 2.65101 4.37633 2.64579 4.27919ZM2.61049 4.91837C2.61261 4.92581 2.61446 4.93322 2.6159 4.94053C2.61999 4.96136 2.62167 4.98167 2.6226 5.00157C2.62324 5.01555 2.62338 5.02937 2.6236 5.04299C2.62369 5.04874 2.62383 5.05448 2.62394 5.06017C2.62411 5.06969 2.62446 5.07915 2.62483 5.08853C2.6419 5.0227 2.65595 4.95834 2.66348 4.89127C2.66358 4.89039 2.66357 4.8895 2.66366 4.88861C2.64552 4.89876 2.62779 4.90867 2.61049 4.91837Z" fill="var(--stroke-0, #FF6B6B)"/>
</svg>
