<svg preserveAspectRatio="none" width="100%" height="100%" overflow="visible" style="display: block;" viewBox="0 0 12 13" fill="none" xmlns="http://www.w3.org/2000/svg">
<path id="Vector" d="M4.98992 3.81105C4.8964 3.85974 4.79986 3.88234 4.67659 3.91611C4.67653 3.91614 4.67648 3.91617 4.67642 3.91621C4.65882 3.92105 4.64066 3.92607 4.62197 3.93153C4.47215 3.97602 4.27506 4.04262 4.01797 4.21385C3.73636 4.40272 3.46973 4.51984 3.27176 4.57818C3.2351 4.589 3.20403 4.60676 3.14119 4.66601C3.10977 4.69578 3.07151 4.73502 3.0224 4.78879C3.0224 4.78879 3.0224 4.78879 3.0224 4.78879C3.00721 4.80544 2.99101 4.82347 2.9737 4.84307C2.93471 4.88724 2.8901 4.93938 2.83914 5.00188C2.66864 5.20756 2.46375 5.57727 2.32885 5.93959C2.24522 6.15886 2.18357 6.37325 2.13878 6.53726C2.09868 6.68349 2.06032 6.82789 2.02579 6.97833C2.00373 7.07459 1.98331 7.17328 1.96565 7.2763C1.92448 7.51792 1.8972 7.78422 1.90971 8.09462C1.91939 8.33209 1.88409 8.57704 1.8693 8.83797C1.86739 8.8711 1.86585 8.90453 1.86469 8.93807C1.8569 9.16115 1.86874 9.39456 1.93067 9.63185C1.93293 9.64052 1.93526 9.6492 1.93765 9.65788C2.06185 10.0969 2.28065 10.3985 2.53643 10.7038C2.63769 10.8232 2.74704 10.9433 2.86867 11.0713C3.05999 11.2741 3.3481 11.5588 3.67771 11.8037C3.6824 11.8072 3.68709 11.8107 3.6918 11.8142C3.71516 11.8316 3.7387 11.8487 3.76231 11.8657C3.76245 11.8658 3.7626 11.8659 3.76274 11.866C4.06751 12.0864 4.39647 12.2658 4.64771 12.3774C5.04846 12.5527 5.21295 12.589 5.34496 12.6286C5.39506 12.6426 5.44158 12.6552 5.49722 12.6702C5.69716 12.725 6.00424 12.8017 6.32587 12.8445C6.3271 12.8446 6.32832 12.8448 6.32955 12.845C6.38282 12.8525 6.42609 12.8574 6.42584 12.8571C6.42558 12.8568 6.38192 12.8548 6.32851 12.8514C6.15792 12.8398 5.99261 12.8198 5.84574 12.7967C5.83718 12.8044 5.79661 12.8063 5.74904 12.7993C5.63023 12.7799 5.26438 12.7382 4.70278 12.5905C4.73904 12.6073 4.76952 12.6213 4.79628 12.6336C4.8277 12.648 4.85187 12.659 4.87273 12.6682C4.91625 12.6874 4.94551 12.6995 4.999 12.7155C5.12384 12.7491 5.32329 12.7901 5.53494 12.8175C5.5883 12.8247 5.62983 12.8409 5.62759 12.8547C5.62531 12.8685 5.5792 12.8779 5.52456 12.8743C5.52349 12.8743 5.52242 12.8742 5.52136 12.8741C5.30742 12.8595 5.09556 12.8288 4.96098 12.8002C4.92672 12.7931 4.89738 12.7861 4.87544 12.7806C4.85789 12.7762 4.83606 12.7705 4.82422 12.7663C4.82264 12.7657 4.81965 12.7647 4.81613 12.7632C4.81607 12.7632 4.81602 12.7632 4.81596 12.7631C4.81399 12.7623 4.80392 12.7583 4.79385 12.7518C4.79182 12.7505 4.78741 12.7476 4.78257 12.7434C4.78115 12.7429 4.77974 12.7423 4.77833 12.7417C4.75867 12.7339 4.73868 12.7257 4.71705 12.7169C4.63309 12.6814 4.49714 12.6325 4.22619 12.5063C4.05352 12.4247 3.79833 12.3031 3.49955 12.1223C3.36852 12.043 3.22925 11.9523 3.08534 11.8493C3.11471 11.8754 3.1446 11.9011 3.17493 11.9263C3.25125 11.9897 3.33067 12.05 3.41235 12.1074C3.43477 12.1232 3.45714 12.1386 3.47984 12.1538C3.48881 12.1599 3.49782 12.1659 3.50691 12.1719C3.55855 12.206 3.61112 12.2391 3.6644 12.271C3.70041 12.2925 3.7368 12.3135 3.77345 12.3341C3.77354 12.3341 3.77363 12.3341 3.77371 12.3342C3.82456 12.3627 3.87613 12.3902 3.9286 12.4171C3.94693 12.4265 3.96511 12.4357 3.98324 12.4447C4.05546 12.4803 4.12715 12.5137 4.20971 12.5524C4.21961 12.5574 4.23028 12.563 4.2382 12.5674C4.24673 12.572 4.25493 12.5765 4.26266 12.5808C4.26948 12.5846 4.27596 12.5883 4.2822 12.5918C4.28303 12.5922 4.28387 12.5927 4.28471 12.5931C4.2917 12.597 4.29841 12.6007 4.30488 12.6041C4.31134 12.6076 4.31757 12.6109 4.32378 12.614C4.32384 12.614 4.3239 12.614 4.32396 12.614C4.33045 12.6173 4.33539 12.6197 4.34236 12.6229C4.35113 12.6269 4.35871 12.6302 4.36798 12.634C4.37694 12.6377 4.38635 12.6413 4.39591 12.6449C4.40546 12.6485 4.41523 12.6521 4.42518 12.6556C4.43514 12.6591 4.44529 12.6625 4.45555 12.666C4.46581 12.6694 4.47623 12.6728 4.48672 12.6761C4.49721 12.6795 4.50783 12.6828 4.51852 12.6861C4.54312 12.6938 4.56483 12.7062 4.57897 12.7208C4.59308 12.7354 4.5985 12.7509 4.5937 12.7645C4.58889 12.7781 4.57414 12.7889 4.55237 12.7949C4.5306 12.8008 4.50358 12.8014 4.47751 12.7962C4.47042 12.7947 4.46329 12.7933 4.45613 12.7918C4.45189 12.7909 4.44761 12.79 4.44334 12.7891C4.43187 12.7867 4.42026 12.7843 4.40862 12.7817C4.39699 12.7791 4.38528 12.7764 4.37345 12.7736C4.3616 12.7708 4.34961 12.7679 4.33749 12.7648C4.32541 12.7616 4.3131 12.7583 4.30067 12.7547C4.28854 12.7512 4.27479 12.747 4.2626 12.7429C4.25368 12.74 4.2428 12.736 4.23377 12.7327C4.22434 12.7292 4.21511 12.7256 4.20627 12.722C4.1974 12.7184 4.18887 12.7148 4.18075 12.7114C4.17988 12.711 4.17901 12.7107 4.17813 12.7103C4.17095 12.7072 4.16403 12.7043 4.15748 12.7015C4.15015 12.6984 4.14319 12.6955 4.13655 12.6928C4.12925 12.6898 4.12475 12.6881 4.11922 12.6861C4.04524 12.6613 3.95301 12.6314 3.86563 12.6003C3.85465 12.5964 3.84374 12.5925 3.83296 12.5886C3.77562 12.5679 3.71859 12.5463 3.66189 12.5238C3.62066 12.5074 3.57956 12.4906 3.53854 12.4731C3.47822 12.4474 3.41809 12.4204 3.35848 12.3922C3.35142 12.3889 3.34438 12.3855 3.33736 12.3822C3.30763 12.3679 3.27831 12.3535 3.24876 12.3386C3.15332 12.2906 3.05894 12.2391 2.96641 12.1838C2.87402 12.1287 2.78298 12.0696 2.69473 12.0063C2.60682 11.9434 2.51847 11.8735 2.43787 11.8009C2.37865 11.7474 2.32276 11.6874 2.27368 11.6296C2.2473 11.5986 2.22209 11.5676 2.19777 11.5368C2.1977 11.5366 2.19763 11.5365 2.19755 11.5364C2.17621 11.5093 2.1555 11.4823 2.13507 11.4554C2.09132 11.3978 2.04901 11.3409 2.00666 11.2844C1.9644 11.2279 1.92233 11.1719 1.87961 11.1158C1.8372 11.0602 1.79386 11.0039 1.75063 10.9484C1.7072 10.8926 1.66425 10.838 1.61904 10.7804C1.55951 10.7048 1.50038 10.6294 1.44113 10.5505C1.38227 10.4722 1.32411 10.3921 1.2677 10.3101C1.24798 10.2815 1.22856 10.2525 1.20923 10.2234C1.20916 10.2233 1.20909 10.2232 1.20902 10.223C1.17329 10.1692 1.13828 10.1145 1.1042 10.0591C1.10068 10.0533 1.09717 10.0476 1.09366 10.0419C1.04483 9.96176 0.997898 9.88012 0.953302 9.79658C0.905545 9.7071 0.860369 9.61536 0.818945 9.52128C0.777603 9.42718 0.738978 9.32872 0.707718 9.22736C0.67968 9.137 0.655279 9.04476 0.633885 8.95407C0.628226 8.93012 0.622733 8.90615 0.617403 8.88213C0.592009 8.76819 0.569812 8.65756 0.545994 8.54843C0.522342 8.43935 0.497033 8.33048 0.470525 8.22005C0.444117 8.10998 0.416688 7.99789 0.389851 7.88377C0.362911 7.76916 0.33701 7.65491 0.312557 7.53699C0.288242 7.41995 0.265739 7.3011 0.245518 7.17938C0.234306 7.1117 0.22525 7.03936 0.218873 6.97079C0.213301 6.911 0.209369 6.85144 0.206734 6.7923C0.206317 6.78293 0.205931 6.77357 0.205576 6.76423C0.204517 6.73652 0.203785 6.70893 0.203167 6.68151C0.202273 6.64147 0.201839 6.60178 0.201505 6.56261C0.200943 6.49648 0.200737 6.43173 0.199814 6.36838C0.198895 6.30505 0.197116 6.24312 0.193389 6.18243C0.189507 6.11964 0.184281 6.06709 0.175495 6.00311C0.164895 5.84941 0.174409 5.75603 0.186071 5.65284C0.188418 5.63249 0.190801 5.61167 0.19337 5.58996C0.20997 5.46635 0.234215 5.34403 0.264357 5.22485C0.294863 5.10454 0.331145 4.98766 0.373861 4.87145C0.416152 4.75635 0.464784 4.64263 0.518663 4.53201C0.572453 4.42156 0.63162 4.31396 0.696162 4.20934C0.760619 4.10477 0.831858 4.00143 0.904863 3.90586C0.947012 3.85059 0.994218 3.79367 1.03954 3.74217C1.07224 3.70498 1.10518 3.66905 1.13789 3.63421C1.15125 3.61997 1.16457 3.60594 1.17781 3.59207C1.2218 3.54596 1.26491 3.50173 1.30603 3.4586C1.30603 3.4586 1.30603 3.4586 1.30603 3.4586C1.3076 3.45697 1.30916 3.45533 1.31071 3.4537C1.35326 3.40903 1.3937 3.36555 1.43182 3.32182C1.46999 3.27807 1.50587 3.23401 1.54026 3.18857C1.57587 3.14138 1.60427 3.10115 1.63914 3.04796C1.66179 3.01329 1.68426 2.97933 1.70698 2.94567C1.741 2.89526 1.7754 2.84543 1.81068 2.79543C1.8459 2.7455 1.88124 2.69634 1.91728 2.64708C1.92887 2.63124 1.94121 2.61455 1.95294 2.59868C1.98917 2.54964 2.02549 2.50122 2.06211 2.45277C2.09867 2.4044 2.13524 2.3564 2.17192 2.30833C2.20875 2.26007 2.24524 2.2124 2.28273 2.16349C2.34642 2.08025 2.41835 2.01295 2.48389 1.9575C2.55036 1.90151 2.61557 1.85315 2.67988 1.80731C2.69193 1.79872 2.70401 1.79018 2.71613 1.78168C2.76835 1.74516 2.82037 1.71015 2.87173 1.67579C2.93507 1.63346 2.9975 1.59214 3.06039 1.55085C3.12276 1.50993 3.18599 1.46877 3.24838 1.42801C3.31137 1.38684 3.37181 1.34746 3.43721 1.30482C3.50195 1.26278 3.56704 1.21795 3.63977 1.17048C3.71181 1.12343 3.78889 1.0759 3.86906 1.0319C3.92251 1.00253 3.97735 0.974638 4.03317 0.948637C4.06103 0.935653 4.0891 0.923153 4.1173 0.911186C4.20213 0.875131 4.28906 0.843329 4.37601 0.81606C4.46346 0.788606 4.55164 0.765449 4.64017 0.745982C4.72849 0.726526 4.82054 0.71026 4.90718 0.698343C5.04745 0.679015 5.18763 0.665647 5.32798 0.657323C5.46757 0.649087 5.60754 0.645957 5.74673 0.647693C5.88568 0.649431 6.02431 0.65595 6.16189 0.667147C6.29953 0.678345 6.43631 0.694153 6.57175 0.714329C6.60171 0.718791 6.63162 0.723465 6.66145 0.72835C6.76655 0.745555 6.87084 0.765382 6.9739 0.787572C6.97461 0.787749 6.97531 0.787927 6.97602 0.788105C7.10864 0.816663 7.23744 0.84875 7.36605 0.884369C7.41328 0.897418 7.45841 0.910439 7.50414 0.923931C7.54994 0.93744 7.59463 0.950998 7.63965 0.964953C7.67805 0.976858 7.71615 0.988869 7.75374 1.00085C7.76021 1.00292 7.76668 1.00499 7.77312 1.00705C7.81743 1.02122 7.86041 1.03517 7.90381 1.04914C7.94356 1.06199 7.98301 1.07447 8.02593 1.08869C8.02984 1.08999 8.03376 1.09129 8.03767 1.09259C8.08456 1.10823 8.13749 1.12758 8.18578 1.14793C8.31373 1.20207 8.43647 1.25777 8.55938 1.3174C8.68233 1.37709 8.80292 1.43967 8.92196 1.50641C8.96844 1.53247 9.01476 1.55915 9.06064 1.58652C9.13199 1.62909 9.20255 1.6733 9.27206 1.71929C9.38644 1.79494 9.49762 1.87528 9.60534 1.96081C9.71265 2.04601 9.81644 2.13644 9.91517 2.23063C10.0138 2.32473 10.1088 2.42376 10.1978 2.52483C10.2969 2.63746 10.3903 2.75281 10.4791 2.87117C10.5216 2.92781 10.5629 2.98506 10.603 3.0428C10.6466 3.10551 10.6888 3.16875 10.7295 3.23237C10.808 3.35502 10.8813 3.47932 10.9496 3.60514C11.018 3.73104 11.0814 3.85834 11.14 3.98677C11.175 4.06364 11.2083 4.14087 11.2399 4.21841C11.2601 4.25709 11.279 4.29445 11.2965 4.33062C11.4245 4.59846 11.4966 4.80158 11.5644 5.07405C11.571 5.10007 11.5766 5.12107 11.5831 5.14671C11.5843 5.15161 11.5856 5.1568 11.5869 5.1621C11.5952 5.19566 11.6042 5.23434 11.6144 5.28876C11.6351 5.39706 11.657 5.56619 11.6697 5.78196C11.6728 5.83647 11.672 5.87164 11.6675 5.86113C11.6643 5.85377 11.6588 5.82619 11.6531 5.79217C11.6615 5.85573 11.669 5.919 11.6758 5.98199C11.6784 6.00711 11.6806 6.03074 11.6822 6.04748C11.6838 6.063 11.6848 6.07143 11.6848 6.07143C11.6848 6.07143 11.6848 6.07138 11.6847 6.07127C11.6846 6.06984 11.6831 6.05856 11.68 6.04005C11.6769 6.02153 11.6725 5.99734 11.6681 5.97259C11.6564 5.90689 11.6435 5.84154 11.6294 5.77633C11.6153 5.71105 11.6 5.64625 11.5834 5.58147C11.5667 5.51671 11.5488 5.45221 11.5295 5.38778C11.5102 5.32362 11.4897 5.25961 11.4677 5.19584C11.4456 5.13167 11.4226 5.06908 11.3979 5.00587C11.3831 4.968 11.3677 4.92982 11.3521 4.89252C11.3462 4.87862 11.3405 4.86508 11.3346 4.85155C11.3299 4.84049 11.3251 4.82938 11.3201 4.81797C11.2674 4.69794 11.2093 4.57857 11.147 4.46252C11.0843 4.34591 11.017 4.23165 10.9451 4.12004C10.8732 4.00837 10.7967 3.89948 10.7159 3.79355C10.6351 3.68767 10.55 3.58489 10.4607 3.48535C10.4157 3.43527 10.3697 3.38594 10.3225 3.33749C10.2763 3.29004 10.2292 3.24349 10.1812 3.19795C10.1061 3.12674 10.0293 3.05849 9.95024 2.99262C9.91661 2.96982 9.88319 2.94762 9.84995 2.92604C9.75327 2.86323 9.65133 2.80812 9.54897 2.75858C9.71689 2.86807 9.85022 2.95919 9.97353 3.05127C9.99004 3.06364 10.0064 3.07602 10.0226 3.08851C10.1228 3.16596 10.2177 3.2465 10.3159 3.34443C10.3794 3.40778 10.4442 3.47842 10.5118 3.56062C10.9971 4.16092 11.1745 4.57135 11.2877 4.81863C11.3958 5.06966 11.4278 5.18259 11.4575 5.28772C11.4994 5.43635 11.5907 5.71539 11.6292 5.85785C11.6435 5.90953 11.6525 5.95184 11.6505 5.95216C11.6485 5.95245 11.6329 5.91159 11.6148 5.86124C11.5644 5.71385 11.4457 5.42144 11.3859 5.25084C11.359 5.17492 11.3294 5.08658 11.2106 4.85041C11.0871 4.61835 10.8913 4.23041 10.3915 3.67202C10.3224 3.59614 10.257 3.53156 10.1928 3.47375C10.0987 3.389 10.0077 3.31877 9.9105 3.25052C9.89447 3.23928 9.87819 3.2281 9.86174 3.21692C9.86164 3.21684 9.86155 3.21676 9.86145 3.21669C9.70955 3.11387 9.5396 3.01 9.30915 2.87688C8.78153 2.55319 7.98106 2.34553 7.78779 2.33971C7.74981 2.33626 7.71294 2.33427 7.67405 2.33263C7.61728 2.33028 7.55612 2.32869 7.48052 2.32608C7.3575 2.3223 7.1963 2.31382 6.95336 2.30939C6.86758 2.30799 6.76755 2.30573 6.65859 2.30522C6.49305 2.34701 6.33743 2.39614 6.20454 2.43261C6.08969 2.464 5.98711 2.51768 5.89208 2.5785C5.8647 2.59601 5.8375 2.61445 5.81066 2.63313C5.7459 2.67816 5.68306 2.72497 5.62233 2.76535C5.57387 2.79753 5.52468 2.83532 5.47416 2.87639C5.30979 3.00956 5.13564 3.17602 4.90341 3.30278C4.87417 3.31871 4.84399 3.33404 4.81255 3.34869C4.51394 3.4883 4.26349 3.61406 4.05059 3.73366C4.21194 3.6538 4.3445 3.60992 4.45513 3.57765C4.47602 3.57159 4.49608 3.56597 4.51539 3.56069C4.65191 3.5236 4.75039 3.50125 4.84706 3.45439C4.88027 3.43838 4.91208 3.42334 4.94269 3.40904C5.34061 3.2282 5.51164 3.15269 5.70133 3.01927C5.75563 2.98227 5.81606 2.93737 5.88348 2.8911C6.01786 2.79851 6.18196 2.70099 6.36785 2.64667C6.54051 2.59587 6.73982 2.53622 6.95929 2.49246C6.95937 2.49246 6.95946 2.49247 6.95954 2.49247C7.00241 2.4839 7.046 2.47592 7.09025 2.46868C7.20973 2.44909 7.33372 2.435 7.45933 2.42889C7.6172 2.42113 7.77756 2.42609 7.9336 2.44594C7.96358 2.44974 7.99966 2.45387 8.04114 2.4593C8.27869 2.48798 8.70813 2.57585 9.14196 2.86409C9.23695 2.92661 9.32965 3.00079 9.43236 3.08761C9.46363 3.11407 9.49582 3.14183 9.52926 3.17082C9.66737 3.29117 9.83213 3.43552 10.043 3.63113C10.0523 3.63972 10.0616 3.64842 10.071 3.65721C10.2559 3.82985 10.475 4.04885 10.6804 4.29839C10.7817 4.42108 10.8799 4.55067 10.9711 4.68278C11.2464 5.08238 11.4526 5.48396 11.621 5.90476C11.621 5.90484 11.6211 5.90493 11.6211 5.90501C11.6406 5.95484 11.6544 5.99453 11.6524 5.9931C11.6504 5.9917 11.6303 5.95072 11.6068 5.90224C11.4093 5.49095 11.1784 5.10684 10.8838 4.73144C10.7873 4.60883 10.6839 4.48838 10.578 4.37463C10.3613 4.14114 10.1327 3.93787 9.94277 3.77952C9.9351 3.7731 9.92749 3.76675 9.91994 3.76046C9.699 3.57718 9.5292 3.44336 9.3884 3.33227C9.35329 3.30471 9.32013 3.27889 9.28845 3.25459C9.18757 3.17733 9.10179 3.11476 9.01327 3.06217C8.60056 2.81478 8.20256 2.75085 7.97347 2.73323C7.93254 2.7297 7.89665 2.72716 7.86628 2.72467C7.71185 2.71198 7.55313 2.71495 7.39705 2.73098C7.28706 2.74223 7.17842 2.75988 7.07315 2.78207C7.03184 2.79077 6.99099 2.80012 6.95075 2.81008C6.95066 2.81013 6.95058 2.81018 6.95049 2.81023C6.74357 2.86128 6.55359 2.92768 6.39006 2.98406C6.22369 3.0412 6.08644 3.13198 5.96639 3.2228C5.90187 3.27154 5.84203 3.32021 5.78396 3.36412C5.60002 3.50715 5.43655 3.58922 5.07518 3.76744C5.04782 3.78127 5.01945 3.79574 4.98992 3.81105ZM11.6393 5.69379C11.6217 5.56234 11.6025 5.45506 11.5849 5.37607C11.5982 5.44379 11.6104 5.5113 11.6215 5.57878C11.6278 5.61718 11.6337 5.6555 11.6393 5.69379ZM6.65763 1.97241C6.67883 1.96793 6.70023 1.96356 6.72177 1.95932C6.66299 1.95852 6.60421 1.95852 6.54558 1.95953C6.4736 1.96076 6.40169 1.9633 6.32995 1.96728C6.44413 1.96663 6.55471 1.96888 6.65763 1.97241ZM4.67028 2.99169C4.70517 2.97638 4.73855 2.96048 4.77079 2.94401C5.00766 2.82307 5.18246 2.66964 5.35736 2.53846C5.41439 2.49568 5.47118 2.45552 5.52911 2.42024C5.55313 2.40561 5.57715 2.39021 5.6015 2.37436C5.44826 2.39684 5.30821 2.42368 5.19418 2.44882C4.94705 2.50376 4.77666 2.54393 4.63445 2.5752C4.58101 2.58713 4.53173 2.59812 4.48423 2.60931C4.43398 2.62116 4.38571 2.63328 4.33691 2.64723C4.30414 2.67613 4.27041 2.70597 4.23614 2.73499C4.18821 2.77575 4.13668 2.81892 4.08797 2.85946C4.03906 2.90016 3.98964 2.94094 3.9412 2.98033C3.89235 3.02006 3.84408 3.05886 3.79626 3.09732C3.75128 3.13353 3.70663 3.16944 3.66408 3.20482C3.66164 3.20684 3.65921 3.20887 3.65677 3.2109C3.6119 3.2484 3.56894 3.28556 3.53165 3.32241C3.49375 3.35999 3.46456 3.39408 3.44277 3.42938C3.41555 3.47343 3.38779 3.51791 3.36053 3.56132C3.33325 3.60478 3.30626 3.64747 3.27952 3.68956C3.25272 3.73173 3.22643 3.77313 3.2003 3.8143C3.19186 3.82761 3.18305 3.84151 3.17473 3.85466C3.1709 3.86072 3.16711 3.86681 3.16331 3.87284C3.23106 3.81146 3.30356 3.7501 3.38093 3.68986C3.49273 3.60285 3.62041 3.52085 3.76467 3.43823C4.01143 3.29772 4.30368 3.15332 4.67028 2.99169ZM2.32275 4.96248C2.34237 4.92827 2.37004 4.8775 2.40754 4.8129C2.41641 4.79764 2.42574 4.78149 2.43575 4.76472C2.43541 4.76505 2.43514 4.76544 2.43481 4.76576C2.3992 4.80016 2.36714 4.83277 2.33413 4.8693C2.27538 4.93447 2.22117 5.0005 2.16969 5.06971C2.11804 5.1392 2.06987 5.21102 2.0251 5.28509C1.98027 5.35926 1.93894 5.43588 1.90173 5.51363C1.8642 5.59217 1.8308 5.67134 1.80156 5.7529C1.79225 5.77887 1.78337 5.8051 1.77494 5.83146C1.8053 5.77658 1.83576 5.71962 1.86909 5.66031C1.89572 5.61295 1.92423 5.5641 1.95605 5.51387C1.96822 5.49466 1.98407 5.47193 2.00282 5.44569C2.07746 5.34141 2.19615 5.18359 2.32275 4.96248ZM1.6911 6.51666C1.68943 6.53641 1.68766 6.55599 1.68563 6.57529C1.67986 6.63022 1.67293 6.68341 1.66628 6.73555C1.66158 6.77219 1.6569 6.80834 1.65274 6.84407C1.65098 6.85916 1.64935 6.8742 1.64778 6.88914C1.646 6.90588 1.64441 6.92256 1.64293 6.93918C1.6422 6.94738 1.64151 6.95556 1.64084 6.96372C1.64242 6.95562 1.64403 6.94753 1.64564 6.93945C1.67824 6.77674 1.71557 6.61936 1.75652 6.45701C1.75709 6.45476 1.75755 6.45248 1.75812 6.45021C1.73511 6.47254 1.71276 6.49469 1.6911 6.51666Z" fill="var(--stroke-0, #B4D455)"/>
</svg>
