<svg preserveAspectRatio="none" width="100%" height="100%" overflow="visible" style="display: block;" viewBox="0 0 6 6" fill="none" xmlns="http://www.w3.org/2000/svg">
<g id="ic:prime-square" clip-path="url(#clip0_514_2188)">
<path id="Vector" d="M4.90196 0H1.09802C0.494047 0 0 0.494116 0 1.09803V4.90198C0 5.50589 0.494047 6.00004 1.09802 6.00004H4.90196C5.50587 6.00004 6 5.50589 6 4.90198V1.09803C6 0.494116 5.50587 0 4.90196 0Z" fill="var(--fill-0, white)"/>
<path id="Vector_2" d="M2.56641 3.97372L4.08323 2.8406L2.56641 1.80884V3.97372Z" fill="var(--fill-0, #ED1C24)"/>
<path id="Vector_3" d="M4.90196 0H1.09802C0.494047 0 0 0.494116 0 1.09803V4.90198C0 5.50589 0.494047 6.00004 1.09802 6.00004H2.00514V0.742956L5.04288 2.82199L2.56717 4.67859V6.00004H4.90196C5.50587 6.00004 6 5.50589 6 4.90198V1.09803C6 0.494116 5.50587 0 4.90196 0Z" fill="var(--fill-0, #ED1C24)"/>
</g>
<defs>
<clipPath id="clip0_514_2188">
<rect width="6" height="6.00004" fill="white"/>
</clipPath>
</defs>
</svg>
