<svg preserveAspectRatio="none" width="100%" height="100%" overflow="visible" style="display: block;" viewBox="0 0 14 14" fill="none" xmlns="http://www.w3.org/2000/svg">
<path id="Vector" d="M4.4818 7.8226C4.56058 7.73241 4.64951 7.66295 4.76289 7.57628C4.76294 7.57622 4.76299 7.57616 4.76304 7.57611C4.77924 7.56373 4.79599 7.55103 4.81323 7.53783C4.95211 7.43162 5.13075 7.2918 5.37957 7.06044C5.65449 6.80478 5.92463 6.65367 6.11167 6.58347C6.14655 6.57039 6.17729 6.55146 6.24523 6.49415C6.27926 6.46545 6.32153 6.42812 6.37745 6.37854C6.39475 6.3632 6.41336 6.34669 6.43343 6.32891C6.47864 6.28887 6.53127 6.2423 6.59325 6.18814C6.79828 6.00872 7.09916 5.70709 7.37999 5.43274C7.55031 5.2661 7.71307 5.10927 7.84027 4.99373C8.0263 4.82475 8.21506 4.67095 8.42086 4.50437C8.60939 4.35186 8.81219 4.18857 9.04163 3.99442C9.21779 3.84558 9.42357 3.73559 9.63339 3.62452C9.66011 3.6104 9.68694 3.59622 9.71377 3.582C9.89897 3.48403 10.086 3.38158 10.2688 3.25135C10.5943 3.01894 10.8104 2.78973 11.0565 2.54285C11.1526 2.44613 11.253 2.34639 11.365 2.24134C11.5421 2.07518 11.8058 1.84542 12.0716 1.61572C12.0943 1.59615 12.1169 1.57654 12.1396 1.55702C12.1397 1.55692 12.1398 1.55682 12.1399 1.55672C12.3834 1.34666 12.6229 1.14098 12.7975 0.988995C13.0751 0.747519 13.178 0.655168 13.2644 0.57872C13.2969 0.550003 13.3271 0.523558 13.3637 0.492513C13.4952 0.380738 13.6992 0.217327 13.9057 0.051471C13.9065 0.0508386 13.9073 0.0502041 13.9081 0.0495717C13.9425 0.0222153 13.9702 1.99053e-05 13.9699 -4.93216e-08C13.9696 -1.30542e-05 13.9432 0.0239916 13.911 0.0535943C13.8078 0.147608 13.707 0.239257 13.617 0.321611C13.6172 0.330729 13.5974 0.357325 13.569 0.384627C13.4984 0.453179 13.2826 0.66389 12.9684 1.01707C12.9936 0.996615 13.015 0.979672 13.0338 0.964902C13.0558 0.947565 13.0728 0.934387 13.0874 0.922999C13.1177 0.899234 13.1376 0.883184 13.1703 0.852032C13.244 0.777822 13.3567 0.658008 13.475 0.531729C13.5051 0.499982 13.5354 0.48047 13.5429 0.488212C13.5504 0.495969 13.5338 0.529771 13.5059 0.563622C13.5053 0.564282 13.5048 0.564941 13.5042 0.565602C13.3941 0.697778 13.2847 0.828273 13.2119 0.910024C13.1934 0.930823 13.1772 0.948519 13.1649 0.961673C13.1551 0.972189 13.1428 0.985246 13.1355 0.991982C13.1345 0.992877 13.1326 0.99457 13.1303 0.996506C13.1302 0.996535 13.1302 0.996565 13.1302 0.996594C13.1289 0.997678 13.1223 1.00323 13.114 1.00797C13.1124 1.00892 13.1087 1.01098 13.104 1.01288C13.1031 1.01367 13.1022 1.01446 13.1013 1.01525C13.0885 1.02623 13.0754 1.03739 13.0613 1.04958C13.0063 1.09711 12.9211 1.17431 12.747 1.33833C12.5869 1.48927 12.3248 1.75295 12.0048 2.08906C12.0287 2.06861 12.0525 2.04797 12.0761 2.0272C12.1355 1.97492 12.1943 1.92153 12.2526 1.86756C12.275 1.84688 12.2969 1.82642 12.3192 1.80546C12.355 1.77173 12.3908 1.73771 12.4264 1.70352C12.4504 1.68042 12.4744 1.65718 12.4983 1.63392C12.4984 1.63386 12.4984 1.63381 12.4985 1.63375C12.5317 1.60146 12.5648 1.56897 12.5982 1.53614C12.6099 1.52469 12.6214 1.51334 12.6328 1.50205C12.6783 1.45708 12.7228 1.41273 12.7753 1.36303C12.7819 1.35718 12.7892 1.35096 12.7947 1.34639C12.8006 1.34147 12.8063 1.33676 12.8118 1.33237C12.8166 1.32849 12.8212 1.32483 12.8257 1.3213C12.8263 1.32082 12.8268 1.32035 12.8274 1.31987C12.8324 1.31591 12.8371 1.3121 12.8416 1.30841C12.846 1.30473 12.8504 1.30118 12.8545 1.2976C12.8546 1.29757 12.8546 1.29753 12.8546 1.29749C12.859 1.29374 12.8622 1.29088 12.8667 1.28679C12.8723 1.28165 12.8771 1.27716 12.8828 1.27162C12.8883 1.26626 12.8939 1.2606 12.8996 1.25482C12.9052 1.24904 12.9109 1.24311 12.9166 1.23704C12.9224 1.23098 12.9282 1.22478 12.934 1.21851C12.9398 1.21223 12.9457 1.20584 12.9516 1.19941C12.9575 1.19298 12.9635 1.18648 12.9694 1.17993C12.9832 1.16485 12.9994 1.15348 13.0145 1.14827C13.0296 1.14307 13.0422 1.14443 13.05 1.15232C13.0578 1.16021 13.0601 1.17415 13.0568 1.19135C13.0536 1.20854 13.0449 1.2276 13.0326 1.24418C13.0293 1.24869 13.0259 1.25323 13.0226 1.25778C13.0206 1.26048 13.0185 1.26319 13.0165 1.26591C13.0111 1.2732 13.0056 1.28059 13.0001 1.28797C12.9946 1.29535 12.9889 1.30277 12.9832 1.31024C12.9775 1.31773 12.9717 1.32529 12.9657 1.3329C12.9598 1.34049 12.9536 1.34818 12.9473 1.35591C12.9411 1.36345 12.9339 1.37194 12.9274 1.37939C12.9226 1.38486 12.9166 1.39144 12.9115 1.39689C12.9062 1.40258 12.9009 1.4081 12.8958 1.41338C12.8906 1.41867 12.8856 1.42372 12.8808 1.42855C12.8803 1.42907 12.8798 1.42959 12.8793 1.4301C12.875 1.43437 12.8709 1.43847 12.867 1.44238C12.8627 1.44675 12.8587 1.45093 12.8549 1.45493C12.8506 1.45933 12.8482 1.46209 12.8452 1.4655C12.8066 1.51171 12.7605 1.57043 12.7165 1.62639C12.7109 1.63342 12.7054 1.6404 12.7 1.64731C12.6711 1.68409 12.6423 1.72082 12.6135 1.75751C12.5926 1.78417 12.5716 1.81087 12.5506 1.83755C12.5197 1.87683 12.4886 1.91614 12.4574 1.95532C12.4381 1.97966 12.4191 2.0035 12.3997 2.02768C12.349 2.09083 12.2979 2.15387 12.2461 2.21637C12.1943 2.27876 12.1416 2.34094 12.0879 2.40209C12.0343 2.463 11.9774 2.52512 11.9204 2.58294C11.8784 2.62539 11.8324 2.666 11.7888 2.7025C11.7654 2.72212 11.7422 2.7411 11.7192 2.75967C11.7191 2.75973 11.7191 2.75978 11.719 2.75984C11.6988 2.77613 11.6788 2.79214 11.6591 2.80812C11.6167 2.84236 11.5754 2.87633 11.5349 2.91112C11.4945 2.94583 11.455 2.98116 11.4162 3.0177C11.3777 3.05398 11.3394 3.09175 11.3023 3.13004C11.2651 3.16851 11.2294 3.20713 11.1926 3.24845C11.1444 3.30284 11.0976 3.35801 11.0498 3.41489C11.0023 3.47139 10.955 3.52876 10.9075 3.58632C10.8909 3.60644 10.8742 3.62655 10.8576 3.64674C10.8575 3.64682 10.8575 3.64689 10.8574 3.64697C10.8266 3.68433 10.7958 3.72179 10.7649 3.75923C10.7172 3.81701 10.6692 3.87485 10.6206 3.93248C10.5721 3.99008 10.5228 4.04764 10.4723 4.10456C10.4218 4.16143 10.369 4.21901 10.3133 4.2741C10.2637 4.32333 10.2128 4.37201 10.1628 4.41942C10.1496 4.43194 10.1364 4.44446 10.1231 4.45697C10.0605 4.51637 10.0003 4.57439 9.94354 4.63444C9.8867 4.69437 9.83249 4.75684 9.77998 4.82209C9.72762 4.88713 9.67665 4.95504 9.62661 5.02483C9.57635 5.09492 9.52808 5.16547 9.47961 5.2382C9.43154 5.31043 9.38401 5.38375 9.33648 5.45854C9.31003 5.50009 9.281 5.5434 9.25302 5.58378C9.22477 5.62455 9.19616 5.66451 9.16764 5.70369C9.15608 5.7196 9.14449 5.73535 9.13302 5.75104C9.1163 5.7739 9.09968 5.79653 9.08348 5.81895C9.05613 5.8568 9.02984 5.89411 9.00521 5.93126C8.98059 5.96841 8.95772 6.00547 8.9372 6.04286C8.91601 6.08159 8.90005 6.11503 8.88286 6.15692C8.83521 6.25316 8.79883 6.30594 8.75841 6.3646C8.75046 6.37615 8.74239 6.38802 8.734 6.40041C8.68493 6.47014 8.63367 6.53757 8.58148 6.60251C8.52875 6.66804 8.47522 6.73093 8.41945 6.79307C8.36422 6.85462 8.30699 6.915 8.24859 6.97375C8.19028 7.0324 8.13063 7.08951 8.06937 7.14531C8.00815 7.20108 7.94416 7.25647 7.88134 7.30829C7.84506 7.33825 7.80553 7.3691 7.76834 7.39727C7.74152 7.4176 7.71483 7.4374 7.68864 7.45678C7.67795 7.4647 7.66731 7.47256 7.65679 7.48036C7.62185 7.50627 7.58802 7.53165 7.55607 7.55699C7.55486 7.55795 7.55365 7.55891 7.55244 7.55988C7.51942 7.58617 7.48832 7.61248 7.45933 7.63965C7.43027 7.66686 7.40331 7.69495 7.37783 7.72454C7.35149 7.75529 7.33078 7.78198 7.30597 7.81779C7.28986 7.84116 7.27417 7.86414 7.25853 7.88706C7.23511 7.92138 7.21199 7.95556 7.18883 7.99014C7.1657 8.02467 7.14303 8.05894 7.12045 8.09358C7.11319 8.10471 7.10551 8.11647 7.09828 8.12769C7.07593 8.16235 7.05407 8.19685 7.03257 8.23167C7.01112 8.26642 6.9902 8.30118 6.96981 8.33625C6.94933 8.37146 6.92961 8.40649 6.90996 8.44267C6.87661 8.50422 6.83705 8.55551 6.8009 8.59891C6.7642 8.64271 6.72806 8.6818 6.69278 8.71975C6.68617 8.72685 6.67956 8.73396 6.67295 8.74106C6.64441 8.77158 6.61622 8.80149 6.58881 8.8313C6.55502 8.86804 6.52234 8.9046 6.49008 8.94181C6.45809 8.97868 6.42632 9.01645 6.39577 9.05438C6.36495 9.09269 6.33605 9.12989 6.30564 9.17071C6.27551 9.21103 6.24675 9.25382 6.215 9.30049C6.18355 9.34676 6.15019 9.39495 6.11491 9.44225C6.0797 9.48955 6.04249 9.53615 6.00391 9.58078C5.96527 9.62553 5.92496 9.66886 5.88386 9.71026C5.84256 9.75189 5.80015 9.79192 5.75692 9.83071C5.71381 9.86943 5.66818 9.90833 5.62458 9.94384C5.55397 10.0014 5.48286 10.0578 5.41122 10.1139C5.33995 10.1697 5.26802 10.2252 5.19594 10.2803C5.12398 10.3353 5.05167 10.3901 4.97921 10.4445C4.90672 10.499 4.83402 10.5532 4.76127 10.6072C4.74518 10.6192 4.72909 10.6311 4.71298 10.643C4.65628 10.6851 4.59951 10.727 4.54295 10.7687C4.54254 10.769 4.54214 10.7692 4.54174 10.7695C4.46897 10.8232 4.39743 10.8759 4.32546 10.9294C4.29906 10.949 4.2737 10.9679 4.24804 10.9872C4.22236 11.0066 4.19724 11.0256 4.17201 11.045C4.14674 11.0643 4.12177 11.0837 4.09734 11.103C4.07266 11.1225 4.04876 11.1417 4.02495 11.1613C4.00311 11.1793 3.98177 11.1975 3.95837 11.2173C3.95623 11.2191 3.9541 11.2209 3.95196 11.2227C3.92636 11.2444 3.89671 11.2685 3.86815 11.2899C3.79239 11.3466 3.71901 11.4022 3.64473 11.4593C3.5704 11.5164 3.49661 11.5738 3.42219 11.6316C3.39312 11.6541 3.36395 11.6769 3.33469 11.6995C3.28917 11.7347 3.24338 11.7699 3.19723 11.8051C3.12129 11.8628 3.04453 11.9201 2.96633 11.9767C2.88843 12.0332 2.80907 12.0891 2.72916 12.1438C2.64933 12.1984 2.56794 12.2527 2.48695 12.3056C2.3967 12.3646 2.30663 12.4228 2.21612 12.4813C2.12576 12.5397 2.03528 12.5981 1.94525 12.6562C1.85491 12.7146 1.76485 12.7729 1.67489 12.8313C1.58488 12.8898 1.49506 12.9483 1.40538 13.0071C1.3517 13.0423 1.2981 13.0776 1.24457 13.1129C1.21854 13.1339 1.19351 13.154 1.16931 13.1731C0.990348 13.3146 0.856813 13.4128 0.675155 13.5368C0.657891 13.5488 0.644059 13.5588 0.627159 13.5709C0.623934 13.5732 0.620504 13.5756 0.617009 13.5781C0.594875 13.5939 0.569261 13.6117 0.532848 13.6358C0.460506 13.6842 0.345449 13.7541 0.19741 13.8452C0.159956 13.8681 0.134989 13.8816 0.140775 13.8743C0.144797 13.8692 0.162298 13.8546 0.184412 13.8376C0.142307 13.8678 0.100475 13.8981 0.0589396 13.9285C0.0423534 13.9406 0.0266923 13.9519 0.0156803 13.9601C0.00546258 13.9676 -3.67713e-06 13.9719 0 13.9719C0 13.9719 0 13.9719 0 13.9719C2.62298e-08 13.9719 3.34971e-05 13.9718 0.000100704 13.9718C0.00103252 13.9711 0.00827165 13.9653 0.0199947 13.9554C0.0317282 13.9456 0.0469737 13.9326 0.0626813 13.9195C0.104365 13.8846 0.145926 13.8499 0.187483 13.8152C0.229074 13.7805 0.27045 13.7459 0.311907 13.7111C0.353352 13.6764 0.394737 13.6416 0.436191 13.6066C0.477482 13.5718 0.518804 13.5369 0.560121 13.5018C0.601704 13.4665 0.642417 13.4318 0.683732 13.3965C0.708484 13.3753 0.733516 13.3539 0.758049 13.3328C0.767197 13.3249 0.776103 13.3172 0.785023 13.3095C0.792314 13.3033 0.799648 13.297 0.80719 13.2905C0.88649 13.2221 0.966271 13.1527 1.04503 13.0837C1.12417 13.0144 1.20294 12.9448 1.28141 12.875C1.35992 12.8051 1.43805 12.7349 1.51594 12.6645C1.59378 12.5941 1.67129 12.5234 1.74862 12.4523C1.82566 12.3814 1.90273 12.31 1.97922 12.2383C2.03839 12.1828 2.09678 12.1276 2.15501 12.072C2.17575 12.048 2.19632 12.0242 2.21661 12.0007C2.27569 11.9324 2.33174 11.8609 2.38606 11.7895C2.27558 11.9027 2.19 11.9968 2.10765 12.0855C2.09661 12.0974 2.08564 12.1092 2.07466 12.121C1.96271 12.2409 1.85141 12.3536 1.6904 12.4938C1.23276 12.893 0.96671 13.1238 0.799865 13.2665C0.633084 13.4093 0.55951 13.4687 0.489376 13.5227C0.389964 13.5986 0.215852 13.763 0.129491 13.8468C0.0979041 13.877 0.0715312 13.9005 0.0705727 13.8992C0.0696238 13.898 0.0926345 13.8706 0.122007 13.8382C0.207657 13.7442 0.384414 13.5547 0.497522 13.4591C0.547771 13.4163 0.604068 13.3657 0.759727 13.2166C0.915511 13.0675 1.16508 12.8249 1.60247 12.4038C1.75058 12.2615 1.85275 12.1481 1.95835 12.0243C1.96871 12.0122 1.9791 11.9999 1.98959 11.9875C1.98966 11.9875 1.98973 11.9874 1.9898 11.9873C2.08656 11.8734 2.19044 11.7478 2.33901 11.587C2.68232 11.2172 3.12874 10.7044 3.22419 10.5721C3.24303 10.5463 3.26071 10.5207 3.27934 10.4938C3.35087 10.3904 3.43645 10.2649 3.65601 10.0086C3.70405 9.95257 3.76186 9.88848 3.826 9.8196C3.89907 9.69306 3.96998 9.57017 4.03773 9.4694C4.09623 9.38246 4.13879 9.29091 4.17662 9.19879C4.18751 9.17227 4.19815 9.14525 4.20876 9.11826C4.23434 9.05317 4.25969 8.98781 4.2879 8.92764C4.3104 8.87967 4.33211 8.8276 4.35491 8.77242C4.43822 8.57165 4.53473 8.32774 4.74626 8.09565C4.97075 7.84988 5.17796 7.65447 5.35938 7.48864C5.22104 7.60532 5.10906 7.6902 5.01517 7.76032C4.99747 7.77354 4.98048 7.7862 4.96414 7.79839C4.84871 7.88451 4.76544 7.94778 4.69103 8.03041C4.33607 8.42555 4.22249 8.59331 4.12061 8.80887C4.09385 8.86568 4.0671 8.93113 4.03801 9.00137C3.97993 9.14181 3.91218 9.30113 3.81841 9.45135C3.73116 9.59134 3.64029 9.75462 3.54202 9.92565C3.54197 9.9257 3.54192 9.92576 3.54186 9.92581C3.52267 9.95924 3.50317 9.99298 3.4834 10.0269C3.36292 10.2338 3.23129 10.4466 3.08908 10.6396C3.07388 10.6603 3.05605 10.6854 3.03555 10.7142C2.91811 10.8814 2.70391 11.1669 2.38487 11.458C2.31506 11.5223 2.23836 11.5848 2.15184 11.6572C2.12549 11.6793 2.09817 11.7022 2.06989 11.7264C1.94779 11.8309 1.80337 11.9617 1.62274 12.1476C1.47365 12.3009 1.29744 12.4933 1.11575 12.6944C1.02627 12.7935 0.935481 12.8947 0.846212 12.9946C0.576505 13.2964 0.331679 13.5754 0.0933488 13.8599C0.0933003 13.8599 0.0932518 13.86 0.0932034 13.86C0.0648882 13.8935 0.0422632 13.9192 0.0425161 13.9173C0.0427843 13.9154 0.0639724 13.8848 0.0900547 13.8491C0.312257 13.5482 0.540976 13.2547 0.794108 12.9382C0.876894 12.8347 0.961845 12.7292 1.04604 12.6256C1.21851 12.4134 1.38789 12.2091 1.53114 12.047C1.70598 11.8491 1.84688 11.7098 1.96574 11.599C1.99436 11.5723 2.02149 11.5474 2.04734 11.5239C2.12961 11.449 2.19897 11.3877 2.26257 11.3241C2.55935 11.0301 2.75693 10.7469 2.87002 10.5743C2.89023 10.5438 2.90798 10.517 2.92341 10.4946C3.05725 10.2997 3.18162 10.085 3.29724 9.87349C3.31601 9.83919 3.33462 9.80499 3.35299 9.77097C3.35301 9.77088 3.35303 9.7708 3.35305 9.77071C3.44748 9.59591 3.5366 9.4263 3.62254 9.28076C3.70983 9.1331 3.76845 8.98682 3.82236 8.84905C3.85131 8.77515 3.87903 8.70383 3.90933 8.63631C4.01396 8.40417 4.13153 8.22483 4.4818 7.8226ZM0.249628 13.791C0.337404 13.7301 0.408908 13.6805 0.461019 13.6424C0.415836 13.6739 0.370868 13.7053 0.326012 13.7369C0.300482 13.7549 0.275027 13.7729 0.249628 13.791ZM4.01556 9.99091C4.00642 10.0059 3.99722 10.0209 3.98797 10.036C4.0203 10.0011 4.05272 9.96632 4.08505 9.93153C4.12475 9.88882 4.1645 9.84617 4.20423 9.80353C4.13798 9.86825 4.07421 9.93139 4.01556 9.99091ZM4.95538 8.30368C4.75267 8.51933 4.66104 8.74033 4.57568 8.93688C4.55116 8.99354 4.52717 9.04827 4.50151 9.10051C4.49088 9.12217 4.48078 9.14434 4.47087 9.16696C4.56695 9.07358 4.65589 8.98836 4.72885 8.91874C4.94653 8.711 5.08389 8.60623 5.20493 8.5145C5.23995 8.48796 5.27362 8.46247 5.30749 8.43596C5.32521 8.40374 5.34392 8.37058 5.36373 8.33797C5.39138 8.29223 5.42227 8.2438 5.4525 8.19854C5.48282 8.15308 5.51448 8.10773 5.54647 8.06408C5.57871 8.02007 5.61151 7.97731 5.64476 7.93534C5.67602 7.89583 5.70775 7.85704 5.73846 7.81949C5.74022 7.81734 5.74198 7.81519 5.74374 7.81304C5.77616 7.77334 5.80776 7.73476 5.83532 7.69785C5.86334 7.66023 5.88505 7.62738 5.90098 7.59488C5.92089 7.55432 5.94197 7.51336 5.96338 7.47342C5.98481 7.43343 6.00672 7.39419 6.02908 7.35558C6.0515 7.31689 6.07412 7.27902 6.09723 7.24147C6.10471 7.22933 6.11256 7.21666 6.12005 7.2047C6.1235 7.19919 6.12693 7.19365 6.13038 7.18817C6.07071 7.24717 6.00844 7.30811 5.94358 7.3706C5.84989 7.46088 5.74569 7.55307 5.63117 7.6552C5.43579 7.8294 5.21056 8.03267 4.95538 8.30368ZM7.00907 6.26807C6.98372 6.2943 6.94748 6.33361 6.90081 6.38439C6.88978 6.39639 6.87821 6.40913 6.86602 6.42239C6.86637 6.42215 6.86668 6.42184 6.86703 6.4216C6.90432 6.39576 6.93847 6.37164 6.9746 6.34486C7.03895 6.29709 7.10059 6.24981 7.16184 6.20103C7.2233 6.15205 7.28358 6.10219 7.34297 6.05131C7.40244 6.00035 7.46102 5.94818 7.51807 5.89545C7.57565 5.84218 7.63147 5.78873 7.68646 5.73341C7.70399 5.71579 7.72142 5.69798 7.73872 5.68004C7.69347 5.71347 7.64765 5.74934 7.59928 5.78725C7.56065 5.81753 7.52035 5.84911 7.47741 5.88176C7.46098 5.89426 7.44051 5.90879 7.41662 5.92575C7.32198 5.99297 7.17326 6.09824 7.00907 6.26807ZM8.12678 5.18811C8.13845 5.17417 8.15017 5.16045 8.16198 5.1471C8.1956 5.10908 8.2296 5.07328 8.26332 5.03856C8.287 5.01418 8.31068 4.99034 8.33398 4.96681C8.34381 4.95688 8.3536 4.94694 8.36332 4.9371C8.3796 4.92063 8.39566 4.90419 8.4116 4.88786C8.28926 4.99188 8.17108 5.09497 8.05175 5.20624C8.05017 5.20771 8.04865 5.20924 8.04707 5.21072C8.07426 5.20301 8.10083 5.19548 8.12678 5.18811Z" fill="var(--stroke-0, #A98BFF)"/>
</svg>
