<svg preserveAspectRatio="none" width="100%" height="100%" overflow="visible" style="display: block;" viewBox="0 0 20 20" fill="none" xmlns="http://www.w3.org/2000/svg">
<path id="Vector" d="M14.6233 10.8507C14.4707 10.7095 14.3428 10.562 14.1822 10.3747C14.1822 10.3746 14.1821 10.3745 14.182 10.3744C14.159 10.3476 14.1355 10.32 14.111 10.2915C13.9143 10.062 13.6569 9.76563 13.2482 9.33928C12.7966 8.86819 12.49 8.44232 12.3248 8.1602C12.294 8.10758 12.2568 8.05849 12.1532 7.94424C12.1013 7.88701 12.0346 7.81532 11.9461 7.72039C11.9187 7.69102 11.8892 7.65943 11.8574 7.62536C11.7859 7.54864 11.7027 7.45933 11.6057 7.35441C11.2843 7.00724 10.7602 6.4836 10.2808 5.99751C9.98973 5.7026 9.71489 5.42168 9.50971 5.20473C9.20963 4.88745 8.92935 4.57205 8.62525 4.22857C8.34682 3.91395 8.04834 3.5758 7.69778 3.18977C7.42893 2.89344 7.20235 2.57094 6.9728 2.24249C6.9436 2.20067 6.91427 2.15868 6.8849 2.11667C6.77996 1.96655 6.67328 1.81521 6.56059 1.66278C6.49162 1.55681 6.39281 1.46038 6.26818 1.39113C6.14904 1.32484 6.01886 1.28917 5.89078 1.28088C5.60076 1.26234 5.32819 1.37925 5.13324 1.57529C5.06676 1.64193 4.99993 1.70913 4.93195 1.77727C4.76452 1.94514 4.59007 2.11874 4.39776 2.30389C4.09364 2.59672 3.64735 3.00858 3.19823 3.42113C3.15997 3.45627 3.12168 3.49148 3.08346 3.52656C3.08326 3.52674 3.08307 3.52691 3.08288 3.52709C2.67155 3.90452 2.26737 4.27447 1.97192 4.54698C1.5024 4.97997 1.32723 5.14437 1.18057 5.28092C1.12541 5.33222 1.07421 5.37959 1.01269 5.43556C0.791085 5.63713 0.451247 5.9361 0.106965 6.23936C0.105651 6.24051 0.104337 6.24167 0.103023 6.24283C0.0457203 6.29299 -0.000412945 6.33359 9.34123e-07 6.3335C0.000423983 6.3334 0.0453974 6.29082 0.100462 6.23841C0.276669 6.07161 0.448698 5.90894 0.60243 5.76299C0.605558 5.75057 0.642535 5.70685 0.69143 5.65902C0.813635 5.53909 1.18716 5.17101 1.74835 4.57151C1.70618 4.60884 1.67066 4.63991 1.63946 4.66706C1.60284 4.69893 1.57468 4.72324 1.55053 4.74421C1.50021 4.78792 1.46698 4.81725 1.41064 4.87197C1.28221 5.00077 1.08353 5.20637 0.874648 5.42293C0.821767 5.47748 0.772938 5.5154 0.765574 5.50755C0.758231 5.49967 0.79344 5.44728 0.84423 5.39063C0.845225 5.38952 0.84622 5.38842 0.847214 5.38731C1.04699 5.16571 1.24522 4.94667 1.37516 4.80789C1.40821 4.77258 1.43691 4.74239 1.45858 4.71986C1.47591 4.70184 1.49762 4.67942 1.51019 4.66748C1.51186 4.66589 1.51506 4.66289 1.51896 4.65938C1.51903 4.65932 1.51909 4.65927 1.51916 4.65921C1.52134 4.65725 1.53244 4.64721 1.54546 4.63769C1.54809 4.63577 1.55384 4.63161 1.56099 4.62727C1.56254 4.62585 1.56409 4.62443 1.56563 4.62302C1.58722 4.60326 1.6093 4.58315 1.63308 4.56127C1.72601 4.47591 1.87127 4.33879 2.17054 4.04998C2.44569 3.78426 2.90234 3.32655 3.46503 2.74832C3.42477 2.78513 3.38455 2.82217 3.34451 2.85931C3.24376 2.95281 3.14341 3.04761 3.04359 3.14301C3.00536 3.17955 2.9677 3.21568 2.92944 3.25259C2.86784 3.31199 2.80625 3.37176 2.74488 3.43169C2.7034 3.47219 2.66193 3.51286 2.62056 3.55353C2.62047 3.55363 2.62038 3.55372 2.62029 3.55382C2.56287 3.61027 2.50542 3.66699 2.44761 3.72423C2.42733 3.74423 2.40734 3.76402 2.38751 3.78369C2.30861 3.86203 2.23127 3.93915 2.14088 4.02659C2.12969 4.03703 2.1174 4.04824 2.10816 4.05652C2.09824 4.06545 2.08866 4.074 2.07955 4.08204C2.07151 4.08912 2.06381 4.09584 2.05645 4.10231C2.05547 4.10318 2.05448 4.10405 2.0535 4.10492C2.04526 4.11216 2.03743 4.11911 2.02991 4.12582C2.02241 4.13251 2.01518 4.13896 2.00815 4.14539C2.00809 4.14546 2.00804 4.14552 2.00798 4.14559C2.00064 4.15232 1.99508 4.15744 1.98743 4.1647C1.97782 4.17382 1.96963 4.18172 1.95981 4.1914C1.95031 4.20076 1.94048 4.2106 1.93061 4.22059C1.92074 4.23058 1.91075 4.24081 1.90064 4.25123C1.89052 4.26165 1.88027 4.27228 1.86997 4.28302C1.85967 4.29376 1.84928 4.30467 1.83882 4.31564C1.82837 4.32662 1.8178 4.33773 1.8072 4.3489C1.78279 4.37461 1.75631 4.39618 1.73373 4.40888C1.71114 4.42155 1.69432 4.42436 1.68661 4.41642C1.67891 4.40847 1.68083 4.39026 1.69169 4.36549C1.70256 4.34073 1.72151 4.31144 1.74444 4.28422C1.75069 4.27681 1.75695 4.26935 1.76325 4.26188C1.767 4.25745 1.77079 4.25298 1.77455 4.24852C1.78467 4.23654 1.79488 4.22441 1.8052 4.21226C1.81551 4.20011 1.82595 4.18789 1.83653 4.17556C1.84714 4.16319 1.85792 4.15068 1.86892 4.13806C1.87989 4.12547 1.89117 4.11267 1.90272 4.09975C1.91398 4.08714 1.92694 4.07288 1.93866 4.06026C1.94722 4.05102 1.95791 4.03978 1.96687 4.03045C1.97622 4.02071 1.98549 4.0112 1.99448 4.00208C2.00349 3.99294 2.01227 3.98416 2.02064 3.97578C2.02153 3.97488 2.02243 3.97398 2.02332 3.97308C2.03073 3.96567 2.03789 3.95853 2.04463 3.95176C2.05216 3.94418 2.05926 3.93697 2.06596 3.93008C2.07334 3.9225 2.07775 3.91781 2.08313 3.91204C2.15311 3.83453 2.23802 3.73712 2.319 3.64427C2.32918 3.6326 2.33931 3.62101 2.34933 3.60954C2.4025 3.54853 2.45554 3.48762 2.50856 3.42676C2.54709 3.38254 2.58567 3.33826 2.62434 3.29397C2.68123 3.22879 2.73838 3.16349 2.79555 3.09835C2.83107 3.05789 2.86598 3.01823 2.9015 2.97796C2.99424 2.87281 3.08759 2.76764 3.18171 2.66296C3.27569 2.55844 3.37088 2.45386 3.46721 2.3503C3.56317 2.24713 3.66402 2.1411 3.76358 2.0409C3.83682 1.96729 3.91482 1.89473 3.98805 1.82867C4.0274 1.79317 4.06616 1.75863 4.1045 1.72474C4.10464 1.72463 4.10478 1.72452 4.10492 1.72441C4.13857 1.69467 4.17186 1.66537 4.20484 1.6362C4.27557 1.5737 4.3447 1.51195 4.41302 1.4494C4.48125 1.38696 4.54842 1.32402 4.61513 1.25966C4.64933 1.22667 4.68358 1.19315 4.71766 1.15935C4.75727 1.11997 4.79879 1.0823 4.84173 1.04674C4.93105 0.97289 5.02545 0.908227 5.13074 0.850551C5.26918 0.774825 5.41719 0.717044 5.57561 0.680234C5.67817 0.656405 5.7839 0.641804 5.89078 0.637237C5.94774 0.634797 6.00506 0.635197 6.0624 0.63851C6.12004 0.641835 6.17774 0.648193 6.23517 0.657423C6.23539 0.657463 6.23561 0.657503 6.23583 0.657543C6.34206 0.674648 6.44736 0.701933 6.5496 0.739208C6.70743 0.796708 6.85823 0.878174 6.9947 0.981409C7.0412 1.01657 7.08606 1.05425 7.12899 1.0943C7.19302 1.15282 7.25688 1.21166 7.32054 1.27111C7.41707 1.36135 7.51538 1.45487 7.61139 1.55154C7.69712 1.63771 7.78259 1.7255 7.86598 1.81151C7.888 1.83422 7.91001 1.85694 7.93202 1.87967C8.0365 1.98745 8.13815 2.09128 8.24135 2.19129C8.3444 2.2913 8.44996 2.38866 8.5587 2.48471C8.6671 2.58047 8.77891 2.67539 8.89295 2.76975C9.00749 2.86451 9.12192 2.95671 9.23942 3.05C9.35606 3.14255 9.47402 3.23476 9.59398 3.32753C9.66065 3.37912 9.73068 3.43491 9.7963 3.48816C9.86255 3.54192 9.92784 3.5959 9.99203 3.64944C10.0181 3.67116 10.0439 3.69286 10.0696 3.71437C10.1071 3.74573 10.1442 3.77686 10.1809 3.80734C10.2429 3.85879 10.3037 3.9086 10.3636 3.95608C10.4236 4.00353 10.4828 4.04857 10.5416 4.09049C10.6024 4.13386 10.6541 4.16807 10.7178 4.20711C10.8672 4.30797 10.9529 4.37732 11.0482 4.45437C11.0669 4.46954 11.0861 4.48499 11.1062 4.50106C11.2198 4.59405 11.3311 4.6892 11.4393 4.78469C11.5485 4.88115 11.6544 4.97772 11.76 5.0771C11.8647 5.1755 11.9685 5.27622 12.0705 5.37793C12.1724 5.47948 12.2726 5.5823 12.3716 5.68684C12.4706 5.79131 12.5701 5.89944 12.6642 6.00464C12.7186 6.06542 12.7755 6.13096 12.8278 6.19232C12.8655 6.23657 12.9025 6.28044 12.9387 6.32348C12.9535 6.34106 12.9682 6.35853 12.9827 6.37582C13.0311 6.43326 13.0784 6.48899 13.1249 6.54211C13.1266 6.54413 13.1284 6.54614 13.1302 6.54815C13.1784 6.6031 13.2259 6.65542 13.2738 6.70518C13.3218 6.75504 13.3702 6.80235 13.4201 6.8482C13.4719 6.89565 13.5161 6.93388 13.5743 6.9811C13.6123 7.01181 13.6495 7.0418 13.6867 7.0717C13.7423 7.11647 13.7977 7.16078 13.8536 7.20529C13.9094 7.24974 13.9647 7.29346 14.0205 7.33721C14.0384 7.35127 14.0573 7.36612 14.0754 7.38018C14.1311 7.42361 14.1864 7.46632 14.242 7.50863C14.2975 7.55087 14.3529 7.59238 14.4084 7.63327C14.4642 7.67434 14.5194 7.71431 14.5762 7.75461C14.6728 7.82306 14.7577 7.8962 14.8304 7.96177C14.904 8.02823 14.9709 8.09218 15.0358 8.15454C15.048 8.16621 15.0602 8.1779 15.0723 8.18958C15.1247 8.23996 15.176 8.28962 15.227 8.33819C15.2898 8.39806 15.3519 8.45634 15.4148 8.51428C15.4771 8.57173 15.5405 8.62922 15.6037 8.68509C15.6676 8.74147 15.7292 8.79481 15.7963 8.85156C15.8626 8.90774 15.9319 8.96296 16.0075 9.02371C16.0825 9.08389 16.1608 9.1474 16.2386 9.21322C16.3163 9.27893 16.3939 9.34713 16.4692 9.41648C16.5448 9.48594 16.619 9.55719 16.6909 9.62878C16.7631 9.70075 16.8336 9.77365 16.9027 9.84719C16.9716 9.92056 17.0417 9.99744 17.1065 10.0703C17.2113 10.1883 17.3148 10.3065 17.4181 10.4254C17.5208 10.5436 17.6234 10.6627 17.7254 10.7818C17.8273 10.9007 17.929 11.02 18.0303 11.1394C18.1317 11.2588 18.2328 11.3784 18.3336 11.498C18.3559 11.5245 18.3782 11.5509 18.4004 11.5774C18.4789 11.6706 18.5573 11.7639 18.6353 11.8568C18.6358 11.8574 18.6363 11.8581 18.6368 11.8587C18.732 11.972 18.8254 12.0833 18.9199 12.1954C18.9291 12.2056 18.9382 12.2158 18.9471 12.2261C19.0097 12.2979 19.0652 12.3707 19.117 12.4473C19.1687 12.524 19.2148 12.6022 19.2563 12.6834C19.2979 12.7646 19.3342 12.8476 19.3651 12.9308C19.3963 13.015 19.4218 13.0986 19.4429 13.184C19.4622 13.2622 19.4777 13.3406 19.4894 13.427C19.4905 13.4349 19.4915 13.4427 19.4925 13.4506C19.5043 13.5452 19.5096 13.6536 19.5057 13.7538C19.5053 13.7628 19.5049 13.7719 19.5045 13.7809C19.4913 14.0365 19.4349 14.2817 19.3384 14.5122C19.2383 14.7511 19.0962 14.9693 18.9196 15.155C18.8853 15.1911 18.8498 15.226 18.813 15.2596C18.7885 15.2807 18.7642 15.3018 18.7399 15.3228C18.6645 15.3878 18.5888 15.453 18.5126 15.5181C18.3872 15.6253 18.261 15.7321 18.1329 15.8386C18.0054 15.9447 17.8761 16.0505 17.7464 16.1549C17.6169 16.2593 17.4853 16.3637 17.3549 16.4661C17.2095 16.5801 17.0646 16.6932 16.919 16.8067C16.7737 16.9201 16.6282 17.0334 16.4835 17.1463C16.3382 17.2596 16.1933 17.3727 16.0485 17.486C15.9036 17.5993 15.759 17.7127 15.6144 17.8263C15.5279 17.8943 15.4415 17.9624 15.3551 18.0306C15.3117 18.069 15.27 18.1057 15.2298 18.1409C14.9324 18.4007 14.7132 18.5845 14.4186 18.8215C14.3905 18.8443 14.3679 18.8631 14.3403 18.8859C14.335 18.8902 14.3294 18.8948 14.3237 18.8995C14.2876 18.9293 14.2459 18.9632 14.1871 19.0097C14.0702 19.1026 13.8868 19.2409 13.6504 19.4203C13.5906 19.4655 13.5515 19.4932 13.562 19.4811C13.5695 19.4726 13.5988 19.4462 13.6354 19.4147C13.5666 19.4717 13.4981 19.5286 13.43 19.5856C13.4028 19.6083 13.3771 19.6296 13.359 19.6448C13.3423 19.6589 13.3332 19.6667 13.3332 19.6667C13.3332 19.6667 13.3333 19.6667 13.3334 19.6666C13.3349 19.6652 13.347 19.6546 13.3667 19.6368C13.3864 19.6191 13.4121 19.5956 13.4384 19.5718C13.5084 19.5087 13.5781 19.4458 13.6479 19.3829C13.7177 19.3199 13.7871 19.2573 13.8567 19.1944C13.9263 19.1315 13.9959 19.0686 14.0656 19.0054C14.135 18.9425 14.2045 18.8794 14.274 18.8161C14.344 18.7524 14.4126 18.6898 14.4822 18.6261C14.524 18.588 14.5662 18.5494 14.6076 18.5114C14.623 18.4973 14.638 18.4835 14.6531 18.4696C14.6654 18.4584 14.6778 18.447 14.6905 18.4353C14.8244 18.3124 14.9593 18.1879 15.0926 18.0643C15.2266 17.9401 15.3602 17.8158 15.4935 17.6911C15.6268 17.5664 15.7598 17.4415 15.8925 17.3162C16.0251 17.191 16.1574 17.0656 16.2896 16.9396C16.4213 16.8141 16.5532 16.6878 16.6844 16.5614C16.786 16.4636 16.8863 16.3664 16.9866 16.2687C17.0239 16.2281 17.0609 16.188 17.0974 16.1483C17.2035 16.0329 17.3067 15.9143 17.4075 15.7965C17.2143 15.9923 17.0623 16.1528 16.9168 16.3047C16.8973 16.3251 16.8779 16.3453 16.8585 16.3655C16.6609 16.571 16.4668 16.7665 16.1945 17.018C15.4202 17.7338 14.9706 18.1481 14.6893 18.4052C14.4082 18.6623 14.2854 18.7709 14.1694 18.8707C14.0052 19.0115 13.706 19.3009 13.5568 19.4475C13.5024 19.5006 13.4576 19.5425 13.4567 19.5412C13.4559 19.5398 13.4975 19.4938 13.5497 19.4386C13.7017 19.2783 14.0138 18.9534 14.2041 18.7806C14.2887 18.7035 14.3845 18.6134 14.6528 18.3517C14.9212 18.09 15.3527 17.6655 16.1073 16.9272C16.3628 16.6776 16.5446 16.4846 16.735 16.276C16.7536 16.2556 16.7724 16.2349 16.7913 16.2141C16.7914 16.214 16.7916 16.2139 16.7917 16.2138C16.9663 16.022 17.155 15.8116 17.4179 15.5365C17.6738 15.2688 17.965 14.9602 18.2291 14.676C18.5211 14.3651 18.5697 13.9705 18.551 13.7809C18.5481 13.7409 18.5434 13.7081 18.539 13.6834C18.53 13.6341 18.5177 13.5874 18.5018 13.5394C18.4479 13.3929 18.3797 13.2084 18.1331 12.9818C18.0692 12.9246 17.9992 12.8612 17.9218 12.7903C17.8273 12.7038 17.7182 12.6009 17.6002 12.4876C17.3999 12.3407 17.2054 12.1981 17.0424 12.0681C16.9018 11.9558 16.7607 11.8636 16.6206 11.7778C16.5802 11.753 16.5393 11.7285 16.4985 11.704C16.3999 11.6448 16.301 11.586 16.2082 11.5251C16.1342 11.4765 16.0549 11.4275 15.9709 11.3759C15.6652 11.1875 15.2956 10.9651 14.8996 10.5896C14.4802 10.1912 14.1361 9.83512 13.8421 9.52532C14.0529 9.75794 14.2105 9.94271 14.3412 10.0972C14.3658 10.1264 14.3894 10.1543 14.4121 10.1812C14.5727 10.3711 14.6901 10.5086 14.8307 10.6411C15.5028 11.2734 15.7745 11.491 16.1073 11.7102C16.195 11.7679 16.2945 11.8287 16.4014 11.8946C16.6152 12.0261 16.8583 12.1778 17.0987 12.3618C17.3226 12.533 17.5797 12.7179 17.8502 12.9157C17.8503 12.9158 17.8504 12.9159 17.8505 12.916C17.9034 12.9547 17.9568 12.9939 18.0105 13.0335C18.0241 13.0435 18.0377 13.0535 18.0513 13.0636C18.2724 13.2087 18.4496 13.4774 18.482 13.7809C18.4866 13.8217 18.4888 13.8628 18.4886 13.904C18.4883 13.9426 18.4867 13.9892 18.4805 14.0426C18.4626 14.202 18.3985 14.4376 18.2051 14.6521C18.0151 14.861 17.7876 15.096 17.5283 15.343C17.409 15.4567 17.2808 15.5707 17.1356 15.7019C17.0914 15.7418 17.0455 15.7833 16.9978 15.8269C16.792 16.015 16.5458 16.2475 16.2298 16.5688C15.9689 16.8339 15.6565 17.1625 15.3334 17.505C15.1742 17.6738 15.0125 17.8459 14.8533 18.0157C14.3724 18.5287 13.934 19.0012 13.5025 19.4788C13.5024 19.4789 13.5023 19.479 13.5022 19.4791C13.4511 19.5354 13.4105 19.579 13.4116 19.5763C13.4127 19.5736 13.453 19.5238 13.5019 19.4653C13.9174 18.9711 14.3391 18.4847 14.8028 17.9578C14.9544 17.7854 15.1097 17.6095 15.2633 17.4365C15.5779 17.0822 15.8854 16.7398 16.1415 16.465C16.4541 16.1294 16.6986 15.8864 16.9023 15.6908C16.9513 15.6437 16.9977 15.5996 17.0418 15.5578C17.1821 15.4248 17.2998 15.3153 17.4104 15.2048C17.6606 14.9549 17.8791 14.7184 18.0616 14.5085C18.2077 14.3328 18.2535 14.1461 18.2646 14.0166C18.2686 13.9713 18.2688 13.9318 18.268 13.8985C18.267 13.8589 18.2631 13.8196 18.2565 13.7809C18.2165 13.5381 18.0592 13.3347 17.8772 13.2374C17.8746 13.2356 17.8719 13.2336 17.8691 13.2317C17.8152 13.1933 17.7615 13.1552 17.7082 13.1174C17.708 13.1173 17.7079 13.1173 17.7078 13.1172C17.4336 12.9232 17.1684 12.7385 16.9374 12.5669C16.7029 12.3927 16.481 12.2584 16.2724 12.1336C16.1605 12.0666 16.0526 12.0022 15.949 11.9358C15.5924 11.7066 15.3035 11.4793 14.6233 10.8507ZM13.7419 19.3268C13.8846 19.211 14.0009 19.1167 14.0863 19.0453C14.0128 19.105 13.9396 19.1647 13.8665 19.2245C13.8249 19.2586 13.7834 19.2927 13.7419 19.3268ZM17.7648 12.2913C17.7887 12.3094 17.8127 12.3276 17.8368 12.3458C17.7771 12.2886 17.7174 12.2314 17.6578 12.1742C17.5847 12.104 17.5116 12.0338 17.4386 11.9636C17.5516 12.0783 17.6616 12.189 17.7648 12.2913ZM15.1073 10.3801C15.4775 10.7375 15.814 10.9447 16.1146 11.1343C16.2013 11.1889 16.2851 11.242 16.3661 11.2964C16.3997 11.319 16.4338 11.3411 16.4684 11.363C16.305 11.1969 16.1555 11.0435 16.0333 10.9179C15.6684 10.5429 15.4742 10.316 15.3039 10.1163C15.2547 10.0585 15.2073 10.003 15.1585 9.9468C15.1079 9.91061 15.0555 9.87272 15.0036 9.83353C14.9307 9.77875 14.853 9.71852 14.7799 9.66038C14.7064 9.60204 14.6326 9.5419 14.5611 9.48195C14.4889 9.42151 14.4182 9.36077 14.3485 9.29971C14.2828 9.24228 14.218 9.18447 14.1552 9.12853C14.1516 9.12533 14.148 9.12212 14.1445 9.11892C14.0781 9.05982 14.0136 9.00227 13.9529 8.95087C13.891 8.89859 13.838 8.8567 13.7877 8.82287C13.7248 8.78059 13.6609 8.73658 13.5983 8.69248C13.5356 8.64834 13.4738 8.60381 13.4127 8.5589C13.3514 8.5139 13.2912 8.4689 13.2312 8.42336C13.2118 8.40863 13.1916 8.39319 13.1725 8.37851C13.1636 8.37174 13.1548 8.36501 13.146 8.35825C13.2488 8.46179 13.3553 8.56962 13.4648 8.68156C13.623 8.84327 13.7877 9.02008 13.9698 9.21469C14.2805 9.54672 14.642 9.93037 15.1073 10.3801ZM11.5616 6.81448C11.6069 6.85891 11.6741 6.92308 11.7609 7.00578C11.7814 7.02533 11.8031 7.04588 11.8258 7.06749C11.8253 7.06692 11.8248 7.06638 11.8243 7.0658C11.7752 7.00518 11.7295 6.94949 11.6795 6.89011C11.5904 6.7843 11.5029 6.68239 11.4135 6.58047C11.3237 6.47817 11.2332 6.37717 11.1416 6.27702C11.0498 6.17672 10.9568 6.07718 10.8635 5.97955C10.7693 5.881 10.6755 5.78478 10.5794 5.68899C10.5488 5.65848 10.518 5.62801 10.4871 5.59768C10.5495 5.67202 10.6156 5.74803 10.6853 5.82831C10.7411 5.89242 10.7992 5.95929 10.8598 6.03017C10.8829 6.0573 10.9104 6.09072 10.9424 6.1297C11.0694 6.28419 11.2685 6.5268 11.5616 6.81448ZM9.67015 4.88424C9.64676 4.86311 9.62364 4.84197 9.60099 4.82087C9.53653 4.76077 9.47495 4.70096 9.41495 4.64193C9.37282 4.60047 9.33144 4.55923 9.29062 4.51862C9.27339 4.50149 9.25616 4.48439 9.2391 4.46745C9.21054 4.43906 9.18209 4.41098 9.15384 4.38311C9.34145 4.58913 9.52625 4.78912 9.72267 4.99371C9.72526 4.99641 9.72793 4.99906 9.73054 5.00178C9.70994 4.96169 9.68983 4.92252 9.67015 4.88424Z" fill="var(--stroke-0, #A98BFF)"/>
</svg>
