<svg preserveAspectRatio="none" width="100%" height="100%" overflow="visible" style="display: block;" viewBox="0 0 30 30" fill="none" xmlns="http://www.w3.org/2000/svg">
<path id="Vector" opacity="0.2" d="M10.2037 19.5935L0.87658 16.1565C0.619398 16.0616 0.397491 15.8901 0.240759 15.6652C0.0840267 15.4403 0 15.1727 0 14.8986C0 14.6244 0.0840267 14.3569 0.240759 14.132C0.397491 13.907 0.619398 13.7356 0.87658 13.6406L10.2037 10.2037L13.6406 0.87658C13.7356 0.619398 13.907 0.397491 14.132 0.240759C14.3569 0.0840267 14.6244 0 14.8986 0C15.1727 0 15.4403 0.0840267 15.6652 0.240759C15.8901 0.397491 16.0616 0.619398 16.1565 0.87658L19.5934 10.2037L28.9206 13.6406C29.1777 13.7356 29.3997 13.907 29.5564 14.132C29.7131 14.3569 29.7971 14.6244 29.7971 14.8986C29.7971 15.1727 29.7131 15.4403 29.5564 15.6652C29.3997 15.8901 29.1777 16.0616 28.9206 16.1565L19.5934 19.5935L16.1565 28.9206C16.0616 29.1777 15.8901 29.3997 15.6652 29.5564C15.4403 29.7131 15.1727 29.7971 14.8986 29.7971C14.6244 29.7971 14.3569 29.7131 14.132 29.5564C13.907 29.3997 13.7356 29.1777 13.6406 28.9206L10.2037 19.5935Z" fill="var(--fill-0, #FF6B6B)"/>
</svg>
