<svg preserveAspectRatio="none" width="100%" height="100%" overflow="visible" style="display: block;" viewBox="0 0 13 12" fill="none" xmlns="http://www.w3.org/2000/svg">
<path id="Vector" d="M9.11826 5.93804C9.09445 5.83533 9.09664 5.7362 9.09471 5.6084C9.09469 5.60834 9.09467 5.60828 9.09465 5.60821C9.09435 5.58997 9.09402 5.57112 9.0934 5.55166C9.08769 5.39548 9.07238 5.18801 8.97071 4.89632C8.85808 4.5765 8.81119 4.28908 8.8041 4.08281C8.80277 4.04462 8.79332 4.01009 8.75162 3.93445C8.73063 3.89661 8.70218 3.84976 8.66236 3.78879C8.66236 3.78879 8.66236 3.78879 8.66236 3.78879C8.65003 3.76993 8.63661 3.74974 8.62195 3.72809C8.5889 3.6793 8.54955 3.6231 8.50174 3.55816C8.3451 3.34173 8.03822 3.05107 7.72101 2.83003C7.52954 2.69434 7.33731 2.58114 7.18967 2.49685C7.05807 2.42153 6.92781 2.34836 6.79074 2.27739C6.70303 2.232 6.61256 2.1876 6.5172 2.1448C6.29349 2.04464 6.04242 1.95178 5.73872 1.88645C5.50635 1.83657 5.27795 1.74127 5.02897 1.66184C4.99736 1.65172 4.96538 1.64189 4.93318 1.6324C4.7191 1.5692 4.49012 1.52242 4.24488 1.52319C4.23592 1.52321 4.22694 1.5233 4.21794 1.52345C3.76176 1.53417 3.41511 1.67079 3.05567 1.84231C2.9148 1.91059 2.77119 1.9865 2.61696 2.07237C2.3728 2.20703 2.0252 2.41498 1.70582 2.67307C1.70126 2.67673 1.6967 2.68041 1.69214 2.68409C1.6695 2.70239 1.647 2.7209 1.62468 2.73953C1.62455 2.73964 1.62441 2.73975 1.62428 2.73987C1.33481 2.98001 1.07895 3.25378 0.908211 3.46923C0.63846 3.81357 0.562312 3.96382 0.491033 4.08177C0.464988 4.12679 0.441164 4.1687 0.412716 4.21882C0.309762 4.39877 0.158852 4.677 0.0372314 4.97779C0.036764 4.97894 0.0362971 4.98008 0.0358304 4.98123C0.01526 5.03093 -0.000338755 5.07161 4.05681e-07 5.07143C0.000370352 5.07126 0.0132653 5.0295 0.0298807 4.97862C0.0836666 4.81631 0.144234 4.66122 0.203233 4.52475C0.197932 4.51454 0.206207 4.47478 0.224838 4.43046C0.273341 4.32027 0.405004 3.9764 0.688145 3.4694C0.662841 3.50032 0.641645 3.52634 0.623075 3.54919C0.601291 3.57602 0.584639 3.59669 0.570486 3.61458C0.541075 3.65195 0.522041 3.67727 0.493176 3.72506C0.42953 3.83758 0.340014 4.02048 0.260703 4.2186C0.240358 4.26846 0.214382 4.30466 0.201527 4.29903C0.188713 4.29338 0.191155 4.24639 0.208239 4.19437C0.208575 4.19335 0.208911 4.19234 0.209248 4.19132C0.276768 3.9878 0.359372 3.7903 0.420615 3.6671C0.436112 3.63572 0.450122 3.60903 0.460941 3.58916C0.469579 3.57327 0.480619 3.55357 0.48761 3.54314C0.488538 3.54175 0.490327 3.53912 0.492597 3.53607C0.492639 3.53602 0.492682 3.53597 0.492724 3.53593C0.49399 3.53422 0.500431 3.52548 0.509197 3.51734C0.510967 3.51569 0.514861 3.51215 0.52014 3.50851C0.521036 3.50728 0.521932 3.50605 0.52283 3.50483C0.535336 3.48774 0.548279 3.47044 0.562204 3.45169C0.617485 3.37923 0.69876 3.25978 0.888634 3.0289C1.0107 2.88205 1.19209 2.66526 1.44178 2.42105C1.55126 2.31395 1.67377 2.2017 1.80949 2.08806C1.77683 2.10998 1.74447 2.13251 1.71252 2.15559C1.63213 2.21369 1.55385 2.27554 1.47789 2.34031C1.45705 2.3581 1.43657 2.37592 1.41612 2.39409C1.40804 2.40127 1.39997 2.4085 1.3919 2.4158C1.34598 2.45729 1.30082 2.49996 1.25666 2.54359C1.22681 2.57308 1.19736 2.60308 1.16834 2.63345C1.16828 2.63352 1.16822 2.6336 1.16816 2.63367C1.1279 2.67581 1.08832 2.71886 1.04926 2.76298C1.03553 2.77837 1.02211 2.79369 1.0089 2.80901C0.956341 2.87005 0.906134 2.93114 0.848091 3.00144C0.840754 3.00977 0.832613 3.01869 0.826449 3.02529C0.819845 3.03239 0.813451 3.03922 0.807347 3.04562C0.801961 3.05127 0.796776 3.05663 0.791855 3.06181C0.791197 3.0625 0.790539 3.0632 0.789882 3.06389C0.78438 3.06969 0.77918 3.07528 0.774217 3.08068C0.769263 3.08608 0.764509 3.09129 0.759955 3.09653C0.759921 3.09658 0.759887 3.09663 0.759852 3.09669C0.755112 3.10217 0.751531 3.10634 0.746707 3.11231C0.740654 3.1198 0.735559 3.12631 0.729568 3.13434C0.72377 3.1421 0.717854 3.1503 0.711993 3.15865C0.706134 3.167 0.700271 3.17558 0.694401 3.18435C0.688525 3.19312 0.68262 3.20208 0.676747 3.21117C0.670878 3.22024 0.66501 3.22949 0.659144 3.23881C0.653275 3.24814 0.647379 3.25758 0.641505 3.2671C0.627961 3.28902 0.610472 3.30694 0.592836 3.31699C0.575187 3.32702 0.558848 3.3284 0.546873 3.32036C0.534908 3.31231 0.528111 3.29533 0.527748 3.27275C0.527406 3.25018 0.53361 3.22388 0.545194 3.19995C0.548348 3.19343 0.551517 3.18688 0.554731 3.18032C0.556639 3.17643 0.55859 3.17251 0.560521 3.16861C0.565714 3.1581 0.570977 3.14747 0.576374 3.13684C0.581767 3.12622 0.587297 3.11554 0.592959 3.1048C0.598637 3.09402 0.604471 3.08313 0.610527 3.07219C0.61657 3.06127 0.622876 3.05018 0.629459 3.03904C0.635871 3.02816 0.64341 3.01591 0.650384 3.00512C0.655461 2.99722 0.661964 2.98766 0.667473 2.97974C0.673222 2.97149 0.679008 2.96345 0.684678 2.95578C0.690361 2.94809 0.695966 2.94073 0.701327 2.93372C0.701897 2.93296 0.702466 2.93221 0.703036 2.93146C0.707782 2.92526 0.712392 2.91931 0.716723 2.91365C0.721564 2.90733 0.726098 2.90131 0.730362 2.89556C0.735071 2.88923 0.737818 2.88529 0.741168 2.88045C0.783615 2.81499 0.835588 2.73314 0.887491 2.65627C0.894006 2.64661 0.900533 2.63703 0.907013 2.62756C0.941368 2.57721 0.976489 2.52737 1.01243 2.47808C1.03858 2.44223 1.06517 2.40664 1.09234 2.37128C1.13228 2.31928 1.17342 2.26779 1.21557 2.2171C1.22057 2.21109 1.22557 2.20511 1.23057 2.19915C1.25178 2.17391 1.27304 2.14912 1.29483 2.12421C1.3652 2.04378 1.43862 1.96524 1.51517 1.88942C1.59162 1.8137 1.67159 1.74029 1.75485 1.67062C1.83777 1.6012 1.92742 1.53306 2.01791 1.47315C2.08446 1.42914 2.15655 1.39 2.22473 1.35688C2.26137 1.33908 2.29762 1.32239 2.33358 1.30654C2.33371 1.3065 2.33384 1.30646 2.33397 1.30642C2.36554 1.29251 2.39687 1.2792 2.42799 1.26612C2.49472 1.23813 2.56034 1.21135 2.62568 1.18445C2.69093 1.15762 2.75565 1.13085 2.82059 1.10347C2.88502 1.07628 2.95032 1.04835 3.01489 1.02034C3.07977 0.992213 3.14339 0.964252 3.2104 0.934836C3.29847 0.896052 3.38623 0.857598 3.47743 0.819908C3.5679 0.782437 3.66002 0.746122 3.75349 0.711949C3.78615 0.7 3.81903 0.688413 3.85207 0.676966C3.8522 0.676927 3.85233 0.676888 3.85246 0.67685C3.91352 0.655692 3.97521 0.63543 4.03738 0.616261C4.04381 0.614279 4.05024 0.612308 4.05669 0.610349C4.14643 0.583051 4.2372 0.55797 4.32922 0.535628C4.4278 0.511709 4.5279 0.490849 4.62934 0.474211C4.73078 0.457655 4.83577 0.444819 4.94172 0.439839C5.03622 0.435232 5.13163 0.434618 5.22478 0.436528C5.24939 0.437025 5.27398 0.437688 5.29856 0.438519C5.41524 0.442357 5.52791 0.448467 5.63953 0.452631C5.75106 0.456945 5.8628 0.459601 5.97635 0.461483C6.08953 0.463375 6.20492 0.464782 6.32213 0.467268C6.43984 0.469777 6.55693 0.473201 6.67723 0.478945C6.79662 0.4846 6.91734 0.492465 7.04025 0.503253C7.10859 0.509282 7.1809 0.518564 7.24889 0.529497C7.30818 0.539019 7.36684 0.550072 7.42476 0.562276C7.43394 0.56421 7.4431 0.566172 7.45223 0.568159C7.47934 0.574049 7.50624 0.580223 7.53294 0.586467C7.57193 0.59559 7.61048 0.605074 7.64849 0.614523C7.71268 0.630481 7.77542 0.646435 7.837 0.661348C7.89856 0.676262 7.95897 0.68999 8.01867 0.701522C8.08045 0.713432 8.13264 0.721483 8.19679 0.72894C8.34827 0.757023 8.43632 0.789536 8.53334 0.826576C8.55246 0.833925 8.57203 0.84143 8.59241 0.849334C8.70797 0.89625 8.82037 0.950249 8.92826 1.00917C9.03715 1.06873 9.14128 1.13303 9.24316 1.20339C9.34407 1.27307 9.44206 1.34853 9.53574 1.42831C9.62927 1.50796 9.7187 1.5921 9.80391 1.6807C9.88909 1.76921 9.97139 1.86399 10.0457 1.95853C10.0887 2.01313 10.1321 2.07305 10.1706 2.12979C10.1985 2.17073 10.2251 2.21159 10.2506 2.25196C10.2611 2.26845 10.2714 2.28485 10.2815 2.30113C10.3152 2.35523 10.3472 2.40802 10.3787 2.4586C10.3787 2.4586 10.3787 2.4586 10.3787 2.4586C10.3799 2.46053 10.3811 2.46244 10.3823 2.46436C10.415 2.5167 10.447 2.56672 10.4798 2.61454C10.5127 2.66242 10.5464 2.70816 10.5818 2.7528C10.6186 2.79906 10.6505 2.8366 10.6933 2.88363C10.7212 2.91422 10.7485 2.94445 10.7754 2.97485C10.8157 3.02038 10.8554 3.06612 10.895 3.11276C10.9346 3.15932 10.9734 3.20581 11.0121 3.25301C11.0245 3.26817 11.0376 3.28429 11.0501 3.29961C11.0885 3.34693 11.1263 3.39419 11.1641 3.44173C11.2018 3.48921 11.2392 3.5366 11.2766 3.58411C11.3141 3.63181 11.3512 3.67905 11.3892 3.72756C11.4539 3.81 11.5011 3.89644 11.5385 3.97375C11.5761 4.05209 11.6067 4.1273 11.635 4.20102C11.6403 4.21483 11.6456 4.22866 11.6508 4.24251C11.6731 4.30219 11.694 4.3613 11.7145 4.41962C11.7397 4.49151 11.7641 4.56228 11.7884 4.63348C11.8125 4.70408 11.8366 4.77559 11.8605 4.84618C11.8846 4.91745 11.9077 4.9858 11.9326 5.05977C11.9572 5.13295 11.9844 5.20717 12.0122 5.28944C12.0398 5.37095 12.0666 5.45744 12.0892 5.54606C12.1043 5.60514 12.1176 5.66521 12.1289 5.72575C12.1345 5.75597 12.1396 5.78627 12.1441 5.81656C12.1579 5.90771 12.167 5.99983 12.1717 6.09083C12.1765 6.18237 12.1769 6.27353 12.1737 6.36412C12.1705 6.4545 12.1632 6.5477 12.1532 6.63457C12.1369 6.77523 12.1148 6.9143 12.0879 7.05229C12.061 7.18952 12.0291 7.32585 11.9927 7.46021C11.9564 7.59433 11.9155 7.72694 11.8703 7.85738C11.8251 7.98787 11.7757 8.11639 11.7224 8.24251C11.7106 8.2704 11.6986 8.2982 11.6864 8.32587C11.6435 8.42335 11.5983 8.51939 11.5511 8.61366C11.5507 8.6143 11.5504 8.61494 11.55 8.61558C11.4893 8.73688 11.4261 8.8536 11.3595 8.96925C11.3351 9.01173 11.3112 9.05218 11.2867 9.09311C11.2622 9.13409 11.2379 9.17398 11.2132 9.21409C11.1921 9.24831 11.171 9.28221 11.15 9.31561C11.1464 9.32137 11.1427 9.32711 11.1391 9.33284C11.1144 9.37222 11.0901 9.41035 11.0658 9.44889C11.0434 9.48418 11.0215 9.51927 10.997 9.55728C10.9948 9.56075 10.9925 9.56422 10.9903 9.56768C10.9634 9.60918 10.9315 9.65561 10.8997 9.6973C10.8154 9.80769 10.7308 9.91265 10.6424 10.0168C10.5539 10.121 10.4632 10.2221 10.3689 10.3207C10.3321 10.3593 10.2947 10.3975 10.2567 10.435C10.1977 10.4935 10.1373 10.5508 10.0754 10.6067C9.97362 10.6985 9.86808 10.7862 9.75838 10.8691C9.6491 10.9518 9.53563 11.0297 9.41978 11.1018C9.30404 11.1739 9.18446 11.2411 9.06438 11.3021C8.93057 11.37 8.79556 11.4317 8.6588 11.4881C8.59336 11.5151 8.52761 11.5408 8.46168 11.5653C8.39007 11.5919 8.31832 11.6169 8.24655 11.6404C8.1082 11.6859 7.96954 11.7258 7.83064 11.7606C7.69166 11.7954 7.55257 11.8251 7.41358 11.8497C7.3304 11.8645 7.24731 11.8775 7.16433 11.8887C7.12183 11.8986 7.08096 11.9075 7.04156 11.9155C6.75025 11.9726 6.53557 11.9917 6.25479 11.9895C6.22795 11.9893 6.20622 11.9895 6.17977 11.9894C6.17472 11.9894 6.16937 11.9893 6.16391 11.9893C6.12935 11.9889 6.08965 11.988 6.0344 11.9843C5.92437 11.9773 5.75512 11.9563 5.54299 11.9148C5.48944 11.9042 5.45557 11.8947 5.46687 11.8929C5.47481 11.8916 5.50288 11.8932 5.53726 11.8961C5.47361 11.8884 5.41046 11.8799 5.34779 11.8707C5.32279 11.8671 5.29938 11.8632 5.28275 11.8607C5.26735 11.8583 5.25893 11.8571 5.25893 11.8571C5.25893 11.8571 5.25898 11.8572 5.25908 11.8572C5.26052 11.8574 5.27182 11.8587 5.29051 11.8603C5.30921 11.862 5.33374 11.8638 5.35881 11.8657C5.42534 11.8707 5.49183 11.8746 5.5585 11.8772C5.62524 11.8798 5.69181 11.8811 5.75869 11.8812C5.82555 11.8812 5.89249 11.88 5.9597 11.8773C6.02663 11.8747 6.09375 11.8708 6.16098 11.8654C6.22863 11.86 6.29499 11.8534 6.36236 11.8453C6.40272 11.8404 6.44354 11.8349 6.48357 11.8291C6.49849 11.8269 6.51303 11.8247 6.52759 11.8225C6.53948 11.8206 6.55144 11.8187 6.56374 11.8167C6.69311 11.7957 6.8232 11.7692 6.95114 11.7378C7.07969 11.7062 7.20713 11.6696 7.33315 11.6278C7.45923 11.586 7.58377 11.5391 7.70651 11.4873C7.8292 11.4354 7.94995 11.3787 8.06864 11.317C8.12835 11.286 8.18762 11.2537 8.24629 11.2201C8.30376 11.1873 8.3606 11.1532 8.41668 11.1181C8.50438 11.0631 8.58963 11.0058 8.67314 10.9457C8.70361 10.9188 8.73346 10.892 8.76265 10.8652C8.84759 10.7872 8.92639 10.7023 8.99991 10.6155C8.85198 10.7508 8.73047 10.8572 8.61054 10.9536C8.59444 10.9665 8.57837 10.9792 8.56224 10.9918C8.46222 11.0696 8.36057 11.1413 8.24122 11.212C8.16404 11.2577 8.07946 11.3028 7.983 11.3478C7.28058 11.668 6.83889 11.7373 6.57116 11.7853C6.30111 11.8273 6.18376 11.8301 6.07456 11.8326C5.92018 11.8361 5.62718 11.8549 5.47962 11.8566C5.42602 11.8575 5.38277 11.8558 5.38296 11.8538C5.38319 11.8517 5.42665 11.8468 5.47994 11.8418C5.63522 11.8298 5.94801 11.7878 6.12814 11.7725C6.20836 11.7654 6.30129 11.7587 6.55963 11.7026C6.81518 11.6409 7.23971 11.5481 7.90513 11.2035C7.99584 11.1555 8.07472 11.1082 8.1467 11.0605C8.25226 10.9906 8.34297 10.92 8.43332 10.8428C8.44821 10.8301 8.46309 10.8172 8.47802 10.804C8.47812 10.8039 8.47822 10.8039 8.47832 10.8038C8.61579 10.6823 8.75878 10.5437 8.94518 10.3537C9.39028 9.92357 9.7911 9.20023 9.84496 9.01453C9.85779 8.97861 9.86891 8.94341 9.8802 8.90615C9.89664 8.85176 9.91343 8.79294 9.93483 8.72038C9.96918 8.60219 10.0176 8.44821 10.0825 8.21406C10.1053 8.13134 10.1324 8.03503 10.1601 7.92965C10.1609 7.75892 10.1522 7.59597 10.15 7.45817C10.1483 7.33912 10.1219 7.2264 10.0867 7.1192C10.0766 7.08832 10.0655 7.05738 10.0541 7.02672C10.0267 6.95277 9.99704 6.88025 9.97309 6.81136C9.95402 6.75641 9.9297 6.69933 9.90253 6.64016C9.81459 6.44777 9.69685 6.2376 9.63204 5.98108C9.62391 5.94879 9.6166 5.91574 9.61025 5.88165C9.54956 5.55764 9.49027 5.28373 9.42758 5.04773C9.46465 5.2239 9.47407 5.36321 9.47772 5.4784C9.47837 5.50014 9.47881 5.52096 9.4791 5.54099C9.48096 5.68244 9.47802 5.78338 9.49928 5.88869C9.5065 5.92484 9.51313 5.9594 9.51934 5.99261C9.59518 6.42306 9.62562 6.60752 9.70749 6.8245C9.72978 6.88632 9.75817 6.95604 9.78616 7.03287C9.8423 7.18611 9.89578 7.36935 9.902 7.56291C9.90812 7.74278 9.91614 7.95068 9.90377 8.17412C9.90374 8.1742 9.90372 8.17428 9.90369 8.17436C9.90129 8.21801 9.89814 8.26222 9.89412 8.30687C9.88328 8.42747 9.86598 8.55104 9.84056 8.67421C9.80868 8.82902 9.76387 8.98307 9.70572 9.12922C9.69455 9.1573 9.68155 9.19121 9.66594 9.23003C9.5789 9.45291 9.38665 9.84684 8.99928 10.195C8.91504 10.2714 8.82008 10.3427 8.71038 10.4205C8.67695 10.4441 8.64204 10.4684 8.60562 10.4935C8.45462 10.5973 8.27372 10.7208 8.03167 10.8762C8.02105 10.883 8.01031 10.8899 7.99945 10.8968C7.78613 11.0327 7.51939 11.1903 7.2265 11.3269C7.08241 11.3944 6.93242 11.4571 6.78172 11.5126C6.32607 11.6794 5.88575 11.7789 5.43625 11.837C5.43615 11.837 5.43606 11.837 5.43597 11.837C5.38284 11.8435 5.34097 11.8469 5.34285 11.8454C5.3447 11.8438 5.38942 11.8345 5.44224 11.8238C5.88977 11.7353 6.31934 11.6075 6.75639 11.4158C6.89921 11.353 7.04163 11.283 7.17822 11.2088C7.45839 11.0572 7.71227 10.8865 7.913 10.7421C7.92112 10.7363 7.92917 10.7305 7.93715 10.7247C8.16976 10.5565 8.34171 10.4255 8.48443 10.3169C8.51988 10.2897 8.55316 10.2641 8.58458 10.2395C8.68457 10.161 8.76657 10.0936 8.83958 10.021C9.18213 9.68306 9.34333 9.3136 9.41756 9.09615C9.43119 9.0574 9.44261 9.02327 9.45259 8.99448C9.50341 8.8481 9.54014 8.69366 9.56357 8.53852C9.58012 8.4292 9.59013 8.3196 9.59491 8.21212C9.59678 8.16994 9.59793 8.12805 9.59832 8.0866C9.5983 8.0865 9.59827 8.08641 9.59824 8.08631C9.60043 7.8732 9.58354 7.67266 9.56975 7.50024C9.55593 7.32487 9.50226 7.16931 9.44427 7.03039C9.41316 6.95575 9.38097 6.88566 9.35293 6.81848C9.26033 6.60466 9.22164 6.42589 9.13921 6.03148C9.13266 6.00153 9.12571 5.97046 9.11826 5.93804ZM5.63596 11.9074C5.76765 11.9231 5.87635 11.9312 5.9572 11.934C5.8883 11.93 5.8199 11.9249 5.75179 11.9188C5.71303 11.9153 5.67444 11.9115 5.63596 11.9074ZM10.4826 8.01176C10.4817 8.03341 10.4806 8.05523 10.4793 8.07714C10.4948 8.02042 10.5094 7.9635 10.5231 7.90647C10.5398 7.83646 10.5553 7.76619 10.5694 7.69573C10.5415 7.80645 10.5117 7.91298 10.4826 8.01176ZM9.99146 5.83294C9.99757 5.87056 10.0046 5.90684 10.0126 5.94217C10.0706 6.20172 10.1755 6.40929 10.2589 6.61138C10.2861 6.67729 10.3108 6.7423 10.3305 6.80719C10.3387 6.83411 10.3476 6.86121 10.3569 6.88874C10.3734 6.73475 10.3823 6.59242 10.3864 6.47573C10.3949 6.22271 10.3985 6.04768 10.4037 5.90217C10.4055 5.84744 10.4072 5.79698 10.4082 5.74819C10.4092 5.69657 10.4095 5.6468 10.4082 5.59607C10.3884 5.55713 10.3679 5.51701 10.3484 5.47659C10.3209 5.42 10.2919 5.35934 10.2648 5.30205C10.2376 5.24453 10.2104 5.1865 10.1844 5.12976C10.1581 5.07254 10.1326 5.01612 10.1073 4.96022C10.0834 4.90762 10.0598 4.85543 10.0361 4.80539C10.0348 4.80253 10.0334 4.79966 10.0321 4.7968C10.0069 4.74399 9.98169 4.69311 9.9553 4.64781C9.92837 4.60173 9.90264 4.56496 9.87389 4.53506C9.83802 4.4977 9.80188 4.45972 9.76665 4.42249C9.73136 4.38523 9.69676 4.34845 9.66267 4.31204C9.62852 4.27557 9.595 4.23979 9.56165 4.20421C9.55086 4.19271 9.5396 4.18071 9.52894 4.16938C9.52403 4.16415 9.51907 4.15897 9.51418 4.15378C9.55672 4.23471 9.59805 4.32022 9.63708 4.41017C9.69344 4.54015 9.74099 4.68425 9.785 4.84456C9.8595 5.11858 9.92641 5.43761 9.99146 5.83294ZM8.66874 3.06793C8.69697 3.09546 8.73924 3.13492 8.79243 3.18736C8.805 3.19975 8.8183 3.21282 8.83205 3.2267C8.83182 3.22629 8.83151 3.22593 8.83127 3.22552C8.80685 3.18246 8.78327 3.14328 8.75613 3.1022C8.70768 3.02904 8.65727 2.96008 8.60309 2.89296C8.54868 2.8256 8.49115 2.76103 8.4306 2.6992C8.36996 2.63728 8.30608 2.57814 8.24006 2.52271C8.17338 2.46677 8.10505 2.41467 8.03336 2.36601C8.01053 2.35051 7.98736 2.33536 7.96393 2.32062C8.0095 2.36372 8.05706 2.40742 8.10617 2.4545C8.14539 2.4921 8.18558 2.5319 8.22628 2.57524C8.24185 2.59183 8.25991 2.61285 8.28063 2.63755C8.363 2.73585 8.48621 2.89017 8.66874 3.06793ZM7.32132 2.06847C7.30261 2.06193 7.28409 2.05532 7.26591 2.04855C7.21415 2.02925 7.16438 2.00927 7.11555 1.98982C7.08124 1.97613 7.0474 1.96257 7.01384 1.94963C6.99966 1.94416 6.9855 1.93883 6.97143 1.93358C6.95566 1.92769 6.93991 1.92198 6.92418 1.9164C6.91643 1.91365 6.90868 1.91094 6.90094 1.90825C6.90839 1.91181 6.91582 1.91538 6.92324 1.91896C7.07268 1.99113 7.21576 2.06655 7.36276 2.1467C7.3648 2.14781 7.36689 2.14883 7.36894 2.14995C7.35307 2.12209 7.33719 2.09493 7.32132 2.06847Z" fill="var(--stroke-0, #B4D455)"/>
</svg>
