<svg preserveAspectRatio="none" width="100%" height="100%" overflow="visible" style="display: block;" viewBox="0 0 28 28" fill="none" xmlns="http://www.w3.org/2000/svg">
<path id="Vector" opacity="0.2" d="M14.6665 0L4.71996 3.72997C4.50107 3.8121 4.30762 3.95034 4.15901 4.13082C4.01041 4.31131 3.91188 4.5277 3.8733 4.75829L0 27.9997L23.2415 24.1264C23.472 24.0879 23.6884 23.9893 23.8689 23.8407C24.0494 23.6921 24.1876 23.4987 24.2698 23.2798L27.9997 13.3332L14.6665 0ZM13.9999 17.3332C13.3406 17.3332 12.6961 17.1377 12.148 16.7714C11.5998 16.4051 11.1726 15.8846 10.9203 15.2755C10.668 14.6664 10.602 13.9962 10.7306 13.3496C10.8592 12.703 11.1767 12.109 11.6429 11.6429C12.109 11.1767 12.703 10.8592 13.3496 10.7306C13.9962 10.602 14.6664 10.668 15.2755 10.9203C15.8846 11.1726 16.4051 11.5998 16.7714 12.148C17.1377 12.6961 17.3332 13.3406 17.3332 13.9999C17.3332 14.8839 16.982 15.7318 16.3569 16.3569C15.7318 16.982 14.8839 17.3332 13.9999 17.3332Z" fill="var(--fill-0, #A98BFF)"/>
</svg>
