<svg preserveAspectRatio="none" width="100%" height="100%" overflow="visible" style="display: block;" viewBox="0 0 18 22" fill="none" xmlns="http://www.w3.org/2000/svg">
<path id="Vector" d="M4.39729 7.44243C4.39135 7.20136 4.39727 6.97139 4.40834 6.7121C4.41231 6.6004 4.4196 6.48449 4.4308 6.36234C4.43081 6.36209 4.43082 6.36184 4.43083 6.36159C4.43693 6.29519 4.44424 6.22714 4.45283 6.15675C4.52783 5.59415 4.65522 4.85232 5.12595 3.84896C5.54843 2.96559 6.12305 2.36163 6.57585 2.00002C6.69111 1.90772 6.7992 1.83013 6.89749 1.7652C6.98866 1.7061 7.07613 1.63708 7.30246 1.47273C7.41625 1.39114 7.5619 1.28914 7.76261 1.16661C7.82474 1.12876 7.89213 1.0891 7.9657 1.04783C8.13127 0.955058 8.32782 0.85379 8.56482 0.751493C9.21433 0.46271 10.2418 0.167331 11.2879 0.179214C11.4945 0.179799 11.7008 0.190299 11.9032 0.2102C12.6473 0.280932 13.3316 0.491083 13.821 0.708784C14.5381 1.02628 15.1708 1.46397 15.742 2.04518C15.7769 2.08084 15.8116 2.1171 15.846 2.15399C16.3245 2.66794 16.7602 3.2948 17.093 4.08247C17.3653 4.73119 17.4758 5.41705 17.4733 6.09606C17.4729 6.18251 17.4708 6.26929 17.4668 6.35578C17.4614 6.47453 17.4526 6.59316 17.4407 6.7121C17.3924 7.15637 17.3482 7.61274 17.3184 8.09838C17.2525 9.17902 17.2618 10.0414 17.2623 10.9962C17.2627 11.3696 17.2623 11.7572 17.2573 12.1776C17.2496 12.8424 17.2255 13.7982 17.2 14.7579C17.1978 14.8396 17.1956 14.9215 17.1934 15.0031C17.1934 15.0035 17.1934 15.004 17.1934 15.0044C17.1697 15.8828 17.1458 16.745 17.1298 17.3776C17.1043 18.3828 17.0968 18.7609 17.0897 19.0764C17.087 19.1949 17.0844 19.3047 17.0805 19.4356C17.0665 19.9069 17.0378 20.6184 17.009 21.3396C17.0089 21.3423 17.0088 21.3451 17.0087 21.3478C17.0037 21.4675 16.9998 21.5641 17 21.5635C17.0003 21.563 17.0019 21.4654 17.0038 21.3457C17.0103 20.9637 17.0168 20.591 17.0222 20.2572C17.0156 20.2399 17.0108 20.15 17.0115 20.0423C17.013 19.7726 17.0166 18.9467 16.9891 17.654C16.9857 17.7426 16.9826 17.8167 16.9798 17.8817C16.9764 17.958 16.9737 18.0164 16.9715 18.0667C16.9669 18.1714 16.9641 18.2411 16.963 18.3648C16.9634 18.6513 16.9684 19.1015 16.974 19.5753C16.9752 19.695 16.9675 19.7916 16.9568 19.7911C16.946 19.7905 16.9338 19.6929 16.9296 19.5733C16.9296 19.5709 16.9295 19.5686 16.9294 19.5662C16.9138 19.097 16.8989 18.6323 16.8926 18.333C16.891 18.2568 16.8899 18.1913 16.8893 18.142C16.8888 18.1027 16.8883 18.0535 16.8887 18.0262C16.8888 18.0226 16.8889 18.0157 16.8892 18.0074C16.8892 18.0073 16.8892 18.0072 16.8892 18.007C16.8893 18.0024 16.8901 17.9789 16.8925 17.9538C16.893 17.9487 16.8942 17.9377 16.8962 17.9249C16.8962 17.9216 16.8963 17.9182 16.8964 17.9149C16.8977 17.8689 16.8991 17.8219 16.9004 17.7711C16.9057 17.5725 16.9114 17.258 16.9185 16.603C16.925 16.0006 16.9239 14.9823 16.9125 13.7117C16.9101 13.7975 16.9079 13.8835 16.9059 13.9695C16.9008 14.1858 16.897 14.4032 16.8939 14.6206C16.8928 14.7039 16.8917 14.7861 16.8908 14.8698C16.8893 15.0045 16.888 15.1397 16.887 15.2748C16.8864 15.3661 16.8858 15.4576 16.8854 15.549C16.8854 15.5492 16.8854 15.5494 16.8854 15.5496C16.8847 15.6764 16.8843 15.8036 16.8839 15.9317C16.8837 15.9765 16.8836 16.0208 16.8835 16.0648C16.8832 16.24 16.8831 16.412 16.881 16.61C16.8805 16.6341 16.8798 16.6603 16.8791 16.6798C16.8784 16.7008 16.8777 16.721 16.8769 16.7401C16.8762 16.7569 16.8756 16.773 16.8749 16.7884C16.8748 16.7905 16.8748 16.7925 16.8747 16.7946C16.874 16.8118 16.8734 16.8283 16.8728 16.8442C16.8722 16.86 16.8717 16.8752 16.8713 16.8902C16.8713 16.8903 16.8713 16.8905 16.8713 16.8906C16.8709 16.9063 16.8706 16.9182 16.8703 16.9348C16.87 16.9556 16.8697 16.9736 16.8697 16.9953C16.8696 17.0163 16.8696 17.0382 16.8697 17.0603C16.8698 17.0824 16.8699 17.1049 16.8702 17.1278C16.8704 17.1507 16.8707 17.1739 16.871 17.1974C16.8713 17.2208 16.8717 17.2445 16.872 17.2684C16.8724 17.2923 16.8728 17.3164 16.8732 17.3406C16.8742 17.3965 16.8707 17.45 16.8637 17.4893C16.8567 17.5285 16.8468 17.5504 16.8358 17.5502C16.8247 17.5499 16.8132 17.5275 16.8033 17.4878C16.7935 17.4481 16.7862 17.3944 16.7831 17.3386C16.7823 17.3234 16.7814 17.3081 16.7806 17.2927C16.7801 17.2836 16.7796 17.2744 16.7791 17.2653C16.7778 17.2407 16.7765 17.2158 16.7751 17.1908C16.7738 17.1658 16.7726 17.1405 16.7713 17.115C16.7701 17.0894 16.7688 17.0635 16.7677 17.0372C16.7665 17.0109 16.7654 16.9841 16.7645 16.9569C16.7635 16.9303 16.7626 16.9 16.7619 16.8728C16.7614 16.853 16.761 16.8286 16.7608 16.8082C16.7605 16.787 16.7603 16.7661 16.7602 16.7459C16.7601 16.7257 16.7601 16.7061 16.7601 16.6875C16.7601 16.6855 16.7601 16.6835 16.7601 16.6815C16.7601 16.665 16.7601 16.649 16.7601 16.634C16.76 16.6172 16.7599 16.6012 16.7598 16.5861C16.7597 16.5694 16.7595 16.5593 16.7592 16.5469C16.7538 16.3826 16.7449 16.1796 16.7364 15.986C16.7354 15.9617 16.7343 15.9375 16.7333 15.9135C16.7277 15.7864 16.7221 15.6595 16.7165 15.5326C16.7125 15.4405 16.7084 15.3482 16.7044 15.2558C16.6985 15.1199 16.6927 14.9835 16.687 14.8473C16.6835 14.7627 16.6801 14.6796 16.6767 14.5952C16.6679 14.3748 16.6595 14.1537 16.6519 13.9323C16.6444 13.7113 16.6377 13.4888 16.6325 13.2662C16.6273 13.0444 16.6236 12.814 16.6231 12.5915C16.6228 12.428 16.6265 12.2603 16.6316 12.1051C16.6343 12.0218 16.6372 11.9401 16.6403 11.8597C16.6404 11.8594 16.6404 11.8591 16.6404 11.8589C16.6431 11.7883 16.646 11.7185 16.6486 11.6493C16.6544 11.5009 16.6596 11.3552 16.6636 11.2094C16.6676 11.0639 16.6706 10.919 16.6722 10.773C16.6738 10.6281 16.6742 10.4808 16.6733 10.3349C16.6724 10.1883 16.6703 10.0444 16.6671 9.89316C16.6628 9.69429 16.6569 9.49682 16.6505 9.29407C16.6441 9.09282 16.637 8.88994 16.6299 8.68652C16.6274 8.61543 16.625 8.54419 16.6224 8.47286C16.6224 8.47259 16.6224 8.47231 16.6224 8.47203C16.6178 8.3401 16.6131 8.20784 16.6085 8.07547C16.6013 7.87111 16.5944 7.66618 16.588 7.46049C16.5816 7.25483 16.5758 7.04792 16.5712 6.83993C16.5703 6.79754 16.5694 6.75491 16.5686 6.7121C16.5655 6.55739 16.5566 6.4003 16.5429 6.24308C16.5275 6.06694 16.5042 5.89004 16.4731 5.71843C16.465 5.67315 16.4562 5.62789 16.4468 5.5828C16.4023 5.36887 16.3453 5.16431 16.2741 4.9675C16.2029 4.77081 16.1168 4.57979 16.0162 4.39496C15.9159 4.21067 15.801 4.03187 15.6734 3.8613C15.5453 3.69 15.4075 3.53034 15.2574 3.37822C15.1521 3.27166 15.0418 3.17003 14.9266 3.07342C14.8786 3.03315 14.8299 2.99392 14.7802 2.95545C14.6863 2.88271 14.5849 2.80818 14.4873 2.74092C14.3889 2.67297 14.2893 2.60844 14.1894 2.54806C14.1489 2.52353 14.1083 2.49968 14.0677 2.47656C14.0084 2.44288 13.9491 2.41068 13.8901 2.38038C13.7905 2.32921 13.6917 2.28322 13.5939 2.24277C13.4963 2.20236 13.3998 2.16759 13.3052 2.13891C13.2073 2.10938 13.1252 2.08936 13.0261 2.07077C12.7876 2.01912 12.6419 1.99021 12.4792 1.96188C12.4472 1.95647 12.4144 1.95134 12.3802 1.94639C12.1849 1.91661 11.9897 1.89588 11.797 1.88465C11.626 1.87465 11.4575 1.87195 11.2879 1.87633C11.2645 1.87694 11.2412 1.87768 11.2178 1.87856C11.0264 1.88579 10.8344 1.90223 10.6444 1.92804C10.4548 1.9538 10.2667 1.98873 10.08 2.03293C9.89342 2.07703 9.70499 2.13165 9.52653 2.19295C9.42337 2.22829 9.31444 2.26846 9.21413 2.30872C9.14178 2.33771 9.07089 2.36778 9.00198 2.39885C8.97384 2.41154 8.94598 2.42441 8.9185 2.43745C8.82719 2.48075 8.73965 2.52601 8.65674 2.57318C8.65359 2.57497 8.65045 2.57676 8.64732 2.57856C8.56163 2.62765 8.48066 2.67886 8.40416 2.7327C8.32747 2.78667 8.2552 2.84329 8.18589 2.90349C8.11426 2.96602 8.05709 3.02069 7.98784 3.09419C7.9429 3.14214 7.89995 3.19007 7.85813 3.23859C7.85138 3.24642 7.84466 3.25427 7.83797 3.26213C7.78261 3.32725 7.72952 3.39336 7.6781 3.46121C7.6205 3.53721 7.56624 3.61382 7.51427 3.69239C7.49756 3.71765 7.48023 3.74441 7.46404 3.77008C7.41407 3.84931 7.36738 3.92904 7.32355 4.01006C7.27984 4.09088 7.23935 4.1723 7.20205 4.25445C7.16457 4.33699 7.13066 4.4192 7.09918 4.50396C7.04573 4.64799 6.9926 4.78295 6.94852 4.90204C6.90378 5.02243 6.86437 5.13557 6.82974 5.24685C6.82326 5.26769 6.81692 5.28857 6.81073 5.3095C6.78397 5.39959 6.76021 5.48889 6.73984 5.57756C6.71473 5.68682 6.69464 5.79505 6.67905 5.90423C6.66357 6.01238 6.65257 6.12226 6.6466 6.23055C6.64065 6.33982 6.63925 6.44459 6.64281 6.55698C6.64441 6.60819 6.64742 6.65947 6.65167 6.7121C6.65667 6.78816 6.66219 6.86635 6.66788 6.94842C6.67836 7.09893 6.68885 7.25688 6.69734 7.41683C6.70188 7.50174 6.70588 7.58737 6.70928 7.67316C6.69929 8.10983 6.36779 8.60639 5.95263 8.74213C5.89399 8.76598 5.83571 8.79031 5.77774 8.81507C5.6539 8.86801 5.53092 8.92344 5.41079 8.9806C5.29003 9.03807 5.17122 9.09769 5.05432 9.15985C4.93766 9.22183 4.81863 9.28894 4.70859 9.35453C4.53036 9.46068 4.35758 9.57528 4.19034 9.69909C4.024 9.82219 3.86296 9.95458 3.70907 10.0952C3.55546 10.2355 3.40853 10.3845 3.26954 10.541C3.13048 10.6976 2.99925 10.862 2.8768 11.0332C2.84969 11.0712 2.82308 11.1093 2.79683 11.1479C2.79364 11.1526 2.79047 11.1573 2.7873 11.162C2.69848 11.2934 2.61472 11.4286 2.53665 11.5668C2.53608 11.5678 2.53551 11.5687 2.53494 11.5697C2.43106 11.754 2.33828 11.941 2.25496 12.1351C2.22442 12.2063 2.19637 12.2754 2.16932 12.3463C2.14225 12.4173 2.1171 12.4875 2.0932 12.559C2.06927 12.6306 2.04701 12.7023 2.02661 12.7734C2.00601 12.8453 1.98745 12.9159 1.97043 12.9876C1.95482 13.0533 1.94081 13.1189 1.92672 13.1909C1.92544 13.1974 1.92417 13.204 1.9229 13.2106C1.90772 13.2894 1.89158 13.3793 1.87708 13.4632C1.83845 13.6853 1.81343 13.9047 1.80088 14.1293C1.78839 14.354 1.7889 14.5798 1.80221 14.8071C1.8074 14.896 1.81464 14.9852 1.82374 15.0743C1.82701 15.1064 1.83053 15.1384 1.83431 15.1706C1.84687 15.2774 1.86217 15.3841 1.88021 15.491C1.91881 15.7195 1.96964 15.9473 2.03286 16.1742C2.09582 16.4001 2.1712 16.6253 2.25818 16.8459C2.34505 17.0664 2.44482 17.2852 2.55516 17.4963C2.67803 17.7315 2.81531 17.9591 2.96799 18.1793C3.12039 18.3991 3.2877 18.6105 3.4679 18.8106C3.54522 18.8964 3.62486 18.9802 3.70699 19.0619C3.81704 19.1714 3.9313 19.2772 4.04964 19.3789C4.25639 19.5565 4.47547 19.7218 4.70554 19.873C4.84327 19.9636 4.98482 20.049 5.12996 20.1292C5.20809 20.1686 5.2838 20.205 5.35722 20.2389C5.90164 20.4853 6.3174 20.6225 6.88114 20.7513C6.9353 20.763 6.9796 20.7717 7.03355 20.7818C7.04385 20.7838 7.05477 20.7858 7.06593 20.7878C7.13662 20.8007 7.21787 20.8151 7.33161 20.8328C7.46567 20.8534 7.64275 20.8783 7.86059 20.8974C8.01378 20.9107 8.1858 20.926 8.37537 20.9423C8.49234 20.9526 8.56677 20.9607 8.54156 20.9617C8.52384 20.9625 8.46171 20.9605 8.3859 20.9569C8.52596 20.9653 8.66565 20.9734 8.80497 20.9813C8.86058 20.9845 8.91279 20.9876 8.94989 20.9896C8.98428 20.9915 9.00309 20.9923 9.00309 20.9923C9.00309 20.9923 9.00309 20.9923 9.00309 20.9923C9.00309 20.9923 9.00297 20.9923 9.00274 20.9923C8.99954 20.9922 8.9743 20.9911 8.93255 20.9898C8.89082 20.9885 8.83607 20.9869 8.7802 20.9851C8.632 20.9802 8.4843 20.9754 8.33656 20.9705C8.18871 20.9657 8.04155 20.9609 7.89396 20.9561C7.88286 20.9558 7.87177 20.9554 7.86067 20.9551C7.72483 20.9508 7.58952 20.9426 7.4541 20.9303C7.30829 20.9171 7.16284 20.8993 7.01789 20.8769C6.87206 20.8543 6.72985 20.8276 6.5864 20.796C6.5005 20.7771 6.41395 20.7562 6.32944 20.7342C6.29795 20.7259 6.26729 20.7177 6.23667 20.7093C6.21164 20.7024 6.18653 20.6953 6.16073 20.6879C5.88931 20.6098 5.62061 20.5141 5.36156 20.4036C5.10125 20.2926 4.84848 20.1658 4.60473 20.0243C4.36086 19.8827 4.12623 19.7264 3.90221 19.5565C3.77783 19.4621 3.65678 19.3636 3.53919 19.2611C3.4451 19.1791 3.3534 19.0946 3.26391 19.0076C3.0634 18.8126 2.87424 18.6046 2.69904 18.3866C2.56351 18.218 2.43705 18.0446 2.31871 17.8655C2.26957 17.7967 2.22228 17.7277 2.17682 17.6586C2.04454 17.4577 1.91905 17.2512 1.80512 17.0416C1.99116 17.4229 2.17562 17.7108 2.36401 17.9739C2.38936 18.0091 2.41487 18.0438 2.44061 18.0783C2.70491 18.4282 2.98056 18.7515 3.39515 19.1439C3.44111 19.1869 3.48682 19.2286 3.53248 19.2691C4.68215 20.2624 5.58935 20.5295 6.12434 20.7012C6.69587 20.864 6.95299 20.8931 7.18905 20.9314C7.35859 20.9566 7.61033 20.9791 7.86066 20.9823C8.10509 20.9863 8.3473 20.9882 8.50997 20.9892C8.62965 20.9902 8.72624 20.9922 8.7257 20.9938C8.72512 20.9953 8.6276 20.9984 8.50791 21.0006C8.34734 21.0032 8.10974 21.0067 7.86067 21.0084C7.56933 21.0114 7.26257 20.9881 7.04689 20.9554C6.86937 20.9251 6.66049 20.9087 6.08976 20.758C5.55597 20.5962 4.64267 20.351 3.45359 19.3628C3.40535 19.3215 3.35703 19.2791 3.30838 19.2351C2.89453 18.8571 2.61632 18.5457 2.34124 18.1975C2.31444 18.1632 2.28769 18.1284 2.26107 18.0931C2.26091 18.0929 2.26075 18.0926 2.26059 18.0924C2.01697 17.7658 1.7676 17.3922 1.52109 16.8424C1.31548 16.3825 1.14016 15.839 1.03837 15.3071C0.8501 14.3724 0.913315 13.4938 0.938098 13.2104C0.944912 13.1224 0.95233 13.0373 0.961853 12.9475C1.00677 12.6062 1.03405 12.1762 1.38203 11.2897C1.46055 11.0971 1.56353 10.8756 1.69203 10.6423C1.70667 10.6097 1.72154 10.5772 1.73662 10.5449C1.89044 10.215 2.06753 9.90722 2.24583 9.65074C2.41456 9.40784 2.57307 9.18237 2.73587 8.96703C2.78276 8.90506 2.83075 8.843 2.87977 8.78166C2.99794 8.63375 3.12266 8.48931 3.25302 8.35671C3.3569 8.25103 3.46765 8.14098 3.58916 8.02821C3.99341 7.65515 4.52379 7.23388 5.31222 6.92528L4.78286 7.67316C4.78041 7.60322 4.77856 7.5319 4.77736 7.45915C4.7731 7.19968 4.7707 6.95085 4.76974 6.7121C4.76757 6.02756 4.88024 5.419 5.04041 4.89577C4.86969 5.43236 4.79313 5.86467 4.74841 6.22667C4.74016 6.29494 4.73329 6.36075 4.72757 6.42402C4.71841 6.52551 4.71219 6.62094 4.70832 6.7121C4.69515 6.98159 4.68769 7.20458 4.69218 7.43975C4.69372 7.52028 4.6953 7.59803 4.69693 7.67316L5.28365 6.84424C3.94001 7.38011 3.50538 7.81654 3.04611 8.26379C2.92083 8.39377 2.7904 8.54418 2.65822 8.71103C2.39372 9.04461 2.12373 9.44339 1.86305 9.87952C1.75841 10.0544 1.6576 10.2431 1.56341 10.4432C1.4387 10.7081 1.32577 10.9929 1.22936 11.2916C1.22928 11.2918 1.2292 11.292 1.22911 11.2922C1.19604 11.3947 1.16486 11.4989 1.13578 11.6043C0.95757 12.2476 0.862452 12.9379 0.848689 13.6041C0.84713 13.6753 0.846864 13.7607 0.848829 13.8586C0.856054 14.2048 0.889452 14.7104 1.0058 15.3127C1.07919 15.6922 1.18603 16.1099 1.34018 16.5467C1.42789 16.7947 1.52647 17.0505 1.66089 17.3334C1.7019 17.4195 1.74632 17.5081 1.79514 17.5994C2.00685 17.9917 2.30081 18.4575 2.80401 18.9802C2.96448 19.1459 3.1477 19.3168 3.35144 19.484C3.67542 19.7504 4.05212 20.0065 4.46072 20.2243C4.78822 20.3993 5.13576 20.5499 5.48754 20.6692C6.29062 20.9413 7.08732 21.0501 7.8607 21.028C8.10989 21.021 8.35768 21.0135 8.60535 21.0055C8.60555 21.0055 8.60576 21.0055 8.60597 21.0055C8.72559 21.0019 8.81929 20.9997 8.81509 21.0008C8.81084 21.002 8.71046 21.0087 8.5909 21.0155C8.34782 21.0288 8.10484 21.0416 7.86067 21.0539C7.08057 21.0931 6.27305 20.9996 5.45345 20.7385C5.10089 20.626 4.7487 20.4814 4.4145 20.3107C3.99712 20.0981 3.60839 19.8443 3.27255 19.5777C3.05708 19.407 2.86304 19.2315 2.69347 19.0612C2.164 18.5265 1.85291 18.0445 1.62969 17.6396C1.57615 17.5417 1.52838 17.4482 1.48492 17.3586C1.34687 17.0731 1.25044 16.8278 1.1622 16.5876C1.00148 16.1483 0.888541 15.7285 0.809371 15.3464C0.687258 14.7563 0.644579 14.2567 0.631122 13.9022C0.627262 13.7985 0.626056 13.7071 0.626522 13.6294C0.629862 12.9554 0.713859 12.2514 0.887203 11.5839C0.915191 11.4757 0.94547 11.3683 0.97785 11.2622C0.977895 11.262 0.97794 11.2618 0.977985 11.2615C1.07941 10.929 1.20223 10.609 1.34027 10.3122C1.42843 10.1225 1.52268 9.94218 1.62054 9.77378C1.8756 9.33582 2.12188 8.95917 2.37869 8.62017C2.51666 8.43851 2.65822 8.26826 2.80797 8.10857C3.30601 7.6087 3.78297 7.13302 5.18603 6.56729L4.40328 7.67316C4.40124 7.59877 4.39925 7.52191 4.39729 7.44243ZM8.16935 20.9437C8.05841 20.9364 7.9554 20.9295 7.86067 20.9234C7.71093 20.9136 7.58305 20.9008 7.47755 20.8887C7.60485 20.9044 7.73237 20.9162 7.86061 20.9244C7.87934 20.9255 7.898 20.9267 7.91667 20.9279C8.00097 20.9332 8.08517 20.9385 8.16935 20.9437ZM1.93142 10.7377C1.91184 10.7801 1.8926 10.8228 1.8737 10.866C1.90608 10.8048 1.93932 10.7443 1.9736 10.6841C2.0035 10.6316 2.034 10.5797 2.06523 10.5281C2.14745 10.3922 2.2346 10.259 2.32621 10.1292C2.19157 10.3131 2.0705 10.4991 1.96522 10.6792C1.95376 10.6988 1.94249 10.7183 1.93142 10.7377ZM5.07233 7.45709C5.07313 7.53077 5.07463 7.60275 5.07675 7.67316L5.40992 7.20246C4.7039 7.47665 4.22972 7.83949 3.83922 8.18697C3.71542 8.29792 3.59966 8.40899 3.48755 8.51992C3.44107 8.56593 3.39578 8.61305 3.35115 8.66139C3.6455 8.42155 3.93612 8.22705 4.18134 8.08132C4.75005 7.7463 5.16801 7.59858 5.51196 7.49194L5.38369 7.67316C5.38839 7.57098 5.39319 7.47512 5.39787 7.38215C5.40387 7.26293 5.40966 7.14834 5.41486 7.03141C5.40461 6.93467 5.39439 6.83421 5.38534 6.73269C5.38473 6.72585 5.38411 6.71899 5.3835 6.7121C5.37129 6.57115 5.36503 6.41943 5.36567 6.27441C5.36622 6.12141 5.37407 5.96567 5.38899 5.81316C5.40402 5.65939 5.4261 5.50744 5.45464 5.35729C5.48146 5.21601 5.51424 5.07613 5.55059 4.94197C5.55268 4.93429 5.55478 4.92661 5.55689 4.91893C5.59581 4.77722 5.63918 4.64072 5.68106 4.51577C5.72367 4.38852 5.76102 4.28309 5.79176 4.18795C5.83024 4.06916 5.87449 3.94849 5.92291 3.83068C5.97134 3.71276 6.0242 3.59682 6.08117 3.48315C6.1383 3.36921 6.19906 3.2582 6.26404 3.14893C6.28503 3.11362 6.30745 3.07689 6.32913 3.04228C6.33911 3.02635 6.34913 3.01045 6.35924 2.99465C6.2093 3.19265 6.06514 3.40717 5.93095 3.63764C5.73737 3.97054 5.55475 4.34164 5.40353 4.77123C5.21278 5.316 5.06997 5.95911 5.06855 6.7121C5.06838 6.94892 5.0695 7.19683 5.07233 7.45709ZM9.36826 0.814024C9.26533 0.84827 9.11557 0.901809 8.92731 0.982415C8.88282 1.00149 8.83614 1.02222 8.78752 1.0445C8.7887 1.04406 8.78989 1.04354 8.79107 1.0431C8.91568 0.997162 9.03166 0.958024 9.15747 0.918719C9.38178 0.848797 9.60253 0.792336 9.82714 0.746345C10.0526 0.700223 10.2793 0.665584 10.507 0.642352C10.7351 0.619063 10.9646 0.607224 11.1918 0.606726C11.2239 0.606648 11.2559 0.606797 11.2879 0.607168C11.4846 0.609476 11.6792 0.620078 11.8747 0.638742C11.9471 0.645668 12.0195 0.653701 12.0919 0.662872C11.9316 0.633153 11.7635 0.610182 11.5848 0.594093C11.4891 0.585483 11.3903 0.578851 11.2879 0.57439C11.2378 0.572206 11.1869 0.570547 11.1351 0.569439C11.0747 0.568162 11.0018 0.566622 10.9163 0.56687C10.5798 0.568726 10.0374 0.593205 9.36826 0.814024ZM13.8653 1.09981C13.9147 1.12072 13.9634 1.14234 14.0112 1.16458C14.1473 1.22794 14.277 1.29623 14.4013 1.36785C14.4887 1.41818 14.5736 1.47039 14.6561 1.52371C14.6909 1.54622 14.7255 1.56904 14.7594 1.59197C14.8164 1.63041 14.8723 1.6694 14.9272 1.709C14.5507 1.41953 14.1479 1.17854 13.7024 0.984131C13.6965 0.981571 13.6906 0.979086 13.6846 0.976525C13.7472 1.0176 13.8073 1.05875 13.8653 1.09981Z" fill="var(--stroke-0, #FF6B6B)"/>
</svg>
