<svg preserveAspectRatio="none" width="100%" height="100%" overflow="visible" style="display: block;" viewBox="0 0 9 6" fill="none" xmlns="http://www.w3.org/2000/svg">
<path id="Vector" d="M4.69729 3.92131C4.65092 3.9038 4.62244 3.86435 4.58657 3.813C4.58654 3.81298 4.58652 3.81297 4.58649 3.81296C4.58136 3.80562 4.57613 3.79797 4.57063 3.79018C4.52641 3.7275 4.46615 3.64862 4.35285 3.56515C4.22801 3.47327 4.17134 3.31923 4.15248 3.18808C4.14901 3.16365 4.14084 3.14711 4.11182 3.12128C4.09729 3.10834 4.07803 3.09346 4.05227 3.07404C4.05227 3.07404 4.05227 3.07404 4.05227 3.07404C4.0443 3.06803 4.03571 3.06158 4.02644 3.05463C4.00557 3.03897 3.98124 3.02078 3.95287 2.99907C3.85885 2.92716 3.693 2.8514 3.54061 2.78094C3.44807 2.73819 3.36033 2.6973 3.29559 2.66075C3.20095 2.60732 3.11449 2.5412 3.01871 2.46974C2.93102 2.40425 2.83551 2.33435 2.7197 2.26501C2.63103 2.21165 2.56151 2.09984 2.48725 1.98549C2.47782 1.97092 2.46829 1.95631 2.4587 1.94172C2.39258 1.84099 2.32114 1.74262 2.2334 1.67227C2.07652 1.54748 1.93001 1.52981 1.77194 1.50148C1.70991 1.49073 1.64569 1.47896 1.57671 1.46129C1.4677 1.43331 1.31256 1.37896 1.15431 1.32712C1.14084 1.32269 1.12734 1.31832 1.11386 1.31392C1.11379 1.3139 1.11372 1.31388 1.11365 1.31386C0.968626 1.26643 0.824359 1.22274 0.717551 1.19429C0.547773 1.14921 0.482683 1.13737 0.428822 1.1257C0.408548 1.12135 0.389768 1.11712 0.367373 1.11126C0.286738 1.09004 0.16464 1.04957 0.0390463 1.01177C0.038567 1.01162 0.0380878 1.01148 0.0376089 1.01133C0.0167689 1.00474 -9.82915e-05 0.999704 5.65257e-07 1C0.000101162 1.0003 0.0171225 1.00244 0.0379877 1.0049C0.104579 1.0136 0.169343 1.02295 0.22724 1.03124C0.230431 1.02274 0.246224 1.01683 0.264956 1.01824C0.312003 1.02162 0.454945 1.02916 0.682405 1.00819C0.667267 1.00275 0.654588 0.997872 0.643474 0.993465C0.630428 0.988297 0.62043 0.984165 0.611819 0.980734C0.593864 0.973625 0.58188 0.969361 0.560317 0.966741C0.510164 0.964459 0.430997 0.967222 0.347889 0.971754C0.326913 0.972635 0.31031 0.962139 0.31081 0.948131C0.31132 0.934123 0.328938 0.918755 0.35018 0.914014C0.350595 0.913925 0.351011 0.913835 0.351425 0.913745C0.434633 0.896187 0.517601 0.880783 0.570894 0.875448C0.584451 0.874082 0.596105 0.87334 0.604853 0.873031C0.611845 0.872779 0.620566 0.872622 0.625355 0.873486C0.625991 0.873601 0.627203 0.873844 0.628637 0.874287C0.62866 0.874299 0.628685 0.874312 0.628708 0.874324C0.62951 0.87457 0.633611 0.875785 0.637847 0.879266C0.638702 0.879971 0.640561 0.881549 0.642659 0.884267C0.643236 0.884421 0.64381 0.884576 0.644385 0.884732C0.652408 0.886891 0.66058 0.889217 0.669435 0.891508C0.703977 0.900725 0.758956 0.911426 0.873208 0.930377C0.978337 0.947763 1.15671 0.962938 1.38078 0.978175C1.36619 0.973032 1.35152 0.968163 1.33681 0.963599C1.2998 0.952126 1.2623 0.94239 1.2246 0.933892C1.21015 0.930646 1.19587 0.927591 1.1813 0.924704C1.15785 0.920037 1.13426 0.915783 1.11063 0.911959C1.09466 0.909371 1.07863 0.906981 1.0626 0.904727C1.06256 0.904728 1.06252 0.904728 1.06249 0.904729C1.04023 0.901601 1.01791 0.898748 0.995377 0.896114C0.987497 0.895115 0.979705 0.894203 0.971961 0.893355C0.941138 0.890016 0.910799 0.887162 0.876088 0.881581C0.871895 0.880548 0.86736 0.879175 0.863987 0.87802C0.860358 0.876807 0.856869 0.875575 0.853579 0.874319C0.850676 0.873211 0.847912 0.872081 0.845258 0.87105C0.844902 0.870914 0.844546 0.870778 0.84419 0.870642C0.841219 0.869492 0.838374 0.868453 0.835635 0.867489C0.832901 0.866524 0.830266 0.865609 0.827658 0.864857C0.827632 0.864859 0.827608 0.864862 0.827584 0.864864C0.824857 0.864099 0.822785 0.863533 0.819877 0.86295C0.816225 0.862222 0.813077 0.86171 0.809247 0.861292C0.805542 0.860884 0.801668 0.860597 0.797746 0.860418C0.793826 0.86024 0.789825 0.860161 0.785759 0.86015C0.781691 0.860139 0.777551 0.860182 0.773375 0.860289C0.769203 0.860396 0.76497 0.860571 0.760713 0.860754C0.756455 0.860938 0.752147 0.861135 0.747825 0.861361C0.737869 0.861865 0.72873 0.856714 0.722403 0.84716C0.716082 0.837583 0.713078 0.824451 0.714102 0.810069C0.715132 0.795684 0.720139 0.780982 0.7281 0.768668C0.736063 0.756382 0.746337 0.74753 0.756608 0.744279C0.759402 0.743399 0.762217 0.742496 0.76504 0.741615C0.766716 0.741091 0.768407 0.740587 0.770092 0.740066C0.774623 0.738664 0.779206 0.737226 0.783812 0.735863C0.788414 0.734501 0.793057 0.733191 0.797749 0.731913C0.802454 0.730633 0.807221 0.729388 0.812047 0.728254C0.816863 0.727123 0.821777 0.726082 0.826758 0.725195C0.831618 0.724318 0.837146 0.723544 0.842072 0.723093C0.845675 0.722741 0.850093 0.722581 0.853771 0.722526C0.857609 0.722471 0.861377 0.72255 0.865 0.722719C0.868633 0.722888 0.872135 0.723166 0.87548 0.72343C0.875838 0.723453 0.876196 0.723477 0.876554 0.7235C0.879511 0.723737 0.882363 0.723985 0.885063 0.724175C0.888081 0.724388 0.890945 0.724512 0.893671 0.724562C0.896672 0.724633 0.898509 0.724521 0.900765 0.724354C0.930782 0.71988 0.968231 0.711591 1.00403 0.703942C1.00853 0.702981 1.013 0.702048 1.01743 0.701117C1.04096 0.696087 1.06447 0.691091 1.08803 0.686207C1.10515 0.682658 1.12231 0.679152 1.1395 0.675756C1.1648 0.670754 1.1902 0.665973 1.21559 0.661447C1.23136 0.658648 1.24686 0.656014 1.26261 0.653454C1.30373 0.646757 1.34502 0.640857 1.38628 0.636355C1.42751 0.631868 1.46892 0.628718 1.51013 0.62776C1.55116 0.626809 1.59358 0.628194 1.63389 0.633725C1.66351 0.637882 1.69302 0.647582 1.71994 0.658592C1.73441 0.664514 1.74849 0.670745 1.7623 0.677173C1.76234 0.67721 1.76239 0.677246 1.76243 0.677283C1.77455 0.682926 1.78647 0.688657 1.79832 0.694214C1.82372 0.706182 1.8487 0.717389 1.87388 0.727237C1.89902 0.73709 1.92424 0.745596 1.94994 0.752534C1.97544 0.759405 2.00164 0.764894 2.02789 0.768814C2.05426 0.772765 2.08044 0.775204 2.10823 0.776568C2.14479 0.778228 2.18155 0.777977 2.21943 0.777507C2.25705 0.776963 2.29517 0.77587 2.33347 0.774925C2.34686 0.774588 2.36025 0.77438 2.3737 0.774074C2.37375 0.774079 2.3738 0.774083 2.37385 0.774087C2.39873 0.773522 2.42369 0.773025 2.44867 0.772728C2.48723 0.772275 2.52591 0.772226 2.56458 0.773165C2.60323 0.774121 2.642 0.776015 2.68054 0.779817C2.71906 0.783706 2.75827 0.789412 2.79629 0.800239C2.83024 0.809752 2.86396 0.821188 2.89677 0.832845C2.90543 0.835917 2.91409 0.839016 2.92274 0.842141C2.9638 0.856857 3.00368 0.870427 3.04447 0.879363C3.0852 0.888429 3.12719 0.893161 3.17085 0.894333C3.21436 0.895514 3.25959 0.893382 3.30608 0.889208C3.35276 0.885016 3.39975 0.87882 3.44829 0.871488C3.49649 0.864151 3.54555 0.855777 3.59574 0.846655C3.62363 0.841623 3.65282 0.837952 3.68011 0.83554C3.70767 0.833101 3.73477 0.831739 3.76137 0.830948C3.77216 0.83062 3.78287 0.830441 3.79353 0.830214C3.80907 0.829884 3.82447 0.829658 3.83973 0.829209C3.86548 0.828451 3.89089 0.827137 3.91621 0.824372C3.94151 0.821608 3.96677 0.817262 3.99228 0.810421C4.01871 0.803291 4.04154 0.794877 4.07022 0.781665C4.13624 0.759459 4.17275 0.757829 4.2133 0.756077C4.22129 0.755736 4.22951 0.755288 4.23808 0.754804C4.28636 0.753882 4.33312 0.75711 4.37816 0.7633C4.42361 0.769616 4.46724 0.778881 4.51021 0.791151C4.55278 0.80329 4.59446 0.818507 4.6348 0.836242C4.67506 0.853943 4.71408 0.874275 4.75192 0.897323C4.78974 0.920336 4.82697 0.946566 4.86143 0.974222C4.88137 0.990178 4.9017 1.00882 4.92008 1.02697C4.93335 1.04005 4.9462 1.05338 4.95873 1.06651C4.96385 1.07187 4.96893 1.07722 4.97396 1.08249C4.99068 1.1 5.007 1.1168 5.02338 1.13181C5.02338 1.13181 5.02338 1.13181 5.02338 1.13181C5.02401 1.13238 5.02463 1.13294 5.02525 1.13351C5.04226 1.14895 5.05937 1.16251 5.07726 1.17348C5.09517 1.18448 5.11388 1.19289 5.13385 1.1989C5.15461 1.20502 5.17281 1.20824 5.19756 1.20972C5.21371 1.21061 5.22963 1.21136 5.24551 1.21214C5.26928 1.21332 5.293 1.21437 5.31704 1.21528C5.34104 1.21618 5.36493 1.21689 5.38913 1.21737C5.39692 1.21752 5.40513 1.2177 5.41299 1.21779C5.43726 1.21806 5.46147 1.21805 5.486 1.21756C5.51049 1.21707 5.53507 1.21612 5.56001 1.21455C5.58504 1.21299 5.61006 1.21087 5.63603 1.20806C5.68023 1.20321 5.71568 1.21105 5.74531 1.22045C5.77519 1.23014 5.80139 1.24226 5.82675 1.25431C5.83149 1.25657 5.83624 1.25884 5.84098 1.26111C5.86135 1.27099 5.88123 1.28095 5.90115 1.29026C5.92569 1.30176 5.95022 1.31235 5.9753 1.32223C6.00016 1.33205 6.02574 1.34121 6.05165 1.34918C6.07782 1.3572 6.10339 1.36408 6.13166 1.37045C6.15956 1.37684 6.18971 1.38056 6.22257 1.38516C6.25516 1.3897 6.28903 1.39518 6.32183 1.40322C6.35464 1.41119 6.38653 1.42168 6.41651 1.43476C6.44657 1.44783 6.47511 1.46347 6.50181 1.48105C6.52866 1.49871 6.55389 1.51845 6.57783 1.53973C6.60172 1.56096 6.62516 1.58463 6.64603 1.60821C6.67983 1.64639 6.7123 1.68584 6.74406 1.72609C6.77562 1.76615 6.8065 1.80715 6.83662 1.84864C6.86669 1.89006 6.89615 1.93207 6.92492 1.97452C6.9537 2.01699 6.98188 2.05988 7.00949 2.10306C7.01559 2.11261 7.02167 2.12217 7.02773 2.13175C7.04905 2.16548 7.07005 2.19938 7.09073 2.23324C7.09085 2.23349 7.09098 2.23374 7.09111 2.23399C7.11775 2.27753 7.14344 2.3205 7.16938 2.36358C7.17893 2.37936 7.18806 2.39454 7.19742 2.40981C7.20681 2.42509 7.21607 2.43998 7.22551 2.45485C7.23497 2.46974 7.24449 2.48436 7.25403 2.49853C7.26368 2.51284 7.27324 2.52658 7.28321 2.54002C7.29234 2.55237 7.30178 2.56416 7.31196 2.57717C7.31289 2.57836 7.31382 2.57955 7.31475 2.58074C7.32589 2.59498 7.33789 2.61194 7.34778 2.62912C7.37384 2.67479 7.39941 2.71875 7.42559 2.76303C7.45178 2.80734 7.47801 2.85113 7.50406 2.89543C7.51423 2.91273 7.52444 2.93009 7.53448 2.94758C7.55011 2.97478 7.56552 3.00226 7.58056 3.03017C7.60532 3.07607 7.62889 3.12306 7.651 3.17167C7.67304 3.22009 7.69356 3.27015 7.71238 3.32119C7.73119 3.37218 7.74859 3.42476 7.76442 3.47749C7.78204 3.53627 7.79852 3.59513 7.81444 3.65424C7.83033 3.71328 7.84555 3.77238 7.86019 3.8311C7.87491 3.89003 7.88907 3.94868 7.90284 4.00714C7.91662 4.06563 7.92999 4.12385 7.94307 4.18182C7.9509 4.21652 7.95862 4.25112 7.96625 4.28558C7.97349 4.30105 7.98028 4.31599 7.98662 4.3305C8.03304 4.43799 8.05952 4.52091 8.08464 4.63635C8.08723 4.64725 8.08963 4.65587 8.09242 4.66645C8.09295 4.66846 8.09351 4.67061 8.09407 4.6728C8.09764 4.68667 8.10145 4.70283 8.10551 4.72619C8.11401 4.77241 8.12078 4.84806 8.12849 4.94451C8.13035 4.96895 8.12978 4.98573 8.12605 4.98303C8.12336 4.98117 8.11892 4.97089 8.11457 4.95749C8.12078 4.98364 8.1271 5.00953 8.13356 5.03515C8.13613 5.04538 8.13839 5.05508 8.14016 5.06185C8.14178 5.06813 8.14285 5.07143 8.14286 5.07143C8.14286 5.07143 8.14285 5.07141 8.14284 5.07137C8.14266 5.07081 8.14109 5.06648 8.13811 5.05961C8.13515 5.05272 8.13104 5.04385 8.12705 5.03464C8.1165 5.01018 8.1059 4.9858 8.09518 4.96147C8.08446 4.93712 8.07363 4.91291 8.06262 4.8887C8.0516 4.8645 8.04042 4.84038 8.02901 4.81629C8.01765 4.79231 8.00607 4.76833 7.99426 4.74444C7.98238 4.7204 7.97049 4.69694 7.95823 4.6732C7.95088 4.65898 7.94337 4.64461 7.93591 4.63057C7.93313 4.62533 7.93039 4.62025 7.92766 4.61515C7.92542 4.61098 7.92318 4.60679 7.92086 4.60248C7.89639 4.55721 7.87091 4.51197 7.84484 4.46763C7.81867 4.42308 7.79175 4.37907 7.76405 4.33557C7.73634 4.29205 7.70787 4.24912 7.67864 4.20668C7.64943 4.16428 7.61949 4.12244 7.58873 4.08111C7.55807 4.03995 7.52657 3.99918 7.49429 3.95922C7.46933 3.92831 7.44404 3.89815 7.41817 3.8684C7.40512 3.85951 7.39225 3.85069 7.37952 3.84203C7.34249 3.8168 7.30123 3.79586 7.25939 3.77675C7.31604 3.82892 7.36517 3.86724 7.41064 3.90525C7.41674 3.91034 7.42278 3.91541 7.42875 3.92053C7.48973 3.97262 7.54431 4.02769 7.6009 4.11675C7.76161 4.36992 7.84443 4.52133 7.89506 4.61651C7.94527 4.71188 7.96309 4.75533 7.97782 4.79749C7.99818 4.85735 8.06145 4.95307 8.09422 5.00033C8.10586 5.01772 8.11391 5.03276 8.11224 5.03391C8.11056 5.03505 8.09713 5.02388 8.08225 5.009C8.03954 4.96529 7.95443 4.87533 7.92279 4.81047C7.90848 4.7817 7.8902 4.75014 7.82909 4.66696C7.76774 4.58398 7.66669 4.45155 7.48023 4.22775C7.41715 4.15199 7.35903 4.10621 7.29295 4.06233C7.28648 4.05802 7.27988 4.05375 7.27324 4.04944C7.27321 4.0494 7.27318 4.04937 7.27314 4.04933C7.21196 4.00953 7.14334 3.96875 7.06088 3.90428C6.87233 3.7532 6.59077 3.58678 6.51104 3.56426C6.49555 3.55951 6.47995 3.55569 6.46348 3.55174C6.40019 3.53673 6.32339 3.51941 6.18037 3.44796C6.14908 3.43236 6.11415 3.41204 6.0771 3.38865C5.99519 3.38717 5.91609 3.38703 5.85424 3.37861C5.80086 3.37128 5.73922 3.38182 5.6762 3.39774C5.65805 3.40232 5.63947 3.40745 5.62093 3.41266C5.57622 3.42521 5.53144 3.43846 5.49172 3.44634C5.46006 3.45261 5.42502 3.46212 5.38799 3.47261C5.25306 3.51032 5.09147 3.56418 4.96865 3.50708C4.83838 3.44602 4.74047 3.37342 4.65704 3.30731C4.71348 3.36393 4.7512 3.41633 4.78166 3.46096C4.78741 3.46938 4.79287 3.47749 4.79813 3.48528C4.83526 3.5403 4.86218 3.57939 4.90578 3.59859C5.11427 3.69032 5.2112 3.69913 5.35115 3.66976C5.38803 3.66207 5.43183 3.64965 5.47897 3.63706C5.57319 3.61176 5.68072 3.58644 5.77368 3.59188C5.86028 3.59677 5.96514 3.59384 6.07482 3.5959C6.07485 3.59592 6.07488 3.59593 6.07491 3.59595C6.09634 3.59634 6.11797 3.59692 6.13967 3.59774C6.27213 3.60256 6.4069 3.61798 6.52126 3.65528C6.5335 3.65925 6.54863 3.66349 6.56595 3.66849C6.66672 3.69578 6.8361 3.75856 6.96557 3.91862C6.99428 3.95335 7.01852 3.99507 7.047 4.04151C7.05567 4.05566 7.0647 4.07031 7.07439 4.08529C7.11617 4.15008 7.17123 4.2237 7.25824 4.30867C7.33 4.37884 7.42376 4.45875 7.52136 4.54258C7.56948 4.58385 7.61855 4.62599 7.66689 4.66782C7.81279 4.7943 7.94689 4.91177 8.08739 5.02642C8.08742 5.02644 8.08745 5.02647 8.08748 5.02649C8.10384 5.04022 8.11597 5.05154 8.1143 5.05188C8.11264 5.0522 8.09516 5.04347 8.07556 5.03225C7.91124 4.93589 7.75601 4.8373 7.58977 4.73138C7.53536 4.69676 7.48 4.66169 7.42578 4.62718C7.31481 4.55646 7.20851 4.48848 7.1276 4.42817C7.02876 4.35458 6.96591 4.28901 6.91824 4.23094C6.90675 4.21698 6.8962 4.20357 6.88626 4.19076C6.8546 4.14999 6.8292 4.11499 6.79935 4.08622C6.66181 3.95067 6.49179 3.90481 6.38683 3.88568C6.36835 3.88204 6.3521 3.87891 6.33865 3.87584C6.22216 3.84903 6.08585 3.84327 5.95066 3.84723C5.92873 3.84785 5.90686 3.84865 5.88509 3.84965C5.88503 3.84967 5.88497 3.8497 5.88491 3.84972C5.77306 3.8548 5.6647 3.86431 5.57526 3.86514C5.48451 3.86584 5.38654 3.89366 5.29489 3.92237C5.24572 3.93773 5.19844 3.95314 5.1551 3.96429C5.00618 4.00272 4.90429 3.99912 4.69729 3.92131ZM8.10504 4.91693C8.0938 4.86177 8.08412 4.81678 8.07514 4.78458C8.08143 4.81298 8.08772 4.84119 8.09409 4.86924C8.09772 4.88521 8.10137 4.90111 8.10504 4.91693ZM6.2768 3.12279C6.28654 3.12358 6.29634 3.12441 6.30617 3.12526C6.28676 3.11304 6.2674 3.10077 6.24801 3.08863C6.22419 3.07373 6.2004 3.05884 6.17655 3.04409C6.21103 3.07208 6.24473 3.0988 6.2768 3.12279ZM5.17735 3.18438C5.29447 3.24617 5.44282 3.20313 5.57649 3.17138C5.61498 3.16212 5.65223 3.15369 5.68713 3.14842C5.70161 3.14623 5.71665 3.14329 5.73213 3.13994C5.68306 3.10185 5.6382 3.06637 5.60144 3.03733C5.49169 2.9508 5.44154 2.88241 5.39724 2.82151C5.38442 2.80391 5.37203 2.787 5.35883 2.77054C5.33771 2.77291 5.31612 2.77499 5.29523 2.77575C5.26589 2.77694 5.23522 2.77681 5.20687 2.77554C5.1784 2.77428 5.15032 2.77183 5.12363 2.76814C5.09672 2.76442 5.07088 2.75953 5.04572 2.75382C5.02203 2.74847 4.99898 2.74234 4.97666 2.7365C4.97539 2.73616 4.97411 2.73583 4.97284 2.73549C4.94923 2.72936 4.9263 2.72341 4.90388 2.72036C4.88102 2.71733 4.86057 2.7174 4.83941 2.72287C4.813 2.72966 4.78657 2.73571 4.761 2.74087C4.73541 2.74606 4.7105 2.7504 4.68617 2.75399C4.66181 2.75759 4.63813 2.76054 4.61479 2.76292C4.60725 2.76368 4.59939 2.76443 4.59199 2.76509C4.58858 2.76539 4.58514 2.76573 4.58176 2.76601C4.61459 2.7846 4.64825 2.8046 4.68249 2.82631C4.73194 2.85767 4.7806 2.89824 4.83401 2.94285C4.92517 3.01909 5.02995 3.10629 5.17735 3.18438ZM4.05559 2.54209C4.07072 2.54831 4.09356 2.55594 4.12304 2.56587C4.13001 2.56822 4.13742 2.57058 4.14512 2.5732C4.145 2.57303 4.14482 2.57294 4.14469 2.57277C4.13124 2.55457 4.11853 2.53826 4.10415 2.5219C4.07849 2.49282 4.05266 2.46615 4.02555 2.44101C3.99834 2.4158 3.97023 2.39249 3.94122 2.37092C3.91214 2.34932 3.88202 2.32957 3.85132 2.31189C3.8203 2.29409 3.78889 2.27827 3.75615 2.26479C3.74572 2.26049 3.73515 2.25644 3.72449 2.25262C3.74359 2.2724 3.76415 2.29102 3.78576 2.31072C3.80303 2.32646 3.82093 2.34293 3.83926 2.36125C3.84628 2.36826 3.85432 2.37775 3.86366 2.38883C3.90081 2.43277 3.95779 2.5019 4.05559 2.54209ZM3.42807 2.23703C3.41972 2.23607 3.41152 2.23491 3.40355 2.2334C3.38086 2.2291 3.35953 2.22285 3.33885 2.21613C3.32433 2.2114 3.31014 2.20631 3.29612 2.20139C3.29021 2.19932 3.28428 2.1973 3.27841 2.19527C3.26859 2.19187 3.25878 2.18868 3.24902 2.18554C3.31083 2.22582 3.37152 2.26335 3.43678 2.29657C3.43764 2.297 3.43855 2.29734 3.43942 2.29778C3.43561 2.27706 3.43183 2.2568 3.42807 2.23703Z" fill="var(--stroke-0, #B4D455)"/>
</svg>
