<svg preserveAspectRatio="none" width="100%" height="100%" overflow="visible" style="display: block;" viewBox="0 0 12 12" fill="none" xmlns="http://www.w3.org/2000/svg">
<path id="Vector" d="M3.59593 6.37995C3.66063 6.30384 3.73636 6.24758 3.83307 6.17758C3.83311 6.17753 3.83315 6.17748 3.83319 6.17744C3.84701 6.16744 3.86131 6.15719 3.87602 6.14654C3.99448 6.06075 4.14658 5.94747 4.35538 5.75613C4.58609 5.54469 4.82113 5.42868 4.98673 5.37992C5.01762 5.37083 5.04422 5.35604 5.10172 5.30917C5.13053 5.2857 5.16616 5.255 5.21329 5.21421C5.22787 5.20159 5.24355 5.18802 5.26048 5.17338C5.29858 5.14045 5.34295 5.10215 5.39524 5.05767C5.56824 4.91029 5.81892 4.65887 6.05348 4.43079C6.19573 4.29224 6.33186 4.16204 6.43883 4.06673C6.59528 3.92733 6.75549 3.80209 6.93027 3.66653C7.09038 3.54245 7.26267 3.40966 7.45681 3.25082C7.6059 3.12906 7.78536 3.04538 7.96844 2.96106C7.99176 2.95034 8.01517 2.93958 8.03859 2.92878C8.20019 2.85441 8.36309 2.77609 8.51981 2.67195C8.79886 2.48603 8.9778 2.29392 9.18283 2.08813C9.26286 2.00749 9.34658 1.92442 9.4405 1.83746C9.58902 1.69991 9.81162 1.51128 10.0361 1.32287C10.0553 1.30682 10.0744 1.29073 10.0935 1.27472C10.0936 1.27464 10.0937 1.27456 10.0938 1.27448C10.2995 1.10222 10.5019 0.933641 10.6493 0.808872C10.8836 0.610648 10.9702 0.534574 11.0431 0.471696C11.0705 0.448082 11.096 0.426358 11.1269 0.400945C11.2382 0.309454 11.4115 0.176655 11.587 0.0418327C11.5877 0.0413189 11.5884 0.0408021 11.589 0.0402896C11.6183 0.0180797 11.6418 4.45651e-05 11.6416 -4.93216e-08C11.6413 -3.99502e-05 11.6191 0.0197709 11.5921 0.0442226C11.5053 0.121799 11.4205 0.197403 11.3449 0.2654C11.3458 0.273769 11.3299 0.2965 11.3062 0.319167C11.2471 0.376115 11.0669 0.551285 10.8083 0.848846C10.8297 0.832198 10.8479 0.818443 10.8639 0.806472C10.8826 0.792417 10.8971 0.781757 10.9095 0.772528C10.9353 0.753271 10.9522 0.740217 10.9796 0.714389C11.041 0.652505 11.1343 0.552066 11.2323 0.446176C11.2571 0.419577 11.2834 0.404221 11.2909 0.411942C11.2983 0.419674 11.286 0.449278 11.2632 0.477979C11.2627 0.478538 11.2623 0.479099 11.2618 0.479658C11.1719 0.591642 11.0825 0.702138 11.0226 0.771013C11.0073 0.788537 10.994 0.803409 10.9838 0.814444C10.9757 0.823269 10.9655 0.834208 10.9593 0.83977C10.9585 0.840508 10.9569 0.841903 10.955 0.843485C10.9549 0.843509 10.9549 0.843533 10.9549 0.843556C10.9538 0.844441 10.9482 0.848982 10.941 0.852639C10.9396 0.853377 10.9364 0.854957 10.9323 0.856309C10.9315 0.856956 10.9307 0.857602 10.9299 0.858247C10.9191 0.867255 10.908 0.876382 10.8962 0.886392C10.8497 0.92537 10.7781 0.989039 10.6321 1.12487C10.4979 1.2499 10.2796 1.46976 10.0143 1.75119C10.0345 1.73443 10.0546 1.71749 10.0745 1.70042C10.1246 1.65745 10.1741 1.61342 10.223 1.5688C10.2418 1.55171 10.2602 1.53478 10.2789 1.51742C10.3089 1.48949 10.3389 1.46129 10.3686 1.43292C10.3887 1.41374 10.4088 1.39444 10.4288 1.37511C10.4288 1.37506 10.4289 1.37502 10.4289 1.37497C10.4566 1.34813 10.4843 1.32112 10.5122 1.2938C10.5219 1.28428 10.5316 1.27484 10.5411 1.26544C10.579 1.22801 10.6161 1.19106 10.6601 1.14988C10.6657 1.14507 10.6718 1.13998 10.6765 1.13625C10.6815 1.13222 10.6864 1.12839 10.691 1.12481C10.6951 1.12166 10.699 1.11869 10.7028 1.11582C10.7033 1.11544 10.7038 1.11505 10.7043 1.11466C10.7085 1.11145 10.7125 1.10834 10.7163 1.10533C10.7201 1.10234 10.7238 1.09944 10.7273 1.09651C10.7273 1.09648 10.7273 1.09644 10.7274 1.09641C10.731 1.09334 10.7338 1.09099 10.7376 1.08761C10.7423 1.08336 10.7463 1.07965 10.751 1.07505C10.7556 1.07059 10.7603 1.06587 10.765 1.06105C10.7697 1.05622 10.7744 1.05125 10.7792 1.04617C10.7839 1.04109 10.7887 1.0359 10.7936 1.03063C10.7984 1.02536 10.8032 1.01999 10.8081 1.01459C10.813 1.00919 10.8179 1.00372 10.8228 0.998213C10.8341 0.985542 10.8481 0.976467 10.8615 0.97295C10.8749 0.969448 10.8866 0.971741 10.8944 0.979622C10.9021 0.987505 10.9055 1.00047 10.9039 1.01597C10.9023 1.03146 10.8959 1.0482 10.8861 1.06238C10.8834 1.06623 10.8807 1.07012 10.878 1.07401C10.8764 1.07632 10.8747 1.07863 10.8731 1.08095C10.8688 1.08719 10.8644 1.0935 10.8599 1.09981C10.8555 1.10611 10.8509 1.11244 10.8463 1.11881C10.8417 1.12521 10.837 1.13166 10.8321 1.13813C10.8273 1.14459 10.8223 1.15113 10.8171 1.15768C10.8121 1.16408 10.8062 1.17126 10.8009 1.17755C10.7969 1.18216 10.792 1.1877 10.7878 1.19227C10.7834 1.19704 10.779 1.20167 10.7748 1.20607C10.7705 1.21049 10.7663 1.21471 10.7623 1.21873C10.7619 1.21916 10.7614 1.21959 10.761 1.22003C10.7575 1.22358 10.754 1.227 10.7508 1.23026C10.7472 1.2339 10.7438 1.2374 10.7407 1.24075C10.7372 1.24444 10.7352 1.24676 10.7327 1.24963C10.7012 1.28877 10.6638 1.33875 10.6281 1.38638C10.6236 1.39237 10.6192 1.39831 10.6147 1.40419C10.5913 1.4355 10.568 1.46676 10.5447 1.498C10.5277 1.5207 10.5107 1.54342 10.4937 1.56613C10.4686 1.59955 10.4434 1.633 10.4181 1.66632C10.4024 1.68701 10.3869 1.70728 10.3712 1.72783C10.33 1.7815 10.2884 1.83503 10.2461 1.88799C10.2039 1.94088 10.1607 1.99348 10.1165 2.04505C10.0725 2.09642 10.0255 2.14863 9.97807 2.19687C9.9431 2.23228 9.90435 2.26567 9.86743 2.2955C9.84759 2.31153 9.82793 2.32701 9.80842 2.34211C9.80835 2.34215 9.80827 2.3422 9.8082 2.34224C9.79107 2.3555 9.77409 2.36851 9.75731 2.38151C9.72131 2.40936 9.6863 2.43707 9.65209 2.46557C9.61792 2.49402 9.58467 2.52312 9.55212 2.55338C9.51982 2.58343 9.48787 2.61486 9.45712 2.64687C9.42621 2.67903 9.39671 2.71146 9.36644 2.74627C9.32671 2.79211 9.28841 2.83878 9.24933 2.88693C9.21058 2.93477 9.17193 2.98341 9.13321 3.03222C9.11968 3.04928 9.10607 3.06632 9.09251 3.08345C9.09245 3.08351 9.0924 3.08358 9.09234 3.08364C9.06726 3.11532 9.04212 3.14709 9.01691 3.17883C8.97797 3.22782 8.93882 3.27685 8.89909 3.32562C8.85936 3.37438 8.81899 3.42303 8.77746 3.471C8.73588 3.51892 8.69234 3.5673 8.64587 3.61316C8.60449 3.65415 8.56183 3.69453 8.51995 3.73382C8.50889 3.7442 8.49783 3.75457 8.48676 3.76494C8.43427 3.81417 8.38398 3.86235 8.33691 3.91265C8.2898 3.96285 8.24531 4.0156 8.20261 4.07103C8.16004 4.12629 8.11898 4.18429 8.07892 4.2441C8.03869 4.30416 8.00032 4.3648 7.96195 4.42744C7.9239 4.48963 7.88644 4.55288 7.8491 4.61748C7.82832 4.65336 7.80532 4.69065 7.78304 4.72533C7.76054 4.76034 7.73764 4.79459 7.71477 4.82813C7.70549 4.84175 7.69618 4.85522 7.68697 4.86864C7.67355 4.88821 7.6602 4.90757 7.64722 4.92677C7.62531 4.95918 7.60431 4.99119 7.58483 5.0232C7.56536 5.05519 7.54748 5.08726 7.53179 5.11983C7.51559 5.15356 7.50375 5.18289 7.49148 5.21986C7.45583 5.3041 7.42687 5.34945 7.39471 5.39985C7.38838 5.40978 7.38197 5.41999 7.37531 5.43064C7.33614 5.49047 7.29477 5.54801 7.25234 5.60319C7.20947 5.65887 7.16564 5.71205 7.11969 5.76437C7.0742 5.81618 7.02677 5.86676 6.97813 5.91574C6.92957 5.96465 6.87965 6.01203 6.82813 6.05807C6.77667 6.10409 6.72262 6.14954 6.66936 6.1918C6.63859 6.21624 6.60493 6.24122 6.57319 6.26395C6.55029 6.28035 6.52748 6.29628 6.50509 6.31186C6.49595 6.31822 6.48685 6.32454 6.47786 6.33082C6.44799 6.35166 6.41909 6.3721 6.39192 6.39267C6.39088 6.39345 6.38986 6.39423 6.38883 6.39501C6.36075 6.41636 6.33444 6.43789 6.31012 6.46038C6.28575 6.4829 6.26338 6.5064 6.24249 6.5314C6.22091 6.55739 6.20414 6.58014 6.18439 6.61089C6.17157 6.63097 6.1591 6.65073 6.14667 6.67043C6.12807 6.69993 6.10971 6.72934 6.09137 6.75911C6.07304 6.78884 6.05512 6.81836 6.0373 6.84823C6.03157 6.85783 6.02552 6.86797 6.01983 6.87765C6.00223 6.90757 5.98506 6.93737 5.96826 6.96749C5.95149 6.99755 5.93521 7.02768 5.91944 7.05812C5.9036 7.08869 5.88844 7.11916 5.87344 7.15069C5.848 7.20433 5.81601 7.24805 5.78649 7.28481C5.7565 7.32191 5.72663 7.35473 5.69745 7.38657C5.69199 7.39254 5.68652 7.3985 5.68105 7.40445C5.65743 7.43006 5.63408 7.45512 5.61144 7.48017C5.58353 7.51102 5.55662 7.54181 5.53015 7.57323C5.5039 7.60436 5.47792 7.63634 5.45308 7.66857C5.42802 7.70111 5.40462 7.73281 5.38015 7.76769C5.35588 7.80214 5.33309 7.83897 5.30787 7.8791C5.2829 7.91889 5.25634 7.96029 5.22794 8.00071C5.1996 8.04113 5.16938 8.08074 5.13773 8.11844C5.10604 8.15623 5.0727 8.1926 5.03848 8.22712C5.00408 8.26184 4.96854 8.295 4.93215 8.32696C4.89585 8.35885 4.85727 8.39071 4.82026 8.41963C4.76033 8.46646 4.69984 8.51225 4.63885 8.55772C4.57817 8.60292 4.51686 8.64783 4.45537 8.69233C4.39399 8.73675 4.33227 8.78095 4.27039 8.82481C4.20848 8.8687 4.14636 8.91235 4.08417 8.95579C4.07042 8.9654 4.05666 8.975 4.04289 8.98459C3.99441 9.01837 3.94586 9.05206 3.89749 9.08559C3.89714 9.08581 3.8968 9.08603 3.89645 9.08624C3.83422 9.12943 3.77303 9.17175 3.71152 9.21477C3.68896 9.23059 3.66728 9.24578 3.64537 9.26135C3.62343 9.27693 3.602 9.2923 3.58048 9.30793C3.55894 9.32359 3.53766 9.33929 3.51687 9.35491C3.49587 9.37073 3.47556 9.38629 3.45537 9.40232C3.43685 9.41698 3.4188 9.43189 3.399 9.44809C3.3972 9.44957 3.39539 9.45105 3.39358 9.45253C3.37192 9.47026 3.34675 9.48991 3.32236 9.50717C3.25763 9.55277 3.195 9.59767 3.13166 9.6438C3.06829 9.68995 3.00543 9.73638 2.94202 9.78317C2.91725 9.80143 2.89241 9.81982 2.86747 9.83813C2.82868 9.86661 2.78964 9.89509 2.75026 9.92344C2.68547 9.97008 2.61987 10.0161 2.55291 10.0616C2.4862 10.1068 2.41811 10.1514 2.34942 10.1949C2.2808 10.2384 2.21071 10.2814 2.14088 10.3231C2.06306 10.3696 1.98535 10.4155 1.90726 10.4616C1.82929 10.5076 1.75121 10.5535 1.67353 10.5993C1.59558 10.6453 1.51788 10.6912 1.44029 10.7373C1.36265 10.7834 1.2852 10.8296 1.20788 10.876C1.16161 10.9038 1.11541 10.9316 1.06929 10.9596C1.04718 10.9766 1.0259 10.9929 1.00532 11.0085C0.853059 11.1233 0.738831 11.2021 0.582645 11.3007C0.56782 11.3103 0.555974 11.3183 0.541488 11.3279C0.538724 11.3298 0.535782 11.3317 0.532785 11.3337C0.513807 11.3463 0.491818 11.3605 0.460446 11.3796C0.398161 11.4179 0.29852 11.4724 0.170403 11.5435C0.137981 11.5614 0.116217 11.5717 0.120918 11.5656C0.124177 11.5612 0.139006 11.5493 0.157858 11.5355C0.121779 11.5597 0.0859572 11.584 0.0504158 11.6084C0.0362223 11.6181 0.0228074 11.6272 0.0133916 11.6337C0.00465309 11.6398 -3.72696e-06 11.6432 0 11.6432C0 11.6432 0 11.6432 0 11.6432C2.23237e-08 11.6432 2.85183e-05 11.6432 8.57124e-05 11.6432C0.000879696 11.6426 0.00703292 11.6379 0.0169599 11.6298C0.026898 11.6218 0.0397877 11.6111 0.0530917 11.6004C0.0883992 11.572 0.123606 11.5436 0.158806 11.5152C0.194036 11.4869 0.229081 11.4586 0.264187 11.4302C0.299284 11.4018 0.334323 11.3734 0.369412 11.3448C0.404362 11.3163 0.439329 11.2877 0.474281 11.259C0.509458 11.2302 0.543886 11.2017 0.578814 11.1728C0.599739 11.1554 0.620898 11.1379 0.641629 11.1206C0.649359 11.1141 0.656883 11.1078 0.66442 11.1015C0.67058 11.0964 0.676777 11.0912 0.683149 11.0859C0.750142 11.0298 0.817498 10.9729 0.883942 10.9162C0.950708 10.8592 1.01712 10.802 1.08323 10.7445C1.14938 10.687 1.21515 10.6292 1.28068 10.5711C1.34617 10.5131 1.41133 10.4547 1.47629 10.396C1.54101 10.3374 1.6057 10.2784 1.66985 10.2191C1.71946 10.1732 1.76839 10.1274 1.81713 10.0813C1.83414 10.061 1.85101 10.0409 1.86765 10.0211C1.91612 9.96337 1.96154 9.90248 2.00539 9.84161C1.91354 9.93616 1.84294 10.0153 1.77484 10.0897C1.76571 10.0997 1.75664 10.1096 1.74756 10.1195C1.65492 10.2201 1.56229 10.3141 1.42638 10.4292C1.04014 10.757 0.815487 10.9464 0.674439 11.0633C0.533449 11.1803 0.470957 11.2286 0.411165 11.2722C0.326368 11.3336 0.180463 11.4698 0.108275 11.5393C0.081837 11.5644 0.0596201 11.5837 0.0586383 11.5825C0.0576646 11.5813 0.0764796 11.5581 0.100702 11.5309C0.171386 11.4519 0.317621 11.2929 0.413334 11.2146C0.455835 11.1796 0.503224 11.1379 0.633484 11.0142C0.763867 10.8905 0.972422 10.6889 1.33828 10.3394C1.46218 10.2212 1.54639 10.1258 1.63288 10.0212C1.64137 10.0109 1.64986 10.0005 1.65845 9.99006C1.65851 9.99 1.65857 9.98994 1.65863 9.98988C1.73783 9.89349 1.82259 9.78706 1.94538 9.65202C2.22927 9.34165 2.59576 8.90878 2.67223 8.7955C2.68734 8.77337 2.70143 8.75146 2.71626 8.72832C2.77321 8.63953 2.84121 8.53157 3.02111 8.31495C3.06048 8.26758 3.10813 8.21365 3.16119 8.15586C3.21763 8.04596 3.27239 7.93922 3.32609 7.85249C3.37247 7.77767 3.40386 7.6973 3.43086 7.61601C3.43863 7.5926 3.44614 7.56873 3.45361 7.54487C3.47164 7.48734 3.48942 7.42954 3.51028 7.37673C3.5269 7.33464 3.54247 7.28871 3.55877 7.24003C3.61841 7.06294 3.68655 6.8474 3.86111 6.65228C4.04641 6.4457 4.22008 6.28385 4.37256 6.14696C4.25547 6.24238 4.15989 6.31086 4.07967 6.3673C4.06454 6.37795 4.05003 6.38814 4.03606 6.39795C3.93743 6.46728 3.86637 6.51834 3.80505 6.58788C3.51259 6.92051 3.42246 7.06482 3.34703 7.25392C3.32723 7.30377 3.30817 7.36153 3.28735 7.42349C3.24581 7.54738 3.19698 7.68778 3.12355 7.81766C3.05523 7.93872 2.98554 8.08082 2.90971 8.2294C2.90966 8.22945 2.90962 8.2295 2.90958 8.22954C2.89477 8.25858 2.87971 8.28789 2.86441 8.31734C2.77121 8.49699 2.66828 8.68104 2.554 8.84613C2.54179 8.8638 2.52755 8.88535 2.51115 8.91004C2.41743 9.05351 2.24486 9.29734 1.97667 9.53765C1.91803 9.5907 1.85294 9.64166 1.77966 9.70082C1.75734 9.71884 1.73421 9.7376 1.71031 9.75743C1.60708 9.84298 1.48559 9.95087 1.33551 10.1062C1.21162 10.2343 1.06612 10.396 0.916329 10.5652C0.842561 10.6486 0.767768 10.7338 0.694265 10.8179C0.472179 11.0721 0.271002 11.3074 0.0762363 11.5483C0.0761967 11.5484 0.0761571 11.5484 0.0761175 11.5485C0.052949 11.5768 0.0343554 11.5985 0.0344275 11.5968C0.034513 11.595 0.0513825 11.5687 0.0723205 11.5382C0.250933 11.2809 0.436137 11.0309 0.641805 10.7619C0.709066 10.6739 0.778144 10.5843 0.846693 10.4963C0.987106 10.3162 1.12535 10.143 1.24315 10.0064C1.38694 9.83957 1.50449 9.72355 1.60421 9.63189C1.62822 9.60981 1.65102 9.58927 1.67275 9.56986C1.74192 9.50806 1.80039 9.45765 1.85341 9.40472C2.10095 9.15991 2.25847 8.91677 2.34776 8.76799C2.36374 8.74175 2.37778 8.71868 2.39005 8.69935C2.4965 8.53191 2.59261 8.34543 2.68097 8.1612C2.69533 8.13132 2.70953 8.10152 2.72354 8.07186C2.72355 8.07178 2.72356 8.07171 2.72358 8.07163C2.79557 7.91927 2.86313 7.77122 2.92978 7.64497C2.99749 7.5169 3.03904 7.38769 3.07697 7.2659C3.09735 7.20057 3.11682 7.1375 3.13897 7.07814C3.21553 6.87407 3.30836 6.71947 3.59593 6.37995ZM0.213757 11.4982C0.289147 11.4498 0.350559 11.4102 0.395154 11.3797C0.356354 11.4047 0.317753 11.4298 0.27927 11.455C0.257367 11.4694 0.235534 11.4838 0.213757 11.4982ZM3.34923 8.32869C3.3421 8.34163 3.33492 8.35467 3.3277 8.36774C3.35443 8.33846 3.38124 8.30924 3.40798 8.28005C3.44082 8.24421 3.4737 8.20843 3.50656 8.17265C3.45122 8.22645 3.39803 8.27901 3.34923 8.32869ZM4.07014 6.8604C3.90229 7.04118 3.83672 7.23613 3.77485 7.40918C3.75708 7.45907 3.73966 7.50725 3.72049 7.55299C3.71255 7.57196 3.70514 7.59144 3.69794 7.61135C3.77824 7.53376 3.85267 7.46306 3.91374 7.40532C4.09597 7.23304 4.21316 7.14844 4.31646 7.07444C4.34636 7.05304 4.3751 7.03248 4.40393 7.011C4.4175 6.98294 4.43188 6.9541 4.44732 6.92586C4.46886 6.88624 4.49314 6.84442 4.51708 6.80544C4.54108 6.76631 4.56633 6.72737 4.59201 6.69003C4.6179 6.65237 4.6444 6.61591 4.67138 6.58021C4.69675 6.5466 4.72261 6.51368 4.74762 6.48182C4.74906 6.48 4.75049 6.47818 4.75193 6.47635C4.77834 6.44266 4.80409 6.40993 4.82628 6.37839C4.84882 6.34624 4.86599 6.31794 4.87788 6.28947C4.89276 6.25396 4.90867 6.21816 4.92497 6.18334C4.94127 6.14847 4.95809 6.11432 4.97537 6.0808C4.9927 6.0472 5.01028 6.01437 5.02834 5.98187C5.03417 5.97136 5.04032 5.96041 5.04619 5.95007C5.04889 5.94531 5.05157 5.94052 5.05428 5.93578C5.0045 5.98489 4.95249 6.03556 4.89825 6.08744C4.81989 6.16238 4.73205 6.23821 4.63558 6.32228C4.471 6.46568 4.28148 6.63324 4.07014 6.8604ZM5.78309 5.16558C5.76203 5.18752 5.73209 5.22054 5.69354 5.26319C5.68442 5.27327 5.67488 5.28398 5.66481 5.29513C5.66511 5.29493 5.66537 5.29468 5.66567 5.29448C5.6977 5.27391 5.727 5.25464 5.75788 5.23311C5.81289 5.19468 5.86546 5.15648 5.91753 5.11687C5.96979 5.07709 6.0209 5.03641 6.07109 4.99472C6.12136 4.95296 6.17072 4.91002 6.21862 4.86644C6.26696 4.82241 6.31367 4.77807 6.35948 4.73194C6.37407 4.71725 6.38857 4.70238 6.40294 4.68738C6.36424 4.71424 6.32523 4.7433 6.28405 4.77403C6.25116 4.79857 6.21685 4.82415 6.18021 4.85051C6.16619 4.86059 6.14863 4.87221 6.12814 4.88576C6.04699 4.9395 5.91944 5.0236 5.78309 5.16558ZM6.71767 4.26878C6.7272 4.25698 6.73681 4.24538 6.74651 4.23412C6.77416 4.20208 6.80235 4.17209 6.83036 4.14307C6.85004 4.1227 6.86976 4.10282 6.88915 4.08319C6.89734 4.07491 6.90549 4.06661 6.91358 4.05841C6.92713 4.04467 6.94048 4.03093 6.95373 4.01729C6.85026 4.10244 6.75051 4.1871 6.6504 4.27915C6.64907 4.28036 6.64781 4.28164 6.64648 4.28287C6.67076 4.27806 6.69449 4.27338 6.71767 4.26878Z" fill="var(--stroke-0, #A98BFF)"/>
</svg>
