<svg preserveAspectRatio="none" width="100%" height="100%" overflow="visible" style="display: block;" viewBox="0 0 4 5" fill="none" xmlns="http://www.w3.org/2000/svg">
<path id="Vector" d="M3.17855 1.80369C3.18661 1.83235 3.17283 1.85923 3.15394 1.89317C3.15394 1.89318 3.15394 1.8932 3.15395 1.89322C3.15125 1.89807 3.14838 1.90307 3.14552 1.90823C3.1224 1.94981 3.09493 2.00384 3.08257 2.08531C3.06892 2.17532 2.98473 2.24679 2.90211 2.29043C2.88669 2.29857 2.87834 2.307 2.87081 2.32825C2.86703 2.33889 2.86354 2.3524 2.85906 2.3703C2.85767 2.37583 2.85618 2.38179 2.85456 2.38821C2.8509 2.40268 2.8466 2.41951 2.84108 2.43921C2.82295 2.50444 2.82344 2.60666 2.81883 2.70085C2.81621 2.75802 2.812 2.81224 2.80375 2.85342C2.79167 2.91365 2.76693 2.97177 2.73919 3.03495C2.7137 3.09281 2.68574 3.15492 2.66077 3.22678C2.64143 3.28192 2.57369 3.3355 2.50384 3.38994C2.49493 3.39687 2.48599 3.40382 2.47706 3.41079C2.41537 3.45883 2.35554 3.50794 2.31836 3.56105C2.25248 3.65571 2.26177 3.73125 2.26228 3.81489C2.26271 3.8476 2.26224 3.88156 2.25731 3.91839C2.24954 3.97663 2.2255 4.06035 2.19995 4.14442C2.19777 4.15158 2.19562 4.15875 2.19342 4.1659C2.19341 4.16594 2.1934 4.16597 2.19339 4.16601C2.1697 4.24296 2.14577 4.31849 2.12975 4.3739C2.10424 4.46195 2.09675 4.49508 2.0897 4.52271C2.08702 4.5331 2.08434 4.54272 2.08046 4.55418C2.06644 4.59547 2.03777 4.65779 2.00899 4.72097C2.00888 4.72121 2.00877 4.72145 2.00866 4.72169C2.00365 4.73218 1.99977 4.74064 2 4.74059C2.00023 4.74054 2.00189 4.732 2.00373 4.72151C2.01026 4.68805 2.01675 4.65539 2.02215 4.62616C2.01558 4.62464 2.01078 4.61677 2.0115 4.60733C2.01302 4.58371 2.0166 4.51135 1.9891 4.39812C1.9857 4.40587 1.98259 4.41237 1.97974 4.41806C1.97641 4.42475 1.9737 4.42986 1.97147 4.43427C1.96683 4.44344 1.96409 4.44954 1.96299 4.46038C1.96334 4.48548 1.96838 4.52492 1.97396 4.56642C1.97518 4.5769 1.96749 4.58537 1.95674 4.58532C1.94598 4.58527 1.93379 4.57672 1.92961 4.56624C1.92953 4.56604 1.92945 4.56583 1.92937 4.56563C1.91379 4.52452 1.89892 4.48381 1.89258 4.45759C1.89096 4.45093 1.88988 4.44518 1.88926 4.44087C1.88875 4.43742 1.88824 4.43311 1.88868 4.43072C1.88874 4.4304 1.88887 4.4298 1.88914 4.42908C1.88915 4.42907 1.88916 4.42905 1.88917 4.42904C1.88932 4.42864 1.89006 4.42657 1.89253 4.42437C1.89302 4.42393 1.89415 4.42296 1.89613 4.42184C1.89622 4.42155 1.89631 4.42126 1.8964 4.42097C1.89768 4.41694 1.89906 4.41282 1.90038 4.40837C1.90568 4.39098 1.91133 4.36343 1.91851 4.30605C1.92499 4.25328 1.92392 4.16408 1.91252 4.05277C1.91011 4.06029 1.90788 4.06782 1.90587 4.07535C1.90081 4.09431 1.89695 4.11335 1.89389 4.13239C1.89273 4.13969 1.89167 4.14689 1.89074 4.15422C1.88924 4.16602 1.88799 4.17787 1.88701 4.1897C1.88635 4.1977 1.88581 4.20571 1.88535 4.21371C1.88535 4.21373 1.88536 4.21375 1.88536 4.21377C1.88472 4.22488 1.88424 4.23602 1.88388 4.24724C1.8837 4.25117 1.88357 4.25505 1.88347 4.25891C1.88313 4.27425 1.88303 4.28932 1.88101 4.30667C1.88049 4.30878 1.87973 4.31107 1.87906 4.31278C1.87836 4.31462 1.87764 4.31639 1.87689 4.31806C1.87622 4.31954 1.87553 4.32094 1.87491 4.32229C1.87483 4.32247 1.87474 4.32265 1.87466 4.32283C1.87397 4.32434 1.87335 4.32579 1.87278 4.32717C1.87221 4.32856 1.87167 4.32989 1.87125 4.33121C1.87126 4.33122 1.87126 4.33123 1.87126 4.33124C1.87085 4.33261 1.87054 4.33366 1.87027 4.33511C1.86993 4.33694 1.86973 4.33851 1.86964 4.34041C1.86954 4.34225 1.86955 4.34417 1.86965 4.34611C1.86974 4.34804 1.86991 4.35002 1.87014 4.35202C1.87037 4.35403 1.87064 4.35606 1.87096 4.35812C1.87128 4.36017 1.87165 4.36225 1.87203 4.36434C1.87241 4.36643 1.8728 4.36854 1.87321 4.37067C1.87414 4.37556 1.87069 4.38024 1.86371 4.38369C1.85671 4.38713 1.84681 4.38904 1.83574 4.38902C1.82467 4.389 1.81315 4.38703 1.8033 4.38356C1.79347 4.38008 1.78614 4.37538 1.78309 4.37048C1.78226 4.36915 1.78141 4.36781 1.78058 4.36647C1.78009 4.36567 1.77961 4.36487 1.77911 4.36406C1.77779 4.36191 1.77643 4.35973 1.77512 4.35754C1.77382 4.35535 1.77255 4.35313 1.7713 4.3509C1.77005 4.34866 1.76881 4.34639 1.76766 4.34408C1.76651 4.34178 1.76542 4.33943 1.76445 4.33705C1.76348 4.33472 1.76256 4.33206 1.76191 4.32969C1.76142 4.32795 1.76103 4.32581 1.76076 4.32403C1.76047 4.32216 1.7603 4.32033 1.7602 4.31857C1.7601 4.3168 1.76009 4.31508 1.76008 4.31345C1.76008 4.31327 1.76007 4.3131 1.76007 4.31292C1.76006 4.31148 1.76007 4.31008 1.76004 4.30876C1.76001 4.30729 1.75992 4.30589 1.75978 4.30457C1.75964 4.30311 1.75943 4.30222 1.75916 4.30113C1.75378 4.28674 1.74487 4.26896 1.73642 4.252C1.73536 4.24987 1.73432 4.24775 1.73328 4.24565C1.7277 4.23451 1.72209 4.2234 1.71651 4.21229C1.71245 4.20421 1.70839 4.19613 1.70439 4.18804C1.69849 4.17613 1.69268 4.16418 1.687 4.15225C1.68348 4.14484 1.68009 4.13756 1.67671 4.13017C1.66786 4.11086 1.65943 4.09149 1.65189 4.0721C1.64437 4.05273 1.63767 4.03324 1.63247 4.01374C1.6273 3.99432 1.62357 3.97413 1.62305 3.95464C1.62273 3.94032 1.62653 3.92563 1.63154 3.91204C1.63424 3.90474 1.6372 3.89758 1.64032 3.89054C1.64034 3.89051 1.64036 3.89049 1.64038 3.89046C1.64312 3.88428 1.64593 3.87817 1.6486 3.87211C1.65437 3.85911 1.65953 3.84634 1.66357 3.83357C1.66762 3.82082 1.67056 3.80813 1.67218 3.79534C1.67378 3.78265 1.67415 3.76975 1.67326 3.75697C1.67238 3.74413 1.67031 3.73152 1.66711 3.71827C1.66279 3.70085 1.65687 3.68355 1.65046 3.66579C1.64404 3.64816 1.63698 3.63039 1.62985 3.61257C1.62735 3.60634 1.62493 3.6001 1.62241 3.59385C1.6224 3.59383 1.6224 3.5938 1.62239 3.59378C1.61773 3.58222 1.61304 3.57064 1.60843 3.55904C1.60133 3.54114 1.59435 3.52319 1.58796 3.50517C1.58158 3.48715 1.57573 3.46903 1.57118 3.45081C1.5667 3.43259 1.56328 3.41387 1.56372 3.39507C1.564 3.3783 1.56561 3.3614 1.56745 3.34487C1.56793 3.34051 1.56842 3.33614 1.56892 3.33178C1.57123 3.31107 1.57273 3.29102 1.57044 3.2712C1.56826 3.25139 1.56243 3.23159 1.55343 3.21161C1.54446 3.19169 1.53249 3.17153 1.51853 3.15119C1.50452 3.13077 1.48877 3.11062 1.47162 3.09005C1.45455 3.06964 1.43632 3.04914 1.41705 3.02838C1.40637 3.01685 1.39628 3.00457 1.38751 2.99298C1.37867 2.98127 1.37064 2.96963 1.3631 2.95815C1.36004 2.95349 1.35709 2.94885 1.35411 2.94424C1.34977 2.93752 1.34552 2.93087 1.34112 2.92431C1.33371 2.91325 1.32592 2.90246 1.31706 2.89198C1.30821 2.8815 1.29818 2.87133 1.28625 2.86151C1.27385 2.85134 1.26149 2.84296 1.24403 2.83293C1.20968 2.80852 1.19809 2.79339 1.18519 2.77658C1.18265 2.77327 1.17997 2.76989 1.17714 2.76637C1.16254 2.74621 1.15111 2.72607 1.1421 2.7062C1.13305 2.68614 1.12644 2.66639 1.12194 2.64638C1.11748 2.62657 1.11526 2.60661 1.11502 2.58674C1.11478 2.56689 1.11658 2.54709 1.12045 2.52722C1.12431 2.50738 1.1304 2.48712 1.13818 2.46767C1.14266 2.45643 1.14879 2.4445 1.15518 2.43341C1.15977 2.4254 1.16464 2.41752 1.16946 2.40979C1.17142 2.40663 1.17339 2.40349 1.17531 2.40038C1.18169 2.39006 1.18768 2.38001 1.19235 2.3703C1.19253 2.36993 1.1927 2.36956 1.19288 2.36919C1.19764 2.35913 1.20102 2.34939 1.20232 2.33986C1.20363 2.33031 1.20284 2.32097 1.19993 2.31163C1.19681 2.30194 1.19259 2.2939 1.18481 2.28362C1.17968 2.27692 1.17452 2.27036 1.16938 2.26381C1.16168 2.25402 1.15386 2.2443 1.14579 2.2345C1.13773 2.22472 1.12953 2.21506 1.12101 2.20535C1.11827 2.20223 1.11539 2.19893 1.11257 2.1958C1.10386 2.18613 1.09493 2.17656 1.08551 2.16701C1.07612 2.15747 1.06633 2.14803 1.05595 2.13862C1.04554 2.12917 1.03472 2.11988 1.02303 2.11041C1.00309 2.09431 0.994803 2.07889 0.989685 2.0654C0.984663 2.05174 0.982579 2.03898 0.980699 2.02655C0.980348 2.02423 0.98 2.0219 0.979657 2.01957C0.978254 2.00955 0.977046 1.9997 0.975347 1.98999C0.973271 1.97802 0.970527 1.96627 0.967031 1.95449C0.963583 1.94281 0.959348 1.93101 0.954124 1.91939C0.948833 1.90766 0.94297 1.89644 0.935612 1.88436C0.928414 1.87241 0.918496 1.86027 0.907949 1.84696C0.897474 1.83378 0.886987 1.81994 0.878493 1.80593C0.869951 1.79193 0.863314 1.77771 0.859039 1.76359C0.854725 1.74945 0.852592 1.73526 0.852383 1.72126C0.852159 1.70719 0.853851 1.6932 0.856984 1.67929C0.860101 1.6654 0.864856 1.65106 0.870581 1.63764C0.879847 1.6159 0.890253 1.59427 0.901231 1.57259C0.912183 1.55104 0.923786 1.52941 0.935798 1.50783C0.947797 1.48629 0.960193 1.46473 0.972941 1.4432C0.985694 1.42166 0.998754 1.40013 1.01202 1.37862C1.01495 1.37387 1.0179 1.36911 1.02085 1.36436C1.03124 1.34761 1.04175 1.33086 1.05225 1.31419C1.05234 1.31408 1.05244 1.31396 1.05253 1.31385C1.066 1.29238 1.07935 1.27131 1.09243 1.25003C1.0972 1.24222 1.10178 1.23471 1.10628 1.22708C1.11077 1.21944 1.11506 1.21195 1.11922 1.20438C1.12339 1.19681 1.12734 1.18928 1.13098 1.18187C1.13466 1.17438 1.13801 1.16707 1.14096 1.1597C1.14369 1.15294 1.14591 1.14623 1.14846 1.1389C1.14869 1.13823 1.14892 1.13756 1.14915 1.1369C1.15193 1.12887 1.15584 1.11975 1.16088 1.11127C1.17442 1.08881 1.18695 1.06692 1.19913 1.04463C1.21131 1.02233 1.22294 1.00008 1.2347 0.977648C1.2393 0.968888 1.24386 0.960086 1.24855 0.951282C1.25585 0.937585 1.26331 0.923839 1.27112 0.91005C1.28396 0.887364 1.29777 0.864629 1.31301 0.841747C1.32818 0.818953 1.3448 0.796012 1.36262 0.773173C1.38042 0.750353 1.39959 0.727335 1.41945 0.704617C1.4416 0.679306 1.46411 0.654141 1.48675 0.628863C1.50937 0.603627 1.5321 0.578376 1.55464 0.553236C1.57725 0.528005 1.59973 0.502838 1.62203 0.477664C1.64434 0.452473 1.66646 0.4273 1.68831 0.402109C1.70138 0.387032 1.71437 0.37196 1.72724 0.356881C1.73079 0.348903 1.73432 0.341254 1.73787 0.333896C1.76439 0.279529 1.78941 0.240218 1.83017 0.188357C1.83389 0.18339 1.83661 0.179349 1.84002 0.174432C1.84067 0.173494 1.84138 0.172499 1.84209 0.171484C1.84661 0.165059 1.85208 0.15768 1.8608 0.147415C1.87776 0.126937 1.90967 0.0955485 1.94998 0.0549876C1.96025 0.0447416 1.96839 0.0382217 1.96941 0.04043C1.97019 0.0419825 1.96812 0.0474244 1.96452 0.0540653C1.97293 0.041796 1.9811 0.0295597 1.98897 0.0173549C1.99213 0.0124834 1.99522 0.00790994 1.99725 0.00466001C1.99914 0.00164817 2.00001 1.01699e-07 2 0C2 0 2 0 2 0C2 7.95671e-09 1.99999 1.01371e-05 1.99998 3.05241e-05C1.99984 0.000311164 1.99881 0.00252213 1.99747 0.00617906C1.99612 0.00983471 1.99454 0.0146312 1.99273 0.019525C1.98788 0.0325075 1.98303 0.0454461 1.97819 0.0583874C1.97335 0.0713394 1.96856 0.0842303 1.96381 0.0971594C1.95907 0.110085 1.95439 0.123006 1.94978 0.135967C1.94519 0.148878 1.94067 0.161815 1.93625 0.174776C1.9318 0.187818 1.92755 0.200615 1.92332 0.21362C1.92079 0.221412 1.91825 0.229297 1.91582 0.237039C1.91491 0.239924 1.91405 0.242739 1.91317 0.245556C1.91245 0.247859 1.91173 0.250173 1.91099 0.252555C1.90327 0.277613 1.89588 0.302911 1.88898 0.327983C1.88204 0.353173 1.87552 0.378337 1.86941 0.403501C1.86331 0.428679 1.85766 0.453835 1.85239 0.479002C1.84713 0.504156 1.84229 0.529296 1.83789 0.554484C1.83353 0.579579 1.82954 0.604776 1.82612 0.629912C1.82348 0.649356 1.82124 0.668634 1.81937 0.687944C1.82172 0.695546 1.82399 0.703069 1.82623 0.710494C1.83275 0.732108 1.84369 0.753751 1.85572 0.775072C1.85382 0.737124 1.8478 0.70664 1.84332 0.677618C1.84271 0.673726 1.84212 0.669862 1.84158 0.666008C1.83598 0.626671 1.835 0.58867 1.84969 0.537557C1.89107 0.392188 1.91604 0.307898 1.9331 0.255376C1.95012 0.202863 1.96013 0.1803 1.97156 0.159242C1.98814 0.129486 1.99503 0.072056 1.9969 0.0431969C1.99788 0.0327135 1.99991 0.0242516 2.00146 0.0242992C2.00301 0.0243498 2.00607 0.0328924 2.00823 0.0433777C2.0141 0.0738505 2.02311 0.135995 2.01075 0.171412C2.00543 0.187186 2.00141 0.205326 1.99679 0.257039C1.99202 0.308758 1.98711 0.392271 1.97554 0.537919C1.97143 0.587192 1.97934 0.623762 1.99219 0.66268C1.99344 0.666497 1.99477 0.67034 1.9961 0.674218C1.9961 0.674242 1.9961 0.674266 1.9961 0.67429C2.00825 0.710039 2.02355 0.748965 2.03221 0.801456C2.0509 0.922443 2.0978 1.08519 2.12382 1.12382C2.12878 1.1314 2.13431 1.13873 2.14018 1.14646C2.16268 1.17613 2.19094 1.21196 2.21688 1.29269C2.22253 1.31035 2.22696 1.33103 2.23031 1.3536C2.2681 1.38746 2.30485 1.42034 2.32819 1.44893C2.34829 1.47361 2.38292 1.49636 2.42132 1.51841C2.43236 1.52476 2.44394 1.53115 2.45552 1.53753C2.48346 1.55291 2.51175 1.5683 2.53434 1.5833C2.55234 1.59525 2.57381 1.60777 2.5967 1.621C2.67974 1.6692 2.78395 1.72696 2.79847 1.80222C2.8135 1.88201 2.80512 1.95031 2.79408 2.00923C2.80941 1.96596 2.82859 1.93256 2.8454 1.90474C2.84857 1.89949 2.85164 1.89446 2.85458 1.88962C2.87531 1.85543 2.88945 1.83057 2.88365 1.80392C2.85527 1.67666 2.81698 1.62893 2.73661 1.57507C2.71537 1.56089 2.68801 1.54525 2.65892 1.52839C2.60069 1.49471 2.53596 1.45619 2.49605 1.41479C2.45877 1.37624 2.40758 1.33312 2.35615 1.28743C2.35614 1.28741 2.35614 1.28739 2.35614 1.28737C2.34608 1.27844 2.33601 1.26941 2.32601 1.2603C2.26488 1.20475 2.20754 1.14632 2.17162 1.08944C2.16777 1.08336 2.1626 1.07607 2.15674 1.06771C2.12157 1.01942 2.0712 0.934641 2.09095 0.831114C2.0949 0.808375 2.1049 0.784747 2.11489 0.757784C2.11793 0.749571 2.12103 0.741044 2.12391 0.732141C2.13642 0.693706 2.14605 0.647008 2.14236 0.584829C2.13935 0.533514 2.12792 0.470974 2.11422 0.406033C2.10746 0.374045 2.10011 0.341474 2.09258 0.309374C2.06992 0.212412 2.0458 0.123543 2.01319 0.0348421C2.01318 0.034824 2.01317 0.0348059 2.01317 0.0347879C2.00954 0.0243089 2.00733 0.0161006 2.00851 0.0164688C2.00968 0.0168408 2.01636 0.0256339 2.02312 0.036108C2.07875 0.124861 2.12453 0.213459 2.16928 0.310098C2.18394 0.341709 2.19848 0.374025 2.21219 0.405888C2.24025 0.471145 2.26495 0.534554 2.27823 0.586348C2.2945 0.649585 2.29341 0.697138 2.2877 0.736101C2.28634 0.745485 2.28473 0.754309 2.28309 0.762684C2.27787 0.78935 2.27217 0.811517 2.2721 0.833085C2.27014 0.933325 2.33066 1.0149 2.37272 1.06337C2.37997 1.07196 2.38636 1.07952 2.39135 1.08595C2.43446 1.14171 2.49834 1.19925 2.56612 1.25475C2.5771 1.26375 2.58812 1.27271 2.59919 1.2816C2.59923 1.28162 2.59928 1.28164 2.59932 1.28166C2.65614 1.32734 2.71304 1.37123 2.75518 1.41051C2.79785 1.45037 2.85983 1.48513 2.91911 1.51765C2.95089 1.5351 2.98172 1.55191 3.00803 1.5685C3.09818 1.62564 3.14184 1.67601 3.17855 1.80369ZM1.95135 0.0730354C1.93232 0.0982546 1.91683 0.118803 1.90691 0.134105C1.91665 0.121109 1.92621 0.108145 1.93557 0.0951701C1.9409 0.0877856 1.94616 0.0804097 1.95135 0.0730354ZM1.97514 1.35669C1.97102 1.3526 1.96688 1.34848 1.96275 1.34435C1.96455 1.35576 1.96624 1.36716 1.96798 1.37855C1.9701 1.39253 1.97214 1.40651 1.9742 1.42049C1.9753 1.39827 1.97575 1.37674 1.97514 1.35669ZM2.5035 1.8024C2.49437 1.73142 2.4029 1.67838 2.3243 1.63055C2.30158 1.61678 2.27984 1.60342 2.26105 1.59021C2.25326 1.58473 2.24473 1.57925 2.23574 1.57373C2.23382 1.60588 2.23117 1.63542 2.22881 1.65961C2.22176 1.73179 2.1987 1.77287 2.17797 1.80897C2.17197 1.81941 2.16618 1.82945 2.16098 1.83969C2.17122 1.84817 2.18144 1.85697 2.19049 1.86586C2.20327 1.87831 2.21567 1.89177 2.2263 1.90458C2.237 1.91743 2.24667 1.9305 2.25492 1.94333C2.26323 1.95627 2.27027 1.96909 2.27644 1.98185C2.28226 1.99386 2.28725 2.00582 2.29209 2.0174C2.29237 2.01807 2.29264 2.01873 2.29291 2.01939C2.29806 2.03163 2.30299 2.04354 2.3096 2.05447C2.31639 2.06561 2.32426 2.07487 2.33597 2.08308C2.35057 2.09334 2.36463 2.10387 2.37772 2.11428C2.39085 2.1247 2.40309 2.13507 2.41458 2.14542C2.42609 2.15579 2.43686 2.16605 2.44707 2.17634C2.45037 2.17967 2.45377 2.18315 2.45693 2.18645C2.45839 2.18797 2.45988 2.18949 2.46132 2.19101C2.46179 2.17087 2.46274 2.14997 2.46442 2.12837C2.46685 2.09715 2.47535 2.06383 2.48412 2.02708C2.49912 1.96437 2.51467 1.89168 2.5035 1.8024ZM2.49051 2.49619C2.48989 2.48744 2.48772 2.47462 2.48482 2.45809C2.48414 2.45418 2.48331 2.45006 2.48256 2.44574C2.48248 2.44584 2.48248 2.44594 2.4824 2.44605C2.47429 2.45675 2.4672 2.46664 2.46059 2.47731C2.44886 2.49634 2.4387 2.51482 2.42988 2.53348C2.42104 2.55222 2.41367 2.57091 2.40765 2.58961C2.40163 2.60835 2.39708 2.62714 2.39403 2.64577C2.39098 2.66457 2.3893 2.68311 2.38952 2.70183C2.38958 2.70779 2.38985 2.71377 2.39029 2.71975C2.39866 2.7064 2.4057 2.69254 2.4131 2.6779C2.41901 2.66621 2.42518 2.65401 2.43246 2.64119C2.43524 2.63628 2.43945 2.63034 2.44435 2.62341C2.46374 2.59595 2.49447 2.55286 2.49051 2.49619ZM2.4637 2.86905C2.46531 2.87339 2.46672 2.87771 2.46781 2.88198C2.47091 2.89413 2.47219 2.90597 2.47289 2.91758C2.47338 2.92574 2.47349 2.9338 2.47365 2.94174C2.47372 2.9451 2.47383 2.94845 2.47391 2.95176C2.47404 2.95732 2.47431 2.96283 2.47459 2.96831C2.48755 2.92991 2.49823 2.89237 2.50394 2.85324C2.50402 2.85273 2.50401 2.85221 2.50408 2.85169C2.49031 2.85761 2.47684 2.86339 2.4637 2.86905Z" fill="var(--stroke-0, #FF6B6B)"/>
</svg>
