<svg preserveAspectRatio="none" width="100%" height="100%" overflow="visible" style="display: block;" viewBox="0 0 35 35" fill="none" xmlns="http://www.w3.org/2000/svg">
<path id="Vector" d="M31.9354 18.0814C32.1133 17.5886 32.2952 17.1253 32.5094 16.591L32.7763 17.8232C32.6782 17.7205 32.5769 17.6143 32.4713 17.5034C32.471 17.5031 32.4708 17.5028 32.4705 17.5025C32.3942 17.4225 32.3158 17.34 32.2346 17.2547C31.581 16.5684 30.7299 15.6785 29.426 14.3572C27.9853 12.8971 26.8933 11.6861 26.2486 10.9245C26.1284 10.7825 25.9985 10.6409 25.6615 10.2932C25.4927 10.119 25.2776 9.89895 24.9923 9.60737C24.9041 9.51718 24.8092 9.42013 24.7068 9.31549C24.4764 9.07989 24.2082 8.80568 23.8947 8.4843C22.8566 7.42056 21.2092 5.77391 19.6949 4.25304C18.7756 3.33008 17.905 2.45349 17.2473 1.78409C17.1758 1.71137 17.1046 1.63878 17.0336 1.56629L17.881 1.74986C16.6924 2.18185 15.529 2.59345 14.2722 3.03731C13.0288 3.47636 11.6939 3.94711 10.1519 4.49869C8.96866 4.92174 7.80192 5.28692 6.61588 5.65708C6.46493 5.70417 6.31334 5.75147 6.16162 5.79883C6.04954 5.83382 5.9372 5.86892 5.82453 5.90418C5.63426 5.95895 5.45322 6.0667 5.30918 6.21911C5.16801 6.36784 5.06287 6.55929 5.01467 6.7713C4.9198 7.21585 4.8255 7.67099 4.73226 8.14076C4.31269 10.2576 4.0389 11.9569 3.72612 13.8369C3.60401 14.5722 3.47635 15.3354 3.33355 16.1622C3.10774 17.4699 2.77042 19.3478 2.43032 21.233C2.40135 21.3936 2.37236 21.5545 2.34341 21.7148C2.34326 21.7156 2.34312 21.7165 2.34297 21.7173C2.03136 23.443 1.72485 25.1366 1.50149 26.3794C1.14651 28.3542 1.01503 29.0976 0.904577 29.7175C0.863026 29.9505 0.824364 30.1662 0.777601 30.4232C0.609127 31.3488 0.347395 32.7449 0.0823665 34.1602C0.0813548 34.1656 0.080343 34.171 0.0793313 34.1764C0.0351159 34.4112 -0.000410022 34.6008 8.99927e-07 34.5997C0.00041821 34.5986 0.0340517 34.4069 0.0751404 34.1715C0.206931 33.4204 0.335653 32.6876 0.450492 32.0313C0.449686 31.9962 0.474442 31.8184 0.510499 31.6064C0.600485 31.0757 0.87503 29.4501 1.27206 26.9005C1.23965 27.0743 1.21224 27.2198 1.18811 27.3473C1.15979 27.4969 1.13795 27.6115 1.11926 27.7101C1.08032 27.9155 1.05475 28.0523 1.01308 28.2956C0.919422 28.8597 0.776658 29.7471 0.626695 30.6809C0.588635 30.9166 0.549354 31.1056 0.538917 31.1028C0.528495 31.0999 0.548486 30.9058 0.583624 30.6695C0.584312 30.6649 0.585002 30.6603 0.585691 30.6557C0.724304 29.7291 0.862121 28.8117 0.954058 28.2215C0.977447 28.0713 0.997901 27.942 1.01344 27.8449C1.02586 27.7674 1.04147 27.6705 1.05087 27.6168C1.05212 27.6097 1.05451 27.5961 1.05749 27.5799C1.05754 27.5796 1.0576 27.5794 1.05765 27.5791C1.05931 27.5701 1.06777 27.5238 1.07844 27.4748C1.0806 27.4649 1.08532 27.4434 1.09148 27.4185C1.09265 27.412 1.09383 27.4055 1.095 27.399C1.11137 27.3086 1.12815 27.2163 1.14614 27.1164C1.21651 26.7263 1.32529 26.108 1.54728 24.8197C1.75133 23.6347 2.08441 21.6295 2.4901 19.1259C2.45955 19.2945 2.42912 19.4635 2.39893 19.6325C2.32295 20.0576 2.24783 20.4849 2.17348 20.9124C2.145 21.0762 2.117 21.2378 2.08861 21.4025C2.0429 21.6676 1.99732 21.9335 1.95203 22.1994C1.92142 22.379 1.89087 22.559 1.86043 22.7389C1.86037 22.7393 1.86031 22.7397 1.86024 22.7401C1.81799 22.9897 1.7758 23.2399 1.7334 23.4922C1.7185 23.5804 1.70384 23.6677 1.68931 23.7543C1.63151 24.099 1.57496 24.4377 1.50798 24.8273C1.49957 24.8746 1.49023 24.926 1.48317 24.9644C1.47559 25.0056 1.46825 25.0452 1.46124 25.0827C1.45506 25.1157 1.44911 25.1473 1.44344 25.1775C1.44268 25.1815 1.44192 25.1856 1.44117 25.1896C1.43483 25.2234 1.42881 25.2558 1.42305 25.2869C1.4173 25.3179 1.41177 25.3478 1.40644 25.3773C1.4064 25.3775 1.40636 25.3778 1.40632 25.3781C1.40076 25.4089 1.39655 25.4322 1.39084 25.4649C1.38366 25.5059 1.37758 25.5411 1.37037 25.5839C1.36339 25.6252 1.35621 25.6683 1.34904 25.7119C1.34188 25.7555 1.33465 25.7999 1.32738 25.8449C1.32009 25.89 1.31273 25.9358 1.30535 25.982C1.29799 26.0282 1.29057 26.075 1.28311 26.122C1.27565 26.1691 1.26811 26.2167 1.26056 26.2645C1.24317 26.3745 1.2222 26.4793 1.20242 26.5555C1.18263 26.6317 1.16569 26.6732 1.15486 26.6708C1.14403 26.6685 1.14002 26.6225 1.14332 26.5428C1.14664 26.463 1.15704 26.356 1.17235 26.2456C1.17652 26.2155 1.1807 26.1853 1.18492 26.1549C1.18742 26.1369 1.18996 26.1187 1.19248 26.1006C1.19925 26.0519 1.20607 26.0027 1.21299 25.9532C1.21991 25.9038 1.22694 25.8539 1.23408 25.8035C1.24124 25.7529 1.24854 25.7016 1.25603 25.6496C1.26351 25.5978 1.27123 25.5448 1.27921 25.491C1.28698 25.4385 1.29601 25.3786 1.30427 25.3251C1.31029 25.286 1.31792 25.2379 1.32434 25.1977C1.33104 25.1558 1.33773 25.1146 1.34425 25.0749C1.35078 25.0351 1.35719 24.9966 1.3633 24.9598C1.36395 24.9559 1.3646 24.952 1.36525 24.9481C1.37066 24.9156 1.37589 24.8842 1.3808 24.8546C1.38629 24.8214 1.39143 24.7901 1.39626 24.7602C1.40159 24.7274 1.40471 24.7074 1.40852 24.6829C1.45711 24.3586 1.51494 23.9574 1.57013 23.5748C1.57707 23.5268 1.58398 23.4789 1.59081 23.4316C1.62703 23.1804 1.66314 22.9296 1.69924 22.679C1.72548 22.4969 1.75176 22.3145 1.77812 22.1319C1.81691 21.8633 1.85593 21.5939 1.89502 21.3247C1.91931 21.1576 1.94322 20.9935 1.96757 20.8267C2.03116 20.3914 2.0954 19.9547 2.1606 19.5175C2.22572 19.081 2.29211 18.6419 2.36004 18.2027C2.4277 17.7652 2.49962 17.311 2.5721 16.8729C2.62546 16.5508 2.68422 16.2213 2.74007 15.9167C2.77009 15.753 2.79979 15.5927 2.82927 15.4349C2.82938 15.4343 2.82949 15.4338 2.8296 15.4332C2.85547 15.2947 2.88111 15.1579 2.90646 15.022C2.96084 14.7308 3.01377 14.4447 3.06558 14.1584C3.11732 13.8725 3.16777 13.5877 3.21727 13.3005C3.26638 13.0155 3.31509 12.7255 3.36207 12.4382C3.4093 12.1494 3.45448 11.8657 3.50096 11.5674C3.56195 11.1751 3.62091 10.7854 3.68111 10.3851C3.74081 9.98783 3.80042 9.58723 3.86013 9.18556C3.88099 9.04516 3.90198 8.9045 3.9229 8.76366C3.92298 8.76312 3.92307 8.76257 3.92315 8.76203C3.96185 8.5015 4.00062 8.24032 4.03951 7.97894C4.09955 7.57541 4.15991 7.17079 4.2211 6.76475C4.22727 6.72383 4.23345 6.68287 4.23963 6.6419C4.29282 6.2959 4.43921 5.96219 4.66226 5.68648C4.73575 5.59542 4.81734 5.51061 4.90588 5.43341C5.08212 5.27963 5.28803 5.15486 5.51152 5.0697C5.73127 4.98552 5.95325 4.90126 6.17621 4.81791C6.53411 4.684 6.89531 4.55027 7.24856 4.41976C7.34184 4.3853 7.43512 4.35084 7.52841 4.3164C7.97103 4.15287 8.39928 3.99388 8.82145 3.83313C9.24335 3.67259 9.66367 3.50874 10.0868 3.34047C10.5086 3.17272 10.9347 3.00014 11.3635 2.82441C11.7943 2.64791 12.2188 2.4719 12.6515 2.29131C13.081 2.11204 13.512 1.93092 13.948 1.74684C14.1904 1.64454 14.4487 1.53688 14.6931 1.4359C14.9398 1.33392 15.1852 1.23333 15.4276 1.13438C15.526 1.09422 15.6239 1.05434 15.7212 1.0147C15.8629 0.956892 16.0035 0.899644 16.1418 0.843097C16.3751 0.747663 16.6026 0.654038 16.8232 0.561873C17.0042 0.486241 17.1804 0.411529 17.3514 0.337526L17.7859 0.179364L18.1001 0.499706C18.1302 0.526961 18.1602 0.553999 18.1901 0.580817C18.3626 0.735873 18.5064 0.862162 18.6803 1.01133C19.0979 1.38037 19.3498 1.61591 19.6298 1.87763C19.6849 1.92917 19.7413 1.98177 19.8001 2.03656C20.1352 2.35099 20.4677 2.66735 20.7943 2.98117C21.1239 3.29806 21.4469 3.61161 21.7724 3.93076C22.0947 4.24682 22.4178 4.56675 22.7382 4.8868C23.0581 5.20636 23.376 5.5268 23.6932 5.84954C24.0103 6.17204 24.3324 6.50271 24.6402 6.82155C24.8181 7.00581 25.0061 7.20252 25.1803 7.38572C25.306 7.51786 25.4296 7.64837 25.5507 7.77634C25.6002 7.8286 25.6494 7.88056 25.6981 7.93199C25.86 8.10286 26.0176 8.26895 26.1709 8.42883C26.1767 8.43491 26.1825 8.44097 26.1883 8.44703C26.3471 8.61254 26.5016 8.77185 26.6542 8.9263C26.8071 9.08103 26.9581 9.23094 27.1108 9.37944C27.269 9.53329 27.4016 9.65989 27.5728 9.82008C27.6843 9.92436 27.7937 10.0264 27.9027 10.1282C28.066 10.2806 28.2282 10.4317 28.3917 10.5838C28.555 10.7358 28.7165 10.8856 28.8789 11.036C28.9312 11.0844 28.9863 11.1354 29.0387 11.1839C29.2008 11.3336 29.3612 11.4813 29.5217 11.6286C29.682 11.7756 29.8412 11.9209 30.0001 12.0652C30.1597 12.21 30.317 12.352 30.4779 12.4964C30.7514 12.7418 31.0056 12.9842 31.2267 13.1981C31.4503 13.4146 31.6574 13.6187 31.8589 13.8176C31.8967 13.8548 31.9344 13.892 31.9721 13.9293C32.1346 14.0898 32.2942 14.2477 32.4518 14.4029C32.6461 14.5943 32.8373 14.7816 33.0297 14.969C33.2204 15.1548 33.4135 15.3419 33.6044 15.5254C33.7971 15.7106 33.9819 15.8872 34.1818 16.0767C34.2398 16.1317 34.2981 16.1867 34.3573 16.2423L34.8476 16.7422L34.6028 17.376C34.5398 17.5614 34.4759 17.7521 34.4077 17.9554C34.312 18.2404 34.2111 18.5393 34.107 18.8412C34.003 19.1428 33.8954 19.4485 33.7865 19.7512C33.6773 20.0545 33.5658 20.3581 33.454 20.6568C33.3416 20.957 33.2282 21.2549 33.1139 21.5506C32.9999 21.8458 32.8807 22.1501 32.768 22.4344C32.5854 22.8949 32.4025 23.3529 32.2188 23.8115C32.0361 24.2675 31.8522 24.7248 31.6684 25.1809C31.4848 25.6363 31.3007 26.092 31.1165 26.5468C30.9322 27.0019 30.7477 27.4568 30.5632 27.9109C30.5224 28.0113 30.4816 28.1118 30.4408 28.2122C30.2975 28.5649 30.1541 28.9174 30.0112 29.2686C30.0106 29.2703 30.0099 29.2718 30.0093 29.2733C30.0078 29.2772 30.0062 29.281 30.0046 29.2849C29.8398 29.6948 29.5694 30.0539 29.2305 30.3228C28.9719 30.5283 28.6739 30.6816 28.3575 30.7721C28.2514 30.8025 28.1451 30.8254 28.0386 30.8414C27.9338 30.856 27.8307 30.8704 27.7266 30.885C27.5542 30.9091 27.3851 30.933 27.2144 30.9572C27.0435 30.9815 26.8736 31.0058 26.7064 31.0299C26.5374 31.0544 26.3727 31.0784 26.2065 31.1032C26.0542 31.1258 25.903 31.1487 25.7378 31.1737C25.7227 31.1759 25.7077 31.1782 25.6926 31.1805C25.5119 31.2078 25.3062 31.2381 25.1147 31.2649C24.6076 31.3357 24.1136 31.4053 23.6107 31.4768C23.1075 31.5483 22.6055 31.6202 22.0993 31.6926C21.9017 31.7209 21.7031 31.7493 21.5044 31.7777C21.1954 31.8218 20.8852 31.8659 20.574 31.9099C20.062 31.9822 19.5487 32.0537 19.0319 32.1244C18.5171 32.1948 17.9988 32.2644 17.4825 32.3323C16.9667 32.4002 16.4462 32.4676 15.9323 32.5331C15.3598 32.606 14.7905 32.6781 14.2186 32.7504C13.6477 32.8226 13.0764 32.8948 12.5077 32.9667C11.9369 33.0389 11.3675 33.111 10.798 33.1833C10.2282 33.2557 9.65878 33.3282 9.08899 33.401C8.74798 33.4445 8.40708 33.4882 8.06605 33.532C7.88615 33.5584 7.71365 33.5835 7.5477 33.6076C6.32138 33.7851 5.43374 33.9076 4.2614 34.0617C4.14915 34.0766 4.05788 34.0891 3.94681 34.1041C3.92562 34.107 3.90314 34.11 3.88022 34.1131C3.73506 34.1327 3.56831 34.155 3.33616 34.1848C2.87311 34.2448 2.16239 34.3309 1.24412 34.4431C1.01214 34.4713 0.864264 34.4877 0.91373 34.4784C0.948494 34.4718 1.07115 34.4535 1.221 34.4322C0.943851 34.4698 0.667488 34.5076 0.39188 34.5456C0.281869 34.5607 0.178569 34.5748 0.105191 34.585C0.037185 34.5944 1.35784e-06 34.5997 0 34.5997C0 34.5997 0 34.5997 0 34.5997C1.79494e-07 34.5997 0.000228682 34.5997 0.000688556 34.5996C0.00702055 34.5987 0.0568821 34.5914 0.139295 34.579C0.221682 34.5667 0.329745 34.5503 0.440037 34.5337C0.732627 34.4899 1.02423 34.4462 1.31589 34.4025C1.6078 34.3588 1.89832 34.3152 2.18969 34.2715C2.48098 34.2277 2.77216 34.1839 3.06424 34.1399C3.35518 34.0961 3.6467 34.0521 3.93872 34.0079C4.23259 33.9635 4.5209 33.9197 4.8139 33.8752C4.98945 33.8485 5.1671 33.8214 5.34149 33.7949C5.40649 33.7849 5.46991 33.7752 5.53336 33.7656C5.58523 33.7576 5.63736 33.7497 5.69102 33.7415C6.2555 33.6553 6.82531 33.5678 7.38995 33.4807C7.95726 33.3932 8.52393 33.3053 9.09051 33.2171C9.65741 33.1288 10.2237 33.0402 10.7903 32.9511C11.3565 32.8621 11.9223 32.7727 12.4892 32.6827C13.0539 32.593 13.6209 32.5025 14.1864 32.4117C14.6239 32.3415 15.0575 32.2715 15.4918 32.201C15.6623 32.1702 15.831 32.1398 15.9975 32.1098C16.4823 32.0224 16.9669 31.9305 17.4441 31.8388C16.5915 31.9828 15.9074 32.103 15.2558 32.2161C15.1685 32.2313 15.0817 32.2463 14.9952 32.2613C14.1119 32.4142 13.258 32.5575 12.1068 32.7344C8.83269 33.2381 6.93409 33.5292 5.75079 33.7091C4.56772 33.889 4.05894 33.9637 3.58377 34.0313C2.91226 34.1264 1.62034 34.3347 0.971399 34.441C0.735614 34.4793 0.545092 34.5089 0.545905 34.5072C0.546787 34.5055 0.738289 34.4705 0.973599 34.4291C1.65754 34.3092 3.05281 34.0675 3.85087 33.947C4.20629 33.8932 4.61465 33.8292 5.77772 33.6401C6.94092 33.451 8.81875 33.1431 12.0942 32.6089C13.2024 32.4284 14.023 32.2836 14.8956 32.1252C14.9812 32.1097 15.0673 32.094 15.1543 32.0781C15.1548 32.078 15.1554 32.0779 15.1559 32.0778C15.9574 31.932 16.8298 31.7711 18.0081 31.5659C20.7243 31.0943 24.3745 30.4384 25.2385 30.2681C25.4081 30.2348 25.5719 30.2019 25.7447 30.1671C26.2454 30.0664 26.8245 29.9494 27.8573 29.7569C28.0728 29.7161 28.3038 29.6195 28.5081 29.4453C28.581 29.3831 28.6501 29.3112 28.7123 29.2294C28.7933 29.1231 28.8643 28.998 28.9151 28.8575C29.0099 28.5962 29.113 28.3142 29.2223 28.0171C29.4578 27.2813 29.6865 26.5669 29.8934 25.9487C30.072 25.4152 30.2216 24.9175 30.3621 24.4336C30.4025 24.2943 30.4428 24.154 30.483 24.0138C30.5799 23.6758 30.6765 23.3375 30.7754 23.0096C30.8541 22.7482 30.9342 22.4736 31.0186 22.1833C31.3265 21.1258 31.691 19.857 32.2796 18.2461C32.4748 17.7121 32.6632 17.2028 32.8447 16.7167L33.0295 17.57C32.2221 16.765 31.5028 16.0367 30.8558 15.379C31.542 16.0869 32.0666 16.6386 32.503 17.0988C32.5853 17.1856 32.6642 17.2688 32.7401 17.3488C32.8265 17.44 32.9091 17.527 32.9887 17.6108L32.7907 16.6965C32.5651 17.2545 32.3877 17.7014 32.2134 18.1799C31.2218 20.9051 30.8758 21.9369 30.5201 23.1142C30.4266 23.4241 30.327 23.7675 30.2194 24.1372C30.0045 24.8763 29.7569 25.721 29.463 26.6182C29.2438 27.2879 29.0095 28.0233 28.7617 28.8C28.7175 28.9467 28.6437 29.0889 28.5425 29.2143C28.5423 29.2145 28.5421 29.2148 28.5419 29.215C28.5057 29.2598 28.4661 29.3024 28.4233 29.3424C28.3483 29.4125 28.2636 29.4742 28.1712 29.525C28.0686 29.5814 27.9567 29.6243 27.8394 29.651C26.7324 29.8893 25.583 30.13 24.458 30.3497C24.3219 30.3763 24.1589 30.4086 23.9719 30.4458C22.8923 30.6613 20.9952 31.0286 18.6651 31.3969C18.1533 31.4781 17.6206 31.5568 17.013 31.6479C16.8279 31.6757 16.6357 31.7046 16.4351 31.7351C15.5692 31.8667 14.5181 32.0321 13.1211 32.2687C11.9683 32.4638 10.5645 32.7094 9.10717 32.9661C8.38932 33.0926 7.65847 33.2219 6.93824 33.3495C4.76266 33.7351 2.76921 34.0918 0.780939 34.4562C0.780534 34.4563 0.780128 34.4563 0.779723 34.4564C0.544796 34.4992 0.360671 34.5322 0.368753 34.5296C0.376922 34.5271 0.573456 34.4875 0.807758 34.4416C2.79342 34.0543 4.77721 33.6773 6.94189 33.2712C7.64998 33.1383 8.37392 33.0029 9.08782 32.87C10.5499 32.5979 11.971 32.3361 13.133 32.129C14.5516 31.876 15.6206 31.699 16.4972 31.5587C16.7084 31.5249 16.9069 31.4934 17.0955 31.4637C17.6956 31.3689 18.1948 31.2915 18.6796 31.2108C20.9329 30.8373 22.7563 30.472 23.8388 30.249C24.0308 30.2096 24.1996 30.175 24.3434 30.146C25.4861 29.9155 26.6594 29.6622 27.7994 29.4099C27.8666 29.393 27.9317 29.3694 27.9932 29.34C28.0952 29.2913 28.1872 29.2264 28.265 29.1501C28.2787 29.1367 28.292 29.1229 28.3048 29.1088C28.305 29.1086 28.3052 29.1084 28.3053 29.1082C28.4113 28.9916 28.4855 28.8533 28.5243 28.7108C28.7557 27.9729 28.9776 27.2658 29.1861 26.6186C29.4651 25.7532 29.6852 24.9897 29.8899 24.2751C29.9997 23.8916 30.1053 23.5222 30.2135 23.1589C30.5862 21.9083 30.9483 20.8182 31.9354 18.0814ZM1.64953 34.3741C2.21949 34.2984 2.68386 34.2367 3.02943 34.1892C2.73574 34.2283 2.44277 34.2674 2.14962 34.3068C1.98277 34.3292 1.81613 34.3516 1.64953 34.3741ZM29.4859 28.0407C29.4571 28.1293 29.428 28.2186 29.3989 28.3082C29.4884 28.0643 29.5781 27.8203 29.6676 27.5768C29.7774 27.2777 29.8874 26.9787 29.9972 26.6799C29.8184 27.1535 29.6458 27.6128 29.4859 28.0407ZM32.5572 18.3458C31.9979 19.8634 31.6592 21.0272 31.3501 22.0752C31.2611 22.3771 31.1746 22.6697 31.0865 22.9582C31.05 23.0779 31.0141 23.1977 30.9784 23.3186C31.2374 22.6334 31.4763 22.004 31.672 21.4887C32.2561 19.9513 32.6063 19.083 32.9145 18.3201C33.0037 18.0994 33.0894 17.8872 33.1763 17.6705C33.2345 17.4861 33.2953 17.2948 33.358 17.1019C33.3763 17.0455 33.395 16.9881 33.4139 16.9302L33.4594 17.1402C33.2892 16.984 33.1126 16.8209 32.9434 16.6636C32.7287 16.464 32.5114 16.2604 32.2988 16.0595C32.0844 15.8569 31.8729 15.6553 31.663 15.4541C31.4654 15.2647 31.269 15.0754 31.0791 14.8923C31.0682 14.8818 31.0573 14.8713 31.0464 14.8608C30.8456 14.6673 30.6503 14.4789 30.4694 14.3074C30.2851 14.1327 30.1304 13.9892 29.9898 13.8651C29.8141 13.7101 29.6346 13.5504 29.4576 13.392C29.2805 13.2334 29.1046 13.0749 28.9298 12.9163C28.7547 12.7574 28.5817 12.5996 28.4086 12.441C28.3527 12.3898 28.2942 12.3361 28.2388 12.2851C28.2132 12.2617 28.1877 12.2382 28.1622 12.2148C28.4863 12.5395 28.8224 12.877 29.1694 13.2263C29.6705 13.7309 30.2014 14.2738 30.7874 14.8722C31.5066 15.6066 32.3089 16.4247 33.2411 17.3585L33.1248 16.8218C32.9437 17.3034 32.7547 17.8103 32.5572 18.3458ZM23.2245 7.3183C23.3659 7.45889 23.574 7.66388 23.8424 7.9282C23.9059 7.99068 23.9729 8.05655 24.043 8.1256C24.0414 8.12391 24.0397 8.12222 24.0382 8.12054C23.8714 7.94227 23.7171 7.77796 23.5498 7.60134C23.2516 7.28655 22.961 6.98161 22.6665 6.67463C22.3709 6.36647 22.075 6.06018 21.7778 5.7545C21.4802 5.44838 21.1807 5.1424 20.8828 4.84017C20.5819 4.53501 20.2844 4.23513 19.9827 3.93373C19.8866 3.83773 19.7901 3.74155 19.6934 3.64554C19.9026 3.86652 20.1209 4.09479 20.3515 4.33589C20.5357 4.52844 20.7278 4.72929 20.9293 4.94106C21.0064 5.02209 21.0991 5.12077 21.2073 5.23588C21.6361 5.69206 22.3086 6.40808 23.2245 7.3183ZM17.715 1.45204C17.6229 1.4883 17.5313 1.52417 17.4406 1.55934C17.1824 1.65947 16.9302 1.75542 16.6827 1.84898C16.5089 1.91468 16.3369 1.97928 16.1675 2.04299C16.096 2.06988 16.0246 2.09677 15.9538 2.12339C15.8353 2.16797 15.7178 2.21234 15.6011 2.2564C16.3293 1.99557 17.0425 1.73844 17.776 1.46981L17.245 1.35479C17.3171 1.42794 17.3894 1.50133 17.4622 1.57501C17.4704 1.58338 17.4788 1.59173 17.4871 1.60017C17.4127 1.50882 17.3398 1.4193 17.2683 1.33156L17.7645 1.43904C17.7479 1.44338 17.7314 1.44772 17.715 1.45204Z" fill="var(--stroke-0, #A98BFF)"/>
</svg>
