<svg preserveAspectRatio="none" width="100%" height="100%" overflow="visible" style="display: block;" viewBox="0 0 4 8" fill="none" xmlns="http://www.w3.org/2000/svg">
<path id="Vector" d="M3.17855 2.70553C3.18661 2.74853 3.17283 2.78884 3.15394 2.83975C3.15394 2.83978 3.15394 2.8398 3.15395 2.83983C3.15125 2.8471 3.14838 2.8546 3.14552 2.86234C3.1224 2.92472 3.09493 3.00576 3.08257 3.12796C3.06892 3.26299 2.98473 3.37019 2.90211 3.43565C2.88669 3.44786 2.87834 3.4605 2.87081 3.49237C2.86703 3.50834 2.86354 3.52859 2.85906 3.55544C2.85767 3.56375 2.85618 3.57268 2.85456 3.58232C2.8509 3.60401 2.8466 3.62926 2.84108 3.65882C2.82295 3.75665 2.82344 3.90999 2.81883 4.05127C2.81621 4.13703 2.812 4.21836 2.80375 4.28013C2.79167 4.37048 2.76693 4.45766 2.73919 4.55242C2.7137 4.63921 2.68574 4.73238 2.66077 4.84018C2.64143 4.92289 2.57369 5.00324 2.50384 5.08491C2.49493 5.0953 2.48599 5.10574 2.47706 5.11618C2.41537 5.18824 2.35554 5.26191 2.31836 5.34157C2.25248 5.48357 2.26177 5.59688 2.26228 5.72234C2.26271 5.77141 2.26224 5.82234 2.25731 5.87758C2.24954 5.96494 2.2255 6.09052 2.19995 6.21663C2.19777 6.22737 2.19562 6.23812 2.19342 6.24885C2.19341 6.24891 2.1934 6.24896 2.19339 6.24901C2.1697 6.36445 2.14577 6.47774 2.12975 6.56085C2.10424 6.69293 2.09675 6.74263 2.0897 6.78407C2.08702 6.79965 2.08434 6.81408 2.08046 6.83127C2.06644 6.8932 2.03777 6.98669 2.00899 7.08145C2.00888 7.08182 2.00877 7.08218 2.00866 7.08254C2.00365 7.09827 1.99977 7.11096 2 7.11089C2.00023 7.11081 2.00189 7.098 2.00373 7.08227C2.01026 7.03207 2.01675 6.98309 2.02215 6.93923C2.01558 6.93696 2.01078 6.92515 2.0115 6.91099C2.01302 6.87556 2.0166 6.76703 1.9891 6.59717C1.9857 6.60881 1.98259 6.61856 1.97974 6.62709C1.97641 6.63712 1.9737 6.6448 1.97147 6.6514C1.96683 6.66516 1.96409 6.67432 1.96299 6.69057C1.96334 6.72821 1.96838 6.78738 1.97396 6.84964C1.97518 6.86536 1.96749 6.87805 1.95674 6.87798C1.94598 6.87791 1.93379 6.86509 1.92961 6.84936C1.92953 6.84906 1.92945 6.84875 1.92937 6.84844C1.91379 6.78678 1.89892 6.72572 1.89258 6.68639C1.89096 6.67639 1.88988 6.66777 1.88926 6.6613C1.88875 6.65613 1.88824 6.64967 1.88868 6.64608C1.88874 6.64561 1.88887 6.6447 1.88914 6.64361C1.88915 6.6436 1.88916 6.64358 1.88917 6.64356C1.88932 6.64295 1.89006 6.63986 1.89253 6.63656C1.89302 6.6359 1.89415 6.63445 1.89613 6.63276C1.89622 6.63233 1.89631 6.6319 1.8964 6.63146C1.89768 6.62541 1.89906 6.61924 1.90038 6.61256C1.90568 6.58646 1.91133 6.54514 1.91851 6.45908C1.92499 6.37992 1.92392 6.24611 1.91252 6.07915C1.91011 6.09043 1.90788 6.10174 1.90587 6.11303C1.90081 6.14146 1.89695 6.17002 1.89389 6.19859C1.89273 6.20953 1.89167 6.22033 1.89074 6.23133C1.88924 6.24904 1.88799 6.2668 1.88701 6.28455C1.88635 6.29655 1.88581 6.30857 1.88535 6.32057C1.88535 6.3206 1.88536 6.32063 1.88536 6.32065C1.88472 6.33732 1.88424 6.35403 1.88388 6.37086C1.8837 6.37676 1.88357 6.38258 1.88347 6.38836C1.88313 6.41137 1.88303 6.43398 1.88101 6.46C1.88049 6.46316 1.87973 6.4666 1.87906 6.46917C1.87836 6.47193 1.87764 6.47458 1.87689 6.47709C1.87622 6.4793 1.87553 6.48141 1.87491 6.48344C1.87483 6.48371 1.87474 6.48398 1.87466 6.48425C1.87397 6.48651 1.87335 6.48868 1.87278 6.49076C1.87221 6.49284 1.87167 6.49484 1.87125 6.49681C1.87126 6.49683 1.87126 6.49684 1.87126 6.49686C1.87085 6.49892 1.87054 6.50049 1.87027 6.50267C1.86993 6.50541 1.86973 6.50776 1.86964 6.51062C1.86954 6.51338 1.86955 6.51625 1.86965 6.51916C1.86974 6.52207 1.86991 6.52503 1.87014 6.52803C1.87037 6.53104 1.87064 6.53409 1.87096 6.53717C1.87128 6.54025 1.87165 6.54337 1.87203 6.5465C1.87241 6.54964 1.8728 6.55281 1.87321 6.556C1.87414 6.56333 1.87069 6.57037 1.86371 6.57553C1.85671 6.58069 1.84681 6.58356 1.83574 6.58353C1.82467 6.58349 1.81315 6.58055 1.8033 6.57534C1.79347 6.57013 1.78614 6.56306 1.78309 6.55573C1.78226 6.55373 1.78141 6.55172 1.78058 6.5497C1.78009 6.54851 1.77961 6.5473 1.77911 6.5461C1.77779 6.54286 1.77643 6.53959 1.77512 6.5363C1.77382 6.53302 1.77255 6.5297 1.7713 6.52635C1.77005 6.52299 1.76881 6.51958 1.76766 6.51612C1.76651 6.51267 1.76542 6.50915 1.76445 6.50557C1.76348 6.50208 1.76256 6.49809 1.76191 6.49453C1.76142 6.49193 1.76103 6.48872 1.76076 6.48604C1.76047 6.48325 1.7603 6.4805 1.7602 6.47785C1.7601 6.47519 1.76009 6.47262 1.76008 6.47017C1.76008 6.46991 1.76007 6.46965 1.76007 6.46938C1.76006 6.46722 1.76007 6.46512 1.76004 6.46315C1.76001 6.46093 1.75992 6.45884 1.75978 6.45685C1.75964 6.45466 1.75943 6.45333 1.75916 6.4517C1.75378 6.43012 1.74487 6.40344 1.73642 6.378C1.73536 6.3748 1.73432 6.37162 1.73328 6.36848C1.7277 6.35177 1.72209 6.33509 1.71651 6.31843C1.71245 6.30632 1.70839 6.29419 1.70439 6.28205C1.69849 6.26419 1.69268 6.24627 1.687 6.22837C1.68348 6.21725 1.68009 6.20634 1.67671 6.19525C1.66786 6.16629 1.65943 6.13724 1.65189 6.10815C1.64437 6.0791 1.63767 6.04987 1.63247 6.02061C1.6273 5.99147 1.62357 5.9612 1.62305 5.93197C1.62273 5.91048 1.62653 5.88844 1.63154 5.86806C1.63424 5.8571 1.6372 5.84638 1.64032 5.83581C1.64034 5.83577 1.64036 5.83573 1.64038 5.8357C1.64312 5.82642 1.64593 5.81726 1.6486 5.80816C1.65437 5.78866 1.65953 5.76951 1.66357 5.75036C1.66762 5.73124 1.67056 5.7122 1.67218 5.69301C1.67378 5.67398 1.67415 5.65462 1.67326 5.63545C1.67238 5.61619 1.67031 5.59728 1.66711 5.5774C1.66279 5.55127 1.65687 5.52532 1.65046 5.49868C1.64404 5.47224 1.63698 5.44558 1.62985 5.41885C1.62735 5.40951 1.62493 5.40015 1.62241 5.39078C1.6224 5.39074 1.6224 5.39071 1.62239 5.39067C1.61773 5.37333 1.61304 5.35595 1.60843 5.33856C1.60133 5.31171 1.59435 5.28478 1.58796 5.25775C1.58158 5.23073 1.57573 5.20354 1.57118 5.17621C1.5667 5.14888 1.56328 5.12081 1.56372 5.09261C1.564 5.06745 1.56561 5.0421 1.56745 5.01731C1.56793 5.01076 1.56842 5.00421 1.56892 4.99767C1.57123 4.96661 1.57273 4.93653 1.57044 4.9068C1.56826 4.87708 1.56243 4.84739 1.55343 4.81742C1.54446 4.78754 1.53249 4.75729 1.51853 4.72679C1.50452 4.69616 1.48877 4.66592 1.47162 4.63508C1.45455 4.60446 1.43632 4.57371 1.41705 4.54258C1.40637 4.52527 1.39628 4.50686 1.38751 4.48946C1.37867 4.4719 1.37064 4.45445 1.3631 4.43722C1.36004 4.43023 1.35709 4.42327 1.35411 4.41636C1.34977 4.40629 1.34552 4.3963 1.34112 4.38647C1.33371 4.36988 1.32592 4.35369 1.31706 4.33797C1.30821 4.32225 1.29818 4.307 1.28625 4.29226C1.27385 4.27701 1.26149 4.26444 1.24403 4.2494C1.20968 4.21278 1.19809 4.19009 1.18519 4.16488C1.18265 4.15991 1.17997 4.15484 1.17714 4.14955C1.16254 4.11932 1.15111 4.08911 1.1421 4.0593C1.13305 4.02921 1.12644 3.99958 1.12194 3.96957C1.11748 3.93985 1.11526 3.90992 1.11502 3.88011C1.11478 3.85034 1.11658 3.82063 1.12045 3.79084C1.12431 3.76107 1.1304 3.73068 1.13818 3.70151C1.14266 3.68465 1.14879 3.66674 1.15518 3.65011C1.15977 3.63811 1.16464 3.62628 1.16946 3.61468C1.17142 3.60995 1.17339 3.60524 1.17531 3.60058C1.18169 3.58509 1.18768 3.57002 1.19235 3.55544C1.19253 3.55489 1.1927 3.55434 1.19288 3.55378C1.19764 3.53869 1.20102 3.52408 1.20232 3.50979C1.20363 3.49547 1.20284 3.48146 1.19993 3.46744C1.19681 3.45291 1.19259 3.44085 1.18481 3.42542C1.17968 3.41538 1.17452 3.40553 1.16938 3.39572C1.16168 3.38103 1.15386 3.36644 1.14579 3.35175C1.13773 3.33708 1.12953 3.32259 1.12101 3.30802C1.11827 3.30334 1.11539 3.2984 1.11257 3.2937C1.10386 3.27919 1.09493 3.26485 1.08551 3.25052C1.07612 3.23621 1.06633 3.22204 1.05595 3.20793C1.04554 3.19376 1.03472 3.17982 1.02303 3.16561C1.00309 3.14146 0.994803 3.11834 0.989685 3.0981C0.984663 3.07761 0.982579 3.05846 0.980699 3.03983C0.980348 3.03634 0.98 3.03285 0.979657 3.02936C0.978254 3.01433 0.977046 2.99954 0.975347 2.98498C0.973271 2.96703 0.970527 2.94941 0.967031 2.93173C0.963583 2.91421 0.959348 2.89651 0.954124 2.87908C0.948833 2.86149 0.94297 2.84467 0.935612 2.82654C0.928414 2.80861 0.918496 2.7904 0.907949 2.77044C0.897474 2.75067 0.886987 2.72991 0.878493 2.70889C0.869951 2.6879 0.863314 2.66657 0.859039 2.64539C0.854725 2.62417 0.852592 2.60288 0.852383 2.58189C0.852159 2.56078 0.853851 2.5398 0.856984 2.51893C0.860101 2.49811 0.864856 2.47659 0.870581 2.45646C0.879847 2.42386 0.890253 2.3914 0.901231 2.35889C0.912183 2.32655 0.923786 2.29412 0.935798 2.26175C0.947797 2.22944 0.960193 2.1971 0.972941 2.1648C0.985694 2.13249 0.998754 2.10019 1.01202 2.06794C1.01495 2.0608 1.0179 2.05367 1.02085 2.04653C1.03124 2.02141 1.04175 1.9963 1.05225 1.97129C1.05234 1.97111 1.05244 1.97094 1.05253 1.97077C1.066 1.93858 1.07935 1.90697 1.09243 1.87504C1.0972 1.86332 1.10178 1.85206 1.10628 1.84062C1.11077 1.82916 1.11506 1.81792 1.11922 1.80658C1.12339 1.79522 1.12734 1.78392 1.13098 1.77281C1.13466 1.76156 1.13801 1.75061 1.14096 1.73955C1.14369 1.72941 1.14591 1.71935 1.14846 1.70835C1.14869 1.70735 1.14892 1.70635 1.14915 1.70534C1.15193 1.69331 1.15584 1.67963 1.16088 1.66691C1.17442 1.63321 1.18695 1.60038 1.19913 1.56695C1.21131 1.5335 1.22294 1.50013 1.2347 1.46647C1.2393 1.45333 1.24386 1.44013 1.24855 1.42692C1.25585 1.40638 1.26331 1.38576 1.27112 1.36508C1.28396 1.33105 1.29777 1.29694 1.31301 1.26262C1.32818 1.22843 1.3448 1.19402 1.36262 1.15976C1.38042 1.12553 1.39959 1.091 1.41945 1.05693C1.4416 1.01896 1.46411 0.981212 1.48675 0.943295C1.50937 0.90544 1.5321 0.867563 1.55464 0.829854C1.57725 0.792008 1.59973 0.754258 1.62203 0.716495C1.64434 0.67871 1.66646 0.64095 1.68831 0.603163C1.70138 0.580548 1.71437 0.55794 1.72724 0.535321C1.73079 0.523354 1.73432 0.511881 1.73787 0.500844C1.76439 0.419293 1.78941 0.360327 1.83017 0.282535C1.83389 0.275085 1.83661 0.269023 1.84002 0.261648C1.84067 0.260241 1.84138 0.258748 1.84209 0.257227C1.84661 0.247588 1.85208 0.23652 1.8608 0.221122C1.87776 0.190405 1.90967 0.143323 1.94998 0.0824814C1.96025 0.0671123 1.96839 0.0573326 1.96941 0.0606451C1.97019 0.0629738 1.96812 0.0711366 1.96452 0.081098C1.97293 0.062694 1.9811 0.0443396 1.98897 0.0260324C1.99213 0.0187251 1.99522 0.0118649 1.99725 0.00699002C1.99914 0.00247226 2.00001 1.5218e-07 2 0C2 0 2 0 2 0C2 1.19351e-08 1.99999 1.52056e-05 1.99998 4.57861e-05C1.99984 0.000466746 1.99881 0.00378319 1.99747 0.00926859C1.99612 0.0147521 1.99454 0.0219468 1.99273 0.0292875C1.98788 0.0487613 1.98303 0.0681692 1.97819 0.0875811C1.97335 0.107009 1.96856 0.126345 1.96381 0.145739C1.95907 0.165127 1.95439 0.184509 1.94978 0.203951C1.94519 0.223318 1.94067 0.242723 1.93625 0.262163C1.9318 0.281727 1.92755 0.300922 1.92332 0.32043C1.92079 0.332118 1.91825 0.343946 1.91582 0.355558C1.91491 0.359886 1.91405 0.364109 1.91317 0.368334C1.91245 0.371788 1.91173 0.375259 1.91099 0.378832C1.90327 0.416419 1.89588 0.454367 1.88898 0.491974C1.88204 0.529759 1.87552 0.567506 1.86941 0.605252C1.86331 0.643018 1.85766 0.680752 1.85239 0.718503C1.84713 0.756235 1.84229 0.793944 1.83789 0.831726C1.83353 0.869368 1.82954 0.907164 1.82612 0.944868C1.82348 0.974033 1.82124 1.00295 1.81937 1.03192C1.82172 1.04332 1.82399 1.0546 1.82623 1.06574C1.83275 1.09816 1.84369 1.13063 1.85572 1.16261C1.85382 1.10569 1.8478 1.05996 1.84332 1.01643C1.84271 1.01059 1.84212 1.00479 1.84158 0.999012C1.83598 0.940007 1.835 0.883005 1.84969 0.806336C1.89107 0.588283 1.91604 0.461847 1.9331 0.383064C1.95012 0.304294 1.96013 0.270449 1.97156 0.238862C1.98814 0.194229 1.99503 0.108084 1.9969 0.0647953C1.99788 0.0490702 1.99991 0.0363774 2.00146 0.0364488C2.00301 0.0365247 2.00607 0.0493387 2.00823 0.0650666C2.0141 0.110776 2.02311 0.203993 2.01075 0.257118C2.00543 0.28078 2.00141 0.307989 1.99679 0.385559C1.99202 0.463137 1.98711 0.588406 1.97554 0.806879C1.97143 0.880789 1.97934 0.935643 1.99219 0.99402C1.99344 0.999745 1.99477 1.00551 1.9961 1.01133C1.9961 1.01136 1.9961 1.0114 1.9961 1.01144C2.00825 1.06506 2.02355 1.12345 2.03221 1.20218C2.0509 1.38366 2.0978 1.62778 2.12382 1.68573C2.12878 1.6971 2.13431 1.7081 2.14018 1.71969C2.16268 1.7642 2.19094 1.81794 2.21688 1.93903C2.22253 1.96552 2.22696 1.99654 2.23031 2.03039C2.2681 2.08119 2.30485 2.13051 2.32819 2.1734C2.34829 2.21041 2.38292 2.24455 2.42132 2.27762C2.43236 2.28714 2.44394 2.29672 2.45552 2.30629C2.48346 2.32937 2.51175 2.35245 2.53434 2.37495C2.55234 2.39288 2.57381 2.41166 2.5967 2.4315C2.67974 2.5038 2.78395 2.59044 2.79847 2.70333C2.8135 2.82301 2.80512 2.92547 2.79408 3.01384C2.80941 2.94894 2.82859 2.89884 2.8454 2.85711C2.84857 2.84924 2.85164 2.84169 2.85458 2.83443C2.87531 2.78314 2.88945 2.74585 2.88365 2.70588C2.85527 2.51499 2.81698 2.44339 2.73661 2.3626C2.71537 2.34133 2.68801 2.31787 2.65892 2.29259C2.60069 2.24207 2.53596 2.18428 2.49605 2.12219C2.45877 2.06435 2.40758 1.99967 2.35615 1.93114C2.35614 1.93111 2.35614 1.93109 2.35614 1.93106C2.34608 1.91767 2.33601 1.90412 2.32601 1.89045C2.26488 1.80712 2.20754 1.71948 2.17162 1.63416C2.16777 1.62504 2.1626 1.61411 2.15674 1.60156C2.12157 1.52913 2.0712 1.40196 2.09095 1.24667C2.0949 1.21256 2.1049 1.17712 2.11489 1.13668C2.11793 1.12436 2.12103 1.11157 2.12391 1.09821C2.13642 1.04056 2.14605 0.970512 2.14236 0.877243C2.13935 0.80027 2.12792 0.706461 2.11422 0.60905C2.10746 0.561067 2.10011 0.512211 2.09258 0.464062C2.06992 0.318619 2.0458 0.185314 2.01319 0.0522632C2.01318 0.052236 2.01317 0.0522089 2.01317 0.0521818C2.00954 0.0364634 2.00733 0.024151 2.00851 0.0247032C2.00968 0.0252613 2.01636 0.0384508 2.02312 0.054162C2.07875 0.187292 2.12453 0.320188 2.16928 0.465147C2.18394 0.512564 2.19848 0.561038 2.21219 0.608833C2.24025 0.706717 2.26495 0.801832 2.27823 0.879522C2.2945 0.974378 2.29341 1.04571 2.2877 1.10415C2.28634 1.11823 2.28473 1.13146 2.28309 1.14403C2.27787 1.18402 2.27217 1.21728 2.2721 1.24963C2.27014 1.39999 2.33066 1.52234 2.37272 1.59505C2.37997 1.60794 2.38636 1.61928 2.39135 1.62893C2.43446 1.71257 2.49834 1.79887 2.56612 1.88212C2.5771 1.89563 2.58812 1.90907 2.59919 1.9224C2.59923 1.92243 2.59928 1.92246 2.59932 1.92249C2.65614 1.991 2.71304 2.05685 2.75518 2.11576C2.79785 2.17555 2.85983 2.2277 2.91911 2.27648C2.95089 2.30265 2.98172 2.32786 3.00803 2.35276C3.09818 2.43846 3.14184 2.51402 3.17855 2.70553ZM1.95135 0.109553C1.93232 0.147382 1.91683 0.178204 1.90691 0.201157C1.91665 0.181664 1.92621 0.162217 1.93557 0.142755C1.9409 0.131678 1.94616 0.120615 1.95135 0.109553ZM1.97514 2.03503C1.97102 2.0289 1.96688 2.02273 1.96275 2.01653C1.96455 2.03364 1.96624 2.05075 1.96798 2.06783C1.9701 2.0888 1.97214 2.10977 1.9742 2.13073C1.9753 2.0974 1.97575 2.06511 1.97514 2.03503ZM2.5035 2.7036C2.49437 2.59713 2.4029 2.51757 2.3243 2.44583C2.30158 2.42517 2.27984 2.40513 2.26105 2.38531C2.25326 2.37709 2.24473 2.36888 2.23574 2.3606C2.23382 2.40881 2.23117 2.45314 2.22881 2.48942C2.22176 2.59768 2.1987 2.6593 2.17797 2.71345C2.17197 2.72912 2.16618 2.74417 2.16098 2.75954C2.17122 2.77225 2.18144 2.78545 2.19049 2.79879C2.20327 2.81746 2.21567 2.83765 2.2263 2.85686C2.237 2.87615 2.24667 2.89575 2.25492 2.915C2.26323 2.9344 2.27027 2.95363 2.27644 2.97277C2.28226 2.99079 2.28725 3.00873 2.29209 3.0261C2.29237 3.0271 2.29264 3.02809 2.29291 3.02909C2.29806 3.04744 2.30299 3.0653 2.3096 3.08171C2.31639 3.09842 2.32426 3.1123 2.33597 3.12462C2.35057 3.14002 2.36463 3.1558 2.37772 3.17142C2.39085 3.18705 2.40309 3.20261 2.41458 3.21813C2.42609 3.23368 2.43686 3.24908 2.44707 3.26451C2.45037 3.2695 2.45377 3.27473 2.45693 3.27968C2.45839 3.28196 2.45988 3.28424 2.46132 3.28651C2.46179 3.25631 2.46274 3.22496 2.46442 3.19255C2.46685 3.14573 2.47535 3.09575 2.48412 3.04062C2.49912 2.94656 2.51467 2.83751 2.5035 2.7036ZM2.49051 3.74429C2.48989 3.73116 2.48772 3.71193 2.48482 3.68713C2.48414 3.68127 2.48331 3.67509 2.48256 3.66861C2.48248 3.66876 2.48248 3.66892 2.4824 3.66907C2.47429 3.68513 2.4672 3.69996 2.46059 3.71597C2.44886 3.7445 2.4387 3.77222 2.42988 3.80022C2.42104 3.82833 2.41367 3.85636 2.40765 3.88442C2.40163 3.91253 2.39708 3.94071 2.39403 3.96865C2.39098 3.99686 2.3893 4.02466 2.38952 4.05274C2.38958 4.06168 2.38985 4.07065 2.39029 4.07962C2.39866 4.0596 2.4057 4.03881 2.4131 4.01685C2.41901 3.99931 2.42518 3.98102 2.43246 3.96178C2.43524 3.95442 2.43945 3.94551 2.44435 3.93512C2.46374 3.89393 2.49447 3.82929 2.49051 3.74429ZM2.4637 4.30357C2.46531 4.31009 2.46672 4.31656 2.46781 4.32297C2.47091 4.34119 2.47219 4.35896 2.47289 4.37638C2.47338 4.38861 2.47349 4.4007 2.47365 4.41262C2.47372 4.41765 2.47383 4.42267 2.47391 4.42764C2.47404 4.43598 2.47431 4.44425 2.47459 4.45247C2.48755 4.39486 2.49823 4.33855 2.50394 4.27986C2.50402 4.27909 2.50401 4.27831 2.50408 4.27753C2.49031 4.28641 2.47684 4.29509 2.4637 4.30357Z" fill="var(--stroke-0, #FF6B6B)"/>
</svg>
