<svg preserveAspectRatio="none" width="100%" height="100%" overflow="visible" style="display: block;" viewBox="0 0 9 4" fill="none" xmlns="http://www.w3.org/2000/svg">
<path id="Vector" d="M3.09203 0.44836C3.14117 0.43775 3.18724 0.45589 3.24543 0.480759C3.24546 0.480754 3.24549 0.480749 3.24552 0.480744C3.25383 0.484299 3.2624 0.488077 3.27125 0.491846C3.34253 0.522277 3.43515 0.55844 3.57481 0.574719C3.72913 0.592689 3.85164 0.703528 3.92646 0.812313C3.94041 0.832614 3.95485 0.843608 3.99128 0.853513C4.00953 0.858487 4.03268 0.863084 4.06336 0.868992C4.07285 0.87082 4.08307 0.872776 4.09408 0.874914C4.11887 0.879727 4.14772 0.885384 4.1815 0.892662C4.29332 0.916531 4.46855 0.915882 4.63002 0.921946C4.72803 0.925403 4.82098 0.930939 4.89158 0.941812C4.99483 0.957706 5.09446 0.990278 5.20277 1.02681C5.30196 1.06037 5.40843 1.09718 5.53163 1.13005C5.62615 1.15551 5.71799 1.2447 5.81132 1.33666C5.8232 1.34839 5.83512 1.36017 5.84706 1.37192C5.92942 1.45314 6.01361 1.5319 6.10465 1.58086C6.26693 1.6676 6.39643 1.65536 6.53981 1.65468C6.59589 1.65412 6.6541 1.65475 6.71723 1.66124C6.81707 1.67146 6.9606 1.70311 7.10471 1.73675C7.11699 1.73962 7.12928 1.74246 7.14154 1.74535C7.1416 1.74537 7.14167 1.74538 7.14173 1.74539C7.27365 1.77657 7.40312 1.80808 7.49812 1.82918C7.64906 1.86276 7.70586 1.87262 7.75322 1.88191C7.77103 1.88544 7.78751 1.88896 7.80717 1.89407C7.87794 1.91253 7.98478 1.95027 8.09309 1.98816C8.0935 1.9883 8.09392 1.98845 8.09433 1.98859C8.1123 1.99519 8.12681 2.0003 8.12672 2C8.12664 1.9997 8.11199 1.99751 8.09402 1.99509C8.03665 1.98649 7.98067 1.97794 7.93055 1.97084C7.92795 1.97949 7.91445 1.98581 7.89828 1.98486C7.85778 1.98286 7.73375 1.97814 7.53963 2.01435C7.55292 2.01882 7.56406 2.02292 7.57382 2.02667C7.58528 2.03106 7.59405 2.03462 7.6016 2.03757C7.61732 2.04367 7.62779 2.04727 7.64636 2.04873C7.68939 2.04827 7.757 2.04163 7.82815 2.03428C7.84612 2.03268 7.86063 2.0428 7.86055 2.05696C7.86046 2.07113 7.84581 2.08717 7.82784 2.09267C7.82749 2.09278 7.82714 2.09288 7.82679 2.09299C7.75632 2.1135 7.68653 2.13308 7.64159 2.14143C7.63016 2.14356 7.62031 2.14498 7.61291 2.1458C7.607 2.14647 7.59962 2.14715 7.59552 2.14656C7.59498 2.14649 7.59394 2.14631 7.5927 2.14596C7.59268 2.14594 7.59266 2.14593 7.59264 2.14592C7.59195 2.14572 7.58841 2.14475 7.58464 2.1415C7.58388 2.14084 7.58222 2.13936 7.5803 2.13675C7.5798 2.13663 7.57931 2.13651 7.57881 2.13639C7.5719 2.13472 7.56484 2.13289 7.5572 2.13115C7.52739 2.12418 7.48015 2.11674 7.3818 2.10728C7.29134 2.09875 7.13841 2.10017 6.9476 2.11517C6.96049 2.11835 6.97341 2.12128 6.98632 2.12393C7.01881 2.13059 7.05145 2.13567 7.0841 2.1397C7.0966 2.14123 7.10894 2.14262 7.12152 2.14384C7.14175 2.14583 7.16205 2.14747 7.18234 2.14876C7.19605 2.14963 7.20979 2.15034 7.22351 2.15095C7.22354 2.15094 7.22357 2.15094 7.2236 2.15093C7.24265 2.15178 7.26174 2.15241 7.28098 2.15288C7.28772 2.15312 7.29437 2.15329 7.30098 2.15342C7.32728 2.15387 7.35311 2.154 7.38285 2.15666C7.38647 2.15734 7.3904 2.15835 7.39333 2.15923C7.39648 2.16014 7.39952 2.16109 7.40238 2.16208C7.40491 2.16296 7.40733 2.16387 7.40964 2.16469C7.40995 2.1648 7.41026 2.16491 7.41057 2.16502C7.41316 2.16593 7.41563 2.16675 7.41801 2.1675C7.42038 2.16824 7.42267 2.16895 7.42492 2.1695C7.42494 2.1695 7.42496 2.16949 7.42498 2.16949C7.42734 2.17004 7.42913 2.17045 7.43162 2.1708C7.43475 2.17125 7.43744 2.17151 7.4407 2.17163C7.44386 2.17175 7.44715 2.17174 7.45047 2.17162C7.45379 2.1715 7.45717 2.17127 7.4606 2.17097C7.46404 2.17067 7.46753 2.17032 7.47105 2.1699C7.47457 2.16948 7.47813 2.16898 7.48172 2.16849C7.4853 2.16799 7.48893 2.16747 7.49257 2.16693C7.50095 2.1657 7.50899 2.17025 7.51489 2.17944C7.52079 2.18865 7.52407 2.20169 7.52403 2.21626C7.52399 2.23083 7.52063 2.246 7.51467 2.25897C7.50871 2.27191 7.50064 2.28156 7.49226 2.28558C7.48997 2.28667 7.48768 2.28778 7.48537 2.28888C7.48401 2.28953 7.48263 2.29016 7.48125 2.29081C7.47755 2.29256 7.47382 2.29435 7.47006 2.29607C7.46631 2.29778 7.46251 2.29946 7.45868 2.3011C7.45484 2.30275 7.45095 2.30437 7.447 2.30589C7.44306 2.3074 7.43903 2.30884 7.43494 2.31012C7.43094 2.31139 7.42639 2.31261 7.42232 2.31346C7.41934 2.31411 7.41567 2.31463 7.41262 2.31498C7.40942 2.31535 7.40628 2.31558 7.40325 2.31571C7.40022 2.31584 7.39728 2.31585 7.39448 2.31587C7.39418 2.31587 7.39388 2.31588 7.39358 2.31589C7.3911 2.3159 7.38871 2.31589 7.38645 2.31592C7.38392 2.31596 7.38153 2.31608 7.37926 2.31627C7.37675 2.31645 7.37523 2.31672 7.37337 2.31708C7.3487 2.32417 7.31821 2.33589 7.28914 2.34702C7.28548 2.34842 7.28185 2.34979 7.27826 2.35116C7.25916 2.3585 7.2401 2.36589 7.22106 2.37324C7.20722 2.37858 7.19336 2.38392 7.17949 2.3892C7.15907 2.39697 7.13859 2.40461 7.11814 2.41209C7.10543 2.41672 7.09296 2.42118 7.08028 2.42564C7.04719 2.43729 7.01399 2.44838 6.98074 2.45831C6.94754 2.46821 6.91413 2.47704 6.8807 2.48388C6.8474 2.49068 6.8128 2.49559 6.77939 2.49629C6.75483 2.4967 6.72964 2.4917 6.70635 2.4851C6.69383 2.48155 6.68157 2.47765 6.66949 2.47355C6.66945 2.47352 6.66941 2.47349 6.66937 2.47346C6.65876 2.46986 6.64829 2.46616 6.6379 2.46265C6.61562 2.45505 6.59372 2.44825 6.57184 2.44293C6.54998 2.4376 6.52822 2.43373 6.5063 2.4316C6.48454 2.4295 6.46242 2.429 6.44052 2.43017C6.4185 2.43134 6.39689 2.43406 6.37417 2.43828C6.34431 2.44396 6.31465 2.45175 6.28421 2.46019C6.25399 2.46865 6.22352 2.47794 6.19297 2.48733C6.1823 2.49062 6.1716 2.49381 6.16089 2.49712C6.16085 2.49713 6.1608 2.49714 6.16076 2.49715C6.14095 2.50329 6.12109 2.50946 6.10121 2.51552C6.07052 2.52488 6.03975 2.53407 6.00886 2.54248C5.97797 2.55088 5.9469 2.55858 5.91567 2.56457C5.88443 2.57047 5.85235 2.57497 5.82012 2.57439C5.79137 2.57403 5.7624 2.5719 5.73406 2.56949C5.72658 2.56885 5.7191 2.56821 5.71162 2.56754C5.67612 2.56451 5.64175 2.56253 5.60777 2.56554C5.57381 2.56841 5.53987 2.57609 5.50562 2.58794C5.47147 2.59975 5.4369 2.61551 5.40204 2.63388C5.36704 2.65234 5.33248 2.67307 5.29723 2.69565C5.26224 2.71812 5.22709 2.74213 5.19152 2.7675C5.17174 2.78156 5.1507 2.79484 5.13082 2.80638C5.11074 2.81803 5.0908 2.82859 5.07111 2.83852C5.06312 2.84256 5.05516 2.84644 5.04727 2.85036C5.03575 2.85607 5.02434 2.86167 5.0131 2.86746C4.99414 2.87722 4.97565 2.88747 4.95767 2.89914C4.93971 2.91079 4.92228 2.92399 4.90544 2.9397C4.88801 2.95602 4.87364 2.9723 4.85646 2.99529C4.81461 3.04052 4.78867 3.05577 4.75986 3.07275C4.75418 3.0761 4.74838 3.07963 4.74234 3.08335C4.70779 3.10258 4.67327 3.11762 4.6392 3.12949C4.6048 3.1414 4.57094 3.15011 4.53665 3.15602C4.50269 3.1619 4.46848 3.16483 4.43441 3.16514C4.40039 3.16545 4.36643 3.16309 4.33238 3.15799C4.29836 3.15291 4.26364 3.14489 4.2303 3.13465C4.21103 3.12875 4.19056 3.12067 4.17155 3.11227C4.15784 3.10622 4.14432 3.09981 4.13106 3.09347C4.12565 3.09088 4.12027 3.08829 4.11494 3.08576C4.09724 3.07736 4.08002 3.06948 4.06336 3.06333C4.06273 3.06309 4.0621 3.06286 4.06147 3.06263C4.04421 3.05637 4.02752 3.05191 4.01118 3.05021C3.99482 3.04848 3.97881 3.04952 3.96279 3.05335C3.94619 3.05745 3.9324 3.06302 3.91477 3.07325C3.90329 3.08001 3.89204 3.0868 3.88082 3.09357C3.86403 3.10371 3.84736 3.114 3.83057 3.12462C3.8138 3.13524 3.79724 3.14603 3.7806 3.15725C3.77525 3.16086 3.7696 3.16466 3.76423 3.16837C3.74765 3.17983 3.73125 3.19159 3.71487 3.20399C3.69853 3.21636 3.68233 3.22925 3.6662 3.24291C3.65001 3.25662 3.63408 3.27087 3.61784 3.28625C3.59024 3.3125 3.56382 3.32341 3.54068 3.33015C3.51727 3.33676 3.49539 3.33951 3.47409 3.34198C3.4701 3.34245 3.46611 3.3429 3.46212 3.34335C3.44494 3.3452 3.42805 3.34679 3.41141 3.34903C3.39089 3.35176 3.37076 3.35537 3.35055 3.35998C3.33052 3.36452 3.3103 3.37009 3.29038 3.37697C3.27027 3.38394 3.25105 3.39166 3.23033 3.40134C3.20984 3.41082 3.18903 3.42388 3.16622 3.43776C3.14362 3.45155 3.1199 3.46536 3.09588 3.47654C3.07188 3.48779 3.0475 3.49653 3.0233 3.50216C2.99905 3.50784 2.97472 3.51064 2.95073 3.51092C2.92661 3.51122 2.90263 3.50899 2.87878 3.50486C2.85498 3.50076 2.83039 3.4945 2.80738 3.48696C2.77012 3.47476 2.73303 3.46106 2.69587 3.44661C2.65892 3.43219 2.62185 3.41691 2.58486 3.4011C2.54793 3.3853 2.51096 3.36898 2.47406 3.3522C2.43713 3.33541 2.40022 3.31821 2.36335 3.30075C2.3552 3.29688 2.34705 3.29301 2.33889 3.28912C2.31019 3.27544 2.28148 3.2616 2.2529 3.24778C2.2527 3.24766 2.2525 3.24754 2.25231 3.24741C2.21552 3.22968 2.17939 3.2121 2.14291 3.19488C2.12951 3.1886 2.11664 3.18257 2.10357 3.17665C2.09047 3.17074 2.07762 3.16509 2.06466 3.15961C2.05168 3.15412 2.03877 3.14892 2.02606 3.14412C2.01321 3.13929 2.00069 3.13487 1.98806 3.13099C1.97647 3.12739 1.96497 3.12447 1.9524 3.12112C1.95126 3.12082 1.95011 3.12051 1.94896 3.12021C1.93521 3.11654 1.91957 3.1114 1.90503 3.10476C1.86653 3.08694 1.829 3.07043 1.7908 3.05441C1.75257 3.03836 1.71443 3.02306 1.67597 3.00757C1.66095 3.00152 1.64586 2.99551 1.63077 2.98933C1.60729 2.97973 1.58372 2.9699 1.56009 2.95962C1.52119 2.94272 1.48222 2.92453 1.443 2.90448C1.40392 2.8845 1.36459 2.86262 1.32544 2.83915C1.28632 2.81572 1.24686 2.79048 1.20791 2.76433C1.16452 2.73517 1.12138 2.70554 1.07805 2.67573C1.03479 2.64595 0.991501 2.61603 0.948405 2.58635C0.905151 2.55658 0.862009 2.52699 0.818851 2.49763C0.775669 2.46825 0.732514 2.43913 0.689329 2.41037C0.663483 2.39315 0.637646 2.37605 0.611796 2.35911C0.598119 2.35443 0.585006 2.34979 0.572393 2.34511C0.479192 2.3102 0.411803 2.27726 0.322897 2.22359C0.314382 2.2187 0.307455 2.21512 0.299026 2.21063C0.297418 2.20977 0.295712 2.20884 0.293973 2.2079C0.282958 2.20195 0.270308 2.19474 0.252711 2.18327C0.217606 2.16093 0.163797 2.11893 0.0942645 2.06585C0.0766998 2.05233 0.0655229 2.04162 0.0693086 2.04028C0.07197 2.03925 0.081299 2.04197 0.0926834 2.04671C0.0716503 2.03563 0.0506738 2.02489 0.0297513 2.01452C0.0214001 2.01036 0.0135599 2.0063 0.00798859 2.00363C0.00282544 2.00113 1.73762e-07 1.99999 0 2C0 2 0 2 0 2C1.36401e-08 2 1.73778e-05 2.00001 5.2327e-05 2.00002C0.000533424 2.00022 0.00432364 2.00156 0.0105927 2.00332C0.0168595 2.00511 0.025082 2.00718 0.0334714 2.00958C0.0557272 2.01596 0.0779076 2.02235 0.100093 2.02871C0.122296 2.03509 0.144395 2.0414 0.166559 2.04765C0.188717 2.05389 0.210867 2.06005 0.233087 2.06612C0.25522 2.07216 0.277398 2.07811 0.299615 2.08393C0.321974 2.08979 0.343911 2.09538 0.366205 2.10095C0.379563 2.10428 0.393081 2.10762 0.406352 2.11083C0.411298 2.11203 0.416124 2.11317 0.420953 2.11432C0.4249 2.11526 0.428867 2.11622 0.432951 2.11719C0.475908 2.12735 0.519276 2.13709 0.562256 2.14617C0.605439 2.1553 0.648578 2.16389 0.691716 2.17192C0.734878 2.17997 0.778003 2.18741 0.821146 2.19434C0.864268 2.20126 0.907365 2.20763 0.950544 2.21342C0.993563 2.21918 1.03676 2.22442 1.07985 2.22892C1.11318 2.2324 1.14623 2.23535 1.17933 2.23781C1.19236 2.23472 1.20526 2.23173 1.21799 2.22878C1.25504 2.22019 1.29214 2.20579 1.32869 2.18996C1.26364 2.19246 1.21138 2.20038 1.16163 2.20629C1.15496 2.20708 1.14833 2.20786 1.14173 2.20857C1.07429 2.21595 1.00915 2.21724 0.921527 2.19789C0.672323 2.14342 0.527825 2.11054 0.437787 2.08808C0.347765 2.06567 0.309085 2.05249 0.272985 2.03745C0.221976 2.01561 0.123524 2.00654 0.0740518 2.00409C0.0560803 2.0028 0.0415742 2.00012 0.0416557 1.99808C0.0417425 1.99603 0.056387 1.992 0.0743618 1.98916C0.126601 1.98144 0.233135 1.96957 0.293849 1.98584C0.320891 1.99285 0.351988 1.99814 0.440639 2.00422C0.529299 2.01051 0.672464 2.01697 0.922147 2.03221C1.00662 2.03761 1.06931 2.02719 1.13602 2.01028C1.14257 2.00864 1.14915 2.00688 1.1558 2.00514C1.15584 2.00514 1.15588 2.00514 1.15593 2.00514C1.21721 1.98914 1.28394 1.96899 1.37392 1.9576C1.58133 1.93299 1.86032 1.87124 1.92655 1.83699C1.93955 1.83046 1.95211 1.82317 1.96536 1.81544C2.01623 1.78582 2.07764 1.74862 2.21604 1.71446C2.24631 1.70702 2.28176 1.70119 2.32045 1.69678C2.37851 1.64702 2.43487 1.59864 2.48389 1.56791C2.52619 1.54145 2.56519 1.49585 2.60299 1.44531C2.61387 1.43076 2.62483 1.41553 2.63576 1.40027C2.66213 1.3635 2.68852 1.32625 2.71422 1.29651C2.73472 1.27281 2.75618 1.24454 2.77886 1.2144C2.86148 1.10507 2.9605 0.967874 3.08952 0.948755C3.2263 0.928976 3.34339 0.939996 3.44439 0.95453C3.37022 0.934351 3.31296 0.9091 3.26527 0.886965C3.25627 0.882791 3.24765 0.878754 3.23935 0.874887C3.18073 0.847596 3.13811 0.82897 3.09244 0.83661C2.87427 0.873971 2.79244 0.92439 2.70012 1.0302C2.67581 1.05816 2.64899 1.09419 2.6201 1.13249C2.56236 1.20915 2.49632 1.29437 2.42536 1.34691C2.35926 1.396 2.28534 1.4634 2.20702 1.53111C2.20699 1.53111 2.20695 1.53112 2.20692 1.53112C2.19162 1.54436 2.17613 1.55762 2.16051 1.57079C2.06528 1.65126 1.96512 1.72676 1.86762 1.77405C1.85719 1.77912 1.8447 1.78592 1.83035 1.79364C1.74757 1.83994 1.60224 1.90625 1.42477 1.88026C1.38579 1.87505 1.34528 1.86189 1.29906 1.84874C1.28498 1.84473 1.27036 1.84066 1.2551 1.83686C1.18921 1.8204 1.10916 1.80772 1.00256 1.81258C0.914594 1.81653 0.807383 1.83159 0.696056 1.84962C0.64122 1.85853 0.585384 1.86819 0.530356 1.87811C0.364135 1.90794 0.211788 1.93971 0.0597293 1.98264C0.0596983 1.98265 0.0596673 1.98265 0.0596363 1.98266C0.0416724 1.98744 0.0276011 1.99035 0.0282323 1.9888C0.02887 1.98726 0.0439438 1.97846 0.0618994 1.96956C0.214048 1.89631 0.36593 1.83605 0.531596 1.77713C0.585788 1.75783 0.641186 1.73869 0.695808 1.72063C0.807677 1.6837 0.916379 1.65117 1.00517 1.63369C1.11357 1.61227 1.19509 1.6137 1.26189 1.62122C1.27797 1.62301 1.2931 1.62513 1.30746 1.62729C1.35317 1.63416 1.39117 1.64167 1.42815 1.64176C1.59999 1.64434 1.73982 1.56466 1.82291 1.50928C1.83765 1.49975 1.8506 1.49134 1.86163 1.48477C1.95722 1.428 2.05585 1.3439 2.151 1.25466C2.16643 1.24021 2.18179 1.2257 2.19703 1.21113C2.19706 1.21107 2.1971 1.21101 2.19713 1.21095C2.27543 1.13615 2.35068 1.06123 2.41801 1.00575C2.48634 0.949575 2.54594 0.867976 2.60169 0.78992C2.6316 0.748082 2.66041 0.707498 2.68886 0.672857C2.78681 0.554173 2.87317 0.496683 3.09203 0.44836ZM0.125203 2.06405C0.168436 2.08911 0.203661 2.1095 0.229894 2.12256C0.207616 2.10974 0.185391 2.09715 0.163149 2.08482C0.15049 2.0778 0.137845 2.07088 0.125203 2.06405ZM2.32575 2.03274C2.31874 2.03815 2.31169 2.0436 2.30461 2.04905C2.32416 2.04667 2.34371 2.04444 2.36323 2.04216C2.3872 2.03936 2.41117 2.03668 2.43512 2.03397C2.39703 2.03253 2.36012 2.03193 2.32575 2.03274ZM3.08983 1.3371C2.96815 1.34913 2.87722 1.46955 2.79523 1.57304C2.77162 1.60295 2.74872 1.63157 2.72607 1.65631C2.71667 1.66657 2.70729 1.6778 2.69782 1.68963C2.75293 1.69217 2.80358 1.69564 2.84505 1.69876C2.96878 1.70804 3.0392 1.7384 3.10109 1.76569C3.11899 1.77359 3.1362 1.78122 3.15376 1.78806C3.16828 1.77457 3.18337 1.76112 3.19861 1.7492C3.21996 1.73237 3.24303 1.71606 3.26499 1.70206C3.28703 1.68798 3.30943 1.67524 3.33142 1.66439C3.3536 1.65344 3.37558 1.64417 3.39745 1.63605C3.41804 1.62839 3.43855 1.62181 3.4584 1.61544C3.45954 1.61508 3.46068 1.61472 3.46181 1.61436C3.48279 1.60758 3.5032 1.6011 3.52196 1.59239C3.54105 1.58345 3.55692 1.57309 3.571 1.55767C3.58859 1.53845 3.60663 1.51994 3.62448 1.5027C3.64234 1.48542 3.66013 1.4693 3.67786 1.45418C3.69563 1.43902 3.71323 1.42484 3.73087 1.4114C3.73658 1.40705 3.74254 1.40258 3.7482 1.39842C3.75081 1.3965 3.75341 1.39453 3.75601 1.39264C3.7215 1.39202 3.68566 1.39077 3.64863 1.38855C3.59512 1.38536 3.538 1.37416 3.47499 1.36262C3.3675 1.34287 3.24287 1.3224 3.08983 1.3371ZM4.27919 1.35421C4.26418 1.35503 4.24221 1.35789 4.21387 1.3617C4.20717 1.3626 4.2001 1.36369 4.19269 1.36468C4.19287 1.36478 4.19305 1.36479 4.19322 1.36489C4.21158 1.37556 4.22852 1.3849 4.24682 1.3936C4.27943 1.40905 4.31111 1.42242 4.34311 1.43403C4.37523 1.44567 4.40727 1.45537 4.43934 1.4633C4.47146 1.47122 4.50367 1.47721 4.5356 1.48123C4.56784 1.48525 4.59961 1.48746 4.6317 1.48717C4.64192 1.48709 4.65217 1.48674 4.66242 1.48615C4.63954 1.47513 4.61578 1.46586 4.59068 1.45612C4.57064 1.44835 4.54974 1.44022 4.52775 1.43064C4.51934 1.42697 4.50916 1.42144 4.49728 1.41498C4.4502 1.38945 4.37633 1.34899 4.27919 1.35421ZM4.91837 1.38951C4.92581 1.38739 4.93321 1.38554 4.94053 1.3841C4.96136 1.38001 4.98167 1.37833 5.00157 1.3774C5.01555 1.37676 5.02937 1.37662 5.04299 1.3764C5.04874 1.37631 5.05448 1.37617 5.06016 1.37606C5.06969 1.37589 5.07914 1.37554 5.08853 1.37517C5.0227 1.3581 4.95834 1.34405 4.89127 1.33652C4.89038 1.33642 4.8895 1.33643 4.8886 1.33634C4.89875 1.35448 4.90867 1.37221 4.91837 1.38951Z" fill="var(--stroke-0, #FF6B6B)"/>
</svg>
