<svg preserveAspectRatio="none" width="100%" height="100%" overflow="visible" style="display: block;" viewBox="0 0 6 4" fill="none" xmlns="http://www.w3.org/2000/svg">
<path id="Vector" d="M2.06136 0.44836C2.09412 0.43775 2.12483 0.45589 2.16362 0.480759C2.16364 0.480754 2.16366 0.480749 2.16368 0.480744C2.16922 0.484299 2.17493 0.488077 2.18083 0.491846C2.22836 0.522277 2.2901 0.55844 2.38321 0.574719C2.48609 0.592689 2.56776 0.703528 2.61764 0.812313C2.62694 0.832614 2.63657 0.843608 2.66086 0.853513C2.67302 0.858487 2.68845 0.863084 2.70891 0.868992C2.71524 0.87082 2.72205 0.872776 2.72939 0.874914C2.74592 0.879727 2.76515 0.885384 2.78767 0.892662C2.86221 0.916531 2.97904 0.915882 3.08669 0.921946C3.15202 0.925403 3.21399 0.930939 3.26106 0.941812C3.32989 0.957706 3.39631 0.990278 3.46851 1.02681C3.53464 1.06037 3.60562 1.09718 3.68775 1.13005C3.75077 1.15551 3.812 1.2447 3.87422 1.33666C3.88213 1.34839 3.89009 1.36017 3.89804 1.37192C3.95295 1.45314 4.00908 1.5319 4.06977 1.58086C4.17796 1.6676 4.26429 1.65536 4.35988 1.65468C4.39726 1.65412 4.43607 1.65475 4.47816 1.66124C4.54472 1.67146 4.6404 1.70311 4.73648 1.73675C4.74466 1.73962 4.75286 1.74246 4.76103 1.74535C4.76107 1.74537 4.76111 1.74538 4.76116 1.74539C4.8491 1.77657 4.93542 1.80808 4.99875 1.82918C5.09938 1.86276 5.13724 1.87262 5.16882 1.88191C5.18069 1.88544 5.19168 1.88896 5.20478 1.89407C5.25197 1.91253 5.32319 1.95027 5.3954 1.98816C5.39567 1.9883 5.39595 1.98845 5.39622 1.98859C5.4082 1.99519 5.41788 2.0003 5.41782 2C5.41776 1.9997 5.408 1.99751 5.39602 1.99509C5.35777 1.98649 5.32045 1.97794 5.28704 1.97084C5.2853 1.97949 5.27631 1.98581 5.26552 1.98486C5.23852 1.98286 5.15583 1.97814 5.02642 2.01435C5.03529 2.01882 5.04271 2.02292 5.04922 2.02667C5.05685 2.03106 5.06271 2.03462 5.06774 2.03757C5.07822 2.04367 5.0852 2.04727 5.09758 2.04873C5.12626 2.04827 5.17134 2.04163 5.21877 2.03428C5.23075 2.03268 5.24042 2.0428 5.24037 2.05696C5.24031 2.07113 5.23055 2.08717 5.21857 2.09267C5.21833 2.09278 5.2181 2.09288 5.21786 2.09299C5.17088 2.1135 5.12436 2.13308 5.0944 2.14143C5.08677 2.14356 5.08021 2.14498 5.07528 2.1458C5.07134 2.14647 5.06642 2.14715 5.06368 2.14656C5.06332 2.14649 5.06263 2.14631 5.0618 2.14596C5.06179 2.14594 5.06178 2.14593 5.06176 2.14592C5.0613 2.14572 5.05894 2.14475 5.05643 2.1415C5.05592 2.14084 5.05482 2.13936 5.05354 2.13675C5.05321 2.13663 5.05287 2.13651 5.05254 2.13639C5.04793 2.13472 5.04323 2.13289 5.03814 2.13115C5.01826 2.12418 4.98677 2.11674 4.9212 2.10728C4.8609 2.09875 4.75895 2.10017 4.63174 2.11517C4.64033 2.11835 4.64894 2.12128 4.65755 2.12393C4.67921 2.13059 4.70097 2.13567 4.72273 2.1397C4.73107 2.14123 4.7393 2.14262 4.74768 2.14384C4.76117 2.14583 4.7747 2.14747 4.78823 2.14876C4.79737 2.14963 4.80653 2.15034 4.81568 2.15095C4.8157 2.15094 4.81572 2.15094 4.81574 2.15093C4.82844 2.15178 4.84116 2.15241 4.85399 2.15288C4.85848 2.15312 4.86292 2.15329 4.86732 2.15342C4.88486 2.15387 4.90208 2.154 4.92191 2.15666C4.92432 2.15734 4.92694 2.15835 4.92889 2.15923C4.93099 2.16014 4.93302 2.16109 4.93493 2.16208C4.93661 2.16296 4.93822 2.16387 4.93976 2.16469C4.93997 2.1648 4.94018 2.16491 4.94038 2.16502C4.94211 2.16593 4.94376 2.16675 4.94534 2.1675C4.94693 2.16824 4.94845 2.16895 4.94995 2.1695C4.94997 2.1695 4.94998 2.16949 4.94999 2.16949C4.95156 2.17004 4.95275 2.17045 4.95442 2.1708C4.9565 2.17125 4.9583 2.17151 4.96047 2.17163C4.96257 2.17175 4.96477 2.17174 4.96698 2.17162C4.9692 2.1715 4.97145 2.17127 4.97374 2.17097C4.97603 2.17067 4.97836 2.17032 4.9807 2.1699C4.98305 2.16948 4.98542 2.16898 4.98781 2.16849C4.9902 2.16799 4.99262 2.16747 4.99505 2.16693C5.00064 2.1657 5.00599 2.17025 5.00993 2.17944C5.01386 2.18865 5.01605 2.20169 5.01603 2.21626C5.016 2.23083 5.01376 2.246 5.00978 2.25897C5.00581 2.27191 5.00043 2.28156 4.99484 2.28558C4.99332 2.28667 4.99179 2.28778 4.99025 2.28888C4.98934 2.28953 4.98842 2.29016 4.9875 2.29081C4.98504 2.29256 4.98255 2.29435 4.98004 2.29607C4.97754 2.29778 4.97501 2.29946 4.97246 2.3011C4.9699 2.30275 4.9673 2.30437 4.96467 2.30589C4.96204 2.3074 4.95936 2.30884 4.95663 2.31012C4.95397 2.31139 4.95093 2.31261 4.94822 2.31346C4.94623 2.31411 4.94379 2.31463 4.94175 2.31498C4.93962 2.31535 4.93752 2.31558 4.93551 2.31571C4.93348 2.31584 4.93153 2.31585 4.92966 2.31587C4.92946 2.31587 4.92926 2.31588 4.92906 2.31589C4.92741 2.3159 4.92581 2.31589 4.9243 2.31592C4.92262 2.31596 4.92102 2.31608 4.91951 2.31627C4.91784 2.31645 4.91683 2.31672 4.91558 2.31708C4.89914 2.32417 4.87881 2.33589 4.85943 2.34702C4.85699 2.34842 4.85457 2.34979 4.85217 2.35116C4.83944 2.3585 4.82674 2.36589 4.81404 2.37324C4.80482 2.37858 4.79558 2.38392 4.78633 2.3892C4.77272 2.39697 4.75906 2.40461 4.74543 2.41209C4.73696 2.41672 4.72864 2.42118 4.72019 2.42564C4.69813 2.43729 4.67599 2.44838 4.65383 2.45831C4.6317 2.46821 4.60942 2.47704 4.58714 2.48388C4.56493 2.49068 4.54187 2.49559 4.5196 2.49629C4.50322 2.4967 4.48643 2.4917 4.4709 2.4851C4.46256 2.48155 4.45438 2.47765 4.44633 2.47355C4.4463 2.47352 4.44628 2.47349 4.44625 2.47346C4.43918 2.46986 4.4322 2.46616 4.42527 2.46265C4.41041 2.45505 4.39582 2.44825 4.38123 2.44293C4.36666 2.4376 4.35215 2.43373 4.33754 2.4316C4.32303 2.4295 4.30828 2.429 4.29368 2.43017C4.279 2.43134 4.26459 2.43406 4.24945 2.43828C4.22954 2.44396 4.20977 2.45175 4.18948 2.46019C4.16933 2.46865 4.14902 2.47794 4.12865 2.48733C4.12153 2.49062 4.1144 2.49381 4.10726 2.49712C4.10723 2.49713 4.10721 2.49714 4.10718 2.49715C4.09397 2.50329 4.08073 2.50946 4.06748 2.51552C4.04702 2.52488 4.0265 2.53407 4.00591 2.54248C3.98532 2.55088 3.9646 2.55858 3.94378 2.56457C3.92296 2.57047 3.90157 2.57497 3.88009 2.57439C3.86092 2.57403 3.8416 2.5719 3.82271 2.56949C3.81772 2.56885 3.81274 2.56821 3.80775 2.56754C3.78408 2.56451 3.76117 2.56253 3.73851 2.56554C3.71587 2.56841 3.69325 2.57609 3.67041 2.58794C3.64765 2.59975 3.6246 2.61551 3.60136 2.63388C3.57803 2.65234 3.55499 2.67307 3.53149 2.69565C3.50816 2.71812 3.48473 2.74213 3.46101 2.7675C3.44783 2.78156 3.4338 2.79484 3.42055 2.80638C3.40716 2.81803 3.39387 2.82859 3.38074 2.83852C3.37541 2.84256 3.37011 2.84644 3.36485 2.85036C3.35717 2.85607 3.34956 2.86167 3.34207 2.86746C3.32943 2.87722 3.3171 2.88747 3.30512 2.89914C3.29314 2.91079 3.28152 2.92399 3.27029 2.9397C3.25867 2.95602 3.2491 2.9723 3.23764 2.99529C3.20974 3.04052 3.19245 3.05577 3.17324 3.07275C3.16946 3.0761 3.16559 3.07963 3.16156 3.08335C3.13853 3.10258 3.11552 3.11762 3.0928 3.12949C3.06987 3.1414 3.0473 3.15011 3.02444 3.15602C3.00179 3.1619 2.97899 3.16483 2.95627 3.16514C2.9336 3.16545 2.91096 3.16309 2.88826 3.15799C2.86558 3.15291 2.84243 3.14489 2.8202 3.13465C2.80736 3.12875 2.79371 3.12067 2.78104 3.11227C2.77189 3.10622 2.76288 3.09981 2.75404 3.09347C2.75044 3.09088 2.74685 3.08829 2.7433 3.08576C2.7315 3.07736 2.72002 3.06948 2.70891 3.06333C2.70849 3.06309 2.70807 3.06286 2.70765 3.06263C2.69614 3.05637 2.68501 3.05191 2.67412 3.05021C2.66321 3.04848 2.65254 3.04952 2.64186 3.05335C2.63079 3.05745 2.6216 3.06302 2.60985 3.07325C2.60219 3.08001 2.59469 3.0868 2.58722 3.09357C2.57602 3.10371 2.56491 3.114 2.55372 3.12462C2.54253 3.13524 2.5315 3.14603 2.5204 3.15725C2.51683 3.16086 2.51307 3.16466 2.50949 3.16837C2.49843 3.17983 2.4875 3.19159 2.47658 3.20399C2.46569 3.21636 2.45489 3.22925 2.44414 3.24291C2.43334 3.25662 2.42272 3.27087 2.4119 3.28625C2.39349 3.3125 2.37588 3.32341 2.36045 3.33015C2.34485 3.33676 2.33026 3.33951 2.31606 3.34198C2.3134 3.34245 2.31074 3.3429 2.30808 3.34335C2.29663 3.3452 2.28537 3.34679 2.27427 3.34903C2.2606 3.35176 2.24717 3.35537 2.2337 3.35998C2.22035 3.36452 2.20687 3.37009 2.19359 3.37697C2.18018 3.38394 2.16737 3.39166 2.15355 3.40134C2.13989 3.41082 2.12602 3.42388 2.11081 3.43776C2.09575 3.45155 2.07993 3.46536 2.06392 3.47654C2.04792 3.48779 2.03167 3.49653 2.01554 3.50216C1.99937 3.50784 1.98315 3.51064 1.96715 3.51092C1.95107 3.51122 1.93509 3.50899 1.91919 3.50486C1.90332 3.50076 1.88693 3.4945 1.87159 3.48696C1.84675 3.47476 1.82202 3.46106 1.79725 3.44661C1.77261 3.43219 1.7479 3.41691 1.72324 3.4011C1.69862 3.3853 1.67398 3.36898 1.64937 3.3522C1.62476 3.33541 1.60015 3.31821 1.57557 3.30075C1.57013 3.29688 1.5647 3.29301 1.55926 3.28912C1.54012 3.27544 1.52099 3.2616 1.50193 3.24778C1.5018 3.24766 1.50167 3.24754 1.50154 3.24741C1.47701 3.22968 1.45293 3.2121 1.4286 3.19488C1.41968 3.1886 1.4111 3.18257 1.40238 3.17665C1.39365 3.17074 1.38508 3.16509 1.37644 3.15961C1.36779 3.15412 1.35918 3.14892 1.35071 3.14412C1.34214 3.13929 1.3338 3.13487 1.32537 3.13099C1.31765 3.12739 1.30998 3.12447 1.3016 3.12112C1.30084 3.12082 1.30007 3.12051 1.29931 3.12021C1.29014 3.11654 1.27972 3.1114 1.27002 3.10476C1.24435 3.08694 1.21934 3.07043 1.19386 3.05441C1.16838 3.03836 1.14295 3.02306 1.11731 3.00757C1.1073 3.00152 1.09724 2.99551 1.08718 2.98933C1.07153 2.97973 1.05582 2.9699 1.04006 2.95962C1.01413 2.94272 0.988148 2.92453 0.961997 2.90448C0.935947 2.8845 0.909728 2.86262 0.883627 2.83915C0.857546 2.81572 0.83124 2.79048 0.805277 2.76433C0.77635 2.73517 0.74759 2.70554 0.718701 2.67573C0.689859 2.64595 0.661001 2.61603 0.63227 2.58635C0.603435 2.55658 0.574673 2.52699 0.545901 2.49763C0.517113 2.46825 0.488343 2.43913 0.459553 2.41037C0.442323 2.39315 0.425097 2.37605 0.407864 2.35911C0.398746 2.35443 0.390005 2.34979 0.381596 2.34511C0.319461 2.3102 0.274535 2.27726 0.215265 2.22359C0.209588 2.2187 0.20497 2.21512 0.199351 2.21063C0.198279 2.20977 0.197142 2.20884 0.195982 2.2079C0.188639 2.20195 0.180206 2.19474 0.168474 2.18327C0.145071 2.16093 0.109198 2.11893 0.062843 2.06585C0.0511332 2.05233 0.043682 2.04162 0.0462058 2.04028C0.04798 2.03925 0.0541993 2.04197 0.061789 2.04671C0.0477669 2.03563 0.0337825 2.02489 0.0198342 2.01452C0.0142668 2.01036 0.00903993 2.0063 0.00532573 2.00363C0.00188363 2.00113 1.16227e-07 1.99999 0 2C0 2 0 2 0 2C9.09421e-09 2 1.15852e-05 2.00001 3.48847e-05 2.00002C0.000355616 2.00022 0.00288243 2.00156 0.00706179 2.00332C0.0112397 2.00511 0.0167214 2.00718 0.0223143 2.00958C0.0371515 2.01596 0.0519384 2.02235 0.0667285 2.02871C0.0815308 2.03509 0.0962633 2.0414 0.111039 2.04765C0.125811 2.05389 0.140578 2.06005 0.155391 2.06612C0.170147 2.07216 0.184932 2.07811 0.199744 2.08393C0.214649 2.08979 0.229274 2.09538 0.244137 2.10095C0.253042 2.10428 0.262054 2.10762 0.270901 2.11083C0.274199 2.11203 0.277416 2.11317 0.280636 2.11432C0.283267 2.11526 0.285912 2.11622 0.288634 2.11719C0.317272 2.12735 0.346184 2.13709 0.374838 2.14617C0.403626 2.1553 0.432386 2.16389 0.461144 2.17192C0.489919 2.17997 0.518669 2.18741 0.547431 2.19434C0.576179 2.20126 0.60491 2.20763 0.633696 2.21342C0.662376 2.21918 0.691173 2.22442 0.7199 2.22892C0.742121 2.2324 0.764154 2.23535 0.786221 2.23781C0.79491 2.23472 0.803507 2.23173 0.811994 2.22878C0.836695 2.22019 0.86143 2.20579 0.885797 2.18996C0.842427 2.19246 0.807588 2.20038 0.77442 2.20629C0.769973 2.20708 0.765556 2.20786 0.761152 2.20857C0.716196 2.21595 0.672766 2.21724 0.614352 2.19789C0.448216 2.14342 0.351884 2.11054 0.291858 2.08808C0.231843 2.06567 0.206057 2.05249 0.18199 2.03745C0.147984 2.01561 0.0823497 2.00654 0.0493679 2.00409C0.0373869 2.0028 0.0277161 2.00012 0.0277705 1.99808C0.0278283 1.99603 0.0375914 1.992 0.0495746 1.98916C0.0844006 1.98144 0.155423 1.96957 0.1959 1.98584C0.213927 1.99285 0.234659 1.99814 0.293759 2.00422C0.352867 2.01051 0.44831 2.01697 0.614765 2.03221C0.671077 2.03761 0.712871 2.02719 0.757349 2.01028C0.761711 2.00864 0.766103 2.00688 0.770535 2.00514C0.770563 2.00514 0.77059 2.00514 0.770618 2.00514C0.811474 1.98914 0.855961 1.96899 0.915951 1.9576C1.05422 1.93299 1.24021 1.87124 1.28437 1.83699C1.29303 1.83046 1.30141 1.82317 1.31024 1.81544C1.34415 1.78582 1.3851 1.74862 1.47736 1.71446C1.49754 1.70702 1.52118 1.70119 1.54697 1.69678C1.58567 1.64702 1.62325 1.59864 1.65592 1.56791C1.68413 1.54145 1.71013 1.49585 1.73533 1.44531C1.74258 1.43076 1.74989 1.41553 1.75717 1.40027C1.77476 1.3635 1.79234 1.32625 1.80948 1.29651C1.82315 1.27281 1.83745 1.24454 1.85257 1.2144C1.90766 1.10507 1.97367 0.967874 2.05968 0.948755C2.15087 0.928976 2.22893 0.939996 2.29626 0.95453C2.24682 0.934351 2.20864 0.9091 2.17685 0.886965C2.17085 0.882791 2.1651 0.878754 2.15957 0.874887C2.12049 0.847596 2.09208 0.82897 2.06163 0.83661C1.91618 0.873971 1.86163 0.92439 1.80008 1.0302C1.78387 1.05816 1.766 1.09419 1.74674 1.13249C1.70824 1.20915 1.66421 1.29437 1.6169 1.34691C1.57284 1.396 1.52356 1.4634 1.47134 1.53111C1.47132 1.53111 1.4713 1.53112 1.47128 1.53112C1.46108 1.54436 1.45076 1.55762 1.44034 1.57079C1.37686 1.65126 1.31008 1.72676 1.24508 1.77405C1.23813 1.77912 1.2298 1.78592 1.22024 1.79364C1.16505 1.83994 1.06816 1.90625 0.949845 1.88026C0.923858 1.87505 0.896855 1.86189 0.866039 1.84874C0.856653 1.84473 0.846907 1.84066 0.836733 1.83686C0.792807 1.8204 0.739438 1.80772 0.668376 1.81258C0.60973 1.81653 0.538256 1.83159 0.464038 1.84962C0.42748 1.85853 0.390256 1.86819 0.353571 1.87811C0.242757 1.90794 0.141192 1.93971 0.0398196 1.98264C0.0397989 1.98265 0.0397782 1.98265 0.0397576 1.98266C0.0277816 1.98744 0.0184007 1.99035 0.0188215 1.9888C0.0192467 1.98726 0.0292959 1.97846 0.0412663 1.96956C0.142699 1.89631 0.243953 1.83605 0.354398 1.77713C0.390525 1.75783 0.427458 1.73869 0.463873 1.72063C0.538452 1.6837 0.61092 1.65117 0.670112 1.63369C0.742383 1.61227 0.796729 1.6137 0.841259 1.62122C0.851984 1.62301 0.862067 1.62513 0.87164 1.62729C0.902114 1.63416 0.927449 1.64167 0.952098 1.64176C1.06666 1.64434 1.15988 1.56466 1.21528 1.50928C1.2251 1.49975 1.23374 1.49134 1.24109 1.48477C1.30482 1.428 1.37057 1.3439 1.434 1.25466C1.44429 1.24021 1.45453 1.2257 1.46469 1.21113C1.46471 1.21107 1.46473 1.21101 1.46475 1.21095C1.51696 1.13615 1.56712 1.06123 1.61201 1.00575C1.65756 0.949575 1.6973 0.867976 1.73446 0.78992C1.7544 0.748082 1.77361 0.707498 1.79258 0.672857C1.85788 0.554173 1.91545 0.496683 2.06136 0.44836ZM0.083469 2.06405C0.112291 2.08911 0.135774 2.1095 0.153263 2.12256C0.13841 2.10974 0.123594 2.09715 0.108766 2.08482C0.100326 2.0778 0.0918968 2.07088 0.083469 2.06405ZM1.5505 2.03274C1.54583 2.03815 1.54113 2.0436 1.53641 2.04905C1.54944 2.04667 1.56247 2.04444 1.57549 2.04216C1.59147 2.03936 1.60744 2.03668 1.62342 2.03397C1.59802 2.03253 1.57341 2.03193 1.5505 2.03274ZM2.05989 1.3371C1.97877 1.34913 1.91815 1.46955 1.86349 1.57304C1.84775 1.60295 1.83248 1.63157 1.81738 1.65631C1.81112 1.66657 1.80486 1.6778 1.79855 1.68963C1.83529 1.69217 1.86906 1.69564 1.8967 1.69876C1.97919 1.70804 2.02614 1.7384 2.06739 1.76569C2.07933 1.77359 2.0908 1.78122 2.10251 1.78806C2.11219 1.77457 2.12225 1.76112 2.13241 1.7492C2.14664 1.73237 2.16202 1.71606 2.17666 1.70206C2.19135 1.68798 2.20628 1.67524 2.22095 1.66439C2.23574 1.65344 2.25039 1.64417 2.26497 1.63605C2.27869 1.62839 2.29237 1.62181 2.3056 1.61544C2.30636 1.61508 2.30712 1.61472 2.30788 1.61436C2.32186 1.60758 2.33547 1.6011 2.34797 1.59239C2.3607 1.58345 2.37128 1.57309 2.38067 1.55767C2.39239 1.53845 2.40442 1.51994 2.41632 1.5027C2.42823 1.48542 2.44009 1.4693 2.45191 1.45418C2.46376 1.43902 2.47549 1.42484 2.48725 1.4114C2.49105 1.40705 2.49503 1.40258 2.4988 1.39842C2.50054 1.3965 2.50228 1.39453 2.50401 1.39264C2.481 1.39202 2.45711 1.39077 2.43242 1.38855C2.39675 1.38536 2.35867 1.37416 2.31666 1.36262C2.245 1.34287 2.16192 1.3224 2.05989 1.3371ZM2.85279 1.35421C2.84279 1.35503 2.82814 1.35789 2.80925 1.3617C2.80478 1.3626 2.80007 1.36369 2.79513 1.36468C2.79525 1.36478 2.79537 1.36479 2.79548 1.36489C2.80772 1.37556 2.81902 1.3849 2.83122 1.3936C2.85296 1.40905 2.87408 1.42242 2.89541 1.43403C2.91682 1.44567 2.93818 1.45537 2.95956 1.4633C2.98097 1.47122 3.00245 1.47721 3.02373 1.48123C3.04523 1.48525 3.06641 1.48746 3.0878 1.48717C3.09462 1.48709 3.10145 1.48674 3.10828 1.48615C3.09303 1.47513 3.07719 1.46586 3.06046 1.45612C3.0471 1.44835 3.03316 1.44022 3.0185 1.43064C3.01289 1.42697 3.00611 1.42144 2.99819 1.41498C2.9668 1.38945 2.91756 1.34899 2.85279 1.35421ZM3.27891 1.38951C3.28388 1.38739 3.28881 1.38554 3.29369 1.3841C3.30758 1.38001 3.32111 1.37833 3.33438 1.3774C3.3437 1.37676 3.35292 1.37662 3.362 1.3764C3.36583 1.37631 3.36965 1.37617 3.37345 1.37606C3.3798 1.37589 3.3861 1.37554 3.39236 1.37517C3.34847 1.3581 3.30556 1.34405 3.26085 1.33652C3.26026 1.33642 3.25967 1.33643 3.25907 1.33634C3.26584 1.35448 3.27245 1.37221 3.27891 1.38951Z" fill="var(--stroke-0, #FF6B6B)"/>
</svg>
