<svg preserveAspectRatio="none" width="100%" height="100%" overflow="visible" style="display: block;" viewBox="0 0 14 14" fill="none" xmlns="http://www.w3.org/2000/svg">
<path id="Vector" d="M3.36293 7.99186C3.40863 8.11778 3.43519 8.24047 3.47622 8.3956C3.47626 8.39568 3.47629 8.39576 3.47633 8.39583C3.48222 8.41797 3.48839 8.44081 3.49507 8.46432C3.54965 8.65279 3.6297 8.9005 3.82985 9.23413C4.0484 9.59532 4.21724 9.89911 4.31338 10.1108C4.31474 10.1138 4.31608 10.1168 4.31741 10.1197C4.33524 10.159 4.35882 10.1948 4.43141 10.2723C4.4679 10.311 4.51556 10.3588 4.58098 10.4199C4.60121 10.4388 4.62317 10.459 4.64706 10.4806C4.70087 10.529 4.76455 10.5844 4.8411 10.6471C5.09268 10.8571 5.53986 11.1216 5.98396 11.29C6.25242 11.3947 6.51618 11.4689 6.71833 11.5188C6.7303 11.5218 6.74226 11.5247 6.75423 11.5276C7.03755 11.5964 7.31771 11.652 7.62765 11.6843C7.92321 11.7144 8.24663 11.7235 8.61902 11.6813C8.90409 11.6488 9.19189 11.6413 9.49061 11.6073C9.52859 11.603 9.56672 11.5982 9.60496 11.5929C9.64523 11.5874 9.68559 11.5813 9.72619 11.5745C9.95124 11.537 10.1817 11.4782 10.4139 11.3804C10.9022 11.1711 11.2365 10.8931 11.568 10.5634C11.6974 10.4331 11.826 10.2925 11.9596 10.1346C12.0499 10.0279 12.1547 9.89897 12.2623 9.75245C12.4068 9.55626 12.5554 9.32794 12.6862 9.08749C12.7056 9.05177 12.7247 9.01572 12.7434 8.97959C12.7435 8.97941 12.7436 8.97923 12.7437 8.97904C12.9463 8.59055 13.092 8.1802 13.1727 7.8718C13.2979 7.38027 13.3063 7.18546 13.3257 7.02712C13.3317 6.96727 13.3367 6.91171 13.3422 6.84537C13.3455 6.80436 13.349 6.75983 13.3522 6.71209C13.3676 6.47866 13.3913 6.17426 13.4152 5.86642C13.4153 5.86501 13.4154 5.86359 13.4155 5.86217C13.4205 5.80051 13.4244 5.75075 13.4242 5.75104C13.424 5.75133 13.4223 5.80157 13.4205 5.86323C13.4139 6.06003 13.4074 6.25206 13.402 6.424C13.4086 6.43292 13.4134 6.47922 13.4127 6.53471C13.4121 6.57271 13.4117 6.63215 13.4117 6.71209C13.4111 6.9238 13.4065 7.28069 13.3381 7.7611C13.3498 7.71681 13.3594 7.67956 13.3677 7.64688C13.3774 7.60853 13.3847 7.57903 13.3907 7.55362C13.4032 7.50067 13.4108 7.4652 13.4197 7.4017C13.4375 7.25425 13.4532 7.02086 13.4499 6.77557C13.4496 6.75198 13.4506 6.73012 13.4524 6.71209C13.4554 6.68297 13.4607 6.66397 13.4675 6.66414C13.4741 6.66432 13.4811 6.68326 13.4866 6.71209C13.4901 6.73052 13.4929 6.75297 13.4942 6.77714C13.4943 6.77836 13.4943 6.77958 13.4944 6.7808C13.5076 7.02571 13.501 7.27008 13.4876 7.4267C13.4843 7.46654 13.4807 7.50084 13.4777 7.52652C13.4753 7.54706 13.4721 7.57266 13.4695 7.58678C13.4691 7.58865 13.4684 7.59222 13.4675 7.59646C13.4675 7.59653 13.4675 7.5966 13.4675 7.59667C13.4669 7.59904 13.4643 7.61116 13.4598 7.62379C13.4589 7.62633 13.4569 7.63188 13.4539 7.63819C13.4535 7.63988 13.4531 7.64158 13.4528 7.64328C13.4476 7.6669 13.4422 7.69097 13.4363 7.717C13.4119 7.81821 13.3811 7.98071 13.2814 8.30831C13.1885 8.60822 13.0192 9.11653 12.6868 9.69331C12.7119 9.65607 12.7366 9.61825 12.7605 9.58013C12.8209 9.48411 12.8777 9.38517 12.9309 9.2842C12.9513 9.24549 12.9708 9.20708 12.9902 9.16761C13.0214 9.10409 13.0514 9.03968 13.0798 8.97466C13.0991 8.93072 13.1177 8.88639 13.1357 8.84187C13.1357 8.84177 13.1357 8.84167 13.1358 8.84156C13.1607 8.77976 13.1845 8.71731 13.2073 8.65392C13.2153 8.63175 13.2231 8.60979 13.2306 8.58792C13.2605 8.50086 13.2879 8.41466 13.3185 8.31509C13.3225 8.30306 13.327 8.29002 13.3304 8.28031C13.334 8.26986 13.3375 8.25981 13.3409 8.25031C13.3439 8.24194 13.3468 8.23396 13.3495 8.22629C13.3498 8.22526 13.3502 8.22423 13.3506 8.2232C13.3536 8.21462 13.3564 8.20639 13.3591 8.19847C13.3617 8.19057 13.3643 8.18294 13.3667 8.1754C13.3667 8.17533 13.3667 8.17526 13.3667 8.17518C13.3692 8.1673 13.371 8.1613 13.3735 8.15289C13.3765 8.14233 13.379 8.13322 13.3819 8.12214C13.3846 8.11142 13.3874 8.1002 13.39 8.08886C13.3927 8.07751 13.3953 8.06593 13.3978 8.05415C13.4004 8.04237 13.4029 8.03038 13.4053 8.01827C13.4078 8.00617 13.4102 7.99389 13.4125 7.98155C13.4149 7.96919 13.4172 7.95669 13.4195 7.94413C13.4248 7.9152 13.4339 7.88832 13.4448 7.86939C13.4558 7.85047 13.4677 7.84101 13.4786 7.84327C13.4894 7.84554 13.4984 7.85943 13.5039 7.8821C13.5094 7.90476 13.5107 7.93439 13.5074 7.96422C13.5065 7.97235 13.5056 7.98051 13.5046 7.9887C13.504 7.99357 13.5034 7.99847 13.5029 8.00336C13.5013 8.0165 13.4997 8.0298 13.4979 8.04315C13.4962 8.05649 13.4944 8.06994 13.4924 8.08353C13.4905 8.09716 13.4884 8.11096 13.4862 8.12493C13.484 8.13887 13.4816 8.1531 13.4789 8.1675C13.4764 8.18157 13.4732 8.19755 13.4702 8.2118C13.468 8.22222 13.465 8.23499 13.4625 8.24562C13.4598 8.25672 13.457 8.26761 13.4543 8.27808C13.4515 8.28857 13.4487 8.29869 13.4461 8.30834C13.4458 8.30938 13.4455 8.31041 13.4452 8.31144C13.4428 8.31998 13.4405 8.3282 13.4383 8.33599C13.4359 8.34468 13.4336 8.35293 13.4315 8.36078C13.4292 8.36941 13.4279 8.37469 13.4263 8.38117C13.4068 8.46733 13.3824 8.57412 13.356 8.67544C13.3527 8.68817 13.3494 8.70082 13.346 8.71333C13.3283 8.77981 13.3096 8.84596 13.2896 8.91179C13.2751 8.95964 13.2599 9.00741 13.2441 9.05507C13.2208 9.1252 13.196 9.19517 13.1698 9.26463C13.1535 9.30777 13.137 9.34992 13.1196 9.3926C13.0742 9.50401 13.0249 9.61446 12.9713 9.72322C12.9178 9.83183 12.8598 9.93927 12.7973 10.0442C12.788 10.0598 12.7785 10.0754 12.769 10.091C12.7142 10.1802 12.6546 10.2693 12.5928 10.3529C12.5393 10.4251 12.4795 10.4954 12.4218 10.5581C12.3908 10.5918 12.3599 10.6242 12.3289 10.6557C12.3288 10.6558 12.3287 10.6559 12.3285 10.656C12.3013 10.6836 12.2742 10.7105 12.2471 10.737C12.1889 10.7939 12.1311 10.8488 12.073 10.9034C12.0151 10.9578 11.9572 11.0116 11.8988 11.0655C11.8408 11.1191 11.7816 11.1733 11.7228 11.2267C11.6637 11.2804 11.6055 11.3329 11.5437 11.3876C11.4626 11.4597 11.3811 11.5304 11.2955 11.6011C11.2106 11.6714 11.1232 11.7404 11.0336 11.8073C11.0023 11.8307 10.9707 11.8538 10.9388 11.8767C10.9386 11.8768 10.9385 11.8769 10.9384 11.8769C10.8794 11.9193 10.8195 11.9607 10.7586 12.0011C10.6647 12.0634 10.5685 12.1233 10.4699 12.1801C10.3714 12.237 10.2703 12.291 10.1665 12.3412C10.1327 12.3575 10.0984 12.3736 10.0636 12.3892C9.99157 12.4216 9.91757 12.4522 9.84218 12.4797C9.74249 12.5162 9.64062 12.5491 9.54027 12.5785C9.51377 12.5862 9.4872 12.5938 9.4606 12.6012C9.33437 12.6362 9.21142 12.6669 9.0898 12.6972C8.96821 12.7275 8.84653 12.7575 8.72305 12.7872C8.59996 12.8168 8.47457 12.8459 8.34703 12.873C8.21895 12.9003 8.09142 12.9252 7.96008 12.9476C7.82974 12.9699 7.6976 12.9893 7.56267 13.0054C7.48767 13.0143 7.40753 13.021 7.33163 13.0252C7.25498 13.0295 7.17864 13.0315 7.1032 13.0318C7.07258 13.032 7.04208 13.0318 7.01179 13.0314C6.96762 13.0309 6.92378 13.0298 6.8806 13.0286C6.80768 13.0265 6.73643 13.0237 6.6669 13.0211C6.59739 13.0186 6.52963 13.0164 6.46353 13.0155C6.46177 13.0154 6.46003 13.0154 6.45829 13.0154C6.39215 13.0145 6.33646 13.0151 6.26923 13.0172C6.10299 13.014 6.00169 12.9983 5.88966 12.9794C5.86759 12.9756 5.84503 12.9718 5.8215 12.9676C5.68747 12.9424 5.55485 12.9098 5.42569 12.8714C5.29531 12.8327 5.16869 12.7883 5.04276 12.7374C4.91805 12.6871 4.79481 12.6304 4.67487 12.5684C4.55512 12.5066 4.43839 12.4394 4.32476 12.3668C4.21118 12.2943 4.09882 12.2149 3.99468 12.134C3.93447 12.0873 3.87225 12.0355 3.81584 11.9858C3.77514 11.9501 3.73569 11.914 3.69753 11.8783C3.68195 11.8637 3.66654 11.8491 3.65134 11.8346C3.60086 11.7864 3.55243 11.739 3.50563 11.6933C3.50385 11.6916 3.50207 11.6899 3.5003 11.6881C3.4518 11.6408 3.40491 11.5954 3.35828 11.5517C3.31161 11.5079 3.26519 11.466 3.21785 11.4248C3.17687 11.3893 3.14131 11.3593 3.09916 11.325C3.09074 11.3182 3.08207 11.3112 3.07306 11.3039C3.03774 11.2755 3.00334 11.2474 2.96923 11.219C2.91822 11.1765 2.86796 11.1335 2.81782 11.0896C2.7677 11.0456 2.71866 11.0016 2.6697 10.9567C2.65396 10.9423 2.63743 10.9269 2.62171 10.9123C2.57315 10.8671 2.5255 10.8219 2.47809 10.7762C2.43077 10.7306 2.3841 10.6849 2.33768 10.6389C2.29108 10.5928 2.24535 10.547 2.19878 10.4998C2.11951 10.4197 2.05449 10.3346 2.0009 10.2579C1.94679 10.1803 1.89998 10.1052 1.85589 10.0312C1.84763 10.0174 1.83943 10.0035 1.83128 9.98955C1.79624 9.92956 1.76285 9.86992 1.73037 9.81091C1.69035 9.73818 1.65175 9.66634 1.61362 9.59384C1.57583 9.52196 1.53829 9.44894 1.50162 9.37671C1.4646 9.30379 1.42963 9.23369 1.39232 9.15774C1.35552 9.08255 1.31696 9.00636 1.2767 8.92164C1.23679 8.83769 1.19707 8.74838 1.16088 8.65625C1.12468 8.56431 1.09181 8.46927 1.06352 8.37369C1.03513 8.27787 1.01089 8.18055 0.990923 8.08376C0.988626 8.07263 0.986382 8.0615 0.984191 8.05036C0.967217 7.96409 0.953434 7.8777 0.942484 7.7914C0.930102 7.69411 0.921105 7.59325 0.915945 7.49865C0.907551 7.3455 0.905526 7.19296 0.909157 7.04062C0.912801 6.8891 0.922161 6.73758 0.936949 6.58729C0.951711 6.43726 0.971871 6.28798 0.997251 6.14023C1.02264 5.99241 1.05322 5.84591 1.08871 5.70129C1.09656 5.6693 1.10465 5.63739 1.11298 5.60557C1.1423 5.49352 1.17461 5.38251 1.20956 5.27316C1.20982 5.27241 1.21008 5.27166 1.21034 5.27092C1.25535 5.13017 1.30413 4.99391 1.35729 4.85831C1.37678 4.80855 1.39609 4.76096 1.41606 4.7129C1.43607 4.66474 1.45612 4.61775 1.47673 4.57055C1.49738 4.52325 1.51823 4.47655 1.53908 4.43067C1.56012 4.38433 1.58094 4.33934 1.60203 4.29405C1.61655 4.26294 1.63097 4.23199 1.64637 4.19959C1.6515 4.18879 1.65673 4.17784 1.66212 4.16668C1.66409 4.1626 1.66606 4.15852 1.66803 4.15445C1.69169 4.10563 1.72 4.05073 1.74828 4.00077C1.82332 3.86847 1.90011 3.74219 1.98183 3.61648C2.06362 3.49072 2.14887 3.36814 2.23882 3.248C2.27395 3.20109 2.3098 3.15447 2.34636 3.10845C2.40323 3.03685 2.46186 2.9664 2.52231 2.89736C2.62175 2.78375 2.72588 2.67429 2.83508 2.56926C2.94386 2.46462 3.05774 2.36447 3.17492 2.27026C3.29199 2.1761 3.41387 2.08664 3.53717 2.00387C3.67456 1.91165 3.81441 1.82624 3.95729 1.74657C4.06421 1.68698 4.17255 1.63083 4.28177 1.57825C4.31829 1.56066 4.35486 1.5435 4.39151 1.52673C4.53841 1.45952 4.68676 1.3986 4.83643 1.34372C4.98619 1.28881 5.13713 1.24001 5.28895 1.19716C5.37981 1.17153 5.47094 1.14805 5.56226 1.12669C5.60943 1.11235 5.6548 1.09931 5.69861 1.0874C6.02259 1.00127 6.26261 0.962519 6.5786 0.940423C6.60882 0.938283 6.63337 0.936415 6.66321 0.934453C6.66891 0.934081 6.67495 0.933708 6.68111 0.933334C6.72014 0.930989 6.76499 0.928819 6.82745 0.928056C6.9519 0.92628 7.14347 0.932652 7.38606 0.959213C7.44731 0.966048 7.48612 0.972875 7.47312 0.974381C7.46398 0.975546 7.43175 0.974821 7.39234 0.973421C7.46527 0.977783 7.53777 0.983297 7.60984 0.989888C7.63858 0.992524 7.66553 0.995371 7.68467 0.997311C7.7024 0.999127 7.7121 1.00001 7.7121 1C7.7121 1 7.7121 1 7.7121 1C7.7121 1 7.71204 0.999995 7.71192 0.999985C7.71027 0.999841 7.69726 0.998795 7.67573 0.99759C7.6542 0.996364 7.62598 0.995116 7.59713 0.993881C7.52058 0.990575 7.44417 0.988785 7.36762 0.988544C7.291 0.988306 7.21467 0.989624 7.13805 0.992543C7.06148 0.995459 6.98489 0.999974 6.90809 1.00614C6.83161 1.01229 6.755 1.02006 6.67839 1.0295C6.60129 1.03901 6.52576 1.04998 6.4492 1.06276C6.40333 1.07042 6.35698 1.07876 6.31156 1.08757C6.29463 1.09084 6.27813 1.09414 6.26163 1.0975C6.24815 1.10024 6.2346 1.10304 6.22066 1.10599C6.07404 1.13699 5.92705 1.17452 5.78295 1.21782C5.63816 1.2613 5.49509 1.31085 5.35414 1.36635C5.2131 1.42188 5.07432 1.48336 4.93809 1.5506C4.80193 1.61781 4.66847 1.69073 4.53791 1.76934C4.50745 1.78769 4.4771 1.80637 4.4469 1.82538C4.34829 1.88741 4.25142 1.95276 4.15691 2.02111C4.06143 2.09016 3.96894 2.16185 3.87876 2.23663C3.84527 2.26842 3.81246 2.30021 3.78048 2.33193C3.68735 2.42428 3.6004 2.52297 3.51928 2.6234C3.67784 2.45847 3.8106 2.33076 3.94194 2.21448C3.95956 2.19892 3.97718 2.18357 3.99487 2.1684C4.13237 2.05075 4.2727 1.94298 4.45068 1.83104C4.50659 1.79595 4.56621 1.7606 4.63073 1.72482C5.40414 1.30518 5.90725 1.20191 6.21013 1.1317C6.51658 1.06864 6.65069 1.05879 6.77517 1.04853C6.95113 1.03375 7.28813 1.00582 7.45799 1.00255C7.51971 1.00076 7.56946 1.00171 7.56923 1.00325C7.56896 1.00483 7.51889 1.00899 7.45744 1.01392C7.27851 1.02511 6.91743 1.07218 6.71116 1.0993C6.61935 1.11154 6.51263 1.12245 6.21723 1.19575C5.92582 1.27598 5.43827 1.39644 4.69506 1.833C4.63378 1.86975 4.57736 1.90583 4.52451 1.94153C4.3623 2.05134 4.23365 2.15627 4.10542 2.27258C4.08876 2.28773 4.07213 2.30313 4.05544 2.31874C4.05533 2.31884 4.05522 2.31893 4.05511 2.31902C3.90159 2.46335 3.7418 2.62762 3.53943 2.85852C3.05386 3.38238 2.64761 4.2488 2.59542 4.46522C2.58364 4.50322 2.5732 4.54035 2.5628 4.57919C2.56172 4.58322 2.56064 4.58726 2.55957 4.59133C2.51813 4.75783 2.46122 4.95705 2.37427 5.40631C2.35602 5.50467 2.3353 5.61977 2.31616 5.74573C2.31956 5.94062 2.33416 6.12716 2.34501 6.2869C2.35428 6.4249 2.38401 6.55195 2.42147 6.67228C2.43225 6.70694 2.44391 6.7416 2.45591 6.77598C2.48485 6.8589 2.51614 6.9404 2.54343 7.01883C2.56518 7.08139 2.59168 7.14598 2.62129 7.21307C2.6841 7.35545 2.76069 7.50872 2.83678 7.68186C2.89148 7.80631 2.9459 7.94102 2.99622 8.09204C3.12426 8.47492 3.25843 8.79277 3.39094 9.06037C3.3 8.86038 3.2489 8.69849 3.21125 8.56332C3.20417 8.5378 3.19764 8.51329 3.19151 8.48969C3.14855 8.32281 3.12362 8.20149 3.08035 8.07623C3.0249 7.91424 2.98465 7.77715 2.95108 7.65912C2.86248 7.33988 2.81352 7.16225 2.74303 6.96476C2.71813 6.8933 2.68827 6.81361 2.65894 6.726C2.60017 6.55123 2.54426 6.34337 2.53003 6.11767C2.51652 5.90786 2.50514 5.66826 2.51653 5.41123C2.51655 5.41113 2.51657 5.41103 2.51659 5.41094C2.51879 5.36076 2.52185 5.30986 2.52585 5.25853C2.54236 5.04551 2.57591 4.82421 2.63069 4.60731C2.65635 4.50547 2.68656 4.40469 2.72119 4.30633C2.7328 4.27337 2.7465 4.23379 2.76302 4.18848C2.85582 3.9285 3.05799 3.46758 3.46808 3.02623C3.55741 2.9295 3.65761 2.83588 3.77501 2.73364C3.8108 2.70251 3.84826 2.67064 3.88758 2.63767C4.05773 2.4959 4.26616 2.32735 4.5575 2.12183C4.57699 2.10814 4.59691 2.09428 4.61722 2.08029C4.84733 1.92131 5.13006 1.7471 5.43959 1.59624C5.60531 1.51519 5.77829 1.44051 5.95232 1.37524C6.47848 1.17873 6.98915 1.06881 7.50771 1.01685C7.50782 1.01684 7.50792 1.01683 7.50803 1.01682C7.56931 1.01098 7.61756 1.00814 7.61539 1.00933C7.61325 1.01055 7.56166 1.01799 7.50066 1.02705C6.98366 1.10268 6.48252 1.23447 5.97241 1.44937C5.80572 1.51987 5.63942 1.59966 5.48011 1.68545C5.18271 1.84502 4.91102 2.02668 4.69107 2.19081C4.66937 2.20696 4.64816 2.22291 4.62746 2.23863C4.34591 2.45336 4.14596 2.62726 3.98358 2.77226C3.94458 2.8073 3.90818 2.84057 3.87391 2.87251C3.7649 2.97426 3.67678 3.06209 3.59762 3.15335C3.22701 3.57857 3.04997 4.01116 2.96632 4.26536C2.9511 4.3107 2.93839 4.35063 2.92746 4.38452C2.89469 4.48606 2.86681 4.59028 2.84392 4.69563C2.80054 4.8949 2.77541 5.09798 2.76508 5.29503C2.76249 5.34392 2.76074 5.39247 2.75982 5.44055C2.75984 5.44066 2.75986 5.44076 2.75988 5.44086C2.75501 5.68803 2.77179 5.92162 2.79001 6.12548C2.80842 6.33272 2.86144 6.51148 2.91928 6.67228C2.95035 6.75865 2.98277 6.8401 3.01259 6.91922C3.08929 7.11841 3.14284 7.29578 3.23465 7.60272C3.2687 7.71405 3.30894 7.84209 3.36293 7.99186ZM7.27934 0.967626C7.12874 0.959906 7.00507 0.959417 6.91313 0.962148C6.99142 0.961102 7.0693 0.961507 7.147 0.963278C7.19126 0.964283 7.2353 0.965742 7.27934 0.967626ZM2.06179 5.71874C2.06192 5.69426 2.06221 5.66957 2.06269 5.64477C2.05193 5.71143 2.04224 5.77825 2.03379 5.84508C2.02341 5.92715 2.01473 6.00936 2.00785 6.09165C2.02311 5.96127 2.04188 5.83547 2.06179 5.71874ZM2.7134 8.17581C2.66159 8.01286 2.60651 7.87026 2.55101 7.7387C2.4831 7.57755 2.41462 7.43306 2.35564 7.29244C2.32483 7.21893 2.29673 7.14645 2.27306 7.07371C2.26324 7.04354 2.25294 7.01329 2.24243 6.98267C2.24939 7.16377 2.26434 7.32997 2.28082 7.46554C2.29542 7.58583 2.31032 7.69054 2.32431 7.78379C2.35783 8.00403 2.38436 8.16045 2.41161 8.30315C2.42298 8.36187 2.43482 8.41824 2.44847 8.47539C2.47357 8.51807 2.49975 8.56202 2.5256 8.60641C2.56187 8.66852 2.60097 8.73512 2.63833 8.79797C2.67583 8.86106 2.71404 8.92467 2.75158 8.98677C2.78944 9.04937 2.82704 9.11101 2.86486 9.1719C2.90046 9.22919 2.93625 9.28589 2.97182 9.34005C2.97385 9.34315 2.97588 9.34626 2.97792 9.34935C3.01564 9.4065 3.05335 9.46133 3.09052 9.50995C3.12841 9.55941 3.16256 9.59869 3.19707 9.63052C3.24016 9.6703 3.2841 9.7107 3.32743 9.75022C3.37081 9.78979 3.41384 9.82877 3.45667 9.86726C3.49959 9.90581 3.54209 9.94355 3.58473 9.98094C3.59852 9.99304 3.61295 10.0056 3.62664 10.0175C3.63295 10.023 3.63929 10.0284 3.64559 10.0339C3.5771 9.94928 3.50899 9.85904 3.44249 9.76309C3.34646 9.62443 3.25529 9.46871 3.16524 9.29236C3.01233 8.99101 2.85939 8.63166 2.7134 8.17581ZM4.88709 11.1035C4.84719 11.0785 4.78832 11.0426 4.71378 10.994C4.69616 10.9825 4.67756 10.9703 4.65825 10.9573C4.65865 10.9577 4.6591 10.9581 4.6595 10.9584C4.7016 10.9987 4.74138 11.0349 4.7856 11.0726C4.86447 11.1396 4.94397 11.2017 5.0269 11.2609C5.11016 11.3203 5.19586 11.376 5.28394 11.4281C5.37215 11.4803 5.46298 11.5289 5.55495 11.573C5.64783 11.6176 5.74128 11.6577 5.83735 11.6936C5.86794 11.705 5.89882 11.716 5.92983 11.7266C5.86373 11.6942 5.79534 11.6609 5.72407 11.624C5.66717 11.5946 5.60843 11.563 5.54783 11.5277C5.52464 11.5143 5.49704 11.497 5.46513 11.4766C5.33854 11.3951 5.1452 11.2646 4.88709 11.1035ZM6.73233 11.8682C6.75569 11.871 6.77884 11.8738 6.80176 11.8768C6.86692 11.8851 6.93023 11.8937 6.99236 11.9016C7.03601 11.9072 7.07913 11.9125 7.12174 11.9172C7.13971 11.9191 7.15767 11.921 7.17547 11.9227C7.20531 11.9257 7.23494 11.9282 7.26437 11.9304C7.07229 11.9017 6.88638 11.8652 6.69581 11.8213C6.68279 11.8183 6.66974 11.8153 6.65668 11.8122C6.65398 11.8116 6.65126 11.811 6.64854 11.8104C6.6631 11.8206 6.67757 11.8307 6.69196 11.8407C6.7055 11.85 6.71896 11.8592 6.73233 11.8682Z" fill="var(--stroke-0, #FF6B6B)"/>
</svg>
