<svg preserveAspectRatio="none" width="100%" height="100%" overflow="visible" style="display: block;" viewBox="0 0 30 29" fill="none" xmlns="http://www.w3.org/2000/svg">
<path id="Vector" d="M26.4289 15.1655C26.5762 14.7545 26.7289 14.3689 26.9095 13.9244L27.1764 15.1566C27.095 15.0706 27.011 14.9817 26.9235 14.8888C26.9232 14.8886 26.923 14.8884 26.9227 14.8881C26.8595 14.8211 26.7945 14.752 26.7272 14.6806C26.1852 14.106 25.4792 13.3611 24.3941 12.2585C23.1951 11.0403 22.2951 10.0211 21.7675 9.37677C21.6692 9.25658 21.5619 9.13756 21.2819 8.84693C21.1417 8.70135 20.9629 8.51756 20.7257 8.27405C20.6523 8.19873 20.5734 8.11768 20.4883 8.03029C20.2967 7.83353 20.0738 7.6045 19.8131 7.33604C18.9502 6.44746 17.5773 5.0753 16.3159 3.80737C15.5502 3.03792 14.8251 2.30694 14.278 1.74813C14.2186 1.68742 14.1593 1.62682 14.1002 1.56629L14.9477 1.74986C13.9564 2.10784 12.9856 2.44723 11.9368 2.81312C10.8991 3.17501 9.78502 3.56294 8.49856 4.01869C7.51142 4.36821 6.53517 4.66196 5.54272 4.95953C5.41641 4.99738 5.28956 5.0354 5.1626 5.07347C5.06881 5.1016 4.97481 5.12982 4.88054 5.15819C4.73345 5.1968 4.5916 5.27682 4.47738 5.39294C4.36545 5.50624 4.28048 5.65411 4.24001 5.81965C4.15759 6.1895 4.07602 6.56829 3.99588 6.95936C3.63541 8.72156 3.40879 10.138 3.14822 11.7046C3.04653 12.3174 2.94007 12.9533 2.82026 13.6422C2.63081 14.7318 2.34576 16.296 2.05814 17.8663C2.03364 18.0001 2.00913 18.1341 1.98464 18.2677C1.98452 18.2683 1.98439 18.269 1.98427 18.2697C1.7207 19.7071 1.46134 21.1178 1.27257 22.153C0.972563 23.7981 0.861765 24.4173 0.768561 24.9337C0.733493 25.1278 0.700836 25.3075 0.661229 25.5215C0.518529 26.2925 0.295704 27.4552 0.0701174 28.6337C0.0692557 28.6382 0.0683951 28.6427 0.0675334 28.6472C0.0298642 28.8428 -0.000380224 29.0006 7.61407e-07 28.9997C0.000386483 28.9988 0.0286871 28.8391 0.0632298 28.643C0.174129 28.0173 0.282465 27.4068 0.379051 26.86C0.3773 26.8306 0.397141 26.6823 0.427306 26.5057C0.502544 26.0635 0.731921 24.7089 1.05826 22.5835C1.03069 22.7282 1.00734 22.8493 0.986764 22.9555C0.962616 23.0801 0.943969 23.1756 0.928024 23.2576C0.894816 23.4287 0.87306 23.5426 0.838147 23.7453C0.760156 24.2154 0.642017 24.955 0.517965 25.7333C0.486448 25.9298 0.45245 26.0871 0.441985 26.0845C0.431531 26.0817 0.446188 25.9197 0.474781 25.7227C0.475342 25.7188 0.475903 25.715 0.476465 25.7111C0.589414 24.9386 0.701817 24.1737 0.777387 23.6816C0.796614 23.5564 0.813481 23.4486 0.826327 23.3678C0.836595 23.3031 0.849521 23.2224 0.857423 23.1776C0.858473 23.1717 0.860492 23.1604 0.863016 23.1469C0.863062 23.1467 0.863108 23.1464 0.863154 23.1462C0.864564 23.1387 0.871732 23.1002 0.881032 23.0594C0.882911 23.0511 0.887033 23.0332 0.89249 23.0126C0.893482 23.0072 0.894477 23.0017 0.89547 22.9963C0.909318 22.921 0.923533 22.8441 0.938739 22.7609C0.998254 22.436 1.08983 21.9209 1.27601 20.8475C1.44711 19.8602 1.7245 18.1892 2.0607 16.1025C2.03485 16.243 2.00913 16.3838 1.98363 16.5245C1.91948 16.8786 1.85625 17.2346 1.79379 17.5908C1.76987 17.7272 1.74635 17.8619 1.72255 17.9991C1.68421 18.22 1.64602 18.4415 1.60812 18.663C1.5825 18.8127 1.55695 18.9627 1.53151 19.1126C1.53146 19.1129 1.53141 19.1132 1.53135 19.1136C1.49604 19.3216 1.4608 19.5301 1.42541 19.7403C1.41296 19.8139 1.40072 19.8865 1.3886 19.9587C1.34038 20.246 1.29324 20.5282 1.23709 20.8528C1.22999 20.8923 1.22209 20.9351 1.21609 20.967C1.20966 21.0013 1.20343 21.0343 1.19746 21.0655C1.1922 21.0931 1.18713 21.1193 1.1823 21.1445C1.18166 21.1478 1.18101 21.1512 1.18037 21.1546C1.17497 21.1828 1.16985 21.2097 1.16496 21.2356C1.16008 21.2614 1.15538 21.2863 1.15087 21.3109C1.15084 21.3111 1.1508 21.3113 1.15077 21.3115C1.14607 21.3372 1.14251 21.3566 1.1377 21.3839C1.13167 21.418 1.12657 21.4474 1.12054 21.483C1.11471 21.5174 1.10873 21.5534 1.10277 21.5897C1.09682 21.626 1.09083 21.663 1.0848 21.7005C1.07877 21.7381 1.07267 21.7763 1.06658 21.8148C1.06049 21.8533 1.05437 21.8923 1.04822 21.9315C1.04206 21.9707 1.03585 22.0104 1.02963 22.0502C1.01528 22.142 0.997241 22.2292 0.979613 22.2926C0.961971 22.3558 0.946224 22.3901 0.935376 22.3879C0.924532 22.3856 0.919298 22.3469 0.920426 22.2803C0.921579 22.2135 0.92904 22.1242 0.941299 22.032C0.944639 22.007 0.947983 21.9817 0.951357 21.9564C0.95336 21.9414 0.955401 21.9262 0.957418 21.9111C0.96284 21.8705 0.968302 21.8295 0.973857 21.7882C0.979409 21.747 0.985057 21.7054 0.990801 21.6633C0.996563 21.6211 1.00244 21.5783 1.0085 21.535C1.01454 21.4917 1.0208 21.4476 1.02728 21.4027C1.0336 21.3589 1.04098 21.309 1.04775 21.2644C1.05269 21.2318 1.05898 21.1917 1.06428 21.1582C1.06982 21.1233 1.07537 21.0889 1.08078 21.0558C1.08621 21.0227 1.09155 20.9906 1.09664 20.96C1.09718 20.9567 1.09772 20.9534 1.09826 20.9501C1.10277 20.9231 1.10713 20.8969 1.11122 20.8722C1.11579 20.8446 1.12006 20.8185 1.12406 20.7936C1.12848 20.7662 1.13104 20.7496 1.13417 20.7292C1.17378 20.4588 1.22051 20.1242 1.26511 19.8051C1.27071 19.7651 1.2763 19.7252 1.28182 19.6857C1.31109 19.4762 1.34026 19.267 1.36943 19.0581C1.39063 18.9062 1.41186 18.7541 1.43317 18.6019C1.46452 18.3778 1.49608 18.1531 1.52773 17.9287C1.54739 17.7893 1.56676 17.6525 1.5865 17.5134C1.63803 17.1504 1.69017 16.7862 1.74327 16.4218C1.7963 16.0578 1.85052 15.6917 1.90627 15.3255C1.96182 14.9608 2.02114 14.5822 2.08145 14.2171C2.12586 13.9487 2.17545 13.6742 2.22282 13.4205C2.24828 13.2841 2.27352 13.1507 2.29859 13.0192C2.29869 13.0187 2.29878 13.0183 2.29888 13.0179C2.32089 12.9025 2.34272 12.7885 2.36428 12.6754C2.41055 12.4329 2.4555 12.1946 2.49934 11.9561C2.54313 11.718 2.58565 11.4807 2.62716 11.2415C2.66835 11.004 2.709 10.7624 2.74801 10.5229C2.78722 10.2822 2.82454 10.0457 2.86274 9.79705C2.91286 9.47005 2.96101 9.14507 3.01013 8.81137C3.05883 8.48011 3.10733 8.14608 3.15592 7.81116C3.1729 7.69409 3.18999 7.57681 3.20701 7.45937C3.20708 7.45892 3.20715 7.45847 3.20722 7.45801C3.23869 7.24077 3.27023 7.023 3.30188 6.80506C3.35075 6.46859 3.3999 6.13122 3.44984 5.79267C3.45488 5.75855 3.45992 5.72441 3.46497 5.69024C3.51057 5.38993 3.63712 5.10002 3.83046 4.86031C3.89415 4.78115 3.96491 4.7074 4.04173 4.64024C4.19464 4.50647 4.3734 4.39786 4.56753 4.3237C4.75057 4.25329 4.93549 4.18293 5.12131 4.11351C5.41957 4.00196 5.72067 3.89077 6.01515 3.7823C6.09291 3.75365 6.17068 3.72502 6.24845 3.69639C6.61743 3.56048 6.9744 3.42823 7.32607 3.29391C7.67752 3.15978 8.02745 3.02233 8.3795 2.8807C8.73047 2.73951 9.08486 2.59383 9.44144 2.4452C9.79956 2.29594 10.1524 2.1468 10.512 1.99363C10.8689 1.84158 11.227 1.6878 11.5892 1.53139C11.7906 1.44448 12.0053 1.35319 12.2084 1.26767C12.4135 1.18131 12.6175 1.09623 12.8191 1.01259C12.9009 0.978644 12.9823 0.944954 13.0632 0.911454C13.1811 0.862605 13.2979 0.814235 13.4129 0.766427C13.607 0.685741 13.7961 0.606505 13.9793 0.528319C14.1297 0.464158 14.2762 0.40064 14.4181 0.337526L14.8542 0.179743L15.1668 0.499706C15.1922 0.522181 15.2174 0.544468 15.2425 0.566564C15.3878 0.694319 15.509 0.798101 15.656 0.920346C16.0081 1.22383 16.2194 1.41875 16.4542 1.63533C16.5004 1.67798 16.5477 1.7215 16.5971 1.76683C16.878 2.02713 17.1565 2.28941 17.4297 2.54987C17.7055 2.81288 17.9753 3.07339 18.2471 3.33882C18.5163 3.60167 18.7858 3.86802 19.0528 4.13471C19.3194 4.40097 19.5841 4.66822 19.848 4.93763C20.1118 5.20683 20.3794 5.48311 20.6351 5.74973C20.7828 5.9038 20.9388 6.06845 21.0832 6.22187C21.1873 6.33252 21.2898 6.44186 21.3902 6.54907C21.4312 6.59286 21.4719 6.63638 21.5123 6.67947C21.6464 6.82261 21.7771 6.96172 21.9042 7.09551C21.9091 7.10059 21.9139 7.10567 21.9187 7.11073C22.0505 7.24923 22.1788 7.38238 22.3059 7.51124C22.4331 7.64034 22.5591 7.76518 22.6866 7.88858C22.8188 8.01642 22.9298 8.12142 23.0734 8.254C23.1669 8.34029 23.2587 8.42475 23.3502 8.50896C23.4871 8.63503 23.6232 8.76006 23.7604 8.88587C23.8975 9.01152 24.033 9.13542 24.1694 9.25976C24.2132 9.29972 24.2595 9.34194 24.3035 9.38199C24.4396 9.50571 24.5743 9.62779 24.7092 9.74941C24.8439 9.87079 24.9777 9.99072 25.1113 10.1097C25.2455 10.2292 25.3779 10.3463 25.5134 10.4652C25.7437 10.6673 25.9565 10.8684 26.1413 11.046C26.3282 11.2258 26.5011 11.3957 26.6692 11.5612C26.7007 11.5922 26.7322 11.6232 26.7637 11.6542C26.8992 11.7877 27.0324 11.9192 27.164 12.0484C27.3261 12.2075 27.4858 12.3633 27.6465 12.5191C27.8058 12.6735 27.9672 12.829 28.1269 12.9813C28.2881 13.135 28.4428 13.2814 28.6103 13.4385C28.6588 13.484 28.7077 13.5296 28.7573 13.5756L29.2481 14.078L29.0029 14.7094C28.9513 14.8642 28.8992 15.0236 28.8435 15.1934C28.7654 15.4315 28.683 15.6812 28.5975 15.9333C28.5122 16.1851 28.4236 16.4403 28.3335 16.6928C28.2432 16.9458 28.1505 17.1989 28.0574 17.4478C27.9638 17.698 27.869 17.9461 27.7733 18.1924C27.6778 18.4382 27.5777 18.6915 27.4829 18.9281C27.3293 19.3113 27.1753 19.6923 27.0205 20.0738C26.8665 20.4533 26.7115 20.8336 26.5564 21.2131C26.4015 21.5918 26.2461 21.9708 26.0907 22.3491C25.9351 22.7276 25.7793 23.1059 25.6235 23.4836C25.5891 23.5671 25.5546 23.6506 25.5201 23.7341C25.3991 24.0274 25.2779 24.3206 25.1573 24.6126C25.1567 24.6141 25.1561 24.6155 25.1556 24.6169C25.1542 24.6203 25.1527 24.6238 25.1513 24.6272C25.003 24.9939 24.7603 25.3148 24.4567 25.5546C24.2251 25.738 23.9583 25.8744 23.6754 25.9548C23.5805 25.9817 23.4854 26.002 23.3903 26.0161C23.3028 26.0278 23.2168 26.0394 23.13 26.0511C22.9862 26.0705 22.8451 26.0896 22.7028 26.1091C22.5603 26.1287 22.4186 26.1483 22.2792 26.1678C22.1382 26.1876 22.0008 26.2071 21.8623 26.2272C21.7353 26.2456 21.6092 26.2643 21.4715 26.2847C21.4589 26.2866 21.4464 26.2884 21.4338 26.2903C21.2831 26.3126 21.1116 26.3372 20.9519 26.3587C20.529 26.4155 20.1169 26.4714 19.6975 26.529C19.2778 26.5866 18.8592 26.6445 18.4371 26.703C18.2722 26.7258 18.1066 26.7488 17.9409 26.7716C17.6832 26.8072 17.4245 26.8427 17.165 26.8781C16.7379 26.9362 16.3099 26.9935 15.8788 27.0499C15.4493 27.1061 15.0169 27.1613 14.5862 27.2151C14.1559 27.2687 13.7216 27.3217 13.2928 27.373C12.8151 27.4301 12.3401 27.4865 11.8629 27.5431C11.3865 27.5995 10.9098 27.6559 10.4353 27.7122C9.95898 27.7686 9.48391 27.825 9.00872 27.8816C8.53325 27.9382 8.05812 27.995 7.5827 28.052C7.29816 28.0862 7.01373 28.1204 6.72918 28.1548C6.57917 28.1762 6.43533 28.1966 6.29693 28.2161C5.27427 28.3596 4.53388 28.4577 3.55582 28.5793C3.46218 28.5912 3.38604 28.6011 3.29339 28.6131C3.27572 28.6154 3.25696 28.6178 3.23784 28.6202C3.11675 28.6358 2.97764 28.6535 2.78394 28.6769C2.39761 28.7241 1.80446 28.7906 1.03813 28.8774C0.844539 28.8993 0.721086 28.9116 0.76228 28.9037C0.791229 28.8981 0.893495 28.8832 1.01847 28.866C0.787284 28.896 0.556757 28.9261 0.326869 28.9565C0.235107 28.9685 0.148939 28.9798 0.0877344 28.9879C0.0310109 28.9954 9.77485e-07 28.9997 0 28.9997C0 28.9997 0 28.9997 0 28.9997C1.49686e-07 28.9997 0.000190709 28.9997 0.000574213 28.9997C0.00585494 28.9989 0.0474343 28.993 0.116148 28.983C0.184842 28.9729 0.274937 28.9595 0.366897 28.946C0.610855 28.9102 0.853992 28.8746 1.09718 28.839C1.34056 28.8034 1.58279 28.7678 1.82573 28.7322C2.06861 28.6965 2.31138 28.6608 2.55491 28.6249C2.79749 28.5891 3.04054 28.5532 3.28401 28.5171C3.52903 28.4808 3.7694 28.445 4.01368 28.4086C4.16004 28.3868 4.30816 28.3646 4.45355 28.3429C4.50774 28.3348 4.56061 28.3268 4.61352 28.3189C4.65676 28.3124 4.70022 28.3059 4.74496 28.2992C5.21556 28.2286 5.69062 28.1569 6.16133 28.0855C6.63428 28.0137 7.10669 27.9416 7.579 27.8691C8.05158 27.7965 8.52368 27.7235 8.99592 27.6502C9.46793 27.5768 9.93959 27.5031 10.4121 27.4289C10.8828 27.3548 11.3554 27.2801 11.8268 27.205C12.1914 27.147 12.5528 27.089 12.9148 27.0306C13.0568 27.0045 13.1973 26.9788 13.3361 26.9534C13.7398 26.8795 14.1434 26.8012 14.5407 26.7227C13.8303 26.8431 13.2603 26.9442 12.7175 27.0392C12.6447 27.0519 12.5724 27.0646 12.5003 27.0771C11.7645 27.2054 11.0529 27.325 10.0931 27.4701C7.36356 27.883 5.78071 28.1215 4.79416 28.2686C3.8078 28.4157 3.38354 28.4763 2.98725 28.5307C2.42721 28.6073 1.35042 28.7797 0.809584 28.868C0.61307 28.8997 0.454246 28.9241 0.454881 28.9225C0.455573 28.9208 0.615074 28.8911 0.811107 28.8562C1.38089 28.7553 2.54338 28.5524 3.20876 28.4541C3.50509 28.4101 3.84551 28.3574 4.81485 28.2006C5.78432 28.0439 7.34931 27.788 10.0792 27.3448C11.0027 27.1951 11.6864 27.0731 12.4132 26.9389C12.4845 26.9258 12.5563 26.9125 12.6287 26.8991C12.6291 26.899 12.6296 26.8989 12.63 26.8989C13.2976 26.7753 14.0242 26.6387 15.0059 26.4663C17.2689 26.0702 20.3094 25.5159 21.0287 25.3697C21.1699 25.3411 21.3063 25.3128 21.4501 25.2829C21.8669 25.1962 22.3489 25.0954 23.209 24.9316C23.3834 24.8977 23.5698 24.8186 23.7343 24.6772C23.793 24.6267 23.8485 24.5683 23.8985 24.5022C23.9636 24.4161 24.0205 24.315 24.0611 24.2015C24.1397 23.9836 24.2252 23.7485 24.3159 23.5008C24.5063 22.8854 24.6912 22.2879 24.8599 21.7714C25.0056 21.3256 25.1249 20.9089 25.236 20.5034C25.2679 20.3866 25.2997 20.269 25.3314 20.1515C25.4078 19.8682 25.4839 19.5846 25.5627 19.3101C25.6256 19.0912 25.689 18.8611 25.7557 18.6178C25.9993 17.7318 26.2868 16.6683 26.775 15.325C26.937 14.8798 27.0936 14.4552 27.2447 14.0501L27.4296 14.9034C26.7565 14.2327 26.1578 13.625 25.6196 13.076C26.1896 13.6678 26.6245 14.1298 26.9862 14.5153C27.0545 14.588 27.1198 14.6577 27.1827 14.7247C27.2543 14.8011 27.3228 14.874 27.3888 14.9442L27.1907 14.0298C27.0003 14.4939 26.8511 14.8658 26.7066 15.2649C25.8847 17.5375 25.6023 18.3996 25.3185 19.3854C25.2438 19.6449 25.1652 19.9326 25.08 20.2425C24.91 20.8618 24.7138 21.5695 24.4751 22.3194C24.2971 22.8793 24.1079 23.4944 23.9077 24.144C23.8753 24.2593 23.8196 24.3718 23.7417 24.4718C23.7415 24.472 23.7414 24.4722 23.7412 24.4724C23.7133 24.5081 23.6827 24.5422 23.6495 24.5743C23.5913 24.6305 23.5252 24.6804 23.4527 24.7217C23.3723 24.7677 23.284 24.8031 23.1911 24.8257C22.2701 25.033 21.3136 25.2415 20.3769 25.4298C20.2636 25.4526 20.128 25.4805 19.9723 25.5124C19.0736 25.6978 17.494 26.0121 15.5517 26.3158C15.1252 26.3829 14.681 26.4467 14.1743 26.5211C14.02 26.5437 13.8598 26.5673 13.6926 26.5922C12.9706 26.6998 12.0944 26.8361 10.9304 27.0338C9.96975 27.197 8.80026 27.4035 7.58618 27.6197C6.98816 27.7262 6.37932 27.8351 5.77933 27.9427C3.96697 28.2677 2.30642 28.5689 0.650421 28.878C0.650084 28.878 0.649746 28.8781 0.649408 28.8782C0.453735 28.9145 0.300358 28.9423 0.307061 28.94C0.313836 28.9376 0.477432 28.9036 0.672498 28.8642C2.32569 28.5323 3.97759 28.2106 5.78027 27.8648C6.36995 27.7517 6.97283 27.6365 7.56737 27.5235C8.78501 27.2921 9.9686 27.0698 10.9365 26.8951C12.1183 26.6816 13.0091 26.5343 13.7398 26.4183C13.9158 26.3903 14.0813 26.3644 14.2385 26.3398C14.7388 26.2618 15.1549 26.1982 15.5589 26.1309C17.4367 25.82 18.9545 25.5057 19.8555 25.3129C20.0153 25.2789 20.1558 25.249 20.2755 25.224C21.2266 25.0254 22.2028 24.805 23.1512 24.5846C23.201 24.5706 23.249 24.5517 23.2941 24.5285C23.369 24.4901 23.4357 24.44 23.4912 24.382C23.501 24.3718 23.5105 24.3613 23.5196 24.3507C23.5197 24.3505 23.5198 24.3503 23.5199 24.3502C23.5952 24.262 23.6458 24.1591 23.6704 24.0549C23.8565 23.4375 24.0351 22.8459 24.2039 22.3047C24.4297 21.5809 24.6035 20.9411 24.7648 20.3421C24.8514 20.0207 24.9346 19.7111 25.0206 19.4068C25.3171 18.3593 25.6121 17.4483 26.4289 15.1655ZM1.37594 28.8198C1.85142 28.7598 2.23883 28.711 2.52707 28.673C2.28206 28.7039 2.03767 28.735 1.79312 28.7662C1.65393 28.784 1.51492 28.8019 1.37594 28.8198ZM24.5755 23.5354C24.5521 23.6095 24.5285 23.6841 24.5049 23.759C24.5792 23.5556 24.6537 23.3522 24.728 23.1492C24.8192 22.8998 24.9105 22.6506 25.0017 22.4014C24.8526 22.7961 24.7086 23.1787 24.5755 23.5354ZM27.0524 15.4254C26.5878 16.6906 26.3198 17.6657 26.0745 18.5437C26.0039 18.7966 25.9352 19.0417 25.8647 19.2832C25.8354 19.3834 25.8069 19.4837 25.7785 19.585C25.9947 19.0142 26.1941 18.4898 26.3576 18.0606C26.8455 16.7798 27.1409 16.0575 27.401 15.423C27.4763 15.2394 27.5486 15.063 27.6218 14.8827C27.6687 14.7284 27.7178 14.5684 27.7686 14.4071C27.7834 14.3599 27.7986 14.312 27.8139 14.2635L27.8594 14.4735C27.7164 14.3446 27.5682 14.2098 27.4262 14.0797C27.246 13.9146 27.0637 13.746 26.8856 13.5796C26.706 13.4118 26.5289 13.2446 26.3532 13.0776C26.1879 12.9205 26.0237 12.7634 25.8648 12.6113C25.8557 12.6026 25.8466 12.5939 25.8375 12.5852C25.6695 12.4245 25.5062 12.2682 25.3547 12.126C25.2003 11.9812 25.0705 11.8625 24.9519 11.7605C24.8038 11.633 24.6525 11.5017 24.5035 11.3712C24.3543 11.2405 24.2064 11.1099 24.0593 10.9791C23.912 10.8481 23.7666 10.7179 23.6212 10.5869C23.5741 10.5445 23.525 10.5002 23.4785 10.4581C23.457 10.4387 23.4355 10.4194 23.4142 10.4C23.6842 10.6707 23.9642 10.952 24.2531 11.2433C24.6704 11.6641 25.1118 12.1175 25.5991 12.6172C26.1972 13.2305 26.8644 13.9135 27.6411 14.6919L27.5248 14.1551C27.3738 14.5565 27.2165 14.979 27.0524 15.4254ZM19.2959 6.32306C19.4139 6.44015 19.5875 6.61071 19.8115 6.83063C19.8645 6.88263 19.9204 6.93741 19.979 6.99487C19.9777 6.99345 19.9763 6.99205 19.9749 6.99063C19.8369 6.84112 19.7092 6.70336 19.5706 6.55539C19.3234 6.29169 19.0825 6.03638 18.8381 5.77952C18.5928 5.52168 18.3471 5.26556 18.1002 5.01013C17.8528 4.75431 17.6038 4.4988 17.3559 4.24658C17.1055 3.99192 16.8578 3.74182 16.6064 3.49068C16.5263 3.41068 16.4458 3.33057 16.3652 3.25061C16.5385 3.43574 16.7196 3.6268 16.9109 3.82859C17.0637 3.98975 17.2231 4.15785 17.3901 4.33518C17.454 4.40304 17.5308 4.48577 17.6204 4.58227C17.9754 4.9647 18.5322 5.56501 19.2959 6.32306ZM14.7896 1.44907C14.713 1.47953 14.6367 1.50964 14.5612 1.53912C14.3462 1.62305 14.1361 1.7032 13.9299 1.78128C13.7851 1.83611 13.6418 1.88995 13.5006 1.94307C13.441 1.96549 13.3815 1.98792 13.3226 2.01011C13.2239 2.04728 13.1259 2.0843 13.0286 2.12107C13.6362 1.90549 14.2311 1.69273 14.8427 1.46981L14.3117 1.35479C14.3717 1.41585 14.4319 1.47709 14.4924 1.53857C14.4993 1.54555 14.5063 1.55251 14.5132 1.55955C14.4526 1.48201 14.3932 1.40603 14.335 1.33156L14.8312 1.43904C14.8173 1.44239 14.8034 1.44573 14.7896 1.44907Z" fill="var(--stroke-0, #A98BFF)"/>
</svg>
