<svg preserveAspectRatio="none" width="100%" height="100%" overflow="visible" style="display: block;" viewBox="0 0 24 24" fill="none" xmlns="http://www.w3.org/2000/svg">
<path id="Vector" d="M17.7147 12.6543C17.5327 12.4836 17.3772 12.3086 17.1819 12.0864C17.1818 12.0863 17.1817 12.0862 17.1816 12.0861C17.1537 12.0544 17.125 12.0216 17.0953 11.9878C16.8559 11.7157 16.5432 11.3639 16.051 10.8541C15.5072 10.2907 15.1273 9.79155 14.9174 9.46469C14.8782 9.40372 14.8323 9.346 14.707 9.20997C14.6442 9.14183 14.5637 9.05628 14.4568 8.943C14.4237 8.90796 14.3881 8.87026 14.3498 8.8296C14.2635 8.73806 14.163 8.63149 14.0458 8.50638C13.6575 8.09234 13.0287 7.46389 12.4528 6.88123C12.1031 6.52771 11.7727 6.19121 11.5253 5.93203C11.1635 5.553 10.8237 5.17802 10.4549 4.76977C10.1171 4.39584 9.75501 3.99401 9.3308 3.53429C9.00545 3.18144 8.72396 2.80401 8.43863 2.41974C8.40233 2.37083 8.36587 2.32171 8.32936 2.27255C8.19891 2.09692 8.06644 1.91977 7.92724 1.74082C7.83362 1.6102 7.70458 1.4933 7.5455 1.41025C7.39339 1.33076 7.22946 1.28917 7.06894 1.28088C6.70567 1.2625 6.36668 1.40863 6.1229 1.65333C6.04311 1.73327 5.96286 1.81386 5.88127 1.89562C5.68029 2.097 5.47101 2.30539 5.24094 2.52826C4.8771 2.88076 4.34495 3.37839 3.80961 3.87706C3.76401 3.91954 3.71836 3.9621 3.67281 4.0045C3.67258 4.00472 3.67235 4.00493 3.67212 4.00515C3.18188 4.46141 2.70024 4.90874 2.34796 5.23801C1.78814 5.76121 1.579 5.95955 1.404 6.12441C1.33819 6.18636 1.27713 6.24357 1.20386 6.31129C0.93991 6.55516 0.536159 6.91797 0.127087 7.28595C0.125525 7.28736 0.123965 7.28876 0.122403 7.29017C0.0543489 7.35107 -0.000464448 7.40034 1.46502e-06 7.4002C0.000476679 7.40005 0.0542096 7.34872 0.120028 7.28556C0.330553 7.08448 0.536071 6.88835 0.719785 6.71245C0.724468 6.69849 0.769519 6.64669 0.828091 6.5892C0.974522 6.44507 1.42225 6.00286 2.09957 5.28735C2.04944 5.33263 2.00726 5.37036 1.97022 5.40334C1.92674 5.44206 1.89333 5.47161 1.86467 5.49709C1.80494 5.5502 1.76545 5.58578 1.698 5.6516C1.54383 5.80611 1.3047 6.05212 1.05326 6.3112C0.989629 6.37648 0.932121 6.42307 0.924805 6.41518C0.917514 6.40725 0.961486 6.3461 1.02303 6.27871C1.02423 6.2774 1.02544 6.27608 1.02664 6.27477C1.26857 6.01105 1.50855 5.7503 1.66537 5.58467C1.70527 5.54253 1.73986 5.50645 1.76595 5.4795C1.78682 5.45794 1.81293 5.43112 1.82797 5.41673C1.82996 5.41482 1.83378 5.41119 1.83842 5.40694C1.8385 5.40687 1.83858 5.4068 1.83866 5.40673C1.84125 5.40436 1.85446 5.39221 1.86974 5.38043C1.87283 5.37805 1.87957 5.37291 1.88787 5.36742C1.88971 5.36571 1.89156 5.36399 1.8934 5.36228C1.91912 5.33838 1.94543 5.31407 1.97377 5.28761C2.08454 5.18444 2.25806 5.01909 2.61616 4.6715C2.94543 4.35172 3.49357 3.80262 4.1704 3.11037C4.12243 3.15488 4.07448 3.19963 4.02672 3.24449C3.90653 3.35741 3.78666 3.47171 3.66731 3.58662C3.62159 3.63064 3.57656 3.67414 3.53077 3.71856C3.45707 3.79006 3.38334 3.86196 3.30982 3.93402C3.26014 3.9827 3.21045 4.03159 3.16088 4.08046C3.16077 4.08057 3.16066 4.08069 3.16055 4.0808C3.09174 4.14864 3.02286 4.21676 2.95354 4.28551C2.92924 4.30953 2.90526 4.33329 2.88148 4.35692C2.78685 4.45097 2.69405 4.54353 2.58587 4.64875C2.57252 4.66135 2.55788 4.6749 2.54689 4.68494C2.53508 4.69575 2.52368 4.70612 2.51286 4.71586C2.50331 4.72446 2.49416 4.73262 2.48542 4.74047C2.48425 4.74153 2.48308 4.74258 2.48191 4.74363C2.47213 4.75242 2.46281 4.76086 2.45387 4.76898C2.44495 4.77709 2.43636 4.78491 2.42798 4.79269C2.42791 4.79277 2.42784 4.79284 2.42777 4.79292C2.41902 4.80106 2.41239 4.80725 2.40325 4.816C2.39177 4.82699 2.38197 4.8365 2.3702 4.84813C2.35882 4.85937 2.34702 4.87117 2.33516 4.88315C2.3233 4.89512 2.31128 4.90737 2.29912 4.91985C2.28695 4.93232 2.27461 4.94504 2.2622 4.95788C2.2498 4.97072 2.23727 4.98376 2.22468 4.99688C2.21208 5.01 2.19934 5.02328 2.18657 5.03662C2.15713 5.06734 2.12585 5.09372 2.09974 5.10994C2.07362 5.12613 2.05483 5.13091 2.04715 5.12294C2.03947 5.11497 2.04341 5.09475 2.05783 5.06642C2.07227 5.0381 2.09604 5.00399 2.12399 4.97175C2.1316 4.96298 2.13924 4.95415 2.14692 4.9453C2.15148 4.94005 2.1561 4.93476 2.16068 4.92948C2.17301 4.91529 2.18546 4.90093 2.19803 4.88653C2.21059 4.87214 2.22329 4.85765 2.23616 4.84303C2.24907 4.82836 2.26218 4.81353 2.27554 4.79855C2.28887 4.78361 2.30256 4.76839 2.31656 4.75303C2.3302 4.73804 2.34589 4.72105 2.36005 4.706C2.37039 4.69498 2.38327 4.68155 2.39406 4.67039C2.40532 4.65874 2.41648 4.64735 2.42728 4.63642C2.4381 4.62547 2.44863 4.61494 2.45868 4.60488C2.45975 4.6038 2.46083 4.60273 2.4619 4.60165C2.47079 4.59276 2.47938 4.58419 2.48747 4.57606C2.49652 4.56698 2.50504 4.55834 2.5131 4.55009C2.52199 4.54101 2.5273 4.53541 2.5338 4.52853C2.61854 4.43628 2.72168 4.32065 2.82006 4.21042C2.83242 4.19657 2.84473 4.1828 2.8569 4.16918C2.9215 4.09676 2.98593 4.02447 3.05034 3.95223C3.09715 3.89973 3.14402 3.84717 3.19099 3.79459C3.2601 3.71721 3.3295 3.63967 3.39891 3.5623C3.44203 3.51426 3.48439 3.46714 3.52749 3.41929C3.64003 3.29437 3.75325 3.16935 3.86725 3.04481C3.9811 2.92044 4.09628 2.7959 4.2126 2.67236C4.32848 2.54929 4.45003 2.42259 4.56958 2.30242C4.65751 2.21413 4.75058 2.12652 4.83774 2.04654C4.88458 2.00356 4.93068 1.96169 4.97624 1.92058C4.9764 1.92044 4.97657 1.92031 4.97673 1.92018C5.01672 1.88409 5.05628 1.84855 5.09548 1.81316C5.17954 1.73734 5.26176 1.66251 5.34318 1.58688C5.42449 1.51138 5.50467 1.43544 5.5845 1.35798C5.62541 1.31827 5.66645 1.27798 5.70731 1.23739C5.75329 1.19166 5.80149 1.14796 5.85137 1.10673C5.95513 1.02113 6.06488 0.946361 6.18725 0.87991C6.34817 0.792677 6.52011 0.726594 6.70382 0.684951C6.82276 0.657998 6.94524 0.641802 7.06894 0.637237C7.13486 0.634797 7.20115 0.635648 7.26742 0.639866C7.33404 0.6441 7.40069 0.651827 7.467 0.66288C7.46725 0.662926 7.46751 0.662973 7.46776 0.66302C7.5904 0.683504 7.71183 0.715729 7.82961 0.759425C8.01142 0.826833 8.18481 0.92176 8.34152 1.04152C8.3949 1.08231 8.4464 1.12598 8.49565 1.17234C8.57189 1.24309 8.64802 1.31421 8.72399 1.38597C8.8392 1.49489 8.95668 1.60759 9.07196 1.72354C9.17487 1.82689 9.27766 1.93201 9.37799 2.03497C9.40448 2.06216 9.43097 2.08935 9.45744 2.11655C9.58314 2.24557 9.70535 2.36995 9.82886 2.49028C9.95221 2.6106 10.0781 2.72826 10.2073 2.84479C10.3361 2.96097 10.4686 3.07657 10.6034 3.19177C10.7389 3.30747 10.874 3.42033 11.0126 3.53471C11.1501 3.64818 11.2891 3.76142 11.4303 3.87546C11.5088 3.93888 11.5914 4.00725 11.6689 4.07239C11.7472 4.13816 11.8244 4.20406 11.9003 4.26938C11.9312 4.29588 11.9618 4.32234 11.9922 4.34856C12.0366 4.38682 12.0805 4.42476 12.1239 4.46197C12.1972 4.52476 12.269 4.58564 12.3398 4.64386C12.4104 4.70205 12.4801 4.75752 12.5489 4.80951C12.6202 4.86329 12.6805 4.9061 12.7544 4.95542C12.9288 5.0813 13.0301 5.16617 13.1425 5.26045C13.1647 5.27902 13.1874 5.29793 13.211 5.31761C13.3453 5.43127 13.4772 5.54706 13.6058 5.66293C13.7355 5.77996 13.8617 5.89678 13.9878 6.01667C14.1128 6.13538 14.2371 6.25655 14.3594 6.37864C14.4816 6.50054 14.6022 6.62366 14.7215 6.74857C14.8408 6.87338 14.9611 7.00229 15.0751 7.12742C15.1411 7.19972 15.2102 7.2775 15.2738 7.35023C15.3198 7.40269 15.3648 7.45465 15.409 7.50561C15.427 7.52642 15.4449 7.54711 15.4626 7.56759C15.5216 7.63562 15.5791 7.70164 15.6356 7.76472C15.6377 7.76712 15.6399 7.76951 15.642 7.7719C15.7005 7.83717 15.758 7.89947 15.8157 7.959C15.8735 8.01865 15.9314 8.07554 15.9909 8.13096C16.0527 8.18834 16.1051 8.23482 16.1739 8.29258C16.2187 8.33015 16.2627 8.36687 16.3065 8.40348C16.3722 8.45829 16.4375 8.51258 16.5035 8.56713C16.5693 8.62161 16.6345 8.67523 16.7002 8.72893C16.7214 8.74619 16.7437 8.76443 16.7649 8.78169C16.8306 8.83504 16.8957 8.88755 16.9611 8.93966C17.0263 8.99167 17.0914 9.04287 17.1565 9.09341C17.222 9.14416 17.2868 9.19365 17.3533 9.24367C17.4664 9.32862 17.567 9.41757 17.6536 9.49697C17.7412 9.57744 17.8211 9.65447 17.8988 9.72956C17.9134 9.74363 17.9279 9.75769 17.9425 9.77176C18.0051 9.83241 18.0665 9.89219 18.1274 9.9507C18.2025 10.0228 18.2766 10.0932 18.3516 10.1632C18.4259 10.2326 18.5014 10.3022 18.5765 10.37C18.6524 10.4384 18.7255 10.5032 18.805 10.5724C18.8836 10.6408 18.9652 10.7085 19.0545 10.7829C19.143 10.8565 19.2355 10.9342 19.3276 11.0144C19.4197 11.0945 19.5119 11.1773 19.6017 11.2611C19.6917 11.3451 19.7805 11.4309 19.8667 11.5168C19.9534 11.6032 20.0382 11.6904 20.1215 11.7782C20.2047 11.8658 20.2895 11.9574 20.368 12.044C20.4951 12.1843 20.6207 12.3247 20.7463 12.4658C20.8711 12.6062 20.9958 12.7474 21.12 12.8886C21.2439 13.0296 21.3678 13.171 21.4911 13.3125C21.6145 13.454 21.7377 13.5957 21.8605 13.7373C21.8877 13.7686 21.9149 13.8 21.942 13.8313C22.0376 13.9417 22.1332 14.0521 22.2283 14.1621C22.2289 14.1629 22.2295 14.1636 22.2302 14.1644C22.3462 14.2985 22.4601 14.4304 22.5752 14.5631C22.5855 14.5744 22.5958 14.5858 22.6058 14.5973C22.6762 14.6773 22.7388 14.7583 22.7972 14.8438C22.8556 14.9294 22.9076 15.0167 22.9546 15.1073C23.0016 15.1981 23.0427 15.2909 23.0777 15.3841C23.1131 15.4783 23.1422 15.5719 23.1662 15.6675C23.1881 15.7552 23.2058 15.8431 23.2192 15.94C23.2204 15.9488 23.2216 15.9576 23.2227 15.9665C23.2363 16.0725 23.2428 16.1942 23.239 16.3066C23.2387 16.3168 23.2383 16.327 23.2378 16.3371C23.2246 16.624 23.1627 16.8999 23.0556 17.1598C22.9445 17.429 22.7857 17.6755 22.5878 17.8858C22.5494 17.9267 22.5095 17.9662 22.4683 18.0042C22.4393 18.0299 22.4104 18.0555 22.3816 18.0811C22.2922 18.1601 22.2023 18.2394 22.112 18.3187C21.9634 18.4491 21.8138 18.5792 21.6624 18.7091C21.5114 18.8386 21.3586 18.9679 21.2055 19.0958C21.0526 19.2235 20.8975 19.3515 20.7437 19.4772C20.5724 19.6172 20.4017 19.756 20.2303 19.8955C20.0591 20.0347 19.8877 20.1739 19.7172 20.3126C19.546 20.4518 19.3753 20.5907 19.2047 20.7297C19.034 20.8688 18.8636 21.008 18.6932 21.1475C18.5912 21.231 18.4894 21.3145 18.3875 21.3981C18.336 21.4447 18.2864 21.4892 18.2387 21.532C17.8856 21.8476 17.6261 22.0716 17.2783 22.3618C17.2452 22.3897 17.2184 22.4126 17.1857 22.4404C17.1795 22.4457 17.1729 22.4514 17.1661 22.4571C17.1234 22.4934 17.0742 22.5349 17.0049 22.5919C16.8669 22.7058 16.6514 22.8763 16.3734 23.0973C16.3031 23.153 16.2573 23.1873 16.2701 23.173C16.2791 23.1629 16.3141 23.1309 16.3574 23.0926C16.276 23.1622 16.195 23.2316 16.1144 23.3011C16.0822 23.3289 16.0519 23.3548 16.0305 23.3733C16.0106 23.3905 15.9999 23.4001 15.9999 23.4001C15.9999 23.4001 15.9999 23.4 16.0001 23.3999C16.0019 23.3983 16.0162 23.3854 16.0396 23.3638C16.0631 23.3423 16.0937 23.3139 16.1251 23.2851C16.2083 23.2087 16.2914 23.1326 16.3744 23.0564C16.4574 22.9802 16.5401 22.9043 16.623 22.8281C16.7058 22.752 16.7886 22.6758 16.8716 22.5994C16.9542 22.5232 17.037 22.4469 17.1198 22.3703C17.2032 22.2932 17.2849 22.2175 17.3678 22.1405C17.4175 22.0944 17.4678 22.0477 17.5172 22.0018C17.5355 21.9847 17.5535 21.968 17.5714 21.9513C17.5861 21.9376 17.6008 21.9239 17.616 21.9098C17.7756 21.7611 17.9364 21.6108 18.0954 21.4615C18.2553 21.3115 18.4146 21.1613 18.5737 21.0109C18.7329 20.8604 18.8916 20.7096 19.0501 20.5586C19.2085 20.4076 19.3665 20.2564 19.5245 20.1046C19.682 19.9534 19.8397 19.8012 19.9967 19.6491C20.1182 19.5314 20.2383 19.4144 20.3584 19.2969C20.4035 19.2485 20.4482 19.2007 20.4922 19.1534C20.6206 19.0159 20.7459 18.875 20.8685 18.7354C20.6365 18.9701 20.4533 19.1619 20.278 19.3435C20.2545 19.3679 20.2311 19.3921 20.2078 19.4162C19.9698 19.662 19.7368 19.8964 19.4121 20.2004C18.4888 21.0651 17.9528 21.5659 17.6177 21.8768C17.2827 22.1877 17.1369 22.3194 16.9993 22.4408C16.8046 22.6121 16.4465 22.9604 16.2677 23.1366C16.2025 23.2004 16.1491 23.251 16.1483 23.2496C16.1475 23.2482 16.1978 23.1935 16.2608 23.1275C16.4441 22.9359 16.8199 22.5473 17.0464 22.3383C17.1472 22.245 17.2616 22.1363 17.5829 21.8215C17.9044 21.5068 18.4214 20.9967 19.3253 20.1092C19.6313 19.809 19.8506 19.5785 20.0808 19.3301C20.1034 19.3058 20.1261 19.2812 20.149 19.2564C20.1492 19.2563 20.1493 19.2561 20.1495 19.256C20.3607 19.0275 20.5893 18.7773 20.906 18.4484C21.2143 18.1283 21.5655 17.7597 21.8844 17.4207C22.2404 17.047 22.3042 16.5684 22.2844 16.3371C22.2814 16.2883 22.2764 16.2483 22.2714 16.2181C22.2615 16.1578 22.2478 16.1006 22.2297 16.0416C22.1676 15.8615 22.0894 15.6332 21.7884 15.3495C21.7124 15.2802 21.629 15.2034 21.5368 15.1177C21.4242 15.0131 21.2939 14.889 21.1528 14.7525C20.9178 14.5709 20.6897 14.3947 20.4974 14.2353C20.3314 14.0977 20.167 13.9822 20.0043 13.8737C19.9575 13.8425 19.91 13.8114 19.8626 13.7803C19.7482 13.7055 19.6336 13.6308 19.5254 13.5545C19.4392 13.4937 19.347 13.4319 19.2495 13.3667C18.8944 13.1289 18.4656 12.8473 17.9925 12.3946C17.4913 11.9144 17.0772 11.4883 16.7228 11.1181C16.978 11.3951 17.1698 11.6141 17.329 11.7971C17.359 11.8317 17.3878 11.8648 17.4154 11.8966C17.611 12.1216 17.7539 12.2845 17.9218 12.4443C18.7244 13.2071 19.0449 13.4736 19.4329 13.7481C19.5351 13.8203 19.6507 13.8972 19.7749 13.9803C20.0232 14.1463 20.3058 14.3376 20.5886 14.564C20.852 14.7748 21.1533 15.0038 21.4706 15.2485C21.4707 15.2486 21.4709 15.2488 21.471 15.2489C21.533 15.2967 21.5956 15.3451 21.6587 15.3941C21.6747 15.4064 21.6906 15.4188 21.7066 15.4313C21.9764 15.6244 22.1834 15.9634 22.2153 16.3371C22.2199 16.3873 22.2216 16.4379 22.2204 16.4885C22.2192 16.5358 22.216 16.5928 22.2072 16.6581C22.1812 16.8529 22.0978 17.1382 21.8604 17.3968C21.6305 17.6456 21.3567 17.9268 21.0469 18.2244C20.9042 18.3615 20.7518 18.4997 20.579 18.6585C20.5263 18.7068 20.4717 18.7571 20.4149 18.8098C20.1697 19.0373 19.8757 19.3177 19.4959 19.7027C19.1824 20.0204 18.8059 20.4131 18.4162 20.8222C18.2242 21.0237 18.0291 21.2292 17.837 21.4319C17.2567 22.0443 16.7273 22.6079 16.2048 23.1765C16.2047 23.1766 16.2046 23.1767 16.2045 23.1768C16.1426 23.2438 16.0937 23.2959 16.0951 23.2928C16.0966 23.2896 16.1459 23.2308 16.2056 23.1616C16.7121 22.5765 17.2246 21.9992 17.7872 21.3733C17.9713 21.1685 18.1598 20.9595 18.346 20.7538C18.7275 20.3326 19.1 19.9252 19.4091 19.5973C19.7865 19.1969 20.0798 18.9052 20.3234 18.6696C20.3821 18.6129 20.4375 18.5597 20.4902 18.5094C20.6578 18.3491 20.7982 18.2168 20.9309 18.0842C21.2312 17.7843 21.4951 17.5024 21.7169 17.2532C21.9046 17.0359 21.97 16.8025 21.9898 16.6382C21.9969 16.5809 21.9989 16.5305 21.9993 16.488C21.9997 16.4374 21.9965 16.387 21.9898 16.3371C21.9503 16.0245 21.7635 15.7508 21.5325 15.6051C21.5294 15.6028 21.5262 15.6004 21.5231 15.598C21.4599 15.5504 21.397 15.503 21.3345 15.4562C21.3344 15.4561 21.3343 15.456 21.3341 15.4559C21.0131 15.2151 20.7029 14.9853 20.4316 14.7735C20.1564 14.5585 19.8988 14.3885 19.6569 14.2303C19.5271 14.1455 19.402 14.0639 19.2813 13.9804C18.8663 13.6927 18.5257 13.4137 17.7147 12.6543ZM16.4834 22.9853C16.652 22.8437 16.7893 22.7282 16.8904 22.6411C16.8036 22.7142 16.7171 22.7871 16.6307 22.8603C16.5815 22.902 16.5324 22.9436 16.4834 22.9853ZM21.3142 14.5531C21.3423 14.5754 21.3705 14.5978 21.3988 14.6202C21.3275 14.5514 21.2561 14.4824 21.1849 14.4136C21.0974 14.3291 21.01 14.2445 20.9226 14.16C21.0585 14.2975 21.1905 14.4302 21.3142 14.5531ZM18.2 12.1849C18.6429 12.6151 19.0337 12.8767 19.3834 13.1154C19.4842 13.184 19.5817 13.2508 19.6762 13.3188C19.7154 13.347 19.7551 13.3747 19.7954 13.4023C19.5991 13.2032 19.4193 13.0195 19.2723 12.8691C18.8335 12.4201 18.5972 12.1511 18.3899 11.9144C18.3299 11.8459 18.2723 11.7801 18.213 11.7134C18.1536 11.6685 18.0923 11.6216 18.0312 11.5733C17.9456 11.5058 17.8541 11.4317 17.7678 11.3605C17.6812 11.2889 17.5941 11.2154 17.5093 11.1423C17.4239 11.0686 17.3401 10.9947 17.2573 10.9206C17.1793 10.8508 17.1022 10.7807 17.0276 10.7129C17.0233 10.7091 17.019 10.7052 17.0148 10.7013C16.9359 10.6296 16.8592 10.5599 16.7873 10.4973C16.714 10.4336 16.6515 10.3822 16.5927 10.3399C16.5193 10.2871 16.4446 10.2323 16.3714 10.1776C16.298 10.1227 16.2256 10.0676 16.1538 10.0121C16.082 9.95643 16.0112 9.90091 15.9407 9.84482C15.9179 9.82668 15.8941 9.80767 15.8716 9.7896C15.8612 9.78128 15.8508 9.77299 15.8405 9.76467C15.9639 9.88886 16.0918 10.0181 16.2234 10.1522C16.4136 10.3459 16.6125 10.5569 16.8323 10.7892C17.2072 11.1855 17.6432 11.6437 18.2 12.1849ZM13.9434 7.90802C13.9976 7.96143 14.078 8.03874 14.1817 8.13838C14.2062 8.16194 14.2321 8.18673 14.2592 8.21276C14.2586 8.21208 14.258 8.21144 14.2574 8.21076C14.1973 8.13916 14.1415 8.07333 14.0806 8.00301C13.9719 7.8777 13.8655 7.75684 13.757 7.63579C13.648 7.51427 13.5383 7.39411 13.4275 7.27478C13.3166 7.15528 13.2043 7.03647 13.0919 6.91975C12.9784 6.80191 12.8657 6.68669 12.7504 6.57172C12.7137 6.53509 12.6768 6.49849 12.6397 6.46203C12.7158 6.55005 12.7961 6.64028 12.8808 6.73556C12.9486 6.81166 13.0192 6.89103 13.0929 6.97506C13.1211 7.00722 13.1546 7.04673 13.1938 7.09282C13.3489 7.27546 13.5921 7.56225 13.9434 7.90802ZM11.6698 5.59553C11.6419 5.56994 11.6144 5.54438 11.5874 5.51889C11.5104 5.44634 11.4367 5.37439 11.3648 5.30346C11.3143 5.25364 11.2647 5.20413 11.2157 5.15538C11.1951 5.1348 11.1744 5.11428 11.154 5.09393C11.1197 5.05985 11.0856 5.02611 11.0517 4.99263C11.2787 5.23802 11.502 5.4765 11.7385 5.7212C11.7416 5.72443 11.7448 5.72761 11.748 5.73087C11.7213 5.6847 11.6952 5.63959 11.6698 5.59553Z" fill="var(--stroke-0, #A98BFF)"/>
</svg>
