<svg preserveAspectRatio="none" width="100%" height="100%" overflow="visible" style="display: block;" viewBox="0 0 27 27" fill="none" xmlns="http://www.w3.org/2000/svg">
<path id="Vector" opacity="0.2" d="M8.92823 17.1443L0.767008 14.137C0.541973 14.0539 0.347805 13.9038 0.210664 13.707C0.0735233 13.5102 0 13.2761 0 13.0363C0 12.7964 0.0735233 12.5623 0.210664 12.3655C0.347805 12.1687 0.541973 12.0186 0.767008 11.9355L8.92823 8.92823L11.9355 0.767007C12.0186 0.541973 12.1687 0.347805 12.3655 0.210664C12.5623 0.0735233 12.7964 0 13.0363 0C13.2761 0 13.5102 0.0735233 13.707 0.210664C13.9038 0.347805 14.0539 0.541973 14.137 0.767007L17.1443 8.92823L25.3055 11.9355C25.5305 12.0186 25.7247 12.1687 25.8618 12.3655C25.999 12.5623 26.0725 12.7964 26.0725 13.0363C26.0725 13.2761 25.999 13.5102 25.8618 13.707C25.7247 13.9038 25.5305 14.0539 25.3055 14.137L17.1443 17.1443L14.137 25.3055C14.0539 25.5305 13.9038 25.7247 13.707 25.8618C13.5102 25.999 13.2761 26.0725 13.0363 26.0725C12.7964 26.0725 12.5623 25.999 12.3655 25.8618C12.1687 25.7247 12.0186 25.5305 11.9355 25.3055L8.92823 17.1443Z" fill="var(--fill-0, #FF6B6B)"/>
</svg>
