<svg preserveAspectRatio="none" width="100%" height="100%" overflow="visible" style="display: block;" viewBox="0 0 32 33" fill="none" xmlns="http://www.w3.org/2000/svg">
<path id="Vector" d="M16.9665 0.652724C17.1754 0.733594 17.3724 0.838748 17.5541 0.965189C18.0254 1.29361 18.398 1.76647 18.6022 2.34295C18.6648 2.53013 18.7287 2.7254 18.7973 2.93528C18.7974 2.93561 18.7975 2.93594 18.7976 2.93627C18.827 3.02635 18.8572 3.11923 18.8886 3.21515C19.1408 3.98763 19.4717 4.99017 20.0065 6.48866C20.5975 8.14438 20.976 9.49232 21.1686 10.3296C21.2045 10.4858 21.2511 10.644 21.3853 11.0368C21.4525 11.2335 21.5394 11.4826 21.6547 11.8126L20.9845 11.1424C20.9845 11.1424 20.9845 11.1424 20.9845 11.1424C21.0853 11.1815 21.1938 11.2236 21.3108 11.269C21.5741 11.3712 21.8806 11.4901 22.2392 11.63C23.4261 12.0928 25.2995 12.7824 27.0234 13.4241C28.0698 13.8134 29.0614 14.1847 29.8124 14.473C29.9703 14.5336 30.1273 14.5943 30.2837 14.6551C30.7391 14.8275 31.1347 15.1415 31.4045 15.5409C31.6743 15.9377 31.8186 16.4176 31.8105 16.8986C31.8041 17.3712 31.6502 17.8433 31.3691 18.2315C31.1708 18.5066 30.9099 18.7394 30.6081 18.9056C30.4956 18.9677 30.3774 19.0205 30.2553 19.0632C29.2434 19.4023 28.1574 19.7661 26.9167 20.1905C25.8975 20.539 24.885 20.817 23.8556 21.0983C23.7246 21.1341 23.593 21.17 23.4613 21.206C22.585 21.4455 21.6911 21.6937 20.7402 21.9917L20.9917 21.7402C20.9774 21.7737 20.9632 21.8073 20.9489 21.8411C20.2283 23.5457 19.7297 24.9342 19.1656 26.4671C18.9452 27.0667 18.7154 27.6887 18.4606 28.3613C18.187 29.0837 17.8247 30.0182 17.4327 31.0223C17.3153 31.3278 17.1007 31.5997 16.8243 31.7848C16.5767 31.9519 16.2809 32.0481 15.9826 32.0582C15.9546 32.0592 15.9266 32.0594 15.8986 32.059C15.7594 32.0566 15.6207 32.036 15.4877 31.998C15.4869 31.9977 15.486 31.9975 15.4852 31.9973C15.3075 31.9464 15.1398 31.8644 14.9919 31.7574C14.7277 31.567 14.5296 31.2961 14.4268 30.9995C14.0884 30.018 13.7719 29.1005 13.5194 28.3719C12.9564 26.7467 12.7419 26.1363 12.564 25.6267C12.4972 25.4352 12.4356 25.2578 12.363 25.0459C12.1015 24.283 11.7161 23.1279 11.3251 21.9571C11.3236 21.9526 11.3221 21.9482 11.3206 21.9437C11.256 21.7493 11.2036 21.5925 11.2037 21.5935C11.2038 21.5945 11.2594 21.7518 11.3279 21.9448C11.5458 22.5609 11.7583 23.1623 11.949 23.7005C11.9674 23.7253 12.0265 23.8674 12.0893 24.0406C12.2469 24.4742 12.7311 25.8016 13.5297 27.8641C13.4815 27.7204 13.4415 27.6 13.4065 27.4944C13.3655 27.3704 13.3343 27.2753 13.3073 27.1937C13.2511 27.0235 13.2133 26.9104 13.1415 26.7113C12.9716 26.2516 12.6991 25.5311 12.4119 24.7731C12.3396 24.5816 12.292 24.423 12.3056 24.419C12.3192 24.415 12.392 24.5661 12.4679 24.7562C12.4694 24.7599 12.4709 24.7637 12.4723 24.7674C12.7692 25.5136 13.0624 26.2528 13.2473 26.7303C13.2943 26.8518 13.3344 26.9565 13.3643 27.0353C13.3882 27.0983 13.4179 27.1769 13.4336 27.2209C13.4356 27.2268 13.4396 27.2379 13.4441 27.2513C13.4442 27.2515 13.4442 27.2518 13.4443 27.252C13.4468 27.2594 13.4599 27.2976 13.4717 27.339C13.474 27.3474 13.4792 27.3656 13.4843 27.387C13.4861 27.3924 13.488 27.3977 13.4898 27.4031C13.5155 27.4776 13.5416 27.5536 13.57 27.6358C13.6809 27.957 13.86 28.4644 14.2385 29.519C14.3697 29.8848 14.5375 30.3449 14.7364 30.8853C14.8175 31.1065 14.9715 31.3203 15.1908 31.472C15.3872 31.6089 15.6363 31.6934 15.8986 31.692C16.1401 31.6915 16.3915 31.6168 16.603 31.4671C16.8015 31.3277 16.9633 31.1225 17.0499 30.8812C17.0755 30.8103 17.1013 30.7388 17.1273 30.6668C17.0995 30.7375 17.0717 30.8083 17.044 30.8791C17.0203 30.9392 16.9919 30.9975 16.9592 31.053C16.8669 31.21 16.7393 31.3456 16.5889 31.4469C16.4619 31.5327 16.3187 31.5939 16.1696 31.6265C16.0802 31.646 15.9896 31.6553 15.8986 31.6544C15.8626 31.654 15.8266 31.652 15.7906 31.6484C15.5857 31.6281 15.3864 31.5539 15.2185 31.4354C15.218 31.435 15.2175 31.4347 15.217 31.4343C15.104 31.3546 15.005 31.2551 14.9259 31.1418C14.9257 31.1415 14.9256 31.1413 14.9254 31.141C14.8666 31.0567 14.8187 30.9647 14.7833 30.8679C14.7485 30.7725 14.7135 30.6769 14.6784 30.5809C14.6521 30.5088 14.626 30.4377 14.6001 30.367C14.497 30.0857 14.3953 29.8095 14.2807 29.4907C14.2671 29.4518 14.2525 29.4095 14.2418 29.3778C14.2303 29.3438 14.2192 29.311 14.2089 29.2801C14.1997 29.2527 14.1911 29.2266 14.1827 29.2016C14.1816 29.1983 14.1805 29.1949 14.1794 29.1916C14.17 29.1636 14.161 29.1369 14.1524 29.1112C14.1437 29.0855 14.1354 29.0608 14.127 29.0366C14.127 29.0364 14.1269 29.0361 14.1268 29.0359C14.118 29.0106 14.1114 28.9913 14.1019 28.9646C14.09 28.9309 14.0796 28.9021 14.0669 28.8672C14.0546 28.8334 14.0416 28.7983 14.0284 28.7628C14.0152 28.7273 14.0017 28.6913 13.9879 28.6547C13.9741 28.618 13.96 28.5808 13.9457 28.5434C13.9315 28.5059 13.917 28.468 13.9024 28.4298C13.8878 28.3917 13.873 28.3531 13.8582 28.3144C13.824 28.2252 13.7966 28.1377 13.782 28.0715C13.7674 28.0053 13.7667 27.9656 13.7805 27.961C13.7944 27.9564 13.8219 27.9871 13.8575 28.0463C13.8931 28.1055 13.9339 28.1884 13.9707 28.2767C13.9808 28.3007 13.9908 28.3249 14.0009 28.3491C14.0069 28.3635 14.013 28.3781 14.019 28.3925C14.0352 28.4314 14.0516 28.4708 14.068 28.5103C14.0844 28.5499 14.1009 28.5898 14.1175 28.6302C14.1342 28.6707 14.1511 28.7118 14.1681 28.7535C14.185 28.7951 14.2022 28.8376 14.2195 28.8809C14.2365 28.9232 14.2555 28.9714 14.2724 29.0146C14.2847 29.0462 14.2996 29.0853 14.312 29.1178C14.3249 29.1518 14.3375 29.1853 14.3496 29.2177C14.3617 29.2501 14.3732 29.2814 14.3843 29.3114C14.3855 29.3146 14.3867 29.3178 14.3878 29.321C14.3976 29.3475 14.407 29.373 14.416 29.3972C14.426 29.4242 14.4355 29.4497 14.4446 29.474C14.4547 29.5006 14.4609 29.5168 14.4686 29.5366C14.5724 29.7978 14.7035 30.1197 14.8284 30.4266C14.8441 30.4652 14.8597 30.5036 14.8752 30.5415C14.9098 30.6264 14.9443 30.7112 14.9788 30.7959C15.0146 30.8806 15.0622 30.9596 15.1194 31.0301C15.1859 31.1121 15.2655 31.1825 15.3538 31.238C15.3607 31.2424 15.3677 31.2466 15.3748 31.2508C15.5168 31.3354 15.6798 31.381 15.8414 31.3833C15.8605 31.3836 15.8796 31.3833 15.8986 31.3824C15.979 31.3787 16.0577 31.3647 16.1338 31.3408C16.2353 31.3088 16.3304 31.2593 16.4138 31.1956C16.5325 31.1051 16.6271 30.9856 16.6874 30.8521C16.7009 30.8222 16.7128 30.7917 16.7229 30.7605C16.8288 30.4493 16.9361 30.1366 17.0448 29.8242C17.1696 29.4659 17.3013 29.0943 17.4322 28.737C17.5286 28.4743 17.6325 28.2069 17.7304 27.9601C17.7831 27.8275 17.835 27.6978 17.8864 27.5701C17.8866 27.5697 17.8868 27.5693 17.887 27.5688C17.9322 27.4567 17.9769 27.3461 18.0211 27.2362C18.116 27.0006 18.2086 26.769 18.2998 26.5369C18.3909 26.3051 18.4802 26.0738 18.5686 25.8403C18.6563 25.6084 18.7439 25.3721 18.829 25.1376C18.9147 24.9018 18.9972 24.6699 19.0827 24.4256C19.195 24.1044 19.3045 23.7847 19.4165 23.4564C19.5277 23.1304 19.6389 22.8015 19.7504 22.4717C19.7894 22.3565 19.8286 22.241 19.8676 22.1254C19.8678 22.1249 19.8679 22.1245 19.8681 22.1241C19.9404 21.9101 20.0128 21.6957 20.0854 21.4811C20.0929 21.4589 20.1004 21.4367 20.108 21.4146C20.1524 21.3061 20.3032 21.1445 20.4146 21.108C20.7177 20.987 21.0218 20.8658 21.3271 20.745C21.6543 20.6154 21.9838 20.4858 22.3156 20.3572C22.6475 20.2286 22.9888 20.098 23.3335 19.9716C23.641 19.8587 23.9515 19.7466 24.2551 19.6372C24.3353 19.6084 24.4155 19.5795 24.4957 19.5507C24.8762 19.4137 25.2443 19.2802 25.6065 19.1435C25.9686 19.007 26.3287 18.8661 26.6907 18.7201C27.0516 18.5745 27.4157 18.4236 27.7819 18.269C28.1497 18.1138 28.5119 17.9583 28.881 17.7982C29.1406 17.6856 29.4008 17.5719 29.6627 17.4568C29.7087 17.4322 29.7509 17.4016 29.7878 17.3664C29.8351 17.3215 29.8754 17.2679 29.9046 17.211C29.9191 17.1829 29.931 17.1542 29.9402 17.1255C29.9645 17.05 29.9715 16.9719 29.9627 16.8986C29.9614 16.8869 29.9596 16.8754 29.9574 16.864C29.9511 16.8303 29.9414 16.7978 29.9288 16.7671C29.9105 16.7224 29.886 16.6816 29.857 16.6465C29.8522 16.6407 29.8473 16.635 29.8423 16.6295C29.7961 16.5787 29.7404 16.5414 29.6827 16.5193C29.6566 16.5092 29.6302 16.5023 29.604 16.4983C29.491 16.4649 29.3794 16.4328 29.2697 16.4023C29.0777 16.3489 28.9185 16.3076 28.7269 16.2615C28.2639 16.1391 27.9814 16.0513 27.6675 15.9537C27.6057 15.9345 27.5425 15.9149 27.4767 15.8946C27.1007 15.7766 26.7265 15.6547 26.3582 15.5317C25.9864 15.4074 25.6215 15.2822 25.2528 15.1526C24.8878 15.0244 24.5211 14.8924 24.1568 14.7585C23.7931 14.6248 23.4309 14.4888 23.0687 14.3499C22.7068 14.2111 22.3384 14.0668 21.9856 13.9259C21.7816 13.8445 21.5656 13.7563 21.3653 13.6735C21.2208 13.6138 21.0785 13.5545 20.939 13.4964C20.8821 13.4726 20.8255 13.449 20.7694 13.4257C20.5831 13.3481 20.4017 13.2728 20.2258 13.2014C20.2258 13.2014 20.2258 13.2014 20.2258 13.2014C19.9999 13.1182 19.679 12.7973 19.5957 12.5714C19.5934 12.5645 19.5912 12.5577 19.5889 12.5508C19.5268 12.3643 19.4652 12.1843 19.4025 12.0091C19.3396 11.8335 19.2756 11.6628 19.2089 11.4929C19.1397 11.3168 19.0801 11.1713 19.0011 10.9864C18.9495 10.866 18.8989 10.7482 18.8483 10.6306C18.7727 10.4546 18.6974 10.28 18.6213 10.1042C18.5452 9.92858 18.4699 9.75531 18.3938 9.58128C18.3693 9.52533 18.3435 9.46624 18.3189 9.41015C18.2428 9.23686 18.1672 9.06569 18.0911 8.89492C18.0151 8.72446 17.9392 8.55579 17.8629 8.38811C17.7862 8.21972 17.7101 8.05442 17.6317 7.88615C17.4983 7.60016 17.384 7.32152 17.2866 7.07653C17.1881 6.82854 17.0994 6.59561 17.0132 6.36882C16.997 6.32634 16.9809 6.28386 16.9648 6.24138C16.8954 6.05839 16.8273 5.87834 16.7597 5.70121C16.6763 5.48289 16.5936 5.26888 16.5097 5.0545C16.4265 4.84198 16.3416 4.6277 16.2567 4.41717C16.171 4.20467 16.088 4.00182 15.9973 3.78372C15.9409 3.64777 15.8826 3.51095 15.8214 3.36854C15.8191 3.37609 15.8173 3.38395 15.8166 3.39256C15.8154 3.4081 15.8187 3.426 15.8277 3.44264C15.832 3.45062 15.8376 3.45835 15.8444 3.46526C15.8583 3.47952 15.8773 3.49046 15.8986 3.49552C15.9091 3.49807 15.9203 3.49918 15.9315 3.49875C15.9535 3.498 15.9758 3.49122 15.9951 3.47939C16.0053 3.47312 16.0149 3.46537 16.0232 3.4566C16.0386 3.44031 16.0499 3.42015 16.0558 3.39895C16.0217 3.48877 15.9871 3.57911 15.9523 3.6692C15.8547 3.92218 15.752 4.18281 15.6543 4.42617C15.4961 4.82024 15.3372 5.21198 15.1772 5.60418C15.0181 5.9942 14.8578 6.38517 14.6973 6.77511C14.537 7.16435 14.3761 7.55385 14.215 7.94255C14.0538 8.33143 13.8922 8.72011 13.7306 9.10811C13.6949 9.19392 13.6591 9.27974 13.6234 9.36555C13.4975 9.66768 13.3714 9.96972 13.2458 10.2705C13.245 10.2725 13.2441 10.2746 13.2432 10.2767C13.0816 10.6638 12.9228 11.0439 12.763 11.4279C12.7043 11.5689 12.648 11.7044 12.5909 11.8421C12.5338 11.98 12.4779 12.1154 12.4217 12.2521C12.3737 12.3689 12.3261 12.4851 12.2793 12.6C12.1809 12.8402 11.8466 13.1982 11.6 13.2793C11.5797 13.286 11.5594 13.2927 11.5392 13.2994C11.4002 13.3454 11.2648 13.3906 11.1284 13.4368C11.0034 13.479 10.8794 13.5216 10.7439 13.5679C10.7316 13.5722 10.7192 13.5764 10.7068 13.5806C10.5586 13.6313 10.3896 13.6881 10.2319 13.7392C9.81416 13.8741 9.40731 14.0064 8.99338 14.1419C8.57923 14.2774 8.16623 14.4133 7.74977 14.5502C7.58714 14.6037 7.42377 14.6575 7.26031 14.7111C7.00601 14.7946 6.75071 14.8782 6.4945 14.9617C6.07293 15.099 5.65005 15.2354 5.22382 15.3711C4.79922 15.5063 4.37127 15.6407 3.94465 15.7729C3.51838 15.905 3.08785 16.0367 2.66253 16.1656C2.48456 16.2195 2.30694 16.2732 2.12943 16.3268C2.00814 16.354 1.89039 16.4214 1.80048 16.522C1.78866 16.5352 1.77731 16.5489 1.76649 16.5632C1.69496 16.657 1.64701 16.7738 1.63285 16.8986C1.61709 17.0339 1.64163 17.1784 1.70683 17.3076C1.71089 17.3157 1.7151 17.3237 1.71946 17.3316C1.79364 17.4674 1.91361 17.5835 2.06159 17.6553C2.24852 17.7372 2.43566 17.8192 2.62285 17.9012C3.07428 18.0988 3.5255 18.2961 3.97717 18.4932C4.24749 18.6112 4.51776 18.729 4.78822 18.8467C4.9328 18.905 5.07136 18.961 5.20456 19.015C6.18875 19.4149 6.8977 19.7113 7.82947 20.1118C7.9188 20.1499 7.99161 20.1806 8.08015 20.218C8.09705 20.2251 8.11496 20.2327 8.13323 20.2405C8.24891 20.2894 8.38163 20.346 8.56577 20.4261C8.9333 20.5853 9.49394 20.8367 10.2188 21.1604C10.4019 21.2422 10.5177 21.2963 10.4768 21.2827C10.448 21.2731 10.3492 21.2338 10.2291 21.1846C10.4501 21.2778 10.6706 21.3705 10.8907 21.4626C10.9785 21.4994 11.0609 21.5341 11.1196 21.5586C11.1739 21.5813 11.2037 21.5935 11.2037 21.5935C11.2037 21.5935 11.2035 21.5934 11.2031 21.5932C11.1981 21.5911 11.158 21.575 11.0916 21.5486C11.0252 21.5222 10.9381 21.4879 10.8492 21.4526C10.6135 21.359 10.3786 21.2656 10.1437 21.1723C9.90857 21.0788 9.67453 20.9859 9.43978 20.8927C9.20509 20.7996 8.97045 20.7065 8.73503 20.6133C8.50053 20.5205 8.26553 20.4275 8.03005 20.3346C7.79308 20.241 7.56053 20.1493 7.32414 20.0563C7.18251 20.0006 7.03916 19.9442 6.89842 19.8889C6.84596 19.8683 6.79476 19.8482 6.74355 19.8281C6.70168 19.8117 6.65961 19.7952 6.6163 19.7782C6.16063 19.5994 5.70042 19.4195 5.24414 19.2417C4.7857 19.063 4.32754 18.885 3.86921 18.7076C3.41063 18.53 2.95223 18.3532 2.49346 18.1767C2.31116 18.1066 2.12888 18.0366 1.94654 17.9667C1.73106 17.8837 1.54319 17.7337 1.41516 17.5437C1.40381 17.5269 1.39293 17.5098 1.3825 17.4924C1.27506 17.3141 1.21882 17.1058 1.22172 16.8986C1.22403 16.6956 1.28297 16.4944 1.38932 16.3232C1.40199 16.3028 1.41529 16.2828 1.42922 16.2633C1.56041 16.0787 1.74776 15.9376 1.95839 15.8623C2.03049 15.8363 2.10271 15.8102 2.17494 15.7841C2.31318 15.7299 2.45 15.6763 2.58505 15.6234C2.97813 15.4694 3.36976 15.3097 3.75498 15.1509C3.06046 15.4095 2.5046 15.6228 1.97483 15.8243C1.96588 15.8277 1.95694 15.8311 1.94801 15.8345C1.89572 15.8545 1.84516 15.8783 1.79675 15.9056C1.64508 15.9909 1.51469 16.1098 1.41545 16.2537C1.29011 16.4353 1.21399 16.6583 1.21205 16.8986C1.21026 17.1136 1.26949 17.3436 1.40691 17.5494C1.44666 17.6089 1.49286 17.6661 1.54559 17.7195C1.66015 17.8357 1.79682 17.924 1.94139 17.9809C4.27062 18.8905 5.66418 19.436 6.55453 19.7864C7.50906 20.162 7.91796 20.3268 8.29863 20.4831C8.83634 20.7045 9.88557 21.1008 10.4135 21.2979C10.6052 21.3699 10.7593 21.4296 10.7578 21.4312C10.7561 21.4328 10.5982 21.3789 10.4051 21.3107C9.84401 21.1122 8.70114 20.7037 8.05777 20.4493C7.77114 20.3362 7.44057 20.2088 6.49505 19.8539C5.61394 19.523 4.22701 19.0054 1.88667 18.1291C1.71933 18.0665 1.55984 17.967 1.42538 17.8337C1.36596 17.7749 1.31353 17.7119 1.26804 17.6462C1.10617 17.4122 1.03335 17.1481 1.03164 16.8986C1.02972 16.6213 1.11336 16.3603 1.2583 16.1442C1.35943 15.9934 1.49073 15.8638 1.64568 15.764C1.70789 15.724 1.77395 15.6887 1.84331 15.6589C1.84374 15.6588 1.84418 15.6586 1.84461 15.6584C1.85569 15.6537 1.86683 15.6491 1.87807 15.6447C2.51837 15.3918 3.21675 15.1135 4.15812 14.7547C6.3666 13.9147 9.32747 12.7578 10.0236 12.4648C10.1602 12.4075 10.292 12.3512 10.431 12.2917C10.634 12.2049 10.853 12.111 11.1273 11.9963L10.9963 12.1273C11.1438 11.6664 11.3441 11.058 11.6619 10.1343C11.7742 9.80821 11.9083 9.42721 12.0566 9.01215C12.2386 8.37436 12.4152 7.7551 12.5794 7.22056C12.7212 6.75924 12.8321 6.32652 12.9335 5.90502C12.9627 5.78367 12.9916 5.66133 13.0203 5.53918C13.0897 5.24457 13.1587 4.94967 13.232 4.66459C13.2905 4.43732 13.3485 4.19815 13.4096 3.94527C13.5116 3.52265 13.6223 3.0613 13.7591 2.55175C13.8883 2.1315 14.1573 1.71949 14.5589 1.41835C14.9204 1.14555 15.391 0.967619 15.8986 0.959258C16.1745 0.954285 16.4598 0.999279 16.7341 1.09943C16.9248 1.16892 17.1046 1.26228 17.2684 1.37511C17.6805 1.65796 17.9874 2.06457 18.1517 2.50923C18.5279 3.51761 18.8506 4.41905 19.1364 5.22587C18.8632 4.42608 18.6614 3.80531 18.4943 3.28781C18.4627 3.1902 18.4326 3.09665 18.4035 3.0066C18.3425 2.81744 18.2863 2.64367 18.2325 2.4801C18.0524 1.9659 17.7291 1.56435 17.3312 1.28494C17.1763 1.17651 17.0089 1.08646 16.8311 1.01672C16.5209 0.895 16.2017 0.841837 15.8986 0.844772C15.3478 0.849802 14.8559 1.0371 14.4808 1.30635C14.0294 1.62971 13.7414 2.06402 13.5933 2.49001C13.2713 3.46141 13.0964 4.06505 12.9266 4.72328C12.8571 4.99279 12.7853 5.29189 12.7074 5.61394C12.5519 6.25765 12.3717 6.99309 12.1415 7.76979C11.9272 8.49327 11.6993 9.30673 11.4543 10.1674C11.4542 10.1677 11.4541 10.168 11.454 10.1684C11.4061 10.3365 11.3576 10.5067 11.3084 10.6782C11.1756 11.1415 11.0382 11.6149 10.8967 12.0906L11.0906 11.8967C10.5203 12.1493 9.94314 12.3992 9.37184 12.6379C9.26212 12.6837 9.13094 12.7393 8.9803 12.8031C8.11143 13.1726 6.58089 13.8072 4.67483 14.4819C4.25636 14.6305 3.81884 14.7777 3.3202 14.9475C3.16832 14.9992 3.01065 15.0529 2.8462 15.1095C2.5346 15.2166 2.19405 15.3351 1.81383 15.4703C1.5426 15.5668 1.27774 15.7523 1.08682 16.0247C0.919116 16.2627 0.810985 16.5685 0.812069 16.8986C0.812209 16.9555 0.815556 17.0129 0.82229 17.0706C0.850018 17.3108 0.938675 17.5562 1.09021 17.7701C1.2616 18.0138 1.51571 18.2147 1.81565 18.3216C2.41621 18.5357 3.05704 18.7623 3.71138 18.9929C4.30062 19.2005 4.90081 19.4114 5.49244 19.6188C7.27953 20.2456 8.91899 20.8158 10.5592 21.3745C10.5596 21.3746 10.5599 21.3747 10.5602 21.3748C10.7539 21.4411 10.9053 21.4938 10.898 21.4928C10.8907 21.4917 10.7265 21.4406 10.5315 21.3782C8.87984 20.8476 7.23549 20.3059 5.44427 19.7087C4.85833 19.5134 4.25955 19.3131 3.66943 19.1149C3.01314 18.8945 2.36729 18.6764 1.76112 18.4699C1.4288 18.3552 1.14466 18.1359 0.951314 17.8669C0.772537 17.62 0.669569 17.3333 0.640704 17.0532C0.635291 17.0014 0.632306 16.9498 0.631649 16.8986C0.626592 16.5301 0.743689 16.1855 0.929801 15.9153C1.14096 15.6069 1.4374 15.3936 1.74372 15.2807C2.15166 15.1296 2.5144 14.9983 2.84421 14.8804C3.01679 14.8187 3.1792 14.7611 3.33343 14.7066C3.82443 14.533 4.23324 14.3903 4.62849 14.2448C6.46622 13.5704 7.93342 12.9448 8.80245 12.5656C8.95668 12.4986 9.09224 12.4396 9.20786 12.39C9.79573 12.1378 10.3916 11.8729 10.9828 11.6043L10.6043 11.9828C10.7305 11.543 10.8539 11.1037 10.9743 10.6706C11.0215 10.5006 11.0684 10.3314 11.1148 10.1634C11.1148 10.1631 11.1149 10.1627 11.115 10.1624C11.3532 9.2995 11.5793 8.4692 11.7925 7.73037C12.0089 6.98048 12.1671 6.31522 12.3134 5.69233C12.392 5.35811 12.4674 5.03612 12.547 4.72002C12.7247 4.01394 12.9085 3.36931 13.2379 2.35968C13.4103 1.86382 13.7445 1.36363 14.2622 0.992583C14.6968 0.680205 15.2651 0.46489 15.8986 0.458645C16.2463 0.455003 16.6115 0.51522 16.9665 0.652724ZM9.88751 21.0402C9.43404 20.8464 9.06456 20.6885 8.78868 20.5729C9.02238 20.6727 9.2556 20.7721 9.48908 20.8712C9.62197 20.9277 9.75474 20.984 9.88751 21.0402ZM12.3927 9.07164C12.3702 9.14839 12.3475 9.22571 12.3247 9.30328C12.3995 9.0935 12.4744 8.88371 12.5492 8.67426C12.641 8.41707 12.7328 8.15997 12.8247 7.90296C12.6733 8.30963 12.5273 8.70397 12.3927 9.07164ZM16.6034 1.46517C16.3714 1.37936 16.1305 1.34137 15.8986 1.34578C15.4711 1.35333 15.0783 1.50475 14.7785 1.73359C14.4439 1.98761 14.2228 2.33304 14.1187 2.68395C14.0027 3.1145 13.9048 3.51319 13.8106 3.89431C13.7456 4.15705 13.6823 4.4117 13.6163 4.66241C13.5889 4.76637 13.5625 4.87059 13.5363 4.97581C13.7557 4.38766 13.9585 3.84742 14.1248 3.40525C14.2099 3.17889 14.2894 2.96952 14.3641 2.77468C14.4958 2.42991 14.726 2.17492 14.9717 2.01085C15.279 1.80608 15.6082 1.73485 15.8986 1.74312C16.1582 1.75083 16.3911 1.82011 16.5909 1.926C16.6629 1.96424 16.7309 2.00746 16.7946 2.05504C16.9182 2.14738 17.0262 2.25601 17.1174 2.37874C17.2246 2.49636 17.3177 2.63643 17.3859 2.7919C17.3982 2.8191 17.4105 2.84625 17.4227 2.87348C17.5225 3.09581 17.6287 3.33679 17.7283 3.56666C17.8284 3.79737 17.9285 4.03238 18.0254 4.26377C18.123 4.49707 18.2183 4.72877 18.312 4.95981C18.4003 5.17719 18.4873 5.3942 18.5714 5.60417C18.5763 5.6162 18.5811 5.62822 18.5859 5.64025C18.6749 5.86216 18.7614 6.07809 18.8434 6.27553C18.927 6.47649 18.9992 6.64255 19.0692 6.78776C19.1565 6.96912 19.2449 7.15561 19.3314 7.34038C19.4179 7.52535 19.5031 7.7099 19.5872 7.89424C19.6714 8.07897 19.754 8.26215 19.8361 8.4461C19.8627 8.50558 19.8904 8.56783 19.9166 8.62685C19.9286 8.65406 19.9407 8.68124 19.9527 8.70836C19.8174 8.33921 19.6774 7.95572 19.5336 7.55906C19.3258 6.98602 19.1114 6.37156 18.874 5.69404C18.562 4.80334 18.2104 3.80368 17.7832 2.64565C17.6469 2.27448 17.3915 1.93323 17.0456 1.69491C16.9101 1.60133 16.7614 1.52351 16.6034 1.46517ZM23.1237 12.4478C22.9631 12.3895 22.7272 12.3056 22.4229 12.1976C22.351 12.172 22.2751 12.1452 22.1956 12.117C22.1974 12.1178 22.1993 12.1185 22.2011 12.1192C22.3937 12.2016 22.5716 12.2771 22.7642 12.3573C23.1074 12.5003 23.4414 12.6376 23.7794 12.7745C24.1188 12.912 24.4579 13.0473 24.7979 13.181C25.1385 13.315 25.4808 13.4475 25.8206 13.577C26.1639 13.7077 26.5028 13.835 26.8459 13.9611C26.9551 14.0013 27.0648 14.0413 27.1746 14.0811C26.9338 13.9807 26.6831 13.8784 26.4182 13.7704C26.2066 13.6842 25.986 13.5942 25.7543 13.4986C25.6656 13.462 25.5587 13.4167 25.434 13.3639C24.9396 13.1545 24.1639 12.8256 23.1237 12.4478ZM29.9439 14.9986C30.0074 15.0202 30.0706 15.0419 30.1332 15.0636C30.1576 15.0723 30.1814 15.0812 30.205 15.0907C30.527 15.2193 30.8041 15.4335 31.008 15.6954C31.0285 15.7218 31.0483 15.7486 31.0674 15.7759C31.1817 15.939 31.2694 16.1181 31.3285 16.3037C31.3576 16.3951 31.3801 16.4885 31.3954 16.5821C31.4127 16.6872 31.4214 16.7931 31.4216 16.8986C31.4217 16.9506 31.4198 17.0025 31.4158 17.0542C31.4207 17.0024 31.4236 16.9505 31.4244 16.8986C31.4311 16.4974 31.3112 16.0963 31.0849 15.7637C30.8603 15.4314 30.5304 15.1683 30.1482 15.0238C29.9907 14.9633 29.8324 14.9028 29.6726 14.8422C29.6632 14.8386 29.6536 14.8351 29.6441 14.8315C29.7464 14.8885 29.8463 14.9442 29.9439 14.9986Z" fill="var(--stroke-0, #FF6B6B)"/>
</svg>
