<svg preserveAspectRatio="none" width="100%" height="100%" overflow="visible" style="display: block;" viewBox="0 0 7 7" fill="none" xmlns="http://www.w3.org/2000/svg">
<path id="Vector" d="M4.80382 3.2718C4.77077 3.31625 4.72469 3.34284 4.66545 3.37537C4.66543 3.3754 4.66541 3.37542 4.66539 3.37545C4.65692 3.3801 4.64814 3.38482 4.63913 3.38978C4.56657 3.42965 4.47411 3.48327 4.35523 3.58467C4.22388 3.69671 4.06773 3.7338 3.95031 3.73437C3.9284 3.73447 3.9111 3.73996 3.87706 3.76337C3.86 3.77508 3.83927 3.79087 3.8119 3.8119C3.80343 3.8184 3.79433 3.82541 3.78449 3.83294C3.76236 3.84991 3.73656 3.86962 3.70602 3.89235C3.60502 3.96771 3.46717 4.10626 3.33657 4.23034C3.25743 4.30577 3.18115 4.3761 3.11964 4.42594C3.02967 4.49883 2.93361 4.5599 2.82858 4.6257C2.73233 4.68589 2.62859 4.7501 2.51378 4.82959C2.42556 4.89046 2.30524 4.91499 2.18224 4.9392C2.16658 4.94226 2.15085 4.94535 2.13512 4.94845C2.02655 4.96978 1.91785 4.99387 1.81976 5.03937C1.6452 5.12076 1.54965 5.22946 1.43694 5.3429C1.39302 5.38743 1.34677 5.433 1.2935 5.47929C1.20927 5.55254 1.07909 5.64873 0.947365 5.74431C0.936144 5.75245 0.924925 5.76062 0.913703 5.76874C0.913647 5.76878 0.91359 5.76882 0.913534 5.76886C0.792751 5.85615 0.67372 5.94134 0.587481 6.00492C0.450402 6.10592 0.400319 6.14541 0.357977 6.17778C0.342039 6.18993 0.327143 6.20103 0.308905 6.21379C0.243175 6.25969 0.138645 6.32368 0.0328853 6.38874C0.0324823 6.38899 0.0320779 6.38924 0.0316742 6.38948C0.0139561 6.40012 -0.000227854 6.40881 4.93252e-08 6.40891C0.000231716 6.409 0.0129532 6.39863 0.0284289 6.38575C0.0782871 6.34513 0.127028 6.30557 0.170371 6.26986C0.167772 6.26317 0.175022 6.24913 0.188289 6.23688C0.221301 6.20602 0.321649 6.11074 0.455291 5.9382C0.442402 5.94629 0.431415 5.95287 0.421708 5.95855C0.410316 5.96523 0.401482 5.97024 0.393951 5.97461C0.37827 5.98373 0.368082 5.99005 0.35265 6.00391C0.318969 6.03809 0.269213 6.09498 0.217048 6.15504C0.203738 6.17006 0.186862 6.17607 0.179319 6.1684C0.17178 6.16073 0.174718 6.14056 0.185931 6.12343C0.186152 6.1231 0.186373 6.12276 0.186594 6.12243C0.231152 6.05584 0.275674 5.99029 0.306628 5.95036C0.314503 5.9402 0.321507 5.93167 0.326895 5.9254C0.331201 5.92038 0.336655 5.91419 0.340201 5.91127C0.340671 5.91089 0.341583 5.91016 0.342753 5.90937C0.342775 5.90936 0.342797 5.90935 0.342819 5.90934C0.343472 5.9089 0.346785 5.90664 0.351503 5.90541C0.352458 5.90516 0.354555 5.90465 0.357475 5.90454C0.357929 5.90421 0.358386 5.90388 0.358842 5.90356C0.365196 5.89901 0.37174 5.89442 0.378695 5.88933C0.405953 5.86956 0.447198 5.83631 0.529844 5.76383C0.605764 5.69707 0.725605 5.57571 0.868027 5.41717C0.856153 5.42563 0.844391 5.43424 0.832785 5.443C0.803585 5.46504 0.775121 5.48805 0.747209 5.51164C0.736524 5.52068 0.726044 5.52966 0.715473 5.53892C0.698447 5.55382 0.681558 5.56894 0.664868 5.58425C0.653586 5.59459 0.642373 5.60505 0.631224 5.61554C0.631202 5.61557 0.631181 5.6156 0.631159 5.61562C0.615685 5.63019 0.600287 5.64491 0.584859 5.65983C0.579417 5.66501 0.574078 5.67017 0.568802 5.67531C0.54782 5.69581 0.527379 5.71611 0.502492 5.73814C0.499272 5.74062 0.495636 5.74318 0.492851 5.74502C0.489873 5.74701 0.48697 5.7489 0.484176 5.75063C0.481712 5.75215 0.47932 5.75356 0.477056 5.75495C0.476753 5.75513 0.476451 5.75532 0.476148 5.75551C0.473616 5.75705 0.471227 5.75857 0.468949 5.76004C0.466674 5.76151 0.464489 5.76293 0.462419 5.76442C0.462404 5.76443 0.462391 5.76445 0.462377 5.76447C0.460224 5.76603 0.458598 5.76722 0.45644 5.769C0.453733 5.77123 0.451466 5.77321 0.44883 5.77571C0.446278 5.77814 0.443689 5.78074 0.441137 5.78342C0.438585 5.78611 0.436038 5.7889 0.433491 5.79177C0.430941 5.79464 0.428379 5.79758 0.42583 5.80058C0.423282 5.80358 0.420735 5.80666 0.418176 5.80975C0.415617 5.81284 0.413035 5.81598 0.410453 5.81914C0.404502 5.82641 0.395722 5.83031 0.386134 5.83003C0.376534 5.82973 0.366943 5.82532 0.359147 5.81746C0.351353 5.8096 0.34586 5.79881 0.343592 5.78714C0.341341 5.77549 0.34252 5.76395 0.346975 5.75517C0.34819 5.75279 0.349402 5.75038 0.35063 5.74797C0.35136 5.74655 0.352108 5.74512 0.352844 5.74368C0.354821 5.73983 0.356807 5.73592 0.358847 5.73204C0.360887 5.72815 0.362976 5.72427 0.365115 5.72036C0.36726 5.71644 0.369461 5.7125 0.371761 5.70857C0.374055 5.70465 0.376462 5.7007 0.378997 5.69679C0.381463 5.69296 0.384399 5.68871 0.387154 5.68504C0.389155 5.68235 0.391768 5.67918 0.39399 5.67657C0.39631 5.67386 0.398662 5.67126 0.400982 5.6688C0.403307 5.66634 0.405613 5.66402 0.407817 5.6618C0.40805 5.66156 0.408282 5.66132 0.408515 5.66108C0.410465 5.65912 0.412356 5.65724 0.414119 5.65543C0.41609 5.65342 0.417913 5.65147 0.419607 5.64958C0.421481 5.64751 0.422536 5.64616 0.423812 5.64449C0.439459 5.62124 0.457209 5.59089 0.474158 5.56199C0.476289 5.55836 0.478419 5.55475 0.480519 5.55119C0.491634 5.53218 0.502697 5.51319 0.513768 5.49422C0.521814 5.48044 0.529871 5.46664 0.53798 5.45287C0.549909 5.43259 0.561952 5.41234 0.574069 5.39219C0.581601 5.37968 0.589039 5.36745 0.596642 5.35506C0.616485 5.3227 0.63671 5.29056 0.657597 5.25901C0.67846 5.22751 0.700068 5.19642 0.722761 5.16638C0.74537 5.13647 0.770017 5.10654 0.795991 5.07982C0.815138 5.06023 0.83768 5.04306 0.859598 5.02823C0.871381 5.02027 0.883139 5.01269 0.894871 5.00537C0.89492 5.00535 0.894968 5.00533 0.895015 5.00531C0.905312 4.99889 0.915556 4.99262 0.92564 4.98631C0.947293 4.97282 0.96821 4.95921 0.988328 4.9448C1.00842 4.93043 1.02767 4.91535 1.0461 4.8992C1.06438 4.88317 1.0821 4.86599 1.09874 4.84809C1.11548 4.8301 1.13106 4.81159 1.14671 4.79142C1.16721 4.76482 1.18641 4.73724 1.20589 4.7087C1.22518 4.68033 1.24421 4.65131 1.26326 4.62217C1.26991 4.61199 1.27664 4.60184 1.2833 4.59161C1.28333 4.59157 1.28336 4.59154 1.28339 4.5915C1.29572 4.57258 1.30807 4.5536 1.32048 4.53466C1.33966 4.50544 1.359 4.47624 1.37884 4.44735C1.39868 4.41849 1.41905 4.38985 1.44046 4.362C1.46193 4.3342 1.48481 4.30648 1.51054 4.28138C1.53341 4.2589 1.5574 4.23719 1.58104 4.21614C1.58728 4.21058 1.59353 4.20503 1.59979 4.19949C1.62941 4.17312 1.65758 4.14708 1.68276 4.11866C1.708 4.09034 1.73064 4.05945 1.75129 4.02607C1.77187 3.99281 1.79067 3.95707 1.80829 3.91972C1.82599 3.8822 1.8421 3.84382 1.85778 3.80389C1.8733 3.76422 1.88813 3.72361 1.90256 3.68193C1.91061 3.65878 1.92006 3.63505 1.92955 3.61318C1.93912 3.59109 1.94918 3.56969 1.95937 3.54883C1.9635 3.54036 1.96769 3.532 1.97181 3.52367C1.97782 3.51152 1.98382 3.49951 1.98957 3.48755C1.99928 3.46735 2.00836 3.44725 2.01627 3.42682C2.02418 3.40639 2.03083 3.38555 2.03568 3.36383C2.04066 3.34132 2.04325 3.32125 2.04445 3.29535C2.05316 3.23806 2.06542 3.20941 2.07903 3.17757C2.08171 3.1713 2.08438 3.16482 2.08715 3.15806C2.10407 3.12049 2.12322 3.08518 2.14371 3.05194C2.16444 3.01842 2.18646 2.98704 2.21033 2.95682C2.23396 2.92688 2.25936 2.89833 2.28606 2.87129C2.31272 2.8443 2.34077 2.81879 2.37036 2.79468C2.39992 2.77057 2.43161 2.74749 2.46341 2.7267C2.48177 2.71468 2.50225 2.70287 2.52175 2.69239C2.53582 2.68483 2.54992 2.67761 2.56378 2.67056C2.56944 2.66768 2.57507 2.66483 2.58063 2.66199C2.5991 2.65254 2.61692 2.64319 2.63336 2.63336C2.63398 2.63299 2.63461 2.63261 2.63523 2.63224C2.6522 2.622 2.66776 2.61122 2.68156 2.59926C2.69539 2.58728 2.70745 2.57409 2.71803 2.5594C2.72892 2.54411 2.73681 2.53024 2.74521 2.51085C2.75064 2.49816 2.75586 2.48564 2.76107 2.47316C2.76887 2.45448 2.77649 2.4358 2.78402 2.41685C2.79155 2.39793 2.79881 2.37907 2.80591 2.35992C2.80819 2.35376 2.81061 2.34727 2.81285 2.34104C2.81977 2.3218 2.82638 2.30256 2.83264 2.28299C2.83889 2.26345 2.84474 2.24376 2.85012 2.2237C2.85553 2.20357 2.86043 2.18336 2.86498 2.16228C2.87265 2.12642 2.88762 2.09972 2.90225 2.07786C2.91716 2.05584 2.93295 2.03711 2.94841 2.01899C2.95131 2.01559 2.95421 2.0122 2.95711 2.00881C2.96967 1.99427 2.98214 1.98009 2.99406 1.96577C3.00877 1.94812 3.02271 1.9303 3.03617 1.9119C3.04953 1.89366 3.06249 1.87472 3.0745 1.85532C3.08661 1.83572 3.09763 1.81641 3.10877 1.79487C3.11984 1.77362 3.12923 1.7502 3.13976 1.72475C3.15018 1.69952 3.16147 1.6734 3.17441 1.64845C3.18729 1.62349 3.20182 1.59957 3.21788 1.57746C3.23396 1.55529 3.25164 1.53459 3.27041 1.51552C3.28928 1.49634 3.30938 1.47863 3.33041 1.46203C3.35138 1.44546 3.37413 1.42944 3.39633 1.41534C3.43226 1.39251 3.46887 1.37062 3.50594 1.34907C3.54283 1.32768 3.58026 1.30665 3.61793 1.28597C3.65554 1.26533 3.69345 1.24495 3.73157 1.22485C3.76971 1.20475 3.80806 1.18487 3.84651 1.16518C3.85501 1.16083 3.86352 1.15648 3.87204 1.15214C3.90203 1.13685 3.9321 1.12164 3.96207 1.10652C3.96229 1.10643 3.96251 1.10634 3.96273 1.10625C4.00127 1.08676 4.0392 1.06772 4.07722 1.04819C4.09115 1.041 4.10454 1.03409 4.11803 1.02696C4.13154 1.01981 4.1447 1.01271 4.15787 1.00543C4.17105 0.998138 4.18402 0.990752 4.19662 0.983309C4.20935 0.975772 4.2216 0.968271 4.23365 0.960388C4.24472 0.953185 4.25536 0.945686 4.26707 0.937575C4.26814 0.936833 4.2692 0.936092 4.27027 0.935351C4.28308 0.926474 4.29818 0.916902 4.31321 0.909003C4.35315 0.888209 4.39161 0.867478 4.43035 0.845957C4.46911 0.824428 4.50741 0.80257 4.54605 0.780554C4.56115 0.771961 4.57628 0.763292 4.5915 0.754706C4.61517 0.741346 4.63903 0.728042 4.6632 0.714924C4.70295 0.69333 4.74345 0.672362 4.78515 0.652198C4.8267 0.632109 4.86947 0.612849 4.91294 0.594576C4.95638 0.576309 5.00106 0.558747 5.04581 0.542076C5.09569 0.523519 5.14563 0.505413 5.19581 0.48725C5.24592 0.469128 5.29613 0.45106 5.34606 0.433013C5.39616 0.414893 5.44608 0.396764 5.49588 0.378498C5.54571 0.36022 5.59538 0.341825 5.64489 0.323218C5.67452 0.312083 5.70408 0.300891 5.73356 0.289602C5.74686 0.281331 5.75969 0.273484 5.77215 0.266048C5.8644 0.211297 5.93524 0.175844 6.03418 0.134558C6.04352 0.130471 6.05091 0.12693 6.05997 0.122695C6.06169 0.121888 6.06354 0.12104 6.06541 0.120174C6.0773 0.114685 6.09114 0.108578 6.11118 0.100863C6.15086 0.0851742 6.21586 0.0652986 6.2992 0.0389725C6.32031 0.0323807 6.33488 0.0293191 6.33262 0.0330264C6.33107 0.0356787 6.32225 0.0415706 6.31073 0.0480053C6.33326 0.0373664 6.35558 0.0265965 6.37765 0.0156662C6.38646 0.0113104 6.39483 0.00731104 6.40066 0.00435224C6.40607 0.00162261 6.40891 4.11285e-06 6.40891 0C6.40891 0 6.40891 0 6.40891 0C6.40891 7.97377e-09 6.40889 1.00802e-05 6.40886 3.05132e-05C6.40837 0.000305114 6.40466 0.00257049 6.39877 0.0065679C6.39287 0.0105493 6.38527 0.0159229 6.37737 0.0212529C6.35639 0.0353784 6.33547 0.0494378 6.31455 0.063513C6.29362 0.0775999 6.2728 0.0916393 6.25197 0.105762C6.23114 0.119881 6.21036 0.134041 6.18958 0.148306C6.16888 0.162517 6.14819 0.176809 6.12755 0.191205C6.10677 0.205689 6.08646 0.219986 6.06589 0.234578C6.05357 0.243322 6.04111 0.252189 6.02893 0.260933C6.02438 0.264189 6.01996 0.267385 6.01554 0.270574C6.01192 0.273181 6.00828 0.275795 6.00453 0.278493C5.9652 0.306913 5.92577 0.335885 5.887 0.364904C5.84804 0.394053 5.8094 0.42346 5.77107 0.453164C5.73271 0.482884 5.69471 0.512896 5.65696 0.543198C5.61923 0.573486 5.58183 0.604053 5.54466 0.634993C5.50765 0.66583 5.47076 0.697076 5.43437 0.728643C5.40621 0.75306 5.37856 0.777539 5.35114 0.802324C5.34252 0.814262 5.33395 0.826034 5.3255 0.837661C5.3009 0.871491 5.27937 0.908485 5.25905 0.945813C5.30901 0.893168 5.34597 0.847702 5.38203 0.805294C5.38686 0.799606 5.39167 0.793962 5.3965 0.788371C5.44572 0.731228 5.4964 0.679161 5.57589 0.620453C5.80167 0.453181 5.93328 0.356883 6.01636 0.297944C6.09938 0.238982 6.13697 0.215561 6.17351 0.195171C6.22547 0.166669 6.30798 0.093901 6.34831 0.0562033C6.36318 0.0427244 6.37606 0.0327214 6.37709 0.0338841C6.37812 0.0350505 6.36873 0.0487628 6.35609 0.0644644C6.31904 0.109809 6.2414 0.2002 6.18478 0.23934C6.15969 0.256903 6.13232 0.278585 6.05914 0.345231C5.98585 0.411774 5.86947 0.521205 5.66439 0.709927C5.59487 0.773636 5.55102 0.828672 5.50749 0.890369C5.50322 0.896413 5.49896 0.902551 5.49466 0.90873C5.49463 0.908763 5.49459 0.908795 5.49456 0.908828C5.45482 0.96575 5.41302 1.0292 5.34817 1.10628C5.19783 1.28306 5.01097 1.53624 4.97714 1.60687C4.9704 1.62063 4.9644 1.63445 4.9581 1.64905C4.9339 1.70508 4.90545 1.77349 4.81465 1.90097C4.79478 1.92884 4.76995 1.95993 4.7418 1.99281C4.72275 2.06532 4.70428 2.13575 4.68213 2.19091C4.66298 2.23849 4.65671 2.29373 4.65405 2.35069C4.65328 2.36708 4.65283 2.3839 4.65239 2.40072C4.65135 2.44127 4.65055 2.48208 4.64625 2.51833C4.64281 2.54722 4.64107 2.57932 4.63937 2.6134C4.63293 2.73728 4.62853 2.88905 4.53705 3.00107C4.43981 3.11955 4.34154 3.20598 4.25409 3.27782C4.32342 3.23017 4.38214 3.19858 4.43164 3.17285C4.44098 3.168 4.44994 3.16337 4.45857 3.1589C4.51945 3.12733 4.56307 3.10372 4.59498 3.0636C4.74696 2.87148 4.78442 2.77987 4.8004 2.65023C4.80455 2.61604 4.80635 2.57555 4.80856 2.5322C4.81293 2.44549 4.81924 2.34763 4.84698 2.26345C4.87274 2.18496 4.89484 2.09047 4.92024 1.99233C4.92026 1.99231 4.92029 1.99228 4.92031 1.99225C4.92527 1.97307 4.93036 1.95374 4.9356 1.93435C4.96748 1.81603 5.00592 1.69649 5.05742 1.5942C5.06292 1.58325 5.06912 1.56974 5.07628 1.55429C5.1167 1.46413 5.1957 1.31391 5.34962 1.18791C5.38315 1.15997 5.42217 1.1351 5.46568 1.1057C5.47894 1.09675 5.49266 1.08741 5.50673 1.07742C5.56753 1.0343 5.63748 0.977976 5.71893 0.891304C5.78618 0.819806 5.86264 0.72717 5.94075 0.629693C5.97921 0.581662 6.01805 0.532438 6.05612 0.483717C6.17119 0.336607 6.27427 0.199403 6.37113 0.0564293C6.37115 0.0564 6.37117 0.0563708 6.37119 0.0563415C6.38279 0.0396102 6.39232 0.0269497 6.39266 0.0282794C6.39298 0.0296104 6.38582 0.0462214 6.37644 0.0651646C6.29579 0.22449 6.20838 0.376632 6.10938 0.538927C6.07701 0.592032 6.0436 0.646 6.01022 0.698774C5.94184 0.806833 5.87358 0.910027 5.81295 0.989434C5.73896 1.08643 5.6739 1.14995 5.61719 1.19859C5.60354 1.21031 5.59048 1.2211 5.57799 1.23127C5.53825 1.26362 5.50425 1.28956 5.47504 1.31867C5.33814 1.4528 5.27066 1.60587 5.23488 1.70114C5.22837 1.71789 5.22268 1.73262 5.21751 1.74485C5.17261 1.85072 5.14 1.97367 5.11289 2.09663C5.10848 2.11656 5.10417 2.13647 5.09997 2.15632C5.09998 2.15637 5.09998 2.15643 5.09999 2.15649C5.07841 2.25841 5.05931 2.358 5.03601 2.44088C5.01229 2.52495 5.00911 2.61577 5.00707 2.70166C5.00595 2.74772 5.00503 2.79224 5.0012 2.83328C4.9877 2.97427 4.95047 3.07325 4.80382 3.2718ZM6.27577 0.0643381C6.22822 0.0849746 6.18949 0.101803 6.16178 0.115474C6.18624 0.10479 6.21053 0.0940261 6.23469 0.0831071C6.24844 0.0768922 6.26213 0.07064 6.27577 0.0643381ZM4.55719 1.81655C4.55981 1.80812 4.56244 1.79963 4.5651 1.79112C4.55096 1.80781 4.53674 1.82443 4.52257 1.84105C4.50517 1.86145 4.48771 1.8818 4.47028 1.90215C4.50109 1.87288 4.53052 1.84409 4.55719 1.81655ZM4.32823 2.79274C4.41773 2.69032 4.42476 2.55393 4.43384 2.43369C4.4364 2.39901 4.43909 2.36558 4.44367 2.33443C4.44556 2.32151 4.44693 2.30807 4.44804 2.29425C4.40322 2.33635 4.36141 2.37443 4.32703 2.40546C4.22447 2.49805 4.15263 2.53728 4.08917 2.57142C4.0708 2.5813 4.05314 2.59078 4.03562 2.60095C4.0314 2.61965 4.02673 2.63877 4.02111 2.65719C4.01332 2.68306 4.00389 2.71002 3.99409 2.73486C3.98427 2.7598 3.97345 2.78431 3.96193 2.80748C3.95032 2.83085 3.93796 2.85316 3.92507 2.87477C3.91296 2.89513 3.90031 2.91484 3.88808 2.93391C3.88737 2.935 3.88667 2.93609 3.88597 2.93718C3.87306 2.95736 3.86045 2.97694 3.85034 2.99641C3.84008 3.01626 3.83313 3.03434 3.83031 3.05374C3.82676 3.07792 3.82247 3.1021 3.81766 3.12543C3.81285 3.14879 3.80749 3.17148 3.80162 3.19359C3.79574 3.21574 3.78948 3.23724 3.78279 3.25837C3.78063 3.2652 3.77832 3.27231 3.7761 3.27901C3.77507 3.2821 3.77407 3.28521 3.77304 3.28827C3.80059 3.26139 3.82952 3.2338 3.85992 3.20578C3.90383 3.1653 3.95489 3.12627 4.01078 3.08278C4.10616 3.00861 4.21543 2.92132 4.32823 2.79274ZM3.38109 3.7215C3.39249 3.70923 3.40828 3.69036 3.42858 3.66596C3.43338 3.6602 3.43837 3.65404 3.44368 3.64767C3.44349 3.64775 3.44334 3.64789 3.44315 3.64797C3.42294 3.65672 3.40456 3.66507 3.38546 3.67482C3.35145 3.69224 3.31928 3.71004 3.28781 3.72904C3.25623 3.74812 3.22575 3.76817 3.19621 3.78921C3.16662 3.81028 3.138 3.83247 3.11066 3.85549C3.08308 3.87876 3.05683 3.90263 3.03168 3.92809C3.02367 3.93619 3.01577 3.94446 3.008 3.95286C3.03196 3.94074 3.05568 3.92698 3.0807 3.91242C3.10069 3.90079 3.12154 3.88867 3.14402 3.87648C3.15262 3.87181 3.16363 3.86675 3.17646 3.86085C3.2273 3.83744 3.30729 3.80091 3.38109 3.7215ZM2.85807 4.20661C2.85333 4.21362 2.84849 4.22046 2.84349 4.227C2.82926 4.24562 2.81415 4.26254 2.79895 4.27873C2.78826 4.2901 2.77745 4.30107 2.76682 4.31193C2.76234 4.31651 2.75789 4.32112 2.75346 4.32566C2.74604 4.33326 2.73877 4.34091 2.73157 4.34851C2.79265 4.30575 2.85095 4.26255 2.90789 4.2137C2.90864 4.21306 2.90933 4.21235 2.91009 4.2117C2.89234 4.20996 2.875 4.20826 2.85807 4.20661Z" fill="var(--stroke-0, #B4D455)"/>
</svg>
