<svg preserveAspectRatio="none" width="100%" height="100%" overflow="visible" style="display: block;" viewBox="0 0 32 31" fill="none" xmlns="http://www.w3.org/2000/svg">
<path id="Vector" opacity="0.2" d="M7.67698 30.7215C7.33746 30.7215 7.01184 30.5867 6.77177 30.3466C6.53169 30.1065 6.39682 29.7809 6.39682 29.4414V22.6101C5.7139 22.9332 4.96037 23.0784 4.20628 23.0322C3.4522 22.9859 2.72205 22.7498 2.08374 22.3456C1.44542 21.9415 0.919665 21.3825 0.555352 20.7206C0.191038 20.0588 0 19.3155 0 18.56C0 17.8045 0.191038 17.0613 0.555352 16.3994C0.919665 15.7376 1.44542 15.1786 2.08374 14.7744C2.72205 14.3703 3.4522 14.1341 4.20628 14.0879C4.96037 14.0416 5.7139 14.1868 6.39682 14.5099V7.67867C6.39682 7.33915 6.53169 7.01353 6.77177 6.77346C7.01184 6.53338 7.33746 6.39851 7.67698 6.39851H15.1483C14.8248 5.71558 14.6793 4.96194 14.7254 4.20768C14.7714 3.45343 15.0074 2.72306 15.4115 2.08453C15.8156 1.44599 16.3747 0.920036 17.0366 0.555577C17.6986 0.191118 18.442 0 19.1976 0C19.9533 0 20.6967 0.191118 21.3586 0.555577C22.0206 0.920036 22.5796 1.44599 22.9837 2.08453C23.3878 2.72306 23.6238 3.45343 23.6698 4.20768C23.7159 4.96194 23.5704 5.71558 23.2469 6.39851H30.7198C31.0594 6.39851 31.385 6.53338 31.6251 6.77346C31.8651 7.01353 32 7.33915 32 7.67867V14.5099C31.3171 14.1868 30.5635 14.0416 29.8095 14.0879C29.0554 14.1341 28.3252 14.3703 27.6869 14.7744C27.0486 15.1786 26.5229 15.7376 26.1585 16.3994C25.7942 17.0613 25.6032 17.8045 25.6032 18.56C25.6032 19.3155 25.7942 20.0588 26.1585 20.7206C26.5229 21.3825 27.0486 21.9415 27.6869 22.3456C28.3252 22.7498 29.0554 22.9859 29.8095 23.0322C30.5635 23.0784 31.3171 22.9332 32 22.6101V29.4414C32 29.7809 31.8651 30.1065 31.6251 30.3466C31.385 30.5867 31.0594 30.7215 30.7198 30.7215H7.67698Z" fill="var(--fill-0, #B4D455)"/>
</svg>
