<svg preserveAspectRatio="none" width="100%" height="100%" overflow="visible" style="display: block;" viewBox="0 0 37 34" fill="none" xmlns="http://www.w3.org/2000/svg">
<path id="Vector" d="M31.9625 22.6855C31.7854 22.8664 31.6104 23.042 31.4318 23.2187C30.9915 23.6576 30.368 23.9328 29.6923 23.926C29.3018 23.9225 28.8954 23.8232 28.5238 23.6144C28.523 23.614 28.5222 23.6135 28.5214 23.6131C28.3268 23.5036 28.142 23.3639 27.9773 23.1956C27.9682 23.1861 27.959 23.1765 27.9497 23.1669C27.1778 22.3629 26.1729 21.32 24.6373 19.7681C23.6235 18.7436 22.753 17.8267 22.0525 17.0658L23.4635 17.0655C22.9506 17.5373 22.5086 17.9319 22.1522 18.2413C21.987 18.3846 21.8215 18.5384 21.4135 18.9357C21.2091 19.1347 20.9507 19.3882 20.6083 19.7242C20.5024 19.8282 20.3885 19.94 20.2656 20.0606C19.989 20.3321 19.667 20.648 19.2897 21.0174C18.0409 22.2406 16.1041 24.1781 14.3159 25.9597C13.2307 27.0412 12.2003 28.0657 11.414 28.8403C10.2641 29.9732 9.14531 31.057 7.92844 32.2346C7.62627 32.527 7.31802 32.8252 7.00172 33.1314C6.63662 33.4913 6.12007 33.7071 5.58931 33.7001C5.08187 33.6969 4.56769 33.4868 4.19934 33.1092C3.78917 32.6873 3.36205 32.2486 2.91422 31.7896C2.24588 31.1046 1.60452 30.4176 0.968377 29.7252C0.633639 29.3721 0.453217 28.8883 0.470808 28.4137C0.479015 28.1634 0.540176 27.9164 0.648057 27.6934C0.743286 27.4961 0.875224 27.3171 1.03421 27.1689C1.05551 27.1495 1.07676 27.1302 1.098 27.1109C2.05189 26.244 3.0247 25.3555 4.05722 24.3753C5.89741 22.6277 7.32212 21.1895 8.9065 19.6039C9.52599 18.9836 10.1697 18.3404 10.8709 17.6459C11.9799 16.5476 13.5832 14.9778 15.1941 13.4025C15.3314 13.2684 15.4688 13.134 15.6058 13C15.6065 12.9993 15.6072 12.9986 15.6079 12.998C16.2622 12.3583 16.9112 11.724 17.5235 11.1255L17.5236 11.3552C16.7732 10.5873 16.079 9.87709 15.5011 9.28659C13.8506 7.59998 13.2281 6.96688 12.7095 6.43829C12.5145 6.23956 12.3342 6.05545 12.1197 5.83547C11.3473 5.04319 10.1865 3.84187 9.00964 2.62432C9.00515 2.61967 9.00066 2.61503 8.99617 2.61038C8.80103 2.40815 8.64342 2.24505 8.64418 2.24614C8.64498 2.24727 8.80568 2.41031 9.00309 2.61032C9.63262 3.24908 10.2468 3.87248 10.7971 4.43034C10.8304 4.45442 10.983 4.60022 11.1613 4.77955C11.6079 5.22829 12.9765 6.6019 15.1417 8.72828C14.9972 8.57889 14.8762 8.45357 14.7704 8.34368C14.6461 8.21469 14.551 8.11577 14.4692 8.03078C14.2986 7.85365 14.1849 7.73604 13.9803 7.52994C13.5045 7.05462 12.7535 6.31076 11.963 5.52817C11.7636 5.33042 11.6086 5.1646 11.6171 5.15788C11.6257 5.15123 11.7962 5.30456 11.9978 5.50023C12.0018 5.50406 12.0057 5.50789 12.0096 5.51172C12.7997 6.27971 13.5816 7.04062 14.0829 7.53292C14.2104 7.65817 14.32 7.76627 14.4022 7.84756C14.4679 7.91255 14.5499 7.99376 14.5949 8.0394C14.6009 8.04546 14.6122 8.05703 14.6257 8.07091C14.626 8.07115 14.6262 8.07138 14.6264 8.07162C14.6339 8.07938 14.6725 8.11898 14.7124 8.16241C14.7205 8.17118 14.738 8.19028 14.7579 8.21293C14.7633 8.21848 14.7687 8.22403 14.7741 8.22958C14.8497 8.30692 14.9267 8.38589 15.0102 8.47124C15.336 8.8046 15.8541 9.33068 16.9363 10.423C17.1558 10.6447 17.4093 10.8996 17.6938 11.185C17.7241 11.2173 17.7261 11.2654 17.6938 11.2957C16.6859 12.3009 15.2983 13.6922 13.6609 15.3428C13.8051 15.2019 13.9495 15.0607 14.0936 14.9194C14.4562 14.5638 14.8197 14.2057 15.1827 13.8468C15.3218 13.7094 15.4589 13.5737 15.5985 13.4354C15.8233 13.2127 16.0485 12.9892 16.2734 12.7656C16.4254 12.6145 16.5776 12.463 16.7296 12.3116C16.73 12.3112 16.7303 12.3109 16.7306 12.3106C16.9416 12.1004 17.153 11.8897 17.3659 11.6772C17.4405 11.6029 17.5141 11.5294 17.5872 11.4564C17.6318 11.4118 17.6764 11.3674 17.7209 11.3229C17.769 11.2777 17.7661 11.206 17.7209 11.1579C17.4754 10.912 17.2283 10.6643 16.9511 10.3848C16.9115 10.3445 16.8686 10.3005 16.8367 10.2676C16.8023 10.2323 16.7693 10.1982 16.7382 10.166C16.7107 10.1376 16.6845 10.1104 16.6594 10.0844C16.656 10.0809 16.6526 10.0775 16.6493 10.074C16.6212 10.0449 16.5942 10.0171 16.5684 9.9904C16.5425 9.96376 16.5176 9.93809 16.493 9.9129C16.4928 9.91267 16.4926 9.91245 16.4923 9.91222C16.4666 9.88591 16.4471 9.86594 16.4197 9.83818C16.3853 9.80333 16.3557 9.77343 16.3197 9.73733C16.2849 9.7024 16.2486 9.66604 16.2118 9.62939C16.175 9.59274 16.1375 9.55547 16.0994 9.51768C16.0612 9.47986 16.0224 9.44145 15.9833 9.40277C15.9442 9.36412 15.9045 9.32498 15.8647 9.28564C15.8248 9.24628 15.7844 9.20649 15.7439 9.16653C15.6506 9.07452 15.5642 8.98323 15.5039 8.91308C15.4436 8.84294 15.4143 8.79962 15.4226 8.79221C15.4308 8.78483 15.4762 8.81389 15.549 8.87277C15.6218 8.93168 15.7162 9.01569 15.811 9.10624C15.8369 9.13089 15.8628 9.15566 15.8889 9.18054C15.9044 9.19531 15.92 9.21023 15.9355 9.22508C15.9773 9.26501 16.0196 9.30535 16.062 9.34597C16.1045 9.38656 16.1473 9.42756 16.1905 9.46903C16.2339 9.51062 16.2778 9.55281 16.3223 9.59565C16.3666 9.6384 16.4119 9.68215 16.4579 9.72669C16.5027 9.77013 16.5536 9.81981 16.5991 9.86437C16.6324 9.89692 16.6732 9.93719 16.7072 9.97081C16.7427 10.0059 16.7775 10.0405 16.8111 10.0739C16.8447 10.1074 16.8772 10.1398 16.9081 10.1708C16.9115 10.1741 16.9148 10.1774 16.9181 10.1807C16.9455 10.2081 16.9719 10.2346 16.9969 10.2595C17.0249 10.2874 17.0514 10.3138 17.0766 10.3389C17.1044 10.3664 17.1214 10.3831 17.1422 10.4035C17.3433 10.5991 17.5799 10.8275 17.8199 11.0589C17.9193 11.1647 17.9257 11.3224 17.8199 11.4218C17.7333 11.5117 17.6462 11.6021 17.5603 11.6913C17.5207 11.7324 17.4813 11.7734 17.4423 11.8138C17.2351 12.0289 17.0285 12.2435 16.822 12.458C16.6719 12.6139 16.5216 12.77 16.3711 12.9262C16.1496 13.1561 15.9273 13.3866 15.7053 13.6168C15.5673 13.7598 15.4319 13.9 15.2942 14.0426C14.9347 14.4147 14.5736 14.7877 14.2115 15.1606C13.8499 15.533 13.4854 15.9071 13.1196 16.2804C12.7551 16.6522 12.3754 17.0374 12.0065 17.4071C11.7352 17.6789 11.4542 17.9546 11.1932 18.2086C11.0529 18.3451 10.9153 18.4786 10.7796 18.6099C10.7791 18.6104 10.7787 18.6108 10.7782 18.6113C10.6591 18.7265 10.5414 18.8403 10.4246 18.9533C10.1742 19.1956 9.92864 19.434 9.68386 19.6731C9.43944 19.9119 9.19687 20.1504 8.95343 20.3916C8.71183 20.631 8.46705 20.8753 8.22559 21.1181C7.98289 21.3621 7.74547 21.6025 7.49669 21.8559C7.16968 22.1891 6.8461 22.5212 6.51413 22.8623C6.18463 23.201 5.8529 23.5428 5.52032 23.8856C5.40408 24.0054 5.28755 24.1254 5.17095 24.2456C5.1705 24.246 5.17005 24.2465 5.16959 24.247C4.95391 24.4693 4.7377 24.6922 4.52126 24.9152C4.18709 25.2595 3.8519 25.6047 3.51502 25.9507C3.1782 26.2967 2.8389 26.6443 2.49691 26.9929C2.23079 27.264 1.95856 27.5403 1.68293 27.8173C1.63114 27.8695 1.58607 27.9284 1.54914 27.9922C1.47543 28.1193 1.43548 28.2664 1.43502 28.4137C1.43414 28.5634 1.47408 28.7125 1.54793 28.8406C1.58412 28.9035 1.62842 28.9618 1.67955 29.0136C1.68436 29.0185 1.68948 29.0236 1.69461 29.0288C2.08568 29.4226 2.46481 29.8033 2.84238 30.177C3.2196 30.5506 3.59915 30.9214 3.98438 31.2934C4.32523 31.6225 4.67151 31.9536 5.02154 32.2862C5.04992 32.3125 5.07997 32.3364 5.11153 32.358C5.25296 32.4552 5.4235 32.5026 5.58931 32.4944C5.7539 32.4869 5.9132 32.4249 6.03733 32.3217C6.06557 32.2983 6.09198 32.2729 6.11635 32.2457C6.4484 31.892 6.7816 31.5358 7.11795 31.1753C7.32902 30.9491 7.55449 30.7094 7.76805 30.4834C7.98369 30.2553 8.19849 30.0291 8.41081 29.8062C8.49696 29.7157 8.58279 29.6257 8.66798 29.5363C8.79219 29.4059 8.91536 29.2767 9.03644 29.1494C9.24078 28.9346 9.43976 28.7246 9.63215 28.5197C9.82445 28.3149 10.0101 28.1151 10.1878 27.9205C10.3717 27.719 10.5218 27.5515 10.6994 27.3492C11.1377 26.8623 11.4162 26.5674 11.7256 26.2398C11.7865 26.1752 11.8487 26.1092 11.9135 26.0404C12.2852 25.6482 12.6587 25.2585 13.0289 24.8755C13.4027 24.4889 13.7723 24.11 14.1482 23.7277C14.5205 23.3491 14.8971 22.9694 15.2735 22.5926C15.6494 22.2164 16.0261 21.8423 16.4052 21.4686C16.784 21.0953 17.1721 20.7157 17.5462 20.3527C17.7623 20.1429 17.9929 19.921 18.2076 19.7153C18.3624 19.567 18.5153 19.421 18.6652 19.2779C18.7265 19.2194 18.7873 19.1613 18.8476 19.1038C19.0477 18.9127 19.2423 18.7265 19.4298 18.5457C19.4369 18.5388 19.444 18.5319 19.4511 18.5251C19.6452 18.3377 19.8322 18.1556 20.0137 17.9759C20.1955 17.796 20.3719 17.6184 20.5469 17.4393C20.7282 17.2535 20.8777 17.0982 21.067 16.8978C21.1903 16.7672 21.311 16.6392 21.4314 16.5116C21.6115 16.3206 21.7903 16.1308 21.9702 15.9394C22.0297 15.8761 22.089 15.813 22.1481 15.7501C22.4937 15.4062 23.0233 15.4044 23.3673 15.7499C23.4944 15.8691 23.621 15.9877 23.7481 16.1066C23.8092 16.1638 23.8737 16.2242 23.935 16.2815C24.1246 16.4586 24.3122 16.6334 24.4999 16.8077C24.6874 16.9817 24.8734 17.1538 25.0591 17.3246C25.2455 17.4962 25.4293 17.6646 25.6172 17.8357C25.9365 18.1266 26.2345 18.4127 26.494 18.6648C26.7565 18.9199 26.9999 19.1602 27.2368 19.3942C27.2811 19.438 27.3255 19.4819 27.3698 19.5257C27.5608 19.7145 27.7485 19.9004 27.9337 20.0831C28.162 20.3083 28.3867 20.5288 28.6126 20.7496C28.8365 20.9685 29.0632 21.189 29.2871 21.4054C29.3693 21.4847 29.4502 21.5627 29.5311 21.6407C29.5587 21.6629 29.5907 21.6778 29.6253 21.6843C29.6476 21.6884 29.6702 21.6885 29.6923 21.6847C29.7232 21.6794 29.7522 21.6665 29.7768 21.6472C29.7926 21.6348 29.806 21.6202 29.8167 21.604C29.9719 21.4397 30.1314 21.2714 30.2928 21.1025C30.5518 20.831 30.8165 20.5567 31.0808 20.286C31.3457 20.0148 31.613 19.7442 31.8779 19.4787C32.1443 19.2118 32.4104 18.9478 32.6761 18.6861C32.9413 18.4251 33.2163 18.1566 33.4746 17.9061C33.7829 17.6071 34.0907 17.3096 34.3987 17.0123C34.4155 16.9995 34.43 16.9838 34.4416 16.9652C34.4555 16.9431 34.4649 16.9176 34.4685 16.8902C34.4753 16.8401 34.4612 16.7844 34.4267 16.7404C34.3821 16.6937 34.3399 16.6494 34.2976 16.6051C33.8993 16.1871 33.5009 15.7683 33.1034 15.35C32.7056 14.9314 32.3082 14.5128 31.9115 14.0945C31.8238 14.002 31.7361 13.9095 31.6483 13.817C31.3394 13.4913 31.0307 13.1655 30.7232 12.841C30.7211 12.8388 30.719 12.8366 30.7169 12.8343C30.3212 12.4167 29.9327 12.0066 29.54 11.5927C29.3958 11.4408 29.2573 11.2949 29.1164 11.1466C28.9754 10.9982 28.8369 10.8527 28.697 10.706C28.557 10.5591 28.4176 10.4131 28.2802 10.2696C28.1412 10.1245 28.0057 9.98325 27.8685 9.841C27.7429 9.71059 27.6177 9.58145 27.4811 9.44029C27.4686 9.4274 27.4562 9.41452 27.4437 9.40163C27.2942 9.24716 27.1247 9.07094 26.9681 8.90613C26.5535 8.46949 26.149 8.04442 25.7367 7.61208C25.3242 7.1795 24.9123 6.74826 24.4969 6.31339C24.3348 6.14357 24.1718 5.97299 24.0088 5.80229C23.9607 5.75184 23.9125 5.70135 23.8643 5.65083C23.6709 5.44898 23.4687 5.2508 23.2599 5.0585C22.8356 4.66793 22.3852 4.30269 21.9096 3.96463C21.4359 3.62783 20.9369 3.31831 20.4215 3.0423C20.1513 2.89755 19.8748 2.76099 19.594 2.63387C19.3398 2.51874 19.0821 2.41137 18.8228 2.31235C18.2149 2.08021 17.5925 1.8921 16.9553 1.74872C16.3191 1.60555 15.6707 1.50803 15.0198 1.45775C14.8264 1.4428 14.6327 1.43198 14.4388 1.42531C13.9777 1.40945 13.5157 1.41702 13.0543 1.4481C12.3984 1.49228 11.7446 1.584 11.0989 1.72297C10.7124 1.80614 10.3291 1.90613 9.95017 2.02281C9.75074 2.08762 9.56091 2.15419 9.37954 2.22174C9.30129 2.25088 9.22462 2.28022 9.14924 2.30978C7.93726 2.79543 7.05598 3.27688 5.99994 4.02239C5.8932 4.09929 5.80731 4.16324 5.7037 4.24227C5.68395 4.25736 5.66302 4.27341 5.64173 4.28985C5.50703 4.39408 5.35329 4.51519 5.14435 4.69015C4.98014 4.82792 4.78397 4.99801 4.5627 5.20388C4.22681 5.52709 3.816 5.92025 3.34076 6.37658C3.14244 6.56676 3.01509 6.68667 3.05551 6.64343C3.08388 6.61299 3.18678 6.50962 3.31313 6.38423C3.07843 6.61467 2.84453 6.84465 2.61142 7.07422C2.51837 7.16584 2.43092 7.25177 2.36889 7.31295C2.3114 7.36964 2.28007 7.40078 2.28007 7.40078C2.28007 7.40078 2.28007 7.40078 2.28007 7.40078C2.28007 7.40078 2.28026 7.40059 2.28065 7.4002C2.28598 7.3949 2.32792 7.35303 2.39704 7.28354C2.46614 7.21408 2.55666 7.1228 2.64917 7.02981C2.89459 6.78316 3.1392 6.53735 3.38385 6.29149C3.62871 6.04542 3.87239 5.80049 4.11674 5.55479C4.24934 5.42147 4.3819 5.28816 4.51455 5.15473C4.62728 5.045 4.74237 4.93666 4.85944 4.83012C5.11445 4.59804 5.37835 4.37496 5.65045 4.1616C5.92431 3.94692 6.20059 3.74622 6.48829 3.55283C6.66068 3.43697 6.8377 3.32367 7.0138 3.21633C7.07944 3.17633 7.14378 3.1378 7.20847 3.09978C7.26134 3.0687 7.31467 3.03783 7.36979 3.00641C7.92284 2.69097 8.50215 2.41094 9.0928 2.17355C9.12125 2.1621 9.14973 2.15076 9.17823 2.13952C9.80127 1.89369 10.4408 1.69279 11.0908 1.53835C11.7412 1.38382 12.4017 1.27588 13.0663 1.21538C13.5227 1.17383 13.9807 1.15463 14.4388 1.15784C14.6475 1.15931 14.8563 1.16542 15.0649 1.1762C15.7288 1.21042 16.3926 1.29228 17.0455 1.42041C17.5505 1.51952 18.0457 1.64523 18.5333 1.79748C18.7262 1.85449 18.9159 1.91518 19.1018 1.97897C19.3244 2.05535 19.5455 2.13677 19.7642 2.22311C20.0772 2.34667 20.3853 2.4803 20.6861 2.62325C20.3659 2.46342 20.0618 2.32745 19.7703 2.20824C19.2418 1.99253 18.7552 1.83075 18.2781 1.69656C18.1788 1.6687 18.0799 1.64212 17.981 1.61666C16.971 1.36271 15.9718 1.19021 14.6168 1.15144C14.5571 1.15004 14.4978 1.14903 14.4388 1.14839C12.0344 1.13401 10.3061 1.67227 9.08451 2.15354C8.39456 2.43091 7.85669 2.70663 7.42365 2.94948C6.20901 3.649 5.74921 4.05084 5.30858 4.39936C5.08324 4.58396 4.78958 4.84205 4.49281 5.134C3.98634 5.64796 3.42928 6.21958 3.08732 6.57103C2.89125 6.77224 2.73209 6.93379 2.73186 6.9318C2.73169 6.92974 2.88869 6.76309 3.08254 6.55966C3.41448 6.21187 3.94986 5.65163 4.47084 5.11243C4.84118 4.74052 5.22751 4.40305 5.53364 4.16035C5.87036 3.9061 6.23383 3.57216 7.43038 2.87209C7.8529 2.632 8.37819 2.35821 9.05396 2.07979C10.2687 1.58983 11.9994 1.02887 14.4388 1.02389C14.5015 1.02408 14.5646 1.02469 14.6281 1.02574C15.9463 1.05432 16.9196 1.2081 17.9331 1.4486C18.0324 1.47278 18.1322 1.49814 18.2326 1.52487C18.2332 1.52504 18.2338 1.52521 18.2345 1.52539C18.738 1.65989 19.2601 1.82642 19.8334 2.05602C20.3132 2.24879 20.8291 2.48603 21.3904 2.79901C22.4347 3.37749 23.5281 4.18191 24.4381 5.08065C25.9973 6.62162 27.4153 8.01277 27.8883 8.46618C28.035 8.60685 28.1773 8.7423 28.3275 8.88515C28.9038 9.4335 29.6004 10.0947 31.1435 11.6115C31.4809 11.9432 31.8747 12.3334 32.3032 12.7601C32.9696 13.3774 33.6167 13.9767 34.1732 14.5039C34.6265 14.9334 35.0566 15.3212 35.4765 15.6931C35.5083 15.7219 35.5399 15.7529 35.5702 15.785C35.7256 15.9497 35.8502 16.1485 35.9312 16.366C35.9933 16.5326 36.03 16.7103 36.0387 16.8902C36.0586 17.2767 35.9438 17.6724 35.7193 17.9904C35.6733 18.056 35.6225 18.1192 35.567 18.1795C35.3886 18.3805 35.2039 18.5906 35.0109 18.8106C34.1567 19.7831 33.1365 20.9518 31.7213 22.3891C31.5328 22.5805 31.3474 22.7682 31.1652 22.9523C30.771 23.3509 30.2249 23.5671 29.6923 23.5655C29.1305 23.5677 28.5919 23.3327 28.2176 22.9551C27.5164 22.2527 26.8744 21.6039 26.2834 21.0051C27.0735 21.8157 27.6827 22.4508 28.1909 22.9819C28.2117 23.0033 28.2328 23.0241 28.2543 23.0444C28.4242 23.2048 28.6135 23.3305 28.8092 23.4226C29.0991 23.5592 29.4028 23.6224 29.6923 23.6259C30.3032 23.6329 30.8436 23.3833 31.2212 23.0093C31.4009 22.8326 31.574 22.66 31.7494 22.4815C33.9224 20.2699 34.8445 19.2983 35.7181 18.3303C35.8598 18.1791 35.9773 18.0069 36.0661 17.8201C36.198 17.5435 36.2703 17.2217 36.2565 16.8902C36.244 16.5745 36.1525 16.2507 35.9801 15.964C35.8864 15.8078 35.769 15.6626 35.6316 15.5363C35.0244 14.9982 34.3497 14.3943 33.6475 13.7364C32.8929 13.0296 32.0422 12.2458 31.1429 11.4133C31.1425 11.4129 31.1422 11.4126 31.1419 11.4123C30.9661 11.2496 30.7884 11.0849 30.6092 10.9187C29.5168 9.90556 28.3726 8.83501 27.273 7.77883C27.1554 7.66588 27.0141 7.53095 26.8519 7.37601C26.2839 6.83346 25.4568 6.04094 24.4617 5.05751C23.8104 4.41787 23.0241 3.76142 22.104 3.16142C21.5901 2.8269 21.0386 2.50382 20.3814 2.18907C20.2191 2.11152 20.0502 2.03463 19.8736 1.95891C19.8324 1.94123 19.7908 1.92362 19.7487 1.90609C18.7905 1.51125 17.5742 1.10776 15.8977 0.932678C15.4429 0.886716 14.953 0.860488 14.4388 0.863132C13.3905 0.867332 12.2405 0.997272 11.0985 1.28444C10.3917 1.46126 9.68854 1.69657 9.01389 1.98306C8.8882 2.0364 8.76353 2.09145 8.63996 2.14817C7.00465 2.89993 5.61099 3.91139 4.4537 5.09491C3.93834 5.64007 3.42869 6.18022 2.91991 6.7206C2.91958 6.72095 2.91925 6.72131 2.91891 6.72166C2.72624 6.92599 2.57485 7.08561 2.58087 7.0777C2.58696 7.06972 2.74603 6.89573 2.93636 6.68931C3.43289 6.15162 3.92978 5.61483 4.43134 5.07421C5.58689 3.87045 6.98214 2.84023 8.62648 2.07017C8.74429 2.01509 8.86327 1.96145 8.98334 1.90931C9.65477 1.61753 10.3597 1.37451 11.0716 1.19015C12.2154 0.892349 13.3767 0.750741 14.4388 0.738629C14.9727 0.731875 15.4816 0.756265 15.9529 0.80184C17.6752 0.974133 18.9283 1.38936 19.9103 1.79505C19.9192 1.79877 19.928 1.80249 19.9369 1.80621C20.1635 1.90155 20.3746 1.99743 20.5732 2.09298C21.2298 2.41007 21.7526 2.71851 22.2473 3.03828C23.1664 3.63433 23.951 4.28384 24.6026 4.91617C25.5585 5.84933 26.3564 6.6056 26.9232 7.14128C27.0907 7.29963 27.2379 7.43881 27.363 7.55763C28.4466 8.58751 29.5785 9.63646 30.6747 10.644C30.8526 10.8075 31.0296 10.9701 31.2054 11.1313C31.2057 11.1316 31.2061 11.1319 31.2065 11.1322C32.1094 11.9607 32.9788 12.7553 33.7504 13.4723C34.5098 14.1782 35.1915 14.78 35.8304 15.3416C35.8619 15.3705 35.8943 15.4024 35.9257 15.4353C36.3014 15.8268 36.5195 16.3547 36.5376 16.8902C36.5472 17.1492 36.5113 17.41 36.4323 17.6571C36.3289 17.9816 36.1529 18.2804 35.9175 18.5298C35.0252 19.5206 34.0572 20.5433 31.9625 22.6855ZM3.67612 6.02805C4.00834 5.70346 4.2984 5.42028 4.54211 5.1814C4.65338 5.07596 4.75753 4.98051 4.85255 4.89537C4.74703 4.98925 4.64304 5.08466 4.54049 5.18168C4.39418 5.32473 4.24708 5.46868 4.09996 5.61274C3.95852 5.75125 3.81728 5.88964 3.67612 6.02805ZM32.1806 12.9987C32.1005 12.9239 32.0198 12.8486 31.9389 12.773C32.1555 12.9885 32.3721 13.2042 32.5884 13.4195C32.854 13.6839 33.1195 13.9483 33.3848 14.2125C32.966 13.7892 32.5597 13.3795 32.1806 12.9987ZM31.5092 22.184C32.8471 20.8318 33.787 19.7615 34.6373 18.7991C34.8821 18.5219 35.1197 18.2533 35.3567 17.9895C35.3599 17.9859 35.3631 17.9824 35.3663 17.9788C35.4817 17.8526 35.5746 17.7074 35.6407 17.5511C35.5658 17.705 35.4657 17.8437 35.3481 17.9608C34.8552 18.4518 34.402 18.9023 34.0193 19.2826C32.6473 20.6461 31.8529 21.4087 31.1546 22.0784C31.0049 22.222 30.8595 22.3614 30.7138 22.5015C30.6563 22.557 30.5943 22.6076 30.5282 22.653C30.3264 22.8101 30.0695 22.9182 29.7966 22.9461C29.7622 22.9497 29.7274 22.9521 29.6923 22.9533C29.3376 22.9678 28.9539 22.8354 28.677 22.592C28.6598 22.5771 28.6429 22.5618 28.6264 22.5461C28.3889 22.3229 28.1489 22.0959 27.9138 21.872C27.6626 21.6328 27.4146 21.395 27.1684 21.1576C26.9366 20.9343 26.7062 20.7111 26.4833 20.4952C26.4705 20.4828 26.4578 20.4705 26.445 20.4581C26.2094 20.2299 25.9802 20.0079 25.7681 19.8054C25.5522 19.5992 25.3712 19.4294 25.2071 19.2821C25.0023 19.0981 24.7928 18.9086 24.5863 18.7207C24.3794 18.5326 24.1741 18.3447 23.9699 18.1569C23.7652 17.9687 23.563 17.7819 23.3607 17.5941C23.2952 17.5334 23.2268 17.4699 23.1621 17.4096C23.1322 17.3818 23.1023 17.3541 23.0726 17.3264C23.4539 17.7081 23.8495 18.1048 24.2579 18.5152C24.8479 19.1081 25.4736 19.7453 26.1642 20.4478C26.8468 21.1421 27.5928 21.9001 28.4303 22.7423C28.7492 23.065 29.2096 23.2679 29.6923 23.2666C30.1471 23.2686 30.6157 23.085 30.9549 22.7429C31.1363 22.5604 31.3209 22.3743 31.5092 22.184ZM17.962 21.8494C18.1274 21.6831 18.3688 21.4386 18.68 21.1233C18.7536 21.0487 18.8312 20.97 18.9125 20.8876C18.9105 20.8895 18.9085 20.8915 18.9065 20.8933C18.6979 21.0905 18.5055 21.2729 18.2986 21.4704C17.9298 21.8226 17.5724 22.1656 17.2125 22.5131C16.8512 22.862 16.4918 23.2108 16.1331 23.5611C15.7738 23.9119 15.4145 24.2647 15.0594 24.6155C14.7009 24.9697 14.3484 25.3198 13.9939 25.6747C13.8809 25.7877 13.7678 25.9012 13.6548 26.0148C13.9137 25.7678 14.1813 25.5101 14.4639 25.238C14.6896 25.0206 14.9251 24.7939 15.1733 24.556C15.2682 24.465 15.3838 24.3554 15.5185 24.2275C16.0527 23.7208 16.891 22.926 17.962 21.8494ZM10.8775 28.896C10.7963 28.9794 10.7155 29.0622 10.6354 29.1439C10.4073 29.3764 10.1837 29.6017 9.9642 29.8222C9.81001 29.9771 9.65733 30.13 9.5069 30.2806C9.44342 30.3442 9.38004 30.4077 9.31724 30.4706C9.21203 30.576 9.10771 30.6807 9.00415 30.7847C9.74107 30.0661 10.46 29.3622 11.2054 28.6249C11.2153 28.6152 11.2251 28.6053 11.235 28.5955C11.1131 28.698 10.9939 28.7981 10.8775 28.896Z" fill="var(--stroke-0, #B4D455)"/>
</svg>
