<svg preserveAspectRatio="none" width="100%" height="100%" overflow="visible" style="display: block;" viewBox="0 0 8 9" fill="none" xmlns="http://www.w3.org/2000/svg">
<path id="Vector" d="M1.03521 7.41218C0.912731 7.29228 0.818569 7.15993 0.714151 6.98643C0.714084 6.98634 0.714019 6.98626 0.713951 6.98618C0.699087 6.96136 0.684084 6.9356 0.668791 6.9089C0.547518 6.69318 0.395043 6.41021 0.228043 5.96261C0.0449506 5.46383 0.0645528 5.0291 0.121225 4.77983C0.132038 4.73274 0.134954 4.68573 0.135587 4.56683C0.136168 4.50751 0.136522 4.43297 0.140944 4.3333C0.140944 4.3333 0.140944 4.3333 0.140944 4.3333C0.142334 4.30249 0.14415 4.26943 0.146603 4.23392C0.152143 4.15424 0.160763 4.06105 0.176043 3.95327C0.221745 3.59626 0.34249 3.03822 0.572842 2.57099C0.708508 2.28661 0.874076 2.03646 1.016 1.86099C1.22354 1.60393 1.4611 1.38819 1.7411 1.19222C1.99803 1.01365 2.29171 0.850475 2.64723 0.711686C2.92077 0.605566 3.21334 0.579089 3.49844 0.587357C3.53484 0.588399 3.57136 0.589958 3.60745 0.592085C3.84894 0.606243 4.08696 0.640405 4.3333 0.677614C4.34237 0.678983 4.35144 0.680359 4.36052 0.681742C4.81528 0.753776 5.16804 0.815745 5.54587 0.947381C5.69294 0.999672 5.84194 1.06404 5.9952 1.14968C6.23805 1.28323 6.5595 1.52606 6.81975 1.82303C6.84203 1.84817 6.86399 1.87362 6.88547 1.89932C6.88557 1.89945 6.88568 1.89958 6.88579 1.89971C7.11827 2.17588 7.29234 2.4829 7.39589 2.71531C7.55759 3.08663 7.58308 3.23707 7.61539 3.35819C7.62616 3.40405 7.63526 3.44701 7.64416 3.49821C7.67721 3.68281 7.69738 3.96564 7.67448 4.24614C7.6744 4.24721 7.67432 4.24828 7.67424 4.24935C7.67039 4.29591 7.66636 4.33352 7.66661 4.3333C7.66682 4.33308 7.66862 4.29509 7.66928 4.24868C7.67225 4.10092 7.66488 3.95516 7.65069 3.82622C7.64318 3.82056 7.6332 3.7866 7.62659 3.7453C7.60766 3.64467 7.56265 3.31571 7.31996 2.87617C7.33193 2.90841 7.34115 2.9355 7.34895 2.95943C7.35809 2.98751 7.36462 3.00918 7.37021 3.02779C7.3818 3.06663 7.38942 3.09214 7.40567 3.13666C7.44611 3.2386 7.50697 3.40014 7.55353 3.57625C7.5652 3.62072 7.56512 3.65881 7.55455 3.66075C7.54395 3.66269 7.52459 3.62871 7.51016 3.5856C7.50988 3.58476 7.5096 3.58391 7.50932 3.58307C7.45386 3.41328 7.38309 3.25297 7.33573 3.15114C7.32377 3.12521 7.31343 3.10296 7.30573 3.08626C7.29959 3.0729 7.29182 3.05616 7.28814 3.04662C7.28765 3.04535 7.28673 3.04293 7.28574 3.03999C7.28573 3.03994 7.28572 3.03989 7.2857 3.03984C7.28515 3.0382 7.28229 3.02983 7.28071 3.02024C7.28039 3.0183 7.27973 3.01407 7.27956 3.00888C7.27914 3.00771 7.27871 3.00654 7.27829 3.00538C7.27234 2.98912 7.26623 2.97254 7.25928 2.95473C7.23125 2.88563 7.18848 2.77427 7.06093 2.56216C6.94315 2.3692 6.70806 2.05277 6.32123 1.76727C6.34532 1.78901 6.36922 1.81098 6.39287 1.8331C6.45246 1.88881 6.51083 1.9459 6.56752 2.00455C6.58924 2.027 6.61039 2.04938 6.63172 2.07238C6.66603 2.10941 6.69975 2.14714 6.73273 2.18543C6.75502 2.2113 6.77703 2.23749 6.79865 2.26394C6.79871 2.264 6.79876 2.26406 6.79881 2.26411C6.82883 2.30084 6.85819 2.33815 6.88707 2.37636C6.89713 2.38977 6.90702 2.40308 6.91674 2.41631C6.95541 2.46898 6.99235 2.52181 7.03092 2.58482C7.03538 2.59264 7.04002 2.60126 7.04337 2.60776C7.047 2.61474 7.05041 2.62149 7.05356 2.62792C7.05634 2.63359 7.05893 2.63904 7.06142 2.64424C7.06176 2.64494 7.0621 2.64564 7.06243 2.64634C7.06522 2.65216 7.06791 2.65772 7.07051 2.66305C7.07309 2.66837 7.07558 2.6735 7.0781 2.67848C7.07813 2.67852 7.07816 2.67857 7.07819 2.67861C7.08084 2.68381 7.08286 2.68776 7.08579 2.6932C7.08948 2.70003 7.0927 2.70586 7.09671 2.71286C7.10059 2.71964 7.10469 2.72667 7.10889 2.73375C7.11308 2.74082 7.1174 2.74801 7.12179 2.75529C7.12619 2.76259 7.13066 2.77 7.13519 2.77747C7.1397 2.78493 7.1443 2.7925 7.14889 2.80012C7.15349 2.80776 7.15809 2.81544 7.1627 2.8232C7.17332 2.84107 7.17947 2.86037 7.17991 2.87653C7.18034 2.8927 7.17511 2.90437 7.16518 2.90927C7.15525 2.91416 7.14128 2.91197 7.12592 2.90362C7.11058 2.89525 7.0951 2.8814 7.08289 2.86505C7.07956 2.8606 7.0762 2.85614 7.07283 2.85166C7.07083 2.84901 7.06882 2.84631 7.0668 2.84364C7.06136 2.83646 7.05583 2.82925 7.05029 2.82199C7.04475 2.81473 7.03917 2.80742 7.03354 2.80005C7.02788 2.79265 7.02216 2.78516 7.0164 2.77755C7.01066 2.76996 7.00484 2.7622 6.999 2.75428C6.9933 2.74655 6.9869 2.73769 6.98129 2.72971C6.97718 2.72387 6.97225 2.71658 6.96818 2.71049C6.96392 2.70413 6.9598 2.69784 6.95587 2.69176C6.95192 2.68565 6.94816 2.67972 6.94455 2.67407C6.94416 2.67347 6.94377 2.67287 6.94338 2.67227C6.94019 2.66728 6.9371 2.66246 6.93415 2.65793C6.93084 2.65287 6.92765 2.64812 6.92456 2.64365C6.92116 2.63871 6.91899 2.63579 6.91631 2.63222C6.87939 2.58593 6.83029 2.53138 6.78184 2.48154C6.77575 2.47527 6.76968 2.46905 6.76366 2.46293C6.73157 2.43044 6.69893 2.39891 6.66567 2.36814C6.64151 2.34579 6.61701 2.32385 6.59223 2.3023C6.55575 2.27058 6.51858 2.23964 6.48093 2.20964C6.45755 2.19101 6.43441 2.17304 6.41072 2.15511C6.34884 2.1083 6.28555 2.06364 6.22132 2.02086C6.15721 1.97817 6.09182 1.93717 6.02593 1.89761C5.96028 1.85816 5.8916 1.81864 5.8255 1.78055C5.77693 1.75244 5.72826 1.7215 5.68306 1.69272C5.65877 1.67725 5.63477 1.6621 5.61108 1.64736C5.61101 1.6473 5.61093 1.64724 5.61086 1.64718C5.59007 1.63424 5.56939 1.6216 5.5486 1.60938C5.50399 1.58313 5.45936 1.55897 5.41351 1.53691C5.36764 1.51485 5.32125 1.49513 5.27334 1.47766C5.22568 1.4603 5.17679 1.44519 5.12737 1.43262C5.07757 1.41996 5.02868 1.41005 4.9764 1.4019C4.90768 1.39133 4.83927 1.38488 4.76875 1.38104C4.69908 1.37734 4.62822 1.37663 4.55806 1.37853C4.53346 1.37919 4.50875 1.38007 4.48405 1.38136C4.48396 1.38136 4.48386 1.38136 4.48377 1.38136C4.43848 1.38376 4.39301 1.38721 4.34744 1.3916C4.34273 1.39205 4.33802 1.39252 4.3333 1.39299C4.26746 1.39962 4.20328 1.40819 4.13819 1.41844C4.06888 1.42939 3.99985 1.44229 3.93103 1.4564C3.86234 1.47042 3.79202 1.4862 3.72148 1.50091C3.65838 1.51418 3.59529 1.52833 3.53364 1.54406C3.51739 1.54821 3.5012 1.55248 3.48505 1.55688C3.40817 1.57794 3.33495 1.60211 3.26478 1.63235C3.19489 1.66237 3.12736 1.69862 3.06282 1.74035C2.99835 1.78199 2.93641 1.82914 2.87753 1.88042C2.81836 1.93195 2.76351 1.98648 2.71102 2.04479C2.65905 2.10265 2.61027 2.16343 2.5647 2.22691C2.53932 2.26218 2.5126 2.29918 2.48779 2.33405C2.46272 2.36925 2.43826 2.40409 2.41474 2.43865C2.4052 2.45267 2.39578 2.46662 2.3866 2.48058C2.37322 2.50093 2.36023 2.5212 2.3479 2.54141C2.32709 2.57552 2.30804 2.60951 2.29132 2.64356C2.27462 2.67758 2.26035 2.71173 2.24911 2.74613C2.23754 2.78177 2.23041 2.81242 2.22489 2.85051C2.20515 2.93851 2.18838 2.9873 2.17037 3.04213C2.16688 3.05291 2.16347 3.06398 2.16003 3.07553C2.13897 3.14091 2.11822 3.2048 2.09824 3.2675C2.0781 3.33063 2.05878 3.39237 2.03972 3.45459C2.02084 3.51629 2.00225 3.57816 1.98433 3.63984C1.96641 3.70154 1.94905 3.76308 1.93197 3.82553C1.91497 3.88759 1.89796 3.95194 1.88217 4.01391C1.87302 4.04985 1.86279 4.08841 1.85343 4.12427C1.84667 4.1502 1.84007 4.17604 1.83393 4.20163C1.83142 4.21201 1.82899 4.2223 1.82666 4.23258C1.81893 4.26668 1.81232 4.30035 1.80765 4.3333C1.80765 4.3333 1.80765 4.3333 1.80765 4.3333C1.80747 4.33456 1.8073 4.33581 1.80713 4.33705C1.80242 4.37117 1.79974 4.40418 1.79972 4.43627C1.79968 4.46824 1.80234 4.50007 1.80764 4.53114C1.81328 4.56342 1.82 4.58966 1.83161 4.62314C1.83925 4.64483 1.84714 4.66584 1.85525 4.68656C1.86738 4.71744 1.88024 4.74818 1.89389 4.77832C1.90754 4.80846 1.92177 4.83764 1.93692 4.86669C1.94178 4.876 1.94697 4.88578 1.95203 4.89498C1.96765 4.92342 1.98389 4.95096 2.00111 4.97798C2.01828 5.00492 2.03616 5.0308 2.05504 5.05602C2.07399 5.08137 2.09358 5.10553 2.11452 5.12929C2.1502 5.16973 2.17543 5.21052 2.19645 5.2466C2.21762 5.28325 2.23586 5.31774 2.25432 5.3511C2.25778 5.35734 2.26126 5.36357 2.26477 5.36979C2.27981 5.39659 2.29492 5.42262 2.31079 5.44781C2.33033 5.47887 2.35079 5.50844 2.37262 5.53722C2.39425 5.56578 2.41735 5.5936 2.44154 5.61979C2.46599 5.64622 2.49052 5.67043 2.51827 5.69511C2.54569 5.71958 2.57603 5.74208 2.60948 5.76579C2.64266 5.78929 2.67751 5.81313 2.71177 5.83754C2.74604 5.86191 2.77987 5.8869 2.81248 5.91237C2.84517 5.93788 2.87708 5.96405 2.90803 5.99043C2.93916 6.01695 2.96956 6.04387 2.99975 6.07104C3.0299 6.09817 3.06087 6.12651 3.09006 6.15343C3.13724 6.19698 3.18577 6.23953 3.2362 6.28064C3.28637 6.32158 3.33857 6.36125 3.39239 6.39902C3.44626 6.43681 3.50193 6.47279 3.55948 6.50681C3.617 6.54083 3.67632 6.57282 3.73756 6.60254C3.75114 6.60913 3.76463 6.61555 3.77832 6.62189C3.82651 6.64422 3.87583 6.66512 3.92594 6.68437C3.92628 6.68452 3.92662 6.68467 3.92696 6.68483C3.99164 6.70955 4.05669 6.73132 4.12376 6.75016C4.1484 6.75705 4.17234 6.76331 4.19693 6.76916C4.22151 6.775 4.24551 6.78025 4.27017 6.78504C4.29119 6.78912 4.31229 6.79278 4.3333 6.79596C4.33692 6.79651 4.34054 6.79705 4.34414 6.79757C4.36894 6.80113 4.39309 6.80403 4.41744 6.80617C4.43977 6.80816 4.46177 6.80938 4.48625 6.81045C4.48847 6.81055 4.4907 6.81064 4.49292 6.81074C4.51959 6.81185 4.54991 6.81337 4.57823 6.81567C4.65376 6.82192 4.7276 6.82412 4.80336 6.82234C4.879 6.82056 4.9547 6.81486 5.03141 6.80548C5.06134 6.80182 5.09114 6.79764 5.12133 6.7929C5.16823 6.78555 5.21491 6.77711 5.26224 6.76739C5.33983 6.7515 5.41781 6.73271 5.49645 6.71112C5.57488 6.68956 5.65407 6.66517 5.73299 6.63798C5.81195 6.61074 5.89164 6.58026 5.9701 6.54683C6.05757 6.50959 6.14386 6.46792 6.22909 6.42108C6.31421 6.37431 6.39792 6.32256 6.47916 6.26609C6.56068 6.20943 6.63986 6.14796 6.71627 6.08166C6.79271 6.01535 6.86631 5.94425 6.93646 5.86852C6.97842 5.82323 7.0192 5.77621 7.05852 5.72772C7.07644 5.70057 7.09338 5.67413 7.1094 5.64867C7.22708 5.4593 7.30518 5.31505 7.39944 5.11525C7.40815 5.09605 7.41481 5.08024 7.42286 5.0609C7.42439 5.05721 7.42602 5.0533 7.42768 5.0493C7.43813 5.02401 7.45027 4.99457 7.4672 4.9538C7.50041 4.87224 7.55499 4.74566 7.608 4.57268C7.62143 4.52889 7.63079 4.5005 7.63135 4.51029C7.63177 4.51715 7.62843 4.54096 7.62279 4.5697C7.63498 4.51656 7.64562 4.46355 7.65471 4.40997C7.65836 4.38858 7.66168 4.36838 7.66379 4.35398C7.66576 4.34064 7.66661 4.3333 7.66661 4.3333C7.66661 4.3333 7.6666 4.33335 7.66659 4.33344C7.66644 4.33468 7.66544 4.34452 7.66397 4.36072C7.66248 4.37691 7.66061 4.3981 7.65823 4.41962C7.65194 4.47661 7.64419 4.53323 7.63503 4.58959C7.62587 4.64581 7.61535 4.70153 7.60345 4.75704C7.59157 4.81235 7.57833 4.86741 7.56374 4.92212C7.54924 4.97646 7.53336 5.03067 7.5162 5.08433C7.49897 5.13818 7.48076 5.1908 7.46105 5.24349C7.44925 5.27506 7.43686 5.3067 7.42421 5.33775C7.4195 5.3493 7.41487 5.36054 7.41017 5.37175C7.40632 5.3809 7.40241 5.39008 7.39835 5.3995C7.35571 5.49867 7.30806 5.59646 7.25664 5.69064C7.20499 5.78523 7.14912 5.87703 7.08935 5.96577C7.02953 6.05456 6.96586 6.14026 6.89853 6.22265C6.83121 6.30503 6.76034 6.38404 6.68604 6.45963C6.61202 6.53498 6.53441 6.60702 6.45407 6.6752C6.39195 6.72792 6.32864 6.77807 6.26373 6.82605C6.24006 6.84739 6.21623 6.86813 6.19244 6.88825C6.12313 6.94685 6.05354 7.00628 5.98259 7.0633C6.11882 6.97829 6.21971 6.89763 6.31259 6.81809C6.32502 6.8074 6.33729 6.79669 6.34946 6.78597C6.47338 6.67585 6.58944 6.56698 6.74211 6.41404C7.17164 5.97038 7.32038 5.62225 7.41521 5.41828C7.50532 5.20862 7.53397 5.11341 7.56547 5.02595C7.61117 4.90261 7.65143 4.65138 7.65813 4.52399C7.66174 4.47772 7.66479 4.44073 7.66636 4.44092C7.66789 4.44126 7.66991 4.47879 7.66941 4.52543C7.67029 4.66043 7.64221 4.9369 7.59211 5.08685C7.57011 5.15328 7.5518 5.23197 7.47285 5.44635C7.38814 5.65517 7.25913 6.01527 6.83627 6.49755C6.6912 6.6577 6.57981 6.7729 6.45648 6.89291C6.44433 6.90463 6.43206 6.91638 6.41957 6.92814C6.41948 6.92821 6.4194 6.92828 6.41932 6.92834C6.30379 7.03622 6.17234 7.15101 5.97229 7.27344C5.51782 7.57286 4.79026 7.75275 4.61413 7.77918C4.57993 7.7869 4.54664 7.79464 4.51124 7.80231C4.46004 7.81344 4.40422 7.82471 4.3333 7.83452C4.21797 7.84979 4.06474 7.86446 3.82902 7.84792C3.74595 7.84182 3.64921 7.82952 3.54414 7.80918C3.38005 7.81098 3.21697 7.79984 3.07875 7.77413C2.95917 7.75187 2.84335 7.74042 2.72768 7.72815C2.69448 7.72465 2.66055 7.72094 2.62674 7.71683C2.54518 7.70693 2.46286 7.69432 2.38505 7.67503C2.32311 7.6597 2.25674 7.64412 2.18654 7.62563C1.93312 7.55838 1.61318 7.45004 1.31848 7.15863C1.00871 6.84966 0.807996 6.52525 0.669282 6.23487C0.765247 6.45197 0.850071 6.61647 0.925371 6.75194C0.939618 6.77746 0.953522 6.8018 0.967145 6.82511C1.06385 6.98958 1.14442 7.10487 1.24985 7.20995C1.76555 7.7003 2.03484 7.79017 2.32148 7.87187C2.3986 7.89135 2.4853 7.90674 2.57834 7.91994C2.76426 7.94628 2.97312 7.9628 3.18551 7.98753C3.38353 8.01073 3.6066 8.01052 3.83485 7.98933C3.83494 7.98933 3.83502 7.98934 3.83511 7.98935C3.87963 7.98522 3.92472 7.98036 3.96968 7.97475C4.09084 7.95956 4.21259 7.93917 4.3333 7.91509C4.48506 7.88482 4.63297 7.84882 4.77677 7.81042C4.80436 7.80305 4.837 7.79338 4.87433 7.78164C5.09083 7.71233 5.45567 7.58327 5.88216 7.38804C5.97585 7.3448 6.07457 7.30106 6.18397 7.24328C6.21728 7.22566 6.2515 7.20681 6.28681 7.18608C6.43848 7.09653 6.61751 6.97256 6.81606 6.76561C6.97968 6.59511 7.1538 6.36278 7.29394 6.10067C7.36321 5.97178 7.42472 5.83609 7.47594 5.69943C7.63039 5.28627 7.69045 4.88247 7.67629 4.48789C7.67628 4.48781 7.67628 4.48773 7.67628 4.48765C7.67477 4.44126 7.67316 4.40483 7.67433 4.40649C7.67545 4.40816 7.6814 4.44729 7.68595 4.49394C7.72234 4.89108 7.68281 5.3036 7.54492 5.73313C7.49971 5.87351 7.44348 6.01484 7.37837 6.15038C7.24564 6.42843 7.07282 6.68038 6.90802 6.86589C6.70658 7.09286 6.52104 7.2314 6.36376 7.33186C6.32574 7.356 6.2894 7.37771 6.25451 7.39769C6.1434 7.46117 6.04774 7.50735 5.9558 7.5538C5.52837 7.76794 5.15802 7.91202 4.92868 7.9917C4.88784 8.00564 4.8523 8.01713 4.8214 8.02621C4.6641 8.0724 4.50143 8.11562 4.3333 8.15184C4.21476 8.17734 4.09506 8.19934 3.97453 8.21641C3.92759 8.22314 3.87964 8.22899 3.83236 8.23412C3.83226 8.23416 3.83216 8.23419 3.83206 8.23422C3.58882 8.26072 3.34632 8.26427 3.13012 8.24166C2.91081 8.21869 2.7099 8.20457 2.51844 8.17986C2.41583 8.16652 2.31641 8.1499 2.22009 8.12629C1.89476 8.03636 1.59287 7.93393 1.03521 7.41218ZM7.6028 4.65096C7.5733 4.75873 7.54429 4.84344 7.52297 4.90661C7.54238 4.85329 7.56023 4.79946 7.57652 4.74489C7.5858 4.71386 7.59459 4.68225 7.6028 4.65096ZM3.5872 7.55727C3.60559 7.55729 3.62409 7.55716 3.64265 7.55689C3.5934 7.54823 3.54464 7.5384 3.49601 7.52748C3.43606 7.514 3.377 7.49891 3.31792 7.48204C3.41021 7.51295 3.5016 7.5382 3.5872 7.55727ZM1.53304 6.95622C1.78855 7.21368 2.06245 7.30821 2.29694 7.37202C2.36498 7.39033 2.4309 7.40624 2.49455 7.42233C2.52095 7.429 2.54772 7.4347 2.57487 7.43977C2.44356 7.36316 2.32856 7.28326 2.23774 7.21409C1.96756 7.00553 1.8493 6.84727 1.7498 6.71126C1.7213 6.67144 1.69481 6.6327 1.66807 6.59317C1.63486 6.56987 1.60099 6.54473 1.56813 6.51777C1.52202 6.48012 1.4741 6.437 1.43045 6.39391C1.38656 6.35067 1.34394 6.30469 1.30422 6.25762C1.26414 6.21013 1.2266 6.16134 1.19111 6.11124C1.15766 6.06406 1.12621 6.01587 1.09676 5.96838C1.09507 5.96565 1.09339 5.96293 1.09171 5.9602C1.06062 5.90984 1.0318 5.86019 1.00425 5.81457C0.976129 5.76812 0.951672 5.72981 0.925931 5.69709C0.893839 5.65624 0.862385 5.61267 0.833052 5.5689C0.803633 5.52499 0.775857 5.47988 0.749791 5.43408C0.723706 5.38829 0.699309 5.34191 0.676306 5.29444C0.668855 5.27904 0.661272 5.26304 0.654218 5.24772C0.650967 5.24067 0.647702 5.2336 0.644522 5.22653C0.667814 5.32505 0.695544 5.42661 0.728308 5.53063C0.775506 5.68032 0.829667 5.84032 0.903568 6.01121C1.0299 6.30165 1.21459 6.63132 1.53304 6.95622ZM0.562023 3.69849C0.555291 3.74266 0.547429 3.80674 0.540643 3.89036C0.539049 3.91009 0.537605 3.93111 0.53621 3.95284C0.536337 3.95234 0.536391 3.95182 0.536518 3.95132C0.549977 3.89815 0.563011 3.84936 0.577041 3.79729C0.60208 3.70426 0.628521 3.61507 0.65706 3.52579C0.685691 3.43626 0.716112 3.34809 0.748435 3.26091C0.780809 3.17357 0.815075 3.08702 0.850868 3.002C0.886949 2.91624 0.924412 2.83266 0.96354 2.74902C0.975987 2.72243 0.988675 2.69569 1.00149 2.66907C0.964447 2.72443 0.929007 2.78337 0.893277 2.84733C0.864757 2.8984 0.836253 2.95213 0.806864 3.00967C0.79561 3.03173 0.781475 3.05808 0.76542 3.08923C0.702221 3.21242 0.605976 3.41347 0.562023 3.69849ZM1.3362 2.00184C1.34836 1.98361 1.36076 1.9657 1.3734 1.94829C1.40938 1.89874 1.44709 1.8523 1.4854 1.80806C1.51231 1.777 1.53971 1.74695 1.56712 1.71773C1.57869 1.7054 1.59029 1.69314 1.60189 1.68108C1.62131 1.66089 1.64072 1.64097 1.66019 1.62138C1.51324 1.74819 1.37935 1.88503 1.25572 2.04103C1.2541 2.04308 1.25253 2.0452 1.25089 2.04728C1.2799 2.03134 1.30835 2.0162 1.3362 2.00184Z" fill="var(--stroke-0, #A98BFF)"/>
</svg>
