<svg preserveAspectRatio="none" width="100%" height="100%" overflow="visible" style="display: block;" viewBox="0 0 9 6" fill="none" xmlns="http://www.w3.org/2000/svg">
<path id="Vector" d="M5.15542 3.06638C5.11359 3.09298 5.06494 3.09209 5.00234 3.08997C5.00231 3.08998 5.00228 3.09 5.00226 3.09002C4.99331 3.08971 4.98405 3.08931 4.97452 3.08903C4.89784 3.0868 4.79858 3.08769 4.66383 3.12824C4.51542 3.17299 4.35819 3.12589 4.24195 3.06229C4.22032 3.05041 4.20219 3.04703 4.16412 3.05474C4.14504 3.0586 4.12158 3.06508 4.09059 3.07404C4.09059 3.07404 4.09059 3.07404 4.09059 3.07404C4.081 3.07681 4.07069 3.07981 4.05957 3.08306C4.03452 3.09036 4.00537 3.09891 3.97098 3.10858C3.85704 3.14065 3.69692 3.22787 3.54911 3.3075C3.4594 3.35588 3.37404 3.40154 3.30595 3.43141C3.20642 3.47507 3.10165 3.50456 2.98702 3.5383C2.88201 3.56916 2.76878 3.60363 2.64382 3.65467C2.54793 3.6936 2.41678 3.68212 2.28074 3.67292C2.26343 3.67173 2.24602 3.67058 2.22859 3.6695C2.10834 3.66196 1.98678 3.66009 1.87785 3.68807C1.6839 3.7387 1.58185 3.84531 1.46435 3.95477C1.41853 3.99794 1.37058 4.04226 1.31506 4.08683C1.22727 4.15726 1.0907 4.24876 0.95428 4.34425C0.942654 4.35237 0.931053 4.36055 0.91945 4.3687C0.919392 4.36874 0.919333 4.36878 0.919275 4.36882C0.794318 4.45639 0.672808 4.54559 0.585959 4.61396C0.448028 4.72274 0.399506 4.76771 0.357848 4.80379C0.342206 4.8174 0.327554 4.82989 0.309431 4.84429C0.244075 4.89606 0.138439 4.96946 0.0328378 5.04725C0.0324343 5.04755 0.0320309 5.04784 0.0316277 5.04814C0.0138512 5.06086 -0.000297805 5.07133 4.11521e-07 5.07143C0.000302373 5.07153 0.0122264 5.0592 0.0267118 5.04398C0.073628 4.99593 0.11996 4.94972 0.161333 4.90838C0.156451 4.90073 0.161194 4.88455 0.173567 4.87041C0.204492 4.8348 0.296289 4.72497 0.415995 4.53042C0.402557 4.53926 0.391048 4.54648 0.380854 4.55273C0.368892 4.56006 0.359587 4.56558 0.351676 4.57041C0.335216 4.58051 0.324615 4.58754 0.309581 4.60322C0.277663 4.64197 0.232374 4.70696 0.186134 4.77617C0.174254 4.79348 0.155894 4.80046 0.144988 4.79166C0.134088 4.78285 0.132364 4.75953 0.141317 4.73969C0.141494 4.73931 0.141672 4.73892 0.141848 4.73854C0.177727 4.66143 0.215185 4.58582 0.242892 4.53998C0.249934 4.52832 0.256333 4.51855 0.261334 4.51136C0.265328 4.50562 0.270435 4.49855 0.274 4.49524C0.274473 4.4948 0.275394 4.49397 0.27661 4.49309C0.276633 4.49308 0.276658 4.49307 0.276682 4.49306C0.27736 4.49256 0.280792 4.49001 0.286119 4.48871C0.287196 4.48845 0.289572 4.48791 0.293006 4.48786C0.293475 4.48749 0.293945 4.48713 0.294415 4.48676C0.300955 4.48164 0.30772 4.47649 0.314865 4.47079C0.342964 4.44868 0.384512 4.41112 0.468224 4.33109C0.545211 4.25742 0.664373 4.12383 0.811006 3.95371C0.79814 3.96229 0.785441 3.97111 0.772964 3.98014C0.741577 4.00287 0.711291 4.02702 0.681869 4.05209C0.670607 4.06169 0.659595 4.07128 0.648544 4.08121C0.630738 4.09717 0.613182 4.11349 0.595943 4.1301C0.58429 4.14132 0.572758 4.15272 0.561338 4.16419C0.561317 4.16422 0.561295 4.16425 0.561274 4.16428C0.545419 4.1802 0.529745 4.19635 0.514115 4.2128C0.508589 4.2185 0.503183 4.22419 0.497859 4.22987C0.476694 4.25253 0.456206 4.27509 0.430916 4.29951C0.427573 4.30224 0.423754 4.30504 0.420806 4.30705C0.417658 4.30923 0.414579 4.31128 0.4116 4.31316C0.408971 4.31481 0.40641 4.31635 0.403993 4.31785C0.40367 4.31806 0.403348 4.31826 0.403025 4.31846C0.400323 4.32015 0.397785 4.3218 0.395369 4.32341C0.392958 4.32502 0.390645 4.32658 0.388478 4.32822C0.388465 4.32824 0.388452 4.32826 0.388439 4.32828C0.386191 4.33 0.384496 4.33132 0.382284 4.3333C0.37951 4.33578 0.377212 4.33799 0.37458 4.34081C0.372031 4.34353 0.369476 4.34645 0.36698 4.34948C0.364486 4.35251 0.362022 4.35567 0.359574 4.35891C0.357124 4.36216 0.354675 4.3655 0.352255 4.3689C0.349836 4.3723 0.347436 4.37579 0.345029 4.37931C0.342622 4.38283 0.340194 4.38639 0.337782 4.38999C0.332211 4.39825 0.322607 4.40247 0.311168 4.4018C0.299714 4.40111 0.287405 4.39564 0.276514 4.38619C0.265624 4.37673 0.256866 4.36391 0.251793 4.35015C0.24674 4.33641 0.245824 4.32288 0.249386 4.31271C0.250358 4.30995 0.251325 4.30715 0.252314 4.30437C0.2529 4.30271 0.253512 4.30106 0.254106 4.29939C0.255703 4.29493 0.257302 4.2904 0.258975 4.2859C0.260648 4.2814 0.262385 4.2769 0.264177 4.27238C0.265976 4.26785 0.267841 4.26328 0.26983 4.25874C0.271814 4.25421 0.273929 4.24966 0.276209 4.24514C0.278423 4.24072 0.281121 4.23584 0.283716 4.23163C0.285595 4.22853 0.288118 4.2249 0.290282 4.22193C0.29254 4.21882 0.294863 4.21586 0.297173 4.21306C0.299488 4.21026 0.301812 4.20762 0.30403 4.2051C0.304263 4.20483 0.304497 4.20456 0.304731 4.20429C0.306694 4.20206 0.308604 4.19993 0.310376 4.19788C0.312357 4.1956 0.314174 4.19338 0.31585 4.19123C0.317708 4.18887 0.31872 4.18733 0.31994 4.18543C0.334372 4.15873 0.35021 4.1238 0.365569 4.09057C0.3675 4.0864 0.369437 4.08226 0.371349 4.07816C0.381444 4.05631 0.391555 4.0345 0.401784 4.01273C0.409216 3.9969 0.416706 3.98107 0.424303 3.96528C0.43548 3.94204 0.446895 3.91885 0.45851 3.89582C0.465732 3.88153 0.472924 3.86755 0.480325 3.85342C0.499641 3.8165 0.519693 3.77993 0.540852 3.74421C0.561996 3.70855 0.584325 3.67352 0.608283 3.63998C0.632144 3.60658 0.658702 3.57348 0.687312 3.54455C0.708411 3.52335 0.733878 3.50556 0.758838 3.49063C0.772255 3.48261 0.785688 3.47508 0.799115 3.4679C0.799171 3.46788 0.799227 3.46787 0.799283 3.46785C0.811069 3.46154 0.822809 3.45544 0.834363 3.4493C0.859175 3.43616 0.883128 3.4229 0.906117 3.40867C0.929083 3.39447 0.951021 3.37939 0.971988 3.363C0.992788 3.34672 1.0129 3.32905 1.03178 3.31041C1.05077 3.29168 1.06843 3.2722 1.08619 3.25079C1.10946 3.22253 1.13131 3.19297 1.15366 3.16239C1.1758 3.13197 1.1978 3.10081 1.22002 3.06961C1.22778 3.0587 1.23566 3.04785 1.24348 3.03691C1.24351 3.03687 1.24355 3.03684 1.24358 3.0368C1.25805 3.01656 1.27263 2.99629 1.28738 2.97613C1.31016 2.94501 1.33332 2.91404 1.35728 2.88367C1.38124 2.85331 1.40601 2.82344 1.43217 2.79489C1.4584 2.76641 1.48649 2.73846 1.51796 2.71454C1.54595 2.69309 1.57533 2.67297 1.60434 2.65372C1.61199 2.64863 1.61967 2.64357 1.62735 2.63852C1.66376 2.61451 1.69855 2.59074 1.73017 2.56347C1.76186 2.53633 1.79084 2.50557 1.81797 2.47135C1.84503 2.43725 1.87046 2.39979 1.89501 2.36009C1.91967 2.32023 1.9429 2.27892 1.96616 2.23569C1.98921 2.19273 2.01195 2.14846 2.03477 2.10283C2.04747 2.0775 2.06205 2.05195 2.0765 2.02866C2.09108 2.00516 2.10625 1.98266 2.12158 1.9609C2.12779 1.95207 2.13407 1.9434 2.14029 1.93473C2.14935 1.9221 2.15841 1.90965 2.1672 1.89717C2.18205 1.87611 2.19624 1.855 2.20922 1.83308C2.22219 1.81118 2.23387 1.78837 2.2437 1.76386C2.25385 1.73844 2.26082 1.71512 2.26746 1.68425C2.28931 1.61812 2.30991 1.58793 2.33284 1.55443C2.33736 1.54784 2.34193 1.541 2.34669 1.53385C2.37492 1.49467 2.40556 1.4592 2.43754 1.42688C2.46986 1.39431 2.50345 1.36496 2.53905 1.33795C2.5743 1.31118 2.61148 1.28697 2.64987 1.26534C2.68819 1.24375 2.72787 1.22473 2.76901 1.20828C2.81011 1.19184 2.85343 1.1778 2.89624 1.16681C2.92096 1.16044 2.94807 1.15536 2.97362 1.15154C2.99205 1.14878 3.01042 1.14649 3.02845 1.14435C3.03581 1.14347 3.04313 1.14262 3.05036 1.14176C3.0744 1.13889 3.09764 1.13591 3.11947 1.13181C3.11947 1.13181 3.11947 1.13181 3.11947 1.13181C3.1203 1.13165 3.12113 1.13149 3.12196 1.13133C3.14452 1.12699 3.16563 1.12144 3.18514 1.11371C3.20469 1.10598 3.22264 1.09606 3.23943 1.08369C3.25678 1.07075 3.27028 1.05812 3.28631 1.03922C3.29671 1.02682 3.30686 1.01454 3.31702 1.00231C3.33222 0.983998 3.34729 0.965649 3.36244 0.946965C3.37757 0.928304 3.39247 0.909623 3.40737 0.890542C3.41216 0.884408 3.41724 0.877941 3.42202 0.871711C3.4368 0.852462 3.45132 0.833084 3.46565 0.813164C3.47995 0.793278 3.49393 0.773043 3.50765 0.752156C3.52141 0.731189 3.53473 0.709903 3.54806 0.68744C3.5707 0.649172 3.59825 0.625515 3.62354 0.607453C3.64923 0.589359 3.67464 0.575674 3.6995 0.562619C3.70415 0.560175 3.70881 0.557739 3.71347 0.55531C3.7336 0.544942 3.7535 0.535013 3.7729 0.524664C3.79682 0.511932 3.82001 0.498664 3.84297 0.484526C3.86574 0.470532 3.88841 0.455569 3.91034 0.439618C3.93246 0.423494 3.95329 0.407165 3.97535 0.388372C3.99721 0.369883 4.01827 0.347996 4.04167 0.324469C4.06485 0.301125 4.08956 0.277316 4.11567 0.255897C4.14174 0.234431 4.16926 0.215216 4.19771 0.19908C4.2262 0.182876 4.25584 0.169424 4.28593 0.158613C4.31616 0.147728 4.34709 0.139383 4.37849 0.133005C4.4098 0.126628 4.4428 0.12208 4.47419 0.119535C4.52501 0.115405 4.57605 0.113099 4.62731 0.111836C4.67829 0.110623 4.72962 0.110518 4.78089 0.111314C4.83206 0.112118 4.88335 0.113753 4.93457 0.116206C4.98581 0.118659 5.03703 0.121852 5.08814 0.125675C5.09944 0.12652 5.11074 0.127394 5.12204 0.128295C5.16181 0.131476 5.20153 0.135014 5.24103 0.13879C5.2413 0.13884 5.24158 0.138891 5.24186 0.138941C5.29267 0.143752 5.34246 0.148976 5.39249 0.154069C5.41085 0.155902 5.42846 0.157709 5.4463 0.159376C5.46415 0.161039 5.48162 0.162559 5.49919 0.16393C5.51677 0.165298 5.53418 0.166453 5.55124 0.167327C5.56848 0.168189 5.5852 0.168787 5.60194 0.16887C5.6173 0.168985 5.63239 0.168506 5.64892 0.168167C5.65042 0.168134 5.65193 0.168102 5.65344 0.168071C5.67152 0.167705 5.69228 0.168283 5.71196 0.170674C5.76413 0.177237 5.81464 0.183151 5.86578 0.188772C5.91694 0.194406 5.96771 0.199701 6.01878 0.205438C6.03873 0.207686 6.05873 0.209935 6.07875 0.212392C6.10988 0.216213 6.14112 0.220368 6.17247 0.22508C6.22405 0.232817 6.27578 0.242153 6.32793 0.253627C6.37989 0.265054 6.43225 0.278672 6.48438 0.294242C6.53646 0.309783 6.58896 0.327412 6.64064 0.346391C6.69824 0.367564 6.75521 0.389696 6.81206 0.412422C6.86882 0.435132 6.92523 0.458422 6.981 0.481936C7.03697 0.505522 7.09239 0.529385 7.14741 0.553441C7.20248 0.57751 7.25707 0.601754 7.3113 0.626067C7.34375 0.64062 7.37607 0.655206 7.40821 0.669779C7.42493 0.673266 7.44096 0.6768 7.45637 0.680439C7.57021 0.707789 7.65244 0.736363 7.75986 0.785526C7.77014 0.789999 7.77847 0.793254 7.78861 0.797361C7.79054 0.798145 7.79259 0.798995 7.79468 0.799858C7.80792 0.80532 7.82313 0.81197 7.84426 0.822733C7.88633 0.843667 7.95091 0.883644 8.0327 0.93535C8.05336 0.948522 8.06645 0.959047 8.06205 0.960405C8.05895 0.961447 8.04806 0.958826 8.03474 0.954272C8.05938 0.964989 8.08388 0.975473 8.10825 0.985671C8.11798 0.989754 8.1271 0.993769 8.13357 0.996411C8.13958 0.998884 8.14286 1.00001 8.14286 1C8.14286 1 8.14286 1 8.14286 1C8.14286 1 8.14284 0.999996 8.1428 0.999983C8.14224 0.99979 8.13783 0.998452 8.13055 0.996711C8.12326 0.994944 8.1137 0.992911 8.10394 0.990571C8.07804 0.984339 8.05218 0.978192 8.02628 0.972166C8.00037 0.966136 7.9745 0.960267 7.94853 0.954558C7.92256 0.948849 7.89656 0.943326 7.87044 0.937997C7.84444 0.932692 7.8183 0.927573 7.79211 0.922688C7.76574 0.917768 7.73984 0.913198 7.7135 0.908767C7.69771 0.906115 7.68171 0.903501 7.666 0.901046C7.66015 0.900124 7.65443 0.899265 7.64871 0.898394C7.64404 0.897683 7.63933 0.89696 7.6345 0.896232C7.5836 0.888647 7.53212 0.881887 7.48101 0.876137C7.42966 0.870344 7.37831 0.865469 7.32688 0.861529C7.27544 0.857584 7.22402 0.854611 7.17253 0.85253C7.12108 0.850453 7.06965 0.849303 7.01812 0.849116C6.9668 0.848949 6.91528 0.849685 6.86395 0.85153C6.82424 0.852955 6.78494 0.855087 6.74562 0.857935C6.73068 0.863037 6.7159 0.868043 6.70133 0.873027C6.65893 0.887513 6.61743 0.907967 6.57704 0.929967C6.65276 0.915955 6.71289 0.89964 6.77058 0.886067C6.77831 0.884246 6.786 0.882456 6.79367 0.880747C6.87194 0.863218 6.94874 0.852598 7.05394 0.860757C7.3529 0.884094 7.52372 0.908688 7.63024 0.925287C7.73666 0.942345 7.78211 0.954156 7.82468 0.967672C7.88479 0.987298 7.99932 0.994117 8.0568 0.996257C8.07769 0.997373 8.09455 0.999963 8.09447 1.00199C8.09437 1.00401 8.07738 1.00806 8.05655 1.01103C7.99596 1.01897 7.87292 1.03308 7.80204 1.01948C7.77045 1.01366 7.73423 1.00936 7.63102 1.00833C7.52782 1.00763 7.36126 1.00901 7.07034 1.02389C6.97188 1.0289 6.90039 1.04793 6.82563 1.07446C6.8183 1.07706 6.81093 1.07977 6.80349 1.0825C6.80345 1.0825 6.8034 1.08251 6.80335 1.08252C6.7348 1.10758 6.66101 1.13801 6.55995 1.1653C6.32595 1.22549 6.02388 1.35088 5.95803 1.40115C5.94494 1.41069 5.93252 1.42088 5.91948 1.43169C5.86949 1.47332 5.80956 1.52437 5.66659 1.59591C5.63533 1.61158 5.59812 1.62733 5.55717 1.64294C5.50685 1.70758 5.45928 1.77077 5.41543 1.81521C5.37754 1.85351 5.34899 1.90915 5.32391 1.96912C5.31668 1.98638 5.30964 2.00432 5.30269 2.02228C5.2859 2.06558 5.26963 2.10935 5.2521 2.14586C5.23812 2.17495 5.22471 2.20868 5.21088 2.24461C5.16009 2.37517 5.10623 2.53677 4.98685 2.60076C4.85984 2.66834 4.74301 2.70311 4.64007 2.73018C4.71923 2.71901 4.78378 2.72027 4.83777 2.72268C4.84795 2.72313 4.85771 2.72362 4.8671 2.72409C4.9334 2.72741 4.98082 2.72932 5.02234 2.70596C5.22082 2.59421 5.28602 2.52194 5.34649 2.39237C5.36247 2.35825 5.37882 2.31575 5.39703 2.27049C5.43333 2.17993 5.47758 2.07872 5.53771 2.00762C5.59359 1.94127 5.65416 1.85562 5.72161 1.76911C5.72164 1.7691 5.72167 1.76909 5.7217 1.76908C5.73488 1.75217 5.74831 1.73521 5.762 1.71834C5.84533 1.61527 5.93852 1.5167 6.03698 1.44759C6.0475 1.44018 6.05997 1.43062 6.07436 1.41977C6.15666 1.35552 6.30851 1.25769 6.51423 1.25015C6.55924 1.24801 6.60717 1.25366 6.66141 1.25874C6.67793 1.26029 6.69506 1.26186 6.71286 1.26309C6.78976 1.26854 6.8817 1.26867 7.00188 1.25004C7.10107 1.23473 7.22126 1.20767 7.34688 1.17989C7.40877 1.16616 7.47192 1.15218 7.53439 1.13861C7.72311 1.09778 7.89755 1.06098 8.07357 1.01737C8.0736 1.01736 8.07364 1.01735 8.07368 1.01734C8.09448 1.01249 8.11081 1.00958 8.11008 1.01111C8.10934 1.01264 8.09187 1.02138 8.07113 1.03033C7.89545 1.10397 7.72344 1.169 7.53896 1.23844C7.47862 1.2612 7.41735 1.28444 7.35721 1.30712C7.23405 1.35347 7.11589 1.39771 7.01909 1.42625C6.90092 1.46118 6.81075 1.47211 6.73569 1.4754C6.71763 1.47621 6.70057 1.47661 6.68436 1.47688C6.63275 1.47774 6.58951 1.47707 6.54858 1.48368C6.35762 1.51239 6.21892 1.62089 6.14064 1.69338C6.12664 1.70597 6.11439 1.7171 6.10386 1.72602C6.01252 1.80312 5.92612 1.90871 5.84818 2.01924C5.83552 2.03715 5.82303 2.05513 5.81077 2.07314C5.81075 2.07321 5.81074 2.07327 5.81072 2.07334C5.74767 2.16586 5.69026 2.25826 5.63727 2.3303C5.58338 2.40333 5.54685 2.4984 5.51483 2.58894C5.49761 2.6375 5.48157 2.68456 5.46449 2.72592C5.40588 2.86812 5.34186 2.94747 5.15542 3.06638ZM7.99657 0.937557C7.94569 0.91345 7.90389 0.894204 7.87275 0.882065C7.89924 0.89408 7.92558 0.905972 7.95185 0.917704C7.9668 0.924381 7.9817 0.931001 7.99657 0.937557ZM5.46432 1.32366C5.47079 1.31635 5.47733 1.309 5.48391 1.30165C5.46249 1.30984 5.44105 1.31797 5.41971 1.3262C5.3935 1.33631 5.36731 1.34642 5.3412 1.35665C5.38428 1.34585 5.42588 1.33492 5.46432 1.32366ZM4.85391 2.24018C4.97362 2.18356 5.0282 2.03905 5.08299 1.91306C5.09868 1.87672 5.11428 1.84186 5.13101 1.81077C5.13795 1.79788 5.14462 1.78408 5.15123 1.7697C5.09131 1.78609 5.03601 1.80069 4.99072 1.81267C4.85565 1.84855 4.77085 1.84765 4.69555 1.84654C4.67378 1.84624 4.65282 1.846 4.63173 1.84669C4.62096 1.86501 4.60966 1.88352 4.59773 1.9007C4.58108 1.92489 4.56258 1.94934 4.54455 1.97126C4.52646 1.99328 4.50765 2.01427 4.48869 2.03341C4.46957 2.05271 4.45015 2.07044 4.43049 2.08714C4.412 2.10289 4.39326 2.11765 4.3752 2.132C4.37416 2.13282 4.37313 2.13364 4.37209 2.13445C4.35302 2.14966 4.33451 2.16443 4.31862 2.18054C4.30248 2.19701 4.29026 2.21341 4.28194 2.23363C4.27153 2.25883 4.2605 2.2836 4.2493 2.30715C4.23809 2.33074 4.22661 2.35327 4.21489 2.37488C4.20315 2.39654 4.19131 2.41725 4.17921 2.43735C4.17529 2.44384 4.17118 2.45057 4.16726 2.45689C4.16545 2.4598 4.16367 2.46275 4.16186 2.46563C4.19643 2.45052 4.23263 2.43559 4.27054 2.42122C4.32529 2.40048 4.38695 2.3859 4.45468 2.36993C4.57037 2.34275 4.703 2.31124 4.85391 2.24018ZM3.66703 2.75221C3.68107 2.74384 3.70089 2.73015 3.72652 2.71252C3.73258 2.70835 3.73892 2.70384 3.74563 2.69925C3.74542 2.69925 3.74524 2.69934 3.74503 2.69934C3.7224 2.69918 3.70172 2.69956 3.68001 2.70125C3.64135 2.70433 3.60451 2.70899 3.56814 2.71559C3.53164 2.72224 3.49613 2.73074 3.46146 2.74101C3.42674 2.7513 3.39287 2.76355 3.3603 2.77751C3.32745 2.79164 3.29595 2.80728 3.26552 2.82538C3.25583 2.83115 3.24624 2.83717 3.23679 2.84341C3.26408 2.83999 3.2913 2.83472 3.32003 2.82925C3.34299 2.82488 3.3669 2.82044 3.39256 2.81677C3.40237 2.81536 3.41479 2.81462 3.42926 2.81379C3.4867 2.81044 3.57619 2.80633 3.66703 2.75221ZM3.04646 3.07119C3.04069 3.07729 3.03483 3.08316 3.02884 3.08863C3.01179 3.1042 2.99399 3.11752 2.97621 3.13003C2.96372 3.1388 2.95113 3.1471 2.93879 3.15537C2.93358 3.15886 2.9284 3.16239 2.92326 3.16586C2.91465 3.17168 2.90621 3.17761 2.89785 3.18354C2.96715 3.15826 3.03359 3.13222 3.09932 3.09994C3.10019 3.09952 3.101 3.099 3.10187 3.09857C3.08301 3.08918 3.06454 3.08005 3.04646 3.07119Z" fill="var(--stroke-0, #B4D455)"/>
</svg>
