<svg preserveAspectRatio="none" width="100%" height="100%" overflow="visible" style="display: block;" viewBox="0 0 16 17" fill="none" xmlns="http://www.w3.org/2000/svg">
<path id="Vector" d="M4.94744 5.20341C4.81917 5.35685 4.68489 5.48725 4.52379 5.66425C4.52372 5.66435 4.52365 5.66446 4.52358 5.66456C4.50065 5.68987 4.47714 5.71613 4.45322 5.74364C4.2631 5.96541 4.01948 6.27068 3.78756 6.8029C3.53524 7.3898 3.34788 7.87826 3.20633 8.19134C3.18035 8.24968 3.16226 8.31047 3.1432 8.46977C3.13397 8.54934 3.12516 8.64986 3.11923 8.78571C3.11923 8.78571 3.11923 8.78571 3.11923 8.78571C3.11742 8.82772 3.11593 8.87283 3.11495 8.92134C3.11276 9.03023 3.11306 9.1578 3.11923 9.30632C3.13361 9.79929 3.30005 10.5654 3.6052 11.2119C3.78535 11.6059 4.00379 11.9568 4.18313 12.2138C4.44526 12.59 4.7275 12.938 5.08034 13.2775C5.40385 13.5868 5.78818 13.8902 6.28548 14.1589C6.66638 14.364 7.03826 14.5841 7.45072 14.7693C7.50318 14.7929 7.55653 14.8158 7.60991 14.838C7.96661 14.9856 8.35464 15.1025 8.78571 15.1514C8.80155 15.1532 8.81742 15.1549 8.83334 15.1565C9.63696 15.232 10.2886 15.091 10.9589 14.8542C11.2219 14.7592 11.4885 14.6457 11.7708 14.5055C12.2171 14.2872 12.8389 13.9137 13.3777 13.4217C13.4237 13.3801 13.4692 13.3378 13.514 13.2949C13.5142 13.2947 13.5144 13.2945 13.5147 13.2943C13.9995 12.8346 14.394 12.2974 14.6375 11.8768C15.02 11.2039 15.0959 10.9137 15.1801 10.6856C15.2094 10.5988 15.2355 10.5173 15.2652 10.4202C15.3738 10.0709 15.5077 9.5295 15.5575 8.96238C15.5576 8.96022 15.5578 8.95806 15.558 8.9559C15.5669 8.86193 15.5717 8.78525 15.5714 8.78572C15.5711 8.78616 15.5692 8.86352 15.5644 8.95768C15.5487 9.25744 15.5122 9.55 15.4659 9.80692C15.4723 9.82152 15.4679 9.89279 15.4522 9.97602C15.4077 10.1816 15.3103 10.8315 14.8984 11.768C14.9332 11.707 14.9616 11.6559 14.9863 11.6106C15.0153 11.5575 15.0371 11.5165 15.0555 11.481C15.0938 11.407 15.1182 11.3576 15.1554 11.2666C15.2382 11.0548 15.3482 10.714 15.4259 10.3467C15.4459 10.2542 15.4711 10.181 15.4847 10.1842C15.4983 10.1875 15.4983 10.2672 15.4818 10.3615C15.4814 10.3633 15.4811 10.3652 15.4808 10.367C15.4157 10.7369 15.313 11.0968 15.2315 11.3238C15.211 11.3815 15.1922 11.4308 15.1777 11.4676C15.166 11.497 15.151 11.5337 15.1416 11.5536C15.1404 11.5563 15.138 11.5613 15.135 11.5672C15.135 11.5673 15.1349 11.5674 15.1349 11.5675C15.1332 11.5709 15.1247 11.5878 15.1135 11.605C15.1113 11.6084 15.1063 11.6159 15.0997 11.6243C15.0985 11.6266 15.0973 11.629 15.0961 11.6314C15.0794 11.6644 15.0619 11.6979 15.043 11.7341C14.9667 11.874 14.8575 12.1034 14.5664 12.5397C14.2975 12.937 13.8089 13.6028 13.0116 14.2402C13.0679 14.2005 13.1236 14.1597 13.1784 14.1179C13.3165 14.0125 13.4504 13.9002 13.5793 13.782C13.6286 13.7368 13.6766 13.6913 13.7247 13.6442C13.8021 13.5683 13.8778 13.49 13.9513 13.4099C14.001 13.3558 14.0498 13.3006 14.0976 13.2446C14.0977 13.2445 14.0978 13.2444 14.0979 13.2442C14.1642 13.1665 14.2288 13.0872 14.292 13.0056C14.3142 12.977 14.3359 12.9486 14.3571 12.9203C14.4415 12.8074 14.5214 12.6938 14.6105 12.5616C14.6216 12.5457 14.6339 12.5285 14.6431 12.5156C14.6529 12.5019 14.6624 12.4886 14.6715 12.4761C14.6794 12.465 14.6871 12.4545 14.6943 12.4444C14.6953 12.443 14.6962 12.4417 14.6972 12.4403C14.7053 12.4289 14.713 12.418 14.7203 12.4075C14.7276 12.397 14.7346 12.3868 14.7413 12.3768C14.7413 12.3767 14.7414 12.3766 14.7414 12.3765C14.7484 12.3659 14.7537 12.3579 14.7609 12.3466C14.7699 12.3324 14.7775 12.3201 14.7865 12.305C14.7952 12.2905 14.8041 12.2752 14.8129 12.2596C14.8217 12.2441 14.8306 12.2282 14.8394 12.212C14.8483 12.1958 14.8572 12.1792 14.8661 12.1625C14.8749 12.1457 14.8837 12.1287 14.8925 12.1115C14.9014 12.0943 14.9101 12.077 14.9189 12.0595C14.9391 12.0193 14.963 11.9831 14.9855 11.959C15.0081 11.9349 15.0276 11.9248 15.0404 11.9314C15.0532 11.9381 15.0584 11.9612 15.055 11.9959C15.0516 12.0306 15.0397 12.0741 15.0216 12.1164C15.0167 12.1279 15.0117 12.1395 15.0067 12.151C15.0037 12.1579 15.0006 12.1648 14.9976 12.1718C14.9894 12.1904 14.981 12.2091 14.9725 12.2279C14.964 12.2467 14.9552 12.2656 14.9463 12.2847C14.9373 12.3038 14.928 12.3231 14.9184 12.3426C14.9089 12.362 14.8989 12.3817 14.8886 12.4017C14.8785 12.4211 14.8667 12.4431 14.8558 12.4627C14.8479 12.477 14.8378 12.4944 14.8293 12.5089C14.8204 12.524 14.8115 12.5388 14.8027 12.5529C14.794 12.5671 14.7854 12.5807 14.7771 12.5937C14.7762 12.5951 14.7754 12.5965 14.7745 12.5979C14.7672 12.6094 14.7601 12.6204 14.7534 12.6308C14.7459 12.6425 14.7388 12.6536 14.7322 12.6641C14.7248 12.6757 14.7204 12.6828 14.7151 12.6916C14.6466 12.8084 14.5598 12.9525 14.4717 13.0868C14.4607 13.1037 14.4496 13.1204 14.4385 13.1369C14.38 13.2248 14.3196 13.3112 14.2572 13.3965C14.2119 13.4584 14.1655 13.5198 14.118 13.5804C14.048 13.6697 13.9754 13.7576 13.9007 13.8437C13.8543 13.8971 13.8079 13.9489 13.7598 14.0009C13.6344 14.1365 13.5027 14.2676 13.3648 14.393C13.2272 14.5181 13.0829 14.6382 12.9327 14.7511C12.783 14.8635 12.6214 14.9727 12.4597 15.0682C12.3407 15.1385 12.2137 15.2023 12.0943 15.256C12.0301 15.285 11.9665 15.3121 11.9037 15.3376C11.9034 15.3376 11.9032 15.3377 11.903 15.3378C11.8478 15.3601 11.793 15.3814 11.7384 15.402C11.6212 15.4461 11.5058 15.4868 11.3897 15.5261C11.2736 15.5653 11.1584 15.6024 11.0414 15.6387C10.925 15.6748 10.8074 15.7097 10.6896 15.743C10.5708 15.7766 10.4553 15.8079 10.3319 15.8391C10.1698 15.8802 10.0086 15.9175 9.84083 15.9504C9.6752 15.9831 9.50538 16.0112 9.33553 16.0332C9.27596 16.0409 9.21592 16.0478 9.15571 16.0541C9.15548 16.0541 9.15525 16.0542 9.15502 16.0542C9.04465 16.0658 8.93311 16.075 8.82063 16.0815C8.809 16.0822 8.79736 16.0828 8.78571 16.0834C8.623 16.092 8.46253 16.0953 8.29819 16.0923C8.12321 16.0891 7.94702 16.0789 7.77058 16.0605C7.59459 16.042 7.41327 16.0148 7.23427 15.9758C7.07408 15.941 6.91512 15.899 6.7606 15.8523C6.71988 15.84 6.67933 15.8273 6.63893 15.8143C6.44648 15.7524 6.26344 15.6859 6.08247 15.6175C5.90234 15.5492 5.7224 15.478 5.5422 15.4026C5.36228 15.3272 5.18119 15.247 5.00022 15.1605C4.81843 15.0736 4.64068 14.9824 4.46155 14.8826C4.28397 14.7837 4.10782 14.6777 3.9329 14.5635C3.83562 14.4999 3.73461 14.4285 3.64129 14.3578C3.54704 14.2864 3.45557 14.2124 3.36716 14.1369C3.33128 14.1063 3.29592 14.0753 3.26102 14.0443C3.21013 13.999 3.16028 13.9534 3.11155 13.908C3.02933 13.8314 2.9501 13.7551 2.87318 13.6804C2.79634 13.6057 2.72172 13.5327 2.64842 13.4623C2.57251 13.3893 2.50885 13.3297 2.43071 13.2585C2.24955 13.0781 2.15313 12.9524 2.04854 12.8115C2.02803 12.7837 2.00713 12.7551 1.98552 12.7252C1.86356 12.553 1.75213 12.3738 1.65159 12.1906C1.55039 12.0062 1.46026 11.8184 1.37944 11.6241C1.2993 11.4313 1.22904 11.2328 1.16967 11.0323C1.11027 10.8318 1.06161 10.629 1.02349 10.423C0.985521 10.2181 0.95785 10.0055 0.942098 9.80285C0.93281 9.68525 0.927634 9.55959 0.926457 9.44397C0.925536 9.36032 0.926387 9.27766 0.928488 9.19654C0.929356 9.16361 0.930446 9.13111 0.931683 9.09879C0.935795 8.99149 0.941657 8.88697 0.947748 8.78571C0.947748 8.78571 0.947748 8.78571 0.947748 8.78571C0.94798 8.78187 0.948211 8.77803 0.948443 8.77419C0.9548 8.66938 0.961401 8.56862 0.966985 8.47041C0.972575 8.37256 0.977262 8.27482 0.980902 8.17815C0.984658 8.07762 0.98689 7.99497 0.988935 7.88691C0.990215 7.81679 0.992211 7.74816 0.99507 7.67981C0.999289 7.57791 1.0055 7.475 1.01338 7.37232C1.02128 7.26965 1.03071 7.16851 1.04201 7.06599C1.04563 7.03311 1.04968 6.99842 1.05364 6.96548C1.06586 6.86375 1.0795 6.76321 1.09461 6.6622C1.10968 6.56145 1.12579 6.46217 1.14318 6.36253C1.16067 6.26241 1.179 6.16403 1.19882 6.0637C1.23252 5.89274 1.28399 5.73455 1.33494 5.59874C1.38687 5.46091 1.44191 5.33538 1.49865 5.21417C1.50929 5.19146 1.52003 5.16881 1.53088 5.14622C1.57773 5.04893 1.62574 4.95465 1.67445 4.86195C1.7345 4.74775 1.79516 4.63688 1.85791 4.52628C1.92018 4.4166 1.98474 4.30693 2.0498 4.19946C2.11555 4.0909 2.17983 3.98791 2.25074 3.87759C2.32109 3.7685 2.39231 3.65711 2.47424 3.53713C2.55546 3.4182 2.64457 3.29577 2.74059 3.17609C2.83642 3.05648 2.93929 2.93927 3.04679 2.82798C3.15447 2.71642 3.26775 2.60951 3.38386 2.50916C3.50062 2.40821 3.62101 2.31309 3.74443 2.22332C3.86761 2.13363 3.99831 2.04655 4.12382 1.96967C4.32674 1.8453 4.53477 1.73161 4.74733 1.6279C4.95886 1.52472 5.17561 1.43124 5.39461 1.34847C5.61378 1.26559 5.83588 1.19301 6.06025 1.13075C6.28451 1.06854 6.51073 1.01668 6.73843 0.974996C6.78893 0.965744 6.83883 0.957157 6.88919 0.94896C7.06644 0.920121 7.24435 0.897482 7.4214 0.880991C7.42263 0.880903 7.42385 0.880815 7.42507 0.880727C7.65351 0.859483 7.87738 0.848612 8.10212 0.846544C8.18466 0.845765 8.26408 0.846225 8.3449 0.847652C8.42568 0.849097 8.50383 0.851585 8.58341 0.855009C8.65127 0.857936 8.71886 0.861524 8.78571 0.865675C8.79724 0.86639 8.80873 0.867122 8.82019 0.86787C8.89897 0.872995 8.97539 0.878823 9.05217 0.88521C9.12261 0.891126 9.19185 0.897175 9.26869 0.905126C9.27567 0.905849 9.28265 0.906582 9.28963 0.907325C9.37329 0.9162 9.46787 0.928803 9.55497 0.943898C9.78723 0.984231 10.01 1.03244 10.2349 1.09063C10.4593 1.14883 10.6801 1.21597 10.8995 1.29368C10.9851 1.32401 11.0697 1.35566 11.1546 1.38925C11.2866 1.44145 11.4159 1.49711 11.545 1.55729C11.7565 1.65597 11.963 1.7654 12.1633 1.88576C12.3632 2.00577 12.5572 2.13686 12.7418 2.27653C12.9267 2.41623 13.1047 2.5663 13.2717 2.72223C13.4578 2.89606 13.6325 3.0777 13.7974 3.26738C13.9621 3.45683 14.1161 3.65365 14.2585 3.85557C14.4015 4.05818 14.5331 4.26625 14.6535 4.47912C14.774 4.69208 14.8831 4.90966 14.9808 5.13087C15.0393 5.26319 15.0937 5.39698 15.1439 5.53154C15.1742 5.60082 15.2021 5.66802 15.2277 5.73267C15.4137 6.2123 15.5068 6.57455 15.577 7.05418C15.5837 7.09996 15.5891 7.13717 15.5952 7.18255C15.5964 7.19121 15.5976 7.2004 15.5988 7.20977C15.6063 7.26901 15.6143 7.33793 15.6215 7.43279C15.6361 7.62207 15.6445 7.91568 15.6187 8.28641C15.612 8.38026 15.6039 8.44002 15.6017 8.42004C15.5999 8.406 15.6 8.35649 15.6004 8.29611C15.5973 8.40819 15.5918 8.51856 15.584 8.62881C15.5809 8.67282 15.5774 8.71417 15.5749 8.74356C15.5726 8.7708 15.5714 8.78571 15.5714 8.78571C15.5714 8.78571 15.5714 8.78562 15.5714 8.78544C15.5716 8.7829 15.573 8.76289 15.5745 8.72984C15.576 8.6968 15.5774 8.65349 15.5787 8.60937C15.582 8.49253 15.5824 8.37563 15.5797 8.25842C15.5771 8.14152 15.5715 8.0248 15.5627 7.90773C15.554 7.79107 15.5421 7.67414 15.527 7.55717C15.512 7.441 15.4938 7.32433 15.4724 7.20814C15.451 7.09151 15.4266 6.97687 15.3988 6.8614C15.3821 6.79223 15.3642 6.72263 15.3453 6.65413C15.3383 6.62864 15.3312 6.60383 15.3241 6.57905C15.3182 6.5588 15.3123 6.53848 15.306 6.51759C15.2403 6.29787 15.162 6.07888 15.0729 5.86622C14.9835 5.65261 14.8828 5.44345 14.7712 5.23991C14.6595 5.03621 14.537 4.83825 14.4044 4.64692C14.2717 4.45562 14.1291 4.27113 13.9767 4.09407C13.8248 3.91763 13.663 3.74824 13.4928 3.58807C13.3613 3.46422 13.2256 3.34666 13.0851 3.23463C13.0274 3.19368 12.9696 3.15399 12.9122 3.11573C12.7448 3.00422 12.5695 2.90486 12.3927 2.81612C12.6939 2.99626 12.927 3.15565 13.1412 3.31842C13.1699 3.34028 13.1982 3.36222 13.2262 3.38436C13.5111 3.61122 13.7727 3.8522 14.069 4.22169C14.8981 5.28743 15.1232 6.05293 15.2703 6.50282C15.405 6.96265 15.4308 7.16674 15.4584 7.35587C15.4981 7.62258 15.557 8.13694 15.5645 8.39695C15.5686 8.49148 15.568 8.56702 15.5661 8.56678C15.564 8.56625 15.5579 8.49028 15.5497 8.39616C15.5318 8.1224 15.4459 7.57189 15.3848 7.25974C15.3574 7.12114 15.3334 6.95839 15.1871 6.51628C15.0287 6.08458 14.7835 5.34479 13.9428 4.32645C13.6542 3.98714 13.4039 3.76697 13.1246 3.55497C13.0971 3.53425 13.0692 3.5137 13.041 3.49316C13.0408 3.49303 13.0406 3.49289 13.0404 3.49276C12.7792 3.3042 12.4844 3.11441 12.0698 2.89424C11.1196 2.34618 9.66048 2.14934 9.32425 2.18288C9.25743 2.184 9.19265 2.18697 9.12435 2.19117C9.02556 2.19743 8.91896 2.20611 8.78571 2.21877C8.5691 2.24059 8.28584 2.26762 7.86113 2.34775C7.71145 2.37646 7.53756 2.41254 7.34879 2.45972C7.07603 2.57168 6.82234 2.69945 6.60718 2.81049C6.4205 2.90652 6.26237 3.02282 6.11925 3.1459C6.07816 3.18129 6.0373 3.21807 5.99741 3.25513C5.90115 3.34454 5.80897 3.43681 5.71933 3.52327C5.64794 3.59213 5.57678 3.66872 5.5049 3.7513C5.24211 4.05385 4.97132 4.42829 4.59316 4.85728C4.19196 5.31481 3.89924 5.74619 3.67902 6.13743C3.84932 5.85423 4.00968 5.65559 4.14866 5.49711C4.17495 5.46726 4.20045 5.43898 4.2252 5.41202C4.40073 5.22173 4.53555 5.09362 4.66544 4.94247C5.30302 4.23284 5.60774 4.02474 5.90728 3.71909C5.98884 3.64079 6.07884 3.55204 6.18117 3.45968C6.38461 3.27536 6.63881 3.07729 6.945 2.92682C7.22909 2.78664 7.55951 2.63897 7.93027 2.52134C7.93042 2.52132 7.93057 2.52129 7.93072 2.52127C8.00295 2.49829 8.07722 2.47636 8.15245 2.45584C8.35507 2.40042 8.56733 2.35508 8.78571 2.32374C9.06011 2.28426 9.33937 2.26698 9.61669 2.27569C9.66988 2.27735 9.73333 2.27921 9.8066 2.28288C10.2255 2.30101 10.9924 2.39694 11.8013 2.83779C11.9779 2.93346 12.1539 3.04691 12.347 3.18526C12.4059 3.22745 12.4661 3.27199 12.5285 3.31936C12.7968 3.52451 13.1153 3.78243 13.5005 4.1668C13.8179 4.48388 14.1775 4.90152 14.4855 5.3836C14.6376 5.6205 14.7778 5.87195 14.8999 6.12801C15.2678 6.9027 15.4674 7.68026 15.5471 8.47301C15.5472 8.47318 15.5472 8.47334 15.5472 8.4735C15.5562 8.56679 15.5603 8.64064 15.5588 8.63734C15.5571 8.63404 15.5469 8.55514 15.5337 8.46233C15.4227 7.67212 15.1945 6.91054 14.8057 6.16212C14.6783 5.91772 14.5331 5.6769 14.3766 5.4502C14.0569 4.98465 13.6871 4.5828 13.365 4.28146C12.9712 3.91333 12.6491 3.6693 12.38 3.47634C12.315 3.43012 12.2533 3.3875 12.194 3.34777C12.0055 3.22156 11.8433 3.12367 11.6794 3.04062C10.9134 2.65074 10.2035 2.57616 9.79921 2.56662C9.72635 2.56441 9.66362 2.56393 9.60961 2.5634C9.33463 2.56066 9.05789 2.58497 8.78571 2.63218C8.59372 2.66541 8.40727 2.70992 8.22736 2.76296C8.1573 2.78371 8.08687 2.80588 8.01862 2.8291C8.01848 2.82918 8.01835 2.82926 8.01821 2.82934C7.66653 2.9486 7.34934 3.09795 7.07751 3.23917C6.80077 3.38272 6.58646 3.55727 6.40197 3.72962C6.30287 3.82226 6.2122 3.91439 6.12377 4.00298C5.82885 4.31547 5.53441 4.53016 4.94744 5.20341ZM15.6032 8.12353C15.6059 7.89268 15.5969 7.70465 15.585 7.564C15.5934 7.68357 15.5988 7.80238 15.6015 7.92102C15.6029 7.9885 15.6036 8.05663 15.6032 8.12353ZM7.2482 2.14168C7.28299 2.12816 7.31823 2.11482 7.35379 2.10173C7.25295 2.12563 7.15327 2.15155 7.05417 2.17978C6.93199 2.21459 6.81195 2.25237 6.69225 2.29375C6.88369 2.23352 7.07225 2.18301 7.2482 2.14168ZM4.31178 4.59552C4.69789 4.16895 4.96588 3.81068 5.24371 3.49861C5.32357 3.40936 5.4046 3.32462 5.48895 3.2458C5.52393 3.21312 5.55885 3.17994 5.59431 3.14636C5.35305 3.28017 5.13939 3.41853 4.96955 3.53861C4.46494 3.90023 4.19789 4.13744 3.96347 4.34732C3.89624 4.4088 3.83274 4.46928 3.76977 4.53298C3.73211 4.59798 3.69391 4.66551 3.65535 4.73328C3.60141 4.82823 3.54453 4.93085 3.49201 5.02869C3.43922 5.12696 3.38714 5.22693 3.33727 5.3253C3.28693 5.42458 3.23854 5.52295 3.1919 5.62149C3.14799 5.71431 3.10583 5.80692 3.06706 5.8975C3.06483 5.90269 3.06261 5.90788 3.0604 5.91307C3.01964 6.00904 2.98259 6.10284 2.95278 6.19092C2.92251 6.28067 2.90199 6.35675 2.89046 6.42651C2.87606 6.51356 2.86195 6.60295 2.84928 6.69014C2.83654 6.7776 2.82465 6.86466 2.81386 6.95086C2.8031 7.03705 2.79347 7.12226 2.78483 7.20765C2.78202 7.23534 2.77929 7.26395 2.7768 7.29116C2.77565 7.3037 2.77458 7.31624 2.77349 7.32873C2.81274 7.16874 2.86055 7.00426 2.91845 6.8368C3.0019 6.59574 3.11313 6.34507 3.25508 6.08116C3.49884 5.63126 3.82735 5.1362 4.31178 4.59552ZM2.72356 9.80788C2.71098 9.73723 2.69209 9.63528 2.67276 9.50142C2.66821 9.46983 2.66349 9.43616 2.65904 9.40129C2.65902 9.40212 2.6591 9.40296 2.65909 9.40379C2.65729 9.49203 2.65784 9.57375 2.6615 9.66134C2.66825 9.81782 2.6822 9.96981 2.7039 10.1229C2.7257 10.2764 2.75509 10.4286 2.79192 10.5792C2.82881 10.7302 2.87346 10.8798 2.9251 11.0259C2.97722 11.1733 3.03577 11.3162 3.1023 11.4569C3.12346 11.5016 3.14555 11.5463 3.16834 11.5906C3.12829 11.4861 3.08796 11.3786 3.0486 11.2633C3.01719 11.1713 2.98685 11.0752 2.95848 10.9727C2.94761 10.9334 2.93596 10.8858 2.92326 10.8299C2.873 10.6075 2.80514 10.2617 2.72356 9.80788ZM3.90575 12.5807C3.92928 12.6075 3.9527 12.6341 3.97575 12.6604C4.04135 12.7352 4.10536 12.8082 4.16909 12.8786C4.21384 12.9281 4.25853 12.9766 4.30335 13.0237C4.32227 13.0436 4.34133 13.0632 4.36031 13.0826C4.39211 13.1151 4.42414 13.1469 4.45629 13.1781C4.24455 12.9454 4.05353 12.7055 3.86921 12.4463C3.86679 12.4428 3.86426 12.4395 3.86182 12.436C3.87609 12.4853 3.89077 12.5336 3.90575 12.5807Z" fill="var(--stroke-0, #B4D455)"/>
</svg>
