<svg width="48" height="48" fill="none" xmlns="http://www.w3.org/2000/svg"><path opacity=".2" d="M33.756 4.186v19.877l-6.625-4.97-6.626 4.97V4.186h-8.282a4.97 4.97 0 0 0-4.97 4.97v33.127a4.97 4.97 0 0 1 4.97-4.969h28.159V4.186h-6.626z" fill="#A98BFF"/><path d="M8.163 45.302c-.039.036-.2.009-.131-.004.02-.003.097.005.131.004zm-.287-3.017c.004-.007.079.012.068.065-.03.154-.07.063-.023.321h.023v-.002l-.02-.016h.02c-.006-.081-.003-.172.012-.168.014.004.012.09.01.168l1.212.031c.164-.057.599-.092.812-.086.044.002.252.031.27.037.03.01-.133.014-.06.033.016.004.372.017.348-.015-.04-.004-.165.012-.186.004-.144-.054.958-.01 1.013-.032l-.074-.032.208.016-.084.027c.08.006.188 0 .262.008.011.003-.019.028.009.03.029 0 .024-.035.066-.04.047-.003.261.022.335.021.278-.002.559-.023.837-.008-.287.026.001.053.082.042.018-.003.016-.07.304-.053.183.01.014.107.32.06-.236-.068-.005-.063.18-.066.031 0 .288.01.402.007.038-.001.098-.037.15-.038.035 0 .061.02.114.019.245-.005.486-.007.732 0-.143.09.113.038.124.043.058.024-.206.032-.101.047l.438-.009c-.12-.01.158-.075.21-.046-.023-.08.667.069.772.042.019-.006-.119-.045.21-.027.036.002.023.027.041.025.011-.001.08-.078.152-.037.027.016-.142.067.23.047-.148-.079.517-.043.64-.023l-.073-.032c.121.028.143.002.17.003.11.006.261.032.364.03.12-.003.121-.051.26-.032l-.1-.033.29.009c-.221.064.045.003.066.001.029-.002-.012.024.036.02.005 0-.002-.025.071-.027.154-.006.13.026.194.025.006 0-.014-.022.097-.028.353-.016.003.016-.015.02s.104.097-.197.064c.1.01.11.051.122.053.01.001.183-.005.195-.006.086-.014.011-.042.027-.048.014-.004.225.034.275-.051.1.078-.058.07-.228.083-.024.016.156.032.17.032.24 0 .108-.066.16-.107.028-.021.126.023.036-.034.216-.006.087.027.1.032.02.007.097-.01.107-.007.013.003-.034.023.02.03.011 0 .097-.033-.017-.05.153.005.141-.025.193.035.105-.112.077.064.118.072.11.017.08-.071.085-.076.042-.027.346.003.422-.01-.03.064-.243.002-.29.014-.159.04.223.031.107.11l.146-.065c.088.051-.037.074.2.055.04-.044-.168.007-.127-.028.025-.02.164-.025.166-.036 0-.012-.122.003-.102-.017.044-.043.497-.002.15.022.098-.001.148.085.232.058.054-.017-.25-.136.207-.114.01.04-.184.012-.189.015a.31.31 0 0 0 .034.1c.024.014.488-.034.587.012-.038-.053.353-.01.396-.026.011-.005-.03-.036-.018-.04.076-.02.28.037.375.039.106.002.093-.026.1-.026.046.002.009.02.037.02.043 0 .34.004.356 0 .004 0-.044-.033.02-.04.011 0 .005.037.196.021.231-.02-.16-.047-.064-.086.148.056.144 0 .184.005.015.003.118.048.23.046l-.243.023c.08.008.235-.002.3.008.032.004.006.043.076.042.015-.002.07-.095-.11-.053-.014-.034.073-.012.113-.022.006-.003.03-.057.08-.022.013.008-.12.173.225.054.01-.004-.026-.024-.017-.028.007-.003.095.005.105.002.01-.003-.032-.026-.02-.03.06-.023.14.066.015.059l.126.033c-.045-.067.066-.018.124-.02.371-.013.123-.057.187-.08.102-.036.024.079.177.044.013-.003-.17-.052.19-.025l-.16.006c.03.065.192-.005.205-.005.14-.01.045.015.255-.019.019-.003.06.012.1.004.166-.033-.22-.02-.23-.046-.002-.013.403-.01.424-.003.06.027-.187.011-.14.045.017.012.606-.012.726.001.137.015.199.104.2.005.038.097.073.03.09.03.212.01.212.011.394.002.04-.002.074.027.088.023.008-.004-.007-.035.034-.045.057-.013.393.02.418.037.024.017-.142.007-.112.036.121.002.237-.005.359-.002.05.002.026.023.047.023.014 0 .185-.018.177-.026-.019-.017-.557-.005-.416-.04.028-.007.124.04.109-.017l1.45.039c-.277.042-.59.004-.88.008-.04 0-.175-.005-.16.023.248.008.556-.006.794.012.005.002-.02.026.007.03.053.008.226-.034.256-.023.005.002-.094.036-.064.058.077.055.097-.067.163-.066.051.001.395.06.48.023.09-.04-.25-.023-.228-.055.233-.033.47.002.69-.002.002-.002-.028-.026.02-.03.085-.006.107.03.148.036.045.006.205 0 .226.014a.147.147 0 0 1-.035.039c-.069.015-.094-.032-.1-.033-.023-.001-.046.017-.068.016-.035-.002-.055-.018-.102-.02-.032 0-.002.03-.033.03-.013-.003-.133-.073-.145 0-.004.023 1.005.052 1.106.034-.086-.01-.173-.017-.26-.026.176.021.386-.038.402.05l1.955.021c.116.008.052.064.243.047l-.147-.053c.099.012.532.037.602.026.01-.002.022-.053.13-.058.097-.003.113.034.164.041.042.006.09-.003.104 0 .01 0 .014.024.038.028.075.013.015-.053.089.022l-.054.008c.087.011.206.043.09.06.025-.002.048-.001.07-.005.06.034.397.014.408.021.014.01-.042.035.033.058.016.005.467-.013.304.032-.033.009-.25 0-.302 0 .123.071.41-.03.443-.027.13.01-.25.06.043.069.225.006.014-.042.101-.062.05-.01.303.04.297-.026.087-.007.037.028.047.03.01.003.183-.017.24-.003.005.003-.015.037-.008.04.017.005.18-.002.187-.005.001-.004-.036-.033-.02-.04.02-.009.177-.002.188-.01.012-.013-.184-.005-.152-.039a.767.767 0 0 0 .3-.042.528.528 0 0 1-.134.007c.014-.05.203-.05.139-.01.04-.021.013-.033.035-.053.007-.005.066-.006.077-.015 0-.002-.06-.021-.047-.031.021-.019.196-.014.213-.009.04.014-.103.03-.115.05-.002.004.117.045.123.05.007.039-.13.01-.114.046l.102.022c-.13.036-.372.018-.435.059.194-.013.396-.011.396.08 0 .039-.084.062-.08.072.012.034.126-.003.132-.001.003.002.005.004.005.006-.003.02-.165.035-.173.044-.014.017.058.085.059.1-.003.004-.12.02-.08.047.04.026.143.027.147.03.017.016-.16.03-.166.04-.003.005.094.035.097.043 0 .009-.072.027-.1.053-.022.02.04.035.03.039-.008.002-.177.002-.187.005-.012.005.027.028.022.035-.009.008-.064 0-.056.008.005.007.214.088.216.11-.002.038-.228-.047-.018.1l.054-.01c.031.028-.132.07.069.062-.373.047-.048.056-.103.119-.02.024-.16.034-.166.038.014.03.06.007.076.022.008.009-.12.04-.092.062.015.01.153.007.159.01.053.02-.012.04-.001.054.008.01.091.01.093.012.003.004-.109.043-.132.056-.018.01.049.027.036.032-.074.027-.234-.043-.08.054.009.006.067.004.069.005.035.027-.07.03-.09.052-.033.038.12.017-.008.044.096.025.15.024.262.017-.31.02-.42.12-.075.118-.11-.002-.098.055-.13.056-.02 0-.18-.056-.107.07.009.016.106-.004.075.028-.231-.008-.004.02-.004.025-.003.074-.57.013-.668.021-.112.01-.211.069-.237.07-.08 0-.014-.03-.032-.041-.02-.011-.249.046-.26.043-.043-.013 0-.047-.003-.05-.055-.022-.365.006-.451-.002.003.023.176.025.068.061-.125.042-.133-.056-.136-.062l-1.734.003c.008.053.38.013.394.02.05.041-.585.04-.666.022l.178.035c-.101.061-.326-.019-.473.008-.047.009.044.033.042.035-.053.024-.139.005-.075-.027-.13.03-.111-.003-.21-.006-.006 0 .036.024-.042.035-.037.005-.236.005-.262.027-.01.01.09.105.102.022.215.04.07-.037.153-.035.012 0-.016.046.193.025-.04.083-.283.02-.324.03-.084.022.267.065.332 0-.03.065.025.008.104.01.086.004.048.023.095.023.127 0 .075-.046.18-.004-.102-.128.178-.017.26.017l-.4.02.023.02-.105-.003.016-.02c-.181.042-.226-.004-.24-.005-.191-.005-.411-.005-.603-.005-.03 0-.01.041-.22.008-.068-.01-.005-.042-.08-.037-.095.088-.094.018-.122.017-.081 0-.132.022-.14.023-.1.003-.247 0-.357.003 0 .001.053.027-.017.02-.025-.004-.25-.12-.448-.082l.154.023c-.06-.011-.483.018-.38.05.064.018.218-.056.236.016-.141-.022-.919.011-.98-.006-.008-.002.043-.026.032-.029-.013-.002-.187.004-.21-.005-.015-.006.062-.02.058-.028-.006-.006-.228-.017-.24.013.054-.012.207-.001.126.023-.01.003-.064-.016-.076-.012-.117.035.23.027.286.028-.22.037-.559-.008-.812.017-.101-.025.152-.037.036-.057-.24-.042-.064.033-.072.036-.06.024-.263-.107-.263-.006-.087-.015-.06-.029-.182-.015l.048.021c-.137.058-.426-.089-.404-.1.058-.03.21.017.222.016.02-.002.072-.104.28-.013.085-.068-.33-.046-.14-.092-.129.007-.655-.04-.731-.01-.007.006.03.07-.097.036-.06-.016.087-.017.06-.032-.088-.048-1.269-.017-1.493-.015-.015 0-.01-.02-.024-.02-.044 0-.204.032-.283.022.163.04-.153.042-.233.038-.122-.007-.115-.044-.168-.052-.203-.03-.519.058-.677-.025.008.082-.274-.04-.402-.04-.1-.001-.246.053-.11.086-.174-.004-.357.012-.52.017-.026 0 .01-.024-.035-.022-.005 0-.01.025-.05.027-.325.02-.167-.03-.228-.045a.505.505 0 0 0-.077-.014l.467-.014c-.05-.053-.421.01-.53-.004-.002-.003.01-.03.006-.03-.042-.002-.299.008-.246.043.014.009.133.01.275.006-.037.006-.012.036-.017.04-.081.016-.282-.015-.353-.02-.016 0-.016.02-.018.02-.065-.005-.039-.063-.105-.002-.117-.074.22-.011.196-.06-.018-.036-.765-.017-.764.041-.003-.006-.013-.014-.034-.022a.943.943 0 0 0-.291-.002c-.006.002-.004.057-.012.058-.022 0-.273-.042-.368-.009l.155.024c-.31 0-.263.017-.16.033.005 0 .01.003.015.004.08.012.183.024.184.029-.005.016-.518.025-.418-.027.018-.007.256.016.137-.02-.02-.007-.173.003-.185 0-.055-.028.285-.065.243-.104-.082.037-.188.018-.283.028-.044.004-.054.032-.06.032-.08.008-.035-.022-.061-.021-.014 0-.17.064-.141-.023-.518.064-.144.064.173.06-.1.03-.297.016-.385.023-.031.003-.013.03-.067.037-.11.011-.635-.022-.772-.03.084-.01.06-.041-.005-.04-.064.003-.012.045-.023.05-.013.005-.317-.015-.369-.01.23-.015.177-.047-.017-.05l.084-.027c-.114.013-.353-.036-.42-.022-.01.003.027.03.021.03-.057.012-.25-.014-.263-.006-.008.008.076.03.044.041-.008.001-.088-.034-.167-.025-.028.004-.012.028-.018.03-.062.013-.026-.03-.14-.023-.082.005-.144.046-.26.032.378.053.06.03-.097.046-.025.003-.004.05-.154.027.32-.082-.093-.044-.177-.045-.005-.002-.008-.03-.048-.03-.002.002 0 .02-.036.021-.365.015-.133-.008-.201-.028-.03-.008-.208.02-.256.02-.01 0-.006-.02-.048-.02-.075.002-.142.024-.192.026-.006 0-.006-.033-.1-.022-.027.003-.057.015-.02.024.125.032.362-.022.503.01.128.028-.277.03-.298.03-.008 0 .071-.016-.008-.02-.07-.002-.195.055-.297.043a.444.444 0 0 1-.086-.053c.006-.002.126-.012.11-.026-.001-.001-.08-.001-.092-.012-.013-.012-.048-.139-.065-.142-.043-.007-.015.021-.043.02-.06-.005-.271-.042-.278.002l.105.007c-.193.005-.112.023-.138.032-.03.008-.023-.03-.088-.034-.018 0-.286.008-.281.024.148-.025.096.02.101.022.026.003.06-.023.096-.022.25.004-.002.045.057.056.02.003.06-.019.07-.017.027.003.028.032.047.03.042-.006-.008-.048-.005-.05.04-.026.191.007.096.053.057.016.064-.04.11-.017.09.044-.045.032-.082.04-.13.026-.17.004-.354.011-.067.003-.145.03-.176.032-.02 0-.204-.093-.21.054-.07-.014-.184-.111-.257-.107-.065.004-.045.055-.05.058-.01.003-.09 0-.117.007-.032.008-.016.028-.066.036-.124.02-.122-.032-.135-.036-.15-.04-.084.036-.117.042-.032.005-.464-.024-.555-.005l.111-.032c-.066-.032-.135.02-.136-.038-.014.096-.152.031-.193.034-.015.001-.014.017-.034.018-.08.003-.258-.01-.3-.002-.186.035.289.096.326.1-.075-.002-.498.019-.304.065.03.007.083-.036.1-.038.113-.01.028.027.034.031.015.006.09-.031.11-.026.006.002-.034.036.073.037-.055.033-.36.006-.4.014-.014.004.074.074-.187.005l.009.02-.438.009c.016-.016.098-.047-.005-.04-.059.004-.017.037-.02.039-.054.009-.998-.002-1.182.002-.062.001-.236.028-.249.029-.079.003-.36-.016-.415-.012-.035.003-.002.031-.032.03-.029-.001 0-.028-.008-.03-.071-.01-.613.026-.742 0 .079.008.47-.047.463-.067-.005-.003-.097-.024-.117-.014-.032-.023-.144.05-.204.036-.007-.002.02-.043-.088-.051-.037-.003-.136.03-.234-.007-.143.018-.89-.035-.941.01.004.002.101.017.032.035-.094.024-.01-.057-.12-.064a6.113 6.113 0 0 0-.333.012c-.093.045.174.064.172.069-.01.013-.231.021-.242.018-.009-.003.173-.063-.045-.04l.075.02c-.102.015-.113-.027-.138-.03-.077-.007-.16.056-.285-.022-.032-.02.022-.044.018-.047-.04-.027-.09.046-.15-.009 0-.005.13-.038-.106-.038l.05.016a2.204 2.204 0 0 1-.31.017c-.097-.009-.013-.047-.11-.042.062.052-.23.059-.213.014-.041.056-.29.013-.407.011a.995.995 0 0 0-.098.007L6 44.99l.093-1.05c-.007-.067-.017-.135-.015-.15.003-.029.042-.02.05-.072.003-.014-.025-.168.015-.303.008-.026.074-.08.09-.032.028.083-.025.24.014.238.041-.002.016-.214.022-.271.025-.263.07-.111.083-.118.032-.017.031-.161.034-.167.013-.025.039.077.058.079.026.002.072-.136.081-.106.013.045-.026.173-.025.181.025.105.085-.038.115-.078.009-.012.024.035.027.025.04-.152-.084-.032-.076-.133.008-.09.047.026.049.022.002-.004.004-.112.018-.13.007-.007.083.274.118.262l-.023-.27c.044-.006.011.123.016.136.01.026.031-.047.045-.045.01.002.041.09.054.01.005-.027-.026-.084.006-.184.04.346.066.106.082.096.016-.009.053.155.046-.045.086-.009.027.005.042.061.019.07.048-.09.026.164.04-.014.038-.22.04-.23.004-.01.024.036.031.02.079-.192.043-.06.093-.116.005-.011.023-.184.03-.048.013.251-.044.357.079.4a.52.52 0 0 0 .017-.139l-.017-.017c-.001.009-.005.023-.017.043-.017.028-.033-.029-.043-.103l-.005-.005.004-.002-.003-.042.017.017v.02l.014-.006.047.047-.001-.019-.033-.032c.016-.006.027-.008.026-.009-.004-.009-.025-.014-.052-.017v-.001.001l-.018-.002c-.005-.072-.004-.146.01-.172.01.037.009.098.007.155h.014c.014 0 .026-.004.038-.005-.013-.085-.033-.154-.033-.182-.002-.086.023.003.03-.008.002-.005 0-.073.002-.078.062-.035.043.12.027.265a.54.54 0 0 0 .167-.044.287.287 0 0 0-.045-.11c-.013-.016-.053.06-.05-.054 0-.012.031-.081.036-.085.026.01.017.082.028.085.01.003.005-.078.007-.079.033-.002.013.067.023.057.023-.023.094-.31.073.067-.037-.315-.037-.04-.022.083l.002.006c.03-.019.057-.034.086-.051a.495.495 0 0 1 .012-.105c.042-.166.06-.05.071.07a.525.525 0 0 1 .136-.014c-.003-.028-.005-.054-.026-.021.033-.065.025-.343.03-.365zm.438 2.922c-.041.032-.146.007-.208.016-.085.013-.23.138-.168.013l.376-.03zm1.883-.011c.008.003.063.082-.05.058-.084-.017-.019-.087.05-.058zm-.853.027c.065.028-.154.023-.079-.001h.079zm.636-.002c0 .02-.097.004-.133.006.009-.022.096-.011.133-.006zm2.066 0c.004-.017-.297-.016-.318.006.048-.01.315.009.319-.006zm.774-.024c-.008-.003-.111.001-.11.016.052.02.144-.003.11-.016zm1.65-.036c.025.01-.07.035-.06.038.02.007.035.01.048.01a.947.947 0 0 1-.184.006c-.04-.027.074-.016.082-.017.006-.004-.071-.1.114-.037zm.85-.036c.005 0-.014.042.036.04.041-.003-.02-.046.06-.04.08.008-.027.038-.02.04.01.004.134-.015.13.01-.005.017-.136.005-.169.009-.042.005.008.035-.063.028-.043-.004-.02-.057-.029-.06-.011 0-.161.028-.1-.026.018-.016.13-.008.155-.001zm-6.763.058c.043.016-.085.037-.135.016 0-.017.128-.019.135-.016zm6.004-.02c.128.014.034.032-.08.044.036-.01.037-.048.08-.044zm-3.62.043c-.015-.012-.017-.018-.01-.02.005.003.009.01.01.02zm2.627-.044c.113.011-.006.021-.004.03.005.023.192 0 .235.01.033-.042-.124-.004-.155-.014-.01-.003.135-.096-.076-.026zm3.05-.014c-.026.025-.107.017-.162.015.026-.024.107-.016.162-.015zm14.28-.034c.01.002.102.028.08.038-.376.023-.424-.078-.08-.038zm-2.989-.02c.018.003.082.048.01.057.001-.054-.112-.074-.168-.025-.035-.044.081-.05.158-.033zm-13.063.037c-.037.024-.159.014-.213.005.038-.03.153-.01.213-.005zm14.897-.031c-.04-.003-.066.033-.06.038.03.014.104-.016.06-.038zm-15.48.031c-.005-.017.148-.035.158.009-.032-.003-.15.002-.157-.009zm2.387-.012c-.003.019-.12.022-.136.017-.023-.01.1-.026.136-.017zm12.454-.006c-.035-.004-.123-.005-.133.01-.013.02.117.014.133-.01zm6.604-.034a.386.386 0 0 1-.194.045c-.116-.025.19-.05.194-.045zm-5.59 0c.111.037-.012.002-.008.04.076.002.262.003.134-.034-.025-.007-.09-.003-.126-.006zm-.104-.013c-.012.013-.092.053-.022.05.032-.002.083-.045.022-.05zm5.216.02a.056.056 0 0 1 .014.008c.016-.01.104-.012.114.016-.026-.003-.098 0-.106-.004-.003 0-.006-.002-.007-.003-.03.024-.364 0-.388-.006-.099-.034.352-.017.373-.011zm-1.135-.025c.115-.05.135.035.125.038-.12.033-.05-.023-.047-.03-.01-.005-.098.023-.078-.008zm.71.024c.08.028-.193.022-.104-.002.006-.001.098 0 .105.002zm-19.033-.019c.069.009 0 .04-.045.028-.004-.002-.014-.035.045-.028zm14.187.01c-.016-.007-.425-.029-.4.018.034-.005.499.019.4-.019zm-3.058-.012c.072 0-.007.045-.045.028-.014-.006.027-.028.045-.028zm.71-.04-.03.018c.373.02.025.01-.066.018-.035.003-.006.027-.037.03-.249.027-.19-.114.133-.067zm-.74-.01c-.127.041-.293.035-.068.077-.33.008-.193-.032-.206-.035-.016-.004-.065.01-.076.005-.24-.1.219-.034.35-.047zm.439.061c-.053.034-.248.006-.156-.014.013-.003.118.017.156.014zm-19.076-.01c-.056-.002-.169-.012-.134.017.006.002.132-.001.134-.017zm20.537-.011c-.012-.004-.324-.006-.217.023.033.01.316.006.217-.023zm1.48.015c-.004.02.124.009.136-.012a.694.694 0 0 0-.135.012zM7.95 45.037c-.008-.002-.181.002-.162.016.036.024.186-.006.162-.016zm8.074-.033c.014-.001.033.027.038.028.012 0 .277-.01.176.027a7.444 7.444 0 0 1-.447-.012c-.02-.04.143-.002.183-.006.007-.002.012-.034.05-.037zm17.68.032c-.001.017-.127.02-.136.017-.066-.018.09-.025.136-.017zm-3.908-.074c-.03.006.065.043.044.05-.014.005-.083-.009-.106.003-.006.003.064.038.085.036.03-.002.002-.029.034-.029.106 0 .2.02.3.019.008 0-.06-.02.015-.02.013 0 .084.03.175.025.203-.09.352-.001.61-.033a1.998 1.998 0 0 0-.214-.033c-.215-.014-.6-.016-.826-.016-.058 0-.03.019-.055.02-.019 0 .004-.035-.061-.022zm-21.713.069c.022.031.123.007.183.015-.027-.035-.122-.013-.183-.015zm23.953-.004c-.008.013.127.021.133-.003-.03.002-.125-.008-.133.003zm-14.438-.011c.064.028-.154.022-.079-.002.005-.001.076 0 .079.002zm1.668.004c.055-.004.112-.015.13.013-.035-.004-.136.007-.13-.013zm2.598-.01c-.012.016-.178.036-.187.009-.01-.036.154-.013.187-.01zm11.567-.07c.01.006.043.12-.068.077-.02-.008.058-.037-.078-.05.102.002.08-.053.146-.028zm-5.605.07c-.013.017-.123.013-.161.014.025-.024.107-.017.161-.015zm-6.622-.008c.078.028-.193.022-.106-.002.005-.002.102 0 .106.002zm-2.512-.027c.037-.022.263-.004.314.018-.049.033-.357.01-.314-.018zm14.174.008a1.31 1.31 0 0 1 .209.017c-.014.019-.202-.002-.21-.017zm-1.628-.012c-.059-.008-.05.025-.045.028.046.01.114-.02.045-.029zm-23.225.008c.017.025.136.019.184.015-.022-.031-.125-.007-.184-.015zm18.554-.033c.002.02-.287.056-.301.052-.077-.034.235-.074.3-.052zm.156.014c.03-.008.097.016.073.031-.03.019-.08-.03-.073-.031zm-12.111.016c-.006-.025-.137.005-.11.017.018.008.114-.002.11-.017zm14.737-.036c-.014-.003-.184.022-.113.047.048.017.056-.018.068-.019.013 0 .29.044.045-.028zm-14.233.03c-.021-.01-.444-.016-.201.014.017.002.248.015.2-.015zm9.616.007c-.027.015-.183.019-.21-.001.064-.01.142.002.21.001zm7.265-.026c-.009.021.12.016.13.013.023-.018-.095-.022-.13-.013zm-7.1 0c-.009.017-.142.017-.16 0 .04-.01.111.001.16 0zm-2.909-.018c.078.01.173.005.175-.015.001.003.005.006.012.01.006.003.088-.006.125 0 .216.042-.836.024-.226-.033l-.086.038zm-3.605-.006c-.044-.024-.168.007-.136.017.022.006.18.008.136-.017zm1.698-.015c-.013-.004-.132.013-.137.026.07.014.197-.005.137-.026zm-2.038-.014c-.027-.003-.062.036-.06.038.03.015.107-.016.06-.038zm15.03-.038a.366.366 0 0 0-.2.044.145.145 0 0 0-.046-.02c-.041-.01-1.095-.021-.385.03.022.001-.008-.023.083-.019.006 0 .009.02.027.02.042.002.27.015.316 0 0 .003.003.006.008.01.056.027.23-.056.198-.064zm-12.752.049c-.024-.007-.1 0-.11.016.04.008.165 0 .11-.016zm-5.219-.01c-.049-.014-.174.012-.136.026.023.009.194-.01.136-.026zm19.343-.003c.015.009-.033.032-.058.03-.045-.007.009-.057.058-.03zm.558-.004c-.03.03-.052.033-.138.026.128-.009.01-.035.138-.026zm-17.226.014c-.036-.025-.135-.023-.106.002.003.002.091.016.106-.002zm.535-.02c-.004.018.148.025.154.023.086-.032-.091-.025-.154-.024zm-4.211-.013c-.007.004.043.05.073.032.024-.015-.044-.039-.073-.032zm21.195.007c.048 0 .116 0 .129.023-.032-.004-.128-.007-.129-.023zm-2.092-.007c-.004-.001-.124-.011-.108.012.024.035.142.001.108-.011zm3.152.005c-.056.027-.185.027-.268.022-.002-.035.215-.014.268-.022zm-22.148-.007c-.028.02.118.031.127.028.053-.016-.07-.067-.127-.028zm2.613-.095c.158.102.142.024.156.024.03.001.098.028.153.024l-.191.034c.05.008.488.045.497.028.012-.023-.122-.015-.128-.017-.006-.003-.027-.068-.04-.071-.021-.004-.388-.005-.447-.022zm2.593.083c.035.008.046.033.062.027.006-.002.008-.027.027-.033l-.09.006zm-2.712-.006c.032.02-.125.04-.162.015-.045-.03.155-.018.162-.015zm1.534.01c-.007-.001-.16-.01-.16.006.042.013.245.017.16-.005zm-3.717-.042c-.1-.06-.053.015.036.034.026-.026-.02-.025-.036-.034zm-.32-.045c-.028-.01-.315.001-.27.033.015.01.176-.017.187-.015.011.003-.04.038.047.03-.005-.01.045-.044.036-.048zm.237.007c-.1-.045-.122.037-.047.038.029 0 .06-.031.047-.038zm.318-.002a.28.28 0 0 0-.109.017l.263.006c.01-.015-.035-.008-.066-.015l-.088-.008zm22.31-.143c.022.02-.076.038-.111.027-.078-.023.103-.032.11-.027zm-28.794-.752.054.054v-.018l-.053-.052-.001.016zm-1.941-.119c-.01-.032-.047.086-.023.101.015.009.029-.08.023-.101zm1.738-.084.006.005.005-.012-.012-.011.001.018zm28.042-.312c-.083-.038-.053.093-.043.098.043.021.19-.03.22-.044-.22.02-.137-.035-.177-.054zm-.853.037c-.041-.005-.166-.015-.186.005.045-.003.169.016.186-.005zm-.459-.092c-.043-.032-.091.046-.023.049.02 0 .027-.044.023-.049zm1.209-.087c-.061-.014-.14.043-.01.05l-.137.025c.17.032.158-.046.207-.043.068.005.063.069.05.09.057-.04.295-.04.432-.048-.121-.016-.318-.046-.438-.057-.034-.003-.067.015-.096.013-.046-.003-.005-.03-.008-.03zm-.75-.03c-.042-.096-.059.057-.14-.023-.11.116.302 0 .352.098-.447-.011.294.098-.018-.05.258.054.085-.018.125-.037.042-.02.186.002.18-.034l-.267.008c.086.077-.095.054-.156-.01l-.077.048zm.503.073c-.009-.002-.201.01-.19.025.026.01.3-.002.19-.025zm-28.166.02c.001-.012 0-.025.002-.036l-.01-.01.008.046zm29.017-.037c-.07 0-.177-.015-.215.014.07 0 .177.015.215-.014zm-29.572-.043c.053.037.034-.038.045-.062.009-.022.04-.036.024-.084-.022.049-.046.097-.069.146zm.536-.022.023.023.001-.016-.027-.027.003.02zm29.158-.021c-.138-.082-.323.01-.346.01-.02-.002.01-.037.007-.038-.01-.002-.229 0-.24.003-.005.003.032.053-.012.069.087-.03.486-.01.506-.016.016-.005-.104-.059.085-.029zm-.397 0c.053.02-.098.024-.135.016-.082-.018.128-.019.135-.017zm-.367-.02c-.017-.005-.175-.01-.189.014.075.03.227-.003.19-.014zm-1.91.009c.04-.003.152.014.16-.006-.041.003-.153-.015-.16.006zM7.495 43.11l.014.014.002-.015-.025-.024a.713.713 0 0 1 .009.025zm-.07-.07.05.05.001-.015-.059-.06.008.025zm-.04.027.002-.02-.003-.002v.022zm27.652-.054c-.03-.006-.517.01-.586.02a4.9 4.9 0 0 0 .579.01c.006-.003.01-.029.008-.03zm1.068-.008c.045-.03.074.005.08.006.056.005.172-.002.147.027-.1-.012-.317.028-.227-.033zm-.402-.004c-.071.046-.128.011-.223.013-.025.001-.02.02-.022.02-.044.002-.012-.02-.039-.02-.017 0-.377.026-.325-.01.04-.024.53-.003.609-.003zm-28.363.032.01-.023-.01-.009v.032zm.042-.035.011.011.002-.015-.013-.013v.017zm27.18-.036c-.594.003-.239.035.012.018-.008-.004.002-.018-.012-.018zm1.916 0c.093.035-.324.027-.348.021.027-.017.333-.025.348-.02zm-29.137-.005.022.022.005-.012-.025-.026-.002.016zm26.859.005c-.013-.002-.183-.012-.186.005.026.006.28.012.186-.005zm.848.002c.054-.053.297-.017.13.01-.017.001-.084-.022-.13-.01zm-27.776 0c.001.003.017-.002.03-.001l-.03-.03v.03zm27.018-.06c-.002.002.035.033-.044.03-.007 0-.02-.038-.123-.024a.113.113 0 0 0-.05.028c.106.057.429-.053.217-.034zm1.906.011c.015.01-.014.037-.06.038-.016-.016.024-.061.06-.038zm-2.782.006c.01.017.222.028.232.026.1-.028-.211-.033-.233-.026zm2.81-.01c.04-.027.34 0 .26.021-.016.004-.318.018-.26-.021zm-28.952-.04.026.026-.013.004-.014-.014v-.016h.001zm14.79-.032c-.013.01.094.042.125.032.073-.023-.095-.05-.126-.032zm-1.048-.068c-.085.005-.175.102-.069.087.012-.002.079-.074.07-.087zm5.635.05c-.09-.035-.084.03-.018.03.022 0 .02-.027.018-.03zm-3.42.008c-.01-.002-.112.002-.109.017.039.01.167-.002.11-.017zm11.634-.009c-.045.027-.17.02-.243.024-.008-.035.191-.017.243-.024zm-4.505 0c-.044-.007-.235-.005-.161.015.011.004.157.004.161-.015zm-4.29-.005c-.047.004-.168-.004-.19.015.058-.004.205.022.19-.015zm-4.32-.006c-.07-.038-.19-.034-.16.017.133-.004-.017-.046.16-.017zm5.227-.04c-.036-.002-.065.046-.06.05.04.02.098-.03.06-.05zm-2.79.04c-.003-.02-.12-.01-.104.003.006.004.107.014.105-.003zm9.278-.016c.024.032-.15.018-.16.015-.055-.018.11-.037.16-.015zm-5.457-.01c.006-.031-.18-.014-.106.011.018.007.102-.002.107-.011zm2.72-.082c.01.005-.044.032-.034.038.005.004.194.017.208.015.01-.002-.001-.035.008-.038.011-.005.13.024.193.025.118 0 .131-.027.14-.027.029 0 .076.019.133.019.288 0 .728-.024.956.035-.203-.024-.397.002-.599.01.06-.058-.297.043-.088-.024a12.43 12.43 0 0 1-.996.014c-.021-.003-.011-.107.078-.067zm-10.05.04c.052-.035-.217-.027-.24.014.035.005.23-.01.24-.013zm1.429-.126.016.009c.003.01-.02.02-.014.025.007.004.12.037.022.042-.151.008-.015-.052-.095-.053a.656.656 0 0 0-.155.046c.001.001.047-.007.055-.004.029.013.015.035.02.036.017.002.256-.034.29-.002.012.01-.387.034-.403.029-.009-.005-.005-.063-.015-.07-.005-.002-.165.02-.186.015a.127.127 0 0 1-.014-.005c.022.019-.121.017-.117-.004a.4.4 0 0 1 .106-.002l.004.002c-.019-.022.318-.022.245-.055.098-.018-.014.049.06.031.024-.006.049-.075.18-.04zm.29.004-.03.018c.171-.015.37.015.568.015.049 0-.008-.038.058-.028.052.009.11.044.082.052-.007.002-.115-.02-.168-.019-.157.008-.12.04-.128.041-.01.001-.11-.022-.165-.021-.136.003-.199.023-.386-.003.108-.022.049-.07.169-.055zm6.558.064c-.006.021-.118.003-.16.006.007-.02.12-.003.16-.006zm-4.235-.022c.063.036-.25.015-.104-.009.006-.001.101.007.104.009zm-9.745-.026c-.002.017.145.028.16 0-.03.001-.158-.01-.16 0zm12.242-.008c.014.038-.154.01-.214.014-.014-.038.155-.009.214-.014zm-1.282-.014c.713-.03.556.052-.042.019-.001-.025-.003-.017.042-.019zm.913.005c-.026.024-.107.017-.162.015.01-.017.122-.011.162-.015zm-15.1-.01c.044-.03.242.009.208.021-.009.003-.225-.003-.208-.02zm13.142-.002c.065.033-.192.005-.214.013-.015-.037.197-.022.214-.013zm3.34-.011c-.03.025-.155.013-.214.013.038-.029.146-.014.215-.013zm-.608-.007c.078.029-.194.021-.105-.003l.105.003zm-20-.194a.485.485 0 0 1 .012.134c-.024.075-.045-.113-.011-.134zm.066.012c.014 0 .018.1.016.11-.016.056-.025-.072-.016-.11zM40.38 3.087l1.12.023-.021 1.076c-.005.366-.016.616-.037.442-.003-.027 0-.247.001-.442l.02-1.042-1.083-.021c-.25-.001-.457 0-.16.021.023.002.083.003.16.003l1.06.021-.02 1.018c0 .234.005.629.002.656-.016.137-.035-.296-.055-.656l.019-.966-1.006-.02c-.269.015-.497.031-.42.048.13-.013.272-.02.42-.023l.979.02-.018.941c.005.27-.001.56.005.828.004.189.032.237.032.26.008.35-.022.155-.021.271 0 .063.064.752-.023.622.064 2.273.063.629.059-.765.031.44.017 1.304.024 1.692.003.138.031.056.037.29.012.484-.021 2.792-.03 3.393-.01-.369-.041-.26-.04.024.003.285.046.046.05.101.005.06-.015 1.398-.01 1.62-.014-1.007-.047-.78-.05.075l-.027-.371c.013.5-.036 1.554-.021 1.844.002.044.028-.117.03-.093.011.253-.016 1.114-.007 1.158.008.034.03-.334.041-.197.003.029-.033.383-.024.733.003.13.028.053.03.085.012.272-.03.112-.024.61.005.364.046.636.032 1.14.053-1.655.03-.263.047.43.002.11.048.016.026.678-.083-1.41-.044.403-.045.774 0 .02-.03.029-.03.21 0 .014.02-.006.022.161.014 1.604-.008.579-.028.883-.009.13.02.91.02 1.12 0 .048-.021.026-.02.213.001.33.024.626.026.845 0 .025-.034.026-.023.44.003.116.015.247.025.081.031-.547-.023-1.587.008-2.206.029-.563.032 1.217.032 1.31 0 .03-.017-.313-.02.038-.002.302.055.853.042 1.303 0 .034-.05.39-.053.377-.002-.015-.012-.566-.026-.486-.002.018 0 .36-.011.405-.013.056-.139.207-.143.282-.007.192.022.067.02.192-.004.266-.042 1.19.002 1.22l.007-.458c.005.85.024.488.032.608.009.13-.03.094-.034.38 0 .065.008 1.26.024 1.238-.026-.662.022-.417.023-.448.003-.116-.024-.264-.023-.42.004-1.094.045.01.056-.248.004-.089-.018-.266-.017-.304.004-.123.032-.125.03-.207-.006-.19-.047.029-.05.017-.026-.17.008-.84.053-.424.017-.25-.04-.28-.017-.478.044-.393.033.197.04.357.026.574.005.744.012 1.556.002.293.03.64.031.776 0 .087-.093.892.054.916-.014.314-.111.806-.107 1.13.004.29.056.198.059.225.003.041-.001.392.006.511.009.14.029.07.037.291.02.549-.034.535-.037.591-.04.656.036.369.042.514.005.14-.023 2.033-.004 2.432l-.033-.487c-.033.29.021.598-.037.605.094.06.03.659.033.839.001.07.018.066.018.154.003.347-.01 1.131-.002 1.32.036.815.096-1.268.1-1.433-.002.329.02 2.185.065 1.333.007-.132-.036-.367-.038-.441-.01-.5.028-.111.032-.146.006-.067-.032-.398-.027-.485.001-.028.037.156.038-.32.033.235.006 1.58.014 1.757.002.05.047-.187.03.287l-.025 1.332-1.28-.026a20.873 20.873 0 0 1-.534-.027l.041.02-1.924.008c.07-.015.43-.045-.023-.039-.261.004-.07.038-.092.039-.234.01-4.38-.002-5.184.002-.273.001-1.035.029-1.093.03-.348.002-1.577-.017-1.823-.013-.153.003-.008.032-.144.03-.128 0 .004-.028-.034-.03-.313-.01-2.69.027-3.255 0 .344.008 2.064-.047 2.032-.066a5.729 5.729 0 0 0-.512-.014c-.142-.025-.633.05-.9.035-.028-.002.088-.043-.385-.05-.164-.003-.593.029-1.025-.007-.625.017-3.91-.035-4.135.009.007.002.45.017.143.035-.415.024-.043-.056-.526-.063-.073-.002-1.416.006-1.465.011-.406.046.762.064.753.07a22.87 22.87 0 0 1-1.059.018c-.038-.004.76-.064-.2-.041l.33.021c-.45.014-.493-.027-.602-.03-.34-.008-.707.056-1.251-.023-.144-.02.094-.044.076-.047-.172-.028-.392.047-.652-.009.024-.006.544-.037-.472-.037l.217.016c-.15.012-1.219.019-1.363.016-.42-.008-.054-.047-.476-.042.27.053-1.013.06-.94.014-.17.053-1.138.019-1.682.013h-.08c-.25-.005-.745.106-.82.128-.094.02-.076-.026-.246.017-.05.01-.534.2-.937.421-.079.04-.272.097-.144-.013.22-.198.745-.379.726-.406-.03-.05-.685.311-.84.442-.734.565-.348.202-.378.2a.755.755 0 0 0-.174.132c-.126.113-.259.27-.269.28-.069.059.154-.239.147-.254-.02-.026-.384.335-.317.242.06-.09.22-.258.343-.364.07-.062.126-.105.134-.113.224-.224-.026-.071-.193.054-.04.029-.075.056-.1.073-.038.026.08-.115.051-.09-.427.404-.028.142-.28.432-.207.263.013-.093.016-.097-.016.009-.263.34-.305.391-.031.014.374-.633.522-.805.025-.035.036-.056.027-.054l-.04.04c-.232.242-.435.51-.606.795-.056-.004.259-.402.295-.442.059-.088-.14.127-.144.112-.005-.01.188-.308-.019-.065-.069.086-.186.284-.403.62.707-1.203.17-.404.127-.377-.034.025.256-.477-.046-.007-.003.018 0 .021-.003.005l-.087.133c.002.384.02.859.042 1.075a10.03 10.03 0 0 1-.006-.587c.05.064.05.896.01.612.021.18.032.058.053.158.005.027.006.283.015.334.002-.013.021-.256.03-.205.02.097.014.872.01.938-.014.179-.03-.452-.051-.508-.003-.008-.045.526-.049.54-.039.032-.01-.569-.046-.5l-.023.445c-.035-.573-.017-1.634-.058-1.907.012.85.01 1.74-.08 1.738-.04-.002-.062-.365-.072-.354-.035.054.003.563.001.583-.002.015-.004.022-.006.022-.02-.01-.035-.726-.045-.762-.016-.06-.084.258-.1.262-.003-.011-.02-.528-.046-.354-.027.177-.028.63-.03.645-.016.083-.03-.706-.04-.729-.005-.012-.035.413-.043.425-.01-.005-.027-.316-.053-.44-.02-.094-.036.18-.04.134-.001-.035-.001-.782-.005-.82-.005-.055-.028.12-.034.095a1.226 1.226 0 0 1-.004-.145l-.009.026c-.004.013-.01.024-.013.035-.027.273-.077.796-.094.791-.036-.017.049-.998-.098-.08 0 .007.01.23.009.238-.027.138-.069-.581-.062.299-.047-1.636-.056-.206-.118-.446a3.303 3.303 0 0 1-.026-.38c-.086.241-.159.45-.003-.1-.005-.133-.008-.243-.01-.251-.03.062-.007.263-.022.332-.004.02-.014-.115-.026-.237l-.04.122-.003.217c.003-.013.003-.024.006-.03.052-.184.03-.012-.007.2v.02c-.008.088-.014.103-.021.09-.016.086-.031.169-.044.23 0 .047-.002.081-.003.086 0 .003 0-.016-.004-.049l-.01.05a.318.318 0 0 1 .006-.092c-.006-.063-.016-.15-.023-.236-.017.103-.035.206-.041.264-.013.006.012-.182.035-.333a6.162 6.162 0 0 0-.019-.185c-.01-.078-.027.215-.031.16-.012-.148-.004-.372-.001-.51-.019.07-.037.147-.054.229l-.004.23c-.013.074-.02.012-.026-.085-.038.205-.065.422-.088.608v.199c0-.06-.002-.119-.003-.176-.028.24-.044.42-.032.446-.003.037-.083-.059-.058-.325.053-.29.066-.406.08-.508l-.008-.176-.003.009c-.006-.005-.006-.028 0-.065-.037-.684-.095-.697-.093.465.001-.482-.055-.429-.056-.573 0-.09.056-.787-.07-.467-.016.043.004.464-.028.332.008-1.019-.02-.022-.025-.02-.074-.014-.013-2.502-.022-2.93-.01-.496-.069-.937-.069-1.045 0-.354.03-.06.041-.139.011-.08-.046-1.088-.043-1.14.013-.194.048.002.05-.017.021-.242-.006-1.597.002-1.977-.023.012-.025.773-.062.298-.042-.553.058-.585.063-.6l-.003-7.61c-.053.04-.013 1.69-.02 1.728-.042.221-.041-2.581-.022-2.925l-.035.784c-.061-.445.019-1.433-.009-2.078-.008-.205-.032.185-.034.185-.024-.234-.005-.61.027-.33-.03-.571.003-.488.005-.927 0-.021-.024.165-.034-.18-.005-.163-.005-1.031-.027-1.147-.01-.046-.105.392-.023.446-.04.944.038.302.036.669 0 .055-.047-.071-.025.85-.083-.176-.021-1.24-.031-1.422-.021-.374-.064 1.173 0 1.457-.064-.133-.007.11-.01.455-.003.378-.023.213-.023.418 0 .558.046.327.005.788.128-.45.016.789-.018 1.15l-.019-1.761-.02.1c0-.155.002-.31.003-.464l.02.075c-.043-.796.004-.992.005-1.057.005-.837.005-1.805.005-2.651 0-.126-.042-.04-.009-.965.01-.294.043-.016.038-.35-.089-.419-.017-.411-.017-.535 0-.356-.022-.574-.023-.609-.003-.44 0-1.087-.003-1.572-.002.01-.027.23-.02-.072.004-.113.12-1.103.081-1.968l-.022.676c.01-.265-.019-2.122-.05-1.668-.019.278.055.955-.016 1.032.022-.62-.011-4.032.005-4.298.003-.036.026.188.03.14v-.607c0-.187.011-.347.018-.394.008-.075.004.35.016.316-.022-.034.125-1.223.141-1.292-.07.288-.159 1.115-.139.678.002-.057.062-.343.072-.41.07-.474-.148.47-.128 1.102l.001.36a18.283 18.283 0 0 1-.01-.36c-.05-1.185.488-2.744 1.235-3.717.351-.434-.449.695-.069.192.835-.998.184-.299.204-.333.076-.112.263-.306.464-.483.283-.255.595-.468.56-.516.392-.268.265-.183.836-.53-.08.036-.161.073-.24.113.597-.499 2.183-.747 2.066-.683-.304.072-1.084.28-1.145.319-.09.056-.34.178-1.307.736-.163.165.193-.098.518-.275.325-.178.598-.3.165-.05.398-.273 1.885-.78 2.888-.725.337 0 .598-.001.695-.01.04-.004-.145-.071.426-.037.27.017-.382.017-.26.033.382.047 5.569.017 6.554.015.063 0 .04.02.103.02.193 0 .896-.032 1.242-.022-.715-.04.674-.042 1.028-.038.536.006.503.044.735.052.894.03 2.279-.058 2.973.024-.038-.082 1.2.04 1.764.041.442.001 1.081-.053.486-.086.761.004 1.564-.012 2.278-.017.118 0-.044.024.158.022.018 0 .043-.025.216-.027 1.429-.021.735.03 1.001.045.15.008.261.012.342.014-.833.004-1.794.013-2.051.014.22.052 1.846-.01 2.323.004.016 0-.04.029-.025.03h.001c.179.002 1.316-.008 1.082-.043-.065-.009-.587-.01-1.207-.006.168-.007.043-.039.072-.04.36-.016 1.24.015 1.553.02.07 0 .067-.02.078-.02.284.005.168.063.46.002.513.074-.963.012-.861.06.08.036 3.356.016 3.355-.042a.658.658 0 0 0 .15.023c.205.02 1.118.013 1.277.002.027-.002.017-.058.05-.058.084-.001 1.2.042 1.617.009l-.676-.024c1.361 0 1.151-.017.698-.034-.023 0-.045-.003-.067-.003-.35-.012-.797-.024-.809-.029.024-.01.844-.017 1.398-.01zM6.527 41.774c.024-.346.033.45.027.486-.019.1-.037-.33-.027-.486zm.41-.426c-.004.016-.004.102-.005.191.006-.051.015-.106.022-.158-.006-.028-.012-.05-.017-.033zm-.265-.179c-.002.06-.007.118-.008.176a3.56 3.56 0 0 1 .076-.303 3.08 3.08 0 0 0-.007-.087l-.061.214zm.004-.12.015-.053c-.002-.034-.006-.08-.008-.137-.004.067-.004.13-.007.19zm.048-.167c-.012-.037-.015.007-.019.064l.019-.064zm.278-.226c-.003.018-.001.076-.002.152l.024-.097c-.008-.063-.015-.097-.022-.055zm.994-.743c0 .28-.002.489 0 .519.005.07.059-.459.028.372l.023-.235c.016-.247.011-.508 0-.73l-.05.074zm-1.16.793c-.002-.017-.005-.006-.014.046l.014-.047zm.201-.668c-.061.19-.087.282-.095.315.03-.095.06-.2.095-.315zm1.123-.314c-.01.015-.017.03-.026.042.001.234 0 .537.007.562.007.029.009-.227.014-.433-.026-.007-.023-.017 0-.05l.005-.12zm-.238.297c.002.104.006.192.016.247v-.272l-.016.025zm-.035-.138v.005l.006-.008v-.006l-.006.009zm.033-.056v.004l.02-.038v-.004l-.02.038zm-.034-.108.001.107.008-.013.003-.117-.012.023zm.342-.089c0 .036.002.059.001.065-.008.098-.014.066-.018-.04l-.032.043v.112c.022-.029.048-.068.08-.12v-.1l-.031.04zm-.307.025-.001.113.02-.036-.001-.11-.018.033zm.075.034v.006l.039-.06-.001-.012-.038.066zm-.115-.395.004.383.014-.023.01-.325-.007.011c-.001-.002.003-.006.007-.016l.002-.074-.03.044zm.115.233v.11l.036-.056-.007-.098-.029.044zm-.075.094c.005-.01.012-.017.018-.026a2.058 2.058 0 0 0-.015-.27l-.003.296zm.754-.515c-.05.004-.241.243-.395.453l-.001.04c.005-.018.08-.116.396-.493zm-.585.419v.023l.024-.036c.005-.02.01-.032.014-.023.026-.04.053-.076.078-.111v-.055l-.116.202zm-.094-.081v.064l.028-.04-.003-.053-.025.029zm.094.045.021-.033c.007-.009-.009-.008-.021-.01v.043zm-.039-.373-.055.083v.233l.024-.035a1.738 1.738 0 0 1-.007-.113c.002-.07.026 0 .036.024l.002-.004v-.188zm.153.109c-.04.052-.079.104-.115.157v.027a.934.934 0 0 1 .116-.139v-.045zm-.115.109v.038c.042-.06.081-.112.115-.157v-.008a4.934 4.934 0 0 0-.115.127zm.138-.052v.066l.029-.04-.001-.08-.028.054zm-.138-.004v.02a5.11 5.11 0 0 1 .114-.152v-.006l-.114.138zm.46-.435a2.524 2.524 0 0 0-.26.272v.149c.148-.199.249-.314.26-.42zm-.377.122c-.004.083-.008.125-.018.084l-.002-.063a1.045 1.045 0 0 0-.065.082v.178l.116-.171v-.143l-.031.033zm.055.23v.05l.013-.012a.224.224 0 0 1 .015-.018l-.001-.055-.027.035zm-.347-.013v.037c.013-.016.023-.032.033-.047l.001-.023-.034.033zm1.1-.376c.064-.113-.057-.002-.148.087-.026.025-.05.049-.067.063-.07.06-.137.084-.257.252a4.806 4.806 0 0 1 .473-.401zm-.753.376v.002l.01-.012-.01.01zm-.207-.096c-.004.029-.005.03-.008.01l-.016.027-.001.047a3.87 3.87 0 0 1 .056-.085v-.048l-.031.049zm-1.728-1.113c.036-.007.014.947.023 1.18-.027-.248-.027-.817-.023-1.18zm1.624 1.099-.036.048v.033l.035-.046.001-.035zm.31.039v.005l.028-.035v-.003l-.027.033zm0-.203v.133l.028-.045v-.066c-.03.035-.044.05 0-.01l.002-.043-.03.03zm-.074-.016c-.023.03-.044.057-.065.09v.051l.065-.09v-.051zm-.157.08v.038l.012-.016-.001-.035-.011.014zm.03-.036v.039l.025-.034v-.038c-.01.01-.017.022-.026.033zm.343-.124c.008-.019-.036.03-.078.076v.048c.031-.049.061-.091.078-.124zm-.493.055.002.058c.016-.022.03-.043.046-.063v-.05c-.016.02-.033.038-.048.055zm.3-.005-.001.053.03-.04v-.051l-.029.038zm-.09-.002v.038c.022-.025.043-.054.067-.083v-.027a2.262 2.262 0 0 0-.066.072zm.204-.019.001.033.15-.192-.15.159zm-.53-.082.008.087v-.093l-.007.006zm.466.04v.047c.01-.013.02-.028.032-.042l.001-.043-.033.038zm-.298-.084c-.017.022-.037.044-.054.068l.002.061.05-.066.002-.063zm.25.048v.023l.027-.035.001-.014c-.009.01-.02.017-.029.026zm.713-.611a4.281 4.281 0 0 0-.426.373l-.178.204.001.04a5.303 5.303 0 0 1 .603-.617zm-.896.581v.03l.012-.014v-.029l-.012.013zm-.173-.662c.04-.365-.092-.236-.098-.19-.017.158.018.642.037.87l.006-.008c-.013-.837.038-.506.055-.672zm.049.568.003.106.055-.07.003-.102-.061.066zm.354.081v.009l.03-.037-.03.028zm-.2-.02v.027l.026-.034v-.023l-.026.03zm7.663-.024c-.169.037-.886.008-.578-.004.086-.004.43.006.578.004zm-7.695-.043v.057l.014-.015v-.06l-.014.018zm8.355-.053c-.183.032-.643.008-.914.017-.375.013-1.012.138-.738.013l1.652-.03zm-8.298-.02-.026.033.001.06.026-.032-.001-.06zm16.566.01c.034.004.28.082-.22.059-.369-.018-.082-.088.22-.059zm-3.745.027c.286.028-.675.023-.346 0 .015-.002.332 0 .346 0zM7.888 36.97c-.032.75.047.695.043.91-.004.3-.069.277-.09.217.015.089.021.282.028.52l.063-.077c.005-.17.012-.329.014-.465.003-.15-.014-.295-.012-.422.003-.204.028-.026.03-.037v-.001c.014-.268-.044-.613-.05-.041l-.026-.604zm31.337 1.59c-.407.004-.112.068.141.041a.52.52 0 0 0-.141-.04zm-15.561.036c-.007.02-.425.004-.585.007.042-.022.422-.012.585-.007zm-15.675-.08.002.088.016-.02v-.086l-.018.018zm24.747.08c.016-.017-1.307-.016-1.397.007.208-.01 1.372.008 1.397-.007zm8.908-1.333c-.013-.041-.018-.013-.02.052l-.025 1.268-1.218-.025c-.16-.004-.538.013-.633.006h-.001c-.04-.003.596-.096-.33-.026.495.01-.026.02-.019.029.026.021.732.005.983.01l1.236.023.026-1.285v-.052zm-33.519 1.32v.017c.01-.01.016-.02.022-.025.016-.027.004-.02-.022.007zm28.007-.01c-.033-.004-.491 0-.478.016.223.02.628-.003.478-.017zm-18.718-.015c.191.017-.378.038-.594.017-.003-.018.559-.02.594-.017zm10.422.002c.023.005.038.011.04.021-.062-.011-.067-.017-.04-.02zM8.02 38.484l.002.082.027-.031v-.078l-.03.027zm.107-.003-.002.045.027-.03v-.042l-.025.027zm-.14-.001.02-.023c.006-.108.01-.089.013-.012l.029-.031v-.149c-.002-.031-.053.14-.07-.057.005.06.006.155.008.272zm.22-.081c-.01.008-.018.018-.028.027v.039l.027-.03v-.036zm7.792.04c-.25-.001-.744-.011-.592.017.026.002.576-.001.592-.016zm-7.872-.056v.066l.025-.027v-.064l-.025.025zm6.615.029c-.034-.003-.793.002-.71.015.16.024.823-.006.71-.015zm.588-.007c.094.032.541.008.801.015-.118-.035-.535-.013-.8-.015zm-7.113-.018.001.033.031-.033-.003-.03-.029.03zm-.026-.067-.008.07.023-.027.001-.058-.016.015zm3.35 0c.031-.023-.29.027-.358.055-.105.036.309-.028.359-.055zm3.483.034c.075.024.594.018.802.015-.093-.032-.543-.008-.802-.015zm-6.797-.066-.013.012.002.054.026-.029-.001-.05-.014.013zm.055.037v.025l.004-.004c.112-.12.156-.171-.004-.021zM37.435 5.352c.167.052-1.551.01-1.739.026-.048.004.136.036.085.04-.274.016-.933-.017-1.39-.032v.05c.129.005.266.012.368.012.602-.003.877-.023 1.699.003-.474.022-.215.07-.743.055l.133-.018c-.452.01-.946.002-1.456-.006l.01.52.077-.496c.008.339-.022.632.015.953.081-.768.066.24.075.262.006.004.073-.3.086-.349.025.27.037 1.089.12.61a.915.915 0 0 0 .03.295c.036-.027.013-.486.046-.411.038.087-.014.208-.01.342.022.685.211.497.181 1.185l.02-.041-.032 2.242c.057.292.093 1.071.087 1.454-.002.078-.032.454-.037.483-.01.052-.014-.238-.033-.107-.004.028-.017.664.015.622.004-.071-.012-.296-.005-.333.055-.257.01 1.715.033 1.813l.031-.132-.015.373-.027-.15c-.006.142 0 .335-.009.467-.001.022-.027-.034-.029.018 0 .05.035.041.04.116.003.085-.022.468-.021.6.002.498.023 1 .008 1.498-.026-.515-.053.003-.042.147.003.032.07.027.053.543-.01.328-.107.025-.06.572.068-.42.063-.006.066.324 0 .058-.01.515-.007.718.001.07.037.175.038.267 0 .064-.02.112-.019.206.005.439.007.87 0 1.31-.09-.257-.038.201-.043.222-.024.104-.032-.369-.047-.181l.008.785c.012-.215.076.282.047.375.08-.04-.07 1.191-.043 1.38.004.03.029-.11.032.079l.096 2.497-2.136-1.477a6.313 6.313 0 0 1-.237-.182c-.05-.04-.016-.045-.045-.064-.018-.01-.16-.023-.24-.135-.028-.04.245.101-.301-.283.166.222-.767-.522-.93-.669l.086.104c-.157-.153-.204-.155-.242-.186-.154-.122-.354-.306-.503-.414-.173-.126-.203-.088-.392-.253l.124.132-.41-.317c.358.189-.068-.054-.095-.072-.041-.029.033-.006-.038-.055-.007-.004-.012.022-.118-.054-.224-.16-.17-.16-.263-.229-.009-.006.007.035-.155-.08-.518-.367.013-.012.034 0 .026.013-.088-.188.321.16-.138-.117-.128-.161-.144-.174a18.491 18.491 0 0 0-.283-.204c-.131-.081-.04.022-.068.008-.024-.013-.302-.267-.423-.252-.098-.17.125.005.375.177.045.014-.209-.195-.226-.208-.343-.258-.192-.064-.292-.087-.052-.013-.165-.152-.07-.01-.316-.228-.108-.114-.125-.133-.027-.029-.143-.096-.156-.109-.018-.017.063.019-.012-.046-.014-.011-.16-.078-.007.058-.216-.168-.215-.132-.254-.235-.218-.024-.07-.135-.126-.184-.146-.13-.155-.031-.165-.03-.054-.016-.295-.205-.465-.335-.114.103-.002-.059-.094.032-.032.032-.026.114-.235.227-.06.032-.009-.027-.021-.025-.006 0-.198.102-.059-.01.212-.17.052.026.167-.06.015-.01.21-.205.192-.202-.01.009-.06.056-.073.062-.049.02-.042-.012-.049-.009-.02.012-.346.303-.416.315a9.31 9.31 0 0 1 .492-.403l-.013-.01a1.116 1.116 0 0 1-.17.107c.088 0-.499.387-.55.445-.014.016.066-.003.051.012-.096.098-.424.272-.561.373-.153.113-.118.12-.127.126-.068.05-.026-.006-.066.025-.062.047-.484.36-.508.382-.006.005.082-.02-.007.054-.015.013-.028-.025-.293.194-.319.264.258-.135.144 0-.246.114-.206.153-.266.193-.02.014-.198.088-.357.211l.333-.279c-.119.079-.334.253-.433.316-.048.03-.035-.029-.133.046-.02.017-.046.155.188-.074.04.012-.096.086-.148.137-.008.008-.008.079-.102.106-.023.006.069-.27-.354.197-.013.015.054-.01.04.005-.01.012-.14.099-.151.111-.012.013.063-.014.048.002-.073.084-.242.098-.058-.032l-.2.11c.104.005-.083.085-.164.149-.525.41-.143.178-.22.264-.126.14-.082-.036-.28.155-.018.018.275-.141-.257.224l.225-.176c-.083-.02-.271.21-.29.224-.196.16-.074.038-.355.29-.025.023-.093.053-.145.103-.218.204.323-.217.356-.21.015.006-.58.449-.605.459-.1.042.261-.211.175-.189-.017.005-.267.198-.52.393l-1.958 1.59-.1-2.62c-.003-.273-.005-.552 0-.65.016-.244.104-.354.005-.355.097-.07.031-.13.031-.162.01-.379.01-.38.002-.705-.002-.072.027-.132.022-.158-.003-.014-.034.013-.044-.059-.013-.1.02-.705.037-.75.017-.043.007.254.035.202.003-.217-.004-.425 0-.644 0-.09.021-.044.022-.083 0-.016-.019-.33-.026-.317-.017.04-.005.997-.04.744-.007-.049.04-.222-.017-.195l.039-2.594c.042.497.003 1.056.007 1.576 0 .072-.005.312.024.283.007-.443-.007-.992.012-1.417 0-.014.026.036.03-.015.007-.096-.035-.405-.024-.458.003-.008.037.167.058.115.056-.138-.067-.173-.065-.291 0-.092.06-.708.022-.861-.04-.163-.022.453-.055.408-.032-.417.002-.84-.002-1.234-.001-.003-.026.051-.029-.035-.006-.152.03-.192.036-.267.006-.08 0-.364.014-.402a.223.223 0 0 1 .038.061c.015.124-.031.168-.032.18-.002.041.016.083.015.121-.002.064-.018.1-.02.183 0 .057.031.002.03.058 0 .02-.073.24 0 .262.023.006.053-1.8.034-1.98l-.026.465c.022-.315-.037-.693.05-.72l.022-3.497c.007-.208.063-.094.047-.437l-.054.266c.013-.176.038-.954.026-1.08-.002-.016-.053-.04-.057-.233-.004-.172.034-.2.04-.292.007-.077-.002-.165 0-.188.002-.017.025-.024.029-.066.013-.134-.054-.026.022-.159l.008.097c.01-.158.043-.372.06-.16-.001-.045 0-.088-.004-.126.034-.107.013-.71.02-.73.01-.028.035.074.058-.06.005-.029-.013-.835.031-.545.01.061 0 .446.001.54.07-.22-.03-.732-.028-.791.011-.233.061.447.07-.078.005-.404-.042-.024-.062-.18-.012-.087.04-.543-.026-.531-.007-.157.027-.066.03-.086.002-.022-.017-.327-.003-.427.002-.012.036.026.04.014.001-.008-.002-.053-.003-.106h-.065c-.01.18.026.555-.034.398-.03-.081.006-.135.007-.145.003-.075 0-.209.01-.253h-.034c0 .16-.001.331-.004.351a2.91 2.91 0 0 1-.02-.351h-.027c0 .127-.006.236-.025.184a.81.81 0 0 1-.011-.183c-1.97.01-1.661-.031 0-.025V5.47c-.446 0-.832.004-1.001 0-.6-.016-.87-.104-.875-.005-.17-.097-.32-.03-.396-.031-.93-.009-.932-.01-1.73-.001-.175.002-.324-.028-.386-.023-.036.003.031.035-.146.044-.246.014-1.728-.019-1.838-.036-.11-.018.625-.007.494-.036-.462-.002-.907.002-1.366.001-.054 0-.108.002-.163.004-.168.007-.084-.017-.156-.012-.033-.01-.608.109-.579.12.034-.003.498-.107.898-.096.516.004.938.01.63.027-.12.007-.547-.039-.48.018l-.15-.001a3.734 3.734 0 0 0-3.558 2.533 3.387 3.387 0 0 1 .896-1.484c.283-.278.61-.508.952-.684.115-.068.535-.222.476-.227-.501.164-1.033.488-1.44.899a4.148 4.148 0 0 0-.581.731c-.014.021.011-.073-.041.008-.11.147-.3.702-.328.794-.008.005.07-.308.016-.222-.142.23-.042.332-.094.545-.021.088-.11.447-.117.818-.01.427-.013.854.005 1.03.04.398.023-1.109.055-1.002.033 1.024-.002 2.06.002 3.027 0 .017.026-.13.03.086.005.375-.03.474-.036.656-.006.197-.001.892-.014.987a.873.873 0 0 1-.04-.15c-.014-.303.033-.412.033-.44.002-.103-.016-.205-.015-.3.002-.155.018-.242.02-.447 0-.142-.031-.006-.03-.143.001-.052.074-.591 0-.642-.023-.016-.053 4.413-.034 4.858l.026-1.139c-.022.771.037 1.697-.05 1.763l-.021 8.583c-.008.51-.064.23-.048 1.071l.054-.651c-.012.43-.037 2.337-.026 2.647.002.04.053.096.057.573.004.423-.033.492-.04.718-.007.19.003.403 0 .46-.001.042-.025.06-.029.163-.012.329.054.063-.021.39l-.009-.239c-.01.39-.044.92-.061.383.002.114.002.223.005.32-.033.264-.013 1.738-.02 1.791-.009.069-.035-.184-.058.148-.004.076.013 2.046-.03 1.335-.01-.148 0-1.096-.002-1.324-.07.538.03 1.798.028 1.941-.01.572-.06-1.098-.069.19-.006.99.041.06.062.442.01.214-.042 1.333.025 1.305.008.384-.027.16-.03.207-.001.027.002.306.005.579l.025-.027c-.001-.282.002-.465.035-.251.012.08.012.148.01.204l.01-.01c.001-.042 0-.07.002-.081l.003.077.027-.026v-.026c.005-.026.012-.019.02.006a6.61 6.61 0 0 1 1.49-1.058c-1.692.892.007-.11.524-.318-.242.07-.727.233-.82.288.639-.514 3.046-.835 1.637-.706.253-.04.865-.135.864-.133-.086-.072-1.434.195-1.219.134.244-.101.614-.123 1.01-.158.177-.015.335-.022.477-.027 1.228-.043.976-.2 2.517-.172l-.101-.02 5.502.032c.717-.058 2.627-.093 3.565-.087.189.002 1.116.032 1.186.037.129.01-.583.014-.26.034.07.004 1.636.017 1.524-.015-.177-.004-.726.011-.816.004-.631-.054 4.2-.01 4.446-.032l-.322-.033.917.016c-.123.01-.247.018-.371.027.35.006.823 0 1.148.009.054.001-.084.028.041.029.127.001.103-.035.286-.039.206-.004 1.148.02 1.474.02 1.22-.003 2.451-.023 3.673-.008-1.261.027.008.054.363.042.078-.003.066-.07 1.333-.053.611.009.328.064.748.07.001-.255.004-.501.003-.673 0-.17-.037-.43-.038-.655 0-.156.02-.273.019-.504a315.82 315.82 0 0 1 0-3.213c.09.63.039-.494.043-.545.025-.257.032.905.047.445l-.008-1.926c-.011.527-.076-.697-.047-.923-.08.1.07-2.926.042-3.387-.005-.094-.045.53-.027-.924.002-.158.026-.098.024-.181-.002-.05-.078-.35-.035-.669.015-.117.066.63.046-1.01-.078.653-.042-2.272-.023-2.81l-.032.322c.028-.531.002-.628.003-.747.006-.483.033-1.148.03-1.599-.002-.526-.05-.528-.032-1.141l-.032.436.007-1.271c.065.98.004-.207.002-.29-.002-.126.024.054.02-.156 0-.021-.024.01-.027-.313-.006-.675.025-.57.025-.852 0-.026-.022.064-.027-.425-.017-1.555.016.004.02.067.003.078.097-.455.064.867.01-.443.051-.489.053-.538 0-.045-.005-.813-.007-.857-.014-.378-.042-.046-.047-.12-.004-.064.033-.987-.052-1.204.078-.442.071.256.083 1 .016.107.031-.709.031-.752 0-1.053-.064-.47-.105-.7-.022-.12.023-.55-.035-.154-.006-.954.027-.379.032-.438.008-.093-.01-.428-.007-.47.003-.061.023.152.03-.09 0-.044-.033-.429-.05.073.005-.673-.024-.618.035-.846-.112-.463.066-.336.072-.518.017-.484-.07-.346-.075-.37-.028-.177.003-1.52-.01-1.853.063.131 0 1.065.013 1.274.04.696.032-.98.111-.476l-.066-.635c.051-.388.074.162.055-.882h-.015c-.012.123.016.705-.013.555a7.316 7.316 0 0 1-.029-.555h-.011c0 .148 0 .331-.013.28a2.132 2.132 0 0 1-.016-.28c-.161.018-1.349.023-1.059.054-.43.018.06-.05-.263-.032-.11.007-.215.075-.794.04-.17-.01.023-.027-.008-.033-.016-.003-.536-.037-.1-.042.667-.009.063.052.418.053.044 0 .718-.038.678-.047-.011 0-.205.008-.24.005-.125-.013-.065-.035-.082-.036-.059-.003-1.125.034-1.28.002-.04-.01 1.692-.034 1.767-.029.043.004.026.063.07.07.024.002.727-.02.819-.015l.061.004c-.02-.003-.013-.005.013-.007l-.002-.067c-.638.006-1.42.011-1.67-.015zM8.715 37.896c-.153.11-.3.227-.442.352l.005.043c.138-.139.285-.27.437-.395zm-1.024.37c.054-.276-.062-.522-.039-.099.001.02.036.11.039.098zM9.2 37.25c-.015.017-.547.382-.568.408-.288.202.35-.305.569-.408zm-1.171-.628c-.031.326.002.998.014.826.004-.077.01-.768-.014-.826zm2.944-.247c-.87.256-.075.035-.045.056.115.045-1.17.276-1.552.55-.054.029.37-.152.232-.074-.463.22-1.87 1.068-.4.108v.001c.404-.214.166-.057.185-.068.885-.392.645-.303.781-.372.306-.115.271-.052.798-.201zm-2.094.512c.317-.177-.7.501-.368.244.014-.016.354-.24.368-.244zm32.338-1.375c-.011.122 0 1.38.032 1.188.011-.07-.017-.791-.015-.825.003-.049.038.18.031-.204-.012.02-.044-.198-.048-.159zm-33.322.185c-.01.115.002 1.319.025.833.001-.04-.01-.887-.025-.833zm2.996.624c.032-.01-.53.202-.7.223-.137.003.59-.218.7-.223zm-2.875-2.616c-.117-.48 0 1.326-.099 1.545.012-1.962-.097 1.296.05-.073-.053 1.127.019.37.038.543.02.186-.003.822.033.793v-.001l-.007-1.171c-.078.381-.054-.417.01-.687l-.048-.334c.097-.183-.058-.255.023-.615zm33.485 2.394c.002-.011.028.01.03.023.024.33-.058.262-.03-.023zm-35.433-.64c.024-.508.05.83.044.852a6.637 6.637 0 0 1-.044-.852zm2.118-1.847c.025.166.003 2.327.003 2.675-.045-.31-.01-.562-.013-.98 0-.111-.02-.084-.02-.095-.001-.195.021-.05.021-.17 0-.08-.026-1.658.009-1.43zm23.23 2.372c.196-.03 1.065.008.91.02-.044.004-.982-.003-.91-.02zm9.929-.364c-.015-.105-.039.194-.031.322.002.035.05-.187.031-.322zm-.006-.703c-.017-.236-.066.307-.027.556.02.128.03-.516.027-.556zm.241-.383c-.003.142.001.674-.01.69-.017.018-.033-.644.01-.69zm.02-.214c.01-.118.036.307.04.265.006-.089.009-.159.01-.215.007.378.011.77.006.809-.028.177-.016-.354-.018-.365-.004-.023-.1.316-.037-.494zm-35.288.18c0 .21 0 .506-.023.561.004-.14.006-.559.023-.562zm34.911-.029c-.045.437.038.534.038.206 0-.128-.031-.268-.038-.206zM6.096 32.576c.034-.44.017 1.569.01 1.636a.634.634 0 0 1-.008.062c.01.074.012.454-.015.5.002-.115 0-.427.003-.463.002-.016.002-.028.004-.036-.024-.138 0-1.61.006-1.7zm35.2 1.375c-.026-.118-.024.085-.034.157-.06.439.015.231.034-.157zM7.78 33.506c.004.2-.015.738.006.817.004-.184.015-.726-.006-.817zm33.826.411c.013-.561.031-.148.043.35-.01-.158-.048-.162-.043-.35zm-33.378-.505c.053.233.018 1.31-.009.573-.002-.07.02-.368.009-.573zm33.19.288c-.024.027.006.601.017.48.008-.077-.002-.492-.017-.48zm-33.57.21c.028-.285-.054-.354-.03-.025.001.013.029.035.03.025zm33.725-1.243c.025.162.014.699.005.933-.03-.163-.009-.668-.005-.933zm-.326-.27c-.016-.044-.009.156-.015.294v-.001a7.19 7.19 0 0 0 .008.864l.007-1.157zm-33.267 1.04c.03-.396-.065-.208-.04.084.002.015.038-.067.04-.085zm.18-2.643a94.692 94.692 0 0 0-.01 2.54c.003.03.028.049.03.035.006-.11-.01-2.27-.02-2.575zm-1.884 1.813c.008.562.035.041.026.603-.03-.135-.033-.223-.026-.603zm35.136-1.122c-.01.07-.016 1.956.015.885.002-.064.015-1.093-.015-.885zm-33.063.05c.034-.034.017.839.023 1.065-.026-.195-.019-.748-.023-1.065zm-2.238.355c.001.025 0 .438-.002.46-.029.347-.022-.85.002-.46zm1.766.416c.033-.187-.046-.4-.048-.098 0 .09.044.117.048.098zm33.465-.761c-.014.217.012.767.026.6.008-.103-.01-.85-.026-.6zm-2.265-.136c.001.127-.01.691.001.699.017.007.028-.635-.001-.7zm-30.846-.13c-.004-2.614-.036-1.038-.02.063.002-.058.02.004.02-.063zm33.385-1.6c.018.013.006.598.01.744.005.186.035-.038.028.272-.004.194-.057.087-.06.127-.002.035.029.717-.026.449-.016-.077-.008-.573-.001-.687.001-.02.043.064.04-.16-.003-.179-.046.09-.039-.26.007-.353.038.113.04.088.003-.041-.016-.582.008-.573zm-35.348.828c.006-.198.056.036.03.255-.009.067-.033-.144-.03-.255zm1.987-1.378c-.058.47.052 1.887.033.959 0-.016-.033.159-.029-.198 0-.03.037-.086.024-.538a1.45 1.45 0 0 0-.028-.223zm-2.122.103.015.303c-.003.235-.051.277-.053.244-.033-.52.022-.224.03-.208.005-.04-.023-.427.008-.34zm2.093-.357c-.007.113-.012 1.226.005.816.002-.036.012-.803-.005-.816zm-.19.19c.003.18-.016.673.005.701-.003-.179.016-.672-.005-.7zm33.473-.463c.008-.303.04-.006.028.195-.001.017-.036.07-.028-.195zm-.035-1.273c0-.052-.01-1.215.027-.77.007.075-.008 1.748-.012 1.966-.04.085-.002-.631-.006-.805-.001-.03-.034-.05-.037-.22 0-.064.028-.149.028-.17zM6.14 26.911c.018-.292.024.392.016.594-.017-.003-.018-.552-.016-.594zm2.131-.676c-.017.045-.028.975-.026 1.024.028.446.033-.953.026-1.024zm10.907-2.172c-.026-1.17.045-.953.022 0l.103 2.654 1.983-1.611.104-.074c.016.02.013.012-.05.062l-.04.03-2.019 1.64-.103-2.701zM8.383 25.747c.02-.24.037.492.015.709-.031.105-.017-.677-.015-.709zm-2.158-.077c-.002.447.054.353.028.637-.005.047-.121.194-.077-.297.008-.087.036.258.05-.34zm13.155-1.798c.003.043.002.12.003.19l.088 2.284 1.706-1.386c.053-.04.1-.08.109-.098-.027.022-.073.054-.119.085l-1.682 1.367-.086-2.251c.004-.104.006-.209-.018-.191zm22.21 1.015c.024.113.016.47.015.71-.025-.112-.017-.47-.015-.71zm-.03-.14c.02.014.023.525.017.594-.01.103-.025-.432-.016-.594zm-35.253.093c-.035.106 0 .622.012.474.002-.017.012-.546-.012-.474zm34.987-.316c.02-.15.04.55.015.71-.03.195-.018-.674-.015-.71zm-34.986-.867c.011-.161.022-4.816-.029-1.69-.001.097.023-.036.019.362 0 .026-.02.04-.02.12-.003.188-.015 1.185 0 1.385-.003.002-.006.015-.01.042-.027.246.055 1.005.064.866a6.46 6.46 0 0 0-.043-.883c.005-.023.011-.087.02-.203v.001zm-.099.17c.001.32-.006.623-.016.916-.019-.061.002-.878.016-.915zm26.63.233v.003l.023-.013v-.002l-.022.012zm8.489-2.763c-.024-.058-.016.547-.018.565-.003.026-.068.12-.07.176-.005.094-.006 1.7-.022 1.958.101-.691.023-.62.023-.68.002-.13.029-.43.024-.675l.035.84c.007-.22.044-2.135.028-2.184zm-18.19 2.44c.046.011-.269.229-.298.24-.115.045.278-.216.298-.24zm-.089.015c-.112.04.348-.281.154-.106a3.94 3.94 0 0 1-.154.106zm11.214-.405.002.002.04-.02c0-.002 0-.004.004-.004l-.046.022zm-10.392-.401c-.01.002-.16.101-.15.114.015.014.18-.12.15-.114zm-4.484-.115c-.035.16.03.15.03.033-.001-.042-.029-.038-.03-.033zm-.204-.353c.025.046.017.19.015.289-.017-.02-.01-.219-.015-.29zm.2-.122c.023-.072-.029-.176-.048-.11-.003.066.046.117.049.11zm-.19-.538c.038-.025.01.277.014.383-.038.024-.01-.278-.014-.383zM28.9 5.366c-.064 0-.32.095.477.053.064.034-.315.012-.492.021-.026.002-.132.058-.357.023-.054-.009.534-.173-.983-.054-.048.004.12.024.073.028-.034.003-.42-.005-.462-.002-.044.003.142.026.091.03-.267.023-.617-.066-.067-.06l-.553-.033c.197.068-.288.019-.543.02-1.633.014-.54.058-.82.08-.452.037-.108-.078-.777-.043-.062.003.747.052-.835.024l.7-.005c-.133-.065-.838.004-.896.005-.622.01-.203-.015-1.125.019-.083.003-.262-.013-.438-.005-.73.033.964.02 1.01.047.004.009-.902.007-1.452.005.016.116.018.3.014.424-.03.002-.021-.282-.023-.424l-.024-.001c-.006.185-.01.346-.008.407.01.202.069.382.07.426-.001.143-.03.025-.042.056-.01.032.046.441.043.464-.012.08-.048 0-.05.008-.02.1.007.651-.002.805.023-.004.025-.315.062-.121.043.225-.058.239-.063.244l.004 3.102c.053-.016.012-.687.019-.704.042-.09.042 1.05.023 1.191l.034-.319c.062.182-.018.584.009.847.009.085.033-.078.034-.075.024.096.005.248-.027.134.031.233-.002.2-.005.377 0 .01.024-.067.035.075.004.066.005.419.026.467.01.02.106-.16.023-.183.04-.383-.037-.122-.036-.271 0-.023.047.03.025-.347.084.073.021.505.032.58.02.151.064-.479-.002-.595.066.054.009-.044.011-.185.003-.153.023-.087.023-.17 0-.227-.046-.133-.004-.32-.128.181-.017-.323.017-.47l.02.718.02-.04c-.001.062-.003.125-.003.188l-.02-.03c.042.323-.004.403-.005.43-.006.341-.006.736-.006 1.08 0 .052.042.018.009.394-.01.12-.043.007-.038.143.089.17.018.168.017.219 0 .143.022.232.023.247.003.18 0 .443.003.64.003-.007.027-.09.02.03-.004.048-.119.45-.081.803l.023-.277c-.011.108.018.864.05.681.018-.113-.056-.39.015-.422-.021.252.012 1.644-.005 1.753-.003.012-.026-.077-.03-.057-.002.016.004.335-.005.377-.005.024-.02-.113-.028-.105-.006.01-.016.409.013.432-.012-.098 0-.373.024-.229.003.02-.017.115-.013.137.036.209.028-.416.028-.512.038.392-.007 1 .017 1.453-.024.183-.037-.272-.057-.064-.04.421.03.127.037.127.024.107-.107.472-.007.472-.015.157-.028.106-.015.326l.022-.086c.058.245-.09.762-.1.723-.03-.104.016-.371.016-.396-.002-.035-.104-.129-.013-.502-.069-.153-.046.591-.093.252.008.229-.04 1.168-.01 1.305.004.016.072-.058.037.174-.017.11-.017-.155-.032-.105-.018.06-.024.408-.025.835.048-.04.116-.088.152-.107l-.003-.02c-.003-.025.017-.212.014-.28a.82.82 0 0 1 .01.257c.048-.053.246-.205.295-.218-.085.076-.201.148-.297.22a.526.526 0 0 1-.004.034l.005-.002s-.004.001-.005.003c-.005.03-.008.041-.014.01-.04.036-.099.08-.153.118v.038c.11-.082.213-.152.304-.186-.06-.056.416-.262.6-.399.144-.107.32-.307.106-.187.251-.184.504-.392.734-.57.038-.03-.001.029.063-.022.006-.005 0-.03.055-.075.453-.366.257-.156.353-.209.054-.03.092-.053.12-.072-.27.207-.577.45-.66.513.103-.011.596-.46.76-.565.005-.002.004.034.01.03.06-.043.423-.33.326-.3a4.865 4.865 0 0 0-.396.292c.05-.047-.01-.043-.002-.051.108-.1.415-.29.52-.363.023-.017.008-.033.012-.036.095-.066.094.01.152-.11.211-.066-.307.245-.245.258.055.004 1.104-.808 1.069-.853.007.002.027-.003.063-.019.078-.034.373-.263.418-.31.007-.009-.03-.051-.02-.06.029-.022.418-.26.533-.388l-.235.147c.444-.333.365-.296.207-.199l-.022.016c-.122.075-.274.174-.282.174-.011-.004.258-.216.448-.35l.727-.49.593.49c.117.094.192.165.122.139-.01-.004-.08-.062-.144-.11l-.574-.476-.703.476c-.081.06-.146.111-.038.056a.555.555 0 0 0 .053-.037l.687-.465.56.465c.076.057.21.15.217.16.035.046-.119-.046-.248-.118l-.532-.44-.652.44c-.078.078-.142.146-.107.14a.892.892 0 0 1 .123-.12l.634-.428.517.429c.092.062.184.138.275.2.064.042.096.031.105.036.119.08.037.056.076.084.021.015.283.133.188.17.78.505.243.103-.214-.234.162.083.435.306.566.395.047.032.037-.011.117.041.165.109.898.7 1.09.853-.127-.082-.11-.03-.017.038.094.067.042-.025.063-.015.024.012.446.354.522.404-.338-.234-.282-.153-.006.058l-.138-.069c.171.113.486.41.59.468.015.01-.021-.052-.013-.047.09.053.352.284.373.289.016.002-.09-.105-.04-.08.011.004.106.12.225.199.044.029.035-.01.046-.004.095.057.018.051.185.168.122.085.235.119.391.253-.508-.447-.067-.09.168.067.038.025.034-.034.236.145-.35-.191-.167-.058.02.075 0-.067.002-.139 0-.167-.005-.076-.035.015-.028-.11.004-.08.056-.036.06-.053.001-.016-.029-.291.026-.182.015.033.008.234.001.28-.002.007-.043-.026-.04.065.003.072.045-.037.038.105-.007.144-.036-.047-.039-.035-.001.008.002.06.003.113.078.055.152.108.186.134.004.004-.003.02.016.045a.436.436 0 0 0 .012-.095c-.004-.118-.056-.08-.058-.092-.003-.017 0-.16-.007-.208-.008-.056-.028-.028-.036-.118-.02-.223.032-.218.036-.24.04-.268-.036-.152-.042-.211-.005-.059.023-.829.005-.991l.032.198c.032-.118-.021-.243.038-.246-.095-.024-.032-.267-.034-.341 0-.03-.017-.028-.018-.064-.003-.142.01-.46.002-.537-.036-.332-.096.514-.1.583.002-.134-.019-.89-.065-.542-.007.054.035.149.037.179.01.202-.026.047-.03.06-.006.026.03.16.026.197-.001.011-.037-.064-.037.131-.034-.096-.006-.645-.014-.717-.004-.023-.074.132-.005-.334l-.02.017-.009-.784c.016.029.047.174.04-.01-.004-.106-.038-.028-.039-.038-.01-.095.002-1.784-.002-2.112-.001-.11-.028-.42-.029-.445-.003-.142.016-.643.012-.743-.003-.063-.032-.004-.03-.06.001-.05.028.001.03-.013.01-.127-.026-1.097 0-1.327-.008.14.047.842.067.828a.976.976 0 0 0 .013-.208c.024-.058-.05-.258-.035-.367.002-.012.044.036.05-.157.003-.067-.028-.242.007-.418-.017-.254.036-1.593-.008-1.685-.003.004-.018.183-.036.058-.024-.169.057-.017.064-.214a19.24 19.24 0 0 0-.012-.597c-.046-.166-.064.313-.07.307a3.834 3.834 0 0 1-.017-.432c.003-.015.063.31.04-.08l-.021.133c-.014-.183.028-.201.03-.246.008-.138-.055-.288.023-.509.02-.058.044.039.047.031.028-.07-.047-.16.009-.266.004-.006.038.237.038-.192l-.017.089a7.037 7.037 0 0 1-.016-.556c.008-.171.047-.022.042-.194-.052.11-.059-.414-.014-.384-.056-.073-.013-.517-.011-.727 0-.131-.025-.4-.022-.443.003-.05.042-.036.05-.128.003-.029-.024-.302.016-.542.007-.046.073-.145.09-.058.027.149-.026.43.013.426.041-.005.017-.381.022-.484.025-.47.07-.2.083-.211.032-.032.031-.29.034-.3.013-.043.039.138.059.141.025.003.072-.244.08-.189.013.081-.026.31-.024.324.025.187.085-.07.114-.141.009-.022.024.064.027.046.04-.272-.084-.057-.076-.238 0-.012.004-.022.005-.03-.224-.01-.454-.041-.334-.049.02-.001.194.005.381.01.001-.026.008-.052.01-.075-.454 0-1.117-.002-1.164 0-.014.002.192.034-.09.04-.049.001-.02-.037-.86-.02-1.015.02.703.046.283.086-.652-.056-.631-.001-.808-.005-.061-.002-.517-.049-1.011-.046l1.065-.023c-.349-.009-1.027.001-1.315-.008-.14-.005-.025-.043-.33-.042zm-3.675 16.52c-.06.035-.238.181-.145.131.015-.009.158-.121.145-.13zm1.384-.822c-.142.133-.029.108-.21.226l.033-.048c-.236.197-.538.386-.82.598-.072.054.033.022-.067.084-.08.05-.186.085-.15.048.01-.01.177-.107.252-.166.222-.176.146-.159.159-.17.014-.011.17-.1.247-.16.195-.148.272-.232.556-.412zm5.902.82c-.042-.04-.146-.087-.097-.025a.183.183 0 0 0 .097.033v-.008zm-.16-.036c-.051-.054-.343-.277-.233-.167.012.011.223.18.232.167zm-10.745-.685c.021-.667.01-.045.019.119.003.061.026.01.03.066.027.445-.115.34-.067-.239l.018.054zm10.34.309c.048.067.244.174.204.132-.029-.03-.252-.2-.204-.132zm-.13-.075c-.143-.067.117.118.207.184.012-.014-.197-.18-.207-.184zM8.423 14.09c.004-.094.108-.047.068.344-.005.051-.032-.188-.039-.147-.003.025-.017.875-.015.916.003.042.035-.007.039.035.004.05-.024.572-.025.847 0 .516.027.573.027.616 0 .123-.02.332-.02.582 0 1.263.025 3.195-.034 4.196.024-.891-.002-1.74-.01-2.627.058.26-.043-1.304.023-.39-.014-.42-.027-4.062-.014-4.371v-.001zm10.731 7.004c.029-.14.02.346-.003.189a4.755 4.755 0 0 1 .003-.189zm15.905-.127c-.017-.005-.028.255 0 .283-.001-.052.01-.277 0-.283zm-2.349-.108c-.001.025-.014.445.015.361.01-.028.016-.797-.015-.361zm.06.092c-.009.041.01.347.026.244.013-.088-.012-.311-.026-.244zm-1.677-.2c.09.027.517.375.439.352-.064-.02-.38-.279-.44-.352zm-9.52-.025c.02.023.014.22.016.29-.025-.046-.017-.192-.015-.29zm5.778.033c-.097-.029.295.255.352.247a5.417 5.417 0 0 0-.352-.247zm14.106-.17c.028-.286.022.675-.002.346-.001-.012.001-.334.002-.346zm-14.255.063c-.02.017-.036.031-.047.043.103.08.222.194.268.219.251.137-.3-.265-.088-.206l-.133-.056zm-.457.106c.016-.024-.16.066-.2.108-.089.097.165-.06.2-.108zm-5.087-.182c.004-.03.048-.146.057-.015-.053-.004-.074.2-.025.299-.044.063-.05-.146-.032-.284zm11.233.272c.015.018.008-.063.015-.12l.008-.155a.882.882 0 0 0-.017-.196l-.006.471zm-26.725-.662c-.014-.043-.022.553.002.581-.001-.133.009-.547-.002-.581zm26.393.173c.03.066.01.271.005.38-.024-.067-.014-.285-.005-.38zm-5.471.245-.033.024.014.007c.013-.01.023-.02.032-.025l-.013-.006zm-7.74-.202c-.03-.01-.014.323.012.192a.683.683 0 0 0-.012-.192zm-13.106-.384c-.022-.047-.016.544-.013.568.017.103.022-.414.013-.568zm24.316.281c.048.042.199.141.178.15-.082-.056-.169-.107-.178-.15zm-.13.122c-.046-.045-.046-.076-.073-.09-.01-.004-.025.014-.057-.002l.13.092zm-11.268-.415c.025.057.014.28.014.384-.03-.068-.014-.26-.014-.384zm13.328.08c.01.064.048.066.043.143-.013.229-.031.06-.043-.143zm.214.035c-.008.032.002.202.017.195.024-.012-.006-.243-.017-.195zm8.645-.319c-.025.156-.023.593.002.463.003-.02.017-.4-.002-.463zm-8.473.349c.06-.179-.015-.094-.034.064.026.048.025-.035.034-.064zm-6.472-.032h.105a.565.565 0 0 0-.038-.043h-.078c.008.017.013.034.01.043zm6.078-.404c.027-.073.015.144.017.149.005.008.1-.128.036.2-.009.048-.034-.122-.037-.108a.539.539 0 0 0-.01.089 2.957 2.957 0 0 1-.006-.33zm-4.766.319h.037c.03-.035.002-.024-.037 0zm5.198-.031c.045-.178-.037-.218-.038-.084 0 .052.032.11.038.084zm-.348-.306c.017-.01.034.26-.009.28.003-.058-.002-.269.009-.28zm.26-.103c-.02-.05-.031.211-.028.228.016.096.067-.126.028-.228zm-3.107.194c-.091-.085-.285-.208-.212-.127.017.017.197.132.212.127zm3.17-.693c-.012.03.016.316.014.335-.003.02-.038-.073-.031.084.012-.009.045.08.049.065.01-.05-.002-.563-.033-.484zm-.066.308c-.002-.012-.05.077-.03.132.014.043.038-.08.03-.132zm-3.495.108c-.05-.048-.236-.177-.166-.104.03.032.144.108.166.104zm-7.708-.476c-.003.023-.006.58.024.388.009-.059.005-.567-.024-.388zm3.534.306c-.335.2 1.182-.919.343-.217l.101-.122c-.116.075-.25.181-.241.2-.005-.001-.012 0-.023.004s-.124.101-.18.135zm-5.903-.632c.02.012.002.213.005.285-.02-.011-.002-.212-.005-.285zm22.128.185c.015-.123-.015-.467-.037-.263a.834.834 0 0 0 .037.263zm-8.874-.45c-.023.008 0 .347-.01.422.041.057.004-.224.014-.28.003-.016.096.243.025-.134-.01.2-.02-.01-.029-.009zm-6.515.156c.038.017-.213.176-.261.208.008-.027.231-.219.26-.208zm-4.31-.162c-.004.063-.005.223.01.24.02.02.013-.211-.01-.24zm6.275-.053c-.096-.108.289.191.147.116a4.913 4.913 0 0 1-.147-.116zm13.357.104c.013-.179.017-1.08-.005-.701-.002.032-.011.706.005.7zm-8.8-.116c-.003-.165-.067-.046-.041.057.002.007.04-.046.04-.057zm-10.977-.29c0-.024.044-.518-.028-.082-.004.023.021.331.046.204.018-.088-.018-.102-.018-.123zm19.836-.941c-.025.194.006.736.016.595.007-.099.009-.79-.016-.595zm-19.73-.233c-.005.034-.027.76.02.716-.005-.066.018-.893-.02-.716zm19.711-.13c-.032-.381-.025.402-.023.677.018.015.026-.648.023-.677zm-19.648.624c.015-.055-.016-.186-.038-.107-.003.07.035.119.038.107zm-.157-1.887a49.177 49.177 0 0 0-.016 1.477c0 .103.018.053.02.097 0 .035-.036-.006-.023.112.007.055.044-.116.051-.078.004.026-.01.15.002.19a.504.504 0 0 0 .037-.154c-.002-.052-.029-.001-.03-.058 0-.19.02-.359.02-.537 0-.016-.02.108-.02-.03 0-.021.029-.148.025-.312-.09-.363-.002-.629-.034-1.09a6.5 6.5 0 0 0-.032.383zm10.937 1.403c-.02.09.002.255.016.194.003-.014-.001-.2-.016-.194zM21.68 16.85c-.002-.058-.046-.15-.05-.041.012.021.052.165.05.04zm-15.487-.366c-.011.201.02.499.028.196.008-.265-.026-.213-.028-.196zm15.49.153c.001-.135.003-.47-.035-.24-.007.046-.003.164-.005.227.036-.2.002.022.04.013zm-2.298-.444c-.007.08-.005.422.015.289.003-.023.004-.282-.015-.29zm2.247.19c.021.01.01-.22-.012-.24 0 .046.006.237.012.24zm19.802-1.978c.032.217.01 1.568-.019 1.38-.022-.153-.004-1.155.019-1.38zm-8.967.754c.01.086-.01.563.006.57.017.005.016-.531-.006-.57zm-13.135-2.494c-.023.364.002.71.01 1.071-.058-.106.044.531-.023.159.014.172.027 1.655.014 1.781l-.006.012c-.022.02-.097-.012-.062-.152.006-.02.033.077.039.06.004-.01.018-.355.015-.373-.003-.017-.035.003-.039-.015-.003-.022.025-.234.025-.345 0-.209-.026-.233-.027-.25 0-.05.02-.135.02-.237 0-.515-.024-1.302.034-1.71zm2.383 2.42c.023.672-.077.76-.037.144 0-.012.027-.185.037-.145zm13.369.105c.03.08-.008.433-.02.372-.003-.015.003-.401.02-.372zm-29.044.353c-.023-1.651.078-1.865.038-.355-.001.03-.028.454-.038.355zm.137-5.469a2.752 2.752 0 0 0-.037.377c.002.128.03.004.03.144 0 .466-.02.88-.019 1.318 0 .04.02-.266.02.07 0 .052-.03.366-.025.769.089.89 0 1.543.033 2.673.009-.043.032-.885.032-.937.015-.944.016-2.636.017-3.625 0-.254-.02-.131-.02-.24 0-.086.035.016.022-.273-.006-.137-.044.284-.05.191-.005-.06.009-.369-.003-.467zm15.357 4.547c-.007.109.027.086.028.08.011-.083-.02-.203-.028-.08zm10.974-.89c-.004.01-.01.015-.02.016.011-.025.017-.027.02-.016zm-10.98-.702c-.018-.041-.023.169-.013.232.022.019.015-.226.013-.232zm19.945-.339c-.004.155.007.6-.013.57-.004-.242-.015-.488.013-.57zm-19.885.266c.001.054-.008.223.002.237.014.013.022-.226-.002-.237zm-15.465-.6c-.022-.031-.01.54.012.59 0-.114-.006-.574-.012-.59zm15.301-1.021c-.011.073.017.308.043.36a.362.362 0 0 0-.02.082c-.01.064-.02 1.964.03.689.002-.04-.023.014-.018-.148 0-.01.019-.016.02-.048.002-.076.015-.484 0-.565.003-.001.006-.007.009-.018.027-.1-.055-.407-.064-.352zm-13.069.778c-.003.053-.003.69.015.709.007-.197.005-1.035-.015-.709zm32.944.5c.007-.157.034-.202.028-.275-.003-.025-.027-.03-.034-.115l.006.39zm-35.227-.881c-.001.33-.003 1.153.035.587.007-.11.003-.4.005-.554-.036.49-.002-.054-.04-.033zm26.368.597c.017-.15.087-.034.058.09-.004.014-.081.111-.058-.09zm8.842-.844.01.633c.003-.237.027-.683-.01-.633zm-8.815.307c.021.017.011.172.006.238-.02-.002-.004-.173-.006-.238zm-10.904-.457c.019.026-.002.36-.016.373-.001-.13.007-.254.016-.373zM6.077 11.21c.001.141.045.369.05.1-.013-.053-.053-.406-.05-.1zm15.361-.11c-.001.008-.012.223.012.194.035-.043.001-.252-.012-.193zm-15.34-1.79c.006.155-.018 2.193.02 1.758.005-.07.027-1.866-.02-1.758zm15.406 1.386c.005-.019.121-.079.077.121-.007.036-.036-.105-.05.14.003-.183-.053-.145-.027-.26zm-2.145-.06c.031-.042.017.27.015.288-.019.098-.037-.2-.015-.288zm13.114.113c.001.007 0 .137-.002.142-.028.116-.022-.275.002-.142zm-12.96-.44c-.029-.182-.034.385-.027.417.017-.019.029-.399.026-.418zm2.088-.101c.017.001.019.225.016.243-.018.118-.024-.161-.016-.243zm19.779.077c.013-.305-.006-.866-.026-.602-.005.058.012.588.026.602zm-35.325-.43c-.014.135.016.46.038.261.003-.174-.035-.29-.038-.26zm13.472-.538c-.001.015-.011.328.006.333.006-.045.011-.5-.006-.333zm.19-.03c.003.073-.015.273.005.285-.003-.073.015-.27-.005-.285zm-.213.259c.057-.192-.053-.769-.034-.39 0 .006.033-.065.03.08-.002.013-.038.036-.025.22a.273.273 0 0 0 .028.09zm2.16-.264c.033.215-.024.086-.03.084-.006.015.023.174-.008.139l-.015-.124c.003-.096.05-.113.052-.1zm10.832-.041c.017-.002.018.229.016.241-.017.078-.038-.153-.016-.241zm-12.95-.602c.001.033-.019.002-.019.031.004 1.07.037.418.02-.031zm21.82.472c.009-.167.001-.726-.016-.479-.007.107 0 .443.017.48zm-8.907-.737.03.674c-.033-.075-.009-.263-.018-.373-.013-.153-.137-.413-.012-.301zm-10.998.506c.008-.026.032.059.029.104-.006.081-.056-.014-.03-.104zm11.203-.246c-.031.038-.007.22-.015.325.035-.048.013-.217.015-.325zm-.05.03c-.003.006 0 .236.016.241.001-.101.011-.303-.017-.241zm-13.035-.846c-.006.047.01.925.02 1.05.015-.122.017-.994.01-1.036-.003-.011-.03-.02-.03-.014zm13.137.69c-.025.031-.019.242-.015.327.031-.038.007-.221.015-.327zm-.32.035c.004.035-.004.174-.003.235-.036-.07-.01-.36.004-.235zM6.325 8.237c-.003-.069.194-.958.077-.6-.081.25-.05.3-.063.36-.04.064-.224 1.516-.014.24zm13.062-.104c.027.08.02.304.024.434-.035.014-.018-.34-.024-.434zm2.263.101c.029-.14.022.347-.002.188l.002-.188zm10.993-.129c-.024.065.006.335.015.289.003-.019-.002-.322-.015-.289zm-12.761.148c-.032.076.046.163.048.04 0-.037-.044-.048-.048-.04zm1.79-.818-.003.014c.023.055 0 .659-.007.694-.034.18-.016-.644-.01-.668a.125.125 0 0 1 .008-.025c-.01-.03-.012-.185.015-.203-.002.046 0 .174-.003.188zm-.215.449c.03.055.034.091.026.246-.008-.23-.034-.017-.026-.246zm17.728-.815c-.035-.232-.028.955.013 1.057a32.893 32.893 0 0 0-.013-1.057zM19.53 7.8c-.053-.095-.017-.533.009-.233.002.029-.02.15-.009.233zm.443-.371c-.005.074-.016.296.005.333-.004-.081.016-.302-.005-.333zm-.406-.8c.046.127.01.23.013.4 0 .044.02.034.02.038.001.08-.02.02-.021.07 0 .036.026.675-.009.582-.024-.069-.003-.948-.003-1.09zm.159.386c.078-.156.053.169-.01.28l.047.135c-.096.075.058.105-.022.251.116.196 0-.54.098-.63-.012.8.098-.528-.05.03.054-.46-.019-.15-.038-.221-.02-.077.003-.334-.033-.323l.008.478zM9.249 6.92c0 .027-.221.32-.28.443-.01-.03.198-.338.28-.443zm12.218.21c-.003.056-.006.228-.022.229 0-.086 0-.208.022-.23zM32.83 6.84c-.01-.056-.047.155-.023.182.015.014.03-.145.023-.182zm-11.186-.22c.008-.003.057.238.044.346-.024.207-.049-.338-.044-.347zm13.119-.17c-.024-.154.083-.592.093-.305l-.002.169c-.006.15-.029.06-.03.065-.034.324.018.24.025.29.013.109-.05.092-.024.276-.039-.304-.023-.027-.045-.019-.093.034.043-.405.023-.557-.002-.02-.032.135-.04.08zM6.789 6.267c.008-.071-.294.571-.293.666.068-.18.277-.611.293-.666zm28.085.412c.035-.043.027.206.021.243-.002.014-.067-.186-.021-.243zm-15.037-.148c-.002.015.009.36.024.34.01-.047-.002-.538-.024-.34zm-.123-.374c-.005.034-.01.313.014.337.03-.133-.003-.407-.014-.337zm.125-.644c-.01.141-.023.282-.028.389-.003.06.015.12.013.171-.004.083-.029.012-.03.015-.015.11.043.251.05.018l.025.246c.032-.306-.046-.284-.043-.371.005-.122.069-.112.09-.088-.023-.055-.032-.212-.038-.381h-.04zm14.8.518c.018-.121.025.16.017.242-.014.002-.018-.226-.016-.242zm.497.073c0 .008-.001.13-.003.14-.028.116-.022-.275.003-.14zm4.077-.522c.005.376.103.773.087.305-.001-.05-.073-.348-.087-.305zm-19.223.005c.02.394-.036.246-.054.316-.04.149.093.096.098.078.02-.077-.031-.34-.044-.394zm14.048-.108c.022.133.045.391.056.513.026-.443-.031-.363-.036-.513h-.02zm-.498.368c.052.067.034-.066.044-.109.01-.04.04-.065.025-.151l-.07.26zm-14.06-.1c.01-.027.038.024.039.106-.016.03-.061-.04-.038-.105zm-8.113-.129c-.112.054-.444.142-.645.238.08-.07.46-.2.645-.238zm8.381-.105c.006.06.006.187.001.23-.016.132-.017-.165-.016-.23h-.028c0 .12.002.295.003.31.002.014.053-.056.07.024a2.691 2.691 0 0 1-.017-.334h-.013zm14.537-.032c0 .097.004.183.013.2.022.045-.002-.165.021-.18.016-.01.044.54.054.242.003-.072-.006-.166-.012-.26l-.076-.002zm-1.047.017a.436.436 0 0 1-.07.003c.027.14.064.314.085.302l-.015-.305zm.677-.02a.48.48 0 0 0 .058.193c.017.021-.012-.226.036.056.009-.17.016-.156.008-.248h-.102zm-.176-.002c.002.124.016.194.081.234a1.6 1.6 0 0 0 .017-.233h-.028c-.002.01-.002.022-.006.033-.01.027-.02.01-.027-.034h-.037zm.4.2c.01-.057.015-.124.017-.196h-.018c.001.04.003.102 0 .195zm-.592-.01c.02-.012.028-.1.033-.191l-.026-.001-.007.192zm.34-.076.01-.112-.011-.001v.113zm-.544-.117c-.115 0-.085.01-.093.02-.003.034-.005.062-.004.07.01.048.032-.083.046-.08.009.004.04.16.053.019.001-.008 0-.018-.002-.03zm-.226.095.002-.067h-.018l-.004-.001c.01.03.019.07.02.068zm-20.344-.032c-.346-.028.85-.02.462.004-.02 0-.443-.002-.462-.004zm12.936-.03c.07.037-.868.021-.94.013-.29-.033.864-.005.94-.013zm8.134.023.011-.052h-.011c0 .02-.002.037 0 .052zM16.88 5.492c-.044.017-.536.01-.71.015.114-.024.47-.017.71-.015zm-1.39-.008c.062.038-.681.009-.94.014-.06-.039.683-.01.94-.014zm5.929.01h.023v-.022h-.022l-.001.021zm.028 0c.166-.004.296-.009.212-.022-.012-.002-.09 0-.215 0l.003.021zM19.84 5.49l.038.001-.001-.02h-.035l-.002.019zm-.135 0h.031c.005-.014.007-.013.01 0h.015v-.02h-.056v.02zm-.152-.02v.019l.116.001v-.02h-.116zm-.05.019h.026V5.47h-.027v.018zM8.22 4.542a4.357 4.357 0 0 0-.319.292c-.344.333-.709.857-.466.568.02-.023.25-.311.487-.547.278-.282.55-.502.298-.313zm17.292.922c-.277-.036 1.098-.015.46.009-.03 0-.446-.007-.46-.009zm8.013-.08c.014.074.031-.065.029.081h.027l.002-.071c0-.005.008-.01-.055-.01h-.003zm-.273 0-.001.078.091.002-.004-.08h-.086zm-.092.077h.077l-.004-.077h-.088l.015.077zm.607-.072c-.011 0-.02.002-.028.003v.069l.036-.001-.008-.071zm.007 0v.017c.002.01.06-.04.04.053h.023l-.003-.075a1.375 1.375 0 0 0-.06.005zm.103-.008-.033.002-.001.076.016-.001.018-.077zm.008 0v.074l.014-.002c.005-.044.006-.034.012 0 .06-.005.09-.01.104-.015-.001-.012 0-.026-.002-.04.005 0 .01.013.015.035.001-.004-.001-.006.01-.007h.024l.003-.047c-.075 0-.134 0-.18.002zm-22.181-.015a1.607 1.607 0 0 0-.354.078c-.013.023.6-.089.354-.078zm22.58.067.075.002-.002-.05-.073-.002v.05zm4.854-.066c0 .02-.003.041-.003.064h.011c0-.024-.002-.045-.003-.064h-.005zm.059.063c-.004-.008-.006-.007-.008 0h.008zm-5.098-.051c0 .017.002.034.001.048l.023.002c.005-.013.008-.018.012 0h.024v-.05h-.06zm6.178-.016.037.036.067.015-.054-.053a1.92 1.92 0 0 0-.05.002zM15.87 5.307c-.176-.022-.43.03-.27.048.164.003.289-.046.27-.048zm23.234-.003c-.297.01.14.038-.553.011.166.021.396.027.553.023v-.034zm.035-.002-.002.034h.005l-.001-.034h-.002zm-10.826.011c-.023-.004-.47-.014-.463.002.015.02.532.011.463-.002zm-11.195-.039c-.102 0-.093.028-.08.03.392.034.369-.03.08-.03zm2.507.02c-.032.004-.046.009-.033.016l.033-.001v-.014zm.036-.004-.013.019h.018V5.29h-.005zm.065 0c0 .007 0 .013.002.019h.032V5.29h-.034zm20.497.019c.08-.008.053-.01-.015-.015l.015.015zm-20.405-.02v.019h.016v-.019h-.016zm.037 0-.001.019h.018v-.019h-.017zm12.674-.01c-.168-.01-.732.001-.478.017.04.002.495-.002.478-.017zm8.914-.523c.029-.346.02.85-.003.461a29.33 29.33 0 0 1 .003-.461zm-4.82.498c-.316.023.419.05.555.032.067-.009-.415-.042-.554-.032zm2.516-1.03.063.064.002-.05-.051-.052c-.004.014-.011.026-.014.038zm-3.003-1.027c-.95-.04 3.674-.024.994.034l.378-.038c-.341-.01-.761-.005-.768.015a.24.24 0 0 0-.052-.01c-.03-.003-.393.006-.552 0zm-17.412-.069c.336.034-1.032.074-1.32.052-.018-.02 1.27-.056 1.32-.052zm6.013.047c.036-.017.623-.017.698 0-.172.01-.485-.001-.698 0zm-8.344-.04c.136-.02.356.029.323.031-.129.008-.428-.016-.323-.031zm9.064.014c.123-.015.805-.02.928 0-.285.01-.63 0-.928 0zM12.581 3.1a2.296 2.296 0 0 1-.359.019 6.95 6.95 0 0 0-.426.012c.036-.013.227-.029.426-.03h.36zm26.288.006c.05.037-.682.013-.82.01.05-.017.783-.037.82-.01zm-22.508-.072c1.446-.009.844.032.902.035.068.004.289-.01.334-.005 1.052.1-.957.034-1.534.047.559-.041 1.287-.035.298-.077zm-2.962.002c1.093-.027.834.113-.587.065l.134-.018c-.451-.006-.663-.01-.724-.012-.033 0-.03 0 0 0 .12-.003.77-.001 1.013-.006.152-.003.025-.027.163-.03zm-1.177-.028c.008.004.007.008 0 .011-.062.023-.546.037-.885.077-.094.008-.446.026-.053-.05 0 .049.607-.006.91-.047a.148.148 0 0 1 .028.009zm1.914.042c.231-.035 1.088-.006.685.014-.06.003-.52-.018-.685-.014zm1.992-.018c.063.007-.117.028-.197.028-.317 0 .028-.044.197-.028z" fill="#A98BFF"/></svg>