<svg width="48" height="48" fill="none" xmlns="http://www.w3.org/2000/svg"><g clip-path="url(#a)" fill="#B4D455"><g opacity=".2"><path d="M8.966 32.152a1.28 1.28 0 0 1-1.28-1.28v-6.831a4.48 4.48 0 1 1 0-8.1V9.109a1.28 1.28 0 0 1 1.28-1.28h7.471a4.48 4.48 0 1 1 8.099 0h7.473a1.28 1.28 0 0 1 1.28 1.28v6.832a4.482 4.482 0 1 0 0 8.1v6.831a1.28 1.28 0 0 1-1.28 1.28H8.966z"/><path d="m30.435 34.27 4.48-4.48 3.2 3.2 6.408-6.409-7.972-8.026a14.08 14.08 0 0 0-15.748-2.88l8.992 8.996-4.48 4.48 5.12 5.119z"/></g><path d="M19.913 46.324c.017.012.016.004-.112.131l-.377.374a2.341 2.341 0 0 1-1.68.685c-.485-.014-.691-.123-.68-.117.011-.006.241.089.68.093a2.371 2.371 0 0 0 1.662-.678l.507-.488zm6.918-32.35c.681-.055 2.506.094 3.378.326.179.033 1.032.28 1.093.31.117.038-.537-.153-.244-.058.046.01.777.245 1.155.393.156.06.254.096.227.08a8.15 8.15 0 0 0-.224-.088c-.202-.077-.455-.163-.51-.184-.162-.061.085.012.515.175 1.1.355 3.163 1.649 3.28 1.771-.08-.065-.162-.129-.244-.192.242.17.479.346.71.53a15.53 15.53 0 0 0-.295-.205c.27.204.629.487.863.698.038.034-.072-.042.019.038.09.081.088.05.221.167.053.047.17.155.306.288.238.234.544.538.684.672.808.778 1.631 1.555 2.432 2.344-.846-.795-.018.03.221.252.053.049.077.011.904.828.526.52-.01.09.898.928-.648-.694.02-.042.554.476.093.089.83.816 1.16 1.134.112.109.302.257.45.402.103.099.172.184.324.332.711.688 1.408 1.368 2.113 2.064-.463-.356.305.34.335.374.155.178-.61-.565-.318-.262l1.192 1.162c.043.041.086.088.127.135-.063-.075-.106-.119-.126-.141-.008-.012-.005-.012.008-.003.069.053.326.309.485.646.169.334.219.726.212.867.006-.016.012.017.016.088.02.235-.049 1.035-.675 1.644-.576.563-1.31 1.262-1.47 1.444-.057.065.368-.321-.578.624-.102.102-.079.05-.13.105-.032.034-.18.276-.41.46-.083.066.366-.452-.676.635.347-.284-.62.697-1.286 1.357a2.352 2.352 0 0 1-1.151.628c.133-.024.265-.06.393-.107-.504.197-.762.174-.921.19a1.71 1.71 0 0 1-.193-.003 2.404 2.404 0 0 1-1.492-.702c-.143-.147-.28-.288-.398-.404-.346-.337-.378-.309-.768-.716l.266.301-.828-.826c.682.594-.136-.138-.189-.188-.083-.08.051.02-.088-.114-.014-.013-.01.023-.223-.184-.445-.433-.356-.385-.541-.568-.017-.015.026.055-.295-.256-1.026-.994.01-.011.056.03.054.048-.235-.355.608.52-.284-.293-.288-.348-.32-.381-.032-.033-.533-.523-.562-.55-.256-.236-.057-.003-.108-.047-.045-.039-.625-.66-.82-.746-.24-.337.212.12.705.593.08.06-.442-.478-.47-.506-.687-.682-.348-.265-.524-.387-.093-.065-.345-.37-.123-.077-.627-.615-.23-.262-.266-.304-.056-.065-.283-.27-.31-.3-.037-.04.107.078-.03-.067l-.03.03.035.038-.037-.037c-.259.257-.53.524-.633.636.033-.092.383-.422.62-.647l-.029-.029c-.15.134-.269.236-.153.077l-.371.456c-.285.22.058-.152-.609.54-.082.139.475-.485.38-.345-.056.082-.444.476-.449.495.002.015.346-.349.304-.281-.095.15-1.42 1.424-.446.42-.24.24-.42.337-.609.527-.028.028-.057.06-.086.093-.053.061.045-.01.12-.058.065-.04.113-.063.034.033-.076.092-.268.292-.671.687-.054.002.506-.522.526-.545.017-.023-.14.018-.16.032-.07.052-1.374 1.415-1.686 1.667.146-.077-1.003 1.012-1.115 1.144-.03.035.113-.065.08-.029-.204.23-.827.776-1.1 1.046-.305.3-.25.282-.267.298-.135.132-.04.014-.122.096-.124.123-.977.965-1.019 1.01-.011.014.147-.105-.035.083-.031.033-.034-.01-.574.545-.65.67.49-.426.24-.129-.462.387-.414.408-.532.519-.041.039-.368.304-.69.626l.682-.703c-.233.22-.67.665-.864.845-.095.087-.043-.011-.241.186-.042.042-.151.267.345-.275.06-.02-.2.212-.31.332-.016.018-.05.12-.219.244-.04.03.242-.453-.677.602-.03.033.094-.063.066-.03-.021.024-.276.266-.304.297-.027.03.109-.076.078-.04-.16.187-.445.358-.08.007l-.383.336c.17-.086-.177.198-.342.364-1.061 1.062-.32.384-.489.578-.273.314-.119.02-.537.474-.038.04.522-.45-.531.553l.456-.456c-.128.048-.55.547-.586.582-.402.406-.14.122-.726.736-.052.055-.18.161-.29.28-.46.488.645-.61.69-.624a59.801 59.801 0 0 1-1.22 1.201c-.19.155.535-.538.378-.425-.04.031-.751.737-1.348 1.324a2.346 2.346 0 0 1-1.731.669c-1.023-.098-1.285-.592-1.346-.5a2.452 2.452 0 0 0-.181-.22c-.058-.066-.125-.103-.157-.136-.592-.616-.593-.618-1.11-1.138-.114-.114-.193-.228-.235-.266-.025-.022 0 .04-.12-.071a36.402 36.402 0 0 1-1.159-1.232c-.06-.081.405.407.337.306-.271-.281-.537-.55-.807-.826a2.159 2.159 0 0 1-.312-.4c-.168-.306-.067-.157-.13-.293-.023-.034-.191-.505-.178-.853-.002-.2.025-.349.02-.33-.006.02-.03.143-.033.33-.027.409.186 1.136.623 1.553.296.308.513.539.32.359-.08-.076-.33-.382-.316-.307l-.027-.027a2.208 2.208 0 0 1 .027-3.128l2.748-2.634c-.786.8-1.71 1.66-2.55 2.479l-.18.172c-.255.24-.426.598-.379.537.1-.188.232-.366.392-.523.66-.639 1.412-1.377 2.022-1.951.02-.02-.046.07.038-.008.158-.146.64-.652.73-.728-.012.016-.249.275-.157.206.25-.19.248-.304.44-.489.15-.142 1.175-1.08 1.407-1.337.246-.274-.747.7-.688.613.662-.668 1.364-1.313 2.003-1.932-.011.007-.08.055.044-.066.246-.242.327-.29.451-.404.133-.122.592-.568.66-.623.009-.006-.07.099-.084.113-.194.2-.286.248-.304.265-.07.066-.13.139-.193.199-.104.098-.168.146-.304.277-.095.09.01.016-.082.102-.033.032-.423.345-.425.41.017.004 2.947-2.794 3.233-3.082l-.767.715c.52-.483 1.113-1.095 1.19-1.104 1.9-1.82 3.802-3.638 5.707-5.452.341-.322.17-.13.725-.668l-.448.4c.18-.168.742-.7 1.19-1.124l-.073-.076c-.025-.026-.072-.053-.375-.37-.268-.28-.303-.334-.445-.486-.119-.128-.256-.268-.292-.306-.027-.03-.033-.045-.098-.115-.206-.222-.05-.032-.243-.264l.154.157c-.242-.258-.568-.61-.246-.28-.069-.07-.132-.138-.19-.197-.161-.181-1.097-1.153-1.135-1.196-.042-.046.123.117-.085-.107-.046-.05-1.302-1.359-.844-.892.095.097.696.729.841.88-.332-.367-1.147-1.19-1.237-1.286-.362-.381.706.722-.112-.134-.63-.658-.044-.036-.288-.287-.134-.138-.81-.854-.831-.866-.244-.255-.1-.11-.13-.14-.029-.03-.511-.533-.666-.698-.018-.019.043.04.024.02l-.521-.544.052.057c-.054-.055-.498-.522-.524-.548-.033-.035.513.54.422.447l-.834-.876a302.561 302.561 0 0 1-.016-.016c-.114-.12-.037-.038-.101-.105l-.197-.207-.156-.166-.166-.176c-.345.146-.855.366-1.133.517-.262.131-.777.435-.856.486-.097.059-.072.035-.246.144-.052.032-.563.367-.99.694-.084.062-.26.193-.11.071.254-.21.764-.56.767-.566-.014-.004-.698.496-.872.645-.772.642-.386.316-.368.296-.054.04-.43.38-.49.441l-.008.007c-.02.019-.013.012.007-.009l.218-.21a7.158 7.158 0 0 0-.224.205l-.086.082.085-.084c.16-.156.424-.39.446-.409.316-.278-.125.095-.242.204.021-.021.097-.093.075-.073-.373.343-.19.184-.283.276l-.1.1c-.254.252.06-.066.062-.068l-.372.369c-.009.009.204-.206.403-.41.18-.177.357-.34.344-.33-.118.107-.234.217-.348.328l-.426.43c-.022.018.346-.35.384-.388.072-.073-.119.116-.13.126.007-.008.25-.258.025-.032-.077.078-.239.243-.522.526.976-.99.302-.312.268-.28.027-.028.4-.411-.13.129-.03.02.01-.014.17-.178.185-.19-.207.207.342-.353l.122-.117c-.012.01-.06.054-.124.116l-.53.542c.017-.019.09-.095.054-.058-.545.552-.172.172-.33.33-.015.016-.524.54-.137.14.47-.486.759-.782.933-.964.089-.09.15-.152.188-.195-.064.061-.129.124-.193.189-.477.493-.984 1.024-1.124 1.169-.121.125-.12.122-.091.092l-.153.159c-.152.152.93-.966 1.27-1.32l-.276.282.37-.385c-.471.487-.202.209-.003-.003l.127-.132-.13.129-.003-.003c-.087.09-.106.112-.3.317.007-.01.135-.146.298-.319.107-.11.232-.232.35-.345l-.166.156c-.096.094-.143.146-.185.188-.09.098-.14.152-.562.592-.133.143.172-.179.202-.209-.11.118-.37.39-.682.72.025-.025.084-.085-.154.164l-.237.247c.026-.029.225-.237.236-.25-.01.012-.217.227-.219.228l.16-.167c-.065.066-.87.91.183-.197-.875.922-.11.12.23-.24l.232-.247.428-.451c.082-.087-.35.365.18-.194a12.64 12.64 0 0 1-.002 0c-.38.399-.932.985-1.257 1.326-.733.775.506-.54.637-.681l-.058.06.67-.713.145-.149c.04-.042-.056.053-.146.146a11.052 11.052 0 0 1-.002 0c.217-.23.594-.589.242-.25-.072.071-.157.156-.244.247-.31.333-.684.734-.763.814l.76-.815c.217-.224.44-.44.67-.65a13.42 13.42 0 0 0-.673.645l-.131.14.13-.14c.478-.497.937-.907 1.46-1.325-1.112.908-.119.081.303-.247-.17.125-.416.307-.47.354.454-.416 2.034-1.423 1.107-.84.163-.109.558-.36.567-.366-.04.012-.416.257-.641.405-.566.4-.05.037-.03.03.067-.034-.761.527-1.02.758.03-.022.23-.18.147-.111-.318.247-1.251 1.066-.247.186h-.001c.248-.205.127-.1.117-.091l.52-.41c.199-.15.17-.12.514-.362l-.152.1c.159-.12.394-.268.654-.429 1.044-.624 1.063-.628 1.674-.929.18-.083.413-.186.747-.313l-.09.03a14.3 14.3 0 0 1 5.08-.976zm-7.003 32.203c-.137.139-.477.45-.532.524-.017.02-.02.029-.007.022l.014-.014c.137-.139.476-.463.525-.532zm-3.802.3c-.065-.065-.075-.045-.068-.037.233.279.255.227.068.038zm-.74-.492c.087.062.312.3.465.46-.037-.02-.351-.348-.465-.46zm-.08-.308c-.102-.129-.294-.268-.2-.15.103.108.21.163.2.15zM25.471 29.77l.03.079c-.01-.004-.013-.035-.02-.05-.004-.007-.012-.014-.018-.02l-.786.823c-.08.084-.01.042-.61.645-.19.192-.026-.005-.237.219-.234.31-.255.28-.334.362-.226.236-.356.39-.378.412-.279.294-.692.722-.999 1.045.01-.007.156-.14-.038.056-.071.073-.75.683-1.287 1.272l.44-.438c-.174.171-1.345 1.414-1.042 1.127.186-.177.588-.659.665-.678-.402.401-2.565 2.678-2.743 2.846-.022.02.109-.138.075-.106-.028.028-.521.545-.592.61-.042.038.17-.197.15-.183-.021.016-.647.653-.67.705.148-.164.583-.605.37-.36-.028.032-.188.18-.221.217-.31.356.664-.661.815-.818-.596.655-1.568 1.618-2.268 2.366-.3.286.407-.459.072-.132-.672.651-.202.236-.183.225-.155.186-.795.71-.744.762-.253.245-.18.157-.52.52l.148-.13c-.1.12-.243.267-.395.414a.611.611 0 0 0-.17.285c-.006.017-.01.025-.011.02a.144.144 0 0 1-.005-.02c-.028-.104.086-.278.1-.285.006-.01.008-.03.024-.061.095-.122.282-.334.682-.686.205-.28-.955.933-.446.362l-.276.284a.556.556 0 0 0-.155.386c-.001.153.074.298.162.379.186.182.33.319.39.37.028.023-.056-.132.3.253.17.182-.26-.236-.187-.148.147.176 1.631 1.626 2.836 2.8a.48.48 0 0 0 .683-.018l.02-.02c.04-.042.038-.014.079-.056.124-.127.558-.606.787-.827-.484.446.41-.467.64-.696.35-.348.352-.303.506-.45.596-.567 1.436-1.526 1.935-1.93-.072-.028.802-.761 1.167-1.128.286-.288.666-.74.26-.371.496-.496 1.005-1.03 1.464-1.5.076-.077-.013.045.116-.088.011-.012.013-.044.123-.158.912-.946.494-.46.677-.625.102-.093.176-.162.23-.214-.538.546-1.154 1.178-1.32 1.347.174-.11 1.19-1.211 1.508-1.513.01-.009-.008.046.003.035.117-.116.847-.863.674-.733-.046.035-.386.376-.787.783.104-.113.005-.053.022-.072.222-.245.814-.8 1.02-1 .046-.046.03-.056.037-.064.188-.182.149-.069.3-.298.38-.288-.619.636-.52.599.079-.034 2.19-2.18 2.15-2.213a.6.6 0 0 0 .111-.082c.05-.041.15-.14.265-.253h-.001c-.003-.004.021-.004-.003-.02-.034.037-.07.076-.11.117l.067-.082-.027-.009c-.168.166-.313.317-.307.33a.219.219 0 0 0-.039.026c-.02.016-.252.26-.36.36-.312.288.239-.273.692-.72l-.052-.017v.008l-.024-.01c.003 0 .006-.003.01-.004-.055-.004-.051-.023-.054-.025-.042-.02-.093-.04-.137-.06-.006-.002-.017.014-.052-.018-.012-.01.013-.015-.005-.021-.053.022-.029-.003-.034-.006-.017-.008-.037-.006-.04-.006l-.08-.035c-.001 0 0 .015-.012.006-.004-.004-.007-.074-.065-.08a2 2 0 0 0 .024.026c-.01-.011-.113-.044-.104-.02.007.014.07 0 .045.032-.022-.024-.206-.094-.211-.109.002-.002.021-.007.02-.01-.001-.002-.042-.02-.042-.026 0-.004.023-.001.026-.006.001-.003-.041-.034-.058-.021.017 0 .045.022.017.025-.004 0-.007-.014-.01-.014-.043.003.035.04.047.045-.064-.006-.116-.066-.18-.084-.01-.024.05 0 .035-.024-.028-.049-.03.007-.033.01-.025.005 0-.085-.052-.035-.01-.017.003-.02-.029-.029v.017c-.06.014-.042-.097-.031-.102.026-.008.033.031.036.035.006 0 .068-.043.064.029.051-.024-.043-.065.02-.065-.03-.011-.109-.105-.14-.1-.003.002-.032.044-.039.008-.003-.016.026.002.03-.01.008-.036-.234-.179-.277-.21-.002-.001.01-.011.008-.014-.008-.006-.056-.01-.065-.026.006.045-.054.003-.067-.011-.018-.021.005-.042 0-.055-.019-.047-.129-.039-.107-.112-.048.05-.024-.065-.046-.085-.017-.015-.077-.003-.073.037-.029-.028-.07-.046-.102-.067-.005-.004.016-.013.007-.019-.002 0-.017.014-.025.01-.07-.036-.01-.045-.012-.063a.052.052 0 0 0-.004-.021c.035.026.08.054.09.063.024-.04-.078-.058-.089-.084l.02-.018-.033-.02c-.015-.005-.03-.006-.037.01-.003.007.017.025.043.045-.01-.001-.026.023-.028.024-.024-.003-.039-.054-.048-.068-.002-.002-.014.01-.016.01-.007-.013.034-.046-.015-.018.027-.064.044.027.07-.006.02-.026-.117-.13-.154-.094a.055.055 0 0 0 .008-.02c.005-.02-.034-.05-.046-.049-.003 0-.037.036-.04.036-.005-.003-.018-.07-.054-.065l.01.04c-.051-.05-.054-.031-.048-.004v.004c.006.02.015.046.013.049-.006.007-.044-.02-.06-.045-.01-.017-.012-.033.008-.04.003 0 .01.01.015.017.009.01.017.016.02-.008l-.004-.007c-.009-.009-.027-.02-.026-.023.005-.016.033-.011.06-.011.019 0 .038-.002.046-.015a.04.04 0 0 1-.03-.002c-.013-.007-.02-.021-.033-.027-.01-.004-.03.01-.032.012-.017-.009.009-.02.004-.025-.003-.002-.068.013-.008-.038-.123-.045-.064.017-.01.066-.036.004-.058-.037-.076-.047-.007-.004-.023.017-.035.012-.025-.01-.086-.12-.102-.15.02.009.036-.016.024-.026-.011-.008-.03.027-.035.028-.006-.003-.039-.064-.05-.07.045.03.057.002.03-.034l.03-.003c-.026-.011-.032-.082-.051-.086-.003 0-.014.022-.017.023-.015-.004-.028-.053-.035-.05-.005.004-.007.032-.018.033-.003 0 .007-.036-.01-.045-.006-.003-.02.015-.021.015-.017-.003.014-.023-.006-.039-.016-.011-.05.003-.059-.025.023.099-.01.03-.043.01-.005-.003-.03.03-.038-.011.096.007.014-.044.002-.06.002-.003.017-.02.012-.027 0 0-.012.012-.019.007-.061-.058-.014-.03-.012-.054.001-.01-.04-.026-.049-.034-.001-.002.012-.014.005-.022-.011-.012-.033-.012-.042-.02 0 0 .019-.02 0-.032-.006-.003-.018-.001-.018.011-.002.042.065.054.066.099 0 .04-.057-.031-.061-.036-.001-.002.02.003.01-.014-.008-.014-.06-.004-.066-.03 0-.002.017-.044.02-.047.002 0 .025.016.03.005.001-.002-.01-.017-.005-.025.006-.01.073-.088.074-.094-.001-.013-.014.008-.017.002-.006-.013-.014-.073-.04-.05l.01.024c-.03-.032-.03-.008-.038-.008-.009 0 .014-.02.007-.035-.002-.003-.044-.049-.053-.039.033.013.006.028.002.031.002.007.02 0 .026.005.032.05-.027.027-.025.044.002.005.017.001.02.002.002.008-.015.025-.01.027.008.004.023-.025.026-.029.02-.007.023.04-.016.048-.002.02.032-.01.025.01-.013.043-.026.011-.035.009-.032-.01-.026-.03-.055-.06-.01-.01-.035-.012-.04-.017-.004-.003.024-.09-.06-.01 0-.021.038-.097.026-.109-.01-.01-.035.02-.038.023-.003 0-.011-.018-.018-.02-.01-.001-.019.012-.03.007-.025-.013.002-.04.003-.046.002-.05-.029 0-.037 0-.007-.004-.046-.105-.067-.114l.03.006c.009-.03-.027-.017.003-.048-.05.046-.035-.012-.041-.02-.003-.003-.01.005-.014.001-.01-.014-.026-.057-.035-.062-.04-.02-.013.107-.01.117-.01-.016-.07-.094-.07-.03 0 .01.026 0 .03.002.018.017-.01.019-.012.022 0 .006.026.004.027.01 0 .002-.022.011-.01.034-.023.006-.045-.072-.054-.077-.004.002-.028.05-.023-.037a.894.894 0 0 0-.009.012 4.737 4.737 0 0 1-.052-.091c.01-.004.033-.001.019-.02-.008-.01-.018.012-.02.014-.011-.007-.105-.22-.125-.26-.006-.014-.034-.042-.036-.046-.009-.017-.028-.088-.035-.1-.004-.006-.012.012-.014.005-.003-.008.01-.012.01-.014-.004-.02-.065-.133-.067-.173.004.022.06.093.066.084.001-.002-.001-.03-.007-.032.005-.016-.03-.016-.03-.034 0-.003.016-.011.008-.038-.003-.01-.022-.022-.02-.057-.018-.029-.07-.215-.087-.219 0 0 .004.03-.007.018-.014-.016.015-.018.008-.046a1.418 1.418 0 0 0-.033-.076c-.018-.011-.002.053-.003.058a.202.202 0 0 1-.024-.053c0-.003.03.025.006-.022v.023c-.01-.021-.002-.034-.003-.04-.005-.02-.025-.027-.018-.075.002-.012.011-.004.012-.006.003-.015-.018-.011-.01-.038.001.001.018.02-.002-.033l.001.015a.478.478 0 0 1-.029-.072c-.006-.023.005-.012-.002-.03l-.028.028zm-8.056 15.708c.03.026.224.114.33.091.034-.003.058-.009.063-.009.04.002.007.026-.064.038-.11.027-.297-.057-.332-.117l-.01-.01c0-.001.005.001.013.008zm-3.163-.564c-.018-.062.443.444.611.611.018.062-.443-.443-.611-.61zm2.309-.343c.39.336.864.807.238.148.956.924.538.56.574.598.02.021.061.06.104.1.016.013.034.023.039.028.107.105.038.095-.07.002-.289-.286-.696-.697-.886-.876zm.204.225c.1.076.217.244.194.224-.089-.078-.272-.284-.194-.224zm-.264-.339c-.208-.203.044-.007.146.111.037.043-.094-.06-.146-.111zm6.924-1.564c.07-.024-.555.572-.608.614-.21.166.56-.558.608-.614zm-9.298-.74c.15.145.464.45.598.577.101.096.03.001.123.087v.001c.735.686.487.598-.422-.34l.098.076-.4-.4c-.04-.044-.03-.034.003-.002zm-1.816-.56c-.005-.011-.027.103-.029.252-.017.332.145.801.07.468a2.676 2.676 0 0 1-.05-.468c0-.134.012-.244.01-.251zm1.696.46c.013.008.053.073.102.117l.165.16a1.763 1.763 0 0 1-.173-.152.42.42 0 0 1-.094-.124zm.017-.13c-.003-.025.02-.104.04-.018-.045 0-.008.16.075.184.006.057-.11-.058-.115-.166zm-1.187-1.676c-.23.198-.623.888-.647 1.282-.006-.262.266-.954.644-1.285l.028-.027a.663.663 0 0 1-.025.03zm12.173.846c-.022.015-.316.294-.301.3.022.003.354-.337.3-.3zm-9.35-1.175c-.038.035-.914.935-.597.639.098-.091.892-.914.596-.639zm.965-.938a6.714 6.714 0 0 0-.37.393c-.025.045.335-.334.37-.393zm11.117-.638c-.115.103-.477.475-.3.32.027-.024.32-.32.3-.32zm-12.73-.114c-.011.03-.345.334-.461.45.01-.03.344-.335.46-.45zm2.216-.038c-.039.036-.509.544-.297.351.146-.134.152-.174.184-.208.037-.038.834-.817.114-.143zm13.185-2.285c-.295.322-.096.183-.45.517l.076-.098c-.481.499-1.067 1.043-1.634 1.606-.143.142.046.002-.15.182-.155.145-.346.288-.269.201.02-.02.341-.31.494-.464.45-.456.314-.363.34-.39.03-.03.33-.3.485-.455.39-.391.556-.583 1.108-1.099zm-11.407.575c-.05.046-1.205 1.22-1.114 1.171.097-.106 1.409-1.443 1.114-1.172zm-.597.64c-.112.114-.17.209-.15.19.093-.082.287-.31.15-.19zm2.739-2.943c-.61.619-1.691 1.736-2.324 2.39-.162.167-.075.094-.144.166-.055.058-.006-.026-.185.171-.085.093.202-.169.145-.103-.038.042-.24.238-.297.308-.016.02.2-.17.258-.231.081-.086-.011-.016.079-.11.298-.308.57-.573.85-.863-.021.018-.152.14.035-.054.034-.035.247-.229.502-.498.53-.627.985-1.022 1.692-1.784-.033.028-.58.575-.611.608zm-2.034 2.227c.09-.094.216-.265.043-.089-.028.04-.236.293-.043.09zm.695-.748c-.074.07-.257.264-.357.366.33-.31-.033.035-.004.038.212-.218.738-.762.36-.404zm12.347-1.494-.013.01c.073-.043-.894.92-.663.733-.269.291.008-.07-.19.15-.069.076-.093.189-.492.542h-.001c-.117.104-.003-.032-.027-.016-.01.007-.373.325-.092.038.43-.439.074-.008.306-.238.03-.029.443-.49.412-.47-.005.005-.128.138-.153.158-.09.074-.065.02-.077.032-.04.036-.71.752-.832.832a56.873 56.873 0 0 1 1.133-1.166c.03-.026.057.024.09-.001.02-.018.46-.485.523-.54l.043-.038c-.08.058.333-.354.335-.33a6.96 6.96 0 0 1-.302.304zm-1.379 1.171c.038-.05-.297.24-.382.338-.19.22.305-.238.382-.338zm10.74-.092a.093.093 0 0 0 .016.027c.001.02.206.131.212.105a.946.946 0 0 1-.228-.132zm.33.083c-.041.002-.1.009-.051.032.017.004.036 0 .052-.006.02-.01.032-.022.03-.023a.122.122 0 0 0-.03-.003zm2.334-7.83.226.243a3.463 3.463 0 0 1-.233-.226c-.019.041-.035.083-.055.124a1.036 1.036 0 0 1-.077.254.519.519 0 0 1-.046.063c-.007.005.012-.04-.003-.027-.003.003-.054.097-.04.101.007-.01.017-.048.023-.052.037-.021-.123.267-.123.289l.021-.008a3.467 3.467 0 0 1-.034.05v-.034c-.012.02-.025.051-.038.068-.002.003-.008-.016-.013-.009-.004.007.01.02.006.033-.005.015-.044.062-.055.081-.038.075-.07.158-.118.223.03-.087-.025-.024-.032.002-.002.006.03.037-.02.104-.033.04-.053-.048-.077.052.068-.026.031.03.004.078-.005.01-.049.068-.065.098-.006.01.003.043-.004.057-.005.009-.02.006-.028.02a1.594 1.594 0 0 1-.117.18c-.025-.08-.038.002-.043.008-.023 0 .016-.067-.01-.05l-.067.11c.026-.022.015.08-.01.076.05.04-.152.12-.156.159 0 .008.047-.002-.02.064-.008.007-.02-.01-.022-.004 0 .005.032.064-.005.057-.014-.003-.014-.073-.068.025.072.013-.065.143-.1.16l.032.002c-.04.01-.028.032-.034.037-.023.021-.067.039-.085.063-.02.028.01.059-.028.078l.04-.002-.06.06c.002-.088-.01.004-.013.012-.004.008-.013-.017-.02-.005 0 .002.016.016.004.034-.025.036-.04.013-.052.026 0 .001.017.012 0 .039-.056.086-.013-.008-.01-.016 0-.006-.081-.039-.003-.084-.025.015-.052-.006-.057-.006a.586.586 0 0 0-.033.047c-.007.026.024.028.024.035 0 .005-.063.027-.02.091-.068-.028-.033-.057-.008-.101-.006-.015-.05.015-.054.017-.045.051.02.064.036.101.009.02-.038.013.016.03-.036.048-.034.005-.039.001-.008 0-.013.024-.017.027-.004 0-.008-.022-.023-.015-.002.001.002.042.035.028-.033.03-.012.045-.06.019.05.093-.057-.025-.07-.022-.032.013.03.063.032.067.01.026-.07.07-.078.094-.034-.047.048-.051.05-.069.005-.059-.065.026-.093-.049l.013.073c-.05-.015-.04-.055-.075.005.02.037.029-.038.043-.007.008.018-.016.049-.01.056.008.008.023-.026.031-.01.02.037-.099.104-.044.018-.016.018-.068-.014-.08 0-.003.002-.004.005-.004.01 0 .008.02.016.038.025.016.009.031.019.034.034.002.013-.009.031-.041.055-.027-.023.027-.043.029-.047a.75.75 0 0 0-.071-.057c-.014-.005-.08.12-.13.11.042.026-.066.076-.066.095 0 .005.03.018.03.022-.003.028-.083.032-.104.049-.021.018-.007.032-.005.035-.01.008-.014-.01-.02-.005-.01.009-.074.062-.077.069 0 .001.03.012.021.028-.002.003-.024-.021-.056.025-.037.056.065 0 .069.042-.067-.007-.033.026-.043.032-.004.001-.056-.008-.08.014l.039-.06c-.023.01-.05.045-.07.051-.01.003-.029-.025-.043-.011-.002.005.043.071.056.012.024.019-.008.021-.01.035 0 .004.027.04-.005.029-.008-.003-.08-.13-.083.008 0 .004.022.01.022.014 0 .003-.024.014-.025.018 0 .004.022.01.023.015 0 .025-.072-.015-.04-.034l-.049.002c.051.033-.003.025-.014.037-.076.076.007.057.006.082-.001.04-.054-.043-.067.005 0 .005.07.002-.028.05l.033-.033c-.046-.034-.042.036-.044.04-.027.03-.019 0-.047.057-.002.005-.022.003-.026.014-.02.05.063-.026.08-.012.009.007-.088.076-.096.076-.03-.006.037-.04.006-.052-.011-.004-.135.113-.171.126-.041.014-.106-.026-.05.031-.063-.048-.036-.007-.039-.003-.055.03-.057.03-.095.066-.008.008-.033-.002-.034.003.001.003.021.018.017.03-.008.017-.105.053-.121.049-.016-.006.03-.029.007-.04-.031.02-.055.043-.086.061-.013.008-.018-.007-.024-.004-.004.004-.035.039-.03.042.014.006.14-.088.124-.046-.004.008-.051 0-.018.027-.125.071-.252.141-.38.21.05-.064.145-.095.215-.143.01-.006.046-.026.028-.038-.065.036-.134.093-.203.121-.002.001-.007-.015-.016-.014-.017.005-.04.052-.053.052-.002 0 .005-.032-.012-.038-.045-.014.007.047-.01.057-.013.007-.127.033-.132.063-.005.032.075-.027.084-.008-.045.05-.12.07-.176.104.003.002.017.008.007.016-.02.014-.04.002-.054.005-.014.004-.052.03-.064.028a.076.076 0 0 1-.008-.022c.012-.016.038 0 .04 0 .006-.004.005-.014.01-.017.01-.005.023 0 .036-.007.008-.004-.013-.013-.004-.017.006 0 .065.01.037-.022-.01-.01-.28.127-.3.15l.077-.028c-.054.017-.087.07-.124.039-.172.093-.349.182-.527.27-.033.013-.031-.01-.078.021l.055-.007c-.03.01-.154.063-.171.075-.002.002.004.013-.023.028.097.1.178.181.228.227.03.028-.057-.093-.041-.079.171.159.712.737.746.76.026.017-.198-.236-.103-.154.02.017.229.272.46.495.086.082.051.016.074.036.183.17.053.092.38.413.239.235.44.387.758.725-.93-.998-.317-.363.15.1a.285.285 0 0 0 .047.035c.026.01.015-.013.159.043-.24-.036-.119.04.042.047a.406.406 0 0 0 .154-.035c.005-.002.019.023.064-.004.004-.003-.01-.012.027-.04a.42.42 0 0 0 .025-.024c.924-.927.307-.292.513-.472.09-.079.583-.6.72-.735.032-.031.03-.005.152-.125.215-.215.396-.42.538-.562.017-.016.04.001.302-.27.074-.077.152-.168.039-.068-.378.335-1.026 1.038-1.45 1.42-.387.346.777-.804.837-.864.022-.022-.194.212.039-.014.199-.193.526-.583.828-.865.023-.022.284-.222.278-.212-.009.011-.362.371-.304.33.008-.005.237-.231.274-.255.044-.028.217-.053.267-.1.13-.119.032-.055.115-.134.177-.17.802-.744.797-.79l-.304.292c.554-.55.306-.328.38-.41.08-.088.079-.044.268-.226.022-.02.22-.217.413-.412.089-.087.125-.206.117-.203-.1.237-.1.126-.101.137-.012.012-.023.03-.035.046-.05.057-.104.12-.164.18-.72.703-.02-.032-.197.128-.06.055-.162.182-.188.206-.083.077-.101.061-.153.115-.114.118.026.022.039.018-.097.125-.553.538-.307.243-.173.152-.161.203-.304.317-.284.23.11-.145.21-.252.36-.385.485-.483 1.011-1.007l.002-.001a.418.418 0 0 0 .1-.219c.003-.01.023-.047.03-.096.019-.085-.02-.197-.089-.167-.01-.038-.02-.091-.047-.145a5.474 5.474 0 0 0-.382-.454c-.188-.19-.157-.101-.175-.117-.029-.026-.251-.259-.331-.333-.094-.088-.061-.031-.207-.172-.36-.35-.324-.372-.358-.41-.398-.454-.256-.226-.351-.318-.046-.044-.382-.397-.735-.765l-.024.054zm-1.769 7.488c-.012.01-.168.153-.252.242a.069.069 0 0 0-.014.022.112.112 0 0 0 .025-.012c.131-.111.327-.31.241-.252zm-1.222-.14c.076.098.274.286.363.363.015.01.023.01.015 0a.211.211 0 0 0-.006-.009c-.11-.116-.472-.483-.372-.353zm-.246-.225c-.267-.229.245.277.423.456.02-.002-.403-.439-.423-.456zm-21.788-.266c-.133.122-.688.658-.463.459.036-.033.46-.441.463-.46zm23.631.134c-.008.01-.215.211-.227.222-.205.168.428-.449.227-.222zm-10.646-.497c-.38.383.076-.017-.452.472.226-.177.57-.525.452-.472zm-10.251-.441c-1.041 1.105-1.22 1.205-.24.22.021-.022.3-.29.24-.22zm23.042-.898c-.513.387-.419.387-.458.425-.086.084-.3.262-.457.423l.53-.563c-.15.139-1.43 1.358-1.446 1.394-.023.05.362-.34.38-.354.018-.015.12-.037.158-.072.063-.058 1.114-1.095 1.293-1.253zM29.52 33.91l.011.01c-.006.001-.012 0-.017-.002l-.028.026.015.02.043-.05-.018-.01-.006.006zm-.239-.072c-.005.002-.015.044.015.018.035.035.028-.005.046.003.002.002-.018.014.036.028-.035.021-.07-.02-.083-.022-.027-.001.04.046.075.032-.026.017.003.005.02.013.02.01.005.012.015.017.03.012.03-.006.043.015.007-.023.02-.02.03-.008l.02-.02c-.024-.011-.047-.035-.075-.04-.013-.002 0 .014-.001.015-.02.001-.033-.013-.009-.016-.038-.004-.024-.012-.045-.023 0 .001-.002.01-.02.006-.01-.002-.053-.022-.067-.018zm10.18-.823c.161.12 1.02 1.017.88.912-.113-.087-.748-.751-.88-.912zm-9.919.918c.01.004.017.003.022.002a.44.44 0 0 1 .007-.007l-.016-.01-.013.015zm.037-.013.007-.006-.013-.006c-.003.004 0 .008.006.012zm-.067-.019.003-.003c-.007-.003-.012-.004-.014-.006l.01.01zm-.144-.07c.004.002.006-.009.025.002 0 .001-.005.008-.001.01a.28.28 0 0 0 .07.032c-.001.001-.002.002-.001.004.004.014.066.008.062.002-.007-.008-.043-.013-.057-.008 0-.002 0-.006-.004-.01-.005-.007-.231-.127-.094-.033zm-.11-.036c-.009.006.02.018.024.018.011-.003-.012-.018-.023-.018zm-.302-.055c.002.002.01.021.003.024-.093-.03-.062-.077-.003-.024zm.11-.014c.006.009.032.005.02-.006-.008-.009-.018.003-.02.006zm-.28-.174c-.01 0-.007.027-.015.028-.005 0-.013-.013-.023-.01-.003.002-.003.023.001.026.007.002.014-.013.02-.01.023.012.035.031.056.042 0-.002-.002-.014.012-.006.002.003.006.022.026.03.082-.015.077.038.146.053a.2.2 0 0 0-.033-.037c-.04-.03-.12-.075-.167-.102-.012-.006-.015.005-.02.003-.004-.002.015-.015-.004-.017zm.015.09c.008.028-.004-.001-.02.016.016.01.056.03.044 0-.002-.006-.018-.011-.024-.016zm-.017-.017c-.008.004-.042.012-.026.019.008.002.037-.01.026-.019zm-.11-.04c.011.003.099.065.095.037-.003-.005-.077-.06-.094-.036zm.008.034c0 .01.03.004.03-.01-.007-.006-.028.007-.03.01zm-.145-.087c-.012.008.018.02.033.01-.006-.006-.023-.016-.033-.01zM24.88 28.82c-.6.558-1.157 1.106-1.743 1.673.151-.186-.85.846-.267.24-.275.272-2.687 2.595-2.896 2.788-.065.06-.077-.014.2-.247.036-.03-.112.133-.082.11.018-.015.589-.551.614-.577.026-.028-.02-.01.007-.038.03-.033.39-.355.573-.53.343-.328.37-.375.398-.402.082-.079.228-.203.394-.362.839-.804 2.116-2.038 2.802-2.655zm3.824 4.67c-.001-.004-.048-.012-.046.008.002.014.02-.001.023 0 .003.002.04.054.023-.009zm-.23-.029c.002.008.062.04.056.014-.003-.005-.063-.041-.056-.014zm-.189-.072c.017-.028.044-.017.05.002.001.005-.01.035-.03.03.029-.027.017-.051-.02-.032zm-2-18.525c-.21.01.053.014.309.026.184.008.365.02.36.02-.017.001-.177-.006-.36-.01-.257-.007-.56-.003-.581-.003-.034-.001.676-.03-.178-.011.098 0 .196 0 .294.003-.401.008-.44 0-.538.003-.303.011-.628.05-1.114.086-.128.01.081-.023.066-.022-.155.01-.347.06-.58.081.008 0 .493-.1-.418.066.064-.012.129-.022.193-.033-.132.02-1.068.236-1.192.279-.365.101-.052-.001-.415.11.234-.066-.863.303-.8.28l-.023.01c-.058.023-.167.07-.303.127.884.856 1.193 1.145.197.189.32.306.286.271.381.363.06.057.52.503.313.296l-.22-.211c.673.642.022.02.014.011.017.013 1.668 1.586 1.952 1.857.33.314.63.588.702.656.236.225.037.042.089.093.052.053.728.683.763.718.128.124-.005.005.006.016.159.157 1.064 1.013 1.316 1.255-.005-.01-.512-.494-.19-.198.375.344.38.38.39.39a2571.6 2571.6 0 0 1 3.29 3.147l.213.228-.213.2-1.694 1.765c.041-.013 1.075-1.114 1.105-1.141.15-.137-1.63 1.725-1.855 1.947l.508-.51c-.266.313-.916.945-1.32 1.381-.128.14.13-.113.129-.111-.142.163-.387.406-.218.21-.354.389-.312.323-.592.613-.014.015.113-.102-.104.132l-.116.124c.007 0 .015 0 .024.002.038-.049-.068.049.076-.1.036-.038-.031.063.548-.557-.056.093-.367.413-.61.66l.013.004c.244-.252.547-.571.63-.679-.065.108.072-.07.292-.299.24-.25.142-.135.272-.271.354-.372.194-.232.498-.527-.322.262.496-.528.733-.76l-1.11 1.178.07-.06-.295.307.041-.054c-.492.543-.63.659-.672.702l-.446.466c.002 0 .004 0 .006.002l-.002-.005c.103.032.204.068.302.105a.796.796 0 0 1 .22.043.35.35 0 0 1 .054.035c.002.006-.035-.007-.025.005.004.003.082.04.087.027-.009-.005-.041-.01-.045-.015-.016-.031.225.082.247.082l-.005-.02.043.026-.03.003c.016.01.043.017.056.028.002.002-.015.01-.01.013.007.003.02-.011.03-.009.013.003.051.033.068.041.063.027.134.048.189.084-.075-.018-.024.025-.001.028.006 0 .037-.03.09.008.034.025-.048.053.04.064-.017-.058.03-.03.07-.011.01.004.058.037.083.049.01.003.038-.007.05-.002.007.003.004.017.015.022.054.026.104.054.15.087-.075.03-.002.035.003.038-.002.02-.059-.008-.046.014l.093.05c-.018-.022.073-.023.067 0 .041-.048.092.125.127.125.007-.003.003-.041.055.012.006.006-.01.019-.005.02.004 0 .061-.035.05-.001-.004.013-.066.02.016.059.019-.068.124.045.134.075l.006-.03c.005.034.025.021.029.026.017.019.028.057.048.07.023.015.054-.014.067.017l.002-.035.048.047c-.08.008.007.01.01.011.006.003-.016.014-.006.019.002-.001.016-.017.03-.008.031.019.007.035.019.045.002 0 .013-.016.035-.003.07.041-.009.01-.016.01-.005 0-.043.076-.075.011.01.022-.013.05-.012.052a.361.361 0 0 0 .038.024c.024.004.029-.023.035-.025.005 0 .02.054.08.009-.031.064-.054.035-.091.017-.015.007.008.045.01.046.04.037.059-.023.093-.042.019-.009.009.033.03-.017.04.029-.003.03-.004.036 0 .008.023.009.023.012 0 .004-.021.01-.016.022.002.002.038-.006.029-.034.023.026.04.006.01.052.089-.055-.027.052-.026.064.008.028.06-.033.063-.035.024-.011.056.056.077.06-.045.036-.041-.036-.057-.037-.052.002.017.056-.052.088l.065-.018c-.018.046-.053.04-.002.067.035-.022-.032-.023-.003-.039.017-.009.043.01.05.004.008-.008-.021-.018-.006-.027.035-.02.083.079.012.038.014.013-.02.063-.008.073l.008.001c.007-.001.016-.019.026-.036.01-.015.02-.03.034-.033.013-.003.028.003.046.03-.024.027-.037-.02-.04-.02a.966.966 0 0 0-.058.069c-.006.013.1.058.087.104.027-.04.06.052.078.05.004-.001.018-.026.022-.028.025 0 .02.071.034.089.015.017.03 0 .032 0 .006.009-.011.014-.007.02.007.007.05.06.054.06.003-.003.015-.027.028-.02 0 .003-.02.025.016.047.047.028.006-.058.045-.065-.013.06.02.026.024.035 0 .003-.013.052.006.07l-.051-.03c.006.02.036.042.04.06 0 .008-.026.027-.016.038.004.001.069-.045.017-.051.019-.024.018.005.03.006.004-.002.04-.03.025 0-.003.008-.125.086 0 .075.003-.001.01-.02.015-.02.003 0 .01.02.014.02.003-.002.011-.022.015-.023.022-.002-.02.067-.035.04 0 .015 0 .029-.002.043.035-.049.021 0 .03.01.061.06.053-.012.076-.015.036-.003-.045.054-.002.06.004-.001.009-.061.04.021l-.025-.026c-.034.044.027.033.032.034.024.021-.002.018.047.037.003.003 0 .02.01.023.04.012-.017-.053-.004-.072.008-.008.06.073.059.08-.008.026-.032-.03-.046 0-.002.011.088.11.096.14.009.036-.034.099.023.042-.049.061-.01.034-.007.035.022.047.022.049.05.08.006.007-.005.029 0 .029.003-.002.018-.02.027-.018.015.005.039.09.033.105-.007.014-.023-.025-.034-.003.013.026.031.046.044.072.006.01-.007.016-.005.02.001.003.03.028.035.024.007-.013-.065-.116-.03-.106.007.002-.005.045.023.012.052.106.102.213.15.322-.052-.039-.07-.122-.106-.18-.005-.008-.018-.039-.031-.02.026.053.07.11.088.168 0 .002-.015.01-.014.017.003.014.043.032.04.043-.003.001-.028-.001-.034.014-.017.042.043-.012.05.002.006.012.018.113.044.114.028 0-.017-.066 0-.076.041.035.051.103.077.149.001-.002.008-.017.014-.009.012.016-.002.037 0 .049.003.012.021.045.018.056a.092.092 0 0 1-.02.008c-.013-.01.003-.034.003-.036-.002-.005-.012-.003-.013-.008-.003-.009.002-.02-.002-.03-.003-.008-.014.012-.017.005-.001-.002.017-.06-.017-.031-.008.013.087.237.105.255l-.017-.068c.01.047.055.072.024.108.048.106.092.216.137.326.146-.16.39-.408.418-.413.043-.006-.237.263-.41.429l.041.1c0-.02-.025-.043-.008-.061.054-.055.808-.754 1.058-1.046l-.455.424c.884-.885.737-.76.432-.475l-.045.042c-.236.22-.534.504-.544.508-.017.003.528-.552.901-.916.241-.235.41-.39.31-.264-.016.02-.16.161-.286.286-.163.162-.297.298-.09.118.016-.014.054-.052.104-.102.152-.152.405-.412.425-.428.1-.08-.17.215-.39.462-.165.184-.303.342-.243.303a4.83 4.83 0 0 1 .259-.286c.172-.179.364-.364.535-.542.12-.126.134-.175.149-.19.222-.233.114-.087.19-.163.04-.042.448-.529.419-.389 1.438-1.516.367-.45-.536.46.266-.307.838-.858 1.086-1.114.089-.092.016-.058.165-.214.108-.113.37-.372.68-.675l.687-.685.682.684c.554.566 1.258 1.293 1.507 1.55-.246-.235-.196-.144-.01.04s.058.002.096.035c.044.038.897.92 1.044 1.062-.662-.647-.535-.479.017.08l-.258-.224c.138.133.332.334.525.537l.05-.096a1.199 1.199 0 0 1-.194-.218c.042.045.12.123.194.196a.815.815 0 0 1 .09-.174 1.769 1.769 0 0 0-.036.037c-.003-.045.052-.082.066-.128.003-.014-.015 0-.017 0 0-.02.018-.038.018-.011.01-.044.017-.029.033-.054 0 0-.013.002-.005-.022.004-.012.031-.063.028-.077-.002-.006-.047-.012-.021.02-.044.043.002.03-.01.051-.002.003-.013-.02-.035.044-.02-.037.032-.083.035-.097.005-.03-.057.051-.046.09-.016-.028-.006.003-.018.024-.012.022-.013.007-.02.02-.016.034.003.032-.023.049.05.01-.019.053-.039.067l.047-.116-.009.001.015-.028.004.01c.011-.062.032-.06.034-.064.028-.05.057-.11.084-.161.004-.008-.013-.018.029-.063.012-.013.015.015.024-.006-.019-.058.006-.033.01-.04.012-.02.011-.042.012-.044.013-.028.035-.066.05-.096-.002 0-.017.002-.005-.013.008-.006.085-.019.099-.083l-.033.03c.013-.012.063-.131.036-.12-.017.009-.01.08-.042.055.03-.028.131-.244.148-.251.003 0 .006.023.01.021.003-.004.027-.049.034-.05.004 0 0 .026.004.028.005 0 .043-.05.031-.067-.003.019-.032.053-.03.021 0-.004.017-.009.017-.014 0-.046-.048.046-.057.06.016-.073.09-.139.117-.214.028-.012-.005.057.023.038.057-.037-.003-.033-.007-.036-.003-.027.096-.012.045-.062.021-.014.024 0 .037-.037h-.019c-.008-.064.115-.058.118-.046.006.03-.042.042-.044.046-.002.006.04.07-.04.074.02.055.078-.056.07.013.018-.035.132-.134.13-.168 0-.004-.045-.032-.004-.044.02-.005-.005.03.008.033.04.003.23-.286.27-.338.003-.002.014.01.017.007.007-.012.018-.066.038-.077-.053.013.002-.06.02-.076.025-.023.047 0 .06-.006.056-.028.062-.15.142-.135-.052-.049.075-.037.1-.064.02-.021.014-.086-.032-.077.035-.035.06-.085.088-.123.004-.006.013.017.02.006 0-.002-.012-.017-.007-.027.05-.083.05-.019.072-.022a.066.066 0 0 0 .024-.008c-.033.043-.07.096-.08.11.041.021.074-.096.104-.11l.017.019c.01-.008.053-.068.022-.08-.009-.002-.032.023-.058.055.003-.012-.023-.027-.022-.029.005-.027.065-.05.082-.062.002-.004-.01-.016-.01-.017.016-.01.048.033.022-.02.07.023-.035.053 0 .079.026.018.161-.15.124-.187a.046.046 0 0 0 .022.008c.022.002.059-.044.06-.059-.003-.004-.037-.038-.036-.04.005-.005.082-.029.08-.07l-.046.017c.063-.063.042-.064.01-.054l-.004.002c-.024.008-.053.02-.056.018-.007-.007.028-.05.058-.071.02-.014.04-.018.044.003 0 .003-.012.011-.021.02-.013.01-.02.021.006.021.003 0 .006-.003.01-.006.01-.01.025-.033.029-.032.016.004.007.036.004.065-.003.023-.003.044.011.051a.05.05 0 0 1 .005-.034c.01-.016.028-.025.036-.041.006-.011-.009-.03-.01-.033.012-.021.022.006.027 0 .002-.003-.005-.074.044-.013.066-.144-.012-.07-.074-.003.001-.04.051-.07.065-.092.005-.008-.018-.023-.01-.038.015-.03.146-.112.18-.134-.011.023.014.039.026.025.012-.014-.026-.031-.026-.036.003-.007.078-.053.085-.066-.04.054-.008.064.035.029v.034c.016-.03.097-.047.103-.069-.001-.003-.024-.012-.024-.014.005-.018.063-.038.062-.046-.003-.006-.035-.005-.035-.018.004-.001.039.003.05-.015.004-.008-.013-.02-.013-.023.006-.019.024.014.044-.012.015-.018.003-.056.037-.069-.115.038-.032-.008-.007-.047.004-.006-.029-.03.017-.045-.02.11.047.01.067-.005.002 0 .02.017.03.01 0 0-.013-.012-.006-.02.073-.076.035-.02.063-.02.011-.001.033-.05.044-.06.002-.001.014.012.023.003.016-.014.018-.04.028-.05.004.002.023.018.037-.004.004-.007.003-.019-.011-.018-.047.004-.068.079-.118.086-.046.006.041-.068.047-.073.001.001-.005.021.014.01.017-.011.012-.068.043-.078a.29.29 0 0 1 .05.015c.001.002-.021.031-.009.036.002 0 .02-.014.029-.01.011.007.092.073.097.072.013-.004-.01-.016-.002-.02.017-.008.085-.025.062-.051l-.029.014c.041-.037.013-.033.014-.043.002-.01.022.014.04.004.004-.003.06-.056.05-.064-.02.04-.034.006-.036.006-.008.003 0 .024-.009.03-.059.042-.027-.027-.046-.023-.006.003-.003.02-.005.023-.008.003-.026-.014-.03-.01-.006.011.03.027.031.028.006.022-.047.03-.053-.012-.022 0 .008.033-.014.029-.046-.01-.01-.027-.005-.038.015-.038.036-.033.074-.07.014-.012.017-.042.024-.048.005-.004.098.016.018-.067.025-.004.106.03.12.015.013-.014-.02-.039-.02-.041 0-.004.022-.015.024-.023.003-.01-.011-.019-.004-.032.02-.03.047-.002.052-.003.056-.003 0-.033.005-.042.005-.008.124-.064.137-.088l-.011.034c.033.006.023-.034.054-.003-.046-.052.019-.041.028-.05.003-.002-.005-.01-.001-.014.018-.014.068-.036.075-.048.028-.046-.114-.003-.13.002.02-.012.112-.088.042-.08-.01 0-.004.03-.007.034-.022.022-.02-.008-.023-.01-.007 0-.008.029-.015.03-.003-.003-.01-.022-.036-.007-.004-.025.086-.059.093-.07.002-.003-.055-.025.045-.03l-.012-.01.108-.069c.004.01-.002.037.021.018.013-.01-.014-.02-.014-.021.01-.014.262-.146.31-.172.016-.01.05-.043.055-.046.02-.012.103-.044.117-.053.007-.006-.012-.012-.003-.016.008-.003.01.012.014.011.023-.007.159-.091.204-.098-.025.007-.114.079-.104.086.003 0 .035-.006.036-.012.017.004.023-.037.044-.04.003 0 .01.017.041.006.011-.005.028-.029.067-.03.034-.025.253-.107.257-.126-.004 0-.033.008-.02-.005.02-.019.02.014.052.001a1.91 1.91 0 0 0 .09-.046c.013-.021-.06.004-.066.004a.328.328 0 0 1 .065-.034c0 .002-.033.037.022.005l-.026.004c.025-.015.038-.007.046-.01.005-.001.008-.005.012-.008-.065-.064-.144-.14-.225-.221.08.075.111.084.172.137l.074.073a.1.1 0 0 1 .053-.01c.013 0 .004.012.005.013.017 0 .016-.021.044-.017-.001.003-.017.013.01.004a16.14 16.14 0 0 0-.318-.322l.328.305c-.169-.209-.394-.385-.366-.42-.088.01-.438-.419-.555-.537-.046-.046-.05-.034-.107-.092-.224-.229-.718-.754-.842-.875-.538-.522.762.888.865.999-.21-.218-1.404-1.44-.883-.85.08.091.25.225.299.273.325.327.055.085.078.113.04.048.27.247.322.307.016.019-.117-.084.186.232-.167-.139-1.01-1.046-1.127-1.16-.041-.039.173.257-.525-.541l.016.037-1.226-1.275c.052.04.293.264.002-.034-.167-.171-.06-.028-.076-.043-.154-.15-2.78-2.915-3.29-3.45a58.58 58.58 0 0 0-.48-.49c-.108-.109-.198-.194-.213-.21-.206-.22-1.004-.938-1.18-1.06-.106-.082-.016.009-.11-.065-.086-.069.013-.011-.013-.032-.168-.18-1.55-1.05-2.199-1.385.456.231 1.32.717 1.347.737a5.836 5.836 0 0 0-.377-.244c-.1-.077-.491-.26-.696-.374-.022-.012.08.014-.292-.177-.09-.046-.288-.134-.517-.237-.097-.044-.2-.09-.303-.139-.234-.139-1.024-.378-1.799-.58l.239.066c-.014.004-.365-.097-.501-.127.018-.001.103.02.2.044-.795-.205-1.56-.368-1.668-.335.007 0 .396.06.125.03-.366-.037-.035-.03-.462-.08a14.588 14.588 0 0 0-1.303-.064zm1.965 18.471c-.064-.017.025-.087.063-.02l-.017.007c.062.059 0 .009-.023.001-.008-.003-.015.013-.023.012zm.112.001c-.012.008-.031-.008-.04-.013.018-.01.03.005.04.013zm-.284-.14c.012-.09.062.008.095.018-.048.006-.077-.018-.057.035-.069-.038-.02-.043-.02-.047-.002-.004-.018-.003-.018-.007zm.096-.032c.01 0 .01.023-.003.028-.016.007 0-.026.003-.028zm-.109-.04c.006-.03.086-.01.087.01-.01.013-.087-.006-.087-.01zm1.847-.395c0 .004-.018.004-.02.008 0 .004.014.052.016.053.003 0 .014-.014.017-.015.002.002.003.04.01.054.01.024.022.02.024.02.003.007 0 .025.006.038.03.064.08.157.082.23-.012-.055-.04-.091-.063-.134.027-.007-.045-.05 0-.027a1.713 1.713 0 0 1-.108-.217c0-.007.043-.046.036-.01zm-7.369-.007c-.174.174-.124.15-.113.14.132-.129.309-.337.113-.14zm7.256-.051c0 .004.016.035.024.028-.002-.012-.024-.053-.024-.028zm9.124-.062.007.007c.002-.001.006 0 .008-.002.005-.003.009-.011.008-.012a.072.072 0 0 0-.023.007zm.264-.08c.02-.001-.021.025-.04.026-.015-.006.038-.025.04-.026zm-11.803-.087-.038.01c.006.019.026.032.039.019l-.005.008c-.001.003.018.01.02.02.01.06-.154-.117-.016-.057zm-.145.016c.022-.025.034.016.037.023-.012.01-.052-.004-.037-.023zM20.487.54c.706.02 1.405.18 2.041.467a5.92 5.92 0 0 0-2.04-.446c-.193-.006-.384 0-.572.017-.122.006-.53.066-.476.08a5.572 5.572 0 0 1 1.047-.08c.472.007.944.086 1.331.204.02.007-.062.002.019.028.155.042.65.2.724.25-.006-.001-.264-.086-.19-.04.197.124.282.073.46.165.03.016.103.058.195.115.316.182.813.602.961.73.223.157-.561-.506-.502-.464.582.394 1.05.946 1.391 1.503.004.006-.015-.043.006-.018l.039.058c.132.218.14.29.192.403.061.12.235.553.243.618a.71.71 0 0 1-.054-.087c-.077-.187-.083-.264-.09-.282-.025-.065-.063-.123-.09-.18-.044-.096-.06-.153-.126-.275-.045-.084-.017.005-.061-.075-.006-.01-.024-.051-.05-.103-.052-.11-.141-.262-.18-.264-.004 0 .065.103.164.275.35.517.733 1.82.711 2.462.006.164.004.282.004.33.006-.11.007-.221.006-.331 0-.054-.004-.107-.006-.16.003.053.01.107.012.16.016.377-.018.711-.055.74a5.026 5.026 0 0 1-.204.945l.022.002h-.022l-.013.036.045.001c.046-.151.164-.699.07-.226.038-.136.2-.819.167-1.5-.015-.654-.201-1.271-.23-1.368-.018-.061.054-.052.101.21.006.033-.051-.117-.047-.088.011.023.126.573.124.6.006.027.02-.009.026.019.01.032.037.383.041.566l.003.06c.008.289.013.324.014.35-.003.083-.022.22-.04.386-.03.298-.105.647-.215.992.844.031 1.689.062 2.533.095.296.014.134.028.621.04l-.378-.033c.25.014 1.357.064 1.537.067.023 0 .058-.015.333-.005.245.01.285.022.416.03.11.006.234.008.267.01.025.002.035.009.096.012.19.01.036-.013.225.015l-.139-.003c.22.011.518.03.247.024l.162.006c.093.009.44.02.707.03.209.006.37.06.382.063.041.016-.119-.03.09.044.027.005.37.154.551.366.173.189.248.356.13.169l.096.157c.052.096.08.173.087.196.112.315-.196-.48-.04-.051-.013-.034-.025-.068-.041-.101.047.12.013.048-.05-.064 0-.003-.002-.005-.003-.007a1.347 1.347 0 0 0-.193-.285l-.004-.007a1.396 1.396 0 0 0-.167-.137c-.086-.085-.136-.095-.345-.201-.209-.053.262.07.507.354.121.127.194.263.21.305a1.387 1.387 0 0 0-.148-.22c.088.115.185.306.213.362.079.188.083.199.074.173.026.1.05.28.044.38 0 .045 0 .071.001.066l.002-.066a1.341 1.341 0 0 0-.01-.203c.047.319 0-.111.023.102.001.021.002.057 0 .101-.009.22-.028.68-.02.665-.008.223-.008.094-.01.12 0 .027-.015.467-.022.61 0-.009-.001-.032-.002-.02l-.017.476c0-.009.005-.086.005-.049l-.018.479c.002-.03.018-.466.017-.388-.01.232-.023.61-.029.764v.013c-.005.105 0 .034-.003.093l-.008.193-.02.426-.001.019.001-.033a144.235 144.235 0 0 0 .003-.098v-.045l.008-.251-.006.151-.004.17.008-.424-.006.247.004-.255c0-.046-.002.056-.002.077l.006-.476-.002.056v-.144l-.008.554c0-.01.004-.58-.002-.046v.138c0 .08-.001-.337-.001.173-.002-.786-.002-.353-.003-.26l-.004-.423.001.192c0-.022-.005-.3-.005-.233l.005.403v.04l.001.196-.006-.337.001.093c-.004-.191-.01-.597-.006-.205l.003.175-.005-.23c-.002-.041-.001.036 0 .083l.014.566c-.02-.791-.035-1.07-.007-.192-.008-.28-.01-.249-.012-.332-.002-.054-.013-.456-.012-.272 0 .024.01.27.006.194l-.001-.013a252.55 252.55 0 0 1-.069-1.7c-.012-.288-.03-.544-.032-.607-.008-.205.004-.035.003-.08 0-.02-.005-.13-.012-.253a1.195 1.195 0 0 0-.078-.351c-.032-.084.002-.017.005-.01a1.11 1.11 0 0 0-.698-.66c.014-.002.34.163.13.065-.246-.092-.268-.09-.274-.098a1.083 1.083 0 0 0-.225-.015c-1.383.05-2.766.098-4.149.143.03.019.98-.029 1.003-.027.126.01-1.496.066-1.697.065l.455-.001c-.259.033-.832.02-1.206.044-.12.007.107.01.107.011-.136.015-.354.015-.192-.004-.331.024-.284.007-.538.014-.01 0 .094.008-.104.02-.095.005-.595.021-.666.034-.027.005.228.042.26.002.546 0 .174-.023.387-.03.031 0-.04.023.493-.005-.102.04-.716.035-.824.043-.218.018.68.003.845-.032-.077.032.064.002.264-.005.219-.006.124.006.242.001.324-.012.19-.026.457-.02-.26-.041.46-.022.668-.019l-1.022.05.059.005-.27.01c.014-.003.029-.008.043-.01-.461.035-.575.02-.613.02l-1.475.052-.926-.036.409-.781.021-.05c.02-.062.005-.024.151-.465.042-.141.025 0 .06-.166 0-.216.03-.205.041-.266.026-.178.02-.289.021-.305a4.051 4.051 0 0 0-.025-.78c0 .008-.001.113-.017-.033-.003-.052-.017-.556-.21-.947.02.058.037.118.055.177-.11-.27-.379-.764-.311-.595.06.12.242.405.213.455-.039-.11-.17-.405-.372-.697-.312-.474-.832-.87-.894-.916-.01-.01.083.04.065.025a6.942 6.942 0 0 0-.368-.249c-.022-.017.123.058.116.048a2.342 2.342 0 0 0-.286-.166.66.66 0 0 0-.167-.065c.04.015.107.044.163.074.096.051.169.1.07.058l-.076-.046a.532.532 0 0 0-.063-.034c-.092-.033-.042-.005.056.046.15.077.398.232.453.274a5.796 5.796 0 0 0-.46-.263 3.409 3.409 0 0 0-1.1-.353c-.208-.051.315.028.08-.028-.471-.096-.164-.005-.151.002-.122-.006-.54-.113-.544-.037l-.054-.002c-.116-.003-.099-.015-.321.017l.1.005c-.275.053-.87.112-.831.097.108-.063.422-.102.45-.105.037-.005.14-.119.582-.074a.089.089 0 0 0 .02-.01c.005-.002.005-.005 0-.008-.056-.039-.663.043-.322-.028-.28-.01-1.354.333-1.466.472-.007.006.016.01.006.027s-.05.044-.165.103c-.116.06.146-.108.092-.087-.101.026-.867.526-1.273 1.243a3.76 3.76 0 0 0-.47 1.253c-.005.03-.02.015-.025.044-.013.071-.027.29-.03.46a4.17 4.17 0 0 1-.005.13c.04-.335.027.319.06.483.029.25 0 .24.015.348.038.248.16.558.295.819l.559 1.22-1.32-.018c-.254.006-.489.003-.655-.025.022.071-.697-.027-1.024-.026-.256.002-.627.052-.282.078-.442 0-.908.017-1.323.025-.068 0 .026-.022-.09-.019-.011 0-.026.022-.127.025-.828.023-.427-.024-.58-.037a3.586 3.586 0 0 0-.199-.011c.484-.007 1.042-.018 1.19-.02-.127-.045-1.071.015-1.348.004-.008-.001.022-.026.014-.026-.105-.002-.763.01-.628.04.038.009.341.007.7.003-.096.006-.026.034-.041.036-.209.015-.72-.01-.901-.013-.041 0-.04.017-.046.018-.165-.004-.098-.057-.266-.001-.298-.065.557-.013.5-.056-.049-.032-1.955-.008-1.95.044a.256.256 0 0 0-.085-.02 3.326 3.326 0 0 0-.33-.011c-.06-.001-.119.02-.133.031-.004.003.013.05.009.054-.01.003-.091.018-.149.072-.033.03-.055.068-.057.096a.362.362 0 0 1 .079-.074l.005-.003a.36.36 0 0 0-.004.004c-.129.171-.069.157-.035.1l.005-.007a.333.333 0 0 1 .066-.056.084.084 0 0 1 .026-.014c.002.002-.004.011-.014.024a.461.461 0 0 0-.075.134c-.015.044-.022.08-.04.055a.175.175 0 0 1 .01-.063c.01-.034.02-.063-.013-.028a.068.068 0 0 0-.008.022.33.33 0 0 0-.008.083l-.001.065c-.007.037-.014.003-.022-.065a.304.304 0 0 1-.016-.094c-.002-.049.005-.094-.015-.087a.497.497 0 0 1-.008.08c-.005.033-.01.067-.01.101 0 .056 0 .111.003.165.003.11.03.138.03.152.006.203-.021.09-.02.157 0 .039.056.435-.022.36.056 1.32.058.365.054-.444.03.256.014.758.02.982.002.08.03.033.034.17.01.28-.024 1.62-.033 1.97-.008-.215-.037-.153-.036.013.001.165.04.026.044.058.004.037-.018.81-.014.94-.01-.584-.04-.452-.045.044l-.023-.215c.01.29-.036.9-.025 1.07.002.026.026-.068.027-.054.009.149-.018.65-.01.672.007.018.028-.193.037-.115.002.017-.032.224-.025.427.002.075.025.03.026.049.01.158-.027.065-.023.353 0 .027 0 .052.002.077l-.015 1.388-1.232-.598c-.132-.053-.253-.078-.444-.154.696.327.112.047-.201-.018-.05-.01-.016.03-.308-.048.647.071-.173-.09-.348-.084-.01-.002-.012-.028-.096-.033-.006 0 0 .017-.075.015a4.116 4.116 0 0 0-.29.006c-.306.022-.006-.015-.123-.02-.064-.007-.42.07-.514.097-.022.005-.017-.015-.1.007-.15.04-.276.103-.37.14-.011.006-.024-.024-.199.061-.049.025-.1.06-.026.034.24-.088.691-.274.984-.282.26-.021-.545.127-.583.163-.014.004.133-.057-.022-.01-.136.04-.354.179-.54.267a2.619 2.619 0 0 1-.175.048c.007-.009.224-.137.188-.13-.005 0-.149.078-.173.083-.018.003-.074-.019-.12-.028-.024-.005-.046-.007-.057-.001-.082.045-.019.032-.07.063-.113.062-.481.327-.463.367a3.77 3.77 0 0 1 .171-.141c-.309.27-.164.171-.203.214-.04.048-.05.013-.148.111-.03.014-.387.476-.362.48.17-.274.134-.153.142-.166.036-.042.064-.112.113-.169.36-.386.025.026.115-.058.03-.03.075-.102.09-.115.043-.04.062-.024.088-.052.059-.06-.026-.023-.034-.022.043-.076.306-.262.179-.106.099-.066.082-.109.168-.152.171-.082-.058.075-.111.13-.19.193-.267.23-.51.529-.085.109-.16.256-.194.31-.01.017-.072.085-.124.163-.06.092-.105.198-.051.23-.077.124-.236.313-.28.463-.038.132.013.103.012.114-.004.02-.05.179-.056.235-.007.066.014.037 0 .14-.028.255-.06.246-.068.273-.057.307.014.175.014.243l-.002.063c-.026.22.056.923.13 1.075a3.806 3.806 0 0 1-.079-.22c.005.143.084.274.044.29.072.007.12.291.159.37.014.032.023.026.04.064.024.053.06.128.098.205.073.148.168.304.204.351.166.208-.04-.112-.154-.378-.056-.124-.096-.233-.105-.257.017.043.062.143.12.25.133.252.347.524.209.279-.03-.054-.109-.132-.127-.163-.119-.202-.009-.054-.015-.07a.446.446 0 0 0-.037-.063 1.028 1.028 0 0 1-.08-.131c-.003-.013.052.055-.034-.149.025.036.073.147.136.268.094.19.23.403.262.441.023.02-.062-.146.238.3l-.001-.025c.195.224.42.425.667.596-.033-.01-.182-.093-.005.028l.018.013c.075.044.022-.015.03-.01.054.055.952.574 1.69.613.29.03.533.018.643.01.133-.005.492-.081.518-.091.12-.023.46-.113.669-.203l1.08-.465-.04 1.123-.009.218c-.002.089.017.005.013.084-.004.074-.015-.003-.017.02-.011.181-.047 1.561-.074 1.889.013-.2.023-1.193.012-1.18-.002.01-.021.247-.018.297-.015.083.01.368-.003.523-.001.015-.019-.05-.033.224-.005.096.001.344-.025.594-.006.362-.104 2.266-.093 2.4.002-.012.018-.258.018-.083-.001.241-.024.025-.039.306-.002.042-.031.825-.03.85.005.234.04-.433.043-.437.004.025-.02.592-.021.615-.002-.015-.003-.418-.019.116l.016-.192c-.007.261-.023.287-.027.35-.004.075-.005.153-.006.237-.003.093.004.199.032.335.012.053-.02-.02-.024-.025.013.072.066.147.113.248 0-.003-.134-.168.073.112l.047.05a.936.936 0 0 1-.045-.052l-.016-.02.018.018c.064.103.414.291.478.288.174.038.034.024.188.04l.028.001c-.157-.02.582.012.546.02.106-.008.739.032 1.036.046.188.008.571.021.631.025.072.004.051.01.183.017.041.002.43.016.771.038.067.004.205.018.083.014-.212-.005-.612-.029-.607-.023.015.006.546.024.69.031.636.03.32.02.3.022.047.005.407.018.427.02.061.003-.19-.004-.2-.003.01.003.345.019.268.017-.114-.003-.436-.017-.46-.018-.268-.005.099.013.2.018h-.065c.387.015.082-.005.34.004.22.007-.045.002-.058.002l.33.01c-.015 0-.69-.01-.665-.005l.686.012c.01.004-.31-.005-.345-.006-.066 0 .109.005.114.006-.004 0-.228 0-.026.004.07.002.216.002.469.009-.881-.012-.27 0-.245.002-.018 0-.367 0 .116.005.02.006-.013.001-.157 0-.177 0 .232.006-.417-.001.04.004.559.007.587.008.023 0-.091 0-.05.002.488.007.153.003.294.006.019 0 .473.002.123.002-.64.001-.909-.005-1.017.007.474.003 1.05-.004 1.194-.004h.03l-.965.005.249.003-.338.002c.535 0 .02 0-.114.009.026 0 .285-.004-.08.004.296-.002.202 0 .47-.005-.007.002-.61.013-.848.018.84-.009.361-.012 1.088-.017.122-.004-.159 0-.184 0 .102-.003.34-.004.627-.01.045-.002-.15-.002.142-.004h.215l-.216.002h.2l-.147.001c.058 0 .795-.009-.17.005.802-.013.103-.003-.21.002l-.214.005-.392.007c.051 0 .255-.002-.288.007.34-.002.941-.016 1.275-.02.673-.011-.467.012-.589.016h.054c-.034.002-.68.016-.748.02-.064.003.238-.006.258-.005-.007.001-.765.023-.346.013.293-.008.831-.025.922-.024l-1.29.038.706-.014c-.482.016-.9.025-1.358.044 1.094-.025-.34.02-.373.023.017.001.43-.004.498-.006-.385.018-1.552.066-.87.053-.12.002-.409.022-.42.024.042.005.691-.028.586-.018-.123.012-.297.01-.487.02-.976.046-.71.076-1.688.118l.058.002-.147.006a1.63 1.63 0 0 1-1.168-.438 1.674 1.674 0 0 1-.528-1.168l-.042-1.035a55.373 55.373 0 0 1-.125-2.07c-.005-.109-.014-.647-.013-.688.001-.075.02.338.02.151 0-.04-.029-.946-.042-.885.003.102.022.422.02.474-.007.24-.05-.885-.082-1.727-.209.053-.492.103-.42.08.02.001.249-.055.42-.097l-.001-.005a6.48 6.48 0 0 1-.843.15 5.404 5.404 0 0 1-.715.028 5.015 5.015 0 0 1-1.753-.361c.824.268.002-.018-.218-.122-.041-.023-.067.03-.568-.255a4.218 4.218 0 0 1-.253-.163c-.443-.339-.015-.05-.724-.647.497.514-.047.064-.406-.377a5.7 5.7 0 0 1-.666-1.039c-.054-.106-.153-.263-.212-.412-.04-.102-.056-.184-.106-.339a5.33 5.33 0 0 1-.223-2.252c.024.453.068-.344.09-.378.043-.174-.068.636-.013.318.054-.449.165-.892.33-1.315-.133.32.083-.373.217-.572a.458.458 0 0 1 .026-.038c-.044.017.209-.45.592-.878.375-.437.88-.806 1.007-.908.045-.035-.236.125.24-.198.077-.05.177-.111.303-.18.1-.054.072-.015.123-.045.031-.019.195-.177.42-.235.086-.006-.409.183.697-.203-.296.048.397-.193 1.078-.225.398-.026.78.007.922.028a5.522 5.522 0 0 0-.23-.044c.205.026.32.037.397.044.005-.136.018-.138.017-.256 0-.015-.02.038-.027-.247-.022-.9.015-.002.018.04.004.044.082-.255.062.47h.002c.01-.226.04-.252.042-.28l-.009-.496c-.014-.22-.038-.027-.043-.07-.004-.035.026-.573-.05-.699.068-.257.064.149.077.58.015.062.026-.412.026-.436-.004-.611-.06-.274-.097-.407-.02-.07.018-.319-.032-.09-.009-.554.023-.218.027-.253.006-.054-.01-.248-.008-.273.003-.035.022.088.028-.053 0-.024-.032-.248-.045.043.002-.39-.024-.358.03-.49-.103-.27.058-.196.064-.302.014-.279-.065-.201-.07-.214-.025-.103 0-.882-.011-1.076.057.078.002.619.013.74.038.403.027-.57.1-.277l-.06-.369c.046-.225.067.094.05-.513-.04-.098.005.43-.026.324-.019-.063-.023-.408-.033-.421-.011-.007.003.31-.015.26-.02-.056-.02-.386-.013-.578.015-.284.035-.403.026 0l.005.192c0-.073.007-.135.016-.192.018-.208.064-.373.112-.572l.036-.14c.025-.092-.039.033-.083.128-.037.081-.068.137-.045-.011.032-.133.076-.498.523-1.02.028-.005-.12.16-.238.357a2.495 2.495 0 0 0-.212.431c-.008.032.127-.094.143-.116.022-.034.162-.389.489-.718.46-.519 1.36-.728 1.66-.675l.015.002c-.1-.048.9-.005 1.01-.02.026-.003-.08-.033-.05-.036.194-.018.716.036.958.039.271.003.238-.022.253-.022.118.002.024.019.097.019.112 0 .868.008.906.005.003-.003-.107-.03.053-.034.027 0 .015.032.499.021.588-.013-.409-.045-.164-.078.378.053.366.003.469.008.037.002.3.046.587.046l-.619.015c.203.01.596.003.763.013.081.005.015.038.191.039.039 0 .186-.082-.276-.049-.037-.03.183-.008.285-.015.016-.002.078-.05.207-.019.03.009-.306.15.572.054.026-.003-.07-.023-.043-.027.02-.002.242.007.268.005.024-.002-.082-.023-.053-.026.018-.002.036 0 .054 0-.042-.38-.079-.87-.051-.899.02-.19.012.597.042.446.003-.022-.017-.315.01-.687.026-.592.25-1.355.348-1.562.169-.398.332-.53.26-.57.125-.071.131-.188.16-.235.053-.088.1-.161.141-.224.234-.334.278-.397.593-.753.084-.092.176-.149.205-.182.017-.02-.035-.005.051-.096.106-.149.982-.731 1.067-.735.07-.029-.373.228-.283.201.13-.082.262-.16.395-.23.189-.101.383-.191.589-.268.145-.053.076-.01.14-.033.025-.016.49-.163.512-.171-.053-.028-1.13.365-1.253.451-.018.007-.02.007-.003-.005a.925.925 0 0 1 .05-.031c.073-.046.358-.138.299-.156A5.387 5.387 0 0 1 20.487.54zM39.91 32.169c.009 0 .046.044.007.04-.005 0-.002-.02-.007-.022a.443.443 0 0 0-.061.025c0 .003.014.013.014.016-.001.004-.044.01-.061.018-.03.016-.025.028-.027.03-.007.004-.027.004-.043.012-.075.041-.187.108-.268.12.062-.02.106-.054.157-.086.005.03.062-.058.031-.005.022-.018.235-.142.258-.148zm-6.1.219c.242-.248.438-.569.143-.254-.032.034-.178.272-.143.254zm-4.102-.084c.011-.009.015.024.022.031-.011.009-.016-.024-.022-.031zm-17.886-.011c.251-.013 1.028-.032.194.004h-.093c-.463.016-.341.018-.413.022-.155.01-.131-.002-.393.014.427-.025.05-.006.027-.009-.048-.013.577-.017.793-.03.027-.002-.191.003-.115-.001zm33.868-.496c.144-.108-.43.445-.457.467-.11.085.337-.378.457-.467zm-16.142.376c-.001.007.014.02.02.015.016-.015-.015-.043-.02-.015zm-14.67-.016c-.426.013-.117.001-1.009.03.374-.013.022-.001.094-.004.059-.003.278-.008.151-.006a185.098 185.098 0 0 1 .764-.02zm12.186 0c0 .011.025.026.027.006 0-.008-.016-.016-.027-.007zm-13.902 0c.224.003.132-.003.148-.004h.68c-.15-.002-.98 0-.828.003zm.928-.002h.202-.202zm-1.252-.02c.055.002.092.005.215.005a57.629 57.629 0 0 1-.371-.01c-.096.005.095.004.156.006zm14.176-.016c.002.02.034.03.038.007 0-.005-.03-.014-.038-.007zm2.645-.02c.02-.008.025.023.032.038-.016.006-.025-.026-.032-.038zm10.338-.026c-.004 0-.042.023-.035.032.014-.004.062-.034.035-.032zm-13.139-.02c.011.008.026.011.011.032-.003-.009-.024-.02-.01-.031zm11.773-.077c-.014-.011-.05.072-.06.092a.218.218 0 0 1 .006.007c.018-.033.035-.067.054-.1zm-11.656.03c.003-.002.017-.016.024-.017l-.017-.012c.001.012-.014.03-.007.029zm2.47-.03c-.004-.008-.035.013-.036.015-.006.02.03.003.035-.014zm-2.645-.051c.019-.008.042.043.036.066-.028.012-.06-.056-.036-.066zm11.807.015c-.014.027.003.037-.012.047-.003.002-.039-.02-.012-.039.005-.003.002.025.024-.008zm6.996-.368c.073-.061-.269.294-.38.393-.003-.02.332-.352.38-.393zm-5.182.354c.007.01-.03.02-.038.027-.009-.011.029-.02.038-.027zm-10.901-.017c.019-.023.024.026.034.035-.02.024-.025-.025-.034-.035zm8.696.023c-.098-.108-.11-.155-.162-.199-.018-.014-.036-.002-.095-.052l.257.25zm.53-.197c-.005.006.007.005-.008.027 0 .001-.007-.004-.01 0a.408.408 0 0 0-.046.084c-.001-.001-.003-.002-.004-.001-.016.006-.018.074-.011.07.01-.008.021-.05.018-.065a.029.029 0 0 0 .012-.006c.012-.013.17-.274.048-.109zm1.911.11c.006.02-.03.03-.047.04-.004-.018.032-.031.047-.04zm-32.097-.07c.032.031.227.1.346.109a1.451 1.451 0 0 1-.346-.109zm20.924.067c.011-.008.022.018.03.023-.017.009-.024-.011-.03-.023zm16.272-.451c-.06.086-.3.312-.458.466.06-.087.299-.312.458-.466zm-19.002.435c0 .008.021.037.03.015.009-.023-.029-.027-.03-.015zM8.45 31.692c.036.042.204.127.321.153-.04-.015-.23-.08-.32-.153zm18.349.11c-.012.01.006.042.009.042.032-.005 0-.032-.01-.042zm2.466-.003c.01.009.014.052.034.027-.009-.006-.02-.033-.034-.027zm-20.763-.08c.09.066.302.131.24.104a1.983 1.983 0 0 1-.24-.103zm.266.07a.886.886 0 0 0 .199.024c.125 0 .204.003.114.016l-.114-.005a.936.936 0 0 1-.2-.036zm-.122-.064c.062.032.357.09.23.072a1.01 1.01 0 0 1-.23-.072zm32.147.052a.213.213 0 0 1-.027.016c-.035-.003.036-.043.027-.016zm-32.025.011c-.01-.002-.02-.002-.029-.005-.014-.004-.029-.011-.045-.017l.074.022zm18.006-.038c-.001.015.027.053.028.025 0-.002-.017-.035-.028-.025zm2.624-.067c.11.122.043.137-.016.002.014-.015.01-.01.016-.002zm11.19.044c-.008 0-.025.019-.02.025.014.017.05-.023.02-.024zm-32.184-.13c.045.035.146.106.242.151a.926.926 0 0 1-.242-.15zm18.288.104c0 .002.003.026.016.018.01-.022-.005-.038-.016-.018zm14.197-.038c.023.019-.034.03-.045.043-.024-.019.033-.03.045-.043zm.08-.048c.007.012-.023.026-.03.035-.008-.017.016-.027.03-.035zm-14.597.011c.018-.01.024.01.03.021-.017.01-.024-.01-.03-.021zm.276-.158c-.036.085.004.043.008.042.004.006-.002.035.008.043l-.047-.015c.004.015.043.116.054.107.015-.011-.008-.031-.008-.034.001-.003.038-.046.037-.05-.001-.006-.053-.073-.052-.093zm-.224.169c-.011.01-.029-.01-.027-.017.002-.009.027.005.027.017zm12.374-.03c-.006-.01-.024.028-.024.03.003.01.022-.017.024-.03zm-1.325-.4.417.405c-.152-.156-.427-.463-.417-.406zm3.337.343c-.021-.005-.007.032.012.037.01-.005-.008-.034-.012-.037zm.348-.07c.015.015.01.01.001.019-.151.139-.16.065 0-.018zm-9.01-.28-.301.297c-.244.207.54-.566.301-.298zm-5.796.23c.02-.026.02.027.027.032.002 0 .02-.017.027-.012.002.003-.01.022-.01.024.001.003.042.046.008.049a.515.515 0 0 1-.052-.093zm.203.04c.01-.025.032.015.032.02-.007.019-.041 0-.032-.02zm2.67-.023c.02-.025.04.023.038.032-.011.032-.03-.033-.038-.032zm-.205.011c-.001.004.007.027.017.018.012-.014-.01-.029-.017-.018zm5.775-.02c-.035.047-.004.024.06-.036l-.014-.012-.046.049zM8.15 31.244c-.023-.073.064.139.12.211a.915.915 0 0 1-.12-.21zm18.187.194c.004.018-.022.022-.022.007 0-.001.018-.022.022-.008zm-.096-.078a.053.053 0 0 1 .006.022c-.002.003-.025.02-.018.028.007.007.023-.028.029-.009.006.02-.023.016-.024.018.001.004.025.018.012.03-.01.01-.02-.023-.026-.028-.008-.006-.019.02-.024.003-.002-.011.028-.034.03-.038 0-.003-.036-.018 0-.035l.015.01zm8.625.045.028.03.028-.027-.03-.024-.026.021zm4.032-.022c-.01.008-.008.036.005.022.012-.012-.003-.022-.005-.022zm2.145-.02c-.011.013-.06.024-.034.042.008-.01.04-.027.034-.042zm-6.196.02.012.014.023-.021-.016-.013-.02.02zm-5.992-.072c0 .013.026.028.027.008-.001-.003-.019-.017-.027-.008zm12.59-.037c.026.019-.03.047-.04.046-.035-.008.041-.038.04-.046zm-2.36-.264c-.002.008.014.013.009.021-.017.027-.04.042-.055.068-.001.002.018-.007.006.012-.003.003-.025.01-.037.034.007.09-.053.09-.078.17a.327.327 0 0 0 .045-.041c.038-.05.1-.146.135-.202.009-.014-.002-.015 0-.021.003-.005.015.015.02-.006.002-.01-.03-.004-.03-.013.001-.005.018-.016.016-.027 0-.003-.027-.001-.03.005zm-12.929.238c.02-.008.024.026.029.041-.018.005-.027-.025-.029-.04zm-.023 0c.008.033-.013.023-.032.006.009.002.029-.017.032-.006zm12.737.018c.044-.108.093-.08.026-.006 0 .001-.025.016-.026.006zm-12.599-.041c.002.004.025.056.035.03.001-.01-.05-.094-.034-.03zm-.148.003c-.002.01-.026.004-.026.007-.001.008-.002.013 0 .016-.015-.014-.027-.031-.025-.036.01-.021.017.006.019.009.003-.003.042-.066.032.004zm.187-.025c-.002.01.03.033.032.013 0-.017-.03-.027-.032-.013zm2.578-.16-.017.007c.036.02.048.072.078.106.008.007.023-.025.027-.008.002.015-.012.046-.02.047-.003 0-.005-.033-.015-.04-.028-.023-.043.003-.046.003-.002-.003-.003-.032-.011-.04-.023-.023-.045-.02-.058-.07.03.005.052-.034.062-.005zm-.193.084c-.008.003-.012.043 0 .042.025-.003.017-.048 0-.042zm-2.48.02c-.001.008.015.022.022.013.012-.014-.02-.024-.022-.012zm.151-.019c.01-.006 0-.012 0-.021-.002-.012-.008-.036-.031-.034l.031.055zm-.348-.088c.007.029-.011.01-.015.014-.01.012.022.042.021.055.025-.013-.011-.028-.01-.04 0-.003.061-.019.004-.029zm12.993.014c-.012.019-.04.066-.005.05.007-.004.015-.023.021-.03-.033.012.001-.005-.016-.02zm-12.704.007c.017-.05-.016-.002-.014.025.017-.009.01-.017.014-.025zm2.42-.112v.002c.011-.016.064.039.074.006.026.005-.034.029-.011.03.009-.001.055-.04.054.004 0 .013-.018.017-.02.022-.002.002-.005.044-.024.031-.03-.02.03-.036.018-.05-.002-.002-.05-.003-.053.004.001.001.011.004.01.007-.003.012-.018.024-.02.025.002.004.063.022.048.048-.007.006-.081-.042-.082-.049 0-.004.039-.04.042-.047 0-.002-.04-.015-.04-.022l.002-.005c-.008.016-.03-.009-.017-.021.005-.005.018.012.018.015zm12.731.097c-.005-.001-.032.01-.022.02.014.013.034-.015.022-.02zm-15.218-.02c-.014.005 0 .04.002.04.015 0 .025-.048-.002-.04zm2.423.03c.013-.036-.009-.053-.036-.016.023.02.026-.032.036.017zm10.367-.032c-.004.01.008.042.019.029-.004-.009-.01-.047-.019-.029zm-12.804-.018c-.002 0-.02.034-.007.03.01-.003.014-.027.007-.03zm.09.02c.01-.043-.037-.005-.027.01.004.005.024-.005.026-.01zm12.79-.102c-.003.01-.084.118-.053.11.006-.003.078-.094.053-.11zm-12.87.016c-.004.008.03.026.032.029 0 .004-.025.011-.01.025.005-.006.027-.014.03-.017 0-.011-.043-.061-.053-.037zm12.831-.004c-.01 0-.008.034.008.033.007-.009-.005-.032-.008-.033zm2.877-.16c-.008.035.033.054 0 .069l-.005-.019c-.027.044-.088.064-.13.102-.011.01.025.022.005.028-.017.005-.052-.006-.051-.016 0-.003.037-.01.047-.021.03-.035.001-.049.002-.05.005-.003.038-.009.048-.02.028-.028.028-.052.084-.073zm-2.736.119c-.016.003 0 .022-.002.025-.002.003-.067.05.006.024.004-.002.019-.055-.004-.05zm7.6-.712c.014-.024.04.064.029.14-.004.038-.014.072-.018.088 0 .009.025.022.007.07l-.023.023c-.01.006-.02.01-.02.013-.004.006-.03.05-.07.087-.206.201-.435.421-.267.23.014-.015.112-.113.25-.247a.4.4 0 0 0 .112-.404zm-20.908.697c-.003.02.017.03.019.015 0-.003-.012-.022-.019-.015zm15.746-.04c-.014.003-.035.034-.013.033.004-.002.022-.024.013-.032zm-2.462-.077c-.008-.013-.025.023-.016.039.007-.007.021-.03.016-.04zm2.905-.134c.004.006-.018.022-.02.022h-.003c.018.011-.05.077-.015.084-.009.032-.029-.034-.032-.007-.001.009.037.057-.012.061l-.015-.009c-.003-.005-.004-.01-.007-.011-.002-.002-.049 0-.032-.023.026-.035.036.03.054.014.002-.006.01-.056.003-.06-.001 0-.005.013-.009.014-.014-.003-.025-.019-.027-.02-.005.003-.032.072-.059.06-.009-.004.056-.096.065-.099.004.001.041.04.047.041.004 0 .022-.045.03-.047l.005.001c-.016-.007.014-.035.027-.021zm-2.817.053c-.01.004-.052.075-.022.065.005-.003.054-.076.022-.065zm-13.478-.016c.009.008.027.075.034.07.007-.007-.023-.072-.034-.07zm16.032-.023c0 .029.052.012.047-.005-.004-.009-.047-.008-.047.005zm.154-.092c-.026.029.032.026-.024.043.04.01.062-.017.023-.043zm-2.533-.057c.009.02-.008.035-.018.047-.008-.012.012-.036.018-.047zm-.07-.034c.03.015.015.047-.007.057-.005.002-.04-.006-.032-.029.028.029.057.012.04-.028zm-14.348-.328c.06-.075-.273.268-.367.373-.02.036.355-.359.367-.373zm14.414.282c.027-.074.094.016.014.067l-.005-.017c-.074.078-.01 0 .001-.026.004-.01-.013-.015-.01-.024zm.07-.061c0 .005-.029.018-.034.029-.01-.032.04-.062.035-.03zm-2.758.011c-.189-.207-.565-.56-.406-.375.037.043.387.373.406.375zm-11.118-.056c-.002-.025.026-.031.023-.006-.001.004-.021.04-.023.006zm14.007 0c0 .01-.026.012-.03-.001-.005-.018.03-.002.03 0zm-.022-.105c.098.002-.017.07-.033.108-.001-.052.03-.087-.032-.058.049-.078.05-.033.054-.03.005-.001.007-.02.011-.02zm.082-.022c.032.003 0 .095-.024.098-.012-.011.02-.098.024-.098zm7.04-.05c-.002-.004.017-.034.042.037.019.081-.023.011-.042-.037zm-21.498-.19c-.02.027.15-.114.238-.213a.085.085 0 0 1-.006-.035c-.112.119-.207.217-.232.248zm.207-.31c-.288.303-.395.414.003.01l-.003-.01zm19.849-.972c.059.043.371.375.44.453.012.014-.065-.019.08.127.115.117-.032-.083.188.152.222.237-.096-.057-.078-.037.025.03.385.38.36.382-.019 0-.386-.392-.48-.486-.121-.12.005.045-.189-.163-.122-.13-.025-.09-.049-.117-.02-.024-.473-.458-.272-.31zm-18.453.957c.022-.008.052.026.039.029-.006-.002-.048-.023-.04-.029zm9.136-.008c-.103-.114-.47-.472-.321-.301.065.073.287.288.321.301zm4.506-.255c-.07.018.151-.189.067-.027l-.007-.04c-.022.009-.038.032-.026.045a.026.026 0 0 0-.008-.004c-.004 0-.014.022-.026.026zm-12.845-2.01c-.12.117-.48.507-.551.598a4.408 4.408 0 0 0-.134.128l-1.185 1.226h.02l.097-.096c.063-.064-.03.017.225-.246.017-.017.031-.02.083-.074.12-.124.757-.78.881-.918a.163.163 0 0 0 .03-.025c.165-.155.624-.682.534-.593zm12.912 1.822c.025.021-.022.04-.032.045-.008-.013.013-.06.032-.045zm.13-.104c0 .002-.02.018-.023.02-.034-.003.026-.054.024-.02zm.23-.131c-.012.002-.033.033-.01.032.009-.001.02-.02.01-.032zm.049-.06c-.024.004-.038.04-.012.042.006-.002.019-.034.012-.043zm.147-.033c.005-.007.01-.015.016-.021-.013.002-.032-.013-.031-.005 0 .002.015.018.015.026zm-.055-.151c-.009.013-.014.03-.036.016.01-.004.026-.03.036-.016zm.153-.081c.006.02-.054.052-.08.047-.009-.03.072-.073.08-.047zm.139-.017c-.011-.012-.048.012-.048.015.001.035.035-.003.048-.015zm.061-.034c-.017 0-.063.036-.031.033.004-.001.041-.023.031-.033zm-.083-.014c-.01 0-.044.028-.02.035.025.007.033-.035.02-.035zm.063-.045c-.016-.003-.014.03.01.034.007-.003-.008-.032-.01-.034zm.085-.04c-.003-.001-.028.006-.021.02.023.008.043-.011.021-.02zm3.199-.598c.042.046.69.73.573.576-.041-.054-1.242-1.298-.573-.576zm-3.005.492c-.016.005-.136.063-.128.075.01.015.035-.01.039-.013.004.002.047.035.052.034.009-.003.09-.068.112-.069-.094-.03-.046.012-.049.015-.007.004-.039 0-.049.013l.023-.055zm2.136.02c.006.025-.037.063-.038.048.002-.005.033-.058.038-.048zm1.044-.395c.06.072.55.556.399.383-.132-.151-.499-.5-.4-.383zm-3.403.388a.11.11 0 0 1-.018.014c-.032-.005.02-.042.018-.014zm.308-.09c.025.009-.02.036-.027.038-.02-.006.004-.046.027-.039zm-.15-.16c.01 0-.008.03-.022.033-.01-.012.014-.033.021-.034zm-.002-.027c.007.018-.016.029-.03.037-.008-.019.016-.028.03-.037zm.222-.048c.026.019-.03.025-.039.034-.001.002.016.022.009.03-.003.003-.021-.008-.024-.01-.004.003-.06.056-.057.016 0-.006.096-.062.111-.07zm-.012-.038c.003.001.023.017.005.023-.02.007-.022-.021-.005-.023zm.351.018c.006.01.014-.002.024-.004.013-.003.04-.013.041-.038l-.065.042zm-.077-.055c-.01 0-.04.038-.019.037.02-.001.034-.035.019-.037zm-.02-.04c-.004.001-.067.034-.04.042.01.002.114-.067.04-.042zm.21-.004c-.006.005.002.027.01.028.045.006.008-.04-.01-.028zm-.056.01c.007.019.017.01.026.012.054.014.005-.016-.026-.011zm-.368-.066c.012-.004.034.026.039.028.003-.002.024-.041.039-.002.003.011-.028.025-.038.026-.002 0-.02-.025-.03-.015-.008.008.029.02.007.03-.022.01-.014-.023-.017-.025-.003 0-.023.031-.036.017-.008-.01.03-.026.035-.033.008-.01-.02-.018 0-.026zm.54-.016c-.01-.003-.034.037-.038.039-.004 0-.01-.026-.026-.008.007.005.012.03.016.031.012 0 .072-.054.047-.062zm-.098.015c-.003-.014-.043.004-.045.007-.004.018.051.023.045-.007zm-.134-.013c-.008 0-.025.02-.016.027.014.01.028-.026.016-.027zm.124-.01c.002.012.031.012.034.004-.001-.003-.036-.018-.034-.003zm-.23-.042c.005.021-.033.029-.05.036-.004-.019.032-.032.05-.036zm0-.063c-.003.011.015.03.003.036-.039.013-.025-.012-.002-.036zm.047-.037c.024.008-.01.021-.011.023.001.003.068.04-.009.037-.011 0-.001-.028-.005-.03-.008 0-.014 0-.017.002.017-.017.037-.033.043-.032zm2.176-.444.475.492c.036.02-.096-.107-.18-.202a9.735 9.735 0 0 0-.289-.306l-.006.016zm-1.984.347c-.013-.011-.05.028-.066.03.013.026.034-.016.046-.017.004.002.014.067.033.001-.033.012-.011-.01-.013-.014zm.209-.139c-.022-.002-.036.022-.022.023.004 0 .029-.017.022-.023zm-34.25-.22c.002-.02.044-.162.021.127-.016.215-.041.049-.021-.127zm34.503.073c-.01.011-.084.04-.082.047.006.008.085-.035.082-.047zm-14.744-.345c-.012.012-.35.358-.298.317.077-.06.396-.412.298-.317zm15.167.124c.029-.005.033.025.005.025-.004 0-.044-.018-.005-.025zm.259-.1-.024.008c-.026 0 .038-.024.024-.009zm.28-.115.022.021.016-.007-.022-.022-.016.008zm-.206-.211a4.5 4.5 0 0 0 .206.211l.016-.008c-.11-.111-.271-.261-.222-.203zm.135-.042c-.25-.32-.155-.144.083.122.09.064-.041-.07-.083-.122zm-14.986-.298c.03-.03.157-.099-.167.217-.058.057.154-.18-.23.215.285-.297.21-.25.397-.432zm14.099-.207c-.1-.131.233.226.24.233.017.01-.147-.258.335.308.07.083-.214-.185-.189-.155.053.062.097.11.132.147a20.062 20.062 0 0 1-.518-.533zm.675.246c-.257-.31-.362-.332-.152-.116.082.084.188.16.152.116zm-.688-.616c-.09-.073.316.357.343.382.159.147-.163-.237-.343-.382zm-14.548-.08c.078-.057-.443.432-.468.454-.164.147.318-.321.468-.453zm14.247-.229a.94.94 0 0 0 .19.23c.074.06-.104-.149-.19-.23zm-.453-.532c.039.051.513.51.536.536.03.035-.134-.1.117.152-.008-.02.149.109.124.08-.072-.086-.884-.91-.777-.768zm-11.945-.492.256.273-.256.239-.531.563c.014-.022.287-.316.526-.568l.25-.236-.25-.266a9.64 9.64 0 0 1-.371-.36l.376.355zm12.173 1.015c-.222-.206-.138-.202.03 0 .006.009-.022.008-.03 0zM6.29 25.2c.099-.023-.665.028-.463.03.047.005.367-.016.463-.03zm34.525-1.163c.307.332-.026-.005-.028.001.002.026.541.565.653.692.113.075-.347-.366-.428-.46l-.001-.001c-.023-.028.427.347-.197-.232zm-32.834.654.006.004.008-.004-.006-.003-.008.003zm-5.055-.207c.01.017.281.179.289.163-.003-.005-.26-.147-.275-.157a.1.1 0 0 0-.014-.007v.001zm25.589-.666c.008.009-.093-.11.131.126.02.02.05.067.336.363.058.06.152.147.149.142-.287-.325-1.21-1.245-.616-.63zm-21.547.23.005.005v-.01l-.006-.002v.008zm22.205-.486c.373.338.122.127.132.137.025.026.29.265.225.217l.001.001c-.346-.308-.388-.382-.358-.356zm-1.402-.548c1.663 1.74.662.681-.041-.048.042.044-.003.002.04.048zm-20.948.575c-.095.041-.651.105-.668.106-.002.023.63-.07.668-.106zm-2.048-.063c-.098-.043-.28-.1-.217-.066.015.01.22.079.217.066zm23.317-.203c-.186-.2-1.55-1.625-1.614-1.69-.019-.018-.035-.027-.027-.019.067.073 1.445 1.51 1.64 1.71zM2.966 22.246c-.064-.034.156.205.196.254l-.073-.04c-.02-.005.001.023.167.166-.155-.174.019 0 .02-.008 0-.016-.269-.295-.31-.372zm24.213.024c.114.13.265.256.071.056-.058-.06-.083-.07-.071-.056zm-24.812-.406c.092.177.244.387.22.325-.012-.027-.17-.26-.207-.333a.247.247 0 0 1-.01-.018c-.008-.023.063.067-.026-.102-.005.012-.07-.075-.065-.056.007.02.041.097.088.184zm36.03-.303c.133.157.401.416.312.31a5.293 5.293 0 0 0-.312-.31zm-36.012.127c-.03-.04.01.083.044.142l.007.01c.002.004.002-.002 0-.014a.377.377 0 0 0-.051-.139zm24.463-.262c.094.08.154.136.405.378-.375-.355-.033-.02-.405-.378zm-.703-.729.023.023c.094.082 1.08 1.02 1.136 1.075.288.283-1.055-.993-1.096-1.032l-.04-.041a9.695 9.695 0 0 1-.333-.318l.31.293zm-23.897.674c-.05-.105.005.162.084.262.037.05-.078-.242-.084-.262zm22.974-1.046c.071.075.054.054.062.062.124.13.03.035.106.115.051.055 1.055 1.099.906.953-.108-.105-1.478-1.55-1.698-1.781.202.202.358.373.624.651zm-22.88.712c-.009-.054.062.126.06.11a1.383 1.383 0 0 0-.02-.098c.051.166.12.334.122.351.011.084-.068-.146-.07-.153-.002-.006-.014.077-.043 0 .03.087.066.19.065.197-.01.017-.128-.274-.102-.306.004.017.015.044.026.077a1.735 1.735 0 0 1-.038-.178zm22.876-.752c-.234-.262.272.27.436.457l.219.214c.103.135.171.162.39.412.322.3-.843-.876-.973-1.036 1.252 1.297-.816-.87.04.054-.713-.753-.238-.243-.351-.356-.113-.113-.471-.487-.507-.52.248.26.497.517.746.775zm-23.12.905c.035.22.111.243.057.09-.02-.06-.062-.12-.057-.09zm-.016-.264c-.032-.052-.01.045-.007.082.016.223.038.107.007-.082zm.062-.14c-.018.017.067.282.062.222a1.158 1.158 0 0 0-.062-.222zm.155.069c-.04-.258.003-.07.07.149-.026-.069-.054-.063-.07-.15zm13.409-1.39c-.403.436-.021.026-.1.111-.063.069-.301.322-.162.175-.183.193-.972 1.04-1.008 1.077l.002-.002.178-.191c.46-.495.128-.134 1.09-1.17zm-13.76.705c-.013-.02-.005.079-.006.147-.002.078.012.288.059.425a3.85 3.85 0 0 1-.054-.572zm.25.114c.02.074.037.322.052.43-.036-.07-.05-.307-.052-.43zm-.112-.555a2.136 2.136 0 0 0-.02.261c-.007.235.017.493.016.161 0-.01 0-.08.003-.16.004-.146.022-.325 0-.262zm-.056.024a1.141 1.141 0 0 0-.009.237c.004.057.011.09.016.055a.582.582 0 0 0 .003-.055c0-.112.009-.335-.01-.237zm-1.72-.205c-.005.07-.018.33-.012.442a.226.226 0 0 0 .005.053.177.177 0 0 0 .006-.053c.003-.12.015-.404.002-.442zm2.108-.613c.009.01-.078.262-.088.328-.015.082.03-.013-.005.124-.02.086-.05.032-.056.05-.008.015-.027.327-.052.2-.009-.039.035-.262.053-.312.003-.008.025.034.045-.065.018-.08-.045.032.001-.123.05-.155.014.059.02.046.005-.021.064-.261.082-.248zm13.93-.082c-.164.171-.565.584-.746.773a83.46 83.46 0 0 0 .908-.943c-.251.254-.143.15-.161.17zm19.676.227c.241.255.51.54.52.542.005-.003-.27-.295-.515-.55a5.46 5.46 0 0 0-.36-.35c.054.049.202.196.355.358zm-12.54-.615c.095.1.188.195.27.28.119.123.03.035.021.026v.002c.17.178.396.4.032.022-.097-.097-.12-.12-.198-.201-.191-.2-.172-.189-.132-.15-.16-.16-.83-.853-1.217-1.254.34.353.89.926 1.223 1.275zm-.482-.522c.62.636.383.4.492.515.23.244.16.149.131.118-.12-.125-.537-.546-.623-.633zm-20.47.504c.07-.121.028.01-.02.091-.003.007-.04.018.02-.09zm14.356-.113c-.059.054-.1.09-.21.2.129-.125.26-.246.393-.364.11-.106-.113.098-.183.164zm-13.828-.67a4.68 4.68 0 0 0-.439.593c-.044.072-.075.13-.087.152-.026.012.018-.073.073-.159.044-.068.093-.137.112-.168.007-.012-.01-.035.033-.102l.036-.032c.014-.009.026-.015.03-.02.007-.026.355-.44.242-.265zm19.648.004a681.234 681.234 0 0 0 .646.679c.02.02-.085-.097.041.032-.247-.253-1.353-1.407-1.416-1.473.032.035.214.228-.238-.246.382.405.91.948.967 1.008zm14.027.014c.068.05.223.19.362.327.17.17.32.326.26.274a25.844 25.844 0 0 1-.27-.262c-.183-.178-.384-.36-.352-.34zm-33.058-.476c-.03.045-.161.138-.243.209.024-.049.153-.147.243-.209zm.037-.056c.002.016-.18.153-.207.172-.042.024.14-.137.207-.172zm-.04-.239c.067-.026-.2.176-.27.212-.09.037.254-.212.27-.212zm29.587-.075c.016.012.026.022.025.027-.044-.033-.047-.038-.025-.027zm-12.265-.957.406.415-.272-.28.283.288-.085-.087.528.536-.06-.063c.02.021.141.143.16.16l-.614-.625c.011.01.646.652.053.05l-.155-.154c-.09-.09.379.376-.193-.195 1.065 1.063.133.131.292.288l.477.473-.216-.216c.02.02.341.335.265.258l-.454-.448c-.155-.154.035.033.002 0l-.268-.262.383.373-.105-.104c.217.21.675.66.234.226l-.2-.195c-.103-.101.207.2.263.252a286.573 286.573 0 0 0-.715-.694l-.009.004zm-15.882.496c.022-.026-.251.034-.267.04-.013 0-.072-.043-.099-.038-.053-.009-.78.275-.889.347.337-.087.278-.12.305-.134.058-.026.202-.062.312-.105a3.777 3.777 0 0 0-.363.183c.093-.07.98-.302 1.001-.293zm1.8.144c-.01.01.28.129.29.135.174.047-.164-.1-.29-.135zm.127.085c-.077-.056-.33-.105-.269-.078.045.016.344.128.269.078zm-.597-.226c.085.021.49.142.325.074-.019-.01-.323-.091-.325-.074zm-.07.013c-.057-.014-.134.01-.128.012.056.02.217.024.127-.012zm-.93-.057c-.069.003-.22.006-.271.018-.144.034.22.002.27-.018zm.377.007c-.073-.025-.28-.017-.218.003.01 0 .187.01.218-.003zm15.053-.439c-.182.06-.97.447-.771.357.028-.018.655-.313.771-.357zm.412.28c.037.037-.156-.163-.166-.174l.227.232-.352-.361.291.303zm9.22-.582c-.308-.108-.058-.063.191.037.029.012.22.114-.191-.037zM8.62 14.726c.028.126.001.908-.022.8-.02-.088.001-.67.022-.8zm14.828.432c-.154.04-.536.12-.773.185.256-.07.514-.13.773-.185zm-.2-.004c-.107.013-.47.106-.7.171.084-.016.471-.124.7-.17zm1.14-.16c.171-.019-.332.055-.524.084a8.43 8.43 0 0 1 .525-.085zm2.77-.073c.018 0 .295.023.305.025.252.032-.598-.039-.306-.025zM8.661 13.73c-.004.09.004.344-.014.33-.002-.14-.011-.283.014-.33zm-.155-.046c.007-.09.03-.117.025-.16-.002-.014-.024-.017-.03-.066l.005.226zm.077-1.351c.013-.177-.003-.502-.021-.35-.005.034.01.339.021.35zm24.741-.884c.002-.028.01-.2-.006.216l.03-.882c.001-.045.001.009.002.018l.02-.61c-.002.011-.007.06-.006-.033-.004.224-.038 1.239-.04 1.291zm-24.763-.075c-.007.062-.002.258.013.278.008-.097.002-.421-.013-.278zM33.369 9.79l-.003.179c-.005.173-.012.16-.014.126.001.144-.016.751-.025 1.102l.037-1.115.006-.246c.004-.107.004-.031.004-.022l.004-.195c0-.027-.004.006-.009.171zm-26.765.677c-.032-.134-.023.552.014.613.005-.092-.01-.595-.014-.613zm26.778-.193c-.006.143-.018.438-.018.374.011-.252.029-.808.027-.579-.002.115-.009.19-.01.205zm-.04-.305c-.003.11-.006.485-.007.561.01-.56.011-.35.016-.45.01-.211-.007-.138-.008-.111zM6.63 9.604c.004.218.093.449.079.177-.002-.028-.066-.2-.08-.177zm26.73-.495a11.28 11.28 0 0 0-.007.394l.01-.394V9.1c-.002-.074-.002-.053-.004.01zm-24.698 0c.009.095 0 .454-.016.284l.002-.268.003-.016c.005-.007.009-.006.011 0zm24.664-.433c.014.036.068.27.059.433-.003.128-.003.206.002.077l.002-.077a1.488 1.488 0 0 0-.063-.433zm-.282.087c.055.124.075.296.074.302a1.711 1.711 0 0 0-.076-.29l-.066-.149c.014.023.042.074.068.137zm.35-.005c.03.13.039.234.035.28a1.989 1.989 0 0 0-.035-.28zm-.012.061.014.087c-.004-.024-.01-.053-.014-.087zM8.885 8.808c-.007.013-.082.07-.099.058-.027-.025.079-.061.099-.058zm24.484-.079.013.09a1.438 1.438 0 0 0-.042-.172c.009.025.018.053.03.082zM8.967 8.723l-.008.005h.008c.19.007.411.002.418-.015a.102.102 0 0 0 .03.009c.02.002.229-.006.32 0 .3.019-.357.026-.768.018-.087 0-.15-.004 0-.04l.192-.007-.192.03zm23.823-.394c.065.06.12.131.13.15a1.185 1.185 0 0 0-.132-.148c-.034-.032-.063-.054-.062-.056l.064.054zM6.947 8.027c-.013.011-.152.3-.151.317-.102.354.188-.376.151-.317zm26.33.398.002.005c-.001-.004-.004-.007-.006-.011l.004.006zm-.82-.726c.046.013.349.122.584.38.1.099.175.22.232.34-.03-.058-.025-.041-.028-.048-.064-.11-.012-.03-.054-.097-.008-.012-.063-.097-.153-.193-.205-.25-.685-.417-.581-.382zm-.447.39c.232-.03.567.124.575.14l.025.017a.883.883 0 0 1 .187.15 1.244 1.244 0 0 0-.173-.139l-.015-.01c-.036-.032-.379-.18-.6-.151l-.208.007c-.1 0 .022-.006.209-.014zm-7.924-.474-.356.682.807.032a5.81 5.81 0 0 0 .305-.009c.052-.01-.195-.004-.305.002l-.798-.031.352-.673.009-.021c0-.006-.006.002-.014.018zm-8.625.665.003.011.009-.016-.004-.007-.008.012zm11.793-.08c-.105-.002-.44.019-.513.032a1.859 1.859 0 0 0-.117-.003c-.104-.001-2.791.073-.98.042.055 0-.02-.009.21-.014.015 0 .023.008.07.007.11-.003.687-.016.803-.027.002.002.01.003.025.004.143.007.582-.041.502-.042zm.908 0c.027 0 .112.04-.172.034-.05 0 .148-.019-.198-.011.26-.009.205-.028.37-.024zm-.576-.007c-.01 0-.316.006-.274.014.062.012.359-.011.274-.014zm2.273-.016c.291-.027.343-.004.319-.002-.303.023-.13-.001-.12-.004-.023 0-.248.018-.198.006zm3.143-.06c.014.01.026.026.041.043l-.04-.045c-.041-.042-.034-.033-.001.002zm-.516-.388c.149.06.376.188.54.364.012.011.022.023.033.035l-.03-.037a1.545 1.545 0 0 0-.543-.362zm-7.455.306.026.04.004-.009-.026-.039-.004.008zm7.112.014-.133.005-.19.006c.224-.01.151-.01.19-.013.015 0 .049-.005.133.002zm.356-.24c.136.06.3.157.326.181a1.428 1.428 0 0 0-.326-.181zm-.019-.01zm-.149-.147c.072-.003.211.066.325.128a1.45 1.45 0 0 0-.325-.128zM9.24 6.634h.001c.098.01-.013.024.005.03.016.002.307.034.058.038-.387.007-.037-.046-.243-.048l-.093.007c-.235.002-.593.098-.563.1a2.31 2.31 0 0 1 .26-.05c.137-.004.073.023.092.022.016 0 .096-.01.21-.012.192-.007.563-.02.63.003.009.005-.337.014-.63.02-.373 0-.687.107-.719.115-.045.012-.044-.045-.092-.035-.039-.019-.706.37-.765.46l-.053.041c.033-.022-.008.018-.071.083-.124.12-.298.354-.298.337a2.098 2.098 0 0 1 .328-.39l.016-.012c-.044.028.231-.249.55-.41.312-.167.634-.232.456-.206.466-.12-.057.05.292-.032.076-.013.148-.053.357-.066.063-.006.15-.007.272.005zm22.405 1.044c-.108-.01-.232.006-.056.01.052.002.067-.009.056-.01zm.366-.053c.149.005.25.03.266.032.019.004.032 0 .024-.002-.02-.004-.13-.033-.29-.038-.392-.014-1.11-.036-1.242-.038.13.008.86.033 1.242.046zm-.922-.05c-.038-.001 0-.003-.04-.005-1.519-.054-.6-.013.04.005zM7.875 7.083c-.199.076-.45.267-.549.386-.054.063-.07.097-.026.073.017-.019.034-.036.049-.05.36-.317-.142-.002.526-.409zm21.926.434c.273.026 1.094.025.556.01-.01 0 .093.014-.115.005-.017 0-.05-.013-.311-.02a1.538 1.538 0 0 0-.13.005zm-1.963-.119c-.14-.012.285-.003.411.01.059.014-.386-.008-.411-.01zm-3.276-.104h.01l-.026-.04h-.009l.026.04zM9.132 6.835c-.039.008.24.04.321.03.183-.02-.241-.046-.321-.03zm2.975.004c-.024-.002-.284 0-.277.014.098.008.424 0 .277-.014zm2.44.002c-.006-.018-.31-.013-.269-.001.02.004.27.015.269 0zm.429-.071h.015l-.002-.005h-.014v.005zm-.04-.004c.007 0 .014 0 .021.002v-.003h-.021zm1.485 0h.009l.01-.015c-.003 0-.006-.002-.008-.003l-.011.019zM9.98 6.64l-.077.016c.438-.012.943.017 1.447.02.126 0-.02-.034.148-.024.134.009.281.041.21.048-.018.002-.292-.02-.429-.02-.4.005-.303.035-.325.036-.026 0-.28-.022-.419-.022-.349.001-.51.019-.986-.006.275-.02.125-.062.431-.048zm4.974-.212c-.043-.307-.017-.015.015.286h.012c-.007-.066-.012-.178-.027-.286zm9.43-.599c0 .101.018.253.02.1 0-.134-.019-.109-.02-.1zm-9.189-1.018c-.03.139-.093.504-.082.57.01-.174.12-.61.082-.57zm8.885-.088c-.005-.036.074.107.15.472.004.015.03.222.014.175-.082-.397-.163-.61-.164-.647zm-8.71-.954c-.014.077-.285.62-.417 1.562-.02 0-.016.006.002-.136.173-1.122.456-1.498.415-1.426zm7.735-.567c.047.041.014-.012.065.035.167.158.293.318.423.49-.006-.011-.058-.097.03.02.009.012.037.06.08.13l.117.193c.267.358.357.683.491 1.23a4.033 4.033 0 0 0-.1-.458 3.779 3.779 0 0 0-.92-1.538c-.089-.09-.055-.038-.094-.075-.031-.03.022-.011-.09-.101-.053-.042.085.113.047.086-.023-.02-.13-.125-.173-.15a1.25 1.25 0 0 0 .123.138zm-5.858.986c.003.01-.197.57-.195.594-.08.142.101-.484.195-.594zm.208-.196c-.006.016-.005.02.008.005.018-.02.057-.073.132-.167-.048.07-.085.13-.114.178-.193.335-.113.149-.126.164-.017.026-.053.122-.065.14-.19.295-.05-.048.136-.338.075-.12.155-.228.2-.293a4.355 4.355 0 0 0-.17.311zm6.25-.079c-.018-.006.135.224.157.243a2.516 2.516 0 0 0-.158-.243zm-.177-.23c.127.201-.013-.017-.029.002.044.055.113.148.162.218.063.09.099.137.024 0a3.036 3.036 0 0 0-.157-.22zm-6.006.113c-.024.06-.11.126-.105.114.027-.055.123-.162.104-.114zm.173-.14c.091-.115.018.032-.038.087-.02.02.015-.059.038-.088zm5.64-.165c.048.05.142.117.058.017-.023-.015-.16-.124-.057-.017zm1.45-.44.062.101c.072.119.17.303.18.306a3.67 3.67 0 0 0-.17-.312c-.071-.116-.128-.194-.072-.095zm-2.135-.167c.03.004.136.092.256.196-.039-.023-.066-.028-.06-.02.043.042.154.119.124.076.207.182.42.38.339.288-.006-.047-.671-.611-.659-.54zm-6.785.281c-.165.222-.11.233-.01.06.036-.06.016-.067.01-.06zm7.096-.046c.005.006.006.013.009.017l-.064-.056c.017.01.036.023.055.04zm-7.02-.085-.037.053c-.046.083-.002.043.057-.041.042-.06.094-.14.13-.215-.039.056-.108.145-.15.203zm2.796-.302a2.255 2.255 0 0 0-.119.076c-.059.04 0 .024-.052.061l-.126.095c-.25.173-.191.015.284-.256l.051-.026-.044.04-.004.004.005-.003c.561-.28.228-.119.005.01zm-2.657-.16c-.032.069-.167.244-.26.385l-.025.035a.18.18 0 0 1 .018-.039c.051-.092.205-.3.267-.382zm7.993-.494c-.143-.12.072.089.26.312.19.22.354.455.246.282a6.204 6.204 0 0 0-.506-.594zm-1.757.491c-.023-.02-.368-.153-.236-.077.092.053.118.04.14.051l.095.05c.132.077.324.192.01-.019l-.009-.005zm-3.142-.092c-.02.02-.231.112-.302.153.04-.043.195-.112.302-.153zm.183-.003c.036-.01.169-.02.03.035-.008-.041-.234.027-.322.111-.079 0 .138-.108.292-.146zm-2.923-.134c-.08.083-.106.175-.096.166.091-.083.182-.239.096-.166zm5.085.058c-.027.005.234.075.271.074a1.275 1.275 0 0 0-.27-.074zm-.398-.13c-.024-.02-.678-.05-.453-.019.071-.004.655.066.453.02zm-4.23-.52c.047-.006-.363.325-.48.468-.054.006.336-.354.48-.468zm1.042-.717c.099-.038.013.008-.096.066-.145.075-.326.178-.195.089a4.197 4.197 0 0 1 .29-.155zm3.542-.386c.026-.012.354.081.471.119-.022.005-.348-.099-.471-.12zm-1.73-.147c-.095.026-.477.08-.654.127.109-.05.44-.105.654-.127z"/></g><defs><clipPath id="a"><path fill="#fff" d="M0 0h48v48H0z"/></clipPath></defs></svg>