<svg width="52" height="53" fill="none" xmlns="http://www.w3.org/2000/svg"><g filter="url(#a)"><rect x="2" width="48" height="48" rx="24" fill="#fff" shape-rendering="crispEdges"/><path d="M26.084 25.63c.053-.658 1.055-.807 1.155-.156.089.583-.016 1.12-.279 1.644-.25.502-.882.268-.93-.189-.046-.451-.013-.72.021-.994.012-.098.025-.197.033-.305zM33.71 25.339c.14-.183.342-.308.583-.238.755.22.533 1.293.268 1.815-.144.283-.61.355-.82.106-.343-.407-.508-1.22-.072-1.62a.556.556 0 0 1 .041-.063zM26.95 22.751l.119-.02c.368-.065.827-.126 1.088.17.138.158.186.45 0 .601-.244.197-.506.19-.787.184-.096-.003-.194-.005-.294 0a4.293 4.293 0 0 0-.945.162c-.683.195-1.24.551-1.823.943-.076.051-.154-.047-.118-.118.337-.66.99-1.202 1.643-1.532.349-.177.73-.323 1.116-.39zM30.125 34.447a2.588 2.588 0 0 1-1.086-.836.502.502 0 0 1-.102-.39.564.564 0 0 1 .612-.459c.119.019.237.084.331.22l.02.027c.166.224.381.408.627.526.237.115.502.168.776.137.523-.06.883-.342 1.265-.725a9.85 9.85 0 0 0 .143-.15.224.224 0 0 1 .118-.09.259.259 0 0 1 .291.1c.03.042.047.095.041.157-.035.397-.242.752-.538 1.03-.328.31-.762.525-1.171.6-.451.082-.91.023-1.327-.147zM21.776 15.576c.095-.058.194.056.146.147-.173.335-.436.631-.692.92-.082.093-.165.185-.243.278-.331.393-.66.789-.989 1.185a61.735 61.735 0 0 0-1.948 2.468l-.165.222c-.551.742-1.096 1.495-1.577 2.283-.252.412-.474.838-.676 1.277-.082.177-.144.37-.207.564-.086.262-.171.525-.304.751-.015.025-.06.023-.065-.008-.071-.398.089-.871.219-1.255l.024-.073c.158-.47.383-.919.624-1.352.502-.903 1.104-1.75 1.708-2.586a47.43 47.43 0 0 1 1.92-2.488c.314-.38.635-.75.966-1.115l.124-.136.181-.2c.29-.323.591-.66.954-.881zM20.17 14.263c.157-.116.291.122.191.248-.451.57-.95 1.095-1.448 1.622-.163.17-.325.342-.485.514a31.437 31.437 0 0 0-1.797 2.106c-1.157 1.485-2.082 3.116-2.866 4.824-.015.032-.062.008-.055-.023.416-1.848 1.386-3.526 2.492-5.043l.042-.058c1.118-1.525 2.403-3.058 3.927-4.19z" fill="#424257"/><path fill-rule="evenodd" clip-rule="evenodd" d="M23.291 7.597c1.406-.329 2.88-.26 4.272.101 2.76.717 5.03 2.582 6.913 4.662a25.737 25.737 0 0 1 4.456 6.857l.056.128c.783 1.785 1.462 3.641 1.492 5.607.025 1.692-.146 3.455-.691 5.064-.486 1.434-1.38 2.878-2.916 3.222-.2.508-.443 1.001-.723 1.472.091.551.158 1.277.02 1.784a7.095 7.095 0 0 1-1.18 2.36c-.487.65-1.1 1.189-1.86 1.487-.991.39-2.174.28-3.208.18a16.954 16.954 0 0 1-3.791-.83 22.708 22.708 0 0 1-1.813-.705 82.324 82.324 0 0 0-.262-.113c-.505-.217-1.024-.44-1.49-.72-.4-.24-.748-.596-1.08-.934a30.8 30.8 0 0 0-.177-.18 23.35 23.35 0 0 1-1.276-1.373.622.622 0 0 1-.074.034c-.444.167-.903-.267-1.222-.568l-.072-.067a5.67 5.67 0 0 1-.551-.598 1.904 1.904 0 0 1-.496.016 5.52 5.52 0 0 1-.756-.14c-2.059-.542-3.583-2.256-4.405-4.164-1.104-2.563-1.079-5.516-.62-8.226.839-4.951 3.553-9.576 7.652-12.503 1.148-.82 2.42-1.529 3.802-1.853zm-4.512 26.15a3.439 3.439 0 0 1-.169-.662c-.191-1.248-.013-2.558.157-3.81l.04-.302c.005-.042.071-.065.085-.021l-.003-.07c-.005-.101.142-.115.169-.024.334 1.104.878 2.11 1.662 2.959.976 1.057 2.199 1.822 3.415 2.583l.381.24a.322.322 0 0 1 .157-.084c.194-.871.834-1.68 1.467-2.232 1.137-.989 2.694-1.632 4.257-1.754a4.738 4.738 0 0 1-.429-.285c-.37-.299.079-.958.478-.701l.064.049c.449.347 1.27.982 1.849.375.516-.723-.215-1.403-.695-1.695-.125-.09-.026-.39.243-.343 1.575.27 1.606 2.12.592 2.774a4.96 4.96 0 0 1 3.225 2.59c.077-.167.15-.337.22-.507a.575.575 0 0 1-.024-.156c0-.12.057-.19.12-.265a.64.64 0 0 0 .136-.224 8.62 8.62 0 0 0 .186-.674c.118-.515.185-1.037.225-1.563.014-.195.019-.394.023-.596.005-.241.01-.485.034-.724a23.01 23.01 0 0 0-.07-1.053c-.101-1.13-.308-2.255-.706-3.32l-.005-.011a.09.09 0 0 1-.012.019l-.005.006-.002.003-.002.003c-.012.016-.026.036-.079.052a2.853 2.853 0 0 1-.602-.228l-.178-.088a4.917 4.917 0 0 0-.64-.273 7.528 7.528 0 0 0-1.456-.321.598.598 0 0 1-.292-.111.44.44 0 0 1-.164-.25.447.447 0 0 1 .05-.373.472.472 0 0 1 .231-.198.54.54 0 0 1 .31-.026l.092.018c.863.18 1.952.518 2.53 1.245a8.268 8.268 0 0 0-1.62-2.313c-.82-.833-1.733-1.56-2.647-2.286-1.01-.803-2.02-1.605-2.901-2.552l-.088-.095-.006-.002-.081.083-.543.558-.953.974c-1.944 1.99-3.872 3.999-5.563 6.213a29.332 29.332 0 0 0-2.603 4.029c-.357.67-.68 1.359-.973 2.06l-.115.28c-.137.335-.285.709-.367 1.087.162.16.295.372.424.576.066.105.13.207.197.3a8.262 8.262 0 0 0 .974 1.115zm16.199.953a4.55 4.55 0 0 0-.613-1.305c-.25-.357-.582-.66-.99-.822-.443-.174-.942-.221-1.416-.266l-.112-.01c-.968-.095-1.963-.103-2.912.135-1.293.323-2.415 1.209-2.93 2.414-.038.263-.035.53.02.793 1.098.771 2.444 1.176 3.792 1.02.09-.112.182-.24.277-.373.353-.492.759-1.06 1.314-1.14.523-.076.893.268 1.265.615.19.177.382.356.595.477.035.02.073.04.112.059.107-.01.215-.022.321-.041.483-.46.913-.981 1.277-1.556zM25.51 8.26c-2.648-.14-5.061 1.228-6.998 2.932-3.526 3.102-5.698 7.644-6.135 12.308-.233 2.478-.059 5.149 1.23 7.338.5.85 1.144 1.59 1.905 2.214.716.588 1.533.927 2.406 1.158a5.043 5.043 0 0 1-.617-1.113.03.03 0 0 1-.047-.004c-.552-.758-.38-1.663-.116-2.496a19.02 19.02 0 0 1 1.022-2.55c1.453-3.007 3.612-5.627 5.854-8.072 1.027-1.12 2.085-2.21 3.142-3.301l.365-.376c.588-.607 1.175-1.217 1.755-1.833.288-.307.575-.615.859-.926l.163-.182c.22-.25.44-.496.72-.68.28-.184.558.166.427.427-.165.33-.429.605-.687.874l-.163.171-.031.034c-.298.322-.598.64-.9.958-.347.366-.697.728-1.048 1.09.11-.013.221-.024.332-.035.19-.018.38-.037.568-.065a13.23 13.23 0 0 0 1.2-.251c.418-.104.83-.236 1.228-.4.11-.046.216-.099.323-.152.262-.129.525-.258.817-.276.348-.02.457.412.264.64-.247.291-.677.418-1.049.528l-.084.025-.055.017c-.43.132-.871.23-1.316.296-.586.087-1.263.127-1.889.038 1.16.682 2.234 1.515 3.299 2.34l.252.196.202.156c1.122.866 2.217 1.798 3.016 2.982.747 1.105 1.198 2.391 1.45 3.695.126.643.208 1.293.263 1.945.206.58.173 1.267.121 1.903l-.018.22.001.064c.001.076.008.17.016.273.033.441.08 1.069-.224 1.312l-.008.04a6.07 6.07 0 0 1-.012.056c.047-.028.093-.058.14-.089l.045-.033.01-.007.052-.043a4.354 4.354 0 0 0 .882-1.129c.38-.69.622-1.438.81-2.212.342-1.415.483-2.936.327-4.387a4.927 4.927 0 0 0-.136-.717 24.629 24.629 0 0 0-2.119-5.343c-1.232-2.29-2.818-4.408-4.718-6.185-1.925-1.799-4.42-3.232-7.096-3.373z" fill="#424257"/></g><defs><filter id="a" x=".077" y="0" width="51.846" height="53" filterUnits="userSpaceOnUse" color-interpolation-filters="sRGB"><feFlood flood-opacity="0" result="BackgroundImageFix"/><feColorMatrix in="SourceAlpha" values="0 0 0 0 0 0 0 0 0 0 0 0 0 0 0 0 0 0 127 0" result="hardAlpha"/><feMorphology radius="1.154" in="SourceAlpha" result="effect1_dropShadow_604_1946"/><feOffset dy="3.077"/><feGaussianBlur stdDeviation="1.538"/><feComposite in2="hardAlpha" operator="out"/><feColorMatrix values="0 0 0 0 0.184314 0 0 0 0 0.184314 0 0 0 0 0.415686 0 0 0 0.024 0"/><feBlend in2="BackgroundImageFix" result="effect1_dropShadow_604_1946"/><feColorMatrix in="SourceAlpha" values="0 0 0 0 0 0 0 0 0 0 0 0 0 0 0 0 0 0 127 0" result="hardAlpha"/><feMorphology radius=".769" in="SourceAlpha" result="effect2_dropShadow_604_1946"/><feOffset dy=".704"/><feGaussianBlur stdDeviation=".352"/><feComposite in2="hardAlpha" operator="out"/><feColorMatrix values="0 0 0 0 0.184314 0 0 0 0 0.184314 0 0 0 0 0.415686 0 0 0 0.063 0"/><feBlend in2="effect1_dropShadow_604_1946" result="effect2_dropShadow_604_1946"/><feColorMatrix in="SourceAlpha" values="0 0 0 0 0 0 0 0 0 0 0 0 0 0 0 0 0 0 127 0" result="hardAlpha"/><feMorphology radius=".385" in="SourceAlpha" result="effect3_dropShadow_604_1946"/><feOffset dy=".185"/><feGaussianBlur stdDeviation=".093"/><feComposite in2="hardAlpha" operator="out"/><feColorMatrix values="0 0 0 0 0.184314 0 0 0 0 0.184314 0 0 0 0 0.415686 0 0 0 0.07 0"/><feBlend in2="effect2_dropShadow_604_1946" result="effect3_dropShadow_604_1946"/><feBlend in="SourceGraphic" in2="effect3_dropShadow_604_1946" result="shape"/></filter></defs></svg>