<svg preserveAspectRatio="none" width="100%" height="100%" overflow="visible" style="display: block;" viewBox="0 0 108 108" fill="none" xmlns="http://www.w3.org/2000/svg">
<g id="headshot">
<g id="headshot_2">
<path d="M54.2795 59.298C54.4518 57.1594 57.7076 56.6737 58.0315 58.7899C58.3215 60.6857 57.9801 62.4271 57.1265 64.1338C56.311 65.7644 54.2611 65.0036 54.106 63.5189C53.9529 62.0524 54.0615 61.1776 54.1721 60.2866C54.2116 59.9684 54.2513 59.648 54.2795 59.298Z" fill="var(--fill-0, #424257)"/>
<path d="M79.0647 58.3499C79.5183 57.7552 80.174 57.3492 80.9592 57.5786C83.4126 58.2958 82.6893 61.7801 81.8281 63.4761C81.3599 64.3971 79.8465 64.6306 79.1622 63.8197C78.0481 62.4973 77.5137 59.8564 78.9309 58.5537C78.9692 58.4864 79.0124 58.4185 79.0647 58.3499Z" fill="var(--fill-0, #424257)"/>
<path d="M57.0912 49.9403L57.4787 49.8724C58.6776 49.665 60.1682 49.4657 61.0163 50.4299C61.4661 50.9412 61.6209 51.8915 61.0163 52.3809C60.2245 53.022 59.3705 53.0008 58.4598 52.9783C58.1473 52.9705 57.8282 52.9626 57.5026 52.9812C56.4523 53.0415 55.4429 53.2154 54.4313 53.5047C52.2118 54.1393 50.4034 55.2977 48.5078 56.5698C48.259 56.7366 48.0051 56.4184 48.1239 56.1857C49.2181 54.0416 51.3386 52.2803 53.4627 51.2067C54.5964 50.6337 55.837 50.1583 57.0912 49.9403Z" fill="var(--fill-0, #424257)"/>
<path d="M67.4136 87.9532C66.026 87.3867 64.7879 86.4419 63.8827 85.2358C63.5681 84.8156 63.4865 84.3732 63.5525 83.9677C63.6267 83.512 63.8961 83.0995 64.2635 82.8222C64.6321 82.5448 65.0932 82.4076 65.5389 82.4773C65.9262 82.5379 66.3118 82.7504 66.6169 83.1901L66.6806 83.2779C67.2188 84.0067 67.92 84.6038 68.7191 84.9891C69.4892 85.3605 70.3505 85.534 71.2418 85.433C72.9394 85.2414 74.1094 84.323 75.353 83.0758C75.5072 82.9183 75.6615 82.756 75.8165 82.5908C75.9144 82.441 76.0502 82.3449 76.201 82.2947C76.3685 82.2383 76.5579 82.2418 76.7312 82.3024C76.8991 82.3609 77.0482 82.4717 77.1486 82.6187C77.244 82.7588 77.2984 82.9316 77.2803 83.1308C77.1667 84.4234 76.4912 85.5765 75.5317 86.4823C74.466 87.4885 73.0535 88.1845 71.7236 88.4284C70.2584 88.6974 68.7655 88.5051 67.4136 87.9532Z" fill="var(--fill-0, #424257)"/>
<path d="M40.2777 26.6231C40.5879 26.4331 40.9071 26.8021 40.7533 27.0999C40.19 28.1893 39.3367 29.1504 38.5042 30.0881C38.2354 30.3908 37.9686 30.6913 37.7146 30.9927C36.637 32.2713 35.5673 33.557 34.5002 34.8446C32.3273 37.4661 30.2066 40.1357 28.1695 42.8649L27.6317 43.5868C25.8407 45.9968 24.0715 48.445 22.506 51.0056C21.6869 52.3452 20.965 53.7305 20.3096 55.1573C20.0449 55.7335 19.8406 56.3604 19.636 56.9886C19.3582 57.8411 19.0797 58.6961 18.648 59.4307C18.6008 59.5112 18.4546 59.5046 18.4364 59.4028C18.2064 58.1116 18.7267 56.5724 19.1487 55.3241C19.1757 55.2443 19.2023 55.1656 19.2283 55.0884C19.7418 53.5586 20.4727 52.1015 21.2551 50.6942C22.887 47.7586 24.8424 45.0069 26.8068 42.2885C28.8019 39.5282 30.8732 36.8243 33.0463 34.2021C34.0669 32.9704 35.1105 31.7634 36.1853 30.5802L36.5899 30.1376C36.7853 29.925 36.981 29.7067 37.1785 29.4864C38.1185 28.4378 39.0981 27.3449 40.2777 26.6231Z" fill="var(--fill-0, #424257)"/>
<path d="M35.0601 22.3551C35.5703 21.9762 36.0058 22.7506 35.6803 23.1611C34.2129 25.0115 32.5929 26.7203 30.9717 28.4302C30.4447 28.9861 29.9175 29.5421 29.3955 30.1031C27.352 32.2992 25.3987 34.5776 23.5556 36.9455C19.7976 41.7741 16.7894 47.0726 14.2416 52.6256C14.1936 52.7303 14.0424 52.6522 14.065 52.5511C15.4145 46.5446 18.5696 41.0893 22.162 36.1602L22.2987 35.9733C25.9323 31.0166 30.1091 26.0339 35.0601 22.3551Z" fill="var(--fill-0, #424257)"/>
<path fill-rule="evenodd" clip-rule="evenodd" d="M45.203 0.690811C49.7711 -0.379076 54.5615 -0.157293 59.0863 1.01853C68.0545 3.34932 75.4336 9.41035 81.5522 16.1682C87.5201 22.7597 92.4414 30.316 96.0361 38.4561L96.2179 38.8702C98.7604 44.6728 100.97 50.7041 101.065 57.0933C101.146 62.5923 100.592 68.3211 98.8197 73.5515C97.2415 78.2108 94.3373 82.9057 89.3414 84.0226C88.6929 85.6749 87.9048 87.2774 86.9918 88.8076C87.2897 90.5993 87.508 92.9564 87.058 94.6059C86.3055 97.3645 84.9447 99.9808 83.2237 102.277C81.642 104.386 79.6485 106.139 77.1791 107.108C73.9566 108.373 70.1137 108.018 66.7512 107.691C62.5517 107.282 58.4243 106.348 54.4311 104.996C52.4333 104.322 50.4728 103.545 48.541 102.703C48.259 102.581 47.9744 102.459 47.6883 102.336C46.0481 101.632 44.3597 100.907 42.8448 99.9969C41.5483 99.2174 40.4133 98.0591 39.3368 96.9605C39.1431 96.7628 38.9513 96.567 38.7607 96.3757C37.3327 94.9419 35.9274 93.4638 34.6141 91.9144C34.5341 91.9577 34.4529 91.9947 34.3726 92.025C32.9289 92.5688 31.437 91.1585 30.401 90.1791C30.3205 90.1031 30.2428 90.0296 30.168 89.9598C29.5214 89.3557 28.9269 88.7056 28.3756 88.0186C27.839 88.0952 27.2989 88.1343 26.7643 88.0702C25.936 87.9719 25.1157 87.8263 24.3088 87.6138C17.6163 85.8523 12.6626 80.283 9.99001 74.0803C6.40192 65.7528 6.48535 56.1536 7.97699 47.3475C10.7026 31.2548 19.5238 16.226 32.8439 6.71138C36.5744 4.04668 40.711 1.74273 45.203 0.690811ZM30.5384 85.6752C30.2935 85.0048 30.107 84.2953 29.9886 83.5251C29.3668 79.471 29.945 75.2111 30.497 71.1439C30.5416 70.8149 30.5861 70.4872 30.6297 70.161C30.6463 70.0244 30.8607 69.952 30.906 70.0927L30.8937 69.8635C30.8792 69.5364 31.3554 69.4932 31.4441 69.7889C32.5285 73.3773 34.2994 76.6438 36.8455 79.403C40.0192 82.8418 43.9913 85.3276 47.9431 87.8006C48.3569 88.0596 48.7704 88.3184 49.1828 88.5781C49.3287 88.4402 49.5061 88.3426 49.6938 88.3057C50.3229 85.4747 52.4028 82.8437 54.4599 81.053C58.1551 77.8386 63.2156 75.749 68.2974 75.352C67.8465 75.0887 67.3816 74.7817 66.9033 74.4274C65.6985 73.4547 67.1574 71.3135 68.456 72.1462C68.5218 72.1967 68.5907 72.25 68.6626 72.3056C70.1215 73.4339 72.791 75.4987 74.6722 73.5244C76.3491 71.1742 73.974 68.9642 72.4152 68.0163C72.0069 67.7231 72.3309 66.7518 73.2036 66.9019C78.3223 67.7816 78.4227 73.7893 75.1262 75.9164C75.9667 76.1365 76.7893 76.4158 77.5867 76.7574C80.739 78.1091 83.3944 80.4746 85.1245 83.4429C85.2944 83.7345 85.4558 84.0318 85.6081 84.3342C85.86 83.7908 86.0982 83.2411 86.3209 82.6855C86.2736 82.5176 86.2457 82.3469 86.2457 82.181C86.2457 81.7888 86.432 81.5643 86.6369 81.3175C86.7997 81.1214 86.9741 80.9112 87.0762 80.5917C87.3062 79.8698 87.5103 79.1389 87.681 78.4003C88.067 76.7274 88.2823 75.03 88.4126 73.3195C88.4604 72.6881 88.4744 72.0392 88.4886 71.3854C88.5055 70.5998 88.5226 69.807 88.5987 69.0292C88.5478 67.887 88.4774 66.7459 88.3743 65.6072C88.042 61.9381 87.3703 58.2781 86.0757 54.82L86.0614 54.7819C86.0492 54.8082 86.0355 54.8268 86.0227 54.8431L86.006 54.864C86.0033 54.8673 86.0008 54.8707 85.9982 54.8742C85.9957 54.8776 85.9933 54.881 85.9907 54.8844C85.9538 54.9355 85.9077 54.999 85.737 55.0526C85.6833 55.0397 85.629 55.0261 85.574 55.0117C84.873 54.828 84.3191 54.5749 83.7819 54.3123L83.2 54.0255C82.5249 53.6944 81.8441 53.3753 81.1223 53.1397C79.5817 52.6371 77.9972 52.283 76.3886 52.094C76.0399 52.053 75.7041 51.9353 75.4391 51.7335C75.1877 51.542 74.9955 51.2768 74.9079 50.9243C74.7944 50.4682 74.827 50.1228 75.0718 49.7113C75.2557 49.4022 75.5189 49.188 75.8212 49.0649C76.1294 48.9396 76.4801 48.91 76.8287 48.9798L77.1256 49.0406C79.9322 49.6276 83.4697 50.7238 85.3498 53.0855C84.0521 50.289 82.2542 47.7806 80.0813 45.5697C77.4205 42.8619 74.4499 40.501 71.4803 38.1409C68.1964 35.5311 64.9137 32.9221 62.0523 29.846L61.767 29.536L61.7477 29.5298L61.4842 29.8006C60.896 30.4052 60.3078 31.0097 59.7183 31.6131L56.6229 34.7781C50.305 41.2449 44.0383 47.7746 38.5421 54.9707C35.3773 59.1146 32.5339 63.4584 30.0839 68.0646C28.9238 70.246 27.8718 72.4819 26.921 74.7632L26.5468 75.6711C26.1016 76.758 25.6205 77.9746 25.3532 79.2016C25.8798 79.7254 26.3127 80.4117 26.7319 81.0762C26.9456 81.4151 27.1558 81.7483 27.373 82.0514C28.1024 83.0694 28.9437 84.0386 29.8093 84.9423C30.0463 85.19 30.2895 85.4349 30.5384 85.6752ZM83.1842 88.7731C82.7287 87.2733 82.0955 85.8168 81.1926 84.5341C80.3801 83.3739 79.3001 82.3859 77.9742 81.8633C76.5362 81.2959 74.914 81.1423 73.3732 80.9965C73.2509 80.9849 73.1292 80.9734 73.008 80.9617C69.8641 80.6558 66.6274 80.6307 63.5432 81.4021C59.3433 82.4542 55.6955 85.3326 54.0241 89.2498C53.8978 90.1048 53.9083 90.9695 54.0893 91.8272C57.6539 94.3328 62.0315 95.6497 66.4124 95.139C66.7037 94.7774 67.0017 94.3613 67.3126 93.9273C68.4579 92.3284 69.7778 90.4857 71.5829 90.2232C73.2819 89.9769 74.4843 91.0968 75.6922 92.2217C76.3126 92.7995 76.9345 93.3786 77.6258 93.7747C77.7393 93.8395 77.8634 93.9029 77.9916 93.9642C78.3403 93.9352 78.6893 93.8923 79.0344 93.8307C80.6044 92.3366 82.002 90.6415 83.1842 88.7731ZM52.4141 2.8435C43.8091 2.38899 35.9639 6.83706 29.6696 12.374C18.2091 22.4555 11.1499 37.2163 9.72978 52.3742C8.97521 60.4278 9.53985 69.1086 13.729 76.2243C15.3543 78.9849 17.4477 81.3902 19.9187 83.4185C22.2471 85.3304 24.9012 86.432 27.7386 87.1818C27.6094 87.0034 27.4819 86.8236 27.3579 86.6411C26.6979 85.6726 26.1736 84.6427 25.7344 83.5641C25.6957 83.6031 25.6228 83.6108 25.5797 83.5516C23.7888 81.0878 24.3493 78.1488 25.203 75.4397C26.098 72.5983 27.2325 69.8335 28.5271 67.152C33.2464 57.3786 40.2655 48.8643 47.5517 40.9191C50.8895 37.2796 54.3266 33.7346 57.7635 30.1896C58.1583 29.7825 58.5531 29.3753 58.9477 28.968C60.8607 26.9938 62.7684 25.0138 64.6521 23.0112C65.5896 22.0142 66.5213 21.012 67.4445 20.0018C67.6235 19.806 67.799 19.6079 67.974 19.4103C68.6918 18.6001 69.4019 17.7984 70.3158 17.1969C71.222 16.6007 72.1265 17.7402 71.703 18.5877C71.1656 19.663 70.3092 20.5545 69.4693 21.4287C69.2911 21.6142 69.1136 21.799 68.94 21.9845L68.838 22.0943C67.8716 23.14 66.8962 24.1773 65.9151 25.209C64.7866 26.3955 63.6493 27.5741 62.5085 28.7495C62.8672 28.7078 63.2276 28.6727 63.588 28.6375C64.205 28.5774 64.8226 28.5172 65.433 28.4242C66.7464 28.2244 68.0422 27.9298 69.3313 27.6096C70.6899 27.2724 72.0309 26.8418 73.3252 26.3066C73.6785 26.1605 74.0261 25.989 74.3744 25.8171C75.225 25.3973 76.0793 24.9757 77.0287 24.9197C78.161 24.8527 78.515 26.2584 77.8872 26.9981C77.0842 27.9447 75.6861 28.3582 74.4781 28.7155C74.3853 28.743 74.2935 28.7701 74.2033 28.7971L74.0248 28.851C72.6263 29.2789 71.1952 29.6001 69.7486 29.8146C67.8455 30.0971 65.6458 30.2264 63.6095 29.9373C67.3783 32.1525 70.8683 34.8589 74.3296 37.543C74.6029 37.7549 74.876 37.9667 75.1491 38.1781L75.8075 38.687C79.4528 41.4988 83.0112 44.5298 85.6102 48.3768C88.0364 51.968 89.5017 56.1491 90.3239 60.3855C90.7294 62.4755 90.997 64.5876 91.1767 66.7086C91.8456 68.5891 91.7383 70.825 91.5697 72.893L91.5098 73.6065L91.514 73.8163C91.5188 74.0623 91.5414 74.3657 91.5666 74.7026C91.6736 76.1365 91.8258 78.1758 90.8367 78.9668C90.8279 79.0107 90.8193 79.0547 90.8107 79.0988C90.799 79.159 90.7872 79.2193 90.7747 79.2797C90.9266 79.1856 91.0771 79.0887 91.2255 78.9891C91.2761 78.9552 91.3253 78.9184 91.3747 78.8815L91.406 78.8581L91.5753 78.7194L91.5775 78.7175C91.5829 78.7127 91.5876 78.7085 91.5913 78.7048C91.9704 78.3718 92.332 78.0234 92.6692 77.6471C93.2922 76.951 93.8837 76.0675 94.4446 75.0488C95.6765 72.8101 96.4639 70.377 97.0728 67.8609C98.1856 63.261 98.6448 58.3205 98.1368 53.6031C98.0658 52.9446 97.9208 52.119 97.6951 51.2719C97.1592 49.2605 96.5433 47.2705 95.8535 45.3073C94.4732 41.3798 92.7821 37.5696 90.8095 33.9054C86.8038 26.4631 81.6497 19.5824 75.474 13.8084C69.2201 7.96085 61.1097 3.30276 52.4141 2.8435Z" fill="var(--fill-0, #424257)"/>
</g>
</g>
</svg>
